<?xml version="1.0" encoding="utf-8" standalone="no"?>
<!DOCTYPE svg PUBLIC "-//W3C//DTD SVG 1.1//EN"
  "http://www.w3.org/Graphics/SVG/1.1/DTD/svg11.dtd">
<svg xmlns:xlink="http://www.w3.org/1999/xlink" width="504pt" height="504pt" viewBox="0 0 504 504" xmlns="http://www.w3.org/2000/svg" version="1.1">
 <metadata>
  <rdf:RDF xmlns:dc="http://purl.org/dc/elements/1.1/" xmlns:cc="http://creativecommons.org/ns#" xmlns:rdf="http://www.w3.org/1999/02/22-rdf-syntax-ns#">
   <cc:Work>
    <dc:type rdf:resource="http://purl.org/dc/dcmitype/StillImage"/>
    <dc:date>2025-06-24T14:18:32.202763</dc:date>
    <dc:format>image/svg+xml</dc:format>
    <dc:creator>
     <cc:Agent>
      <dc:title>Matplotlib v3.8.0, https://matplotlib.org/</dc:title>
     </cc:Agent>
    </dc:creator>
   </cc:Work>
  </rdf:RDF>
 </metadata>
 <defs>
  <style type="text/css">*{stroke-linejoin: round; stroke-linecap: butt}</style>
 </defs>
 <g id="figure_1">
  <g id="patch_1">
   <path d="M 0 504 
L 504 504 
L 504 0 
L 0 0 
z
" style="fill: #ffffff"/>
  </g>
  <g id="axes_1">
   <g id="patch_2">
    <path d="M 63 448.56 
L 453.6 448.56 
L 453.6 60.48 
L 63 60.48 
z
" style="fill: #ffffff"/>
   </g>
   <g id="matplotlib.axis_1">
    <g id="xtick_1">
     <g id="line2d_1">
      <defs>
       <path id="m9958411fa5" d="M 0 0 
L 0 5 
" style="stroke: #262626; stroke-width: 0.8"/>
      </defs>
      <g>
       <use xlink:href="#m9958411fa5" x="101.461286" y="448.56" style="fill: #262626; stroke: #262626; stroke-width: 0.8"/>
      </g>
     </g>
     <g id="text_1">
      <!-- 0 -->
      <g style="fill: #262626" transform="translate(97.56863 467.080938) scale(0.14 -0.14)">
       <defs>
        <path id="ArialMT-30" d="M 266 2259 
Q 266 3072 433 3567 
Q 600 4063 929 4331 
Q 1259 4600 1759 4600 
Q 2128 4600 2406 4451 
Q 2684 4303 2865 4023 
Q 3047 3744 3150 3342 
Q 3253 2941 3253 2259 
Q 3253 1453 3087 958 
Q 2922 463 2592 192 
Q 2263 -78 1759 -78 
Q 1097 -78 719 397 
Q 266 969 266 2259 
z
M 844 2259 
Q 844 1131 1108 757 
Q 1372 384 1759 384 
Q 2147 384 2411 759 
Q 2675 1134 2675 2259 
Q 2675 3391 2411 3762 
Q 2147 4134 1753 4134 
Q 1366 4134 1134 3806 
Q 844 3388 844 2259 
z
" transform="scale(0.015625)"/>
       </defs>
       <use xlink:href="#ArialMT-30"/>
      </g>
     </g>
    </g>
    <g id="xtick_2">
     <g id="line2d_2">
      <g>
       <use xlink:href="#m9958411fa5" x="147.323714" y="448.56" style="fill: #262626; stroke: #262626; stroke-width: 0.8"/>
      </g>
     </g>
     <g id="text_2">
      <!-- 2 -->
      <g style="fill: #262626" transform="translate(143.431057 467.080938) scale(0.14 -0.14)">
       <defs>
        <path id="ArialMT-32" d="M 3222 541 
L 3222 0 
L 194 0 
Q 188 203 259 391 
Q 375 700 629 1000 
Q 884 1300 1366 1694 
Q 2113 2306 2375 2664 
Q 2638 3022 2638 3341 
Q 2638 3675 2398 3904 
Q 2159 4134 1775 4134 
Q 1369 4134 1125 3890 
Q 881 3647 878 3216 
L 300 3275 
Q 359 3922 746 4261 
Q 1134 4600 1788 4600 
Q 2447 4600 2831 4234 
Q 3216 3869 3216 3328 
Q 3216 3053 3103 2787 
Q 2991 2522 2730 2228 
Q 2469 1934 1863 1422 
Q 1356 997 1212 845 
Q 1069 694 975 541 
L 3222 541 
z
" transform="scale(0.015625)"/>
       </defs>
       <use xlink:href="#ArialMT-32"/>
      </g>
     </g>
    </g>
    <g id="xtick_3">
     <g id="line2d_3">
      <g>
       <use xlink:href="#m9958411fa5" x="193.186141" y="448.56" style="fill: #262626; stroke: #262626; stroke-width: 0.8"/>
      </g>
     </g>
     <g id="text_3">
      <!-- 4 -->
      <g style="fill: #262626" transform="translate(189.293485 467.080938) scale(0.14 -0.14)">
       <defs>
        <path id="ArialMT-34" d="M 2069 0 
L 2069 1097 
L 81 1097 
L 81 1613 
L 2172 4581 
L 2631 4581 
L 2631 1613 
L 3250 1613 
L 3250 1097 
L 2631 1097 
L 2631 0 
L 2069 0 
z
M 2069 1613 
L 2069 3678 
L 634 1613 
L 2069 1613 
z
" transform="scale(0.015625)"/>
       </defs>
       <use xlink:href="#ArialMT-34"/>
      </g>
     </g>
    </g>
    <g id="xtick_4">
     <g id="line2d_4">
      <g>
       <use xlink:href="#m9958411fa5" x="239.048568" y="448.56" style="fill: #262626; stroke: #262626; stroke-width: 0.8"/>
      </g>
     </g>
     <g id="text_4">
      <!-- 6 -->
      <g style="fill: #262626" transform="translate(235.155912 467.080938) scale(0.14 -0.14)">
       <defs>
        <path id="ArialMT-36" d="M 3184 3459 
L 2625 3416 
Q 2550 3747 2413 3897 
Q 2184 4138 1850 4138 
Q 1581 4138 1378 3988 
Q 1113 3794 959 3422 
Q 806 3050 800 2363 
Q 1003 2672 1297 2822 
Q 1591 2972 1913 2972 
Q 2475 2972 2870 2558 
Q 3266 2144 3266 1488 
Q 3266 1056 3080 686 
Q 2894 316 2569 119 
Q 2244 -78 1831 -78 
Q 1128 -78 684 439 
Q 241 956 241 2144 
Q 241 3472 731 4075 
Q 1159 4600 1884 4600 
Q 2425 4600 2770 4297 
Q 3116 3994 3184 3459 
z
M 888 1484 
Q 888 1194 1011 928 
Q 1134 663 1356 523 
Q 1578 384 1822 384 
Q 2178 384 2434 671 
Q 2691 959 2691 1453 
Q 2691 1928 2437 2201 
Q 2184 2475 1800 2475 
Q 1419 2475 1153 2201 
Q 888 1928 888 1484 
z
" transform="scale(0.015625)"/>
       </defs>
       <use xlink:href="#ArialMT-36"/>
      </g>
     </g>
    </g>
    <g id="xtick_5">
     <g id="line2d_5">
      <g>
       <use xlink:href="#m9958411fa5" x="284.910995" y="448.56" style="fill: #262626; stroke: #262626; stroke-width: 0.8"/>
      </g>
     </g>
     <g id="text_5">
      <!-- 8 -->
      <g style="fill: #262626" transform="translate(281.018339 467.080938) scale(0.14 -0.14)">
       <defs>
        <path id="ArialMT-38" d="M 1131 2484 
Q 781 2613 612 2850 
Q 444 3088 444 3419 
Q 444 3919 803 4259 
Q 1163 4600 1759 4600 
Q 2359 4600 2725 4251 
Q 3091 3903 3091 3403 
Q 3091 3084 2923 2848 
Q 2756 2613 2416 2484 
Q 2838 2347 3058 2040 
Q 3278 1734 3278 1309 
Q 3278 722 2862 322 
Q 2447 -78 1769 -78 
Q 1091 -78 675 323 
Q 259 725 259 1325 
Q 259 1772 486 2073 
Q 713 2375 1131 2484 
z
M 1019 3438 
Q 1019 3113 1228 2906 
Q 1438 2700 1772 2700 
Q 2097 2700 2305 2904 
Q 2513 3109 2513 3406 
Q 2513 3716 2298 3927 
Q 2084 4138 1766 4138 
Q 1444 4138 1231 3931 
Q 1019 3725 1019 3438 
z
M 838 1322 
Q 838 1081 952 856 
Q 1066 631 1291 507 
Q 1516 384 1775 384 
Q 2178 384 2440 643 
Q 2703 903 2703 1303 
Q 2703 1709 2433 1975 
Q 2163 2241 1756 2241 
Q 1359 2241 1098 1978 
Q 838 1716 838 1322 
z
" transform="scale(0.015625)"/>
       </defs>
       <use xlink:href="#ArialMT-38"/>
      </g>
     </g>
    </g>
    <g id="xtick_6">
     <g id="line2d_6">
      <g>
       <use xlink:href="#m9958411fa5" x="330.773423" y="448.56" style="fill: #262626; stroke: #262626; stroke-width: 0.8"/>
      </g>
     </g>
     <g id="text_6">
      <!-- 10 -->
      <g style="fill: #262626" transform="translate(322.98811 467.080938) scale(0.14 -0.14)">
       <defs>
        <path id="ArialMT-31" d="M 2384 0 
L 1822 0 
L 1822 3584 
Q 1619 3391 1289 3197 
Q 959 3003 697 2906 
L 697 3450 
Q 1169 3672 1522 3987 
Q 1875 4303 2022 4600 
L 2384 4600 
L 2384 0 
z
" transform="scale(0.015625)"/>
       </defs>
       <use xlink:href="#ArialMT-31"/>
       <use xlink:href="#ArialMT-30" x="55.615234"/>
      </g>
     </g>
    </g>
    <g id="xtick_7">
     <g id="line2d_7">
      <g>
       <use xlink:href="#m9958411fa5" x="376.63585" y="448.56" style="fill: #262626; stroke: #262626; stroke-width: 0.8"/>
      </g>
     </g>
     <g id="text_7">
      <!-- 12 -->
      <g style="fill: #262626" transform="translate(368.850537 467.080938) scale(0.14 -0.14)">
       <use xlink:href="#ArialMT-31"/>
       <use xlink:href="#ArialMT-32" x="55.615234"/>
      </g>
     </g>
    </g>
    <g id="xtick_8">
     <g id="line2d_8">
      <g>
       <use xlink:href="#m9958411fa5" x="422.498277" y="448.56" style="fill: #262626; stroke: #262626; stroke-width: 0.8"/>
      </g>
     </g>
     <g id="text_8">
      <!-- 14 -->
      <g style="fill: #262626" transform="translate(414.712965 467.080938) scale(0.14 -0.14)">
       <use xlink:href="#ArialMT-31"/>
       <use xlink:href="#ArialMT-34" x="55.615234"/>
      </g>
     </g>
    </g>
    <g id="text_9">
     <!-- x [\xb5m] -->
     <g style="fill: #262626" transform="translate(225.84875 485.510938) scale(0.16 -0.16)">
      <defs>
       <path id="ArialMT-78" d="M 47 0 
L 1259 1725 
L 138 3319 
L 841 3319 
L 1350 2541 
Q 1494 2319 1581 2169 
Q 1719 2375 1834 2534 
L 2394 3319 
L 3066 3319 
L 1919 1756 
L 3153 0 
L 2463 0 
L 1781 1031 
L 1600 1309 
L 728 0 
L 47 0 
z
" transform="scale(0.015625)"/>
       <path id="ArialMT-20" transform="scale(0.015625)"/>
       <path id="ArialMT-5b" d="M 434 -1272 
L 434 4581 
L 1675 4581 
L 1675 4116 
L 997 4116 
L 997 -806 
L 1675 -806 
L 1675 -1272 
L 434 -1272 
z
" transform="scale(0.015625)"/>
       <path id="ArialMT-5c" d="M 1328 -78 
L 0 4659 
L 453 4659 
L 1778 -78 
L 1328 -78 
z
" transform="scale(0.015625)"/>
       <path id="ArialMT-62" d="M 941 0 
L 419 0 
L 419 4581 
L 981 4581 
L 981 2947 
Q 1338 3394 1891 3394 
Q 2197 3394 2470 3270 
Q 2744 3147 2920 2923 
Q 3097 2700 3197 2384 
Q 3297 2069 3297 1709 
Q 3297 856 2875 390 
Q 2453 -75 1863 -75 
Q 1275 -75 941 416 
L 941 0 
z
M 934 1684 
Q 934 1088 1097 822 
Q 1363 388 1816 388 
Q 2184 388 2453 708 
Q 2722 1028 2722 1663 
Q 2722 2313 2464 2622 
Q 2206 2931 1841 2931 
Q 1472 2931 1203 2611 
Q 934 2291 934 1684 
z
" transform="scale(0.015625)"/>
       <path id="ArialMT-35" d="M 266 1200 
L 856 1250 
Q 922 819 1161 601 
Q 1400 384 1738 384 
Q 2144 384 2425 690 
Q 2706 997 2706 1503 
Q 2706 1984 2436 2262 
Q 2166 2541 1728 2541 
Q 1456 2541 1237 2417 
Q 1019 2294 894 2097 
L 366 2166 
L 809 4519 
L 3088 4519 
L 3088 3981 
L 1259 3981 
L 1013 2750 
Q 1425 3038 1878 3038 
Q 2478 3038 2890 2622 
Q 3303 2206 3303 1553 
Q 3303 931 2941 478 
Q 2500 -78 1738 -78 
Q 1113 -78 717 272 
Q 322 622 266 1200 
z
" transform="scale(0.015625)"/>
       <path id="ArialMT-6d" d="M 422 0 
L 422 3319 
L 925 3319 
L 925 2853 
Q 1081 3097 1340 3245 
Q 1600 3394 1931 3394 
Q 2300 3394 2536 3241 
Q 2772 3088 2869 2813 
Q 3263 3394 3894 3394 
Q 4388 3394 4653 3120 
Q 4919 2847 4919 2278 
L 4919 0 
L 4359 0 
L 4359 2091 
Q 4359 2428 4304 2576 
Q 4250 2725 4106 2815 
Q 3963 2906 3769 2906 
Q 3419 2906 3187 2673 
Q 2956 2441 2956 1928 
L 2956 0 
L 2394 0 
L 2394 2156 
Q 2394 2531 2256 2718 
Q 2119 2906 1806 2906 
Q 1569 2906 1367 2781 
Q 1166 2656 1075 2415 
Q 984 2175 984 1722 
L 984 0 
L 422 0 
z
" transform="scale(0.015625)"/>
       <path id="ArialMT-5d" d="M 1363 -1272 
L 122 -1272 
L 122 -806 
L 800 -806 
L 800 4116 
L 122 4116 
L 122 4581 
L 1363 4581 
L 1363 -1272 
z
" transform="scale(0.015625)"/>
      </defs>
      <use xlink:href="#ArialMT-78"/>
      <use xlink:href="#ArialMT-20" x="50"/>
      <use xlink:href="#ArialMT-5b" x="77.783203"/>
      <use xlink:href="#ArialMT-5c" x="105.566406"/>
      <use xlink:href="#ArialMT-78" x="133.349609"/>
      <use xlink:href="#ArialMT-62" x="183.349609"/>
      <use xlink:href="#ArialMT-35" x="238.964844"/>
      <use xlink:href="#ArialMT-6d" x="294.580078"/>
      <use xlink:href="#ArialMT-5d" x="377.880859"/>
     </g>
    </g>
   </g>
   <g id="matplotlib.axis_2">
    <g id="ytick_1">
     <g id="line2d_9">
      <defs>
       <path id="m3a59951df0" d="M 0 0 
L -5 0 
" style="stroke: #262626; stroke-width: 0.8"/>
      </defs>
      <g>
       <use xlink:href="#m3a59951df0" x="63" y="69.800963" style="fill: #262626; stroke: #262626; stroke-width: 0.8"/>
      </g>
     </g>
     <g id="text_10">
      <!-- 4 -->
      <g style="fill: #262626" transform="translate(46.714687 74.811431) scale(0.14 -0.14)">
       <use xlink:href="#ArialMT-34"/>
      </g>
     </g>
    </g>
    <g id="ytick_2">
     <g id="line2d_10">
      <g>
       <use xlink:href="#m3a59951df0" x="63" y="115.66339" style="fill: #262626; stroke: #262626; stroke-width: 0.8"/>
      </g>
     </g>
     <g id="text_11">
      <!-- 6 -->
      <g style="fill: #262626" transform="translate(46.714687 120.673859) scale(0.14 -0.14)">
       <use xlink:href="#ArialMT-36"/>
      </g>
     </g>
    </g>
    <g id="ytick_3">
     <g id="line2d_11">
      <g>
       <use xlink:href="#m3a59951df0" x="63" y="161.525817" style="fill: #262626; stroke: #262626; stroke-width: 0.8"/>
      </g>
     </g>
     <g id="text_12">
      <!-- 8 -->
      <g style="fill: #262626" transform="translate(46.714687 166.536286) scale(0.14 -0.14)">
       <use xlink:href="#ArialMT-38"/>
      </g>
     </g>
    </g>
    <g id="ytick_4">
     <g id="line2d_12">
      <g>
       <use xlink:href="#m3a59951df0" x="63" y="207.388244" style="fill: #262626; stroke: #262626; stroke-width: 0.8"/>
      </g>
     </g>
     <g id="text_13">
      <!-- 10 -->
      <g style="fill: #262626" transform="translate(38.929375 212.398713) scale(0.14 -0.14)">
       <use xlink:href="#ArialMT-31"/>
       <use xlink:href="#ArialMT-30" x="55.615234"/>
      </g>
     </g>
    </g>
    <g id="ytick_5">
     <g id="line2d_13">
      <g>
       <use xlink:href="#m3a59951df0" x="63" y="253.250672" style="fill: #262626; stroke: #262626; stroke-width: 0.8"/>
      </g>
     </g>
     <g id="text_14">
      <!-- 12 -->
      <g style="fill: #262626" transform="translate(38.929375 258.26114) scale(0.14 -0.14)">
       <use xlink:href="#ArialMT-31"/>
       <use xlink:href="#ArialMT-32" x="55.615234"/>
      </g>
     </g>
    </g>
    <g id="ytick_6">
     <g id="line2d_14">
      <g>
       <use xlink:href="#m3a59951df0" x="63" y="299.113099" style="fill: #262626; stroke: #262626; stroke-width: 0.8"/>
      </g>
     </g>
     <g id="text_15">
      <!-- 14 -->
      <g style="fill: #262626" transform="translate(38.929375 304.123568) scale(0.14 -0.14)">
       <use xlink:href="#ArialMT-31"/>
       <use xlink:href="#ArialMT-34" x="55.615234"/>
      </g>
     </g>
    </g>
    <g id="ytick_7">
     <g id="line2d_15">
      <g>
       <use xlink:href="#m3a59951df0" x="63" y="344.975526" style="fill: #262626; stroke: #262626; stroke-width: 0.8"/>
      </g>
     </g>
     <g id="text_16">
      <!-- 16 -->
      <g style="fill: #262626" transform="translate(38.929375 349.985995) scale(0.14 -0.14)">
       <use xlink:href="#ArialMT-31"/>
       <use xlink:href="#ArialMT-36" x="55.615234"/>
      </g>
     </g>
    </g>
    <g id="ytick_8">
     <g id="line2d_16">
      <g>
       <use xlink:href="#m3a59951df0" x="63" y="390.837953" style="fill: #262626; stroke: #262626; stroke-width: 0.8"/>
      </g>
     </g>
     <g id="text_17">
      <!-- 18 -->
      <g style="fill: #262626" transform="translate(38.929375 395.848422) scale(0.14 -0.14)">
       <use xlink:href="#ArialMT-31"/>
       <use xlink:href="#ArialMT-38" x="55.615234"/>
      </g>
     </g>
    </g>
    <g id="ytick_9">
     <g id="line2d_17">
      <g>
       <use xlink:href="#m3a59951df0" x="63" y="436.700381" style="fill: #262626; stroke: #262626; stroke-width: 0.8"/>
      </g>
     </g>
     <g id="text_18">
      <!-- 20 -->
      <g style="fill: #262626" transform="translate(38.929375 441.710849) scale(0.14 -0.14)">
       <use xlink:href="#ArialMT-32"/>
       <use xlink:href="#ArialMT-30" x="55.615234"/>
      </g>
     </g>
    </g>
    <g id="text_19">
     <!-- y [\xb5m] -->
     <g style="fill: #262626" transform="translate(31.561875 286.97125) rotate(-90) scale(0.16 -0.16)">
      <defs>
       <path id="ArialMT-79" d="M 397 -1278 
L 334 -750 
Q 519 -800 656 -800 
Q 844 -800 956 -737 
Q 1069 -675 1141 -563 
Q 1194 -478 1313 -144 
Q 1328 -97 1363 -6 
L 103 3319 
L 709 3319 
L 1400 1397 
Q 1534 1031 1641 628 
Q 1738 1016 1872 1384 
L 2581 3319 
L 3144 3319 
L 1881 -56 
Q 1678 -603 1566 -809 
Q 1416 -1088 1222 -1217 
Q 1028 -1347 759 -1347 
Q 597 -1347 397 -1278 
z
" transform="scale(0.015625)"/>
      </defs>
      <use xlink:href="#ArialMT-79"/>
      <use xlink:href="#ArialMT-20" x="50"/>
      <use xlink:href="#ArialMT-5b" x="77.783203"/>
      <use xlink:href="#ArialMT-5c" x="105.566406"/>
      <use xlink:href="#ArialMT-78" x="133.349609"/>
      <use xlink:href="#ArialMT-62" x="183.349609"/>
      <use xlink:href="#ArialMT-35" x="238.964844"/>
      <use xlink:href="#ArialMT-6d" x="294.580078"/>
      <use xlink:href="#ArialMT-5d" x="377.880859"/>
     </g>
    </g>
   </g>
   <g id="line2d_18">
    <path d="M 369.6732 202.23457 
L 369.771168 202.557691 
L 369.523915 202.372057 
L 370.088209 202.586337 
L 369.927226 202.686202 
L 369.657855 202.517599 
L 369.753935 202.980541 
L 370.050333 202.581821 
L 369.681175 202.250989 
L 369.875757 202.898697 
L 369.103439 202.577153 
L 368.935393 202.637695 
L 369.346735 201.833964 
L 369.068842 202.009213 
L 368.921671 202.258342 
L 369.333849 201.630939 
L 369.291085 202.074757 
L 369.490626 202.882921 
L 369.684829 202.909322 
L 369.329334 202.492559 
L 369.139256 201.751684 
L 369.448824 202.157971 
L 369.622086 201.869455 
L 369.549231 202.562228 
L 370.036458 203.009189 
L 369.22087 202.883531 
L 368.276195 202.374568 
L 369.962833 203.280964 
L 370.364673 203.996958 
L 370.209185 203.699272 
L 370.76448 203.296822 
L 370.375696 202.944284 
L 370.072667 202.167135 
L 370.111407 202.962892 
M 370.375215 202.851887 
L 370.550809 203.133179 
L 370.603964 203.870995 
M 370.147601 202.902196 
L 370.648278 203.293562 
L 370.191892 203.230065 
L 370.215405 202.764629 
L 370.209984 202.959019 
L 369.890177 203.30033 
L 370.273934 203.732425 
L 370.018679 203.308193 
L 369.818163 202.964591 
L 370.233391 203.483027 
L 369.946106 203.455066 
L 369.845006 202.855112 
L 369.114366 202.219748 
L 369.433401 202.231853 
L 369.057627 202.0795 
L 369.314535 202.072906 
L 369.172681 202.360953 
L 369.6402 202.558339 
L 369.353975 202.247571 
L 369.786313 202.188041 
L 369.737497 202.035304 
L 369.670187 202.784738 
L 369.840298 202.763658 
L 369.942257 203.108115 
L 369.815512 202.783208 
M 369.451693 202.920855 
L 369.721839 203.056403 
L 369.186962 201.872542 
L 368.45636 201.858069 
L 369.08937 202.697592 
L 368.853622 202.19817 
L 369.268469 202.391817 
L 369.28552 202.542073 
L 369.645237 202.555614 
L 368.921727 203.011503 
L 369.19366 202.71766 
M 369.554193 203.431687 
L 369.444443 203.061118 
M 369.459294 203.660832 
L 369.62165 203.709815 
M 370.510605 203.820175 
L 370.531282 204.189296 
L 370.404135 204.812334 
L 370.463959 204.512021 
L 370.254088 204.320022 
L 370.405698 204.285835 
L 370.214674 203.710652 
L 370.547255 203.644209 
L 370.67494 203.389532 
L 370.266928 204.124152 
L 369.029712 203.189342 
L 369.257285 203.635534 
L 369.649897 203.250552 
L 369.501237 202.835376 
L 369.488325 203.293119 
L 369.633657 202.938522 
L 369.899177 203.370164 
L 369.340503 203.559195 
M 369.479386 204.019722 
L 370.085909 203.821768 
M 369.046965 203.701817 
" clip-path="url(#pdedb451cbf)" style="fill: none; stroke: #1f77b4; stroke-linecap: round"/>
   </g>
   <g id="line2d_19">
    <path d="M 363.545097 113.631179 
L 363.526081 113.933416 
L 363.932723 113.79554 
L 364.374171 113.546997 
L 363.777663 113.844221 
L 363.98941 113.370079 
L 363.86411 113.763197 
M 363.458399 113.57443 
L 363.490602 113.287204 
M 364.455777 113.028899 
L 364.138597 113.522716 
L 363.766933 113.876458 
L 363.998302 114.045684 
L 363.55769 114.371537 
L 363.305441 113.919392 
L 362.763452 113.680709 
L 363.477335 113.8049 
L 363.790019 114.055331 
L 364.433238 114.255589 
L 363.820241 114.35056 
L 364.30589 113.967119 
L 364.629071 114.449857 
L 364.398808 114.379155 
L 364.102237 114.670315 
L 364.326034 114.487859 
L 364.070494 113.887423 
L 363.880693 114.130642 
L 363.752894 114.542249 
L 363.813521 114.841847 
L 363.686278 114.611002 
L 363.648775 114.627998 
L 363.564284 114.878518 
L 364.166806 114.629646 
L 363.569767 114.421382 
L 363.658418 113.816356 
L 364.354101 114.079982 
L 364.313711 114.317234 
L 364.047718 114.220571 
L 364.402161 114.197439 
L 364.485226 114.416164 
L 364.397624 114.288048 
L 363.549841 114.263769 
L 363.983514 113.897047 
L 364.31145 113.787709 
L 364.029278 114.593781 
L 364.022387 114.965579 
L 364.08248 114.548614 
L 363.530095 114.623613 
L 364.312216 114.079203 
L 364.08659 114.426113 
L 364.1078 114.368366 
L 364.12312 114.143588 
L 364.246856 114.437529 
L 364.120084 114.234782 
L 364.265913 114.111275 
L 364.730767 114.147521 
L 364.475698 114.447113 
L 364.189058 114.450467 
L 364.667947 114.26404 
L 364.449074 113.86176 
L 364.487787 113.894158 
L 364.918179 114.250823 
L 364.492343 114.220183 
L 364.659547 113.864819 
L 364.007871 114.548568 
L 364.756202 114.226386 
L 364.656914 114.746159 
L 364.882511 114.320144 
L 364.444671 114.643723 
L 364.562029 115.058479 
L 364.43511 114.768854 
L 364.632543 114.566606 
L 364.246458 114.746806 
L 364.495907 114.845836 
L 364.528141 114.361683 
L 363.903548 114.71173 
L 364.314778 114.607896 
L 364.241648 114.677664 
L 364.315677 114.854764 
L 364.252634 114.73275 
L 363.901408 115.056164 
L 364.238474 114.895148 
L 364.489764 114.891871 
L 364.759563 115.511706 
L 364.441033 115.538268 
L 364.906445 115.151717 
L 364.184311 114.472326 
L 364.154024 115.421468 
L 364.021854 115.395395 
L 364.542832 115.153517 
L 364.918817 115.519692 
L 364.717361 115.121731 
L 364.82082 114.803423 
L 364.298687 115.230497 
L 365.301006 115.064617 
L 364.53018 115.357984 
L 364.673608 115.037768 
L 365.228242 115.048741 
L 364.595139 115.488491 
L 364.777502 115.194516 
L 364.69333 114.861497 
L 364.093401 114.776063 
L 364.474426 114.75116 
L 364.306401 114.986286 
L 364.416485 115.087956 
L 364.200323 115.266459 
M 363.971949 115.67518 
L 363.609234 115.062729 
L 363.940343 115.55021 
L 363.849502 115.162886 
L 363.745947 115.835228 
L 363.996874 115.787625 
L 364.11401 115.149702 
L 364.154305 115.222045 
L 363.555881 115.664548 
L 363.44032 116.108582 
L 363.793217 115.611584 
L 363.08512 115.383518 
L 363.180631 115.660442 
L 363.785296 115.689806 
L 363.892192 115.524657 
L 363.970852 115.798703 
L 364.191564 115.773327 
L 364.10348 115.71627 
L 363.855221 115.691452 
L 364.025843 115.421351 
L 363.864452 115.076809 
L 364.307572 115.430365 
L 363.917572 115.80171 
L 363.632761 115.76719 
L 363.382586 115.849868 
L 363.736367 115.39652 
L 363.824338 115.580881 
L 364.04976 115.642334 
L 363.9846 115.062706 
L 363.814105 115.349046 
L 363.789265 115.748488 
L 363.885932 115.376917 
L 364.45527 115.752324 
L 364.185603 115.713067 
L 363.311642 115.30965 
L 363.339528 115.156128 
L 363.724718 115.349503 
L 363.488608 115.633863 
L 363.104708 115.274868 
L 363.27808 115.024566 
L 363.165551 114.989539 
L 363.38185 115.138071 
L 363.626213 114.896049 
L 363.681157 115.145268 
L 363.144866 115.161535 
L 363.331953 114.718741 
L 363.768827 115.046783 
L 363.387054 115.144905 
L 363.683522 115.149427 
L 363.938524 115.456641 
L 364.163295 114.993526 
L 364.108033 115.20496 
L 364.278044 115.177908 
L 364.092733 114.989389 
L 363.522302 114.672646 
L 363.650233 114.841181 
L 363.1395 115.187414 
L 364.159101 115.207694 
L 363.677564 115.151348 
L 363.912383 115.08548 
L 363.990448 114.908196 
L 363.881013 115.050405 
L 363.917639 115.355086 
L 363.839054 115.297825 
L 363.371846 115.018027 
L 363.39242 115.122224 
L 363.539688 115.348253 
L 363.444543 115.129439 
L 363.276376 115.23735 
L 363.599299 115.000915 
L 363.905846 115.097114 
L 363.689746 115.577944 
L 363.950326 115.002129 
L 364.270503 115.104428 
L 364.193633 115.349522 
L 363.679206 115.495005 
L 364.09446 114.973051 
L 364.031631 115.473765 
L 363.936689 115.140841 
L 363.526584 115.319248 
L 364.063223 114.989926 
L 363.824208 115.015354 
L 363.93281 115.501513 
L 363.58783 115.689317 
L 363.38657 115.175158 
L 363.928538 115.114975 
L 364.154819 115.246752 
L 363.793623 115.51172 
L 363.889539 115.14224 
L 363.314747 114.849482 
L 363.304678 114.894511 
L 363.062771 115.198192 
L 363.229843 115.196448 
L 363.076068 115.166482 
L 363.450346 114.897993 
L 363.266659 115.252326 
L 363.681952 115.325898 
L 363.121317 115.212698 
L 363.340119 115.43835 
L 362.982349 115.217207 
L 363.424611 114.959049 
L 363.090531 115.171768 
L 363.183997 115.349887 
L 363.184366 115.256818 
L 363.375972 115.305536 
L 362.951864 114.908751 
L 362.760814 115.616808 
L 362.607533 115.083151 
L 362.864322 115.359149 
L 362.879978 115.832475 
L 363.141087 115.246561 
L 363.317874 115.71416 
L 362.710969 115.461018 
L 363.126684 114.928298 
L 363.18123 114.609132 
L 363.166662 115.30383 
L 363.315852 115.377485 
L 362.672089 115.324716 
L 362.704821 115.536871 
L 363.494131 115.634693 
L 362.843445 115.898867 
L 362.904833 115.690257 
L 362.808936 115.840152 
L 363.072379 115.615061 
L 362.809976 115.636389 
L 363.015146 115.615349 
L 363.257467 115.429668 
L 362.853154 115.489386 
L 363.215989 115.562649 
L 362.96757 116.015272 
L 362.891093 115.704213 
L 362.444582 116.061125 
L 362.804039 115.814876 
L 362.62846 115.539477 
L 362.890303 115.927883 
L 362.732384 115.54873 
L 363.099791 115.506615 
L 362.827969 115.616007 
L 362.446234 115.765383 
L 362.854508 115.632667 
L 362.66672 115.822448 
L 362.861683 115.563179 
L 362.939692 115.868359 
L 362.986873 115.66534 
L 362.300401 115.595941 
L 362.525525 115.950221 
L 362.389788 116.133907 
L 362.871648 116.13552 
L 362.452937 116.251562 
L 362.450042 115.830861 
L 361.974714 115.834678 
L 362.372602 115.549511 
L 362.829334 115.616723 
L 362.611311 115.629329 
L 362.450676 115.835136 
L 362.506211 115.874507 
L 362.096004 115.377892 
L 362.462248 115.314973 
L 362.319903 115.044373 
L 362.463715 114.997824 
L 362.044852 114.924711 
L 362.724233 115.096416 
L 362.320844 115.129543 
L 362.325983 115.476361 
L 362.459575 115.031233 
L 363.353455 115.152542 
L 363.424715 115.633211 
L 363.410778 115.631066 
L 363.074324 115.787845 
L 363.150325 116.198072 
L 363.249716 115.952716 
L 362.822296 115.435947 
L 363.195266 115.42789 
L 363.276616 115.801562 
L 363.213934 115.692594 
L 363.54382 115.214787 
L 363.157697 114.801234 
M 362.483775 115.537278 
L 363.276885 115.877014 
L 362.907383 115.847832 
L 363.166703 115.299008 
L 362.814435 115.16729 
L 362.501439 115.463487 
L 362.745518 115.327987 
L 362.770445 115.047986 
L 362.736493 115.594112 
L 362.903261 115.37642 
L 363.159258 115.50963 
L 362.951596 116.105476 
L 362.860682 115.745212 
L 362.08029 115.815755 
L 362.2808 116.041919 
L 362.720596 116.053206 
L 362.602913 115.498986 
L 362.643882 115.595387 
L 362.768335 115.631256 
L 362.717857 115.848407 
L 363.398572 115.360122 
L 363.423577 115.901771 
L 362.683565 115.984207 
L 362.449668 115.864485 
L 362.664547 115.518805 
L 363.073369 116.137594 
L 362.69947 115.906931 
L 362.943273 116.376487 
L 362.99773 115.828934 
L 362.729766 115.69544 
L 362.39359 115.00501 
M 362.659487 114.811956 
L 362.586362 115.789056 
L 362.754375 115.538809 
L 362.254773 115.403913 
L 362.570069 115.577178 
L 362.798767 115.686541 
L 362.587877 115.403096 
L 362.16737 115.664715 
L 361.849141 115.399844 
L 362.415514 115.392514 
L 361.793848 115.353762 
L 361.842232 115.61024 
L 362.625645 115.256161 
L 362.136203 115.218681 
L 362.457125 115.507973 
L 361.549981 115.535069 
L 362.196319 115.345405 
L 362.196319 115.345405 
" clip-path="url(#pdedb451cbf)" style="fill: none; stroke: #ff7f0e; stroke-linecap: round"/>
   </g>
   <g id="line2d_20">
    <path d="M 283.666192 102.085643 
L 283.645518 102.255905 
L 282.951663 102.092365 
L 282.986509 102.196161 
L 283.549092 102.07474 
L 283.205526 101.868735 
L 283.176254 102.390058 
L 283.611455 102.704649 
L 283.499848 102.073075 
L 283.420081 102.797773 
L 283.169152 102.571019 
L 283.292446 102.531167 
L 282.862496 102.794791 
L 282.532746 102.510498 
M 282.966963 102.971359 
L 282.888919 102.980344 
L 283.331957 102.404704 
L 282.739321 102.736723 
L 282.562726 103.074794 
L 283.036331 102.565396 
L 282.910267 102.834491 
L 283.295 103.038986 
L 283.354801 102.618465 
L 283.338341 103.102491 
L 283.193428 102.966305 
L 283.108303 102.826186 
L 283.615662 103.390773 
L 283.417372 103.185709 
L 282.785928 103.027706 
L 283.285886 102.828374 
L 283.625196 103.894338 
L 283.944494 104.307418 
L 284.671802 103.89241 
L 284.356933 103.097319 
L 283.825226 103.460026 
L 283.352871 103.438182 
L 284.071312 102.515851 
L 283.401618 102.222857 
L 283.218016 101.921172 
L 282.845239 101.704346 
L 282.778921 102.490925 
L 283.144128 102.386429 
L 283.134788 102.383863 
L 282.978804 102.594425 
L 282.463103 102.630022 
L 282.237946 102.301345 
L 282.437768 102.729247 
L 282.527516 103.326815 
L 282.547567 102.563585 
L 283.212608 102.816015 
L 283.173496 102.501448 
L 283.599313 102.711278 
L 283.334075 102.722146 
L 283.726598 102.54969 
L 283.681254 102.626154 
L 283.9218 102.115717 
L 283.763022 102.268439 
L 283.486572 101.974699 
L 283.928265 102.151466 
L 283.408801 102.700517 
L 283.547683 102.886585 
M 283.206088 102.82655 
L 283.080169 102.502932 
L 283.500723 102.488174 
L 282.90087 102.452521 
L 283.486331 102.209023 
L 283.783662 102.814066 
L 283.425362 102.702966 
L 283.378448 102.295565 
M 283.867906 102.470118 
L 284.366282 101.896007 
L 283.268029 102.381984 
L 283.641202 102.381618 
L 283.239869 101.768686 
L 282.694398 102.490279 
L 283.560402 102.254808 
L 283.564206 101.80535 
L 283.623078 102.045514 
L 283.323621 102.892101 
L 283.308171 102.489039 
L 283.4443 101.748358 
L 283.603401 101.752238 
L 283.285889 102.40528 
M 283.364677 101.997158 
L 283.597954 102.635307 
L 283.368039 102.141964 
L 283.12688 102.781519 
L 283.656833 102.320924 
L 284.186616 101.530476 
L 284.059257 101.548886 
L 284.723784 102.09942 
L 283.664197 102.117449 
L 283.752723 102.217033 
L 283.656185 102.697068 
L 283.731986 102.237339 
L 284.020728 102.810115 
L 283.748629 102.775005 
L 284.04668 101.965208 
L 283.794905 102.734297 
L 283.380281 102.963412 
L 283.16639 102.841478 
L 283.594133 102.58749 
L 283.481916 102.562108 
L 283.480628 102.479134 
L 283.132733 102.024346 
L 283.236732 102.662408 
L 283.210602 102.626678 
L 283.537359 102.494395 
L 283.477258 102.418184 
L 283.224272 102.331851 
L 283.372813 102.850815 
L 283.321209 103.580051 
L 283.491397 103.624036 
M 284.206549 103.043792 
L 284.806121 103.229976 
L 283.838035 102.989166 
L 284.221921 103.173015 
L 283.541842 103.054831 
L 284.312695 103.621394 
L 283.522206 103.04873 
L 283.932073 103.321473 
L 283.843646 103.84341 
L 283.477736 104.342996 
L 283.435062 104.045692 
L 283.574615 104.082567 
L 282.939541 104.386942 
L 283.327249 104.339725 
L 283.429553 103.953992 
L 283.208637 103.849063 
L 283.327587 104.595205 
L 283.637108 104.550379 
L 283.344237 104.679752 
L 283.444809 104.704703 
L 283.04398 103.761495 
L 283.437838 103.323164 
L 283.332179 103.622167 
L 282.986888 104.136938 
L 283.741058 104.102547 
L 283.332634 104.076511 
L 283.659396 103.940518 
L 283.131133 104.146132 
L 283.412872 104.372936 
L 283.52526 104.70414 
L 283.016739 104.68798 
L 282.978227 103.895141 
L 282.712016 103.994036 
L 282.904521 104.054452 
L 282.564574 104.196622 
L 282.687531 104.116948 
L 282.33733 103.588313 
L 282.9362 103.493222 
L 282.622227 102.781122 
L 283.271734 103.260733 
L 283.204906 103.616585 
M 283.244741 103.218836 
L 283.299857 103.291145 
L 283.443835 102.637939 
L 282.784509 102.612068 
L 283.2702 102.99154 
L 283.36624 102.760979 
M 283.368406 103.056226 
L 283.265963 103.519406 
L 283.250474 102.949472 
L 282.776531 103.488362 
L 283.82105 103.542381 
L 283.878259 103.181117 
M 283.264578 102.692757 
L 283.801204 103.41982 
L 283.458503 103.619811 
L 283.152074 104.081328 
L 283.074888 103.952416 
L 282.126713 104.631266 
L 282.531177 105.058922 
L 282.291106 104.54362 
L 282.862277 104.507673 
L 283.164347 103.909414 
L 282.921329 103.896262 
L 283.02704 104.488215 
M 282.846258 104.220654 
L 282.544606 104.743372 
L 282.790403 104.112262 
L 282.525137 103.665781 
M 282.209008 103.758983 
L 281.839509 103.299111 
L 283.198678 103.891141 
L 282.184511 103.526628 
L 282.414648 103.859174 
L 282.188365 103.696835 
M 281.870556 103.805157 
L 282.788033 103.577203 
M 282.510258 103.026716 
L 282.275962 103.144833 
L 282.132569 103.569713 
L 281.992784 103.013299 
M 282.514233 103.77106 
L 282.028899 103.08927 
L 282.061678 103.149816 
M 282.475728 102.919752 
L 282.377911 102.889693 
L 282.450868 102.270006 
L 281.805698 102.700193 
L 281.944902 102.50219 
L 282.19177 103.152129 
L 282.252572 102.910681 
L 281.905845 102.778945 
L 281.923364 103.13639 
M 281.95731 102.576444 
L 282.355844 102.938996 
L 282.132595 103.464231 
L 282.155888 102.996656 
L 281.781932 103.167084 
L 282.673745 102.755387 
L 282.567616 102.817813 
M 282.483775 102.586866 
L 281.925054 102.657123 
L 282.352748 103.080854 
L 282.633247 102.94431 
L 281.908336 102.634675 
L 282.459879 103.187806 
L 281.922509 102.441125 
L 282.027821 102.576966 
L 281.829995 102.902949 
L 282.128706 102.940398 
L 282.193511 102.700106 
L 282.419689 102.786273 
L 282.080575 102.682067 
M 282.928508 102.628893 
L 282.498817 102.161578 
L 282.310089 102.74666 
L 282.681043 103.012057 
L 282.324098 103.248554 
L 282.673264 103.049708 
L 282.118712 102.94989 
L 282.443809 103.40396 
L 282.58224 102.694767 
L 282.54074 102.784174 
L 282.278533 102.580993 
L 282.809795 102.18547 
L 282.646028 102.324232 
L 282.956182 102.239696 
L 283.380378 101.757978 
M 283.491085 102.444681 
L 282.945828 101.727319 
L 283.597942 102.462898 
L 283.183631 103.108972 
L 283.183631 103.108972 
" clip-path="url(#pdedb451cbf)" style="fill: none; stroke: #2ca02c; stroke-linecap: round"/>
   </g>
   <g id="line2d_21">
    <path d="M 150.421232 363.566817 
L 149.674284 363.197122 
L 149.93805 363.014665 
L 150.308302 363.348806 
L 150.512256 363.255136 
L 150.407829 363.442016 
L 150.419651 363.423248 
L 150.487304 362.978321 
L 150.066266 363.190314 
L 150.236948 363.389022 
L 149.881528 363.254643 
L 149.909845 363.118404 
L 150.277984 362.786868 
L 150.489383 362.307902 
L 150.83346 362.457021 
L 150.590798 362.975707 
L 150.810316 362.800146 
L 151.168226 362.890034 
L 150.579173 362.297057 
L 150.386833 362.695154 
L 150.104081 363.023447 
L 150.515469 363.284013 
L 150.743568 362.905427 
L 151.062144 363.079602 
L 150.995112 363.277608 
L 150.712144 362.66551 
L 151.5982 362.344013 
L 151.58944 362.326485 
L 152.036196 361.978188 
L 151.719466 362.079813 
L 151.573427 361.612616 
L 151.27243 361.376367 
L 151.70477 361.530167 
L 151.610109 361.652187 
L 151.866915 361.629786 
L 151.860055 362.14495 
L 152.206301 361.815679 
L 152.153413 362.153146 
L 152.191843 361.910445 
L 152.289209 362.076125 
L 151.979082 361.793977 
L 152.022975 361.902332 
L 151.914133 361.919964 
L 151.936789 361.741124 
L 152.407347 362.358691 
L 152.198965 362.269403 
L 152.324996 362.404889 
L 152.566543 362.29061 
L 152.080085 361.952415 
L 152.545757 362.261442 
L 152.609667 361.912893 
L 152.124866 361.969446 
L 152.302827 361.244217 
L 152.011634 361.342978 
L 152.068891 361.639755 
L 152.575369 361.395715 
L 151.993186 361.944513 
L 152.192378 361.857955 
L 152.346083 362.016234 
L 152.040462 361.934501 
L 151.866548 362.037953 
L 152.330211 362.818358 
L 152.366889 362.434722 
L 152.990428 362.132147 
L 152.511474 362.068972 
L 152.767303 362.083615 
L 153.015245 361.730762 
L 152.971816 362.105638 
L 153.227884 362.11905 
L 153.240875 362.396539 
L 152.851637 362.325007 
L 153.121899 362.397499 
L 152.595647 362.955244 
L 152.720422 362.013743 
L 152.403616 362.190237 
L 152.431936 361.766586 
L 152.633387 362.288928 
L 152.491209 362.498694 
L 152.514313 362.809869 
L 152.704576 362.260778 
L 152.53348 362.350885 
L 152.224077 362.722902 
L 152.561725 362.723865 
L 152.262048 362.63433 
L 152.633211 363.215838 
L 152.441694 363.12075 
L 152.210794 362.250528 
L 151.733072 362.563642 
L 151.551154 362.334546 
L 151.900819 362.18233 
L 152.010355 362.006347 
L 151.734987 361.956517 
L 151.871068 361.922223 
L 151.727474 362.155415 
L 152.058749 362.60904 
L 151.985953 362.375722 
L 152.354756 362.535861 
L 152.491158 362.201001 
L 152.452197 362.346629 
L 152.160064 362.036479 
L 152.027449 362.474052 
L 152.363485 362.065332 
L 152.491583 361.235629 
L 152.40706 361.781458 
L 152.795349 361.212923 
L 152.692367 361.167112 
L 152.348752 361.569593 
L 151.918217 360.91575 
L 152.338311 361.171238 
L 152.047971 361.936139 
L 152.675831 361.604854 
L 152.404425 360.903618 
L 151.949246 361.035261 
L 152.104967 361.380713 
L 152.6091 361.77719 
L 152.222645 361.111721 
L 152.739936 361.12576 
L 152.114388 361.159197 
L 152.031038 361.29882 
L 152.5498 361.206265 
L 152.059826 361.380636 
L 152.217664 361.444732 
L 151.850862 361.240827 
L 151.602632 361.599635 
L 151.600291 361.233652 
L 151.705061 361.173906 
L 151.597463 361.418048 
L 151.838209 361.144983 
L 151.759484 361.906754 
L 151.883246 361.59658 
L 151.865517 361.094321 
L 151.416624 361.362846 
L 151.002742 361.029723 
L 151.319689 361.067847 
L 151.881061 360.952561 
L 151.563064 360.147016 
L 151.955175 360.402904 
L 151.528137 360.583285 
L 151.105109 360.436841 
L 151.05244 360.694974 
L 151.589365 360.184089 
L 150.718687 359.832011 
L 151.125557 360.297715 
L 151.016586 360.904826 
L 151.298993 360.923407 
L 151.452658 361.059005 
L 151.378882 361.120092 
L 151.721482 361.11862 
L 151.471484 360.853271 
L 151.445336 361.225806 
L 151.269369 361.587566 
L 151.362718 361.821143 
L 151.6163 361.605255 
L 150.87044 361.542085 
L 151.475758 361.084619 
L 150.822871 360.981257 
L 151.371408 361.407856 
L 151.170076 361.782911 
L 151.05023 361.168687 
L 150.924005 361.409185 
L 150.764546 361.454544 
L 150.537317 361.177651 
L 150.341998 361.353271 
L 150.709466 361.084495 
L 150.734558 361.357147 
L 150.442596 361.286996 
L 150.753725 361.560141 
L 150.974332 361.599089 
L 150.927594 361.458511 
L 150.63818 362.14434 
L 150.913442 360.882255 
L 151.100518 360.804642 
L 150.831567 361.162681 
L 151.277824 361.100901 
L 151.193392 360.875853 
L 150.611902 360.974282 
L 150.845878 360.703169 
L 151.31777 361.231923 
L 150.792444 361.357398 
L 150.632176 361.526229 
L 150.337278 361.604058 
L 150.3811 360.809937 
L 150.643373 360.715903 
L 150.779678 360.798718 
L 149.715506 361.194469 
L 149.393119 360.886682 
L 149.754239 360.802109 
L 150.093033 360.604964 
L 150.062465 360.120649 
L 149.627233 360.815734 
L 149.98833 360.813561 
L 150.244347 360.956494 
L 150.543787 360.959128 
L 150.184476 361.344136 
L 150.722236 361.148492 
L 150.318894 361.206497 
L 150.569214 361.026388 
L 149.892688 361.414594 
L 150.147649 361.414517 
L 150.518958 361.27617 
L 150.118469 361.148026 
L 150.021874 361.266266 
L 150.267062 361.19291 
L 149.917563 360.755356 
L 150.098954 361.306336 
L 149.907689 360.650821 
L 150.221744 360.842009 
L 150.244816 360.663045 
L 150.079724 361.060835 
L 150.421612 360.747312 
L 150.894674 360.961857 
L 150.573392 361.491108 
L 151.069442 361.358874 
L 150.696965 361.484833 
L 150.521934 360.999683 
L 150.002192 360.821254 
L 150.367531 360.906622 
L 150.15907 360.748626 
L 150.663388 361.054024 
L 150.273563 360.921448 
L 150.402864 361.431179 
L 150.375135 360.780265 
L 150.531794 360.84111 
L 150.464344 360.396221 
L 149.925664 361.31673 
L 150.610401 361.341367 
L 150.541836 361.370652 
L 150.269675 362.25547 
L 150.016443 361.697964 
L 150.505263 361.425066 
L 150.229509 361.525195 
L 150.414333 361.877953 
L 150.58284 361.625399 
L 149.749988 361.316624 
L 149.931925 361.169945 
L 149.706848 361.242669 
L 149.724115 361.561999 
L 149.732629 361.515066 
L 149.527953 361.579009 
L 149.694739 361.498581 
L 149.628065 361.351885 
L 150.367795 361.39668 
L 150.182189 360.979438 
L 150.171738 361.263299 
L 149.667372 361.915054 
L 149.804487 361.582344 
L 150.231723 361.496655 
L 150.258565 360.925778 
L 149.501317 360.757744 
L 149.936211 360.973518 
L 149.960627 361.225472 
L 150.239646 361.139379 
L 150.142247 361.354872 
L 149.900724 361.440942 
L 150.009212 361.625556 
L 149.90613 361.324506 
L 149.746933 362.380962 
L 149.316646 361.961764 
L 149.607233 362.053355 
L 149.371774 361.835042 
L 148.900816 361.793067 
L 149.127472 362.072053 
L 148.978266 362.224564 
L 148.46614 361.946136 
L 148.781452 361.805219 
L 148.733145 361.465837 
L 148.754703 361.473825 
L 149.389472 361.896837 
L 148.921523 361.724433 
L 150.022637 361.826746 
L 149.671761 361.924791 
L 149.663213 361.757143 
L 149.62763 362.094145 
L 149.000593 361.776917 
L 149.342075 361.82774 
L 149.438257 362.123542 
L 149.685997 362.405108 
L 150.070918 362.081404 
L 149.843053 362.290677 
L 149.4619 362.307299 
L 149.002884 361.846912 
L 149.184928 361.777317 
L 149.901086 361.841496 
L 150.016383 362.127981 
L 149.930505 361.685186 
L 149.254571 361.255455 
L 149.206658 361.766535 
L 149.467153 361.437786 
L 149.557539 360.833094 
L 149.298122 361.510677 
L 149.273926 361.453194 
L 149.095326 361.486294 
L 149.123008 360.978539 
L 149.010161 360.22615 
L 149.209404 360.453636 
L 149.395384 360.334797 
L 149.583577 361.227979 
L 149.629993 361.104495 
L 149.09283 360.976542 
L 148.794926 361.689476 
L 149.349595 361.479982 
L 149.789127 361.69416 
L 149.657178 361.765177 
L 149.588193 362.072699 
L 149.732468 361.841683 
L 149.485855 361.76398 
L 149.301902 361.363024 
L 149.617181 361.398881 
L 149.505689 361.411239 
L 149.506411 361.198835 
L 149.044244 361.143682 
L 148.812926 361.240957 
L 148.821274 360.922766 
L 149.393223 361.177598 
L 149.689834 361.044608 
L 150.15195 361.388916 
L 150.289187 362.025298 
L 150.182113 362.14757 
L 150.234904 361.95661 
L 149.831318 361.697831 
L 149.822154 361.305968 
L 150.347076 361.046042 
L 149.799151 360.690841 
L 149.912549 360.636531 
L 150.478268 360.946737 
L 149.860907 361.126209 
L 150.1253 361.142392 
L 150.095627 360.878536 
L 150.182567 360.570875 
L 150.659609 360.550509 
L 150.1049 361.061985 
L 150.1049 361.061985 
" clip-path="url(#pdedb451cbf)" style="fill: none; stroke: #d62728; stroke-linecap: round"/>
   </g>
   <g id="line2d_22">
    <path d="M 220.73942 80.818796 
L 220.763292 80.687056 
L 220.145639 81.187962 
L 220.260318 80.698895 
L 220.510149 81.500565 
L 221.316729 81.608702 
L 221.853648 80.522335 
L 220.161087 80.57102 
L 220.839773 79.886364 
L 221.618508 79.324279 
L 220.575419 78.880607 
L 220.954338 79.96924 
L 221.825302 79.398031 
L 222.437307 79.584906 
L 221.491461 79.130151 
L 220.748265 79.08184 
L 221.844589 79.706176 
L 221.666217 79.631638 
L 221.496394 79.640207 
L 221.766828 79.418148 
L 222.270829 79.21795 
L 221.951824 79.029921 
L 222.048606 79.095395 
L 222.282811 78.547318 
L 222.1084 78.389533 
L 222.170266 78.932449 
L 222.262636 78.772243 
L 222.626166 78.588796 
L 222.741839 80.185157 
L 223.030372 78.958643 
L 222.463335 78.32376 
L 222.615819 78.827553 
L 222.177131 79.5347 
L 222.620518 79.907403 
L 222.603216 79.522498 
L 222.999524 79.603779 
L 222.830219 80.061539 
L 223.016895 79.92053 
L 222.476798 80.998032 
L 223.484117 80.723751 
L 222.625042 79.479537 
L 222.739735 78.848584 
L 222.794258 79.242991 
L 222.385976 79.871551 
L 222.521177 80.563414 
L 222.183585 80.51058 
L 222.396669 80.330273 
L 221.733876 80.986165 
L 222.615167 79.231432 
L 222.111289 78.686938 
L 222.494004 78.622703 
L 222.137661 79.061877 
L 221.814348 78.12 
L 222.008623 78.271007 
L 222.586015 78.294393 
L 221.949025 78.175936 
L 222.105921 79.050028 
L 221.687974 79.405573 
L 223.010676 81.122468 
L 223.297431 82.125639 
L 222.599103 82.191743 
L 222.771322 82.38754 
L 222.325507 82.404742 
L 222.238103 81.498771 
L 222.406646 82.560448 
L 222.538195 83.44969 
L 222.184064 82.912141 
L 222.410469 83.658349 
L 222.272419 83.13835 
L 221.939677 83.640195 
L 221.874992 83.784102 
L 222.062042 83.471026 
L 221.124229 84.183191 
L 221.558888 84.070624 
L 222.189604 83.484832 
L 222.301402 82.656991 
L 222.772079 82.57364 
L 222.612372 83.315677 
L 221.728127 83.123046 
L 221.48916 82.220255 
L 221.252303 82.167666 
L 221.883336 82.331314 
L 221.993783 82.710083 
L 221.180248 82.251959 
L 220.807299 83.0392 
L 220.896334 83.191088 
L 222.012932 83.243221 
L 221.495372 84.553259 
L 221.44184 83.776531 
L 220.903811 82.681413 
L 220.50034 82.201111 
L 221.177266 82.548492 
L 221.263593 82.38737 
L 222.17914 82.757373 
L 222.649384 82.311562 
L 222.003 82.185192 
L 222.866385 82.209517 
L 222.599394 82.254668 
L 222.019181 82.586784 
L 222.378102 82.650636 
L 221.133688 82.205318 
L 221.533871 82.2995 
L 221.381166 81.795448 
L 220.782684 82.087888 
L 220.936238 81.596374 
L 221.280773 81.864611 
L 221.134044 81.115227 
L 221.303849 81.85916 
L 220.871692 81.682696 
L 221.411874 81.550787 
L 221.910805 80.869951 
L 221.509275 80.782768 
L 221.694007 80.694341 
L 220.682382 81.521901 
L 220.722015 81.392615 
L 220.585231 82.017187 
L 221.250651 81.802061 
L 221.516029 82.145666 
L 221.769871 82.954658 
L 221.055333 83.431789 
L 221.385535 81.971643 
L 221.266392 81.898778 
L 222.109372 82.74234 
L 222.121333 81.390743 
L 221.627957 81.184917 
L 221.535173 81.601444 
L 222.386536 81.434997 
L 221.373302 83.130834 
L 221.162618 83.392904 
L 221.322932 82.931357 
L 220.859028 83.722833 
L 220.296058 83.421349 
L 220.302658 83.179591 
L 220.811456 83.766644 
L 220.801082 83.676975 
L 220.255405 84.081031 
L 220.912174 84.087903 
L 220.594106 84.658514 
L 220.518369 84.127525 
L 220.742115 83.97323 
L 220.886149 84.153193 
L 220.515367 84.050521 
L 220.717942 83.837003 
L 220.134546 82.705134 
L 220.689283 82.958985 
L 220.360635 83.652886 
L 220.312318 83.42358 
L 219.87324 82.752146 
L 219.447284 83.363397 
L 219.545597 82.669974 
L 220.402628 82.117606 
L 220.747121 82.41815 
L 220.492367 83.097287 
L 220.154597 83.649788 
L 221.006187 83.09187 
L 221.642776 81.9161 
L 221.208322 81.444764 
L 221.774471 81.645145 
L 221.67325 81.043594 
L 221.686485 81.506306 
L 221.417206 82.19324 
L 221.218957 82.001724 
L 221.228786 81.07293 
L 221.274006 81.197261 
L 221.831264 80.977265 
L 221.782183 80.957023 
L 221.496667 80.342613 
L 220.879225 80.884734 
L 220.957759 80.757898 
L 221.71243 80.588994 
L 221.423052 80.283772 
L 222.270754 81.022828 
L 221.831179 81.436371 
L 221.76032 82.067016 
L 222.117724 82.283884 
L 221.687781 81.571521 
L 221.438888 81.445101 
L 221.819807 81.391581 
L 221.77327 81.781816 
L 222.160944 82.428283 
L 221.683772 81.881903 
L 220.366181 81.860647 
L 220.885844 82.829845 
L 221.311571 81.847808 
L 220.081523 81.700616 
L 220.696975 81.540915 
L 219.922148 81.579418 
L 221.606513 81.284291 
L 222.515308 80.558307 
L 221.978828 81.025861 
L 222.326176 81.049978 
L 222.096814 80.468503 
L 222.70848 81.417346 
L 222.040886 80.841885 
L 222.398764 81.284285 
L 222.147821 81.467515 
L 222.641554 81.272601 
L 222.631583 81.743017 
L 221.794555 82.03041 
L 220.603458 81.996464 
L 220.308031 81.236283 
L 222.57241 79.514677 
L 221.520272 78.778993 
L 222.011865 79.774137 
L 221.77939 80.365242 
L 221.293577 80.546148 
L 220.613214 81.43378 
L 221.331955 82.63328 
L 221.321254 82.205969 
L 220.833742 81.235334 
L 221.160043 81.909073 
L 221.883043 81.871897 
L 221.512624 80.496294 
L 221.710852 80.513912 
L 222.21978 80.948166 
L 222.495216 80.41528 
L 222.399445 79.882951 
L 221.757435 79.337616 
L 221.352508 79.10671 
L 221.461387 79.675523 
L 221.09424 80.166087 
L 220.955903 79.87442 
L 221.944865 81.414941 
L 221.679225 81.831287 
L 220.910799 80.363482 
L 220.379988 80.620258 
L 220.765083 80.616967 
L 220.827339 80.421141 
L 221.439973 81.085377 
L 221.786895 80.183041 
L 222.373401 80.062749 
L 222.883529 79.655505 
L 222.591285 81.003531 
L 222.83694 80.327244 
L 222.601642 80.197448 
L 222.304241 79.839578 
L 222.373005 80.637254 
L 221.903436 80.113138 
L 222.184784 80.34216 
L 221.845438 80.438802 
L 222.024746 80.143643 
L 222.499382 81.165285 
L 221.682068 81.38004 
L 222.268289 80.889122 
L 222.491238 80.398937 
L 223.398237 81.192068 
L 222.814717 80.709012 
L 222.063374 80.541665 
L 221.905111 81.294672 
L 221.252058 80.452568 
L 221.275066 79.38298 
L 222.31151 80.736349 
L 222.645626 80.696304 
L 221.964561 79.940342 
L 221.022915 79.790645 
L 220.058659 80.437464 
L 220.478455 80.557871 
L 220.884147 80.808992 
L 220.845401 81.059965 
L 220.645218 81.325513 
L 221.068657 80.785487 
L 220.306951 80.70197 
L 221.038434 80.53527 
L 221.347452 80.348352 
L 221.624209 81.634005 
L 221.933772 81.218682 
L 222.427087 81.601841 
L 222.591163 81.294584 
L 222.361671 81.544833 
L 222.2167 81.121832 
L 222.042117 80.969286 
L 221.748351 81.063765 
L 221.491902 82.093918 
L 222.235341 81.753086 
L 221.804202 82.340458 
L 222.241173 82.390247 
L 222.038018 82.364719 
L 222.28004 81.970385 
L 221.434566 82.13765 
L 221.459722 82.98335 
L 221.955392 82.984459 
L 222.027678 83.921713 
L 221.572848 83.215607 
L 221.508208 82.752257 
L 221.210538 82.115152 
L 221.539461 82.840795 
L 221.440209 82.845112 
L 220.439918 82.57338 
L 220.552803 82.97237 
L 221.184125 82.461691 
L 221.25069 82.909169 
L 220.265218 82.655456 
L 220.646906 83.012623 
L 220.544882 83.052437 
L 221.028659 82.85185 
L 220.925746 82.887016 
L 220.877096 82.114335 
L 220.562313 82.904502 
L 220.788669 81.975744 
L 220.25341 81.967126 
L 220.323774 82.15372 
L 220.065619 82.465082 
L 221.111788 83.254357 
L 220.797656 82.748048 
L 220.168761 82.78955 
L 220.652593 83.712099 
L 220.904976 83.883056 
L 220.43792 82.398819 
L 219.790784 82.801433 
L 220.304169 82.609124 
L 220.660142 82.409704 
L 220.247274 82.882127 
L 219.533891 83.434067 
L 219.667184 83.088324 
L 220.016694 83.088344 
L 219.722704 82.300748 
L 219.720871 82.376478 
L 220.341357 82.56203 
L 219.255817 82.716204 
L 219.059358 81.595884 
L 219.20583 82.327933 
L 219.903997 82.594822 
L 220.807252 82.374741 
L 219.955087 82.534892 
L 220.288648 82.821777 
L 220.08415 83.188829 
L 220.829012 82.874131 
L 221.244387 82.870884 
L 220.835166 83.607657 
L 221.299878 83.546131 
L 220.664362 83.478975 
L 220.388734 83.320904 
L 220.767658 82.690238 
L 220.330286 82.107704 
L 220.387239 82.159614 
L 220.908409 82.529047 
L 220.58802 82.324652 
L 220.642149 82.670789 
L 220.835286 83.056711 
L 221.308346 83.339632 
L 221.431583 83.895751 
L 221.977542 83.723467 
L 221.810939 83.71897 
L 220.448843 83.261504 
L 220.809578 82.913955 
L 221.366504 83.32795 
L 221.410628 82.538911 
L 220.953893 82.708557 
L 221.164097 83.239891 
L 221.11064 82.665719 
L 221.437319 82.685456 
L 221.11536 82.63441 
L 220.771162 83.220969 
L 221.229372 83.616868 
L 220.466694 82.891063 
L 220.741017 82.575215 
L 220.538096 82.282319 
L 219.744303 82.189414 
L 219.757328 82.273365 
L 220.203724 82.117045 
L 220.203724 82.117045 
" clip-path="url(#pdedb451cbf)" style="fill: none; stroke: #9467bd; stroke-linecap: round"/>
   </g>
   <g id="line2d_23">
    <path d="M 240.900997 260.261725 
L 240.912544 260.322542 
L 241.292574 260.224104 
L 241.525798 259.774986 
L 241.478864 260.176299 
L 240.912742 260.068249 
L 241.122226 260.71024 
L 240.362152 260.482797 
L 240.611045 261.017236 
L 241.131535 261.185383 
L 241.934768 260.890482 
L 241.848296 260.942838 
L 241.933667 260.471765 
L 240.870175 260.484774 
L 241.294388 260.724627 
L 241.218586 260.663129 
L 241.380871 260.25902 
L 241.994315 260.040578 
L 241.092599 260.567349 
L 240.235936 260.003686 
L 240.612913 259.689581 
L 241.147645 259.956633 
L 241.288291 259.881111 
L 240.957165 259.565804 
L 241.193463 260.393382 
L 240.932947 260.595 
L 240.782774 260.532583 
L 241.298786 260.732325 
L 241.995626 260.113503 
L 241.537962 260.202146 
L 241.785191 260.093104 
L 241.602247 260.021977 
L 241.314432 260.722013 
L 241.678308 260.903566 
L 241.626894 260.974944 
L 241.112368 261.092742 
L 241.635344 259.89701 
L 241.590445 260.124531 
L 241.91392 260.758862 
L 241.969169 260.2352 
L 241.684404 260.769531 
L 240.826275 260.155232 
L 241.169864 260.789771 
L 241.395401 260.292418 
L 241.525974 260.61144 
L 240.895673 260.308765 
L 240.679745 259.842015 
L 241.096011 259.449908 
L 240.996185 259.775327 
L 241.03961 260.080527 
L 241.107485 259.73426 
L 240.964407 260.158081 
L 239.748077 260.457765 
L 239.864796 259.946994 
L 240.304141 260.110059 
L 240.765017 260.135433 
L 240.027958 260.485237 
L 240.143834 260.563982 
L 240.294931 260.274431 
L 240.932504 260.060346 
L 240.418802 260.130463 
L 240.999202 259.48446 
L 241.967718 259.424086 
L 242.272882 258.96977 
L 241.448115 259.281863 
L 241.493425 258.797512 
L 240.889555 258.792341 
L 240.428669 258.798993 
L 240.169846 258.986052 
L 240.334921 259.117507 
L 239.74999 258.573867 
L 239.163454 258.756643 
L 239.27636 258.461849 
L 239.948125 258.688027 
L 240.372149 258.695647 
L 240.158142 259.015239 
L 240.113179 259.485135 
L 240.186357 259.424024 
L 240.562266 259.245297 
L 240.05986 259.162079 
L 240.340258 259.389999 
L 240.569144 259.185695 
L 240.254415 259.127108 
L 240.127011 259.37769 
L 240.440088 259.818867 
L 240.293344 259.586861 
L 240.363514 259.367047 
L 240.417204 259.490752 
L 240.021096 259.505331 
L 239.884202 258.626494 
L 239.585984 258.740699 
L 239.688003 259.197585 
L 239.225024 259.004879 
L 239.482791 259.213972 
L 239.272016 259.23666 
L 240.277345 258.538675 
L 240.514487 258.523828 
L 240.505646 258.838054 
L 240.024966 258.655633 
L 240.078287 258.053386 
L 240.149787 257.816927 
L 240.010436 257.792683 
L 239.387788 257.924043 
L 239.737612 257.698544 
L 239.630728 257.838247 
L 240.038933 258.373435 
L 240.039883 257.898333 
L 239.252291 257.935096 
L 239.476709 258.179251 
L 239.005852 258.730459 
L 238.975 258.444 
L 239.703914 258.404242 
L 239.391364 258.715162 
L 239.336413 258.511162 
L 238.904847 258.254631 
L 238.712839 258.355621 
L 238.574628 258.653806 
L 239.01908 258.539686 
L 239.22265 258.366111 
L 239.530197 258.760187 
L 239.581836 259.132927 
L 239.348962 258.883767 
L 239.103345 258.877393 
L 239.36172 258.61811 
L 239.446048 258.7851 
L 240.278531 258.597467 
L 240.203792 258.916979 
L 239.825517 259.333175 
L 240.000259 259.091355 
L 240.273421 259.365115 
L 240.73889 259.402245 
L 240.432386 259.099049 
L 240.297611 258.650792 
L 239.775944 258.625362 
L 239.546055 259.277643 
L 239.890504 258.966416 
L 239.394711 258.840106 
L 239.101917 258.977265 
L 239.732593 259.054132 
L 239.982891 258.279092 
L 240.484718 258.28199 
L 240.13403 258.481972 
L 239.865311 258.315827 
L 240.009384 258.31152 
L 240.050035 257.739674 
L 239.89224 257.768809 
L 240.01285 257.955482 
L 239.811388 257.721893 
L 240.100364 257.394277 
L 240.205992 257.940495 
L 239.85509 257.987758 
L 239.666552 258.230493 
L 239.839808 258.017698 
L 239.749733 258.488354 
L 240.886952 258.600213 
L 239.841196 258.46346 
L 239.642484 258.882095 
L 239.381767 258.454597 
L 239.13702 258.30773 
L 239.933083 258.064524 
L 239.556693 258.351592 
L 239.930873 258.36519 
L 240.843666 258.147358 
L 240.753731 258.156601 
L 240.300851 258.585402 
L 239.755877 258.072596 
L 239.893509 258.335791 
L 239.701035 258.485255 
L 239.365984 257.749931 
L 238.925905 258.056902 
L 238.885792 258.455681 
L 239.170693 258.438855 
L 239.128965 258.08956 
L 238.657472 257.862325 
L 238.586666 258.035186 
L 239.117269 258.2066 
L 238.542744 258.074905 
L 238.108945 258.157423 
L 238.055166 258.768902 
L 238.806205 258.77877 
L 238.815106 258.646905 
L 238.174807 258.945114 
L 238.341598 259.226828 
L 238.732353 258.950479 
L 239.118633 259.230593 
L 239.187113 259.091839 
L 238.790064 258.61425 
L 238.607039 258.898987 
L 239.147346 258.969114 
L 239.426294 258.752139 
L 239.400734 259.228522 
L 239.938628 259.237607 
L 239.489915 259.212577 
L 239.079009 260.107026 
L 239.78568 259.960596 
L 238.981948 259.6451 
L 239.42522 259.635869 
L 239.08731 259.100235 
L 239.024887 258.692107 
L 238.754219 258.683656 
L 239.334733 258.926986 
L 238.93342 258.658668 
L 238.896035 258.395196 
L 239.041011 259.167469 
L 238.598413 259.148781 
L 238.730809 259.007132 
L 238.656005 258.832163 
L 238.792252 259.623666 
L 237.744687 259.428769 
L 237.91039 259.62998 
L 238.102386 259.573211 
L 238.042903 259.815065 
L 237.779765 259.572738 
L 237.364246 259.710631 
L 237.74442 259.844959 
L 238.347043 259.626527 
L 238.359254 259.734395 
L 237.964716 260.008171 
L 237.830132 259.953833 
L 238.106498 259.808611 
L 237.649966 259.706502 
L 237.834857 259.042992 
L 237.468363 258.814655 
L 237.677927 259.435529 
L 237.958556 259.222218 
L 237.841237 259.475694 
L 238.037963 259.208895 
L 238.480991 259.146975 
L 238.931122 259.297364 
L 238.182127 259.371172 
L 237.892144 259.598979 
L 238.056832 259.787367 
L 239.374637 259.403244 
L 239.317707 259.045307 
L 239.797642 259.296949 
L 239.189977 259.692291 
L 239.228069 259.463695 
L 239.594619 259.83951 
L 239.780093 259.806515 
L 239.50241 259.57731 
L 239.232358 259.656784 
L 238.694098 259.42117 
L 238.942772 259.54378 
L 239.218206 259.060733 
L 238.669458 259.447098 
L 238.603155 259.762827 
L 238.891678 259.79514 
L 238.407083 259.425036 
L 238.167071 259.704992 
L 238.612525 260.113645 
L 238.25886 259.712869 
L 238.443788 260.266112 
L 238.24745 260.122337 
L 238.314139 259.935972 
L 238.000285 259.458283 
L 237.811381 260.003515 
L 237.851427 259.518572 
L 237.842956 259.775878 
L 238.22365 259.385536 
L 238.397342 259.36695 
L 238.206929 259.515696 
L 237.777581 259.335459 
L 237.820703 259.703943 
L 238.282641 259.444014 
L 237.89369 259.636141 
L 238.570347 259.926524 
L 238.795596 260.181147 
L 238.565245 260.001131 
L 238.568282 260.326425 
L 238.277301 260.034265 
L 238.959631 260.401404 
L 239.122523 260.874307 
L 239.087073 260.159008 
L 239.340405 259.998611 
L 239.649036 260.067873 
L 239.324169 259.855598 
L 240.500184 260.074761 
L 240.39157 261.005958 
L 240.636061 260.726628 
L 241.284441 260.546337 
L 240.283831 260.914882 
L 240.264391 260.395478 
L 240.119096 260.889514 
L 240.224192 260.035984 
L 240.43113 260.037733 
L 240.300929 260.581548 
L 239.51003 260.532777 
L 239.599089 260.445133 
L 239.678315 260.230089 
L 240.028645 260.356076 
L 239.936705 260.567366 
L 239.452466 260.210058 
L 239.503308 260.68332 
L 239.944996 260.463921 
L 239.552534 260.791195 
L 239.452794 261.136196 
L 240.125904 261.500033 
L 240.210609 259.869643 
L 239.893152 260.050786 
L 239.763286 260.435599 
L 239.405935 260.151461 
L 239.023209 260.471955 
L 238.89197 260.33146 
L 239.100841 260.472893 
L 238.955107 260.769443 
L 238.69114 260.593543 
L 238.879448 260.882365 
L 238.85514 260.803003 
L 239.157514 260.431963 
L 239.368504 259.953505 
L 239.14568 259.810249 
L 239.944522 259.940112 
L 240.291243 259.869319 
L 239.86991 260.155509 
L 239.693004 259.874547 
L 240.052303 260.166633 
L 239.486306 260.486629 
L 239.54902 260.654926 
L 239.355824 260.374237 
L 240.205247 260.205752 
L 239.86443 259.848522 
L 239.940878 259.853137 
L 239.779483 260.009897 
L 240.045043 259.621567 
L 239.691136 259.483264 
L 239.804072 259.048496 
L 239.322934 259.622164 
L 239.597258 259.641312 
L 239.553792 260.043313 
L 239.916944 259.106624 
L 239.646819 259.027907 
L 239.419702 259.276514 
L 239.7059 259.38265 
L 238.874403 259.226634 
L 238.574132 259.537221 
L 239.615503 258.971977 
L 239.03852 258.694429 
L 238.852086 258.733157 
L 239.279266 259.09509 
L 240.015806 259.352039 
L 239.796949 258.882247 
L 239.483414 259.053252 
L 239.917321 258.413151 
L 239.917321 258.413151 
" clip-path="url(#pdedb451cbf)" style="fill: none; stroke: #8c564b; stroke-linecap: round"/>
   </g>
   <g id="line2d_24">
    <path d="M 220.034925 428.809031 
L 219.599284 428.559222 
L 220.012957 428.916989 
L 219.944472 429.212385 
L 220.287602 429.051678 
L 220.659062 428.711066 
L 220.117042 428.369764 
L 220.24573 428.607385 
L 219.899179 428.961166 
L 220.176006 428.804589 
L 220.28544 428.920896 
L 220.003772 429.339128 
L 219.895655 428.991623 
L 219.764101 429.107385 
L 219.750142 429.432015 
L 219.9464 429.292843 
L 220.09832 429.424243 
L 219.856695 429.561664 
L 219.466366 429.471848 
L 219.762233 429.914044 
L 219.518973 429.623802 
L 219.413646 429.108568 
L 219.937015 428.985178 
L 219.981289 428.740199 
L 219.53855 429.200904 
L 219.539965 429.189546 
L 220.652743 429.323974 
L 220.538321 429.398297 
L 220.760269 429.451276 
L 220.2237 429.61514 
L 220.516839 429.702834 
L 220.351209 429.172685 
L 220.05035 429.058888 
L 220.453522 429.437362 
L 220.013825 429.577146 
L 219.502964 429.19474 
L 219.884541 429.879358 
L 220.385183 429.920822 
L 220.33556 429.778395 
L 220.173785 429.888858 
L 219.781654 429.917468 
L 219.842956 430.022228 
L 219.834571 430.06082 
L 219.613888 429.783105 
L 219.742681 429.718279 
L 219.512245 429.304333 
L 219.677923 429.144872 
L 219.734849 429.384434 
L 219.508146 429.723719 
L 220.092709 429.648064 
L 219.395568 429.394745 
L 219.620948 429.306262 
L 220.134863 429.60368 
L 220.092396 429.867004 
L 219.719977 429.904955 
L 219.125004 429.847142 
L 219.087462 430.333868 
L 219.528023 430.391647 
L 219.287817 430.137303 
L 219.517652 430.180372 
L 219.487985 430.236355 
L 219.972635 430.485346 
L 219.889229 430.132995 
L 219.418906 430.064689 
L 219.946018 430.408722 
L 219.598218 430.180039 
L 218.945518 430.307811 
L 219.180483 430.734 
L 218.817665 430.32925 
L 218.881735 430.308802 
L 218.960743 430.667948 
L 219.451124 430.393848 
L 219.92501 430.517484 
L 219.390379 430.557811 
L 219.464757 430.92 
L 219.331626 430.5063 
L 219.51454 430.502466 
L 219.227375 430.464631 
L 219.494888 430.654567 
L 219.799402 430.51252 
L 219.35821 430.181285 
L 219.728822 430.162943 
L 219.74349 430.043714 
L 220.189932 430.346552 
L 219.531787 430.445113 
L 219.24607 429.901436 
L 219.460956 429.94256 
L 219.278305 429.88011 
L 219.486161 430.266929 
L 219.797236 430.446555 
L 219.866331 430.355552 
L 219.442944 430.041504 
L 219.414795 430.111871 
L 219.712558 429.752998 
L 219.736325 429.37368 
L 219.563437 429.704951 
L 219.888991 429.941864 
L 219.834216 429.781655 
L 219.37409 429.92012 
L 219.658838 430.107464 
L 219.732439 429.939861 
L 219.275036 429.651818 
L 219.598333 429.554949 
L 219.403549 429.466128 
L 219.416239 429.58588 
L 219.321403 429.104148 
L 219.604191 429.878377 
L 219.482648 429.584482 
L 219.172038 429.621567 
L 219.225985 429.830543 
L 218.216172 428.806208 
L 218.906866 429.252101 
L 219.185276 429.708169 
L 219.120583 429.715736 
L 218.997526 430.012456 
L 218.583578 429.316235 
L 219.010662 429.204371 
L 218.639953 429.628979 
L 218.79826 429.400466 
L 218.710753 429.235604 
L 218.30069 429.428423 
L 218.609966 429.808919 
L 218.587908 429.715867 
L 218.896809 429.927432 
L 219.295014 429.420571 
L 218.636121 429.415059 
L 218.878206 429.889573 
L 218.028754 429.483801 
L 217.999809 429.625138 
L 218.408058 430.16719 
L 218.335106 430.040627 
L 218.458629 429.532534 
L 217.888307 429.495189 
L 218.279958 429.758911 
L 218.553039 430.370986 
L 218.122801 429.901506 
L 217.854323 429.789432 
L 217.974728 429.681343 
L 218.618207 429.710188 
L 218.523619 429.903135 
L 218.252686 430.038939 
L 218.125375 429.936542 
L 218.164685 430.072171 
L 217.698958 430.357901 
L 217.752583 429.972749 
L 218.493904 429.775067 
L 218.365104 429.737058 
L 218.409183 429.654134 
L 217.993153 429.641106 
L 218.550208 429.650306 
L 218.532541 429.97874 
L 218.636163 429.557031 
L 218.861401 429.381635 
L 218.912108 429.83832 
L 219.055944 429.483137 
L 219.512943 429.294051 
L 219.227802 429.137261 
L 219.666974 428.90773 
L 219.401192 428.758992 
L 219.329884 428.909703 
L 219.062001 428.789184 
L 219.012222 428.991238 
L 218.884326 428.559439 
L 219.046775 428.804945 
L 219.137366 428.711532 
L 219.441583 429.099026 
L 219.397766 428.83092 
L 219.728809 429.11369 
L 219.466783 429.253884 
L 219.992595 429.207508 
L 219.242376 428.428053 
L 219.405813 428.496821 
L 219.896085 428.567404 
L 219.200219 428.574586 
L 219.354883 428.951469 
L 219.137122 428.599248 
L 218.86731 428.624701 
L 219.079274 428.395502 
L 218.862914 428.407065 
L 218.968759 428.61914 
L 219.386677 428.434136 
L 219.530444 428.622135 
L 219.127204 428.873609 
L 219.125769 428.440235 
L 218.065752 428.498131 
L 218.568391 428.299639 
L 218.579819 428.383381 
L 218.104943 428.681716 
L 217.913965 428.481795 
L 218.285152 428.3997 
L 218.212934 428.53589 
L 218.656808 428.384055 
L 218.35773 428.40517 
L 218.228489 428.394053 
L 218.156965 428.269493 
L 218.31886 428.218633 
L 217.432267 428.611506 
L 218.137357 428.686074 
L 217.527285 428.880654 
L 218.130822 428.286793 
L 217.993425 428.386219 
L 217.935419 428.979194 
L 218.110558 429.270836 
L 217.557572 428.77862 
L 218.195926 428.759055 
L 218.338987 429.038687 
L 217.7388 428.970996 
L 218.230795 428.816557 
L 218.126121 429.196405 
L 218.274809 429.131746 
L 218.216317 428.82301 
L 218.154923 429.739531 
L 217.919679 429.389823 
L 218.692237 429.393045 
L 218.419254 429.719901 
L 218.7802 429.672321 
L 218.134539 429.366514 
L 217.840278 428.938785 
L 218.934701 429.510005 
L 218.777685 429.508168 
L 218.288118 429.730345 
L 218.290129 429.533684 
L 218.522933 429.702507 
L 218.4217 429.774876 
L 218.204058 429.625758 
L 218.672752 429.774726 
L 218.376301 429.451623 
L 218.702892 430.183533 
L 218.728705 429.841365 
L 218.18027 429.60669 
L 218.034672 429.113267 
L 218.21721 429.010697 
L 217.633857 429.426456 
L 218.127825 429.346603 
L 217.674507 429.004162 
L 217.473249 429.188226 
L 217.702512 428.478694 
L 218.46779 429.434552 
L 217.978538 429.427767 
L 217.66076 428.924467 
L 217.964064 429.140209 
L 217.577956 429.407853 
L 217.887167 429.198353 
L 217.359458 429.19938 
L 217.480271 429.656676 
L 217.293278 429.415557 
L 217.80615 429.286394 
L 217.920729 429.199391 
L 218.447349 429.284185 
L 218.409985 429.544997 
L 218.615862 430.025638 
L 218.670919 429.80127 
L 218.552767 429.513796 
L 218.753668 429.610082 
L 218.362446 429.271344 
L 218.258287 429.340485 
L 218.467189 429.387492 
L 218.058216 429.083861 
L 218.438873 428.995336 
L 218.323275 428.573866 
L 218.422728 428.807044 
L 217.925461 429.022668 
L 217.54611 428.560128 
L 217.902551 428.739736 
L 218.048235 428.398893 
L 217.707233 428.62093 
L 218.034929 428.72767 
L 218.047637 429.098727 
L 217.538594 428.934054 
L 217.883539 429.003597 
L 217.606335 429.501411 
L 217.817688 429.129961 
L 217.428895 429.145168 
L 217.863645 429.298553 
L 217.561584 428.92454 
L 217.533333 429.086406 
L 217.451801 429.295642 
L 217.513279 428.742922 
L 217.552282 429.006524 
L 217.67753 429.072989 
L 217.535099 429.150248 
L 217.239966 428.986937 
L 217.198168 428.785316 
L 216.367645 428.505047 
L 216.556469 428.73701 
L 217.112363 428.737948 
L 217.122986 428.470834 
L 217.202658 428.474763 
L 216.585756 428.599293 
L 216.51076 428.249773 
L 216.671072 428.426439 
L 216.957225 428.172652 
L 217.109607 428.201585 
L 217.289775 428.497275 
L 217.464395 428.181154 
L 217.325704 428.15436 
L 217.522803 428.349866 
L 217.395707 428.267765 
L 217.806723 428.457815 
L 217.463692 428.828835 
L 217.920021 428.782928 
L 217.321384 428.906693 
L 217.453933 428.585663 
L 217.628724 428.61162 
L 217.810723 429.195186 
L 217.389957 429.016097 
L 217.48869 429.34159 
L 217.360347 429.137261 
L 217.540933 428.58984 
L 217.493116 428.625818 
L 217.810062 428.465752 
L 217.604748 428.389573 
L 217.747671 428.527998 
L 217.710666 428.644991 
L 217.685362 428.449069 
L 217.37958 428.35197 
L 217.958335 427.840097 
L 218.212248 427.941197 
L 217.680145 427.852565 
L 217.362001 427.966841 
L 217.530339 428.00594 
" clip-path="url(#pdedb451cbf)" style="fill: none; stroke: #e377c2; stroke-linecap: round"/>
   </g>
   <g id="line2d_25">
    <path d="M 148.21525 241.0919 
L 148.570117 241.668425 
L 147.868587 240.99446 
M 147.858463 240.278542 
L 147.844175 240.299847 
L 147.805372 239.925031 
L 148.041827 239.841105 
L 147.81401 240.08581 
L 147.833158 239.881936 
M 148.272751 240.386309 
L 148.365441 240.508537 
L 147.684194 240.700932 
L 147.918006 240.736268 
L 147.91494 240.212007 
L 148.184366 240.224634 
L 148.156389 239.972963 
M 147.933048 240.098028 
L 148.07909 240.908411 
L 148.443108 241.230361 
M 147.752145 240.158165 
L 148.552469 240.117931 
M 147.998104 240.207227 
L 148.104274 240.718937 
L 148.588448 240.2374 
L 148.093864 240.637545 
L 148.127637 240.186371 
L 147.776 240.667868 
L 148.333025 240.76747 
L 148.441822 240.565529 
L 147.931942 240.398948 
L 148.24883 240.572865 
M 147.486473 240.20798 
L 147.606205 239.943932 
L 147.4707 240.257454 
L 147.205555 240.125617 
L 147.652302 239.76343 
L 147.200858 239.692565 
L 147.193744 240.292488 
L 147.398199 239.760151 
L 146.828258 239.628122 
L 146.840354 239.733098 
L 146.782941 240.023634 
L 146.989762 239.704735 
L 147.360963 239.353678 
L 147.405504 239.448236 
L 146.721066 238.764724 
L 146.667261 239.097291 
L 146.920962 239.119715 
L 146.333401 238.885809 
L 147.072615 239.559682 
L 147.422323 239.546634 
L 147.158057 239.1328 
L 146.614927 239.114583 
L 147.166847 239.483956 
L 147.580829 239.211892 
L 147.206567 240.109938 
L 147.967568 239.618932 
L 147.817502 239.428922 
L 147.330987 240.503526 
L 147.169834 239.027976 
M 147.268105 239.267063 
L 146.913728 240.304962 
L 146.654813 240.169334 
L 147.694477 240.226785 
L 147.090657 240.26105 
L 147.464568 239.998175 
L 147.470733 239.686486 
L 147.277864 239.558213 
L 147.012544 239.720723 
L 147.27164 239.684885 
L 147.380879 239.767521 
L 147.296532 239.357019 
L 147.536691 239.772039 
L 147.774867 239.369065 
L 147.480686 239.710569 
L 148.022642 239.301153 
M 147.643786 239.749821 
L 147.890194 239.320354 
M 147.841487 239.468342 
L 147.237816 239.051732 
M 148.150729 238.206197 
L 148.050283 238.96535 
M 147.029119 238.014466 
L 147.176972 238.557199 
M 147.12143 238.675572 
L 147.548177 239.184087 
L 146.665036 238.893046 
L 146.832919 238.805228 
L 146.920789 239.180506 
L 147.090845 238.02505 
M 147.212395 239.617556 
L 147.181255 238.820964 
L 146.986552 238.950889 
L 147.116911 238.309582 
L 147.694777 239.259403 
L 147.372205 238.746006 
L 147.265584 238.850777 
M 147.269863 238.977872 
L 147.009614 239.281843 
L 147.770186 239.200732 
L 147.227738 239.055668 
L 146.938296 238.458253 
M 146.846435 239.170944 
L 147.075107 238.662284 
L 147.398561 239.115046 
L 147.51439 238.44769 
L 147.436653 238.838396 
L 147.038384 239.256559 
L 147.454038 238.983872 
L 147.419893 238.517446 
L 147.684134 238.585607 
L 147.753402 238.475678 
M 147.219342 238.968036 
L 146.550654 238.804848 
L 147.102648 239.048705 
L 146.786476 239.129585 
L 146.526819 238.953785 
L 147.139079 239.343151 
L 147.222187 238.910386 
L 146.905126 239.036182 
L 146.733787 238.281862 
L 146.088729 238.009858 
L 146.574121 239.308955 
L 146.624098 239.087357 
M 146.348765 238.815443 
L 146.449955 238.982036 
M 146.503187 239.29714 
L 146.67218 239.559469 
L 147.031193 238.879483 
M 146.846611 239.294779 
L 146.520215 238.515731 
L 146.85939 239.077982 
L 146.343566 238.486276 
L 145.964924 238.899773 
L 146.163754 239.153559 
L 145.83552 238.606587 
L 146.707673 239.083111 
L 146.305921 239.003414 
L 146.466476 238.76941 
L 146.804917 238.883103 
L 146.453329 239.354165 
L 146.737945 239.294198 
L 146.071335 239.211726 
L 146.192618 238.774143 
L 146.528582 238.290772 
L 146.498131 238.701658 
L 146.359392 237.558846 
L 146.149795 237.921816 
L 146.705394 238.629495 
L 146.698125 239.209491 
L 146.2325 238.850895 
L 146.700964 238.407038 
L 146.486316 238.129134 
L 146.141792 238.485503 
L 145.946469 237.979333 
L 145.844197 238.176817 
L 146.051807 238.173476 
L 146.170904 238.335188 
L 146.578362 238.158897 
L 146.126786 237.104646 
L 146.038028 237.468364 
M 147.188743 238.374371 
L 147.593384 238.111703 
M 147.523815 238.432968 
L 147.093769 238.853138 
L 147.328214 238.662058 
M 147.140389 238.893486 
L 147.420291 238.742501 
L 147.502986 237.838038 
M 147.450624 238.674321 
L 147.511816 239.089996 
L 147.681271 239.231738 
M 147.512691 238.149104 
" clip-path="url(#pdedb451cbf)" style="fill: none; stroke: #7f7f7f; stroke-linecap: round"/>
   </g>
   <g id="line2d_26">
    <path d="M 368.847941 203.760476 
L 368.661343 203.6483 
M 368.399396 203.404285 
L 367.974375 203.542977 
L 368.44995 203.353665 
L 368.327901 203.22642 
L 368.278218 202.77667 
L 368.06283 203.176496 
L 368.396949 203.693862 
L 367.701354 203.095208 
L 367.438914 203.176476 
L 367.642094 203.311008 
L 368.002543 203.41054 
L 367.412307 203.480274 
L 367.450894 204.0664 
L 367.459818 204.050113 
L 367.873815 204.04368 
L 368.455927 203.377446 
L 367.792737 203.847498 
L 367.560136 203.719786 
L 368.224433 203.965185 
L 368.511813 204.108512 
L 368.244438 203.846035 
L 368.52025 203.863902 
L 368.73423 203.147784 
L 369.352471 202.899399 
L 368.900194 203.149726 
L 368.64783 202.607068 
L 368.950107 203.093295 
L 368.837298 203.47757 
L 368.685933 203.132559 
L 368.670604 204.099441 
L 368.376715 203.922323 
L 368.547825 204.372666 
L 368.179668 203.723036 
L 368.429121 203.918321 
L 368.051611 204.304316 
L 367.803411 204.086352 
L 367.571025 203.054356 
L 367.621971 203.295961 
L 368.190264 203.637971 
L 368.071646 203.270326 
L 369.459143 202.852954 
L 369.106249 203.337627 
M 368.588376 203.332128 
L 369.567909 203.748088 
M 368.641028 203.179236 
L 367.931148 203.616851 
L 368.203022 203.998639 
L 368.319174 203.034201 
M 367.450182 202.841452 
L 367.752875 203.020256 
L 368.523478 202.73024 
L 369.036534 202.683567 
L 367.672812 203.187232 
L 368.136239 203.215666 
L 367.939517 203.306024 
M 367.62157 204.265132 
L 368.324624 204.666476 
L 367.636307 204.06078 
M 366.854607 204.262014 
L 367.12238 204.198276 
L 367.924388 204.163477 
L 367.189783 205.759551 
L 367.358713 205.616715 
L 367.786143 205.617361 
M 367.819547 204.715651 
L 367.331923 204.752687 
L 367.292132 205.015708 
L 367.097094 204.415291 
M 368.466833 204.745086 
L 368.205135 204.440716 
L 368.619633 204.982469 
L 368.464399 204.01548 
L 369.017618 204.780191 
L 368.921088 204.855656 
L 368.998256 204.304969 
L 368.058954 204.030849 
L 369.055791 203.767487 
L 368.892646 204.380375 
L 369.315781 204.55228 
L 369.047942 204.850277 
L 369.730178 205.269123 
M 368.539146 203.950765 
L 368.469674 204.612 
L 369.281822 203.929331 
L 369.273776 204.438696 
L 368.794536 205.356543 
L 368.861199 205.28127 
L 368.693843 204.264816 
M 368.372577 204.295198 
L 368.102139 204.629173 
L 368.01121 203.852855 
L 367.453659 204.172302 
L 367.555623 203.63813 
L 366.873894 203.915513 
L 368.299363 203.428885 
L 368.475577 203.504185 
L 367.904848 203.882353 
L 368.301959 204.53295 
L 368.333032 204.429822 
" clip-path="url(#pdedb451cbf)" style="fill: none; stroke: #bcbd22; stroke-linecap: round"/>
   </g>
   <g id="patch_3">
    <path d="M 63 448.56 
L 63 60.48 
" style="fill: none; stroke: #262626; stroke-width: 1.25; stroke-linejoin: miter; stroke-linecap: square"/>
   </g>
   <g id="patch_4">
    <path d="M 453.6 448.56 
L 453.6 60.48 
" style="fill: none; stroke: #262626; stroke-width: 1.25; stroke-linejoin: miter; stroke-linecap: square"/>
   </g>
   <g id="patch_5">
    <path d="M 63 448.56 
L 453.6 448.56 
" style="fill: none; stroke: #262626; stroke-width: 1.25; stroke-linejoin: miter; stroke-linecap: square"/>
   </g>
   <g id="patch_6">
    <path d="M 63 60.48 
L 453.6 60.48 
" style="fill: none; stroke: #262626; stroke-width: 1.25; stroke-linejoin: miter; stroke-linecap: square"/>
   </g>
  </g>
 </g>
 <defs>
  <clipPath id="pdedb451cbf">
   <rect x="63" y="60.48" width="390.6" height="388.08"/>
  </clipPath>
 </defs>
</svg>
