<?xml version="1.0" encoding="utf-8" standalone="no"?>
<!DOCTYPE svg PUBLIC "-//W3C//DTD SVG 1.1//EN"
  "http://www.w3.org/Graphics/SVG/1.1/DTD/svg11.dtd">
<svg xmlns:xlink="http://www.w3.org/1999/xlink" width="504pt" height="504pt" viewBox="0 0 504 504" xmlns="http://www.w3.org/2000/svg" version="1.1">
 <metadata>
  <rdf:RDF xmlns:dc="http://purl.org/dc/elements/1.1/" xmlns:cc="http://creativecommons.org/ns#" xmlns:rdf="http://www.w3.org/1999/02/22-rdf-syntax-ns#">
   <cc:Work>
    <dc:type rdf:resource="http://purl.org/dc/dcmitype/StillImage"/>
    <dc:date>2025-06-24T14:18:34.998106</dc:date>
    <dc:format>image/svg+xml</dc:format>
    <dc:creator>
     <cc:Agent>
      <dc:title>Matplotlib v3.8.0, https://matplotlib.org/</dc:title>
     </cc:Agent>
    </dc:creator>
   </cc:Work>
  </rdf:RDF>
 </metadata>
 <defs>
  <style type="text/css">*{stroke-linejoin: round; stroke-linecap: butt}</style>
 </defs>
 <g id="figure_1">
  <g id="patch_1">
   <path d="M 0 504 
L 504 504 
L 504 0 
L 0 0 
z
" style="fill: #ffffff"/>
  </g>
  <g id="axes_1">
   <g id="patch_2">
    <path d="M 63 448.56 
L 453.6 448.56 
L 453.6 60.48 
L 63 60.48 
z
" style="fill: #ffffff"/>
   </g>
   <g id="matplotlib.axis_1">
    <g id="xtick_1">
     <g id="line2d_1">
      <defs>
       <path id="m794b0c5672" d="M 0 0 
L 0 5 
" style="stroke: #262626; stroke-width: 0.8"/>
      </defs>
      <g>
       <use xlink:href="#m794b0c5672" x="73.051308" y="448.56" style="fill: #262626; stroke: #262626; stroke-width: 0.8"/>
      </g>
     </g>
     <g id="text_1">
      <!-- 5.0 -->
      <g style="fill: #262626" transform="translate(63.321308 467.080938) scale(0.14 -0.14)">
       <defs>
        <path id="ArialMT-35" d="M 266 1200 
L 856 1250 
Q 922 819 1161 601 
Q 1400 384 1738 384 
Q 2144 384 2425 690 
Q 2706 997 2706 1503 
Q 2706 1984 2436 2262 
Q 2166 2541 1728 2541 
Q 1456 2541 1237 2417 
Q 1019 2294 894 2097 
L 366 2166 
L 809 4519 
L 3088 4519 
L 3088 3981 
L 1259 3981 
L 1013 2750 
Q 1425 3038 1878 3038 
Q 2478 3038 2890 2622 
Q 3303 2206 3303 1553 
Q 3303 931 2941 478 
Q 2500 -78 1738 -78 
Q 1113 -78 717 272 
Q 322 622 266 1200 
z
" transform="scale(0.015625)"/>
        <path id="ArialMT-2e" d="M 581 0 
L 581 641 
L 1222 641 
L 1222 0 
L 581 0 
z
" transform="scale(0.015625)"/>
        <path id="ArialMT-30" d="M 266 2259 
Q 266 3072 433 3567 
Q 600 4063 929 4331 
Q 1259 4600 1759 4600 
Q 2128 4600 2406 4451 
Q 2684 4303 2865 4023 
Q 3047 3744 3150 3342 
Q 3253 2941 3253 2259 
Q 3253 1453 3087 958 
Q 2922 463 2592 192 
Q 2263 -78 1759 -78 
Q 1097 -78 719 397 
Q 266 969 266 2259 
z
M 844 2259 
Q 844 1131 1108 757 
Q 1372 384 1759 384 
Q 2147 384 2411 759 
Q 2675 1134 2675 2259 
Q 2675 3391 2411 3762 
Q 2147 4134 1753 4134 
Q 1366 4134 1134 3806 
Q 844 3388 844 2259 
z
" transform="scale(0.015625)"/>
       </defs>
       <use xlink:href="#ArialMT-35"/>
       <use xlink:href="#ArialMT-2e" x="55.615234"/>
       <use xlink:href="#ArialMT-30" x="83.398438"/>
      </g>
     </g>
    </g>
    <g id="xtick_2">
     <g id="line2d_2">
      <g>
       <use xlink:href="#m794b0c5672" x="119.515678" y="448.56" style="fill: #262626; stroke: #262626; stroke-width: 0.8"/>
      </g>
     </g>
     <g id="text_2">
      <!-- 7.5 -->
      <g style="fill: #262626" transform="translate(109.785678 467.080938) scale(0.14 -0.14)">
       <defs>
        <path id="ArialMT-37" d="M 303 3981 
L 303 4522 
L 3269 4522 
L 3269 4084 
Q 2831 3619 2401 2847 
Q 1972 2075 1738 1259 
Q 1569 684 1522 0 
L 944 0 
Q 953 541 1156 1306 
Q 1359 2072 1739 2783 
Q 2119 3494 2547 3981 
L 303 3981 
z
" transform="scale(0.015625)"/>
       </defs>
       <use xlink:href="#ArialMT-37"/>
       <use xlink:href="#ArialMT-2e" x="55.615234"/>
       <use xlink:href="#ArialMT-35" x="83.398438"/>
      </g>
     </g>
    </g>
    <g id="xtick_3">
     <g id="line2d_3">
      <g>
       <use xlink:href="#m794b0c5672" x="165.980048" y="448.56" style="fill: #262626; stroke: #262626; stroke-width: 0.8"/>
      </g>
     </g>
     <g id="text_3">
      <!-- 10.0 -->
      <g style="fill: #262626" transform="translate(152.357392 467.080938) scale(0.14 -0.14)">
       <defs>
        <path id="ArialMT-31" d="M 2384 0 
L 1822 0 
L 1822 3584 
Q 1619 3391 1289 3197 
Q 959 3003 697 2906 
L 697 3450 
Q 1169 3672 1522 3987 
Q 1875 4303 2022 4600 
L 2384 4600 
L 2384 0 
z
" transform="scale(0.015625)"/>
       </defs>
       <use xlink:href="#ArialMT-31"/>
       <use xlink:href="#ArialMT-30" x="55.615234"/>
       <use xlink:href="#ArialMT-2e" x="111.230469"/>
       <use xlink:href="#ArialMT-30" x="139.013672"/>
      </g>
     </g>
    </g>
    <g id="xtick_4">
     <g id="line2d_4">
      <g>
       <use xlink:href="#m794b0c5672" x="212.444418" y="448.56" style="fill: #262626; stroke: #262626; stroke-width: 0.8"/>
      </g>
     </g>
     <g id="text_4">
      <!-- 12.5 -->
      <g style="fill: #262626" transform="translate(198.821762 467.080938) scale(0.14 -0.14)">
       <defs>
        <path id="ArialMT-32" d="M 3222 541 
L 3222 0 
L 194 0 
Q 188 203 259 391 
Q 375 700 629 1000 
Q 884 1300 1366 1694 
Q 2113 2306 2375 2664 
Q 2638 3022 2638 3341 
Q 2638 3675 2398 3904 
Q 2159 4134 1775 4134 
Q 1369 4134 1125 3890 
Q 881 3647 878 3216 
L 300 3275 
Q 359 3922 746 4261 
Q 1134 4600 1788 4600 
Q 2447 4600 2831 4234 
Q 3216 3869 3216 3328 
Q 3216 3053 3103 2787 
Q 2991 2522 2730 2228 
Q 2469 1934 1863 1422 
Q 1356 997 1212 845 
Q 1069 694 975 541 
L 3222 541 
z
" transform="scale(0.015625)"/>
       </defs>
       <use xlink:href="#ArialMT-31"/>
       <use xlink:href="#ArialMT-32" x="55.615234"/>
       <use xlink:href="#ArialMT-2e" x="111.230469"/>
       <use xlink:href="#ArialMT-35" x="139.013672"/>
      </g>
     </g>
    </g>
    <g id="xtick_5">
     <g id="line2d_5">
      <g>
       <use xlink:href="#m794b0c5672" x="258.908788" y="448.56" style="fill: #262626; stroke: #262626; stroke-width: 0.8"/>
      </g>
     </g>
     <g id="text_5">
      <!-- 15.0 -->
      <g style="fill: #262626" transform="translate(245.286132 467.080938) scale(0.14 -0.14)">
       <use xlink:href="#ArialMT-31"/>
       <use xlink:href="#ArialMT-35" x="55.615234"/>
       <use xlink:href="#ArialMT-2e" x="111.230469"/>
       <use xlink:href="#ArialMT-30" x="139.013672"/>
      </g>
     </g>
    </g>
    <g id="xtick_6">
     <g id="line2d_6">
      <g>
       <use xlink:href="#m794b0c5672" x="305.373158" y="448.56" style="fill: #262626; stroke: #262626; stroke-width: 0.8"/>
      </g>
     </g>
     <g id="text_6">
      <!-- 17.5 -->
      <g style="fill: #262626" transform="translate(291.750502 467.080938) scale(0.14 -0.14)">
       <use xlink:href="#ArialMT-31"/>
       <use xlink:href="#ArialMT-37" x="55.615234"/>
       <use xlink:href="#ArialMT-2e" x="111.230469"/>
       <use xlink:href="#ArialMT-35" x="139.013672"/>
      </g>
     </g>
    </g>
    <g id="xtick_7">
     <g id="line2d_7">
      <g>
       <use xlink:href="#m794b0c5672" x="351.837528" y="448.56" style="fill: #262626; stroke: #262626; stroke-width: 0.8"/>
      </g>
     </g>
     <g id="text_7">
      <!-- 20.0 -->
      <g style="fill: #262626" transform="translate(338.214872 467.080938) scale(0.14 -0.14)">
       <use xlink:href="#ArialMT-32"/>
       <use xlink:href="#ArialMT-30" x="55.615234"/>
       <use xlink:href="#ArialMT-2e" x="111.230469"/>
       <use xlink:href="#ArialMT-30" x="139.013672"/>
      </g>
     </g>
    </g>
    <g id="xtick_8">
     <g id="line2d_8">
      <g>
       <use xlink:href="#m794b0c5672" x="398.301898" y="448.56" style="fill: #262626; stroke: #262626; stroke-width: 0.8"/>
      </g>
     </g>
     <g id="text_8">
      <!-- 22.5 -->
      <g style="fill: #262626" transform="translate(384.679242 467.080938) scale(0.14 -0.14)">
       <use xlink:href="#ArialMT-32"/>
       <use xlink:href="#ArialMT-32" x="55.615234"/>
       <use xlink:href="#ArialMT-2e" x="111.230469"/>
       <use xlink:href="#ArialMT-35" x="139.013672"/>
      </g>
     </g>
    </g>
    <g id="xtick_9">
     <g id="line2d_9">
      <g>
       <use xlink:href="#m794b0c5672" x="444.766268" y="448.56" style="fill: #262626; stroke: #262626; stroke-width: 0.8"/>
      </g>
     </g>
     <g id="text_9">
      <!-- 25.0 -->
      <g style="fill: #262626" transform="translate(431.143612 467.080938) scale(0.14 -0.14)">
       <use xlink:href="#ArialMT-32"/>
       <use xlink:href="#ArialMT-35" x="55.615234"/>
       <use xlink:href="#ArialMT-2e" x="111.230469"/>
       <use xlink:href="#ArialMT-30" x="139.013672"/>
      </g>
     </g>
    </g>
    <g id="text_10">
     <!-- x [\xb5m] -->
     <g style="fill: #262626" transform="translate(225.84875 485.510938) scale(0.16 -0.16)">
      <defs>
       <path id="ArialMT-78" d="M 47 0 
L 1259 1725 
L 138 3319 
L 841 3319 
L 1350 2541 
Q 1494 2319 1581 2169 
Q 1719 2375 1834 2534 
L 2394 3319 
L 3066 3319 
L 1919 1756 
L 3153 0 
L 2463 0 
L 1781 1031 
L 1600 1309 
L 728 0 
L 47 0 
z
" transform="scale(0.015625)"/>
       <path id="ArialMT-20" transform="scale(0.015625)"/>
       <path id="ArialMT-5b" d="M 434 -1272 
L 434 4581 
L 1675 4581 
L 1675 4116 
L 997 4116 
L 997 -806 
L 1675 -806 
L 1675 -1272 
L 434 -1272 
z
" transform="scale(0.015625)"/>
       <path id="ArialMT-5c" d="M 1328 -78 
L 0 4659 
L 453 4659 
L 1778 -78 
L 1328 -78 
z
" transform="scale(0.015625)"/>
       <path id="ArialMT-62" d="M 941 0 
L 419 0 
L 419 4581 
L 981 4581 
L 981 2947 
Q 1338 3394 1891 3394 
Q 2197 3394 2470 3270 
Q 2744 3147 2920 2923 
Q 3097 2700 3197 2384 
Q 3297 2069 3297 1709 
Q 3297 856 2875 390 
Q 2453 -75 1863 -75 
Q 1275 -75 941 416 
L 941 0 
z
M 934 1684 
Q 934 1088 1097 822 
Q 1363 388 1816 388 
Q 2184 388 2453 708 
Q 2722 1028 2722 1663 
Q 2722 2313 2464 2622 
Q 2206 2931 1841 2931 
Q 1472 2931 1203 2611 
Q 934 2291 934 1684 
z
" transform="scale(0.015625)"/>
       <path id="ArialMT-6d" d="M 422 0 
L 422 3319 
L 925 3319 
L 925 2853 
Q 1081 3097 1340 3245 
Q 1600 3394 1931 3394 
Q 2300 3394 2536 3241 
Q 2772 3088 2869 2813 
Q 3263 3394 3894 3394 
Q 4388 3394 4653 3120 
Q 4919 2847 4919 2278 
L 4919 0 
L 4359 0 
L 4359 2091 
Q 4359 2428 4304 2576 
Q 4250 2725 4106 2815 
Q 3963 2906 3769 2906 
Q 3419 2906 3187 2673 
Q 2956 2441 2956 1928 
L 2956 0 
L 2394 0 
L 2394 2156 
Q 2394 2531 2256 2718 
Q 2119 2906 1806 2906 
Q 1569 2906 1367 2781 
Q 1166 2656 1075 2415 
Q 984 2175 984 1722 
L 984 0 
L 422 0 
z
" transform="scale(0.015625)"/>
       <path id="ArialMT-5d" d="M 1363 -1272 
L 122 -1272 
L 122 -806 
L 800 -806 
L 800 4116 
L 122 4116 
L 122 4581 
L 1363 4581 
L 1363 -1272 
z
" transform="scale(0.015625)"/>
      </defs>
      <use xlink:href="#ArialMT-78"/>
      <use xlink:href="#ArialMT-20" x="50"/>
      <use xlink:href="#ArialMT-5b" x="77.783203"/>
      <use xlink:href="#ArialMT-5c" x="105.566406"/>
      <use xlink:href="#ArialMT-78" x="133.349609"/>
      <use xlink:href="#ArialMT-62" x="183.349609"/>
      <use xlink:href="#ArialMT-35" x="238.964844"/>
      <use xlink:href="#ArialMT-6d" x="294.580078"/>
      <use xlink:href="#ArialMT-5d" x="377.880859"/>
     </g>
    </g>
   </g>
   <g id="matplotlib.axis_2">
    <g id="ytick_1">
     <g id="line2d_10">
      <defs>
       <path id="m79f2f05233" d="M 0 0 
L -5 0 
" style="stroke: #262626; stroke-width: 0.8"/>
      </defs>
      <g>
       <use xlink:href="#m79f2f05233" x="63" y="75.273572" style="fill: #262626; stroke: #262626; stroke-width: 0.8"/>
      </g>
     </g>
     <g id="text_11">
      <!-- 5.0 -->
      <g style="fill: #262626" transform="translate(35.04 80.284041) scale(0.14 -0.14)">
       <use xlink:href="#ArialMT-35"/>
       <use xlink:href="#ArialMT-2e" x="55.615234"/>
       <use xlink:href="#ArialMT-30" x="83.398438"/>
      </g>
     </g>
    </g>
    <g id="ytick_2">
     <g id="line2d_11">
      <g>
       <use xlink:href="#m79f2f05233" x="63" y="121.737942" style="fill: #262626; stroke: #262626; stroke-width: 0.8"/>
      </g>
     </g>
     <g id="text_12">
      <!-- 7.5 -->
      <g style="fill: #262626" transform="translate(35.04 126.748411) scale(0.14 -0.14)">
       <use xlink:href="#ArialMT-37"/>
       <use xlink:href="#ArialMT-2e" x="55.615234"/>
       <use xlink:href="#ArialMT-35" x="83.398438"/>
      </g>
     </g>
    </g>
    <g id="ytick_3">
     <g id="line2d_12">
      <g>
       <use xlink:href="#m79f2f05233" x="63" y="168.202312" style="fill: #262626; stroke: #262626; stroke-width: 0.8"/>
      </g>
     </g>
     <g id="text_13">
      <!-- 10.0 -->
      <g style="fill: #262626" transform="translate(27.254687 173.212781) scale(0.14 -0.14)">
       <use xlink:href="#ArialMT-31"/>
       <use xlink:href="#ArialMT-30" x="55.615234"/>
       <use xlink:href="#ArialMT-2e" x="111.230469"/>
       <use xlink:href="#ArialMT-30" x="139.013672"/>
      </g>
     </g>
    </g>
    <g id="ytick_4">
     <g id="line2d_13">
      <g>
       <use xlink:href="#m79f2f05233" x="63" y="214.666682" style="fill: #262626; stroke: #262626; stroke-width: 0.8"/>
      </g>
     </g>
     <g id="text_14">
      <!-- 12.5 -->
      <g style="fill: #262626" transform="translate(27.254687 219.677151) scale(0.14 -0.14)">
       <use xlink:href="#ArialMT-31"/>
       <use xlink:href="#ArialMT-32" x="55.615234"/>
       <use xlink:href="#ArialMT-2e" x="111.230469"/>
       <use xlink:href="#ArialMT-35" x="139.013672"/>
      </g>
     </g>
    </g>
    <g id="ytick_5">
     <g id="line2d_14">
      <g>
       <use xlink:href="#m79f2f05233" x="63" y="261.131052" style="fill: #262626; stroke: #262626; stroke-width: 0.8"/>
      </g>
     </g>
     <g id="text_15">
      <!-- 15.0 -->
      <g style="fill: #262626" transform="translate(27.254687 266.141521) scale(0.14 -0.14)">
       <use xlink:href="#ArialMT-31"/>
       <use xlink:href="#ArialMT-35" x="55.615234"/>
       <use xlink:href="#ArialMT-2e" x="111.230469"/>
       <use xlink:href="#ArialMT-30" x="139.013672"/>
      </g>
     </g>
    </g>
    <g id="ytick_6">
     <g id="line2d_15">
      <g>
       <use xlink:href="#m79f2f05233" x="63" y="307.595422" style="fill: #262626; stroke: #262626; stroke-width: 0.8"/>
      </g>
     </g>
     <g id="text_16">
      <!-- 17.5 -->
      <g style="fill: #262626" transform="translate(27.254687 312.605891) scale(0.14 -0.14)">
       <use xlink:href="#ArialMT-31"/>
       <use xlink:href="#ArialMT-37" x="55.615234"/>
       <use xlink:href="#ArialMT-2e" x="111.230469"/>
       <use xlink:href="#ArialMT-35" x="139.013672"/>
      </g>
     </g>
    </g>
    <g id="ytick_7">
     <g id="line2d_16">
      <g>
       <use xlink:href="#m79f2f05233" x="63" y="354.059792" style="fill: #262626; stroke: #262626; stroke-width: 0.8"/>
      </g>
     </g>
     <g id="text_17">
      <!-- 20.0 -->
      <g style="fill: #262626" transform="translate(27.254687 359.070261) scale(0.14 -0.14)">
       <use xlink:href="#ArialMT-32"/>
       <use xlink:href="#ArialMT-30" x="55.615234"/>
       <use xlink:href="#ArialMT-2e" x="111.230469"/>
       <use xlink:href="#ArialMT-30" x="139.013672"/>
      </g>
     </g>
    </g>
    <g id="ytick_8">
     <g id="line2d_17">
      <g>
       <use xlink:href="#m79f2f05233" x="63" y="400.524162" style="fill: #262626; stroke: #262626; stroke-width: 0.8"/>
      </g>
     </g>
     <g id="text_18">
      <!-- 22.5 -->
      <g style="fill: #262626" transform="translate(27.254687 405.534631) scale(0.14 -0.14)">
       <use xlink:href="#ArialMT-32"/>
       <use xlink:href="#ArialMT-32" x="55.615234"/>
       <use xlink:href="#ArialMT-2e" x="111.230469"/>
       <use xlink:href="#ArialMT-35" x="139.013672"/>
      </g>
     </g>
    </g>
    <g id="ytick_9">
     <g id="line2d_18">
      <g>
       <use xlink:href="#m79f2f05233" x="63" y="446.988532" style="fill: #262626; stroke: #262626; stroke-width: 0.8"/>
      </g>
     </g>
     <g id="text_19">
      <!-- 25.0 -->
      <g style="fill: #262626" transform="translate(27.254687 451.999001) scale(0.14 -0.14)">
       <use xlink:href="#ArialMT-32"/>
       <use xlink:href="#ArialMT-35" x="55.615234"/>
       <use xlink:href="#ArialMT-2e" x="111.230469"/>
       <use xlink:href="#ArialMT-30" x="139.013672"/>
      </g>
     </g>
    </g>
    <g id="text_20">
     <!-- y [\xb5m] -->
     <g style="fill: #262626" transform="translate(19.887187 286.97125) rotate(-90) scale(0.16 -0.16)">
      <defs>
       <path id="ArialMT-79" d="M 397 -1278 
L 334 -750 
Q 519 -800 656 -800 
Q 844 -800 956 -737 
Q 1069 -675 1141 -563 
Q 1194 -478 1313 -144 
Q 1328 -97 1363 -6 
L 103 3319 
L 709 3319 
L 1400 1397 
Q 1534 1031 1641 628 
Q 1738 1016 1872 1384 
L 2581 3319 
L 3144 3319 
L 1881 -56 
Q 1678 -603 1566 -809 
Q 1416 -1088 1222 -1217 
Q 1028 -1347 759 -1347 
Q 597 -1347 397 -1278 
z
" transform="scale(0.015625)"/>
      </defs>
      <use xlink:href="#ArialMT-79"/>
      <use xlink:href="#ArialMT-20" x="50"/>
      <use xlink:href="#ArialMT-5b" x="77.783203"/>
      <use xlink:href="#ArialMT-5c" x="105.566406"/>
      <use xlink:href="#ArialMT-78" x="133.349609"/>
      <use xlink:href="#ArialMT-62" x="183.349609"/>
      <use xlink:href="#ArialMT-35" x="238.964844"/>
      <use xlink:href="#ArialMT-6d" x="294.580078"/>
      <use xlink:href="#ArialMT-5d" x="377.880859"/>
     </g>
    </g>
   </g>
   <g id="line2d_19">
    <path d="M 382.411074 245.431897 
L 382.229803 245.587545 
L 382.240875 245.747986 
L 382.072272 245.893012 
L 382.173176 245.85996 
L 382.48441 245.256538 
L 382.830132 245.154744 
L 382.267688 245.434603 
L 382.371005 245.557541 
L 382.396938 245.487057 
L 382.46322 245.143566 
L 382.399308 245.393576 
L 382.215498 245.477594 
L 382.421175 245.351816 
L 381.990916 245.328035 
L 382.190375 245.287614 
L 382.16349 245.650374 
L 382.468378 245.228814 
L 382.467286 245.1443 
L 382.752232 245.32089 
L 382.916699 245.049899 
L 382.702764 245.516391 
L 382.647835 245.685378 
L 382.30579 245.727094 
L 382.525629 245.867664 
L 382.592524 245.526825 
L 382.800707 245.645162 
L 382.793599 245.613188 
L 382.873206 245.38301 
L 382.804718 245.538223 
L 382.771565 245.224815 
L 382.690059 245.729609 
L 382.70174 245.699481 
L 382.251641 245.903109 
L 382.487349 245.401124 
L 382.368391 245.387629 
L 382.145949 245.800231 
L 382.146997 246.281454 
L 382.391468 245.946577 
L 382.046545 246.270468 
L 382.121276 246.038268 
L 382.068299 246.310551 
L 381.892889 246.057289 
L 382.208867 246.254248 
L 382.244636 245.976633 
L 382.11413 246.178763 
L 381.743668 246.013424 
L 381.86352 245.970487 
L 381.783035 246.254741 
L 382.091688 246.139474 
L 381.975911 246.308443 
L 382.029611 246.135888 
L 381.992394 245.985345 
L 382.099857 246.127217 
L 382.180236 246.197472 
L 382.486409 246.170101 
L 382.415248 245.890206 
L 382.552604 245.759546 
L 382.418423 245.82818 
L 382.506375 246.06985 
L 382.31331 246.316088 
L 382.446944 245.894045 
L 382.627509 246.363209 
L 382.541651 246.619924 
L 382.830096 245.927332 
L 383.101931 245.703237 
L 382.959019 245.743582 
L 382.767764 245.821785 
L 382.604556 245.725588 
L 382.863438 245.456529 
L 382.95605 245.579231 
L 382.903746 245.589336 
L 382.577278 245.763449 
L 382.444029 245.649501 
L 382.811845 245.755075 
L 382.855203 245.048238 
L 382.870492 244.903791 
L 382.798721 244.996256 
L 382.555689 245.019267 
L 382.869703 244.908689 
L 383.147123 245.299747 
L 382.927742 244.972876 
L 382.925434 244.846825 
L 382.749519 245.29524 
L 382.47973 245.455361 
L 382.478232 245.65279 
L 382.314659 245.612844 
L 382.439646 245.314457 
L 382.212968 245.328623 
L 382.127426 245.501946 
L 382.173524 245.185337 
L 382.127842 245.028794 
L 382.165585 245.287235 
L 382.376367 245.137358 
L 382.154547 245.326262 
L 382.379602 245.39811 
L 382.249786 245.383178 
L 382.503228 244.994228 
L 382.422508 245.170283 
L 382.570455 244.962122 
L 382.795604 245.058374 
L 382.630765 245.207173 
L 382.858884 245.265116 
L 382.58144 244.917924 
L 382.38217 245.169541 
L 382.187856 245.11956 
L 382.480613 245.023197 
L 382.660177 245.181064 
L 382.583983 244.967277 
L 382.613332 244.888893 
L 382.368053 245.284223 
L 382.21044 245.14902 
L 382.53674 245.425917 
L 382.688829 245.213576 
L 382.70466 245.317962 
L 382.405298 245.115798 
L 382.756249 245.202349 
L 382.573322 245.370191 
L 382.733542 245.205346 
L 382.798999 244.980574 
L 382.606452 245.000761 
L 383.055393 244.878459 
L 382.754511 245.3191 
L 382.906493 245.409386 
L 382.718368 245.007316 
L 382.620607 245.141356 
L 382.775175 244.899534 
L 382.69295 245.007219 
L 382.750033 245.221185 
L 382.660614 245.133923 
L 382.389058 245.631171 
L 382.747578 245.139425 
L 382.952153 245.313166 
L 382.766608 245.691523 
L 382.558923 245.588805 
L 382.625925 245.552036 
L 382.396849 245.318327 
L 382.695705 245.395586 
L 382.947246 245.286357 
L 382.585946 245.471727 
L 382.789309 245.264338 
L 382.917357 245.524642 
L 382.834518 245.779978 
L 382.271572 245.661487 
L 382.461232 245.499897 
L 382.609894 245.61526 
L 382.750425 245.368202 
L 382.734438 245.386773 
L 382.860009 245.434547 
L 382.684046 245.65132 
L 382.551902 245.367091 
L 382.644527 245.629957 
L 382.354989 245.430952 
L 382.557382 245.704573 
L 382.595851 244.942582 
L 382.937342 245.195327 
L 382.939338 245.174288 
L 382.485791 245.4215 
L 382.992336 245.405733 
L 382.565923 245.024135 
L 383.235706 245.043348 
L 382.984902 245.066384 
L 383.016689 245.225319 
L 382.856298 244.840975 
L 383.065729 245.161263 
L 383.181477 245.041473 
L 383.019171 244.943952 
L 383.065301 244.767116 
L 382.866688 244.979465 
L 383.036295 245.07732 
L 383.237009 244.777292 
L 383.312623 244.978869 
L 383.079604 245.27064 
L 383.196538 245.324116 
L 382.942169 245.06742 
L 382.712442 245.393171 
L 382.606349 245.293865 
L 382.799551 245.360826 
L 382.700714 245.016728 
L 382.758163 244.659285 
L 382.620384 245.084147 
L 382.649109 244.935191 
L 382.351707 244.628721 
L 382.541679 244.71659 
L 382.711878 244.735415 
L 382.62473 244.80826 
L 382.823356 244.905557 
L 382.999786 244.842664 
L 382.85397 244.588663 
L 382.533402 244.656793 
L 382.894766 244.78027 
L 382.844173 244.499919 
L 382.760051 244.823337 
L 382.868803 244.446389 
L 382.795107 244.615931 
L 382.568641 244.432244 
L 382.299381 244.59617 
L 382.395618 244.437128 
L 382.851934 244.398435 
L 382.785739 244.559837 
L 382.543262 244.50346 
L 382.235548 244.948831 
L 382.587257 244.491342 
L 382.191239 244.321042 
L 382.407135 244.225182 
L 382.554341 244.466534 
L 382.735563 244.461132 
L 382.80512 244.284931 
L 382.635381 244.335631 
L 382.213394 244.215485 
L 382.758895 244.314487 
L 382.637067 244.325938 
L 382.421393 244.085057 
L 382.591443 244.60823 
L 382.250444 244.758758 
L 382.022027 244.3859 
L 382.339195 244.867627 
L 382.173979 244.546 
L 381.850981 244.601249 
L 382.112391 244.474326 
L 382.065296 244.346849 
L 382.497827 244.331507 
L 382.363694 244.298142 
L 382.082917 244.761776 
L 382.18557 244.6337 
L 382.377151 244.581916 
L 382.484492 244.436245 
L 382.368703 244.475039 
L 382.139806 244.433452 
L 382.475315 244.482016 
L 382.252414 244.316622 
L 382.410291 244.738944 
L 382.517711 244.613494 
L 382.610825 244.895736 
L 382.314459 244.83665 
L 382.435095 244.810658 
L 382.534465 244.447424 
L 382.412219 244.70061 
L 382.303538 244.536411 
L 382.531501 245.003721 
L 382.483526 244.808319 
L 382.398948 245.051835 
L 382.092821 245.238079 
L 381.921277 245.108816 
L 382.314374 244.861269 
L 381.670639 245.295326 
L 381.748044 245.203497 
L 381.786542 244.971156 
L 381.842382 245.068832 
L 382.001059 245.227693 
L 382.309997 245.128039 
L 382.059565 245.065723 
L 381.895192 245.394923 
L 382.227326 244.883383 
L 382.229235 245.018412 
L 381.782233 245.03406 
M 382.49112 245.502221 
L 382.126012 245.224079 
L 381.806433 245.217228 
L 382.195697 245.486292 
L 382.017642 245.335509 
L 381.935733 245.097379 
L 381.892909 245.27564 
M 382.098644 245.513652 
L 382.194142 245.410327 
L 381.998184 245.345348 
L 382.444052 245.386409 
L 382.057822 245.314889 
L 382.395107 245.174026 
L 382.472614 245.275359 
L 382.275169 245.04689 
L 382.207168 245.101892 
L 382.734814 244.992093 
L 382.447993 245.337809 
L 382.569013 244.993687 
L 382.276865 244.762896 
L 382.576165 244.982165 
M 382.71484 245.691598 
L 382.467093 245.169406 
L 383.196983 244.930894 
L 382.74434 244.651317 
L 383.081487 244.922027 
L 383.204916 244.71952 
L 383.037374 244.557444 
L 383.005213 244.96539 
L 382.875663 244.748168 
L 383.055799 244.557531 
L 383.315954 244.945594 
L 383.219981 244.984862 
L 383.594569 244.520933 
L 383.925764 244.693369 
L 383.595359 244.586674 
L 383.665862 244.207592 
L 383.22579 244.805165 
L 383.359417 244.955548 
L 383.147558 244.704051 
L 382.961477 245.131242 
L 382.961477 245.131242 
" clip-path="url(#pcf556bc772)" style="fill: none; stroke: #1f77b4; stroke-linecap: round"/>
   </g>
   <g id="line2d_20">
    <path d="M 382.373091 80.258746 
L 381.966023 80.261504 
L 382.057305 80.333598 
L 382.233769 80.40856 
L 382.136933 80.380604 
L 381.964443 80.56519 
L 382.051902 80.331731 
L 381.87034 80.114865 
L 382.159623 79.507941 
L 382.07571 79.679613 
L 382.386767 79.892817 
L 383.057502 79.955691 
L 382.733202 79.873913 
L 382.125617 80.331632 
L 381.406246 81.041571 
L 381.682752 81.424665 
L 381.096384 81.215267 
L 381.027269 80.589666 
L 381.188854 80.668388 
L 380.924122 80.13371 
L 381.458011 80.345916 
L 381.532584 80.763045 
L 381.343353 79.953876 
L 380.899021 79.745741 
L 380.438223 79.696117 
L 380.668566 79.733768 
L 380.934634 79.895312 
L 381.098753 80.618001 
L 381.091604 79.711037 
L 381.96169 79.817626 
L 382.06613 79.564019 
L 381.367982 79.995423 
L 381.442503 80.25994 
L 381.196753 79.694539 
L 381.560207 79.637535 
L 381.620741 79.868034 
L 381.649146 79.713431 
L 381.228068 79.737571 
L 381.077949 79.606585 
L 381.1128 79.668185 
L 381.406807 79.479208 
L 381.398351 79.158351 
L 380.806684 79.298892 
L 381.592429 78.924514 
L 381.252996 78.680994 
L 380.582475 79.346319 
L 381.465594 79.401049 
L 381.21083 78.755375 
L 381.200567 79.481413 
L 381.161552 78.796906 
L 381.669308 79.281784 
L 380.912159 79.066847 
L 380.972622 78.555547 
L 380.947301 79.563229 
L 380.959319 79.152861 
L 380.671403 79.470707 
L 381.230234 79.150268 
L 381.542747 78.488595 
L 381.793032 78.344633 
L 380.945313 78.917645 
L 381.026232 79.407971 
L 381.260688 79.509595 
L 381.711133 79.367489 
L 381.81605 79.119744 
L 382.274364 79.024359 
L 382.221488 79.372536 
L 381.692723 79.730774 
L 381.992534 79.73236 
L 382.242319 79.976041 
L 382.423649 79.67253 
L 382.074844 79.74977 
L 381.801607 80.068103 
L 381.995592 80.190032 
L 381.439201 80.221887 
L 381.767865 80.194805 
L 381.585994 79.872457 
L 381.386681 79.994756 
L 381.686263 79.892855 
L 381.664266 80.863455 
L 381.625842 80.601291 
L 381.282464 80.619977 
L 381.133041 80.506509 
L 380.969315 80.139921 
L 381.349258 79.476817 
L 381.102817 79.878857 
L 381.170003 80.110879 
L 381.003109 79.602524 
L 381.370184 79.531028 
L 381.446765 79.8871 
L 381.490625 79.729406 
L 381.701971 79.602074 
L 381.29678 79.544649 
L 380.869449 79.912758 
L 381.061501 79.919482 
L 380.326774 80.133272 
L 380.405892 79.95555 
L 380.367204 79.423504 
L 380.125713 79.012572 
L 380.337809 79.137279 
L 380.296492 79.604617 
L 379.889457 79.607075 
L 379.630642 79.92067 
L 379.852776 79.272591 
L 380.306275 79.508962 
L 379.998762 79.699378 
L 379.902882 79.351735 
L 380.941196 78.846589 
L 380.407772 79.081268 
L 380.469354 79.434232 
L 379.906683 79.162031 
L 379.881608 79.351178 
L 379.973026 79.561626 
L 379.693618 79.404186 
L 380.001886 79.465836 
L 379.439335 79.82198 
L 378.955912 79.652365 
L 378.658266 79.756549 
L 378.598131 79.540793 
L 378.954463 80.093865 
L 378.901126 79.871982 
L 379.398517 79.255542 
L 378.626772 80.447791 
L 378.446194 80.072418 
L 378.705802 80.272197 
L 379.014361 79.737916 
L 379.100605 79.937237 
L 379.581074 79.693561 
L 379.903237 80.032552 
L 379.769869 79.865383 
L 379.733184 79.393582 
L 380.240943 79.033989 
L 380.582898 79.329181 
L 379.905143 78.803702 
L 380.088127 78.649023 
L 379.748388 78.647593 
L 379.715405 78.588144 
L 380.017149 79.183579 
L 379.799476 79.554443 
L 379.991902 79.719863 
L 380.04318 79.937924 
L 379.684543 80.223771 
L 380.062145 79.93028 
L 380.34008 79.959352 
L 380.317679 79.78888 
L 380.863754 79.661239 
L 381.671569 79.645949 
L 381.294718 79.94102 
L 381.394282 79.788043 
L 381.837723 79.772382 
L 381.25345 79.863322 
L 381.703979 79.797123 
L 381.460065 79.974938 
L 381.200073 80.323275 
L 381.279095 80.600374 
L 381.560293 80.502912 
L 381.58378 80.158349 
L 381.799872 79.294213 
L 381.419234 79.454582 
L 380.978081 79.36573 
L 381.151764 79.868292 
L 381.142828 79.570564 
L 381.490617 79.596763 
L 381.640261 79.362137 
L 381.19701 79.997916 
L 381.444002 79.602567 
L 381.250577 79.640195 
L 381.316133 79.899146 
L 381.206666 80.001516 
L 381.012362 79.881316 
L 380.963062 80.130868 
L 380.964817 79.638185 
L 380.864744 79.773194 
L 380.259935 79.473289 
L 380.359586 79.415856 
L 380.853589 79.618552 
L 381.06493 79.858171 
L 381.0474 79.804974 
L 381.300231 79.949188 
L 381.265058 79.94689 
L 381.638857 80.353674 
L 381.572587 80.698913 
L 381.226263 80.694668 
L 381.280434 80.930391 
L 381.341948 80.705606 
L 380.602528 80.248675 
L 380.303368 80.841286 
L 381.040263 80.252135 
L 380.975665 80.213077 
L 380.97292 80.752386 
L 380.764945 80.773215 
L 380.694944 80.149217 
L 380.744051 80.231315 
L 380.597241 79.971588 
L 380.583049 80.096864 
L 381.321598 80.131785 
L 381.280181 80.01458 
L 380.99303 79.865433 
L 380.860196 80.462892 
L 380.97018 80.207248 
L 380.711945 79.992168 
L 380.881799 80.311544 
L 380.541021 80.342557 
L 380.804124 80.331482 
L 381.06676 79.751588 
L 380.759894 80.417517 
L 380.270851 80.423635 
L 380.334013 80.350978 
L 380.060416 80.194798 
L 380.409828 80.338362 
L 380.050244 79.965141 
L 380.511925 80.197305 
L 380.682735 80.532232 
L 380.584297 80.253816 
L 380.720246 80.046814 
L 381.141148 80.303074 
L 381.271871 80.594278 
L 381.366049 80.372345 
L 381.582798 80.483691 
L 381.669399 80.186864 
L 380.934264 79.822736 
L 380.770415 79.887928 
L 381.264357 80.289887 
L 381.290303 80.123888 
L 381.505936 79.99103 
L 381.03086 80.182482 
L 381.334415 79.989984 
L 381.274941 79.870609 
L 380.905144 79.708797 
L 380.707653 79.757122 
L 379.991592 79.447633 
L 380.004089 79.245049 
L 380.812865 79.905647 
L 380.244459 79.759968 
L 379.823685 79.277323 
L 380.464746 79.068007 
L 380.828318 79.273576 
L 380.377498 79.302004 
L 380.852382 78.926253 
L 380.876342 79.387992 
L 380.572878 79.326158 
L 380.408877 79.086596 
L 380.086078 79.35057 
L 380.390191 79.647369 
L 380.283985 79.589244 
L 381.324891 79.28552 
L 381.237817 79.550896 
L 381.36252 79.016423 
L 381.789291 79.202985 
L 381.694106 79.693299 
L 381.107793 79.103504 
L 380.854126 79.950893 
L 381.192859 80.031458 
L 380.939341 79.74655 
L 381.479253 79.466787 
L 381.05791 80.019599 
L 381.032825 80.438152 
L 380.753791 80.773783 
L 380.383422 80.58014 
L 380.203498 80.728905 
L 380.69394 80.320805 
L 381.162078 79.577045 
L 380.891363 80.893693 
L 380.92746 81.118413 
L 381.24104 81.222663 
L 380.684897 80.929311 
L 380.733758 80.775085 
L 380.465118 80.598987 
L 380.479255 80.283481 
L 380.082257 80.511786 
L 380.562737 79.740234 
L 381.026192 80.0007 
L 380.855029 80.447621 
L 380.705367 80.135176 
L 380.176591 80.601413 
L 380.300685 80.362306 
L 380.758421 79.843407 
L 380.688837 80.028485 
L 380.376619 79.598789 
L 380.172073 79.61065 
L 380.45337 79.981261 
L 379.914651 80.19498 
L 380.299639 80.657016 
L 380.548195 79.94748 
L 380.183885 79.223449 
L 380.373668 79.471911 
L 380.630684 79.060871 
L 380.360571 79.045874 
L 380.567024 78.687029 
L 380.106879 78.645683 
L 380.648521 78.702217 
L 380.563756 78.835548 
L 380.44399 78.485522 
L 379.954366 78.254076 
L 380.352363 79.460131 
L 379.792472 79.479748 
L 380.073469 79.443923 
L 379.778194 79.109438 
L 379.904032 78.652492 
L 379.856057 78.980123 
L 380.284255 78.943427 
L 380.377458 79.07818 
L 379.967607 78.713748 
L 379.828538 79.059685 
L 380.358956 79.201788 
L 380.519147 78.948398 
L 380.410262 78.435563 
L 380.215653 78.337051 
L 380.089639 78.12 
L 380.475407 78.163915 
L 380.371315 78.149153 
L 380.764245 78.473414 
L 380.419076 78.834209 
L 380.802462 78.213817 
L 380.635045 78.627806 
L 380.913268 78.317836 
L 380.908632 78.773916 
L 380.918325 78.624947 
L 381.481053 78.946494 
L 380.9821 79.299443 
L 380.834765 80.009796 
L 380.963673 79.500072 
L 380.518313 79.503667 
L 380.413659 79.23285 
L 380.89482 79.549986 
L 379.87664 80.257318 
L 380.359361 79.6564 
L 380.261255 79.7641 
L 380.504182 79.865799 
L 380.538261 79.623492 
L 380.325119 79.600198 
L 380.62455 79.209871 
L 380.425055 79.450668 
L 380.891717 79.429125 
L 380.713302 79.976093 
L 380.713302 79.976093 
" clip-path="url(#pcf556bc772)" style="fill: none; stroke: #ff7f0e; stroke-linecap: round"/>
   </g>
   <g id="line2d_21">
    <path d="M 273.093933 312.642254 
L 273.108035 312.540408 
L 273.480001 312.495585 
L 273.40751 312.628883 
L 273.829427 313.054653 
L 273.583753 312.682276 
L 273.347937 312.779 
L 273.786651 312.334016 
L 273.538886 312.821307 
L 273.665694 312.276719 
L 273.442768 312.563601 
L 273.76745 312.614222 
L 273.824687 312.945393 
L 273.476091 312.704601 
L 273.718173 313.069719 
L 273.950758 312.580189 
L 273.958851 312.977463 
L 273.407278 312.881513 
L 273.872639 312.525393 
L 273.880772 312.624824 
L 273.757061 312.452568 
L 273.519661 312.819792 
M 273.784539 312.926498 
L 273.460851 312.908326 
L 273.617859 312.108393 
L 273.652835 312.34168 
L 273.88198 312.233968 
L 273.517508 311.680493 
M 273.678757 312.367915 
L 273.632536 311.896674 
L 273.389749 312.356165 
L 273.567422 312.266435 
L 273.488161 312.181292 
L 273.538886 312.391338 
L 273.587732 312.534702 
L 273.278387 312.49415 
L 273.273098 312.558176 
L 273.090211 312.712827 
L 273.217193 313.178379 
L 273.86879 312.459135 
L 273.582152 312.156119 
L 273.477869 312.390813 
L 273.584593 312.588499 
L 273.69441 312.169044 
L 273.16977 312.342567 
L 273.030425 312.604133 
L 273.368111 312.404008 
L 273.143021 312.526195 
L 273.257119 312.632249 
L 273.540976 313.334943 
L 273.563381 312.889785 
L 273.811364 312.691528 
L 273.739679 312.876691 
L 273.222656 312.65011 
L 273.551441 312.849897 
L 273.013383 313.403746 
L 273.572234 313.083483 
L 273.714746 313.19614 
L 273.293163 313.176235 
L 273.588699 313.082707 
L 273.679652 313.324541 
L 273.474703 313.1584 
L 273.756267 313.294239 
L 273.393299 312.648225 
L 273.243855 313.028629 
L 273.434571 313.192981 
L 273.396499 312.692863 
L 273.125574 312.886785 
L 273.752578 313.349362 
L 273.674796 313.050481 
L 273.256755 312.879666 
L 273.620972 313.044239 
L 273.489578 312.589335 
L 273.338904 312.917883 
L 273.645471 312.640537 
L 273.59154 312.785683 
L 273.391782 312.269516 
L 273.49647 312.746629 
L 273.55509 313.01593 
L 273.570871 312.648761 
L 273.988045 312.857138 
L 273.76659 312.62002 
L 273.775689 312.72882 
L 273.770483 312.819192 
L 273.690683 312.18752 
L 273.795689 313.589614 
L 273.79215 312.756362 
L 273.393264 312.495457 
L 273.417641 312.829281 
L 273.983312 312.37157 
L 274.137317 312.771455 
L 274.274972 312.609816 
L 274.074591 312.081159 
L 274.374245 312.503075 
L 274.147391 312.483709 
L 274.092371 311.918536 
L 273.658455 311.602076 
L 273.59763 311.962296 
L 273.664655 311.844167 
L 274.507801 311.894397 
L 274.21659 312.422298 
L 273.708076 312.713879 
L 273.634635 313.184034 
L 273.854275 312.961909 
M 273.92419 313.170595 
L 273.937014 313.837319 
M 274.025957 312.777589 
L 273.677484 312.951635 
L 274.192414 312.827416 
M 273.691181 313.00614 
L 273.489052 313.017719 
L 274.056113 312.563374 
L 273.859386 313.086847 
L 274.545456 312.73873 
M 274.552586 313.09583 
L 273.847619 313.049659 
L 274.086652 312.648599 
L 273.698491 312.82351 
L 274.001183 313.038826 
L 273.921289 313.211092 
L 274.249936 313.21709 
L 273.551448 313.025623 
L 274.095957 313.079817 
L 273.549228 312.722631 
L 273.825934 312.776676 
L 273.878071 312.224495 
L 273.761849 312.329813 
L 273.349987 312.732668 
L 273.87445 312.781838 
L 274.438298 312.677322 
L 273.599996 313.025926 
L 274.261738 313.12246 
L 273.981992 313.009293 
L 273.948641 312.929181 
M 273.468046 312.325552 
L 274.299051 312.50299 
M 273.641063 313.031995 
L 273.840348 312.873249 
L 274.114328 312.986473 
L 274.640444 312.421459 
L 273.777824 312.1356 
L 273.929056 312.608011 
L 273.995179 312.424593 
L 273.720442 312.571639 
L 273.759357 312.491465 
L 273.850115 312.220753 
M 273.309746 312.421361 
L 273.849266 312.231431 
L 273.584664 312.442901 
L 274.032158 312.74783 
M 273.766153 312.653704 
L 273.91522 312.517588 
L 273.658667 312.876069 
L 273.678269 312.284804 
M 273.945568 313.078458 
L 273.440608 312.786661 
M 272.806047 313.022075 
L 273.567917 312.232291 
L 274.011454 312.484033 
M 273.858932 312.883889 
L 273.719538 312.793359 
L 274.750689 312.936321 
L 273.988927 312.767017 
L 273.873188 312.952232 
M 273.996653 312.885883 
L 273.954295 312.48003 
M 273.594565 313.596797 
" clip-path="url(#pcf556bc772)" style="fill: none; stroke: #2ca02c; stroke-linecap: round"/>
   </g>
   <g id="line2d_22">
    <path d="M 373.350983 293.995558 
L 373.42434 294.018317 
L 373.793616 293.902524 
L 373.87178 294.14242 
L 374.173803 294.14488 
L 374.119493 294.46696 
L 374.234032 294.254217 
L 373.95095 294.320374 
L 374.16238 294.266485 
L 374.024611 294.082546 
L 374.406758 294.329205 
L 373.989673 294.639185 
M 374.175651 294.394246 
L 373.912668 294.296662 
L 373.497408 294.273178 
L 373.569498 294.159263 
L 373.875107 294.275704 
L 374.085978 294.098503 
L 373.931017 293.882261 
L 373.894894 294.25881 
M 374.665991 294.548716 
L 373.876947 294.760238 
L 373.94743 294.903361 
L 374.42295 294.31053 
L 374.960136 294.196715 
L 374.269203 293.517843 
L 373.921219 294.407833 
L 373.921079 294.314113 
L 374.163056 294.351164 
L 373.996562 294.06929 
L 374.141025 294.23135 
L 374.141551 294.076538 
L 374.404206 293.866211 
L 374.596322 294.019034 
L 373.869329 294.401855 
L 373.809202 294.307351 
L 373.5882 294.816918 
L 373.500027 294.688604 
L 374.011649 294.573212 
L 374.074219 294.907856 
L 374.423516 294.994484 
L 374.419236 294.493331 
L 374.233627 294.572892 
L 373.93036 294.322407 
L 374.27471 294.178178 
L 374.592368 294.442003 
M 374.41297 294.887966 
L 374.41547 294.77272 
L 374.488691 295.122118 
L 374.220917 294.547921 
L 374.401003 294.24033 
L 374.655061 294.018818 
L 374.776397 294.59753 
L 374.485461 294.392367 
L 373.89495 294.674288 
M 374.510056 294.96481 
L 374.252157 295.064877 
L 374.919155 295.121414 
L 374.852923 294.968202 
L 374.555265 294.565052 
L 374.827425 294.834984 
M 374.729509 294.630862 
L 374.063318 294.152667 
L 373.949168 294.361733 
L 374.536105 295.046756 
M 374.267078 294.674256 
L 374.385788 294.559445 
L 374.152797 294.381191 
L 374.051815 294.585304 
L 374.050978 294.050432 
L 373.739271 294.060129 
L 374.211377 294.359427 
L 373.877398 293.961389 
L 373.941806 293.657262 
L 373.823201 293.839275 
L 373.634482 294.222312 
L 373.353302 293.856703 
L 373.426908 294.110334 
L 374.040993 294.3589 
L 373.820782 293.807768 
L 374.117067 294.028539 
L 374.153854 293.725393 
L 373.760762 293.953208 
L 374.866444 294.089 
L 374.810394 293.31991 
L 375.332644 292.785198 
L 375.329224 293.687874 
L 374.547461 293.512697 
L 375.003406 293.921642 
L 374.952474 293.473258 
L 374.792246 293.650969 
L 375.228685 293.489383 
L 374.75605 293.527972 
L 374.538376 294.101102 
L 374.696562 293.845722 
L 375.544609 294.340762 
L 375.396442 293.980575 
L 374.826836 293.743116 
L 375.48984 293.848769 
L 375.48822 293.738766 
L 375.859087 293.333586 
L 376.000742 293.490098 
L 375.698282 293.068483 
L 375.443736 293.649348 
L 375.373027 293.34073 
L 375.440402 293.518455 
L 375.66374 293.321396 
L 375.440217 293.329587 
L 375.831868 293.309461 
L 375.796022 293.297335 
L 375.505404 293.171867 
L 375.678335 293.492855 
L 375.998758 293.655534 
M 375.775582 293.071235 
L 375.843198 293.095315 
L 375.894635 293.480616 
L 375.300252 293.97387 
L 375.216889 293.738501 
L 375.58699 293.295055 
L 375.343463 293.750597 
L 374.07039 293.396515 
L 373.77468 293.940385 
M 374.038007 294.552828 
L 374.070351 294.16227 
L 375.180599 294.240949 
L 375.055534 294.098758 
L 375.04852 293.841487 
M 375.224536 294.356986 
L 374.28194 293.567518 
L 373.667419 293.980207 
L 373.929829 293.597996 
M 373.935454 292.93613 
L 374.290942 293.288727 
L 375.142497 293.587198 
L 374.866352 293.896827 
L 374.936936 293.915914 
L 375.025378 294.125939 
L 374.304012 293.741267 
L 375.184438 294.031343 
L 375.346477 294.314692 
L 375.661648 294.097112 
L 375.226164 294.286401 
L 375.506113 294.029158 
L 375.983297 293.834552 
L 375.576175 294.104289 
L 375.195751 293.885332 
L 375.577525 294.056279 
L 375.419548 293.599093 
L 375.804816 293.470083 
L 375.491629 293.703585 
L 375.210642 294.256947 
L 375.176878 294.078253 
L 374.935484 293.482722 
L 375.490786 293.691247 
L 375.01192 293.931882 
L 374.375849 293.640676 
L 374.509411 293.370077 
L 373.82299 293.595395 
L 374.455326 293.92861 
L 374.297246 294.008844 
L 374.445225 294.394276 
M 374.675241 293.364381 
L 375.248403 293.623368 
L 374.088853 293.910019 
L 375.312616 293.590563 
L 375.538771 293.887224 
M 374.252402 294.054991 
L 373.925456 293.50611 
M 374.84411 294.121147 
L 373.761356 294.139703 
L 374.217962 294.023581 
L 373.447698 293.951878 
M 374.398938 293.994093 
L 374.860379 293.648028 
L 373.758102 293.262087 
L 374.792318 293.412433 
M 374.727394 293.350036 
L 375.280321 294.075039 
L 374.619056 293.861028 
M 374.712181 294.141368 
L 374.573769 293.602387 
M 374.769156 293.864839 
L 374.519791 294.120818 
L 374.972169 294.375222 
L 375.087658 294.291831 
L 374.871051 294.012472 
M 374.56292 293.948634 
L 373.846 294.031353 
L 374.962619 293.413398 
L 374.123274 293.542306 
L 373.937838 293.96758 
L 373.187872 293.656565 
L 374.729835 293.222291 
L 373.404798 293.321191 
L 373.582322 293.195669 
L 373.176092 293.265031 
L 373.649596 293.271243 
L 373.317113 293.008006 
L 371.951571 292.458191 
L 373.218097 292.360473 
M 375.044869 292.555036 
L 375.269189 292.601467 
M 374.634881 292.711306 
L 375.143998 292.722552 
L 375.415341 293.071245 
M 375.674704 293.494711 
L 375.011319 293.791669 
L 374.981676 293.108069 
M 373.454103 293.028178 
L 375.170282 293.232187 
L 375.117162 292.857569 
L 374.742776 292.703575 
M 375.389811 293.088173 
L 373.681058 293.129295 
M 375.238038 293.276282 
L 374.462308 293.024978 
L 375.284348 293.81751 
L 375.557822 293.024904 
L 376.1072 292.351055 
L 375.44814 292.649439 
L 375.358483 293.48261 
L 375.454466 293.293238 
L 375.684564 293.892067 
L 375.771206 292.953022 
M 375.793548 292.661441 
L 376.587909 292.607105 
L 375.979794 292.550545 
L 376.039454 291.982993 
L 376.135113 292.326695 
L 376.447739 292.711743 
M 377.133098 292.238717 
L 376.682869 292.010759 
L 377.361648 292.079852 
L 377.888478 292.454216 
M 377.560157 292.170975 
L 377.447741 291.815579 
M 376.993843 292.206613 
L 377.24811 292.429592 
M 376.47445 291.911002 
L 376.187213 292.246511 
L 376.475801 292.415909 
L 376.913778 292.251814 
M 376.529602 293.225728 
L 377.012991 293.446418 
L 377.012991 293.446418 
" clip-path="url(#pcf556bc772)" style="fill: none; stroke: #d62728; stroke-linecap: round"/>
   </g>
   <g id="line2d_23">
    <path d="M 247.660538 302.12828 
L 247.90228 302.178182 
L 247.982557 301.700813 
L 248.045776 301.969312 
L 247.766916 301.67719 
L 247.445729 301.956609 
L 247.424192 301.753351 
L 247.459769 301.839553 
L 247.694254 301.590061 
L 247.384905 301.710891 
L 247.582758 301.797103 
L 247.338267 301.898159 
L 247.42598 301.519985 
L 247.396619 301.721875 
L 247.519273 301.874881 
L 247.097299 301.732486 
L 247.433779 301.619587 
L 247.198153 301.497546 
L 247.313588 301.448954 
L 247.234929 301.407833 
L 247.244027 301.194893 
L 247.698142 301.293566 
L 247.769424 301.622335 
L 247.760703 301.480549 
L 247.611213 301.738536 
L 247.910828 301.349064 
L 247.974308 301.58078 
L 247.534403 301.322838 
L 247.604294 301.068684 
L 247.954752 301.087367 
M 248.127383 301.080899 
L 247.822516 300.847679 
L 247.883259 301.273007 
L 247.886401 301.226262 
L 247.651907 301.199561 
L 247.471312 301.418415 
L 247.681401 301.387497 
L 247.785022 301.223996 
L 247.694307 301.184858 
L 247.532258 301.234636 
L 247.400739 301.062095 
L 247.434572 301.119821 
L 247.542763 300.997948 
L 247.64691 301.224284 
L 247.527743 301.260089 
L 247.307905 301.077745 
L 247.674067 301.487912 
L 247.497432 301.318707 
L 247.774351 301.626442 
L 247.979305 301.270926 
L 247.897795 301.184128 
L 247.610933 301.385347 
L 247.455221 301.124717 
L 247.629767 301.107402 
L 247.59588 301.43243 
L 247.792495 301.30874 
L 247.834581 301.580637 
L 247.568081 301.786326 
L 247.868701 301.463496 
L 247.915719 301.766957 
L 248.011412 301.738569 
L 247.749189 301.871567 
L 248.04896 301.96148 
L 247.854193 302.121003 
L 247.502856 301.936296 
L 247.537029 301.675792 
L 247.679179 301.248864 
L 247.956514 301.510236 
L 247.888274 301.599513 
L 247.401124 301.396515 
L 247.550293 301.656329 
L 247.688012 301.625902 
L 247.608093 301.822956 
L 247.404576 301.483 
L 247.521218 301.373066 
L 247.544025 301.472863 
L 247.805504 301.751051 
L 248.250332 301.467829 
L 248.32347 301.839646 
L 248.732064 302.203551 
L 248.340602 301.58831 
L 248.325 301.727485 
L 248.530609 301.506842 
L 248.106712 301.130247 
L 247.773771 301.315358 
L 247.79406 301.687517 
L 247.692735 301.602596 
L 247.894049 301.7029 
L 248.05483 301.512537 
L 248.135442 301.095588 
L 247.94857 301.160332 
L 248.19591 301.381705 
L 248.022037 301.38819 
L 247.584705 301.228454 
L 248.149896 301.237098 
L 248.075155 301.544228 
L 247.804144 301.595835 
L 248.141123 301.611309 
L 248.093831 301.460818 
L 247.86051 301.423372 
L 248.046615 301.24754 
L 248.111192 301.566528 
L 248.068755 301.342698 
L 248.801398 301.819038 
L 248.145237 301.514295 
L 247.961034 301.421711 
L 248.127092 301.705423 
L 248.743817 301.928352 
L 248.121624 301.812798 
L 247.966322 302.075476 
L 248.155701 301.938749 
L 248.405559 302.083167 
L 248.146724 301.775447 
L 247.956835 301.784051 
L 247.658868 302.135765 
L 247.748401 302.314808 
L 247.990549 302.240652 
L 247.88433 301.808021 
L 247.977801 301.645316 
L 248.062401 302.039692 
L 247.87742 301.857115 
L 248.2086 302.114005 
L 248.06599 302.208751 
M 248.280391 301.828643 
L 248.315507 302.032862 
L 248.446397 301.83336 
L 248.181305 302.060749 
L 248.379078 302.157146 
L 248.416215 302.07761 
L 248.469446 301.972777 
L 248.354464 302.066161 
L 247.955667 302.313845 
L 248.340351 302.209641 
L 248.422113 301.901283 
L 248.016138 301.843589 
L 248.11687 301.753917 
L 247.929275 301.947003 
L 247.92355 301.646444 
L 248.084226 301.608775 
L 248.022361 301.850267 
L 248.170194 302.124748 
L 247.619826 302.058503 
L 247.683014 302.135021 
L 247.577545 301.926863 
L 247.906661 302.129317 
L 247.705749 301.992545 
L 247.851832 301.952842 
L 247.420437 301.947603 
L 247.450465 301.860693 
L 247.795381 301.634529 
L 247.798564 301.695524 
L 247.817313 301.806127 
L 247.728598 301.72922 
L 248.286122 301.703052 
L 248.124185 301.906204 
L 248.17387 301.540453 
L 247.933602 301.552826 
L 247.896312 302.104749 
L 247.980063 302.306529 
L 247.787308 301.886794 
L 248.036363 302.111664 
L 248.086865 301.927907 
L 247.906999 301.848936 
L 247.819926 302.1533 
L 248.087116 301.39048 
L 248.108564 301.576191 
L 248.194315 301.535947 
L 247.9616 301.658271 
L 247.710693 301.429062 
L 247.801824 301.812213 
L 247.849177 301.769798 
L 247.917501 301.896877 
L 247.814741 301.8534 
L 247.762755 301.95687 
L 247.870721 301.779893 
L 247.71142 301.861045 
L 247.400647 301.801466 
L 247.721253 301.78437 
L 247.873299 301.766192 
L 247.531693 301.788941 
L 247.784548 301.801878 
L 247.864048 302.04294 
L 248.225886 302.176769 
L 247.90071 301.957169 
L 247.781206 302.217452 
L 247.976685 302.028173 
L 247.681666 301.948744 
L 247.727194 301.979013 
M 247.719625 302.038133 
L 247.711336 302.111663 
L 247.723019 302.039675 
L 247.91668 302.463765 
M 247.629831 302.40357 
L 248.189972 302.844417 
L 248.063485 302.978975 
L 247.858938 302.656803 
L 247.938834 302.651692 
L 247.976498 302.493102 
L 248.166611 302.758494 
L 247.824305 302.643165 
L 247.972511 302.592519 
L 247.77437 302.806869 
L 247.603094 302.515448 
L 247.491145 302.587757 
L 247.832002 303.033666 
L 247.717048 302.769248 
L 247.623626 303.192391 
L 247.701761 302.937685 
L 247.907145 302.951682 
L 247.829955 302.99245 
L 248.230618 302.899998 
L 247.884215 302.81108 
L 248.25709 302.943383 
L 247.961214 302.648272 
L 248.42839 302.97175 
L 248.335417 302.990544 
L 248.373051 303.437641 
L 248.282189 303.008756 
L 248.199813 302.911143 
L 248.497459 302.621058 
L 248.781412 303.035305 
L 248.431853 303.264151 
L 248.504777 303.372156 
L 248.409437 303.134284 
L 248.307421 303.34228 
L 248.079217 303.27411 
L 247.942932 302.868455 
L 248.115098 302.826486 
L 248.018771 302.859221 
L 247.978172 302.997548 
L 248.336154 302.910649 
L 247.997351 303.099771 
L 248.165086 302.776665 
L 248.055278 303.174906 
L 248.015012 303.414245 
L 248.271662 303.205708 
L 248.271123 303.287269 
L 248.167761 303.119198 
L 248.18615 303.413341 
L 248.323182 303.413399 
L 248.243575 303.422805 
L 248.184719 303.291323 
L 248.208935 303.483921 
L 248.711721 303.436578 
L 248.29021 303.35139 
L 248.381262 303.574246 
L 248.227675 303.353328 
L 248.678996 303.649228 
L 248.273296 303.706901 
L 248.955588 303.994131 
L 248.77612 304.171347 
L 249.060873 303.872351 
L 248.945864 303.975989 
L 249.257913 303.932715 
L 249.084268 303.649877 
L 249.186219 303.496877 
L 249.118521 303.236172 
L 249.193842 303.501782 
L 249.088202 303.319152 
L 249.365131 303.200216 
L 249.365724 303.366015 
L 249.207312 303.309431 
L 249.281497 303.096236 
L 249.30169 303.836186 
L 249.241102 303.313881 
L 249.443018 303.410028 
L 249.346292 303.316641 
L 248.955389 303.401184 
L 249.136762 303.424393 
L 249.233948 303.506762 
L 249.202264 303.391715 
L 249.043381 303.533919 
L 249.290105 303.259239 
L 249.217084 303.656621 
L 249.32065 303.712785 
L 249.041262 303.739122 
L 248.963308 303.633838 
L 249.236166 303.378356 
L 249.077377 303.307129 
L 249.188348 303.083897 
L 248.870237 303.352416 
L 248.829739 303.173501 
L 249.132029 303.060336 
L 248.910799 303.008794 
L 248.93353 303.407625 
L 248.411156 303.544109 
L 248.794619 303.405867 
L 248.950083 303.06892 
L 248.846159 303.212112 
L 248.702682 302.849574 
L 249.006318 303.107971 
L 249.145656 303.313356 
L 248.916241 303.180412 
L 248.969443 303.514179 
L 249.003995 303.398172 
L 249.167352 303.192082 
L 249.028831 303.435911 
L 249.278525 303.378515 
L 248.878317 303.504539 
L 248.99394 303.488876 
L 248.940919 303.322204 
L 248.938193 303.395694 
" clip-path="url(#pcf556bc772)" style="fill: none; stroke: #9467bd; stroke-linecap: round"/>
   </g>
   <g id="line2d_24">
    <path d="M 263.562414 430.895429 
L 263.543145 430.756659 
L 263.783195 430.92 
L 263.985435 430.516701 
L 263.525141 430.488252 
L 263.62055 430.483286 
L 263.892453 429.679323 
L 263.921939 430.046498 
L 263.954146 429.856357 
L 263.669299 429.609981 
L 263.498778 429.766281 
M 263.610241 430.538263 
L 263.227848 429.847968 
L 263.409486 429.553704 
L 263.515514 430.213997 
L 263.562745 429.830378 
L 263.22631 429.797793 
L 263.81178 429.835222 
L 263.621085 429.544026 
L 263.430471 429.611461 
M 263.30175 429.391395 
L 262.985674 429.495808 
L 262.804406 429.407661 
L 262.90666 429.375848 
L 262.823784 429.655089 
L 262.809329 429.324222 
L 262.847665 429.055641 
L 262.900954 429.620123 
L 262.788573 429.856709 
L 262.949177 429.752193 
L 263.13897 429.980988 
L 263.148453 429.594632 
L 262.751729 429.72551 
L 263.209994 429.782687 
L 263.177505 429.577506 
L 263.318362 429.416237 
L 263.305332 429.983507 
L 263.183628 429.643934 
L 263.096891 429.944565 
L 263.934211 429.659276 
L 263.794802 429.523142 
L 264.136803 429.50236 
L 263.807834 429.635109 
L 263.247452 429.663458 
M 263.227346 429.709771 
L 263.251267 429.706807 
L 263.239851 429.275715 
L 263.949315 429.341861 
L 264.164987 429.172362 
L 263.802998 429.186413 
L 263.995809 428.983222 
L 264.525211 429.331844 
L 264.05507 429.228747 
M 264.196706 429.146429 
L 264.146868 428.457805 
L 264.213831 428.740595 
L 263.892599 428.774017 
L 264.114509 428.869891 
L 264.092454 429.092115 
L 264.139674 428.629142 
L 264.422021 428.629468 
L 264.389931 428.959394 
L 264.489836 428.884696 
L 264.917756 428.678634 
L 264.934839 428.955051 
L 265.195901 429.21803 
L 265.23088 428.830694 
L 265.679357 428.870088 
L 265.410155 428.813221 
L 265.411197 429.190286 
L 265.435555 428.887895 
L 265.260751 429.11669 
L 265.66126 429.195436 
L 265.654182 429.144654 
L 265.760132 428.90801 
L 265.488431 429.079397 
L 265.278471 428.998148 
L 265.550676 429.195376 
L 264.840075 429.36674 
L 265.175147 428.876885 
L 265.504157 429.023186 
L 265.534159 428.821977 
L 265.389982 428.920904 
L 265.407975 428.381792 
L 265.941408 428.664498 
L 265.630877 428.681621 
L 265.642462 428.064917 
L 265.673476 428.075836 
L 265.982684 428.004546 
L 266.388018 428.283276 
L 266.351419 428.720502 
L 266.511009 428.647124 
L 265.882691 428.875826 
L 265.677727 428.619073 
L 265.809235 428.52228 
L 266.024991 428.53976 
L 265.753808 428.565907 
L 265.971244 428.395451 
L 265.439785 428.083224 
L 265.5594 428.269209 
L 265.826734 427.800385 
L 266.12534 427.962794 
L 266.314841 427.803349 
L 266.175992 428.06342 
L 265.827863 428.417181 
L 266.021414 427.694021 
L 266.061946 428.144919 
L 266.230371 428.212205 
L 266.261598 427.857351 
L 265.778303 428.15019 
L 265.654505 428.550247 
L 265.791809 428.381104 
L 265.422451 428.436805 
L 265.561937 428.78901 
L 265.843892 428.567758 
L 265.504183 428.076475 
L 265.883339 428.165781 
L 265.951453 428.510046 
L 265.743864 428.541995 
L 265.534702 428.305648 
L 265.486664 428.432701 
L 265.48523 428.203657 
L 265.06905 428.190075 
L 265.126719 428.20752 
L 265.367779 428.676708 
L 265.24841 428.534447 
L 265.084406 429.005531 
L 265.016142 428.909688 
L 264.85616 429.060164 
L 264.92084 429.220742 
L 264.78801 429.041966 
L 264.662463 429.130608 
L 265.082364 429.281609 
L 265.001908 429.30771 
L 265.319633 428.875923 
L 265.11398 428.32825 
L 264.939996 428.491491 
L 265.080685 428.191635 
L 265.21335 428.35505 
L 265.169694 428.390154 
L 265.221029 428.900622 
L 265.07645 428.723386 
L 265.247265 428.526656 
L 265.389215 428.664607 
L 265.457266 428.994679 
L 265.417085 428.78855 
L 265.261946 428.750281 
L 265.532944 429.042471 
L 265.6319 428.904241 
L 265.660497 429.197749 
L 265.673272 429.0117 
L 265.347815 428.97597 
L 265.520096 429.031099 
L 265.846316 428.82722 
L 265.902875 428.55431 
L 265.456539 428.477371 
L 265.20231 428.257884 
L 265.349938 428.358721 
L 264.819361 429.138884 
L 264.581589 428.968954 
L 264.699771 429.112141 
L 265.06269 428.890243 
L 264.93769 429.31384 
L 264.795436 429.121598 
L 265.025595 429.129184 
L 264.95406 429.092909 
L 265.295235 428.886327 
L 265.198364 429.020726 
L 264.677671 429.084023 
L 264.632228 429.257071 
L 264.682297 428.983295 
L 264.505533 429.059245 
L 264.722389 429.493359 
L 264.427599 429.102815 
L 264.646829 429.799646 
L 264.387224 429.63371 
L 264.023858 429.910873 
L 264.146024 430.025164 
L 264.140969 429.938574 
L 263.780947 429.581135 
L 263.968332 429.297897 
L 264.183319 429.366306 
L 264.335085 429.545307 
L 264.204491 429.950532 
L 263.746475 429.67502 
L 264.113124 429.547872 
L 264.360093 429.718669 
L 264.010563 429.465473 
L 264.018849 429.600566 
L 264.213304 429.426276 
L 264.464723 429.390617 
L 264.410028 429.296605 
L 264.093683 429.216745 
L 264.182554 429.425859 
L 264.321261 429.203595 
L 264.36246 429.242283 
L 264.577335 429.056178 
L 264.984986 429.107958 
L 265.113881 428.895872 
L 264.602517 429.372406 
L 264.76974 429.463683 
L 265.049603 429.253468 
L 265.242921 429.980258 
L 265.104483 429.831864 
L 265.049816 429.686861 
M 265.084975 429.749277 
L 265.100433 429.620391 
L 264.916224 430.027854 
L 265.077707 430.157646 
L 265.075368 429.7833 
L 264.951715 429.789166 
L 265.184086 430.27556 
L 265.269324 429.805326 
L 265.225935 430.021884 
L 265.336949 430.175467 
L 264.789859 429.748142 
L 264.660618 430.415499 
L 264.519952 429.888667 
L 264.584347 429.920358 
L 264.239207 430.329051 
L 264.413183 430.026608 
L 264.490842 429.638301 
L 264.793579 429.353439 
L 264.81014 429.393065 
L 264.735741 429.922841 
L 264.419549 429.876205 
L 264.679579 429.675432 
L 264.499781 429.912309 
L 264.529615 430.078582 
L 264.06753 429.989579 
L 263.828074 430.475925 
L 264.056416 430.448968 
L 263.809224 430.280118 
L 264.041885 429.981256 
L 264.387236 429.701057 
L 264.083066 429.93489 
L 263.962553 429.70327 
L 263.826178 430.006802 
L 263.504752 429.242829 
L 264.021261 429.235167 
L 264.278495 429.601426 
L 263.717128 429.2783 
L 264.171553 429.210171 
L 264.084471 429.314565 
L 263.666782 428.817229 
L 264.004616 428.86428 
L 264.322443 429.025429 
L 264.341535 429.389242 
L 263.928965 429.540357 
L 263.835876 429.783272 
L 264.000994 429.778752 
L 263.84404 429.662418 
L 264.665951 429.358054 
L 264.387923 429.162311 
L 264.120098 429.13762 
L 263.896797 428.787674 
L 264.286856 429.097984 
L 264.262915 429.347021 
L 264.66689 429.448106 
L 264.426077 429.327992 
L 264.204899 428.896112 
L 264.223007 429.759203 
L 263.658355 429.188858 
L 263.496737 429.705478 
M 263.732652 429.633389 
L 263.875435 429.660028 
L 264.169624 430.405852 
L 263.716971 429.732513 
L 263.785458 429.187586 
L 263.850651 429.290763 
L 263.966307 429.408479 
L 264.287932 429.15803 
L 264.292358 429.291067 
L 264.633147 429.210813 
L 264.536906 429.300124 
L 264.373504 429.00743 
L 264.491145 429.000731 
L 264.352777 429.209587 
L 264.696991 429.178467 
L 264.203979 429.390126 
L 264.638107 429.462647 
L 264.843451 429.022167 
L 264.411993 429.283619 
L 264.425781 429.450843 
L 264.994895 429.452098 
L 264.786384 429.381289 
L 264.89487 429.275333 
L 264.732946 429.014989 
L 265.062776 428.994585 
L 264.953277 429.052774 
L 264.986997 429.213128 
L 264.387105 429.611691 
L 264.620411 430.00662 
L 264.282243 429.460145 
L 264.426506 430.342915 
L 264.622845 430.479725 
L 264.543223 430.03182 
L 264.818093 429.955219 
M 264.643021 429.971728 
L 264.699476 429.672191 
L 264.700072 429.704417 
L 264.594625 429.444414 
L 264.379799 429.280916 
L 264.835672 429.533091 
L 264.645189 429.319975 
L 264.611248 429.61937 
L 264.122011 429.724684 
L 264.301462 429.389921 
L 263.739202 429.177491 
L 263.976453 430.325414 
L 263.695475 430.067062 
L 264.144297 430.165157 
L 263.768653 429.702532 
L 263.471701 429.931017 
L 263.965776 429.730337 
L 264.146849 429.41455 
L 263.996383 429.399474 
L 264.028462 429.602823 
L 264.051454 429.227544 
L 264.234625 429.510967 
L 264.234625 429.510967 
" clip-path="url(#pcf556bc772)" style="fill: none; stroke: #8c564b; stroke-linecap: round"/>
   </g>
   <g id="line2d_25">
    <path d="M 132.820374 262.229755 
L 132.750253 262.128188 
L 132.959607 261.941235 
L 132.918765 262.04182 
L 132.674236 261.913572 
L 132.987592 261.816777 
L 132.834873 261.813127 
L 132.975749 261.678681 
L 132.83375 261.734681 
L 132.853846 261.498586 
L 133.260093 261.464731 
L 133.22889 261.411006 
L 132.952003 261.314708 
L 133.055567 261.439812 
L 133.037701 261.585191 
L 133.129108 261.127346 
L 133.393533 261.070287 
L 133.205721 261.355563 
L 133.410479 261.546538 
L 133.246396 261.41217 
L 133.538146 261.427978 
L 133.451035 261.736026 
L 133.46743 261.397421 
L 133.339334 261.14572 
L 133.591579 261.551917 
L 133.329506 261.656202 
L 132.959263 261.496872 
L 132.928679 261.643765 
L 133.206638 261.683776 
L 132.866341 261.607077 
L 133.104152 261.578282 
L 133.157189 261.55823 
L 132.955837 261.616368 
L 132.968576 261.776841 
L 132.971346 261.655183 
L 133.078835 261.519295 
L 132.885756 261.354147 
L 133.103914 261.619176 
L 132.982077 261.326742 
L 133.140376 261.419053 
L 133.302826 261.113312 
L 133.12627 261.091613 
L 133.295004 261.461099 
L 133.142831 261.17674 
L 133.498805 261.579623 
L 133.278226 261.33323 
L 133.290759 261.224285 
L 133.625949 261.328667 
L 133.172799 261.195096 
L 133.197116 261.003672 
L 133.333224 261.070746 
L 133.260004 261.20964 
L 133.417034 261.189974 
L 133.364801 261.123539 
L 133.300982 261.200101 
L 133.42745 260.984291 
L 133.465074 260.780894 
L 133.312301 260.864122 
L 133.435503 260.911021 
L 133.150556 261.130029 
L 133.245133 260.735688 
L 133.429533 260.87985 
L 133.253631 261.106598 
L 133.076489 260.950223 
L 133.202789 261.067009 
L 133.466853 260.856752 
L 133.475762 261.193285 
L 133.639032 261.130377 
L 133.466905 261.253906 
L 133.508993 261.003804 
L 133.69887 261.141905 
L 133.705193 261.116335 
L 133.932264 260.808156 
L 133.836187 260.793513 
L 133.840975 260.655619 
L 134.009022 260.92 
L 133.922189 261.216055 
L 133.708568 261.120561 
L 133.84549 260.88335 
L 133.607886 261.189162 
L 133.383994 260.863006 
L 133.530037 260.651107 
L 133.63377 260.825255 
L 133.500776 261.016379 
L 133.749665 260.791877 
L 133.857485 260.495604 
L 133.54416 260.715053 
L 133.785897 260.715936 
L 133.715778 260.941346 
L 133.872376 260.837704 
L 133.986597 260.915497 
L 134.130805 260.882501 
L 133.432777 260.894253 
L 133.660454 260.864473 
L 133.781962 260.70271 
L 133.994271 260.659646 
L 133.678801 260.659758 
L 133.69026 260.708267 
L 133.518141 260.56188 
L 134.08135 260.38282 
L 133.967534 260.565599 
L 133.881836 260.644302 
L 133.790445 260.520558 
L 134.021152 260.571405 
L 133.616544 260.457317 
L 133.824667 260.611235 
L 133.666831 260.256648 
L 133.45387 260.414168 
L 133.628701 260.570093 
L 133.469582 260.330455 
L 133.497176 261.050106 
L 133.284921 261.027583 
L 133.579288 261.044815 
L 133.847469 260.756226 
L 133.658937 260.917957 
L 133.558742 260.602013 
L 133.796192 260.43072 
L 133.812336 260.570531 
L 133.835077 260.401564 
L 133.907837 260.272518 
L 133.852819 260.33158 
L 134.068341 260.441006 
L 133.753161 260.762353 
L 134.237573 260.664953 
L 134.137141 260.719593 
L 133.754494 260.568908 
L 134.165709 260.376217 
L 134.06372 260.385561 
L 134.13716 260.153573 
L 133.941358 260.906966 
L 133.646797 260.733025 
L 133.912818 260.667703 
L 134.008181 260.77445 
L 133.966382 260.550851 
L 133.680677 260.480694 
L 133.71096 260.70263 
L 133.403599 260.591521 
L 133.824106 260.741947 
L 133.862013 260.623828 
L 133.587087 260.726049 
L 134.209126 260.499875 
L 134.048709 260.561975 
L 133.772358 260.318253 
L 133.441179 260.562751 
L 133.65034 260.48798 
L 133.704904 260.073512 
L 133.703261 260.537367 
L 133.525932 260.544192 
L 133.794107 260.318831 
L 133.985448 260.435834 
L 133.785317 260.303648 
L 133.926506 260.13024 
L 133.939771 260.279346 
L 133.856765 260.461152 
L 133.53095 260.764054 
L 133.719462 260.818068 
L 133.722009 260.767151 
L 133.963034 260.591612 
L 133.516941 260.853003 
L 133.657376 260.830803 
L 133.734504 261.049449 
L 133.750004 260.787797 
L 133.776654 260.765902 
L 133.678192 260.737201 
L 133.503689 260.800781 
L 133.696226 260.793895 
L 133.666492 261.08056 
L 133.664095 261.041245 
L 133.450843 261.066032 
L 133.61401 261.229893 
L 133.698202 260.940335 
L 133.551451 261.096739 
L 133.95004 260.948415 
L 133.735155 260.564828 
L 133.614184 260.334732 
L 133.649164 260.441571 
L 133.433269 260.754386 
L 133.349088 260.583762 
L 133.342033 260.667307 
L 133.631467 260.394767 
L 133.296488 260.281224 
L 133.456044 260.284027 
L 133.251629 260.62021 
L 133.098606 260.530705 
L 133.236895 260.222759 
L 133.48986 260.52955 
L 133.411327 260.797468 
L 133.497388 260.558158 
L 133.65536 260.603037 
L 133.445166 260.609181 
L 133.414813 260.751562 
L 133.533826 260.499124 
L 133.63319 260.453272 
L 133.53772 260.415874 
L 133.30512 260.437211 
L 133.718278 260.504302 
L 133.639017 260.872578 
L 133.489904 260.458154 
L 133.552133 260.251959 
L 133.372442 260.22488 
L 133.514555 260.208378 
L 133.794259 260.470372 
L 133.704677 260.675809 
L 133.528942 260.609142 
L 133.752672 260.770602 
L 133.616888 260.664335 
L 133.583904 260.345871 
L 133.463365 260.697818 
L 133.129373 260.973822 
L 133.178397 260.884821 
L 133.393445 260.894601 
L 133.3218 260.90741 
L 133.365735 260.696268 
L 133.539844 260.915134 
L 133.398584 260.981338 
L 133.461221 260.853605 
L 133.74231 260.612783 
L 133.566229 260.757957 
L 133.695346 260.913101 
L 133.462519 260.779786 
L 133.645738 260.67952 
L 133.654393 261.075964 
L 133.908766 261.124496 
L 133.967669 260.662624 
L 134.135253 260.935288 
L 133.89143 260.656373 
L 133.979543 260.588586 
L 134.170385 260.343857 
L 134.355623 260.496311 
L 134.489897 260.327157 
L 134.433173 260.496337 
L 133.903609 260.538329 
L 133.943955 260.689445 
L 133.848793 260.779603 
L 133.852142 260.960959 
L 134.053394 260.482814 
L 133.958659 259.939749 
L 133.983387 260.152848 
L 133.702221 260.256413 
L 133.853426 260.473751 
L 133.875224 260.177864 
L 133.999107 260.314784 
L 133.815521 260.091273 
L 133.834007 260.59221 
L 133.583669 261.038189 
L 133.7075 260.901245 
L 133.667503 261.0668 
L 133.808312 260.951065 
L 133.867978 260.96419 
L 133.957967 261.186002 
L 134.047579 260.97378 
L 133.848236 260.841793 
L 134.207294 260.87328 
L 133.688423 260.879801 
L 134.077733 260.604975 
L 133.685801 260.791781 
" clip-path="url(#pcf556bc772)" style="fill: none; stroke: #e377c2; stroke-linecap: round"/>
   </g>
   <g id="line2d_26">
    <path d="M 150.545874 362.57755 
L 150.982236 363.099687 
M 151.417565 362.930796 
L 150.914657 362.755402 
L 151.159276 362.751704 
L 150.923346 363.205949 
L 151.281856 362.991569 
L 151.517998 362.410002 
L 151.159254 363.045089 
L 151.162572 362.901746 
L 151.05171 362.526563 
L 150.841673 362.673268 
L 150.506427 363.227133 
L 151.133572 363.251213 
L 151.014474 363.744353 
M 151.869353 363.916182 
L 150.839184 363.602972 
L 151.266257 362.595342 
L 151.49787 363.653556 
L 150.88521 364.059047 
L 151.257426 363.79589 
L 150.625963 363.666344 
L 151.439349 363.389294 
L 151.151275 363.22352 
L 151.721943 363.523011 
M 151.762859 363.905419 
L 152.278404 363.792807 
L 152.476849 363.207541 
L 152.064373 364.229617 
L 152.264973 364.109032 
L 151.817968 364.018042 
L 151.789002 364.155496 
M 151.673525 363.372686 
L 151.294187 363.305242 
L 152.004182 362.639057 
L 151.814311 363.013469 
L 152.325563 363.236075 
M 152.041462 363.417803 
L 151.948238 363.150778 
L 152.308492 364.330815 
L 152.363518 363.933898 
L 152.846663 364.082692 
L 152.543175 363.744849 
L 152.41851 363.329794 
M 152.047158 363.10759 
L 152.229861 363.646751 
M 152.173018 363.10095 
L 151.821966 363.657611 
L 152.097886 363.678738 
L 152.111159 362.731114 
L 152.456449 362.497019 
L 152.532388 362.610336 
L 152.131402 362.876452 
L 152.275442 362.767165 
L 152.250957 363.272939 
L 152.900516 363.324845 
L 152.667362 363.833996 
L 152.270308 363.548963 
L 152.40305 363.163585 
L 151.717334 363.212818 
M 152.785012 363.330624 
L 152.388419 363.811027 
L 151.972991 363.919796 
L 152.580579 363.354884 
L 152.002483 363.466015 
L 151.764849 362.282526 
L 151.408574 362.145276 
L 151.69404 362.400815 
L 152.108487 362.422468 
L 151.473656 363.200557 
L 151.332639 363.300219 
L 151.917127 363.877931 
L 151.676956 363.64457 
M 151.360243 363.079184 
L 150.550514 362.455214 
L 150.815166 362.146152 
L 150.804236 362.926769 
M 151.051756 363.360977 
L 151.300888 363.561227 
L 151.151564 363.976779 
L 151.095982 363.238212 
L 151.270013 363.523069 
L 151.253502 363.793176 
L 151.384844 363.454156 
L 152.084303 363.359494 
L 151.622332 363.175788 
L 151.489649 362.978603 
L 151.72564 362.711922 
L 151.54732 362.969642 
L 151.736715 362.937483 
L 151.056933 363.508319 
L 151.059388 363.043191 
L 151.286189 362.745557 
L 151.566157 362.730945 
L 151.454831 362.523463 
L 150.861214 362.724899 
L 151.978961 362.652811 
L 151.854512 362.57256 
L 151.956042 362.332392 
L 152.172443 362.487144 
L 152.887838 362.049677 
L 152.629041 361.758576 
L 153.053593 362.292518 
M 151.692092 362.829078 
L 151.778604 362.368149 
L 152.245654 362.655328 
M 152.093639 362.203488 
L 151.482055 362.388942 
L 152.105004 362.452154 
L 151.607761 362.93844 
L 151.844636 362.696257 
L 152.530208 362.964747 
L 152.527512 363.407133 
L 152.163323 363.750781 
L 152.541755 363.595231 
L 151.851615 363.783479 
L 152.630524 363.938754 
L 152.718026 363.400081 
L 152.849984 363.672221 
L 153.017911 363.540854 
L 153.073374 364.060186 
L 152.705467 363.410659 
L 151.982662 362.460064 
L 151.819206 363.215059 
L 152.633026 363.121759 
L 152.830073 362.489747 
L 152.782796 362.06495 
L 152.970629 362.449716 
L 152.564188 362.926517 
L 152.804181 362.80657 
M 152.413773 362.556508 
L 152.81005 362.044863 
M 152.482274 363.574351 
L 153.138918 363.478327 
L 152.167985 363.520598 
L 152.096362 363.090315 
L 151.780001 363.06031 
L 151.529978 363.710598 
L 152.039478 363.938512 
L 151.834631 363.376764 
M 151.648749 363.744203 
L 151.688735 363.737083 
L 151.170732 363.595974 
L 151.85626 363.212554 
M 152.336623 362.889301 
L 151.962441 363.086539 
L 152.144545 363.171569 
L 152.364642 362.744229 
L 151.966644 362.849731 
L 152.059592 362.679379 
M 152.358373 363.577049 
L 152.368004 363.420499 
L 152.192042 363.731363 
L 152.536687 363.3039 
M 152.80218 364.202684 
L 152.288603 363.326962 
L 152.028222 363.121458 
L 152.428404 363.485942 
L 151.678237 363.004305 
L 151.834942 363.331494 
L 152.417945 363.85107 
L 152.088655 363.071215 
L 152.367538 363.368158 
L 151.981966 363.257412 
L 151.450495 363.541997 
M 152.276162 363.218521 
L 152.200895 362.279175 
L 152.184639 363.358603 
L 152.139977 362.429925 
L 151.362555 362.305634 
L 152.536042 362.812294 
L 152.423852 362.46644 
L 152.257722 362.96461 
L 151.449826 362.737766 
L 151.756986 362.252188 
L 152.297541 363.075968 
L 152.890955 362.421999 
L 152.108228 362.262824 
L 152.114362 362.494772 
L 153.42181 362.102538 
L 152.747574 362.364333 
L 152.971527 362.65295 
L 152.818127 362.686323 
L 153.437532 362.147674 
L 153.326885 362.265922 
L 152.893518 362.193938 
L 152.584983 362.804438 
L 153.086415 362.595281 
L 153.265263 361.918442 
L 152.863776 361.362277 
L 152.165181 361.853465 
M 152.832507 361.758667 
L 152.836944 361.837864 
L 152.669104 362.138085 
L 153.255739 362.220776 
L 152.877305 362.15623 
L 152.734005 361.364221 
L 152.552757 361.675677 
L 152.437059 362.470851 
M 152.294661 363.378261 
L 152.907296 362.974973 
L 152.235285 362.465056 
M 151.94547 362.606713 
L 151.802256 363.069464 
L 151.947296 362.673437 
L 151.738207 362.388591 
L 151.738207 362.388591 
" clip-path="url(#pcf556bc772)" style="fill: none; stroke: #7f7f7f; stroke-linecap: round"/>
   </g>
   <g id="line2d_27">
    <path d="M 234.172018 136.770502 
L 234.480778 137.239999 
L 234.370891 137.502491 
L 233.743942 137.759586 
L 233.756483 138.017788 
L 233.753033 137.606764 
L 233.507631 137.34587 
L 233.808404 137.305588 
L 233.655745 137.658047 
L 233.851274 137.353039 
L 233.312607 137.599955 
L 234.194304 137.62176 
L 234.400401 137.494818 
L 234.5687 137.572732 
L 234.196991 137.856057 
L 233.617347 137.555122 
L 233.317313 137.641812 
L 233.394671 137.545828 
L 233.278308 137.727318 
L 233.249419 137.191641 
L 233.405676 137.152305 
L 233.396917 136.812554 
L 233.143059 137.594655 
L 233.027848 137.314005 
L 233.568862 137.602512 
L 233.606664 137.411612 
L 233.855498 136.982289 
L 233.527639 137.295569 
L 233.715347 137.330328 
L 233.724718 137.076584 
L 233.654689 137.077111 
L 233.510658 137.048765 
L 233.940828 137.615085 
L 233.196771 137.555979 
L 233.340407 137.584013 
L 233.183938 137.708761 
L 233.476682 136.984387 
L 233.444824 137.45248 
L 233.969546 137.122814 
L 233.968639 137.166403 
L 233.508419 136.979897 
L 233.77513 136.763941 
L 233.543238 136.648316 
L 233.880319 136.641422 
L 233.624062 136.539848 
L 233.503132 136.881724 
L 233.908911 136.639697 
L 233.864032 136.489535 
L 234.38356 136.908191 
L 234.025043 136.905421 
L 234.008501 136.524126 
L 234.06726 136.686049 
L 234.422448 136.852557 
L 234.271348 136.681986 
L 234.360066 136.415408 
L 234.566039 136.302701 
L 234.563275 136.878851 
L 234.401237 136.639683 
L 234.464139 136.944856 
L 234.339086 136.598873 
L 234.188516 137.286843 
L 234.259637 136.877706 
L 234.624195 136.712011 
L 234.494318 136.508302 
L 235.043382 136.522113 
L 234.502772 136.419865 
L 234.377956 136.267477 
L 234.825929 136.088796 
L 234.653125 136.195853 
L 235.012778 136.926103 
L 234.84538 136.685967 
L 234.65733 136.860203 
L 234.897122 136.927947 
L 235.027519 136.69572 
L 234.923264 136.71253 
L 235.034918 136.245958 
L 235.094671 136.285001 
L 235.423302 136.5003 
L 235.292142 136.551113 
L 234.834079 136.887082 
L 235.280534 136.950676 
L 235.289997 136.402056 
L 235.358844 136.38816 
L 234.727211 136.675537 
L 234.471866 137.084645 
L 234.760561 137.358203 
L 234.68412 136.834731 
L 234.96355 136.954859 
L 235.401851 137.512904 
L 235.148992 136.377434 
L 235.496025 136.894134 
L 235.453019 136.711223 
L 235.489205 136.480091 
L 235.829137 136.544785 
L 235.617289 137.013065 
L 235.261889 137.029293 
L 235.185415 136.81972 
L 234.697011 136.586944 
L 234.648183 136.779186 
L 234.740193 136.691489 
L 234.821912 136.706242 
L 235.000099 136.559863 
L 234.860949 136.689898 
M 235.350719 136.587361 
L 235.149426 136.789066 
L 235.236661 136.969944 
L 234.780543 136.899882 
L 234.870938 137.196397 
L 235.243662 137.158479 
L 235.531133 136.776859 
L 235.672114 136.783932 
L 235.642076 137.320361 
L 235.409769 137.477975 
L 235.507906 137.115279 
L 235.538741 137.30395 
L 235.719835 137.620688 
L 235.406786 137.455156 
L 235.609621 137.6345 
L 235.8952 137.335962 
M 236.129173 137.125456 
L 235.790247 137.20901 
L 235.961344 137.895709 
L 235.65661 137.533288 
L 235.608162 137.590551 
L 235.4131 137.693659 
L 235.32006 137.452991 
L 235.802655 137.707722 
L 236.376232 137.753952 
L 236.191607 137.754864 
L 235.85892 137.283768 
L 236.114097 137.188007 
L 235.568926 137.088031 
L 235.97037 137.167487 
L 235.545433 137.305273 
L 235.53239 137.576878 
M 235.170879 137.61895 
L 235.2806 137.936534 
L 235.067648 137.209768 
L 235.157371 137.493243 
L 235.135333 137.042601 
L 235.315901 137.48312 
L 235.582615 137.707159 
L 235.582067 137.140871 
L 235.56951 137.203502 
L 235.303597 136.991686 
L 235.020721 137.062285 
L 235.009366 137.398876 
L 235.166166 137.103536 
L 234.837992 136.854705 
L 234.692624 137.000725 
L 235.212941 137.409825 
L 235.316157 137.804176 
L 235.394398 137.461008 
L 235.214065 137.646372 
L 235.035504 136.553682 
L 235.262496 136.508701 
L 235.432668 136.852075 
L 235.274017 136.608513 
L 234.673767 136.972703 
L 235.317876 137.113708 
L 235.092471 136.713274 
L 234.806738 136.713722 
L 235.043644 137.032237 
L 235.191356 136.903638 
L 234.934753 136.832719 
L 234.96651 136.6002 
L 234.901111 136.954312 
M 234.911645 137.701215 
L 235.077999 137.620997 
M 235.070582 137.6183 
L 235.311536 137.425731 
L 235.457602 137.084501 
M 235.600708 136.586513 
L 235.320175 136.873963 
L 234.654094 136.688367 
M 235.501702 136.529482 
L 235.205695 136.954569 
L 235.597038 137.241254 
L 236.036327 136.931475 
M 235.384047 136.997816 
L 235.502754 137.401045 
M 235.884233 137.279221 
L 235.70097 137.035725 
L 235.687885 137.105262 
L 236.01991 136.999535 
L 235.73235 137.190149 
L 235.900713 137.907794 
L 235.426854 137.480361 
M 235.860788 137.410583 
L 235.899194 137.710748 
M 235.69239 137.592475 
L 235.613282 137.789548 
L 235.904606 137.70085 
L 235.865575 137.919287 
L 235.984871 137.707028 
L 235.600902 137.961944 
L 235.907023 138.427803 
L 235.491347 138.42528 
L 235.653158 138.685999 
L 235.848456 138.008173 
M 236.070463 138.223836 
L 235.656954 138.527741 
L 235.524389 138.271709 
L 235.333271 138.245359 
M 235.381235 138.159276 
L 235.185222 138.108905 
L 235.317946 137.852463 
L 234.821636 137.679749 
L 234.503818 137.815283 
L 234.572982 138.174656 
L 234.577288 137.5999 
L 234.949027 138.316833 
L 235.00062 138.079847 
L 234.945116 138.171647 
L 235.286523 137.996701 
L 235.172538 138.328084 
L 234.893054 138.483572 
L 235.264746 138.182298 
L 234.93509 137.825145 
L 235.154302 137.848733 
L 235.361687 138.049842 
L 235.089453 138.005931 
L 235.574289 137.788442 
L 235.143382 137.736534 
L 235.055776 138.314725 
L 235.195141 137.813542 
M 235.299854 137.690626 
L 235.140655 137.846479 
L 235.423449 137.046953 
L 235.133801 137.282263 
L 235.611895 137.871795 
L 234.991084 137.473073 
L 234.876278 137.186905 
L 235.083874 137.599768 
L 234.896592 137.699152 
L 235.066818 137.341023 
L 235.644532 137.152044 
L 235.400115 137.100145 
L 235.238323 137.415057 
L 235.344656 137.173685 
L 235.036865 137.24467 
L 235.550716 136.747599 
L 235.495872 136.677674 
L 234.997473 137.052712 
L 235.392185 137.077879 
L 235.030141 136.836283 
L 235.439568 137.294666 
L 234.892152 137.301299 
L 235.190844 137.113252 
L 234.8627 137.240197 
L 234.402623 137.29973 
L 234.6696 137.376645 
L 234.92775 137.573966 
L 234.644717 137.329527 
L 233.897376 137.287205 
L 234.328828 136.869418 
L 233.937784 137.134244 
L 234.05431 137.332836 
L 234.03816 137.801193 
L 234.282253 137.64234 
L 234.04715 137.575054 
L 234.214041 137.326759 
L 234.073574 137.616169 
L 233.891993 137.390914 
L 234.316961 137.621764 
L 233.757303 137.722274 
L 233.990325 137.828842 
L 233.577019 137.781695 
L 234.194404 138.069405 
L 234.389953 137.80541 
L 234.770777 138.045661 
L 234.548372 137.863974 
L 234.3905 137.947735 
L 233.771266 137.905858 
L 233.815311 137.824166 
L 233.940283 137.683624 
L 234.585797 138.215359 
L 234.414087 138.308468 
L 233.74754 138.01892 
L 234.27691 137.916229 
L 234.76836 138.114605 
L 234.626931 137.784984 
L 234.657516 137.889921 
L 234.307424 137.636048 
L 234.17056 137.824079 
L 234.278017 137.998785 
L 233.964523 138.01683 
L 234.401533 137.45784 
L 234.684117 137.774077 
L 234.401726 137.889507 
L 234.148303 137.629071 
L 234.473392 137.747329 
L 234.480838 137.65269 
L 234.408833 137.582906 
L 234.611948 137.564845 
L 234.622639 137.70355 
L 234.40588 137.755735 
L 234.195239 137.610205 
L 234.117802 138.240278 
L 234.704033 138.07858 
L 234.298325 137.430181 
L 234.277265 137.45383 
L 234.572878 137.38108 
L 234.192831 137.246935 
L 234.339353 137.535563 
L 233.958194 138.096966 
L 233.96701 138.002973 
L 233.672742 137.641008 
L 234.215191 137.329392 
L 234.385094 136.752347 
L 234.385094 136.752347 
" clip-path="url(#pcf556bc772)" style="fill: none; stroke: #bcbd22; stroke-linecap: round"/>
   </g>
   <g id="line2d_28">
    <path d="M 237.899527 226.785563 
L 237.699475 227.147728 
L 237.527244 226.97859 
L 237.380284 227.412354 
L 237.5651 226.934765 
L 237.436317 226.988525 
L 237.248505 226.52289 
L 237.459761 226.624617 
L 237.106534 226.525427 
L 237.589237 226.478446 
L 237.510408 226.683016 
L 237.575584 226.641644 
L 237.011728 226.152074 
L 237.10681 226.133924 
L 237.227031 226.991375 
L 237.211072 227.011404 
L 237.467954 226.639585 
L 236.800816 226.509792 
L 236.975485 226.723416 
L 237.211525 226.696932 
L 237.831126 226.439035 
L 237.669641 226.81516 
L 237.258612 226.979145 
L 237.202728 227.12653 
L 237.414617 227.231609 
L 237.903193 227.234975 
L 237.722769 227.158232 
L 237.063941 227.576681 
L 237.360744 227.035854 
L 236.896406 227.362908 
L 236.851773 226.786454 
L 237.267612 226.989179 
L 237.253602 226.957431 
L 237.082587 227.175075 
L 237.308718 226.987894 
L 237.003173 226.714821 
L 236.870845 226.811458 
L 237.231069 226.697649 
L 237.606313 226.704076 
L 237.13392 226.831758 
L 237.441886 226.767164 
L 237.352628 226.988332 
L 237.409277 226.877327 
L 237.722596 226.860303 
L 237.29492 226.986975 
L 237.636807 226.847303 
L 237.90087 227.339838 
L 237.835425 227.963015 
L 237.52482 227.766259 
L 237.523909 227.058674 
L 237.903461 226.913626 
L 237.311091 226.83156 
L 237.42197 226.712125 
L 237.894541 226.451299 
L 237.651632 226.503833 
L 237.298263 226.459966 
L 237.464386 226.312814 
L 237.988662 226.300742 
L 237.999726 226.450915 
L 237.841146 226.376484 
L 237.359503 226.317953 
L 237.148128 226.204009 
L 237.239438 226.106259 
L 237.459273 226.292576 
L 237.874098 226.249862 
L 237.848307 226.083388 
L 238.309483 225.902811 
L 238.503551 226.039271 
L 237.978537 225.750849 
L 237.629918 225.78777 
L 237.814227 225.99805 
L 237.577624 226.121285 
L 238.248643 226.059815 
L 237.795694 225.817866 
L 237.696081 226.103436 
L 237.780225 226.424409 
L 237.708991 226.240356 
L 237.892118 226.380305 
L 238.190475 226.368637 
L 237.444661 226.196008 
L 237.457172 225.735627 
L 237.46401 226.14096 
L 237.638346 225.827395 
L 237.81696 225.856141 
L 237.795643 225.283645 
L 237.768879 225.453011 
L 238.089144 225.387566 
L 237.869088 225.329649 
L 237.820176 225.912497 
L 238.170893 226.264621 
L 237.90694 226.283497 
L 237.416183 226.011355 
L 237.629699 225.849524 
L 238.00552 225.707837 
L 237.7157 225.923893 
L 237.752556 225.584083 
L 238.134971 225.938383 
L 237.809163 226.358294 
L 238.052899 226.221643 
L 238.926081 225.896192 
L 238.729796 225.837314 
L 238.428674 225.949576 
L 238.943509 225.85451 
L 238.509165 225.944932 
L 238.87914 226.495129 
L 238.591027 226.728885 
L 238.528541 227.210692 
L 238.309256 227.339248 
L 238.538121 227.166048 
L 238.472953 227.332161 
L 238.462787 227.453163 
L 238.794879 227.293564 
L 238.414499 227.062989 
L 238.565407 226.547998 
L 238.348668 227.074725 
L 238.22895 227.15056 
L 238.489631 227.075839 
L 238.562452 227.479324 
L 238.43612 227.414074 
L 238.477481 227.738867 
L 238.394096 227.464351 
L 239.047291 227.724314 
L 239.103205 227.408736 
L 239.138606 227.555565 
L 238.697911 227.882799 
L 238.97696 227.739963 
L 237.943979 227.299137 
L 237.759127 227.108359 
L 237.995875 227.059315 
L 237.992772 227.542703 
L 238.110932 227.955682 
L 237.514385 227.737917 
L 237.776014 227.672987 
L 237.58573 227.114453 
L 237.559099 227.181661 
L 237.434557 227.259656 
L 237.622817 227.104503 
L 238.035853 227.221687 
L 238.04548 227.101961 
L 237.656821 226.931706 
L 237.895531 227.242856 
L 237.85636 227.195303 
L 237.969134 226.870433 
L 237.897827 226.728883 
L 237.280998 227.384869 
L 237.125521 227.104643 
L 237.081192 226.581412 
L 238.206379 226.98845 
L 238.200245 226.264373 
L 237.942951 226.119337 
L 237.9044 226.445984 
L 238.124849 226.29839 
L 237.831684 226.986941 
L 238.137362 226.704256 
L 237.547017 226.496005 
L 237.944598 227.045665 
L 237.65552 228.055938 
L 237.257358 227.500307 
L 237.590789 227.737031 
L 237.551162 227.780742 
L 237.349243 227.357744 
L 237.859932 227.377752 
L 237.469795 226.747938 
L 237.297805 227.039947 
L 237.363524 227.257365 
L 237.330249 226.903102 
L 236.972103 227.024137 
L 237.062043 227.206687 
L 236.716305 226.613812 
L 236.862894 226.629945 
L 237.302247 226.514252 
L 237.135852 226.333136 
L 236.771386 226.657025 
L 236.917491 226.509645 
L 236.805134 226.409551 
L 236.972793 226.541724 
L 237.310132 226.44721 
L 237.427142 226.025949 
L 237.30256 226.500465 
L 236.849697 226.721275 
L 236.139622 226.330475 
L 236.465584 226.402937 
L 236.293496 226.597815 
L 236.60113 226.482913 
L 236.226524 226.65629 
L 236.496816 226.373967 
L 236.209271 226.385781 
L 236.298525 226.492254 
L 236.75194 227.257076 
L 236.849675 226.982473 
L 236.486775 226.553933 
L 236.245667 227.051455 
L 236.604537 227.108063 
L 236.952409 226.86781 
L 236.4822 227.206576 
L 236.64531 227.166927 
L 236.413015 227.698631 
L 236.551923 227.711875 
L 236.577787 227.563318 
L 236.300271 227.491731 
L 236.517448 227.260844 
L 236.342643 227.032268 
L 236.890866 227.106588 
L 236.522777 227.140866 
L 236.391701 227.174873 
L 236.578858 227.476523 
L 236.492057 227.79995 
L 236.219215 227.690293 
L 236.034065 227.308387 
L 236.208775 227.387296 
L 236.274868 227.205392 
L 236.659547 226.990461 
L 236.156601 227.348791 
L 236.853994 227.603333 
L 236.873917 227.443517 
L 236.69336 227.457055 
L 237.037698 227.114858 
L 236.776016 227.510183 
L 236.560071 226.926052 
L 236.622449 226.655509 
L 236.303437 226.860002 
L 236.374279 226.419572 
L 236.504028 226.579227 
L 236.424573 226.543883 
L 236.301885 227.123407 
L 236.217278 226.905953 
L 236.122679 226.387007 
L 236.561266 226.054998 
L 236.3788 225.981666 
L 237.06585 226.53879 
L 236.596774 226.76099 
L 236.822386 226.004886 
L 237.23209 226.064016 
L 237.487167 226.276667 
L 237.514443 226.199724 
L 237.410197 226.535194 
L 238.155832 226.092479 
L 238.370934 225.617819 
L 238.268247 225.789393 
L 237.72636 225.647166 
L 237.766053 225.920697 
L 237.501214 225.769738 
L 237.945035 225.922915 
L 237.645806 225.853445 
L 237.934407 225.69943 
L 237.777416 225.407417 
L 237.796437 225.747222 
L 237.668039 226.226654 
L 237.827895 225.950224 
L 237.655075 225.83228 
L 237.674933 225.653395 
L 237.308385 225.297043 
L 237.833955 225.476006 
L 237.548008 226.005266 
L 238.007957 226.214648 
L 237.783111 226.170436 
L 237.795304 225.883654 
L 237.777772 226.145414 
L 237.657494 226.336975 
L 237.910302 226.185196 
L 237.610828 226.443996 
L 237.234257 226.323166 
L 237.90045 226.455866 
L 237.952849 226.323723 
L 237.348393 225.981279 
L 237.456984 226.141538 
L 237.208549 226.267308 
L 237.861202 226.78491 
L 238.276295 226.37266 
L 237.727067 226.645904 
L 237.212864 227.100067 
L 237.415112 227.259907 
L 237.306826 226.734847 
L 237.498635 226.951211 
L 237.43016 227.397143 
L 237.768917 227.495542 
L 237.489216 228.346253 
L 237.626984 227.877184 
L 237.595031 227.583947 
L 237.236448 228.175174 
L 236.817181 227.878764 
L 237.078549 228.004655 
L 237.361186 227.875953 
L 237.419345 227.629733 
L 237.323128 227.894553 
L 237.301199 227.814146 
L 237.329869 226.65881 
L 237.491673 226.577546 
L 237.708989 227.195704 
L 237.879369 227.26585 
L 237.564137 227.217011 
L 237.950048 227.053597 
L 237.762638 226.947843 
L 237.807385 227.336638 
L 237.961047 227.674461 
L 238.584106 227.960153 
L 238.308376 227.904787 
L 238.168129 227.504141 
L 238.296308 227.535234 
L 238.41871 227.348197 
L 238.429717 227.494897 
L 238.120245 227.247865 
L 238.12328 226.988722 
L 237.960842 226.917799 
L 237.554458 227.401217 
L 236.927409 227.414786 
L 237.133015 227.977589 
L 237.512528 227.76677 
L 237.92966 226.889218 
L 237.638525 226.916183 
L 237.785658 226.820876 
L 237.747712 226.737063 
L 237.510789 227.087571 
L 237.63102 227.067738 
L 237.777984 227.136813 
L 237.994554 226.79971 
L 237.764762 226.751695 
L 237.351324 227.165334 
L 237.598781 227.407713 
L 237.548463 227.452867 
L 237.338233 227.584337 
L 237.78893 227.874407 
L 237.92322 227.389047 
L 237.975134 227.533021 
L 237.636461 227.561714 
L 237.77129 227.621228 
L 237.891595 227.243094 
L 238.194129 227.208403 
L 238.194129 227.208403 
" clip-path="url(#pcf556bc772)" style="fill: none; stroke: #17becf; stroke-linecap: round"/>
   </g>
   <g id="line2d_29">
    <path d="M 151.129358 361.843016 
L 151.513309 362.677818 
M 152.198672 363.145894 
L 152.478976 363.043618 
L 152.595716 362.659877 
L 151.269873 362.746567 
M 151.326666 363.158463 
L 151.851189 362.935597 
M 152.634621 362.748792 
L 152.44939 361.898564 
L 152.702266 362.111114 
L 153.011748 362.061279 
L 152.647306 362.236878 
L 152.907982 362.6903 
L 152.639459 362.887586 
L 152.315905 362.08838 
L 151.846042 362.533404 
L 152.534682 362.798219 
L 152.786096 362.27782 
L 152.172918 361.889135 
L 152.467539 361.28276 
L 152.919024 361.632678 
L 151.760306 361.831086 
L 152.578374 362.334713 
L 153.031142 361.504494 
L 152.778667 361.289397 
L 152.83921 360.937102 
L 153.230522 361.326506 
L 152.829416 362.003121 
L 153.096322 362.022999 
L 151.909646 361.211711 
M 153.131724 362.089299 
L 152.985655 361.882397 
M 152.92213 361.987422 
L 152.743939 362.165935 
L 152.599325 361.637423 
L 152.921049 361.532642 
L 152.666441 361.367058 
L 153.036125 361.489418 
L 152.575186 361.866412 
L 152.085349 362.068914 
L 152.31256 362.595509 
L 152.8292 362.225433 
L 152.507932 361.995585 
L 152.448894 362.12979 
L 152.250433 361.920344 
L 152.212476 362.336512 
M 152.305244 361.780423 
L 152.654567 361.928 
M 152.375519 362.002343 
L 151.522759 361.177748 
L 151.832005 361.355691 
L 151.778222 360.836626 
L 151.866298 361.694769 
L 152.401499 361.356546 
L 152.015602 361.661597 
L 152.257736 361.706752 
L 152.650964 362.392489 
L 152.746376 362.060585 
L 152.537663 361.940421 
L 151.938787 362.225375 
L 151.985885 361.952116 
M 152.127959 362.895897 
L 152.869702 363.071835 
L 152.391103 362.805808 
L 152.388608 361.840248 
L 152.273248 361.697495 
L 152.231175 362.069278 
L 152.771875 362.068064 
L 152.719719 362.229037 
L 152.919907 361.584481 
L 153.049329 361.752673 
L 152.689627 362.272848 
L 152.619472 361.606867 
L 153.134757 361.346602 
L 152.52508 362.299382 
L 152.231563 361.838409 
L 152.889034 362.454631 
L 152.533311 362.92418 
L 152.377668 361.710827 
L 152.788436 361.281993 
L 152.963396 361.605142 
L 152.508352 361.152758 
L 151.830364 361.165363 
L 152.805812 360.954576 
L 152.994158 361.11121 
M 152.315925 361.692053 
L 152.425864 361.239972 
L 152.673054 362.166181 
L 152.511224 361.922769 
L 152.620045 361.318229 
L 152.458162 360.926232 
L 152.544435 361.747078 
L 152.610451 361.396719 
L 152.3318 361.323228 
L 152.969294 361.188308 
L 152.593655 361.452569 
L 152.678457 361.228713 
L 152.616456 361.225478 
L 153.248026 360.605947 
L 152.75863 361.025307 
L 152.798307 360.886009 
L 153.283542 361.057188 
L 153.139711 360.639151 
L 153.006315 361.073597 
L 153.42217 360.96046 
L 153.655997 361.330527 
L 153.305128 361.247846 
M 153.5717 360.55413 
" clip-path="url(#pcf556bc772)" style="fill: none; stroke: #1f77b4; stroke-linecap: round"/>
   </g>
   <g id="patch_3">
    <path d="M 63 448.56 
L 63 60.48 
" style="fill: none; stroke: #262626; stroke-width: 1.25; stroke-linejoin: miter; stroke-linecap: square"/>
   </g>
   <g id="patch_4">
    <path d="M 453.6 448.56 
L 453.6 60.48 
" style="fill: none; stroke: #262626; stroke-width: 1.25; stroke-linejoin: miter; stroke-linecap: square"/>
   </g>
   <g id="patch_5">
    <path d="M 63 448.56 
L 453.6 448.56 
" style="fill: none; stroke: #262626; stroke-width: 1.25; stroke-linejoin: miter; stroke-linecap: square"/>
   </g>
   <g id="patch_6">
    <path d="M 63 60.48 
L 453.6 60.48 
" style="fill: none; stroke: #262626; stroke-width: 1.25; stroke-linejoin: miter; stroke-linecap: square"/>
   </g>
  </g>
 </g>
 <defs>
  <clipPath id="pcf556bc772">
   <rect x="63" y="60.48" width="390.6" height="388.08"/>
  </clipPath>
 </defs>
</svg>
