<?xml version="1.0" encoding="utf-8" standalone="no"?>
<!DOCTYPE svg PUBLIC "-//W3C//DTD SVG 1.1//EN"
  "http://www.w3.org/Graphics/SVG/1.1/DTD/svg11.dtd">
<svg xmlns:xlink="http://www.w3.org/1999/xlink" width="504pt" height="504pt" viewBox="0 0 504 504" xmlns="http://www.w3.org/2000/svg" version="1.1">
 <metadata>
  <rdf:RDF xmlns:dc="http://purl.org/dc/elements/1.1/" xmlns:cc="http://creativecommons.org/ns#" xmlns:rdf="http://www.w3.org/1999/02/22-rdf-syntax-ns#">
   <cc:Work>
    <dc:type rdf:resource="http://purl.org/dc/dcmitype/StillImage"/>
    <dc:date>2025-06-03T12:40:24.121884</dc:date>
    <dc:format>image/svg+xml</dc:format>
    <dc:creator>
     <cc:Agent>
      <dc:title>Matplotlib v3.8.0, https://matplotlib.org/</dc:title>
     </cc:Agent>
    </dc:creator>
   </cc:Work>
  </rdf:RDF>
 </metadata>
 <defs>
  <style type="text/css">*{stroke-linejoin: round; stroke-linecap: butt}</style>
 </defs>
 <g id="figure_1">
  <g id="patch_1">
   <path d="M 0 504 
L 504 504 
L 504 0 
L 0 0 
z
" style="fill: #ffffff"/>
  </g>
  <g id="axes_1">
   <g id="patch_2">
    <path d="M 63 448.56 
L 453.6 448.56 
L 453.6 60.48 
L 63 60.48 
z
" style="fill: #ffffff"/>
   </g>
   <g id="matplotlib.axis_1">
    <g id="xtick_1">
     <g id="line2d_1">
      <defs>
       <path id="m1d99c0e1df" d="M 0 0 
L 0 5 
" style="stroke: #262626; stroke-width: 0.8"/>
      </defs>
      <g>
       <use xlink:href="#m1d99c0e1df" x="120.209091" y="448.56" style="fill: #262626; stroke: #262626; stroke-width: 0.8"/>
      </g>
     </g>
     <g id="text_1">
      <!-- 0.1 -->
      <g style="fill: #262626" transform="translate(110.479091 467.080938) scale(0.14 -0.14)">
       <defs>
        <path id="ArialMT-30" d="M 266 2259 
Q 266 3072 433 3567 
Q 600 4063 929 4331 
Q 1259 4600 1759 4600 
Q 2128 4600 2406 4451 
Q 2684 4303 2865 4023 
Q 3047 3744 3150 3342 
Q 3253 2941 3253 2259 
Q 3253 1453 3087 958 
Q 2922 463 2592 192 
Q 2263 -78 1759 -78 
Q 1097 -78 719 397 
Q 266 969 266 2259 
z
M 844 2259 
Q 844 1131 1108 757 
Q 1372 384 1759 384 
Q 2147 384 2411 759 
Q 2675 1134 2675 2259 
Q 2675 3391 2411 3762 
Q 2147 4134 1753 4134 
Q 1366 4134 1134 3806 
Q 844 3388 844 2259 
z
" transform="scale(0.015625)"/>
        <path id="ArialMT-2e" d="M 581 0 
L 581 641 
L 1222 641 
L 1222 0 
L 581 0 
z
" transform="scale(0.015625)"/>
        <path id="ArialMT-31" d="M 2384 0 
L 1822 0 
L 1822 3584 
Q 1619 3391 1289 3197 
Q 959 3003 697 2906 
L 697 3450 
Q 1169 3672 1522 3987 
Q 1875 4303 2022 4600 
L 2384 4600 
L 2384 0 
z
" transform="scale(0.015625)"/>
       </defs>
       <use xlink:href="#ArialMT-30"/>
       <use xlink:href="#ArialMT-2e" x="55.615234"/>
       <use xlink:href="#ArialMT-31" x="83.398438"/>
      </g>
     </g>
    </g>
    <g id="xtick_2">
     <g id="line2d_2">
      <g>
       <use xlink:href="#m1d99c0e1df" x="199.118182" y="448.56" style="fill: #262626; stroke: #262626; stroke-width: 0.8"/>
      </g>
     </g>
     <g id="text_2">
      <!-- 0.2 -->
      <g style="fill: #262626" transform="translate(189.388182 467.080938) scale(0.14 -0.14)">
       <defs>
        <path id="ArialMT-32" d="M 3222 541 
L 3222 0 
L 194 0 
Q 188 203 259 391 
Q 375 700 629 1000 
Q 884 1300 1366 1694 
Q 2113 2306 2375 2664 
Q 2638 3022 2638 3341 
Q 2638 3675 2398 3904 
Q 2159 4134 1775 4134 
Q 1369 4134 1125 3890 
Q 881 3647 878 3216 
L 300 3275 
Q 359 3922 746 4261 
Q 1134 4600 1788 4600 
Q 2447 4600 2831 4234 
Q 3216 3869 3216 3328 
Q 3216 3053 3103 2787 
Q 2991 2522 2730 2228 
Q 2469 1934 1863 1422 
Q 1356 997 1212 845 
Q 1069 694 975 541 
L 3222 541 
z
" transform="scale(0.015625)"/>
       </defs>
       <use xlink:href="#ArialMT-30"/>
       <use xlink:href="#ArialMT-2e" x="55.615234"/>
       <use xlink:href="#ArialMT-32" x="83.398438"/>
      </g>
     </g>
    </g>
    <g id="xtick_3">
     <g id="line2d_3">
      <g>
       <use xlink:href="#m1d99c0e1df" x="278.027273" y="448.56" style="fill: #262626; stroke: #262626; stroke-width: 0.8"/>
      </g>
     </g>
     <g id="text_3">
      <!-- 0.3 -->
      <g style="fill: #262626" transform="translate(268.297273 467.080938) scale(0.14 -0.14)">
       <defs>
        <path id="ArialMT-33" d="M 269 1209 
L 831 1284 
Q 928 806 1161 595 
Q 1394 384 1728 384 
Q 2125 384 2398 659 
Q 2672 934 2672 1341 
Q 2672 1728 2419 1979 
Q 2166 2231 1775 2231 
Q 1616 2231 1378 2169 
L 1441 2663 
Q 1497 2656 1531 2656 
Q 1891 2656 2178 2843 
Q 2466 3031 2466 3422 
Q 2466 3731 2256 3934 
Q 2047 4138 1716 4138 
Q 1388 4138 1169 3931 
Q 950 3725 888 3313 
L 325 3413 
Q 428 3978 793 4289 
Q 1159 4600 1703 4600 
Q 2078 4600 2393 4439 
Q 2709 4278 2876 4000 
Q 3044 3722 3044 3409 
Q 3044 3113 2884 2869 
Q 2725 2625 2413 2481 
Q 2819 2388 3044 2092 
Q 3269 1797 3269 1353 
Q 3269 753 2831 336 
Q 2394 -81 1725 -81 
Q 1122 -81 723 278 
Q 325 638 269 1209 
z
" transform="scale(0.015625)"/>
       </defs>
       <use xlink:href="#ArialMT-30"/>
       <use xlink:href="#ArialMT-2e" x="55.615234"/>
       <use xlink:href="#ArialMT-33" x="83.398438"/>
      </g>
     </g>
    </g>
    <g id="xtick_4">
     <g id="line2d_4">
      <g>
       <use xlink:href="#m1d99c0e1df" x="356.936364" y="448.56" style="fill: #262626; stroke: #262626; stroke-width: 0.8"/>
      </g>
     </g>
     <g id="text_4">
      <!-- 0.4 -->
      <g style="fill: #262626" transform="translate(347.206364 467.080938) scale(0.14 -0.14)">
       <defs>
        <path id="ArialMT-34" d="M 2069 0 
L 2069 1097 
L 81 1097 
L 81 1613 
L 2172 4581 
L 2631 4581 
L 2631 1613 
L 3250 1613 
L 3250 1097 
L 2631 1097 
L 2631 0 
L 2069 0 
z
M 2069 1613 
L 2069 3678 
L 634 1613 
L 2069 1613 
z
" transform="scale(0.015625)"/>
       </defs>
       <use xlink:href="#ArialMT-30"/>
       <use xlink:href="#ArialMT-2e" x="55.615234"/>
       <use xlink:href="#ArialMT-34" x="83.398438"/>
      </g>
     </g>
    </g>
    <g id="xtick_5">
     <g id="line2d_5">
      <g>
       <use xlink:href="#m1d99c0e1df" x="435.845455" y="448.56" style="fill: #262626; stroke: #262626; stroke-width: 0.8"/>
      </g>
     </g>
     <g id="text_5">
      <!-- 0.5 -->
      <g style="fill: #262626" transform="translate(426.115455 467.080938) scale(0.14 -0.14)">
       <defs>
        <path id="ArialMT-35" d="M 266 1200 
L 856 1250 
Q 922 819 1161 601 
Q 1400 384 1738 384 
Q 2144 384 2425 690 
Q 2706 997 2706 1503 
Q 2706 1984 2436 2262 
Q 2166 2541 1728 2541 
Q 1456 2541 1237 2417 
Q 1019 2294 894 2097 
L 366 2166 
L 809 4519 
L 3088 4519 
L 3088 3981 
L 1259 3981 
L 1013 2750 
Q 1425 3038 1878 3038 
Q 2478 3038 2890 2622 
Q 3303 2206 3303 1553 
Q 3303 931 2941 478 
Q 2500 -78 1738 -78 
Q 1113 -78 717 272 
Q 322 622 266 1200 
z
" transform="scale(0.015625)"/>
       </defs>
       <use xlink:href="#ArialMT-30"/>
       <use xlink:href="#ArialMT-2e" x="55.615234"/>
       <use xlink:href="#ArialMT-35" x="83.398438"/>
      </g>
     </g>
    </g>
    <g id="text_6">
     <!-- lag time [s] -->
     <g style="fill: #262626" transform="translate(219.6225 485.315938) scale(0.16 -0.16)">
      <defs>
       <path id="ArialMT-6c" d="M 409 0 
L 409 4581 
L 972 4581 
L 972 0 
L 409 0 
z
" transform="scale(0.015625)"/>
       <path id="ArialMT-61" d="M 2588 409 
Q 2275 144 1986 34 
Q 1697 -75 1366 -75 
Q 819 -75 525 192 
Q 231 459 231 875 
Q 231 1119 342 1320 
Q 453 1522 633 1644 
Q 813 1766 1038 1828 
Q 1203 1872 1538 1913 
Q 2219 1994 2541 2106 
Q 2544 2222 2544 2253 
Q 2544 2597 2384 2738 
Q 2169 2928 1744 2928 
Q 1347 2928 1158 2789 
Q 969 2650 878 2297 
L 328 2372 
Q 403 2725 575 2942 
Q 747 3159 1072 3276 
Q 1397 3394 1825 3394 
Q 2250 3394 2515 3294 
Q 2781 3194 2906 3042 
Q 3031 2891 3081 2659 
Q 3109 2516 3109 2141 
L 3109 1391 
Q 3109 606 3145 398 
Q 3181 191 3288 0 
L 2700 0 
Q 2613 175 2588 409 
z
M 2541 1666 
Q 2234 1541 1622 1453 
Q 1275 1403 1131 1340 
Q 988 1278 909 1158 
Q 831 1038 831 891 
Q 831 666 1001 516 
Q 1172 366 1500 366 
Q 1825 366 2078 508 
Q 2331 650 2450 897 
Q 2541 1088 2541 1459 
L 2541 1666 
z
" transform="scale(0.015625)"/>
       <path id="ArialMT-67" d="M 319 -275 
L 866 -356 
Q 900 -609 1056 -725 
Q 1266 -881 1628 -881 
Q 2019 -881 2231 -725 
Q 2444 -569 2519 -288 
Q 2563 -116 2559 434 
Q 2191 0 1641 0 
Q 956 0 581 494 
Q 206 988 206 1678 
Q 206 2153 378 2554 
Q 550 2956 876 3175 
Q 1203 3394 1644 3394 
Q 2231 3394 2613 2919 
L 2613 3319 
L 3131 3319 
L 3131 450 
Q 3131 -325 2973 -648 
Q 2816 -972 2473 -1159 
Q 2131 -1347 1631 -1347 
Q 1038 -1347 672 -1080 
Q 306 -813 319 -275 
z
M 784 1719 
Q 784 1066 1043 766 
Q 1303 466 1694 466 
Q 2081 466 2343 764 
Q 2606 1063 2606 1700 
Q 2606 2309 2336 2618 
Q 2066 2928 1684 2928 
Q 1309 2928 1046 2623 
Q 784 2319 784 1719 
z
" transform="scale(0.015625)"/>
       <path id="ArialMT-20" transform="scale(0.015625)"/>
       <path id="ArialMT-74" d="M 1650 503 
L 1731 6 
Q 1494 -44 1306 -44 
Q 1000 -44 831 53 
Q 663 150 594 308 
Q 525 466 525 972 
L 525 2881 
L 113 2881 
L 113 3319 
L 525 3319 
L 525 4141 
L 1084 4478 
L 1084 3319 
L 1650 3319 
L 1650 2881 
L 1084 2881 
L 1084 941 
Q 1084 700 1114 631 
Q 1144 563 1211 522 
Q 1278 481 1403 481 
Q 1497 481 1650 503 
z
" transform="scale(0.015625)"/>
       <path id="ArialMT-69" d="M 425 3934 
L 425 4581 
L 988 4581 
L 988 3934 
L 425 3934 
z
M 425 0 
L 425 3319 
L 988 3319 
L 988 0 
L 425 0 
z
" transform="scale(0.015625)"/>
       <path id="ArialMT-6d" d="M 422 0 
L 422 3319 
L 925 3319 
L 925 2853 
Q 1081 3097 1340 3245 
Q 1600 3394 1931 3394 
Q 2300 3394 2536 3241 
Q 2772 3088 2869 2813 
Q 3263 3394 3894 3394 
Q 4388 3394 4653 3120 
Q 4919 2847 4919 2278 
L 4919 0 
L 4359 0 
L 4359 2091 
Q 4359 2428 4304 2576 
Q 4250 2725 4106 2815 
Q 3963 2906 3769 2906 
Q 3419 2906 3187 2673 
Q 2956 2441 2956 1928 
L 2956 0 
L 2394 0 
L 2394 2156 
Q 2394 2531 2256 2718 
Q 2119 2906 1806 2906 
Q 1569 2906 1367 2781 
Q 1166 2656 1075 2415 
Q 984 2175 984 1722 
L 984 0 
L 422 0 
z
" transform="scale(0.015625)"/>
       <path id="ArialMT-65" d="M 2694 1069 
L 3275 997 
Q 3138 488 2766 206 
Q 2394 -75 1816 -75 
Q 1088 -75 661 373 
Q 234 822 234 1631 
Q 234 2469 665 2931 
Q 1097 3394 1784 3394 
Q 2450 3394 2872 2941 
Q 3294 2488 3294 1666 
Q 3294 1616 3291 1516 
L 816 1516 
Q 847 969 1125 678 
Q 1403 388 1819 388 
Q 2128 388 2347 550 
Q 2566 713 2694 1069 
z
M 847 1978 
L 2700 1978 
Q 2663 2397 2488 2606 
Q 2219 2931 1791 2931 
Q 1403 2931 1139 2672 
Q 875 2413 847 1978 
z
" transform="scale(0.015625)"/>
       <path id="ArialMT-5b" d="M 434 -1272 
L 434 4581 
L 1675 4581 
L 1675 4116 
L 997 4116 
L 997 -806 
L 1675 -806 
L 1675 -1272 
L 434 -1272 
z
" transform="scale(0.015625)"/>
       <path id="ArialMT-73" d="M 197 991 
L 753 1078 
Q 800 744 1014 566 
Q 1228 388 1613 388 
Q 2000 388 2187 545 
Q 2375 703 2375 916 
Q 2375 1106 2209 1216 
Q 2094 1291 1634 1406 
Q 1016 1563 777 1677 
Q 538 1791 414 1992 
Q 291 2194 291 2438 
Q 291 2659 392 2848 
Q 494 3038 669 3163 
Q 800 3259 1026 3326 
Q 1253 3394 1513 3394 
Q 1903 3394 2198 3281 
Q 2494 3169 2634 2976 
Q 2775 2784 2828 2463 
L 2278 2388 
Q 2241 2644 2061 2787 
Q 1881 2931 1553 2931 
Q 1166 2931 1000 2803 
Q 834 2675 834 2503 
Q 834 2394 903 2306 
Q 972 2216 1119 2156 
Q 1203 2125 1616 2013 
Q 2213 1853 2448 1751 
Q 2684 1650 2818 1456 
Q 2953 1263 2953 975 
Q 2953 694 2789 445 
Q 2625 197 2315 61 
Q 2006 -75 1616 -75 
Q 969 -75 630 194 
Q 291 463 197 991 
z
" transform="scale(0.015625)"/>
       <path id="ArialMT-5d" d="M 1363 -1272 
L 122 -1272 
L 122 -806 
L 800 -806 
L 800 4116 
L 122 4116 
L 122 4581 
L 1363 4581 
L 1363 -1272 
z
" transform="scale(0.015625)"/>
      </defs>
      <use xlink:href="#ArialMT-6c"/>
      <use xlink:href="#ArialMT-61" x="22.216797"/>
      <use xlink:href="#ArialMT-67" x="77.832031"/>
      <use xlink:href="#ArialMT-20" x="133.447266"/>
      <use xlink:href="#ArialMT-74" x="161.230469"/>
      <use xlink:href="#ArialMT-69" x="189.013672"/>
      <use xlink:href="#ArialMT-6d" x="211.230469"/>
      <use xlink:href="#ArialMT-65" x="294.53125"/>
      <use xlink:href="#ArialMT-20" x="350.146484"/>
      <use xlink:href="#ArialMT-5b" x="377.929688"/>
      <use xlink:href="#ArialMT-73" x="405.712891"/>
      <use xlink:href="#ArialMT-5d" x="455.712891"/>
     </g>
    </g>
   </g>
   <g id="matplotlib.axis_2">
    <g id="ytick_1">
     <g id="line2d_6">
      <defs>
       <path id="m75c3975195" d="M 0 0 
L -5 0 
" style="stroke: #262626; stroke-width: 0.8"/>
      </defs>
      <g>
       <use xlink:href="#m75c3975195" x="63" y="431.566822" style="fill: #262626; stroke: #262626; stroke-width: 0.8"/>
      </g>
     </g>
     <g id="text_7">
      <!-- 0.000 -->
      <g style="fill: #262626" transform="translate(19.469375 436.577291) scale(0.14 -0.14)">
       <use xlink:href="#ArialMT-30"/>
       <use xlink:href="#ArialMT-2e" x="55.615234"/>
       <use xlink:href="#ArialMT-30" x="83.398438"/>
       <use xlink:href="#ArialMT-30" x="139.013672"/>
       <use xlink:href="#ArialMT-30" x="194.628906"/>
      </g>
     </g>
    </g>
    <g id="ytick_2">
     <g id="line2d_7">
      <g>
       <use xlink:href="#m75c3975195" x="63" y="387.367748" style="fill: #262626; stroke: #262626; stroke-width: 0.8"/>
      </g>
     </g>
     <g id="text_8">
      <!-- 0.005 -->
      <g style="fill: #262626" transform="translate(19.469375 392.378217) scale(0.14 -0.14)">
       <use xlink:href="#ArialMT-30"/>
       <use xlink:href="#ArialMT-2e" x="55.615234"/>
       <use xlink:href="#ArialMT-30" x="83.398438"/>
       <use xlink:href="#ArialMT-30" x="139.013672"/>
       <use xlink:href="#ArialMT-35" x="194.628906"/>
      </g>
     </g>
    </g>
    <g id="ytick_3">
     <g id="line2d_8">
      <g>
       <use xlink:href="#m75c3975195" x="63" y="343.168674" style="fill: #262626; stroke: #262626; stroke-width: 0.8"/>
      </g>
     </g>
     <g id="text_9">
      <!-- 0.010 -->
      <g style="fill: #262626" transform="translate(19.469375 348.179142) scale(0.14 -0.14)">
       <use xlink:href="#ArialMT-30"/>
       <use xlink:href="#ArialMT-2e" x="55.615234"/>
       <use xlink:href="#ArialMT-30" x="83.398438"/>
       <use xlink:href="#ArialMT-31" x="139.013672"/>
       <use xlink:href="#ArialMT-30" x="194.628906"/>
      </g>
     </g>
    </g>
    <g id="ytick_4">
     <g id="line2d_9">
      <g>
       <use xlink:href="#m75c3975195" x="63" y="298.969599" style="fill: #262626; stroke: #262626; stroke-width: 0.8"/>
      </g>
     </g>
     <g id="text_10">
      <!-- 0.015 -->
      <g style="fill: #262626" transform="translate(19.469375 303.980068) scale(0.14 -0.14)">
       <use xlink:href="#ArialMT-30"/>
       <use xlink:href="#ArialMT-2e" x="55.615234"/>
       <use xlink:href="#ArialMT-30" x="83.398438"/>
       <use xlink:href="#ArialMT-31" x="139.013672"/>
       <use xlink:href="#ArialMT-35" x="194.628906"/>
      </g>
     </g>
    </g>
    <g id="ytick_5">
     <g id="line2d_10">
      <g>
       <use xlink:href="#m75c3975195" x="63" y="254.770525" style="fill: #262626; stroke: #262626; stroke-width: 0.8"/>
      </g>
     </g>
     <g id="text_11">
      <!-- 0.020 -->
      <g style="fill: #262626" transform="translate(19.469375 259.780994) scale(0.14 -0.14)">
       <use xlink:href="#ArialMT-30"/>
       <use xlink:href="#ArialMT-2e" x="55.615234"/>
       <use xlink:href="#ArialMT-30" x="83.398438"/>
       <use xlink:href="#ArialMT-32" x="139.013672"/>
       <use xlink:href="#ArialMT-30" x="194.628906"/>
      </g>
     </g>
    </g>
    <g id="ytick_6">
     <g id="line2d_11">
      <g>
       <use xlink:href="#m75c3975195" x="63" y="210.57145" style="fill: #262626; stroke: #262626; stroke-width: 0.8"/>
      </g>
     </g>
     <g id="text_12">
      <!-- 0.025 -->
      <g style="fill: #262626" transform="translate(19.469375 215.581919) scale(0.14 -0.14)">
       <use xlink:href="#ArialMT-30"/>
       <use xlink:href="#ArialMT-2e" x="55.615234"/>
       <use xlink:href="#ArialMT-30" x="83.398438"/>
       <use xlink:href="#ArialMT-32" x="139.013672"/>
       <use xlink:href="#ArialMT-35" x="194.628906"/>
      </g>
     </g>
    </g>
    <g id="ytick_7">
     <g id="line2d_12">
      <g>
       <use xlink:href="#m75c3975195" x="63" y="166.372376" style="fill: #262626; stroke: #262626; stroke-width: 0.8"/>
      </g>
     </g>
     <g id="text_13">
      <!-- 0.030 -->
      <g style="fill: #262626" transform="translate(19.469375 171.382845) scale(0.14 -0.14)">
       <use xlink:href="#ArialMT-30"/>
       <use xlink:href="#ArialMT-2e" x="55.615234"/>
       <use xlink:href="#ArialMT-30" x="83.398438"/>
       <use xlink:href="#ArialMT-33" x="139.013672"/>
       <use xlink:href="#ArialMT-30" x="194.628906"/>
      </g>
     </g>
    </g>
    <g id="ytick_8">
     <g id="line2d_13">
      <g>
       <use xlink:href="#m75c3975195" x="63" y="122.173302" style="fill: #262626; stroke: #262626; stroke-width: 0.8"/>
      </g>
     </g>
     <g id="text_14">
      <!-- 0.035 -->
      <g style="fill: #262626" transform="translate(19.469375 127.18377) scale(0.14 -0.14)">
       <use xlink:href="#ArialMT-30"/>
       <use xlink:href="#ArialMT-2e" x="55.615234"/>
       <use xlink:href="#ArialMT-30" x="83.398438"/>
       <use xlink:href="#ArialMT-33" x="139.013672"/>
       <use xlink:href="#ArialMT-35" x="194.628906"/>
      </g>
     </g>
    </g>
    <g id="ytick_9">
     <g id="line2d_14">
      <g>
       <use xlink:href="#m75c3975195" x="63" y="77.974227" style="fill: #262626; stroke: #262626; stroke-width: 0.8"/>
      </g>
     </g>
     <g id="text_15">
      <!-- 0.040 -->
      <g style="fill: #262626" transform="translate(19.469375 82.984696) scale(0.14 -0.14)">
       <use xlink:href="#ArialMT-30"/>
       <use xlink:href="#ArialMT-2e" x="55.615234"/>
       <use xlink:href="#ArialMT-30" x="83.398438"/>
       <use xlink:href="#ArialMT-34" x="139.013672"/>
       <use xlink:href="#ArialMT-30" x="194.628906"/>
      </g>
     </g>
    </g>
    <g id="text_16">
     <!-- MSD (um^2) -->
     <g style="fill: #262626" transform="translate(12.101875 299.1625) rotate(-90) scale(0.16 -0.16)">
      <defs>
       <path id="ArialMT-4d" d="M 475 0 
L 475 4581 
L 1388 4581 
L 2472 1338 
Q 2622 884 2691 659 
Q 2769 909 2934 1394 
L 4031 4581 
L 4847 4581 
L 4847 0 
L 4263 0 
L 4263 3834 
L 2931 0 
L 2384 0 
L 1059 3900 
L 1059 0 
L 475 0 
z
" transform="scale(0.015625)"/>
       <path id="ArialMT-53" d="M 288 1472 
L 859 1522 
Q 900 1178 1048 958 
Q 1197 738 1509 602 
Q 1822 466 2213 466 
Q 2559 466 2825 569 
Q 3091 672 3220 851 
Q 3350 1031 3350 1244 
Q 3350 1459 3225 1620 
Q 3100 1781 2813 1891 
Q 2628 1963 1997 2114 
Q 1366 2266 1113 2400 
Q 784 2572 623 2826 
Q 463 3081 463 3397 
Q 463 3744 659 4045 
Q 856 4347 1234 4503 
Q 1613 4659 2075 4659 
Q 2584 4659 2973 4495 
Q 3363 4331 3572 4012 
Q 3781 3694 3797 3291 
L 3216 3247 
Q 3169 3681 2898 3903 
Q 2628 4125 2100 4125 
Q 1550 4125 1298 3923 
Q 1047 3722 1047 3438 
Q 1047 3191 1225 3031 
Q 1400 2872 2139 2705 
Q 2878 2538 3153 2413 
Q 3553 2228 3743 1945 
Q 3934 1663 3934 1294 
Q 3934 928 3725 604 
Q 3516 281 3123 101 
Q 2731 -78 2241 -78 
Q 1619 -78 1198 103 
Q 778 284 539 648 
Q 300 1013 288 1472 
z
" transform="scale(0.015625)"/>
       <path id="ArialMT-44" d="M 494 0 
L 494 4581 
L 2072 4581 
Q 2606 4581 2888 4516 
Q 3281 4425 3559 4188 
Q 3922 3881 4101 3404 
Q 4281 2928 4281 2316 
Q 4281 1794 4159 1391 
Q 4038 988 3847 723 
Q 3656 459 3429 307 
Q 3203 156 2883 78 
Q 2563 0 2147 0 
L 494 0 
z
M 1100 541 
L 2078 541 
Q 2531 541 2789 625 
Q 3047 709 3200 863 
Q 3416 1078 3536 1442 
Q 3656 1806 3656 2325 
Q 3656 3044 3420 3430 
Q 3184 3816 2847 3947 
Q 2603 4041 2063 4041 
L 1100 4041 
L 1100 541 
z
" transform="scale(0.015625)"/>
       <path id="ArialMT-28" d="M 1497 -1347 
Q 1031 -759 709 28 
Q 388 816 388 1659 
Q 388 2403 628 3084 
Q 909 3875 1497 4659 
L 1900 4659 
Q 1522 4009 1400 3731 
Q 1209 3300 1100 2831 
Q 966 2247 966 1656 
Q 966 153 1900 -1347 
L 1497 -1347 
z
" transform="scale(0.015625)"/>
       <path id="ArialMT-75" d="M 2597 0 
L 2597 488 
Q 2209 -75 1544 -75 
Q 1250 -75 995 37 
Q 741 150 617 320 
Q 494 491 444 738 
Q 409 903 409 1263 
L 409 3319 
L 972 3319 
L 972 1478 
Q 972 1038 1006 884 
Q 1059 663 1231 536 
Q 1403 409 1656 409 
Q 1909 409 2131 539 
Q 2353 669 2445 892 
Q 2538 1116 2538 1541 
L 2538 3319 
L 3100 3319 
L 3100 0 
L 2597 0 
z
" transform="scale(0.015625)"/>
       <path id="ArialMT-5e" d="M 747 2156 
L 169 2156 
L 1272 4659 
L 1725 4659 
L 2834 2156 
L 2269 2156 
L 1497 4022 
L 747 2156 
z
" transform="scale(0.015625)"/>
       <path id="ArialMT-29" d="M 791 -1347 
L 388 -1347 
Q 1322 153 1322 1656 
Q 1322 2244 1188 2822 
Q 1081 3291 891 3722 
Q 769 4003 388 4659 
L 791 4659 
Q 1378 3875 1659 3084 
Q 1900 2403 1900 1659 
Q 1900 816 1576 28 
Q 1253 -759 791 -1347 
z
" transform="scale(0.015625)"/>
      </defs>
      <use xlink:href="#ArialMT-4d"/>
      <use xlink:href="#ArialMT-53" x="83.300781"/>
      <use xlink:href="#ArialMT-44" x="150"/>
      <use xlink:href="#ArialMT-20" x="222.216797"/>
      <use xlink:href="#ArialMT-28" x="250"/>
      <use xlink:href="#ArialMT-75" x="283.300781"/>
      <use xlink:href="#ArialMT-6d" x="338.916016"/>
      <use xlink:href="#ArialMT-5e" x="422.216797"/>
      <use xlink:href="#ArialMT-32" x="469.140625"/>
      <use xlink:href="#ArialMT-29" x="524.755859"/>
     </g>
    </g>
   </g>
   <g id="line2d_15">
    <path d="M 80.754545 429.365709 
L 120.209091 427.984045 
L 159.663636 426.968351 
L 199.118182 426.068458 
L 238.572727 425.501825 
L 278.027273 424.929889 
L 317.481818 424.25276 
L 356.936364 423.718835 
L 396.390909 423.231761 
L 435.845455 422.781814 
" clip-path="url(#p78dddfa1ee)" style="fill: none; stroke: #000000; stroke-opacity: 0.2; stroke-width: 2; stroke-linecap: round"/>
   </g>
   <g id="line2d_16">
    <path d="M 80.754545 429.797091 
L 120.209091 428.281063 
L 159.663636 427.077964 
L 199.118182 426.110005 
L 238.572727 425.292322 
L 278.027273 424.475523 
L 317.481818 423.755078 
L 356.936364 423.134523 
L 396.390909 422.51662 
L 435.845455 421.878385 
" clip-path="url(#p78dddfa1ee)" style="fill: none; stroke: #000000; stroke-opacity: 0.2; stroke-width: 2; stroke-linecap: round"/>
   </g>
   <g id="line2d_17">
    <path d="M 80.754545 386.413048 
L 120.209091 390.124002 
L 159.663636 367.913083 
L 199.118182 368.599937 
L 238.572727 348.393004 
L 278.027273 362.727648 
L 317.481818 343.224364 
L 356.936364 367.167887 
L 396.390909 345.383931 
L 435.845455 350.525168 
" clip-path="url(#p78dddfa1ee)" style="fill: none; stroke: #000000; stroke-opacity: 0.2; stroke-width: 2; stroke-linecap: round"/>
   </g>
   <g id="line2d_18">
    <path d="M 80.754545 422.62977 
L 120.209091 420.027328 
L 159.663636 418.246105 
L 199.118182 417.590191 
L 238.572727 416.367645 
L 278.027273 414.8967 
L 317.481818 414.185094 
L 356.936364 413.687413 
L 396.390909 413.492053 
L 435.845455 412.735365 
" clip-path="url(#p78dddfa1ee)" style="fill: none; stroke: #000000; stroke-opacity: 0.2; stroke-width: 2; stroke-linecap: round"/>
   </g>
   <g id="line2d_19">
    <path d="M 80.754545 428.215649 
L 120.209091 425.121713 
L 159.663636 422.788002 
L 199.118182 420.646115 
L 238.572727 418.729643 
L 278.027273 416.944001 
L 317.481818 415.344878 
L 356.936364 413.666197 
L 396.390909 412.275694 
L 435.845455 411.306851 
" clip-path="url(#p78dddfa1ee)" style="fill: none; stroke: #000000; stroke-opacity: 0.2; stroke-width: 2; stroke-linecap: round"/>
   </g>
   <g id="line2d_20">
    <path d="M 80.754545 423.55795 
L 120.209091 417.512401 
L 159.663636 412.862658 
L 199.118182 409.039438 
L 238.572727 405.817326 
L 278.027273 403.084939 
L 317.481818 400.842278 
L 356.936364 398.988569 
L 396.390909 397.709447 
L 435.845455 396.316293 
" clip-path="url(#p78dddfa1ee)" style="fill: none; stroke: #000000; stroke-opacity: 0.2; stroke-width: 2; stroke-linecap: round"/>
   </g>
   <g id="line2d_21">
    <path d="M 80.754545 429.741401 
L 120.209091 428.315538 
L 159.663636 427.21233 
L 199.118182 426.3531 
L 238.572727 425.598179 
L 278.027273 424.875967 
L 317.481818 424.285467 
L 356.936364 423.67552 
L 396.390909 423.073528 
L 435.845455 422.531648 
" clip-path="url(#p78dddfa1ee)" style="fill: none; stroke: #000000; stroke-opacity: 0.2; stroke-width: 2; stroke-linecap: round"/>
   </g>
   <g id="line2d_22">
    <path d="M 80.754545 429.622063 
L 120.209091 427.829349 
L 159.663636 426.616526 
L 199.118182 425.741384 
L 238.572727 424.997956 
L 278.027273 424.275743 
L 317.481818 423.531431 
L 356.936364 422.81187 
L 396.390909 422.272641 
L 435.845455 421.688329 
" clip-path="url(#p78dddfa1ee)" style="fill: none; stroke: #000000; stroke-opacity: 0.2; stroke-width: 2; stroke-linecap: round"/>
   </g>
   <g id="line2d_23">
    <path d="M 80.754545 429.914661 
L 120.209091 428.630236 
L 159.663636 427.759514 
L 199.118182 427.045257 
L 238.572727 426.367243 
L 278.027273 425.810335 
L 317.481818 425.308233 
L 356.936364 424.849447 
L 396.390909 424.368561 
L 435.845455 423.980493 
" clip-path="url(#p78dddfa1ee)" style="fill: none; stroke: #000000; stroke-opacity: 0.2; stroke-width: 2; stroke-linecap: round"/>
   </g>
   <g id="line2d_24">
    <path d="M 80.754545 416.853835 
L 120.209091 408.837006 
L 159.663636 404.1908 
L 199.118182 399.88139 
L 238.572727 398.412213 
L 278.027273 397.074749 
L 317.481818 395.263471 
L 356.936364 394.511202 
L 396.390909 392.89882 
L 435.845455 392.096165 
" clip-path="url(#p78dddfa1ee)" style="fill: none; stroke: #000000; stroke-opacity: 0.2; stroke-width: 2; stroke-linecap: round"/>
   </g>
   <g id="line2d_25">
    <path d="M 80.754545 429.339189 
L 120.209091 427.244153 
L 159.663636 425.64503 
L 199.118182 424.50381 
L 238.572727 423.498723 
L 278.027273 422.492752 
L 317.481818 421.647666 
L 356.936364 420.885674 
L 396.390909 420.33407 
L 435.845455 419.840808 
" clip-path="url(#p78dddfa1ee)" style="fill: none; stroke: #000000; stroke-opacity: 0.2; stroke-width: 2; stroke-linecap: round"/>
   </g>
   <g id="line2d_26">
    <path d="M 80.754545 427.593326 
L 120.209091 424.027344 
L 159.663636 421.360372 
L 199.118182 419.197269 
L 238.572727 417.221571 
L 278.027273 415.44742 
L 317.481818 413.931392 
L 356.936364 412.643431 
L 396.390909 411.411161 
L 435.845455 410.294692 
" clip-path="url(#p78dddfa1ee)" style="fill: none; stroke: #000000; stroke-opacity: 0.2; stroke-width: 2; stroke-linecap: round"/>
   </g>
   <g id="line2d_27">
    <path d="M 80.754545 422.91176 
L 120.209091 418.482128 
L 159.663636 417.142012 
L 199.118182 415.869963 
L 238.572727 414.651837 
L 278.027273 412.702657 
L 317.481818 410.65182 
L 356.936364 409.423086 
L 396.390909 407.61004 
L 435.845455 406.742854 
" clip-path="url(#p78dddfa1ee)" style="fill: none; stroke: #000000; stroke-opacity: 0.2; stroke-width: 2; stroke-linecap: round"/>
   </g>
   <g id="line2d_28">
    <path d="M 80.754545 422.087889 
L 120.209091 415.437696 
L 159.663636 410.741103 
L 199.118182 406.404289 
L 238.572727 402.967369 
L 278.027273 399.843379 
L 317.481818 397.036738 
L 356.936364 394.263688 
L 396.390909 391.552516 
L 435.845455 388.745875 
" clip-path="url(#p78dddfa1ee)" style="fill: none; stroke: #000000; stroke-opacity: 0.2; stroke-width: 2; stroke-linecap: round"/>
   </g>
   <g id="line2d_29">
    <path d="M 80.754545 429.595544 
L 120.209091 427.694983 
L 159.663636 426.308901 
L 199.118182 425.077514 
L 238.572727 423.961046 
L 278.027273 422.926787 
L 317.481818 421.902253 
L 356.936364 421.00678 
L 396.390909 420.182909 
L 435.845455 419.390861 
" clip-path="url(#p78dddfa1ee)" style="fill: none; stroke: #000000; stroke-opacity: 0.2; stroke-width: 2; stroke-linecap: round"/>
   </g>
   <g id="line2d_30">
    <path d="M 80.754545 421.889877 
L 120.209091 416.4198 
L 159.663636 413.278129 
L 199.118182 410.316791 
L 238.572727 407.368713 
L 278.027273 404.861742 
L 317.481818 402.574882 
L 356.936364 401.001395 
L 396.390909 399.409344 
L 435.845455 397.554751 
" clip-path="url(#p78dddfa1ee)" style="fill: none; stroke: #000000; stroke-opacity: 0.2; stroke-width: 2; stroke-linecap: round"/>
   </g>
   <g id="line2d_31">
    <path d="M 80.754545 427.252109 
L 120.209091 424.249224 
L 159.663636 422.018938 
L 199.118182 420.281915 
L 238.572727 418.840141 
L 278.027273 417.3745 
L 317.481818 416.301346 
L 356.936364 415.461564 
L 396.390909 414.421117 
L 435.845455 413.397467 
" clip-path="url(#p78dddfa1ee)" style="fill: none; stroke: #000000; stroke-opacity: 0.2; stroke-width: 2; stroke-linecap: round"/>
   </g>
   <g id="line2d_32">
    <path d="M 80.754545 429.617643 
L 120.209091 428.26692 
L 159.663636 427.401502 
L 199.118182 426.72614 
L 238.572727 426.132104 
L 278.027273 425.520389 
L 317.481818 424.967017 
L 356.936364 424.422484 
L 396.390909 423.945134 
L 435.845455 423.489884 
" clip-path="url(#p78dddfa1ee)" style="fill: none; stroke: #000000; stroke-opacity: 0.2; stroke-width: 2; stroke-linecap: round"/>
   </g>
   <g id="line2d_33">
    <path d="M 80.754545 423.447452 
L 120.209091 423.036401 
L 159.663636 423.257396 
L 199.118182 422.14358 
L 238.572727 422.647449 
L 278.027273 419.450972 
L 317.481818 418.803898 
L 356.936364 419.055832 
L 396.390909 417.415163 
L 435.845455 417.55218 
" clip-path="url(#p78dddfa1ee)" style="fill: none; stroke: #000000; stroke-opacity: 0.2; stroke-width: 2; stroke-linecap: round"/>
   </g>
   <g id="line2d_34">
    <path d="M 80.754545 423.626017 
L 120.209091 421.086338 
L 159.663636 418.729643 
L 199.118182 416.903337 
L 238.572727 416.225324 
L 278.027273 415.624216 
L 317.481818 414.736699 
L 356.936364 414.051613 
L 396.390909 413.83327 
L 435.845455 413.241886 
" clip-path="url(#p78dddfa1ee)" style="fill: none; stroke: #000000; stroke-opacity: 0.2; stroke-width: 2; stroke-linecap: round"/>
   </g>
   <g id="line2d_35">
    <path d="M 80.754545 429.074879 
L 120.209091 427.001942 
L 159.663636 425.500941 
L 199.118182 424.380937 
L 238.572727 423.417397 
L 278.027273 422.612974 
L 317.481818 421.925236 
L 356.936364 421.282582 
L 396.390909 420.649651 
L 435.845455 420.2386 
" clip-path="url(#p78dddfa1ee)" style="fill: none; stroke: #000000; stroke-opacity: 0.2; stroke-width: 2; stroke-linecap: round"/>
   </g>
   <g id="line2d_36">
    <path d="M 80.754545 430.91798 
L 120.209091 430.501625 
L 159.663636 430.1498 
L 199.118182 429.959744 
L 238.572727 429.774992 
L 278.027273 429.644163 
L 317.481818 429.513333 
L 356.936364 429.39488 
L 396.390909 429.243719 
L 435.845455 429.115542 
" clip-path="url(#p78dddfa1ee)" style="fill: none; stroke: #000000; stroke-opacity: 0.2; stroke-width: 2; stroke-linecap: round"/>
   </g>
   <g id="line2d_37">
    <path d="M 80.754545 430.143612 
L 120.209091 429.18626 
L 159.663636 428.562169 
L 199.118182 427.899183 
L 238.572727 427.644597 
L 278.027273 427.045257 
L 317.481818 426.263817 
L 356.936364 425.652986 
L 396.390909 425.420499 
L 435.845455 425.083702 
" clip-path="url(#p78dddfa1ee)" style="fill: none; stroke: #000000; stroke-opacity: 0.2; stroke-width: 2; stroke-linecap: round"/>
   </g>
   <g id="line2d_38">
    <path d="M 80.754545 367.829989 
L 120.209091 359.081224 
L 159.663636 344.023484 
L 199.118182 334.099908 
L 238.572727 325.76573 
L 278.027273 321.95135 
L 317.481818 317.48194 
L 356.936364 307.214495 
L 396.390909 309.725002 
L 435.845455 305.672831 
" clip-path="url(#p78dddfa1ee)" style="fill: none; stroke: #000000; stroke-opacity: 0.2; stroke-width: 2; stroke-linecap: round"/>
   </g>
   <g id="line2d_39">
    <path d="M 80.754545 423.645464 
L 120.209091 420.013184 
L 159.663636 417.74312 
L 199.118182 415.84698 
L 238.572727 414.00211 
L 278.027273 412.406524 
L 317.481818 411.14685 
L 356.936364 409.879221 
L 396.390909 408.40032 
L 435.845455 407.231696 
" clip-path="url(#p78dddfa1ee)" style="fill: none; stroke: #000000; stroke-opacity: 0.2; stroke-width: 2; stroke-linecap: round"/>
   </g>
   <g id="line2d_40">
    <path d="M 80.754545 429.266703 
L 120.209091 427.978742 
L 159.663636 427.058517 
L 199.118182 426.460061 
L 238.572727 425.782048 
L 278.027273 425.326797 
L 317.481818 424.951989 
L 356.936364 424.427788 
L 396.390909 424.137842 
L 435.845455 423.806349 
" clip-path="url(#p78dddfa1ee)" style="fill: none; stroke: #000000; stroke-opacity: 0.2; stroke-width: 2; stroke-linecap: round"/>
   </g>
   <g id="line2d_41">
    <path d="M 80.754545 400.564708 
L 120.209091 381.337226 
L 159.663636 372.18625 
L 199.118182 368.927894 
L 238.572727 361.828639 
L 278.027273 351.15633 
L 317.481818 349.898425 
L 356.936364 345.625258 
L 396.390909 345.669457 
L 435.845455 342.673644 
" clip-path="url(#p78dddfa1ee)" style="fill: none; stroke: #000000; stroke-opacity: 0.2; stroke-width: 2; stroke-linecap: round"/>
   </g>
   <g id="line2d_42">
    <path d="M 80.754545 421.425787 
L 120.209091 413.714816 
L 159.663636 408.286286 
L 199.118182 403.770909 
L 238.572727 399.988352 
L 278.027273 396.178392 
L 317.481818 393.525563 
L 356.936364 390.740137 
L 396.390909 387.826534 
L 435.845455 386.364429 
" clip-path="url(#p78dddfa1ee)" style="fill: none; stroke: #000000; stroke-opacity: 0.2; stroke-width: 2; stroke-linecap: round"/>
   </g>
   <g id="line2d_43">
    <path d="M 80.754545 415.74709 
L 120.209091 405.115444 
L 159.663636 401.073881 
L 199.118182 398.657076 
L 238.572727 394.989436 
L 278.027273 386.566861 
L 317.481818 380.016558 
L 356.936364 377.872019 
L 396.390909 373.110011 
L 435.845455 375.060074 
" clip-path="url(#p78dddfa1ee)" style="fill: none; stroke: #000000; stroke-opacity: 0.2; stroke-width: 2; stroke-linecap: round"/>
   </g>
   <g id="line2d_44">
    <path d="M 80.754545 423.354634 
L 120.209091 417.765219 
L 159.663636 419.653404 
L 199.118182 419.497823 
L 238.572727 420.409208 
L 278.027273 420.791088 
L 317.481818 416.96168 
L 356.936364 416.143997 
L 396.390909 418.732295 
L 435.845455 416.154605 
" clip-path="url(#p78dddfa1ee)" style="fill: none; stroke: #000000; stroke-opacity: 0.2; stroke-width: 2; stroke-linecap: round"/>
   </g>
   <g id="line2d_45">
    <path d="M 80.754545 429.59466 
L 120.209091 427.641945 
L 159.663636 425.999507 
L 199.118182 424.258947 
L 238.572727 424.540938 
L 278.027273 424.626684 
L 317.481818 424.647899 
L 356.936364 423.336955 
L 396.390909 422.239934 
L 435.845455 421.940264 
" clip-path="url(#p78dddfa1ee)" style="fill: none; stroke: #000000; stroke-opacity: 0.2; stroke-width: 2; stroke-linecap: round"/>
   </g>
   <g id="line2d_46">
    <path d="M 80.754545 394.051532 
L 120.209091 379.667385 
L 159.663636 365.643903 
L 199.118182 355.313695 
L 238.572727 357.485638 
L 278.027273 358.60741 
L 317.481818 350.87434 
L 356.936364 364.332074 
L 396.390909 357.427295 
L 435.845455 355.946626 
" clip-path="url(#p78dddfa1ee)" style="fill: none; stroke: #000000; stroke-opacity: 0.2; stroke-width: 2; stroke-linecap: round"/>
   </g>
   <g id="line2d_47">
    <path d="M 80.754545 430.379635 
L 120.209091 428.724822 
L 159.663636 427.042605 
L 199.118182 426.267353 
L 238.572727 426.441498 
L 278.027273 426.737632 
L 317.481818 426.847245 
L 356.936364 426.50868 
L 396.390909 426.280613 
L 435.845455 425.95796 
" clip-path="url(#p78dddfa1ee)" style="fill: none; stroke: #000000; stroke-opacity: 0.2; stroke-width: 2; stroke-linecap: round"/>
   </g>
   <g id="line2d_48">
    <path d="M 80.754545 424.549777 
L 120.209091 422.926787 
L 159.663636 422.185127 
L 199.118182 421.165896 
L 238.572727 420.762801 
L 278.027273 420.399484 
L 317.481818 419.946002 
L 356.936364 419.886775 
L 396.390909 419.763018 
L 435.845455 419.540254 
" clip-path="url(#p78dddfa1ee)" style="fill: none; stroke: #000000; stroke-opacity: 0.2; stroke-width: 2; stroke-linecap: round"/>
   </g>
   <g id="line2d_49">
    <path d="M 80.754545 419.317491 
L 120.209091 415.185761 
L 159.663636 412.841443 
L 199.118182 409.665297 
L 238.572727 406.531583 
L 278.027273 404.624835 
L 317.481818 405.591026 
L 356.936364 405.883624 
L 396.390909 405.166715 
L 435.845455 406.662412 
" clip-path="url(#p78dddfa1ee)" style="fill: none; stroke: #000000; stroke-opacity: 0.2; stroke-width: 2; stroke-linecap: round"/>
   </g>
   <g id="line2d_50">
    <path d="M 80.754545 416.616044 
L 120.209091 408.205844 
L 159.663636 399.118514 
L 199.118182 395.124686 
L 238.572727 392.254398 
L 278.027273 391.194504 
L 317.481818 385.537906 
L 356.936364 385.808405 
L 396.390909 385.878239 
L 435.845455 392.661029 
" clip-path="url(#p78dddfa1ee)" style="fill: none; stroke: #000000; stroke-opacity: 0.2; stroke-width: 2; stroke-linecap: round"/>
   </g>
   <g id="line2d_51">
    <path d="M 80.754545 429.57256 
L 120.209091 428.525042 
L 159.663636 428.487915 
L 199.118182 428.173217 
L 238.572727 427.969902 
L 278.027273 427.964598 
L 317.481818 428.009681 
L 356.936364 427.755094 
L 396.390909 428.12725 
L 435.845455 427.864708 
" clip-path="url(#p78dddfa1ee)" style="fill: none; stroke: #000000; stroke-opacity: 0.2; stroke-width: 2; stroke-linecap: round"/>
   </g>
   <g id="line2d_52">
    <path d="M 80.754545 424.528562 
L 120.209091 420.342025 
L 159.663636 416.89273 
L 199.118182 413.766087 
L 238.572727 411.600333 
L 278.027273 409.878337 
L 317.481818 408.019324 
L 356.936364 406.240753 
L 396.390909 404.708813 
L 435.845455 403.589692 
" clip-path="url(#p78dddfa1ee)" style="fill: none; stroke: #000000; stroke-opacity: 0.2; stroke-width: 2; stroke-linecap: round"/>
   </g>
   <g id="line2d_53">
    <path d="M 80.754545 370.197292 
L 120.209091 351.284508 
L 159.663636 345.05067 
L 199.118182 333.466093 
L 238.572727 339.060812 
L 278.027273 319.591119 
L 317.481818 301.463311 
L 356.936364 307.164992 
L 396.390909 283.746554 
L 435.845455 295.88362 
" clip-path="url(#p78dddfa1ee)" style="fill: none; stroke: #000000; stroke-opacity: 0.2; stroke-width: 2; stroke-linecap: round"/>
   </g>
   <g id="line2d_54">
    <path d="M 80.754545 414.97449 
L 120.209091 408.028163 
L 159.663636 403.041624 
L 199.118182 398.550114 
L 238.572727 396.268558 
L 278.027273 395.904357 
L 317.481818 402.434328 
L 356.936364 402.4635 
L 396.390909 403.074331 
L 435.845455 397.145467 
" clip-path="url(#p78dddfa1ee)" style="fill: none; stroke: #000000; stroke-opacity: 0.2; stroke-width: 2; stroke-linecap: round"/>
   </g>
   <g id="line2d_55">
    <path d="M 80.754545 428.620512 
L 120.209091 426.745587 
L 159.663636 425.264918 
L 199.118182 424.559501 
L 238.572727 423.377618 
L 278.027273 423.526127 
L 317.481818 423.454524 
L 356.936364 422.748223 
L 396.390909 422.215182 
L 435.845455 422.666897 
" clip-path="url(#p78dddfa1ee)" style="fill: none; stroke: #000000; stroke-opacity: 0.2; stroke-width: 2; stroke-linecap: round"/>
   </g>
   <g id="line2d_56">
    <path d="M 80.754545 428.306699 
L 120.209091 427.702055 
L 159.663636 426.555531 
L 199.118182 426.358403 
L 238.572727 425.908457 
L 278.027273 425.446135 
L 317.481818 424.758397 
L 356.936364 424.469335 
L 396.390909 424.872431 
L 435.845455 424.528562 
" clip-path="url(#p78dddfa1ee)" style="fill: none; stroke: #000000; stroke-opacity: 0.2; stroke-width: 2; stroke-linecap: round"/>
   </g>
   <g id="line2d_57">
    <path d="M 80.754545 393.36291 
L 120.209091 379.774347 
L 159.663636 378.011688 
L 199.118182 379.234234 
L 238.572727 374.450127 
L 278.027273 367.662917 
L 317.481818 365.506002 
L 356.936364 361.911733 
L 396.390909 357.780888 
L 435.845455 352.236556 
" clip-path="url(#p78dddfa1ee)" style="fill: none; stroke: #000000; stroke-opacity: 0.2; stroke-width: 2; stroke-linecap: round"/>
   </g>
   <g id="line2d_58">
    <path d="M 80.754545 422.195735 
L 120.209091 420.675287 
L 159.663636 420.841475 
L 199.118182 417.559252 
L 238.572727 414.901119 
L 278.027273 411.699338 
L 317.481818 409.591927 
L 356.936364 406.952358 
L 396.390909 401.198522 
L 435.845455 406.839208 
" clip-path="url(#p78dddfa1ee)" style="fill: none; stroke: #000000; stroke-opacity: 0.2; stroke-width: 2; stroke-linecap: round"/>
   </g>
   <g id="line2d_59">
    <path d="M 80.754545 415.353718 
L 120.209091 397.856188 
L 159.663636 385.515807 
L 199.118182 379.456998 
L 238.572727 372.486804 
L 278.027273 370.492541 
L 317.481818 364.355942 
L 356.936364 359.840564 
L 396.390909 353.046283 
L 435.845455 345.128461 
" clip-path="url(#p78dddfa1ee)" style="fill: none; stroke: #000000; stroke-opacity: 0.2; stroke-width: 2; stroke-linecap: round"/>
   </g>
   <g id="line2d_60">
    <path d="M 80.754545 371.065361 
L 120.209091 335.878478 
L 159.663636 295.671464 
L 199.118182 272.370596 
L 238.572727 270.956226 
L 278.027273 256.472189 
L 317.481818 264.180508 
L 356.936364 224.518026 
L 396.390909 237.608908 
L 435.845455 210.909131 
" clip-path="url(#p78dddfa1ee)" style="fill: none; stroke: #000000; stroke-opacity: 0.2; stroke-width: 2; stroke-linecap: round"/>
   </g>
   <g id="line2d_61">
    <path d="M 80.754545 419.703791 
L 120.209091 414.833937 
L 159.663636 411.271491 
L 199.118182 410.289388 
L 238.572727 408.980211 
L 278.027273 405.512352 
L 317.481818 406.035669 
L 356.936364 406.465284 
L 396.390909 407.285619 
L 435.845455 404.303065 
" clip-path="url(#p78dddfa1ee)" style="fill: none; stroke: #000000; stroke-opacity: 0.2; stroke-width: 2; stroke-linecap: round"/>
   </g>
   <g id="line2d_62">
    <path d="M 80.754545 428.910458 
L 120.209091 426.686361 
L 159.663636 425.137625 
L 199.118182 424.646131 
L 238.572727 423.354634 
L 278.027273 422.088773 
L 317.481818 420.233296 
L 356.936364 419.653404 
L 396.390909 418.827765 
L 435.845455 417.791739 
" clip-path="url(#p78dddfa1ee)" style="fill: none; stroke: #000000; stroke-opacity: 0.2; stroke-width: 2; stroke-linecap: round"/>
   </g>
   <g id="line2d_63">
    <path d="M 80.754545 387.588743 
L 120.209091 366.831974 
L 159.663636 358.815146 
L 199.118182 356.454031 
L 238.572727 345.633214 
L 278.027273 341.387451 
L 317.481818 335.968644 
L 356.936364 338.108764 
L 396.390909 332.44863 
L 435.845455 332.582111 
" clip-path="url(#p78dddfa1ee)" style="fill: none; stroke: #000000; stroke-opacity: 0.2; stroke-width: 2; stroke-linecap: round"/>
   </g>
   <g id="line2d_64">
    <path d="M 80.754545 407.275011 
L 120.209091 388.32068 
L 159.663636 380.062525 
L 199.118182 372.83244 
L 238.572727 366.899157 
L 278.027273 361.60676 
L 317.481818 374.270678 
L 356.936364 365.018044 
L 396.390909 363.875056 
L 435.845455 362.801018 
" clip-path="url(#p78dddfa1ee)" style="fill: none; stroke: #000000; stroke-opacity: 0.2; stroke-width: 2; stroke-linecap: round"/>
   </g>
   <g id="line2d_65">
    <path d="M 80.754545 382.786072 
L 120.209091 379.43755 
L 159.663636 343.791881 
L 199.118182 347.301287 
L 238.572727 337.041798 
L 278.027273 339.44888 
L 317.481818 339.575289 
L 356.936364 298.609819 
L 396.390909 316.652765 
L 435.845455 344.232103 
" clip-path="url(#p78dddfa1ee)" style="fill: none; stroke: #000000; stroke-opacity: 0.2; stroke-width: 2; stroke-linecap: round"/>
   </g>
   <g id="line2d_66">
    <path d="M 80.754545 422.449437 
L 120.209091 417.123449 
L 159.663636 415.167198 
L 199.118182 411.031932 
L 238.572727 407.691366 
L 278.027273 404.842294 
L 317.481818 399.120282 
L 356.936364 396.159828 
L 396.390909 391.940584 
L 435.845455 388.668085 
" clip-path="url(#p78dddfa1ee)" style="fill: none; stroke: #000000; stroke-opacity: 0.2; stroke-width: 2; stroke-linecap: round"/>
   </g>
   <g id="line2d_67">
    <path d="M 80.754545 410.146183 
L 120.209091 393.781918 
L 159.663636 385.933046 
L 199.118182 382.183197 
L 238.572727 377.963069 
L 278.027273 376.20041 
L 317.481818 375.890132 
L 356.936364 379.159096 
L 396.390909 379.354456 
L 435.845455 375.840629 
" clip-path="url(#p78dddfa1ee)" style="fill: none; stroke: #000000; stroke-opacity: 0.2; stroke-width: 2; stroke-linecap: round"/>
   </g>
   <g id="line2d_68">
    <path d="M 80.754545 416.559469 
L 120.209091 404.769808 
L 159.663636 397.712983 
L 199.118182 395.625903 
L 238.572727 388.092613 
L 278.027273 384.609726 
L 317.481818 381.864079 
L 356.936364 377.612128 
L 396.390909 377.063176 
L 435.845455 376.828921 
" clip-path="url(#p78dddfa1ee)" style="fill: none; stroke: #000000; stroke-opacity: 0.2; stroke-width: 2; stroke-linecap: round"/>
   </g>
   <g id="line2d_69">
    <path d="M 80.754545 428.135206 
L 120.209091 426.043706 
L 159.663636 423.625133 
L 199.118182 421.046559 
L 238.572727 417.120797 
L 278.027273 414.136475 
L 317.481818 411.361658 
L 356.936364 406.996557 
L 396.390909 402.810021 
L 435.845455 399.543709 
" clip-path="url(#p78dddfa1ee)" style="fill: none; stroke: #000000; stroke-opacity: 0.2; stroke-width: 2; stroke-linecap: round"/>
   </g>
   <g id="line2d_70">
    <path d="M 80.754545 402.020625 
L 120.209091 387.684213 
L 159.663636 379.417219 
L 199.118182 375.435766 
L 238.572727 371.270445 
L 278.027273 368.620269 
L 317.481818 363.97141 
L 356.936364 359.137799 
L 396.390909 358.032822 
L 435.845455 354.870821 
" clip-path="url(#p78dddfa1ee)" style="fill: none; stroke: #000000; stroke-opacity: 0.2; stroke-width: 2; stroke-linecap: round"/>
   </g>
   <g id="line2d_71">
    <path d="M 80.754545 421.668882 
L 120.209091 412.925421 
L 159.663636 407.362525 
L 199.118182 402.611125 
L 238.572727 398.083372 
L 278.027273 392.942135 
L 317.481818 389.312507 
L 356.936364 386.02056 
L 396.390909 384.508068 
L 435.845455 382.189384 
" clip-path="url(#p78dddfa1ee)" style="fill: none; stroke: #000000; stroke-opacity: 0.2; stroke-width: 2; stroke-linecap: round"/>
   </g>
   <g id="line2d_72">
    <path d="M 80.754545 398.127571 
L 120.209091 367.791094 
L 159.663636 354.163635 
L 199.118182 328.808394 
L 238.572727 294.936876 
L 278.027273 284.24512 
L 317.481818 239.427258 
L 356.936364 230.606891 
L 396.390909 188.819318 
L 435.845455 172.920027 
" clip-path="url(#p78dddfa1ee)" style="fill: none; stroke: #000000; stroke-opacity: 0.2; stroke-width: 2; stroke-linecap: round"/>
   </g>
   <g id="line2d_73">
    <path d="M 80.754545 428.246588 
L 120.209091 425.613207 
L 159.663636 423.77099 
L 199.118182 421.764352 
L 238.572727 419.553514 
L 278.027273 417.798811 
L 317.481818 416.538253 
L 356.936364 415.714382 
L 396.390909 414.585538 
L 435.845455 414.464433 
" clip-path="url(#p78dddfa1ee)" style="fill: none; stroke: #000000; stroke-opacity: 0.2; stroke-width: 2; stroke-linecap: round"/>
   </g>
   <g id="line2d_74">
    <path d="M 80.754545 391.701909 
L 120.209091 376.867816 
L 159.663636 374.626923 
L 199.118182 364.822684 
L 238.572727 362.435934 
L 278.027273 365.643019 
L 317.481818 359.738907 
L 356.936364 363.896272 
L 396.390909 363.830857 
L 435.845455 354.292697 
" clip-path="url(#p78dddfa1ee)" style="fill: none; stroke: #000000; stroke-opacity: 0.2; stroke-width: 2; stroke-linecap: round"/>
   </g>
   <g id="line2d_75">
    <path d="M 80.754545 416.557701 
L 120.209091 406.734898 
L 159.663636 400.227027 
L 199.118182 393.755398 
L 238.572727 386.076251 
L 278.027273 383.579003 
L 317.481818 376.990689 
L 356.936364 372.727247 
L 396.390909 376.287924 
L 435.845455 379.069814 
" clip-path="url(#p78dddfa1ee)" style="fill: none; stroke: #000000; stroke-opacity: 0.2; stroke-width: 2; stroke-linecap: round"/>
   </g>
   <g id="line2d_76">
    <path d="M 80.754545 366.204347 
L 120.209091 363.201462 
L 159.663636 342.882264 
L 199.118182 346.233437 
L 238.572727 343.440056 
L 278.027273 353.152361 
L 317.481818 349.510357 
L 356.936364 331.257907 
L 396.390909 358.417354 
L 435.845455 349.425495 
" clip-path="url(#p78dddfa1ee)" style="fill: none; stroke: #000000; stroke-opacity: 0.2; stroke-width: 2; stroke-linecap: round"/>
   </g>
   <g id="line2d_77">
    <path d="M 80.754545 421.278162 
L 120.209091 412.082102 
L 159.663636 404.528481 
L 199.118182 398.546578 
L 238.572727 393.39827 
L 278.027273 386.776364 
L 317.481818 381.262088 
L 356.936364 376.79091 
L 396.390909 373.620952 
L 435.845455 371.129008 
" clip-path="url(#p78dddfa1ee)" style="fill: none; stroke: #000000; stroke-opacity: 0.2; stroke-width: 2; stroke-linecap: round"/>
   </g>
   <g id="line2d_78">
    <path d="M 80.754545 420.202356 
L 120.209091 414.158575 
L 159.663636 410.985081 
L 199.118182 409.411594 
L 238.572727 407.198105 
L 278.027273 406.550146 
L 317.481818 407.0549 
L 356.936364 405.029698 
L 396.390909 405.676773 
L 435.845455 403.997208 
" clip-path="url(#p78dddfa1ee)" style="fill: none; stroke: #000000; stroke-opacity: 0.2; stroke-width: 2; stroke-linecap: round"/>
   </g>
   <g id="line2d_79">
    <path d="M 80.754545 412.250059 
L 120.209091 397.283368 
L 159.663636 385.05702 
L 199.118182 371.896304 
L 238.572727 367.141368 
L 278.027273 364.53097 
L 317.481818 359.521447 
L 356.936364 347.07322 
L 396.390909 342.366018 
L 435.845455 329.763094 
" clip-path="url(#p78dddfa1ee)" style="fill: none; stroke: #000000; stroke-opacity: 0.2; stroke-width: 2; stroke-linecap: round"/>
   </g>
   <g id="line2d_80">
    <path d="M 80.754545 301.290051 
L 120.209091 216.537442 
L 159.663636 185.729803 
L 199.118182 139.878567 
L 238.572727 110.133474 
L 278.027273 124.559168 
L 317.481818 154.814318 
L 356.936364 81.49159 
L 396.390909 104.594446 
L 435.845455 96.136511 
" clip-path="url(#p78dddfa1ee)" style="fill: none; stroke: #000000; stroke-opacity: 0.2; stroke-width: 2; stroke-linecap: round"/>
   </g>
   <g id="line2d_81">
    <path d="M 80.754545 375.788475 
L 120.209091 345.993878 
L 159.663636 326.372141 
L 199.118182 313.049656 
L 238.572727 296.975337 
L 278.027273 272.611039 
L 317.481818 168.762662 
L 356.936364 150.495185 
L 396.390909 165.811932 
L 435.845455 152.763481 
" clip-path="url(#p78dddfa1ee)" style="fill: none; stroke: #000000; stroke-opacity: 0.2; stroke-width: 2; stroke-linecap: round"/>
   </g>
   <g id="line2d_82">
    <path d="M 80.754545 425.934976 
L 120.209091 422.715516 
L 159.663636 422.410542 
L 199.118182 423.720603 
L 238.572727 422.447669 
L 278.027273 421.586671 
L 317.481818 418.67572 
L 356.936364 419.860256 
L 396.390909 420.248323 
L 435.845455 419.583569 
" clip-path="url(#p78dddfa1ee)" style="fill: none; stroke: #000000; stroke-opacity: 0.2; stroke-width: 2; stroke-linecap: round"/>
   </g>
   <g id="line2d_83">
    <path d="M 80.754545 418.315056 
L 120.209091 409.378887 
L 159.663636 400.463934 
L 199.118182 392.915616 
L 238.572727 387.009736 
L 278.027273 382.649055 
L 317.481818 383.519777 
L 356.936364 381.864079 
L 396.390909 378.173457 
L 435.845455 376.667152 
" clip-path="url(#p78dddfa1ee)" style="fill: none; stroke: #000000; stroke-opacity: 0.2; stroke-width: 2; stroke-linecap: round"/>
   </g>
   <g id="line2d_84">
    <path d="M 80.754545 426.445918 
L 120.209091 424.783148 
L 159.663636 423.402369 
L 199.118182 422.777394 
L 238.572727 421.159708 
L 278.027273 421.980927 
L 317.481818 421.26225 
L 356.936364 421.461146 
L 396.390909 419.717935 
L 435.845455 419.671968 
" clip-path="url(#p78dddfa1ee)" style="fill: none; stroke: #000000; stroke-opacity: 0.2; stroke-width: 2; stroke-linecap: round"/>
   </g>
   <g id="line2d_85">
    <path d="M 80.754545 427.830233 
L 120.209091 424.502926 
L 159.663636 421.797059 
L 199.118182 419.535834 
L 238.572727 418.087873 
L 278.027273 416.98378 
L 317.481818 416.057367 
L 356.936364 415.019573 
L 396.390909 413.362992 
L 435.845455 412.605419 
" clip-path="url(#p78dddfa1ee)" style="fill: none; stroke: #000000; stroke-opacity: 0.2; stroke-width: 2; stroke-linecap: round"/>
   </g>
   <g id="line2d_86">
    <path d="M 80.754545 354.087613 
L 120.209091 340.034075 
L 159.663636 320.826926 
L 199.118182 285.087554 
L 238.572727 331.987192 
L 278.027273 328.978119 
L 317.481818 337.496164 
L 356.936364 289.830115 
L 396.390909 311.657386 
L 435.845455 269.667381 
" clip-path="url(#p78dddfa1ee)" style="fill: none; stroke: #000000; stroke-opacity: 0.2; stroke-width: 2; stroke-linecap: round"/>
   </g>
   <g id="line2d_87">
    <path d="M 80.754545 380.909379 
L 120.209091 382.734801 
L 159.663636 338.320919 
L 199.118182 345.73664 
L 238.572727 328.382315 
L 278.027273 317.202601 
L 317.481818 339.967777 
L 356.936364 349.479417 
L 396.390909 355.569166 
L 435.845455 358.470393 
" clip-path="url(#p78dddfa1ee)" style="fill: none; stroke: #000000; stroke-opacity: 0.2; stroke-width: 2; stroke-linecap: round"/>
   </g>
   <g id="line2d_88">
    <path d="M 80.754545 429.366453 
L 120.209091 427.969977 
L 159.663636 426.974151 
L 199.118182 426.159965 
L 238.572727 425.457002 
L 278.027273 424.831108 
L 317.481818 424.262603 
L 356.936364 423.738922 
L 396.390909 423.251472 
L 435.845455 422.79407 
" clip-path="url(#p78dddfa1ee)" style="fill: none; stroke-dasharray: 7.4,3.2; stroke-dashoffset: 0; stroke: #000000; stroke-opacity: 0.6; stroke-width: 2"/>
   </g>
   <g id="line2d_89">
    <path d="M 80.754545 429.799271 
L 120.209091 428.257985 
L 159.663636 427.101649 
L 199.118182 426.128403 
L 238.572727 425.270283 
L 278.027273 424.493499 
L 317.481818 423.778223 
L 356.936364 423.111611 
L 396.390909 422.484769 
L 435.845455 421.891232 
" clip-path="url(#p78dddfa1ee)" style="fill: none; stroke-dasharray: 7.4,3.2; stroke-dashoffset: 0; stroke: #000000; stroke-opacity: 0.6; stroke-width: 2"/>
   </g>
   <g id="line2d_90">
    <path d="M 80.754545 389.404013 
L 120.209091 379.580254 
L 159.663636 372.908945 
L 199.118182 367.602336 
L 238.572727 363.110616 
L 278.027273 359.17329 
L 317.481818 355.642818 
L 356.936364 352.426299 
L 396.390909 349.46091 
L 435.845455 346.701905 
" clip-path="url(#p78dddfa1ee)" style="fill: none; stroke-dasharray: 7.4,3.2; stroke-dashoffset: 0; stroke: #000000; stroke-opacity: 0.6; stroke-width: 2"/>
   </g>
   <g id="line2d_91">
    <path d="M 80.754545 422.628508 
L 120.209091 420.043812 
L 159.663636 418.416664 
L 199.118182 417.175325 
L 238.572727 416.155714 
L 278.027273 415.282817 
L 317.481818 414.515241 
L 356.936364 413.82746 
L 396.390909 413.202508 
L 435.845455 412.628483 
" clip-path="url(#p78dddfa1ee)" style="fill: none; stroke-dasharray: 7.4,3.2; stroke-dashoffset: 0; stroke: #000000; stroke-opacity: 0.6; stroke-width: 2"/>
   </g>
   <g id="line2d_92">
    <path d="M 80.754545 428.215916 
L 120.209091 425.14342 
L 159.663636 422.721084 
L 199.118182 420.622774 
L 238.572727 418.733648 
L 278.027273 416.995183 
L 317.481818 415.372415 
L 356.936364 413.842365 
L 396.390909 412.388927 
L 435.845455 411.000269 
" clip-path="url(#p78dddfa1ee)" style="fill: none; stroke-dasharray: 7.4,3.2; stroke-dashoffset: 0; stroke: #000000; stroke-opacity: 0.6; stroke-width: 2"/>
   </g>
   <g id="line2d_93">
    <path d="M 80.754545 423.615356 
L 120.209091 417.133372 
L 159.663636 412.727386 
L 199.118182 409.220888 
L 238.572727 406.251746 
L 278.027273 403.648311 
L 317.481818 401.313331 
L 356.936364 399.185554 
L 396.390909 397.223549 
L 435.845455 395.397804 
" clip-path="url(#p78dddfa1ee)" style="fill: none; stroke-dasharray: 7.4,3.2; stroke-dashoffset: 0; stroke: #000000; stroke-opacity: 0.6; stroke-width: 2"/>
   </g>
   <g id="line2d_94">
    <path d="M 80.754545 429.741715 
L 120.209091 428.304004 
L 159.663636 427.242537 
L 199.118182 426.357331 
L 238.572727 425.582029 
L 278.027273 424.883894 
L 317.481818 424.24383 
L 356.936364 423.649523 
L 396.390909 423.092479 
L 435.845455 422.566545 
" clip-path="url(#p78dddfa1ee)" style="fill: none; stroke-dasharray: 7.4,3.2; stroke-dashoffset: 0; stroke: #000000; stroke-opacity: 0.6; stroke-width: 2"/>
   </g>
   <g id="line2d_95">
    <path d="M 80.754545 429.603474 
L 120.209091 427.890719 
L 159.663636 426.691182 
L 199.118182 425.720388 
L 238.572727 424.888359 
L 278.027273 424.151831 
L 317.481818 423.486033 
L 356.936364 422.875233 
L 396.390909 422.308713 
L 435.845455 421.778795 
" clip-path="url(#p78dddfa1ee)" style="fill: none; stroke-dasharray: 7.4,3.2; stroke-dashoffset: 0; stroke: #000000; stroke-opacity: 0.6; stroke-width: 2"/>
   </g>
   <g id="line2d_96">
    <path d="M 80.754545 429.912627 
L 120.209091 428.648982 
L 159.663636 427.749402 
L 199.118182 427.01461 
L 238.572727 426.380635 
L 278.027273 425.816474 
L 317.481818 425.304271 
L 356.936364 424.832636 
L 396.390909 424.393777 
L 435.845455 423.982094 
" clip-path="url(#p78dddfa1ee)" style="fill: none; stroke-dasharray: 7.4,3.2; stroke-dashoffset: 0; stroke: #000000; stroke-opacity: 0.6; stroke-width: 2"/>
   </g>
   <g id="line2d_97">
    <path d="M 80.754545 416.773763 
L 120.209091 408.634088 
L 159.663636 404.267931 
L 199.118182 401.207581 
L 238.572727 398.841613 
L 278.027273 396.910069 
L 317.481818 395.276851 
L 356.936364 393.861468 
L 396.390909 392.61227 
L 435.845455 391.494092 
" clip-path="url(#p78dddfa1ee)" style="fill: none; stroke-dasharray: 7.4,3.2; stroke-dashoffset: 0; stroke: #000000; stroke-opacity: 0.6; stroke-width: 2"/>
   </g>
   <g id="line2d_98">
    <path d="M 80.754545 429.297534 
L 120.209091 427.241008 
L 159.663636 425.767075 
L 199.118182 424.558531 
L 238.572727 423.51292 
L 278.027273 422.580423 
L 317.481818 421.732285 
L 356.936364 420.95012 
L 396.390909 420.221338 
L 435.845455 419.536872 
" clip-path="url(#p78dddfa1ee)" style="fill: none; stroke-dasharray: 7.4,3.2; stroke-dashoffset: 0; stroke: #000000; stroke-opacity: 0.6; stroke-width: 2"/>
   </g>
   <g id="line2d_99">
    <path d="M 80.754545 427.602075 
L 120.209091 423.969924 
L 159.663636 421.34134 
L 199.118182 419.174119 
L 238.572727 417.291582 
L 278.027273 415.607414 
L 317.481818 414.071619 
L 356.936364 412.652147 
L 396.390909 411.326993 
L 435.845455 410.080284 
" clip-path="url(#p78dddfa1ee)" style="fill: none; stroke-dasharray: 7.4,3.2; stroke-dashoffset: 0; stroke: #000000; stroke-opacity: 0.6; stroke-width: 2"/>
   </g>
   <g id="line2d_100">
    <path d="M 80.754545 422.658381 
L 120.209091 419.542625 
L 159.663636 417.247285 
L 199.118182 415.335497 
L 238.572727 413.662589 
L 278.027273 412.157267 
L 317.481818 410.777974 
L 356.936364 409.497931 
L 396.390909 408.298676 
L 435.845455 407.16684 
" clip-path="url(#p78dddfa1ee)" style="fill: none; stroke-dasharray: 7.4,3.2; stroke-dashoffset: 0; stroke: #000000; stroke-opacity: 0.6; stroke-width: 2"/>
   </g>
   <g id="line2d_101">
    <path d="M 80.754545 422.079166 
L 120.209091 415.500318 
L 159.663636 410.630169 
L 199.118182 406.562519 
L 238.572727 402.995948 
L 278.027273 399.781566 
L 317.481818 396.832429 
L 356.936364 394.092435 
L 396.390909 391.522862 
L 435.845455 389.09564 
" clip-path="url(#p78dddfa1ee)" style="fill: none; stroke-dasharray: 7.4,3.2; stroke-dashoffset: 0; stroke: #000000; stroke-opacity: 0.6; stroke-width: 2"/>
   </g>
   <g id="line2d_102">
    <path d="M 80.754545 429.591313 
L 120.209091 427.736159 
L 159.663636 426.288327 
L 199.118182 425.041566 
L 238.572727 423.923911 
L 278.027273 422.898875 
L 317.481818 421.944738 
L 356.936364 421.047269 
L 396.390909 420.196518 
L 435.845455 419.385192 
" clip-path="url(#p78dddfa1ee)" style="fill: none; stroke-dasharray: 7.4,3.2; stroke-dashoffset: 0; stroke: #000000; stroke-opacity: 0.6; stroke-width: 2"/>
   </g>
   <g id="line2d_103">
    <path d="M 80.754545 421.859627 
L 120.209091 416.697806 
L 159.663636 413.01119 
L 199.118182 409.994359 
L 238.572727 407.387988 
L 278.027273 405.0662 
L 317.481818 402.956423 
L 356.936364 401.012307 
L 396.390909 399.202135 
L 435.845455 397.503084 
" clip-path="url(#p78dddfa1ee)" style="fill: none; stroke-dasharray: 7.4,3.2; stroke-dashoffset: 0; stroke: #000000; stroke-opacity: 0.6; stroke-width: 2"/>
   </g>
   <g id="line2d_104">
    <path d="M 80.754545 427.262587 
L 120.209091 424.175287 
L 159.663636 422.035694 
L 199.118182 420.314318 
L 238.572727 418.845282 
L 278.027273 417.549226 
L 317.481818 416.380882 
L 356.936364 415.311585 
L 396.390909 414.321855 
L 435.845455 413.397763 
" clip-path="url(#p78dddfa1ee)" style="fill: none; stroke-dasharray: 7.4,3.2; stroke-dashoffset: 0; stroke: #000000; stroke-opacity: 0.6; stroke-width: 2"/>
   </g>
   <g id="line2d_105">
    <path d="M 80.754545 429.605337 
L 120.209091 428.336073 
L 159.663636 427.426016 
L 199.118182 426.67965 
L 238.572727 426.033801 
L 278.027273 425.457747 
L 317.481818 424.93375 
L 356.936364 424.450468 
L 396.390909 424.000135 
L 435.845455 423.577156 
" clip-path="url(#p78dddfa1ee)" style="fill: none; stroke-dasharray: 7.4,3.2; stroke-dashoffset: 0; stroke: #000000; stroke-opacity: 0.6; stroke-width: 2"/>
   </g>
   <g id="line2d_106">
    <path d="M 80.754545 423.634255 
L 120.209091 423.263571 
L 159.663636 422.761053 
L 199.118182 422.149559 
L 238.572727 421.442134 
L 278.027273 420.647652 
L 317.481818 419.772693 
L 356.936364 418.82241 
L 396.390909 417.800985 
L 435.845455 416.711908 
" clip-path="url(#p78dddfa1ee)" style="fill: none; stroke-dasharray: 7.4,3.2; stroke-dashoffset: 0; stroke: #000000; stroke-opacity: 0.6; stroke-width: 2"/>
   </g>
   <g id="line2d_107">
    <path d="M 80.754545 423.712514 
L 120.209091 420.588624 
L 159.663636 418.784903 
L 199.118182 417.471186 
L 238.572727 416.427362 
L 278.027273 415.556725 
L 317.481818 414.807422 
L 356.936364 414.148205 
L 396.390909 413.558701 
L 435.845455 413.02485 
" clip-path="url(#p78dddfa1ee)" style="fill: none; stroke-dasharray: 7.4,3.2; stroke-dashoffset: 0; stroke: #000000; stroke-opacity: 0.6; stroke-width: 2"/>
   </g>
   <g id="line2d_108">
    <path d="M 80.754545 429.054186 
L 120.209091 426.970334 
L 159.663636 425.561065 
L 199.118182 424.442677 
L 238.572727 423.497612 
L 278.027273 422.670281 
L 317.481818 421.929246 
L 356.936364 421.254734 
L 396.390909 420.633386 
L 435.845455 420.055698 
" clip-path="url(#p78dddfa1ee)" style="fill: none; stroke-dasharray: 7.4,3.2; stroke-dashoffset: 0; stroke: #000000; stroke-opacity: 0.6; stroke-width: 2"/>
   </g>
   <g id="line2d_109">
    <path d="M 80.754545 430.92 
L 120.209091 430.475152 
L 159.663636 430.189268 
L 199.118182 429.968699 
L 238.572727 429.786056 
L 278.027273 429.628696 
L 317.481818 429.489594 
L 356.936364 429.364394 
L 396.390909 429.250186 
L 435.845455 429.144922 
" clip-path="url(#p78dddfa1ee)" style="fill: none; stroke-dasharray: 7.4,3.2; stroke-dashoffset: 0; stroke: #000000; stroke-opacity: 0.6; stroke-width: 2"/>
   </g>
   <g id="line2d_110">
    <path d="M 80.754545 430.127573 
L 120.209091 429.267491 
L 159.663636 428.568237 
L 199.118182 427.95149 
L 238.572727 427.388894 
L 278.027273 426.865774 
L 317.481818 426.373264 
L 356.936364 425.905483 
L 396.390909 425.458276 
L 435.845455 425.028573 
" clip-path="url(#p78dddfa1ee)" style="fill: none; stroke-dasharray: 7.4,3.2; stroke-dashoffset: 0; stroke: #000000; stroke-opacity: 0.6; stroke-width: 2"/>
   </g>
   <g id="line2d_111">
    <path d="M 80.754545 369.173092 
L 120.209091 354.533124 
L 159.663636 344.281253 
L 199.118182 335.984932 
L 238.572727 328.87486 
L 278.027273 322.581143 
L 317.481818 316.892016 
L 356.936364 311.672984 
L 396.390909 306.832436 
L 435.845455 302.304721 
" clip-path="url(#p78dddfa1ee)" style="fill: none; stroke-dasharray: 7.4,3.2; stroke-dashoffset: 0; stroke: #000000; stroke-opacity: 0.6; stroke-width: 2"/>
   </g>
   <g id="line2d_112">
    <path d="M 80.754545 423.613038 
L 120.209091 420.174035 
L 159.663636 417.7194 
L 199.118182 415.711432 
L 238.572727 413.977105 
L 278.027273 412.432455 
L 317.481818 411.029085 
L 356.936364 409.736093 
L 396.390909 408.532333 
L 435.845455 407.402592 
" clip-path="url(#p78dddfa1ee)" style="fill: none; stroke-dasharray: 7.4,3.2; stroke-dashoffset: 0; stroke: #000000; stroke-opacity: 0.6; stroke-width: 2"/>
   </g>
   <g id="line2d_113">
    <path d="M 80.754545 429.268988 
L 120.209091 427.960071 
L 159.663636 427.091339 
L 199.118182 426.409072 
L 238.572727 425.836855 
L 278.027273 425.338876 
L 317.481818 424.895011 
L 356.936364 424.49267 
L 396.390909 424.123384 
L 435.845455 423.78115 
" clip-path="url(#p78dddfa1ee)" style="fill: none; stroke-dasharray: 7.4,3.2; stroke-dashoffset: 0; stroke: #000000; stroke-opacity: 0.6; stroke-width: 2"/>
   </g>
   <g id="line2d_114">
    <path d="M 80.754545 400.432415 
L 120.209091 382.57842 
L 159.663636 372.552894 
L 199.118182 365.35704 
L 238.572727 359.698999 
L 278.027273 355.018236 
L 317.481818 351.016943 
L 356.936364 347.516923 
L 396.390909 344.402703 
L 435.845455 341.595008 
" clip-path="url(#p78dddfa1ee)" style="fill: none; stroke-dasharray: 7.4,3.2; stroke-dashoffset: 0; stroke: #000000; stroke-opacity: 0.6; stroke-width: 2"/>
   </g>
   <g id="line2d_115">
    <path d="M 80.754545 421.439232 
L 120.209091 413.659827 
L 159.663636 408.195564 
L 199.118182 403.766014 
L 238.572727 399.965113 
L 278.027273 396.597336 
L 317.481818 393.550619 
L 356.936364 390.753729 
L 396.390909 388.158114 
L 435.845455 385.728954 
" clip-path="url(#p78dddfa1ee)" style="fill: none; stroke-dasharray: 7.4,3.2; stroke-dashoffset: 0; stroke: #000000; stroke-opacity: 0.6; stroke-width: 2"/>
   </g>
   <g id="line2d_116">
    <path d="M 80.754545 415.336094 
L 120.209091 407.431542 
L 159.663636 401.303182 
L 199.118182 396.046177 
L 238.572727 391.346697 
L 278.027273 387.046146 
L 317.481818 383.050347 
L 356.936364 379.297713 
L 396.390909 375.745252 
L 435.845455 372.361496 
" clip-path="url(#p78dddfa1ee)" style="fill: none; stroke-dasharray: 7.4,3.2; stroke-dashoffset: 0; stroke: #000000; stroke-opacity: 0.6; stroke-width: 2"/>
   </g>
   <g id="line2d_117">
    <path d="M 80.754545 422.473201 
L 120.209091 420.809433 
L 159.663636 419.916981 
L 199.118182 419.291439 
L 238.572727 418.80783 
L 278.027273 418.413018 
L 317.481818 418.079184 
L 356.936364 417.789877 
L 396.390909 417.534538 
L 435.845455 417.30598 
" clip-path="url(#p78dddfa1ee)" style="fill: none; stroke-dasharray: 7.4,3.2; stroke-dashoffset: 0; stroke: #000000; stroke-opacity: 0.6; stroke-width: 2"/>
   </g>
   <g id="line2d_118">
    <path d="M 80.754545 429.394312 
L 120.209091 427.642823 
L 159.663636 426.477764 
L 199.118182 425.561644 
L 238.572727 424.792611 
L 278.027273 424.122882 
L 317.481818 423.525587 
L 356.936364 422.983903 
L 396.390909 422.486509 
L 435.845455 422.025375 
" clip-path="url(#p78dddfa1ee)" style="fill: none; stroke-dasharray: 7.4,3.2; stroke-dashoffset: 0; stroke: #000000; stroke-opacity: 0.6; stroke-width: 2"/>
   </g>
   <g id="line2d_119">
    <path d="M 80.754545 391.75145 
L 120.209091 378.313 
L 159.663636 371.104557 
L 199.118182 366.051978 
L 238.572727 362.145809 
L 278.027273 358.956866 
L 317.481818 356.260454 
L 356.936364 353.923684 
L 396.390909 351.861281 
L 435.845455 350.015192 
" clip-path="url(#p78dddfa1ee)" style="fill: none; stroke-dasharray: 7.4,3.2; stroke-dashoffset: 0; stroke: #000000; stroke-opacity: 0.6; stroke-width: 2"/>
   </g>
   <g id="line2d_120">
    <path d="M 80.754545 429.997997 
L 120.209091 428.831167 
L 159.663636 428.090298 
L 199.118182 427.522453 
L 238.572727 427.054471 
L 278.027273 426.652773 
L 317.481818 426.298775 
L 356.936364 425.980989 
L 396.390909 425.691767 
L 435.845455 425.425732 
" clip-path="url(#p78dddfa1ee)" style="fill: none; stroke-dasharray: 7.4,3.2; stroke-dashoffset: 0; stroke: #000000; stroke-opacity: 0.6; stroke-width: 2"/>
   </g>
   <g id="line2d_121">
    <path d="M 80.754545 424.556386 
L 120.209091 422.886567 
L 159.663636 421.99087 
L 199.118182 421.363053 
L 238.572727 420.877685 
L 278.027273 420.481437 
L 317.481818 420.14639 
L 356.936364 419.85603 
L 396.390909 419.599763 
L 435.845455 419.370374 
" clip-path="url(#p78dddfa1ee)" style="fill: none; stroke-dasharray: 7.4,3.2; stroke-dashoffset: 0; stroke: #000000; stroke-opacity: 0.6; stroke-width: 2"/>
   </g>
   <g id="line2d_122">
    <path d="M 80.754545 419.445401 
L 120.209091 414.467266 
L 159.663636 411.796973 
L 199.118182 409.925297 
L 238.572727 408.478297 
L 278.027273 407.296986 
L 317.481818 406.298128 
L 356.936364 405.432496 
L 396.390909 404.6685 
L 435.845455 403.984635 
" clip-path="url(#p78dddfa1ee)" style="fill: none; stroke-dasharray: 7.4,3.2; stroke-dashoffset: 0; stroke: #000000; stroke-opacity: 0.6; stroke-width: 2"/>
   </g>
   <g id="line2d_123">
    <path d="M 80.754545 416.074813 
L 120.209091 406.457093 
L 159.663636 401.048592 
L 199.118182 397.163662 
L 238.572727 394.107312 
L 278.027273 391.577788 
L 317.481818 389.414695 
L 356.936364 387.522023 
L 396.390909 385.837536 
L 435.845455 384.318498 
" clip-path="url(#p78dddfa1ee)" style="fill: none; stroke-dasharray: 7.4,3.2; stroke-dashoffset: 0; stroke: #000000; stroke-opacity: 0.6; stroke-width: 2"/>
   </g>
   <g id="line2d_124">
    <path d="M 80.754545 429.393224 
L 120.209091 428.837102 
L 159.663636 428.538796 
L 199.118182 428.329706 
L 238.572727 428.168057 
L 278.027273 428.036089 
L 317.481818 427.924504 
L 356.936364 427.827802 
L 396.390909 427.742453 
L 435.845455 427.666057 
" clip-path="url(#p78dddfa1ee)" style="fill: none; stroke-dasharray: 7.4,3.2; stroke-dashoffset: 0; stroke: #000000; stroke-opacity: 0.6; stroke-width: 2"/>
   </g>
   <g id="line2d_125">
    <path d="M 80.754545 424.576059 
L 120.209091 420.054919 
L 159.663636 416.822426 
L 199.118182 414.175605 
L 238.572727 411.887901 
L 278.027273 409.849279 
L 317.481818 407.996283 
L 356.936364 406.288369 
L 396.390909 404.697787 
L 435.845455 403.204566 
" clip-path="url(#p78dddfa1ee)" style="fill: none; stroke-dasharray: 7.4,3.2; stroke-dashoffset: 0; stroke: #000000; stroke-opacity: 0.6; stroke-width: 2"/>
   </g>
   <g id="line2d_126">
    <path d="M 80.754545 368.703437 
L 120.209091 355.895117 
L 159.663636 345.200384 
L 199.118182 335.61748 
L 238.572727 326.774896 
L 278.027273 318.477776 
L 317.481818 310.607192 
L 356.936364 303.08364 
L 396.390909 295.850586 
L 435.845455 288.865986 
" clip-path="url(#p78dddfa1ee)" style="fill: none; stroke-dasharray: 7.4,3.2; stroke-dashoffset: 0; stroke: #000000; stroke-opacity: 0.6; stroke-width: 2"/>
   </g>
   <g id="line2d_127">
    <path d="M 80.754545 413.433955 
L 120.209091 408.047773 
L 159.663636 405.158601 
L 199.118182 403.133508 
L 238.572727 401.5679 
L 278.027273 400.28976 
L 317.481818 399.209027 
L 356.936364 398.272441 
L 396.390909 397.445822 
L 435.845455 396.705902 
" clip-path="url(#p78dddfa1ee)" style="fill: none; stroke-dasharray: 7.4,3.2; stroke-dashoffset: 0; stroke: #000000; stroke-opacity: 0.6; stroke-width: 2"/>
   </g>
   <g id="line2d_128">
    <path d="M 80.754545 428.529513 
L 120.209091 426.608072 
L 159.663636 425.509453 
L 199.118182 424.713408 
L 238.572727 424.083233 
L 278.027273 423.559133 
L 317.481818 423.109147 
L 356.936364 422.714065 
L 396.390909 422.361389 
L 435.845455 422.042509 
" clip-path="url(#p78dddfa1ee)" style="fill: none; stroke-dasharray: 7.4,3.2; stroke-dashoffset: 0; stroke: #000000; stroke-opacity: 0.6; stroke-width: 2"/>
   </g>
   <g id="line2d_129">
    <path d="M 80.754545 428.368714 
L 120.209091 427.42947 
L 159.663636 426.79009 
L 199.118182 426.280818 
L 238.572727 425.849331 
L 278.027273 425.470812 
L 317.481818 425.131193 
L 356.936364 424.821608 
L 396.390909 424.53606 
L 435.845455 424.270275 
" clip-path="url(#p78dddfa1ee)" style="fill: none; stroke-dasharray: 7.4,3.2; stroke-dashoffset: 0; stroke: #000000; stroke-opacity: 0.6; stroke-width: 2"/>
   </g>
   <g id="line2d_130">
    <path d="M 80.754545 391.543595 
L 120.209091 384.939941 
L 159.663636 379.808848 
L 199.118182 375.40166 
L 238.572727 371.458197 
L 278.027273 367.846832 
L 317.481818 364.48934 
L 356.936364 361.334529 
L 396.390909 358.34665 
L 435.845455 355.499519 
" clip-path="url(#p78dddfa1ee)" style="fill: none; stroke-dasharray: 7.4,3.2; stroke-dashoffset: 0; stroke: #000000; stroke-opacity: 0.6; stroke-width: 2"/>
   </g>
   <g id="line2d_131">
    <path d="M 80.754545 422.486575 
L 120.209091 421.042056 
L 159.663636 419.287652 
L 199.118182 417.301905 
L 238.572727 415.125505 
L 278.027273 412.784482 
L 317.481818 410.297269 
L 356.936364 407.677755 
L 396.390909 404.936865 
L 435.845455 402.083465 
" clip-path="url(#p78dddfa1ee)" style="fill: none; stroke-dasharray: 7.4,3.2; stroke-dashoffset: 0; stroke: #000000; stroke-opacity: 0.6; stroke-width: 2"/>
   </g>
   <g id="line2d_132">
    <path d="M 80.754545 414.212078 
L 120.209091 399.257043 
L 159.663636 388.97277 
L 199.118182 380.73463 
L 238.572727 373.726156 
L 278.027273 367.558187 
L 317.481818 362.009337 
L 356.936364 356.939719 
L 396.390909 352.254454 
L 435.845455 347.885798 
" clip-path="url(#p78dddfa1ee)" style="fill: none; stroke-dasharray: 7.4,3.2; stroke-dashoffset: 0; stroke: #000000; stroke-opacity: 0.6; stroke-width: 2"/>
   </g>
   <g id="line2d_133">
    <path d="M 80.754545 371.069929 
L 120.209091 328.980995 
L 159.663636 303.676199 
L 199.118182 284.845095 
L 238.572727 269.650707 
L 278.027273 256.823372 
L 317.481818 245.673217 
L 356.936364 235.780013 
L 396.390909 226.867343 
L 435.845455 218.742992 
" clip-path="url(#p78dddfa1ee)" style="fill: none; stroke-dasharray: 7.4,3.2; stroke-dashoffset: 0; stroke: #000000; stroke-opacity: 0.6; stroke-width: 2"/>
   </g>
   <g id="line2d_134">
    <path d="M 80.754545 419.549562 
L 120.209091 414.663485 
L 159.663636 412.042572 
L 199.118182 410.205509 
L 238.572727 408.785267 
L 278.027273 407.625802 
L 317.481818 406.645415 
L 356.936364 405.795791 
L 396.390909 405.045923 
L 435.845455 404.374704 
" clip-path="url(#p78dddfa1ee)" style="fill: none; stroke-dasharray: 7.4,3.2; stroke-dashoffset: 0; stroke: #000000; stroke-opacity: 0.6; stroke-width: 2"/>
   </g>
   <g id="line2d_135">
    <path d="M 80.754545 428.863166 
L 120.209091 426.945662 
L 159.663636 425.423231 
L 199.118182 424.099007 
L 238.572727 422.903223 
L 278.027273 421.800202 
L 317.481818 420.768574 
L 356.936364 419.794264 
L 396.390909 418.86739 
L 435.845455 417.980682 
" clip-path="url(#p78dddfa1ee)" style="fill: none; stroke-dasharray: 7.4,3.2; stroke-dashoffset: 0; stroke: #000000; stroke-opacity: 0.6; stroke-width: 2"/>
   </g>
   <g id="line2d_136">
    <path d="M 80.754545 387.096875 
L 120.209091 368.908329 
L 159.663636 359.151913 
L 199.118182 352.313395 
L 238.572727 347.02651 
L 278.027273 342.71037 
L 317.481818 339.060855 
L 356.936364 335.898107 
L 396.390909 333.106705 
L 435.845455 330.608077 
" clip-path="url(#p78dddfa1ee)" style="fill: none; stroke-dasharray: 7.4,3.2; stroke-dashoffset: 0; stroke: #000000; stroke-opacity: 0.6; stroke-width: 2"/>
   </g>
   <g id="line2d_137">
    <path d="M 80.754545 405.333222 
L 120.209091 390.310795 
L 159.663636 382.2527 
L 199.118182 376.604578 
L 238.572727 372.237992 
L 278.027273 368.673173 
L 317.481818 365.658936 
L 356.936364 363.046734 
L 396.390909 360.741238 
L 435.845455 358.677551 
" clip-path="url(#p78dddfa1ee)" style="fill: none; stroke-dasharray: 7.4,3.2; stroke-dashoffset: 0; stroke: #000000; stroke-opacity: 0.6; stroke-width: 2"/>
   </g>
   <g id="line2d_138">
    <path d="M 80.754545 385.026542 
L 120.209091 366.802193 
L 159.663636 356.033803 
L 199.118182 348.094193 
L 238.572727 341.730262 
L 278.027273 336.385629 
L 317.481818 331.75972 
L 356.936364 327.670281 
L 396.390909 323.997888 
L 435.845455 320.659772 
" clip-path="url(#p78dddfa1ee)" style="fill: none; stroke-dasharray: 7.4,3.2; stroke-dashoffset: 0; stroke: #000000; stroke-opacity: 0.6; stroke-width: 2"/>
   </g>
   <g id="line2d_139">
    <path d="M 80.754545 422.167124 
L 120.209091 418.350043 
L 159.663636 414.595805 
L 199.118182 410.88011 
L 238.572727 407.19252 
L 278.027273 403.527076 
L 317.481818 399.879906 
L 356.936364 396.248285 
L 396.390909 392.630194 
L 435.845455 389.024073 
" clip-path="url(#p78dddfa1ee)" style="fill: none; stroke-dasharray: 7.4,3.2; stroke-dashoffset: 0; stroke: #000000; stroke-opacity: 0.6; stroke-width: 2"/>
   </g>
   <g id="line2d_140">
    <path d="M 80.754545 408.353697 
L 120.209091 396.334558 
L 159.663636 389.887439 
L 199.118182 385.368491 
L 238.572727 381.874874 
L 278.027273 379.022734 
L 317.481818 376.611105 
L 356.936364 374.521135 
L 396.390909 372.676554 
L 435.845455 371.02544 
" clip-path="url(#p78dddfa1ee)" style="fill: none; stroke-dasharray: 7.4,3.2; stroke-dashoffset: 0; stroke: #000000; stroke-opacity: 0.6; stroke-width: 2"/>
   </g>
   <g id="line2d_141">
    <path d="M 80.754545 416.35472 
L 120.209091 405.277102 
L 159.663636 398.421764 
L 199.118182 393.240246 
L 238.572727 389.012526 
L 278.027273 385.412046 
L 317.481818 382.259643 
L 356.936364 379.44534 
L 396.390909 376.896325 
L 435.845455 374.561688 
" clip-path="url(#p78dddfa1ee)" style="fill: none; stroke-dasharray: 7.4,3.2; stroke-dashoffset: 0; stroke: #000000; stroke-opacity: 0.6; stroke-width: 2"/>
   </g>
   <g id="line2d_142">
    <path d="M 80.754545 428.135514 
L 120.209091 426.072862 
L 159.663636 423.573731 
L 199.118182 420.749478 
L 238.572727 417.657667 
L 278.027273 414.335078 
L 317.481818 410.807726 
L 356.936364 407.0952 
L 396.390909 403.212897 
L 435.845455 399.173305 
" clip-path="url(#p78dddfa1ee)" style="fill: none; stroke-dasharray: 7.4,3.2; stroke-dashoffset: 0; stroke: #000000; stroke-opacity: 0.6; stroke-width: 2"/>
   </g>
   <g id="line2d_143">
    <path d="M 80.754545 401.867539 
L 120.209091 388.25737 
L 159.663636 380.471333 
L 199.118182 374.828073 
L 238.572727 370.359792 
L 278.027273 366.643041 
L 317.481818 363.451476 
L 356.936364 360.649009 
L 396.390909 358.147097 
L 435.845455 355.884745 
" clip-path="url(#p78dddfa1ee)" style="fill: none; stroke-dasharray: 7.4,3.2; stroke-dashoffset: 0; stroke: #000000; stroke-opacity: 0.6; stroke-width: 2"/>
   </g>
   <g id="line2d_144">
    <path d="M 80.754545 421.659798 
L 120.209091 413.164351 
L 159.663636 407.052832 
L 199.118182 402.031093 
L 238.572727 397.679713 
L 278.027273 393.794383 
L 317.481818 390.257013 
L 356.936364 386.992027 
L 396.390909 383.947618 
L 435.845455 381.086452 
" clip-path="url(#p78dddfa1ee)" style="fill: none; stroke-dasharray: 7.4,3.2; stroke-dashoffset: 0; stroke: #000000; stroke-opacity: 0.6; stroke-width: 2"/>
   </g>
   <g id="line2d_145">
    <path d="M 80.754545 397.300922 
L 120.209091 373.634763 
L 159.663636 349.366401 
L 199.118182 324.714011 
L 238.572727 299.774865 
L 278.027273 274.60573 
L 317.481818 249.244121 
L 356.936364 223.716772 
L 396.390909 198.043743 
L 435.845455 172.240665 
" clip-path="url(#p78dddfa1ee)" style="fill: none; stroke-dasharray: 7.4,3.2; stroke-dashoffset: 0; stroke: #000000; stroke-opacity: 0.6; stroke-width: 2"/>
   </g>
   <g id="line2d_146">
    <path d="M 80.754545 428.274957 
L 120.209091 425.548365 
L 159.663636 423.427136 
L 199.118182 421.603851 
L 238.572727 419.971553 
L 278.027273 418.476095 
L 317.481818 417.085287 
L 356.936364 415.778055 
L 396.390909 414.539675 
L 435.845455 413.359362 
" clip-path="url(#p78dddfa1ee)" style="fill: none; stroke-dasharray: 7.4,3.2; stroke-dashoffset: 0; stroke: #000000; stroke-opacity: 0.6; stroke-width: 2"/>
   </g>
   <g id="line2d_147">
    <path d="M 80.754545 390.092384 
L 120.209091 379.292754 
L 159.663636 373.499785 
L 199.118182 369.439348 
L 238.572727 366.300207 
L 278.027273 363.737457 
L 317.481818 361.570521 
L 356.936364 359.692607 
L 396.390909 358.035185 
L 435.845455 356.5516 
" clip-path="url(#p78dddfa1ee)" style="fill: none; stroke-dasharray: 7.4,3.2; stroke-dashoffset: 0; stroke: #000000; stroke-opacity: 0.6; stroke-width: 2"/>
   </g>
   <g id="line2d_148">
    <path d="M 80.754545 416.775126 
L 120.209091 405.874278 
L 159.663636 398.731926 
L 199.118182 393.162404 
L 238.572727 388.515115 
L 278.027273 384.487006 
L 317.481818 380.908548 
L 356.936364 377.674048 
L 396.390909 374.712621 
L 435.845455 371.974141 
" clip-path="url(#p78dddfa1ee)" style="fill: none; stroke-dasharray: 7.4,3.2; stroke-dashoffset: 0; stroke: #000000; stroke-opacity: 0.6; stroke-width: 2"/>
   </g>
   <g id="line2d_149">
    <path d="M 80.754545 363.489728 
L 120.209091 357.317597 
L 159.663636 354.006839 
L 199.118182 351.686245 
L 238.572727 349.892185 
L 278.027273 348.427539 
L 317.481818 347.189107 
L 356.936364 346.115855 
L 396.390909 345.168616 
L 435.845455 344.320727 
" clip-path="url(#p78dddfa1ee)" style="fill: none; stroke-dasharray: 7.4,3.2; stroke-dashoffset: 0; stroke: #000000; stroke-opacity: 0.6; stroke-width: 2"/>
   </g>
   <g id="line2d_150">
    <path d="M 80.754545 421.297757 
L 120.209091 411.974621 
L 159.663636 404.645868 
L 199.118182 398.308328 
L 238.572727 392.609689 
L 278.027273 387.370682 
L 317.481818 382.484314 
L 356.936364 377.880331 
L 396.390909 373.509524 
L 435.845455 369.33577 
" clip-path="url(#p78dddfa1ee)" style="fill: none; stroke-dasharray: 7.4,3.2; stroke-dashoffset: 0; stroke: #000000; stroke-opacity: 0.6; stroke-width: 2"/>
   </g>
   <g id="line2d_151">
    <path d="M 80.754545 419.839915 
L 120.209091 414.586475 
L 159.663636 411.768506 
L 199.118182 409.793321 
L 238.572727 408.266298 
L 278.027273 407.019657 
L 317.481818 405.965559 
L 356.936364 405.052055 
L 396.390909 404.245807 
L 435.845455 403.524123 
" clip-path="url(#p78dddfa1ee)" style="fill: none; stroke-dasharray: 7.4,3.2; stroke-dashoffset: 0; stroke: #000000; stroke-opacity: 0.6; stroke-width: 2"/>
   </g>
   <g id="line2d_152">
    <path d="M 80.754545 412.239949 
L 120.209091 396.764785 
L 159.663636 385.436252 
L 199.118182 376.034769 
L 238.572727 367.829514 
L 278.027273 360.461448 
L 317.481818 353.721751 
L 356.936364 347.476117 
L 396.390909 341.63209 
L 435.845455 336.122805 
" clip-path="url(#p78dddfa1ee)" style="fill: none; stroke-dasharray: 7.4,3.2; stroke-dashoffset: 0; stroke: #000000; stroke-opacity: 0.6; stroke-width: 2"/>
   </g>
   <g id="line2d_153">
    <path d="M 80.754545 294.921288 
L 120.209091 226.178941 
L 159.663636 188.857615 
L 199.118182 162.535074 
L 238.572727 142.094719 
L 278.027273 125.34954 
L 317.481818 111.150121 
L 356.936364 98.814614 
L 396.390909 87.904337 
L 435.845455 78.12 
" clip-path="url(#p78dddfa1ee)" style="fill: none; stroke-dasharray: 7.4,3.2; stroke-dashoffset: 0; stroke: #000000; stroke-opacity: 0.6; stroke-width: 2"/>
   </g>
   <g id="line2d_154">
    <path d="M 80.754545 373.57489 
L 120.209091 353.507932 
L 159.663636 330.405507 
L 199.118182 305.146895 
L 238.572727 278.16654 
L 278.027273 249.734345 
L 317.481818 220.037223 
L 356.936364 189.213526 
L 396.390909 157.370438 
L 435.845455 124.593804 
" clip-path="url(#p78dddfa1ee)" style="fill: none; stroke-dasharray: 7.4,3.2; stroke-dashoffset: 0; stroke: #000000; stroke-opacity: 0.6; stroke-width: 2"/>
   </g>
   <g id="line2d_155">
    <path d="M 80.754545 425.729524 
L 120.209091 423.874442 
L 159.663636 422.84076 
L 199.118182 422.101811 
L 238.572727 421.522448 
L 278.027273 421.044232 
L 317.481818 420.636193 
L 356.936364 420.279835 
L 396.390909 419.963195 
L 435.845455 419.678069 
" clip-path="url(#p78dddfa1ee)" style="fill: none; stroke-dasharray: 7.4,3.2; stroke-dashoffset: 0; stroke: #000000; stroke-opacity: 0.6; stroke-width: 2"/>
   </g>
   <g id="line2d_156">
    <path d="M 80.754545 418.27812 
L 120.209091 407.57764 
L 159.663636 400.526774 
L 199.118182 395.011382 
L 238.572727 390.398901 
L 278.027273 386.393887 
L 317.481818 382.830748 
L 356.936364 379.606083 
L 396.390909 376.650454 
L 435.845455 373.914702 
" clip-path="url(#p78dddfa1ee)" style="fill: none; stroke-dasharray: 7.4,3.2; stroke-dashoffset: 0; stroke: #000000; stroke-opacity: 0.6; stroke-width: 2"/>
   </g>
   <g id="line2d_157">
    <path d="M 80.754545 426.466092 
L 120.209091 424.615472 
L 159.663636 423.52078 
L 199.118182 422.713185 
L 238.572727 422.065593 
L 278.027273 421.521547 
L 317.481818 421.050534 
L 356.936364 420.634049 
L 396.390909 420.259963 
L 435.845455 419.919867 
" clip-path="url(#p78dddfa1ee)" style="fill: none; stroke-dasharray: 7.4,3.2; stroke-dashoffset: 0; stroke: #000000; stroke-opacity: 0.6; stroke-width: 2"/>
   </g>
   <g id="line2d_158">
    <path d="M 80.754545 427.742849 
L 120.209091 424.37625 
L 159.663636 422.018012 
L 199.118182 420.109279 
L 238.572727 418.473261 
L 278.027273 417.024944 
L 317.481818 415.715649 
L 356.936364 414.514458 
L 396.390909 413.40031 
L 435.845455 412.358111 
" clip-path="url(#p78dddfa1ee)" style="fill: none; stroke-dasharray: 7.4,3.2; stroke-dashoffset: 0; stroke: #000000; stroke-opacity: 0.6; stroke-width: 2"/>
   </g>
   <g id="line2d_159">
    <path d="M 80.754545 353.009839 
L 120.209091 336.865271 
L 159.663636 327.882681 
L 199.118182 321.466283 
L 238.572727 316.43838 
L 278.027273 312.290071 
L 317.481818 308.751783 
L 356.936364 305.662596 
L 396.390909 302.918437 
L 435.845455 300.447982 
" clip-path="url(#p78dddfa1ee)" style="fill: none; stroke-dasharray: 7.4,3.2; stroke-dashoffset: 0; stroke: #000000; stroke-opacity: 0.6; stroke-width: 2"/>
   </g>
   <g id="line2d_160">
    <path d="M 80.754545 379.736023 
L 120.209091 365.872851 
L 159.663636 358.436585 
L 199.118182 353.224318 
L 238.572727 349.194695 
L 278.027273 345.904966 
L 317.481818 343.123333 
L 356.936364 340.71271 
L 396.390909 338.585125 
L 435.845455 336.680689 
" clip-path="url(#p78dddfa1ee)" style="fill: none; stroke-dasharray: 7.4,3.2; stroke-dashoffset: 0; stroke: #000000; stroke-opacity: 0.6; stroke-width: 2"/>
   </g>
   <g id="patch_3">
    <path d="M 63 448.56 
L 63 60.48 
" style="fill: none; stroke: #262626; stroke-width: 1.25; stroke-linejoin: miter; stroke-linecap: square"/>
   </g>
   <g id="patch_4">
    <path d="M 453.6 448.56 
L 453.6 60.48 
" style="fill: none; stroke: #262626; stroke-width: 1.25; stroke-linejoin: miter; stroke-linecap: square"/>
   </g>
   <g id="patch_5">
    <path d="M 63 448.56 
L 453.6 448.56 
" style="fill: none; stroke: #262626; stroke-width: 1.25; stroke-linejoin: miter; stroke-linecap: square"/>
   </g>
   <g id="patch_6">
    <path d="M 63 60.48 
L 453.6 60.48 
" style="fill: none; stroke: #262626; stroke-width: 1.25; stroke-linejoin: miter; stroke-linecap: square"/>
   </g>
   <g id="text_17">
    <!-- Fit to 2D MSD -->
    <g style="fill: #262626" transform="translate(195.514063 54.48) scale(0.2 -0.2)">
     <defs>
      <path id="ArialMT-46" d="M 525 0 
L 525 4581 
L 3616 4581 
L 3616 4041 
L 1131 4041 
L 1131 2622 
L 3281 2622 
L 3281 2081 
L 1131 2081 
L 1131 0 
L 525 0 
z
" transform="scale(0.015625)"/>
      <path id="ArialMT-6f" d="M 213 1659 
Q 213 2581 725 3025 
Q 1153 3394 1769 3394 
Q 2453 3394 2887 2945 
Q 3322 2497 3322 1706 
Q 3322 1066 3130 698 
Q 2938 331 2570 128 
Q 2203 -75 1769 -75 
Q 1072 -75 642 372 
Q 213 819 213 1659 
z
M 791 1659 
Q 791 1022 1069 705 
Q 1347 388 1769 388 
Q 2188 388 2466 706 
Q 2744 1025 2744 1678 
Q 2744 2294 2464 2611 
Q 2184 2928 1769 2928 
Q 1347 2928 1069 2612 
Q 791 2297 791 1659 
z
" transform="scale(0.015625)"/>
     </defs>
     <use xlink:href="#ArialMT-46"/>
     <use xlink:href="#ArialMT-69" x="61.083984"/>
     <use xlink:href="#ArialMT-74" x="83.300781"/>
     <use xlink:href="#ArialMT-20" x="111.083984"/>
     <use xlink:href="#ArialMT-74" x="138.867188"/>
     <use xlink:href="#ArialMT-6f" x="166.650391"/>
     <use xlink:href="#ArialMT-20" x="222.265625"/>
     <use xlink:href="#ArialMT-32" x="250.048828"/>
     <use xlink:href="#ArialMT-44" x="305.664062"/>
     <use xlink:href="#ArialMT-20" x="377.880859"/>
     <use xlink:href="#ArialMT-4d" x="405.664062"/>
     <use xlink:href="#ArialMT-53" x="488.964844"/>
     <use xlink:href="#ArialMT-44" x="555.664062"/>
    </g>
   </g>
   <g id="legend_1">
    <g id="line2d_161">
     <path d="M 75.6 78.200937 
L 89.6 78.200937 
L 103.6 78.200937 
" style="fill: none; stroke: #000000; stroke-width: 1.5; stroke-linecap: round"/>
    </g>
    <g id="text_18">
     <!-- Data -->
     <g style="fill: #262626" transform="translate(114.8 83.100937) scale(0.14 -0.14)">
      <use xlink:href="#ArialMT-44"/>
      <use xlink:href="#ArialMT-61" x="72.216797"/>
      <use xlink:href="#ArialMT-74" x="127.832031"/>
      <use xlink:href="#ArialMT-61" x="155.615234"/>
     </g>
    </g>
    <g id="line2d_162">
     <path d="M 75.6 98.004375 
L 89.6 98.004375 
L 103.6 98.004375 
" style="fill: none; stroke-dasharray: 5.55,2.4; stroke-dashoffset: 0; stroke: #000000; stroke-width: 1.5"/>
    </g>
    <g id="text_19">
     <!-- Fit -->
     <g style="fill: #262626" transform="translate(114.8 102.904375) scale(0.14 -0.14)">
      <use xlink:href="#ArialMT-46"/>
      <use xlink:href="#ArialMT-69" x="61.083984"/>
      <use xlink:href="#ArialMT-74" x="83.300781"/>
     </g>
    </g>
   </g>
  </g>
 </g>
 <defs>
  <clipPath id="p78dddfa1ee">
   <rect x="63" y="60.48" width="390.6" height="388.08"/>
  </clipPath>
 </defs>
</svg>
