<?xml version="1.0" encoding="utf-8" standalone="no"?>
<!DOCTYPE svg PUBLIC "-//W3C//DTD SVG 1.1//EN"
  "http://www.w3.org/Graphics/SVG/1.1/DTD/svg11.dtd">
<svg xmlns:xlink="http://www.w3.org/1999/xlink" width="504pt" height="504pt" viewBox="0 0 504 504" xmlns="http://www.w3.org/2000/svg" version="1.1">
 <metadata>
  <rdf:RDF xmlns:dc="http://purl.org/dc/elements/1.1/" xmlns:cc="http://creativecommons.org/ns#" xmlns:rdf="http://www.w3.org/1999/02/22-rdf-syntax-ns#">
   <cc:Work>
    <dc:type rdf:resource="http://purl.org/dc/dcmitype/StillImage"/>
    <dc:date>2025-06-03T12:40:20.739013</dc:date>
    <dc:format>image/svg+xml</dc:format>
    <dc:creator>
     <cc:Agent>
      <dc:title>Matplotlib v3.8.0, https://matplotlib.org/</dc:title>
     </cc:Agent>
    </dc:creator>
   </cc:Work>
  </rdf:RDF>
 </metadata>
 <defs>
  <style type="text/css">*{stroke-linejoin: round; stroke-linecap: butt}</style>
 </defs>
 <g id="figure_1">
  <g id="patch_1">
   <path d="M 0 504 
L 504 504 
L 504 0 
L 0 0 
z
" style="fill: #ffffff"/>
  </g>
  <g id="axes_1">
   <g id="patch_2">
    <path d="M 63 448.56 
L 453.6 448.56 
L 453.6 60.48 
L 63 60.48 
z
" style="fill: #ffffff"/>
   </g>
   <g id="matplotlib.axis_1">
    <g id="xtick_1">
     <g id="line2d_1">
      <defs>
       <path id="m9e47b026e1" d="M 0 0 
L 0 5 
" style="stroke: #262626; stroke-width: 0.8"/>
      </defs>
      <g>
       <use xlink:href="#m9e47b026e1" x="120.209091" y="448.56" style="fill: #262626; stroke: #262626; stroke-width: 0.8"/>
      </g>
     </g>
     <g id="text_1">
      <!-- 0.1 -->
      <g style="fill: #262626" transform="translate(110.479091 467.080938) scale(0.14 -0.14)">
       <defs>
        <path id="ArialMT-30" d="M 266 2259 
Q 266 3072 433 3567 
Q 600 4063 929 4331 
Q 1259 4600 1759 4600 
Q 2128 4600 2406 4451 
Q 2684 4303 2865 4023 
Q 3047 3744 3150 3342 
Q 3253 2941 3253 2259 
Q 3253 1453 3087 958 
Q 2922 463 2592 192 
Q 2263 -78 1759 -78 
Q 1097 -78 719 397 
Q 266 969 266 2259 
z
M 844 2259 
Q 844 1131 1108 757 
Q 1372 384 1759 384 
Q 2147 384 2411 759 
Q 2675 1134 2675 2259 
Q 2675 3391 2411 3762 
Q 2147 4134 1753 4134 
Q 1366 4134 1134 3806 
Q 844 3388 844 2259 
z
" transform="scale(0.015625)"/>
        <path id="ArialMT-2e" d="M 581 0 
L 581 641 
L 1222 641 
L 1222 0 
L 581 0 
z
" transform="scale(0.015625)"/>
        <path id="ArialMT-31" d="M 2384 0 
L 1822 0 
L 1822 3584 
Q 1619 3391 1289 3197 
Q 959 3003 697 2906 
L 697 3450 
Q 1169 3672 1522 3987 
Q 1875 4303 2022 4600 
L 2384 4600 
L 2384 0 
z
" transform="scale(0.015625)"/>
       </defs>
       <use xlink:href="#ArialMT-30"/>
       <use xlink:href="#ArialMT-2e" x="55.615234"/>
       <use xlink:href="#ArialMT-31" x="83.398438"/>
      </g>
     </g>
    </g>
    <g id="xtick_2">
     <g id="line2d_2">
      <g>
       <use xlink:href="#m9e47b026e1" x="199.118182" y="448.56" style="fill: #262626; stroke: #262626; stroke-width: 0.8"/>
      </g>
     </g>
     <g id="text_2">
      <!-- 0.2 -->
      <g style="fill: #262626" transform="translate(189.388182 467.080938) scale(0.14 -0.14)">
       <defs>
        <path id="ArialMT-32" d="M 3222 541 
L 3222 0 
L 194 0 
Q 188 203 259 391 
Q 375 700 629 1000 
Q 884 1300 1366 1694 
Q 2113 2306 2375 2664 
Q 2638 3022 2638 3341 
Q 2638 3675 2398 3904 
Q 2159 4134 1775 4134 
Q 1369 4134 1125 3890 
Q 881 3647 878 3216 
L 300 3275 
Q 359 3922 746 4261 
Q 1134 4600 1788 4600 
Q 2447 4600 2831 4234 
Q 3216 3869 3216 3328 
Q 3216 3053 3103 2787 
Q 2991 2522 2730 2228 
Q 2469 1934 1863 1422 
Q 1356 997 1212 845 
Q 1069 694 975 541 
L 3222 541 
z
" transform="scale(0.015625)"/>
       </defs>
       <use xlink:href="#ArialMT-30"/>
       <use xlink:href="#ArialMT-2e" x="55.615234"/>
       <use xlink:href="#ArialMT-32" x="83.398438"/>
      </g>
     </g>
    </g>
    <g id="xtick_3">
     <g id="line2d_3">
      <g>
       <use xlink:href="#m9e47b026e1" x="278.027273" y="448.56" style="fill: #262626; stroke: #262626; stroke-width: 0.8"/>
      </g>
     </g>
     <g id="text_3">
      <!-- 0.3 -->
      <g style="fill: #262626" transform="translate(268.297273 467.080938) scale(0.14 -0.14)">
       <defs>
        <path id="ArialMT-33" d="M 269 1209 
L 831 1284 
Q 928 806 1161 595 
Q 1394 384 1728 384 
Q 2125 384 2398 659 
Q 2672 934 2672 1341 
Q 2672 1728 2419 1979 
Q 2166 2231 1775 2231 
Q 1616 2231 1378 2169 
L 1441 2663 
Q 1497 2656 1531 2656 
Q 1891 2656 2178 2843 
Q 2466 3031 2466 3422 
Q 2466 3731 2256 3934 
Q 2047 4138 1716 4138 
Q 1388 4138 1169 3931 
Q 950 3725 888 3313 
L 325 3413 
Q 428 3978 793 4289 
Q 1159 4600 1703 4600 
Q 2078 4600 2393 4439 
Q 2709 4278 2876 4000 
Q 3044 3722 3044 3409 
Q 3044 3113 2884 2869 
Q 2725 2625 2413 2481 
Q 2819 2388 3044 2092 
Q 3269 1797 3269 1353 
Q 3269 753 2831 336 
Q 2394 -81 1725 -81 
Q 1122 -81 723 278 
Q 325 638 269 1209 
z
" transform="scale(0.015625)"/>
       </defs>
       <use xlink:href="#ArialMT-30"/>
       <use xlink:href="#ArialMT-2e" x="55.615234"/>
       <use xlink:href="#ArialMT-33" x="83.398438"/>
      </g>
     </g>
    </g>
    <g id="xtick_4">
     <g id="line2d_4">
      <g>
       <use xlink:href="#m9e47b026e1" x="356.936364" y="448.56" style="fill: #262626; stroke: #262626; stroke-width: 0.8"/>
      </g>
     </g>
     <g id="text_4">
      <!-- 0.4 -->
      <g style="fill: #262626" transform="translate(347.206364 467.080938) scale(0.14 -0.14)">
       <defs>
        <path id="ArialMT-34" d="M 2069 0 
L 2069 1097 
L 81 1097 
L 81 1613 
L 2172 4581 
L 2631 4581 
L 2631 1613 
L 3250 1613 
L 3250 1097 
L 2631 1097 
L 2631 0 
L 2069 0 
z
M 2069 1613 
L 2069 3678 
L 634 1613 
L 2069 1613 
z
" transform="scale(0.015625)"/>
       </defs>
       <use xlink:href="#ArialMT-30"/>
       <use xlink:href="#ArialMT-2e" x="55.615234"/>
       <use xlink:href="#ArialMT-34" x="83.398438"/>
      </g>
     </g>
    </g>
    <g id="xtick_5">
     <g id="line2d_5">
      <g>
       <use xlink:href="#m9e47b026e1" x="435.845455" y="448.56" style="fill: #262626; stroke: #262626; stroke-width: 0.8"/>
      </g>
     </g>
     <g id="text_5">
      <!-- 0.5 -->
      <g style="fill: #262626" transform="translate(426.115455 467.080938) scale(0.14 -0.14)">
       <defs>
        <path id="ArialMT-35" d="M 266 1200 
L 856 1250 
Q 922 819 1161 601 
Q 1400 384 1738 384 
Q 2144 384 2425 690 
Q 2706 997 2706 1503 
Q 2706 1984 2436 2262 
Q 2166 2541 1728 2541 
Q 1456 2541 1237 2417 
Q 1019 2294 894 2097 
L 366 2166 
L 809 4519 
L 3088 4519 
L 3088 3981 
L 1259 3981 
L 1013 2750 
Q 1425 3038 1878 3038 
Q 2478 3038 2890 2622 
Q 3303 2206 3303 1553 
Q 3303 931 2941 478 
Q 2500 -78 1738 -78 
Q 1113 -78 717 272 
Q 322 622 266 1200 
z
" transform="scale(0.015625)"/>
       </defs>
       <use xlink:href="#ArialMT-30"/>
       <use xlink:href="#ArialMT-2e" x="55.615234"/>
       <use xlink:href="#ArialMT-35" x="83.398438"/>
      </g>
     </g>
    </g>
    <g id="text_6">
     <!-- lag time [s] -->
     <g style="fill: #262626" transform="translate(219.6225 485.315938) scale(0.16 -0.16)">
      <defs>
       <path id="ArialMT-6c" d="M 409 0 
L 409 4581 
L 972 4581 
L 972 0 
L 409 0 
z
" transform="scale(0.015625)"/>
       <path id="ArialMT-61" d="M 2588 409 
Q 2275 144 1986 34 
Q 1697 -75 1366 -75 
Q 819 -75 525 192 
Q 231 459 231 875 
Q 231 1119 342 1320 
Q 453 1522 633 1644 
Q 813 1766 1038 1828 
Q 1203 1872 1538 1913 
Q 2219 1994 2541 2106 
Q 2544 2222 2544 2253 
Q 2544 2597 2384 2738 
Q 2169 2928 1744 2928 
Q 1347 2928 1158 2789 
Q 969 2650 878 2297 
L 328 2372 
Q 403 2725 575 2942 
Q 747 3159 1072 3276 
Q 1397 3394 1825 3394 
Q 2250 3394 2515 3294 
Q 2781 3194 2906 3042 
Q 3031 2891 3081 2659 
Q 3109 2516 3109 2141 
L 3109 1391 
Q 3109 606 3145 398 
Q 3181 191 3288 0 
L 2700 0 
Q 2613 175 2588 409 
z
M 2541 1666 
Q 2234 1541 1622 1453 
Q 1275 1403 1131 1340 
Q 988 1278 909 1158 
Q 831 1038 831 891 
Q 831 666 1001 516 
Q 1172 366 1500 366 
Q 1825 366 2078 508 
Q 2331 650 2450 897 
Q 2541 1088 2541 1459 
L 2541 1666 
z
" transform="scale(0.015625)"/>
       <path id="ArialMT-67" d="M 319 -275 
L 866 -356 
Q 900 -609 1056 -725 
Q 1266 -881 1628 -881 
Q 2019 -881 2231 -725 
Q 2444 -569 2519 -288 
Q 2563 -116 2559 434 
Q 2191 0 1641 0 
Q 956 0 581 494 
Q 206 988 206 1678 
Q 206 2153 378 2554 
Q 550 2956 876 3175 
Q 1203 3394 1644 3394 
Q 2231 3394 2613 2919 
L 2613 3319 
L 3131 3319 
L 3131 450 
Q 3131 -325 2973 -648 
Q 2816 -972 2473 -1159 
Q 2131 -1347 1631 -1347 
Q 1038 -1347 672 -1080 
Q 306 -813 319 -275 
z
M 784 1719 
Q 784 1066 1043 766 
Q 1303 466 1694 466 
Q 2081 466 2343 764 
Q 2606 1063 2606 1700 
Q 2606 2309 2336 2618 
Q 2066 2928 1684 2928 
Q 1309 2928 1046 2623 
Q 784 2319 784 1719 
z
" transform="scale(0.015625)"/>
       <path id="ArialMT-20" transform="scale(0.015625)"/>
       <path id="ArialMT-74" d="M 1650 503 
L 1731 6 
Q 1494 -44 1306 -44 
Q 1000 -44 831 53 
Q 663 150 594 308 
Q 525 466 525 972 
L 525 2881 
L 113 2881 
L 113 3319 
L 525 3319 
L 525 4141 
L 1084 4478 
L 1084 3319 
L 1650 3319 
L 1650 2881 
L 1084 2881 
L 1084 941 
Q 1084 700 1114 631 
Q 1144 563 1211 522 
Q 1278 481 1403 481 
Q 1497 481 1650 503 
z
" transform="scale(0.015625)"/>
       <path id="ArialMT-69" d="M 425 3934 
L 425 4581 
L 988 4581 
L 988 3934 
L 425 3934 
z
M 425 0 
L 425 3319 
L 988 3319 
L 988 0 
L 425 0 
z
" transform="scale(0.015625)"/>
       <path id="ArialMT-6d" d="M 422 0 
L 422 3319 
L 925 3319 
L 925 2853 
Q 1081 3097 1340 3245 
Q 1600 3394 1931 3394 
Q 2300 3394 2536 3241 
Q 2772 3088 2869 2813 
Q 3263 3394 3894 3394 
Q 4388 3394 4653 3120 
Q 4919 2847 4919 2278 
L 4919 0 
L 4359 0 
L 4359 2091 
Q 4359 2428 4304 2576 
Q 4250 2725 4106 2815 
Q 3963 2906 3769 2906 
Q 3419 2906 3187 2673 
Q 2956 2441 2956 1928 
L 2956 0 
L 2394 0 
L 2394 2156 
Q 2394 2531 2256 2718 
Q 2119 2906 1806 2906 
Q 1569 2906 1367 2781 
Q 1166 2656 1075 2415 
Q 984 2175 984 1722 
L 984 0 
L 422 0 
z
" transform="scale(0.015625)"/>
       <path id="ArialMT-65" d="M 2694 1069 
L 3275 997 
Q 3138 488 2766 206 
Q 2394 -75 1816 -75 
Q 1088 -75 661 373 
Q 234 822 234 1631 
Q 234 2469 665 2931 
Q 1097 3394 1784 3394 
Q 2450 3394 2872 2941 
Q 3294 2488 3294 1666 
Q 3294 1616 3291 1516 
L 816 1516 
Q 847 969 1125 678 
Q 1403 388 1819 388 
Q 2128 388 2347 550 
Q 2566 713 2694 1069 
z
M 847 1978 
L 2700 1978 
Q 2663 2397 2488 2606 
Q 2219 2931 1791 2931 
Q 1403 2931 1139 2672 
Q 875 2413 847 1978 
z
" transform="scale(0.015625)"/>
       <path id="ArialMT-5b" d="M 434 -1272 
L 434 4581 
L 1675 4581 
L 1675 4116 
L 997 4116 
L 997 -806 
L 1675 -806 
L 1675 -1272 
L 434 -1272 
z
" transform="scale(0.015625)"/>
       <path id="ArialMT-73" d="M 197 991 
L 753 1078 
Q 800 744 1014 566 
Q 1228 388 1613 388 
Q 2000 388 2187 545 
Q 2375 703 2375 916 
Q 2375 1106 2209 1216 
Q 2094 1291 1634 1406 
Q 1016 1563 777 1677 
Q 538 1791 414 1992 
Q 291 2194 291 2438 
Q 291 2659 392 2848 
Q 494 3038 669 3163 
Q 800 3259 1026 3326 
Q 1253 3394 1513 3394 
Q 1903 3394 2198 3281 
Q 2494 3169 2634 2976 
Q 2775 2784 2828 2463 
L 2278 2388 
Q 2241 2644 2061 2787 
Q 1881 2931 1553 2931 
Q 1166 2931 1000 2803 
Q 834 2675 834 2503 
Q 834 2394 903 2306 
Q 972 2216 1119 2156 
Q 1203 2125 1616 2013 
Q 2213 1853 2448 1751 
Q 2684 1650 2818 1456 
Q 2953 1263 2953 975 
Q 2953 694 2789 445 
Q 2625 197 2315 61 
Q 2006 -75 1616 -75 
Q 969 -75 630 194 
Q 291 463 197 991 
z
" transform="scale(0.015625)"/>
       <path id="ArialMT-5d" d="M 1363 -1272 
L 122 -1272 
L 122 -806 
L 800 -806 
L 800 4116 
L 122 4116 
L 122 4581 
L 1363 4581 
L 1363 -1272 
z
" transform="scale(0.015625)"/>
      </defs>
      <use xlink:href="#ArialMT-6c"/>
      <use xlink:href="#ArialMT-61" x="22.216797"/>
      <use xlink:href="#ArialMT-67" x="77.832031"/>
      <use xlink:href="#ArialMT-20" x="133.447266"/>
      <use xlink:href="#ArialMT-74" x="161.230469"/>
      <use xlink:href="#ArialMT-69" x="189.013672"/>
      <use xlink:href="#ArialMT-6d" x="211.230469"/>
      <use xlink:href="#ArialMT-65" x="294.53125"/>
      <use xlink:href="#ArialMT-20" x="350.146484"/>
      <use xlink:href="#ArialMT-5b" x="377.929688"/>
      <use xlink:href="#ArialMT-73" x="405.712891"/>
      <use xlink:href="#ArialMT-5d" x="455.712891"/>
     </g>
    </g>
   </g>
   <g id="matplotlib.axis_2">
    <g id="ytick_1">
     <g id="line2d_6">
      <defs>
       <path id="mbf69b53530" d="M 0 0 
L -5 0 
" style="stroke: #262626; stroke-width: 0.8"/>
      </defs>
      <g>
       <use xlink:href="#mbf69b53530" x="63" y="390.47068" style="fill: #262626; stroke: #262626; stroke-width: 0.8"/>
      </g>
     </g>
     <g id="text_7">
      <!-- 0.001 -->
      <g style="fill: #262626" transform="translate(19.469375 395.481149) scale(0.14 -0.14)">
       <use xlink:href="#ArialMT-30"/>
       <use xlink:href="#ArialMT-2e" x="55.615234"/>
       <use xlink:href="#ArialMT-30" x="83.398438"/>
       <use xlink:href="#ArialMT-30" x="139.013672"/>
       <use xlink:href="#ArialMT-31" x="194.628906"/>
      </g>
     </g>
    </g>
    <g id="ytick_2">
     <g id="line2d_7">
      <g>
       <use xlink:href="#mbf69b53530" x="63" y="318.853612" style="fill: #262626; stroke: #262626; stroke-width: 0.8"/>
      </g>
     </g>
     <g id="text_8">
      <!-- 0.002 -->
      <g style="fill: #262626" transform="translate(19.469375 323.864081) scale(0.14 -0.14)">
       <use xlink:href="#ArialMT-30"/>
       <use xlink:href="#ArialMT-2e" x="55.615234"/>
       <use xlink:href="#ArialMT-30" x="83.398438"/>
       <use xlink:href="#ArialMT-30" x="139.013672"/>
       <use xlink:href="#ArialMT-32" x="194.628906"/>
      </g>
     </g>
    </g>
    <g id="ytick_3">
     <g id="line2d_8">
      <g>
       <use xlink:href="#mbf69b53530" x="63" y="247.236544" style="fill: #262626; stroke: #262626; stroke-width: 0.8"/>
      </g>
     </g>
     <g id="text_9">
      <!-- 0.003 -->
      <g style="fill: #262626" transform="translate(19.469375 252.247013) scale(0.14 -0.14)">
       <use xlink:href="#ArialMT-30"/>
       <use xlink:href="#ArialMT-2e" x="55.615234"/>
       <use xlink:href="#ArialMT-30" x="83.398438"/>
       <use xlink:href="#ArialMT-30" x="139.013672"/>
       <use xlink:href="#ArialMT-33" x="194.628906"/>
      </g>
     </g>
    </g>
    <g id="ytick_4">
     <g id="line2d_9">
      <g>
       <use xlink:href="#mbf69b53530" x="63" y="175.619476" style="fill: #262626; stroke: #262626; stroke-width: 0.8"/>
      </g>
     </g>
     <g id="text_10">
      <!-- 0.004 -->
      <g style="fill: #262626" transform="translate(19.469375 180.629945) scale(0.14 -0.14)">
       <use xlink:href="#ArialMT-30"/>
       <use xlink:href="#ArialMT-2e" x="55.615234"/>
       <use xlink:href="#ArialMT-30" x="83.398438"/>
       <use xlink:href="#ArialMT-30" x="139.013672"/>
       <use xlink:href="#ArialMT-34" x="194.628906"/>
      </g>
     </g>
    </g>
    <g id="ytick_5">
     <g id="line2d_10">
      <g>
       <use xlink:href="#mbf69b53530" x="63" y="104.002408" style="fill: #262626; stroke: #262626; stroke-width: 0.8"/>
      </g>
     </g>
     <g id="text_11">
      <!-- 0.005 -->
      <g style="fill: #262626" transform="translate(19.469375 109.012877) scale(0.14 -0.14)">
       <use xlink:href="#ArialMT-30"/>
       <use xlink:href="#ArialMT-2e" x="55.615234"/>
       <use xlink:href="#ArialMT-30" x="83.398438"/>
       <use xlink:href="#ArialMT-30" x="139.013672"/>
       <use xlink:href="#ArialMT-35" x="194.628906"/>
      </g>
     </g>
    </g>
    <g id="text_12">
     <!-- MSD (um^2) -->
     <g style="fill: #262626" transform="translate(12.101875 299.1625) rotate(-90) scale(0.16 -0.16)">
      <defs>
       <path id="ArialMT-4d" d="M 475 0 
L 475 4581 
L 1388 4581 
L 2472 1338 
Q 2622 884 2691 659 
Q 2769 909 2934 1394 
L 4031 4581 
L 4847 4581 
L 4847 0 
L 4263 0 
L 4263 3834 
L 2931 0 
L 2384 0 
L 1059 3900 
L 1059 0 
L 475 0 
z
" transform="scale(0.015625)"/>
       <path id="ArialMT-53" d="M 288 1472 
L 859 1522 
Q 900 1178 1048 958 
Q 1197 738 1509 602 
Q 1822 466 2213 466 
Q 2559 466 2825 569 
Q 3091 672 3220 851 
Q 3350 1031 3350 1244 
Q 3350 1459 3225 1620 
Q 3100 1781 2813 1891 
Q 2628 1963 1997 2114 
Q 1366 2266 1113 2400 
Q 784 2572 623 2826 
Q 463 3081 463 3397 
Q 463 3744 659 4045 
Q 856 4347 1234 4503 
Q 1613 4659 2075 4659 
Q 2584 4659 2973 4495 
Q 3363 4331 3572 4012 
Q 3781 3694 3797 3291 
L 3216 3247 
Q 3169 3681 2898 3903 
Q 2628 4125 2100 4125 
Q 1550 4125 1298 3923 
Q 1047 3722 1047 3438 
Q 1047 3191 1225 3031 
Q 1400 2872 2139 2705 
Q 2878 2538 3153 2413 
Q 3553 2228 3743 1945 
Q 3934 1663 3934 1294 
Q 3934 928 3725 604 
Q 3516 281 3123 101 
Q 2731 -78 2241 -78 
Q 1619 -78 1198 103 
Q 778 284 539 648 
Q 300 1013 288 1472 
z
" transform="scale(0.015625)"/>
       <path id="ArialMT-44" d="M 494 0 
L 494 4581 
L 2072 4581 
Q 2606 4581 2888 4516 
Q 3281 4425 3559 4188 
Q 3922 3881 4101 3404 
Q 4281 2928 4281 2316 
Q 4281 1794 4159 1391 
Q 4038 988 3847 723 
Q 3656 459 3429 307 
Q 3203 156 2883 78 
Q 2563 0 2147 0 
L 494 0 
z
M 1100 541 
L 2078 541 
Q 2531 541 2789 625 
Q 3047 709 3200 863 
Q 3416 1078 3536 1442 
Q 3656 1806 3656 2325 
Q 3656 3044 3420 3430 
Q 3184 3816 2847 3947 
Q 2603 4041 2063 4041 
L 1100 4041 
L 1100 541 
z
" transform="scale(0.015625)"/>
       <path id="ArialMT-28" d="M 1497 -1347 
Q 1031 -759 709 28 
Q 388 816 388 1659 
Q 388 2403 628 3084 
Q 909 3875 1497 4659 
L 1900 4659 
Q 1522 4009 1400 3731 
Q 1209 3300 1100 2831 
Q 966 2247 966 1656 
Q 966 153 1900 -1347 
L 1497 -1347 
z
" transform="scale(0.015625)"/>
       <path id="ArialMT-75" d="M 2597 0 
L 2597 488 
Q 2209 -75 1544 -75 
Q 1250 -75 995 37 
Q 741 150 617 320 
Q 494 491 444 738 
Q 409 903 409 1263 
L 409 3319 
L 972 3319 
L 972 1478 
Q 972 1038 1006 884 
Q 1059 663 1231 536 
Q 1403 409 1656 409 
Q 1909 409 2131 539 
Q 2353 669 2445 892 
Q 2538 1116 2538 1541 
L 2538 3319 
L 3100 3319 
L 3100 0 
L 2597 0 
z
" transform="scale(0.015625)"/>
       <path id="ArialMT-5e" d="M 747 2156 
L 169 2156 
L 1272 4659 
L 1725 4659 
L 2834 2156 
L 2269 2156 
L 1497 4022 
L 747 2156 
z
" transform="scale(0.015625)"/>
       <path id="ArialMT-29" d="M 791 -1347 
L 388 -1347 
Q 1322 153 1322 1656 
Q 1322 2244 1188 2822 
Q 1081 3291 891 3722 
Q 769 4003 388 4659 
L 791 4659 
Q 1378 3875 1659 3084 
Q 1900 2403 1900 1659 
Q 1900 816 1576 28 
Q 1253 -759 791 -1347 
z
" transform="scale(0.015625)"/>
      </defs>
      <use xlink:href="#ArialMT-4d"/>
      <use xlink:href="#ArialMT-53" x="83.300781"/>
      <use xlink:href="#ArialMT-44" x="150"/>
      <use xlink:href="#ArialMT-20" x="222.216797"/>
      <use xlink:href="#ArialMT-28" x="250"/>
      <use xlink:href="#ArialMT-75" x="283.300781"/>
      <use xlink:href="#ArialMT-6d" x="338.916016"/>
      <use xlink:href="#ArialMT-5e" x="422.216797"/>
      <use xlink:href="#ArialMT-32" x="469.140625"/>
      <use xlink:href="#ArialMT-29" x="524.755859"/>
     </g>
    </g>
   </g>
   <g id="line2d_11">
    <path d="M 80.754545 427.489542 
L 120.209091 405.818218 
L 159.663636 391.630877 
L 199.118182 382.406598 
L 238.572727 373.296907 
L 278.027273 362.905271 
L 317.481818 354.08921 
L 356.936364 348.180801 
L 396.390909 345.230178 
L 435.845455 336.027385 
" clip-path="url(#pee91d50d62)" style="fill: none; stroke: #000000; stroke-opacity: 0.2; stroke-width: 2; stroke-linecap: round"/>
   </g>
   <g id="line2d_12">
    <path d="M 80.754545 406.799372 
L 120.209091 385.973128 
L 159.663636 370.811795 
L 199.118182 359.718311 
L 238.572727 351.160071 
L 278.027273 340.618039 
L 317.481818 337.961046 
L 356.936364 330.72056 
L 396.390909 322.570538 
L 435.845455 319.426549 
" clip-path="url(#pee91d50d62)" style="fill: none; stroke: #000000; stroke-opacity: 0.2; stroke-width: 2; stroke-linecap: round"/>
   </g>
   <g id="line2d_13">
    <path d="M 80.754545 393.95127 
L 120.209091 371.21285 
L 159.663636 367.252427 
L 199.118182 345.502323 
L 238.572727 332.811779 
L 278.027273 312.415238 
L 317.481818 302.381686 
L 356.936364 305.66891 
L 396.390909 286.969693 
L 435.845455 273.706212 
" clip-path="url(#pee91d50d62)" style="fill: none; stroke: #000000; stroke-opacity: 0.2; stroke-width: 2; stroke-linecap: round"/>
   </g>
   <g id="line2d_14">
    <path d="M 80.754545 392.067741 
L 120.209091 366.34289 
L 159.663636 347.027767 
L 199.118182 330.498547 
L 238.572727 308.877355 
L 278.027273 296.673806 
L 317.481818 283.496266 
L 356.936364 269.602555 
L 396.390909 260.929728 
L 435.845455 253.68208 
" clip-path="url(#pee91d50d62)" style="fill: none; stroke: #000000; stroke-opacity: 0.2; stroke-width: 2; stroke-linecap: round"/>
   </g>
   <g id="line2d_15">
    <path d="M 80.754545 406.326699 
L 120.209091 378.703996 
L 159.663636 356.846467 
L 199.118182 339.006655 
L 238.572727 329.16647 
L 278.027273 317.815165 
L 317.481818 306.370757 
L 356.936364 299.660238 
L 396.390909 290.292725 
L 435.845455 284.248245 
" clip-path="url(#pee91d50d62)" style="fill: none; stroke: #000000; stroke-opacity: 0.2; stroke-width: 2; stroke-linecap: round"/>
   </g>
   <g id="line2d_16">
    <path d="M 80.754545 383.430722 
L 120.209091 333.857388 
L 159.663636 302.331555 
L 199.118182 277.437462 
L 238.572727 247.000208 
L 278.027273 226.789871 
L 317.481818 200.778552 
L 356.936364 174.094033 
L 396.390909 158.159235 
L 435.845455 141.343548 
" clip-path="url(#pee91d50d62)" style="fill: none; stroke: #000000; stroke-opacity: 0.2; stroke-width: 2; stroke-linecap: round"/>
   </g>
   <g id="line2d_17">
    <path d="M 80.754545 396.72285 
L 120.209091 368.348168 
L 159.663636 352.506472 
L 199.118182 345.058297 
L 238.572727 333.492141 
L 278.027273 326.781622 
L 317.481818 314.184179 
L 356.936364 306.091451 
L 396.390909 293.723183 
L 435.845455 285.351148 
" clip-path="url(#pee91d50d62)" style="fill: none; stroke: #000000; stroke-opacity: 0.2; stroke-width: 2; stroke-linecap: round"/>
   </g>
   <g id="line2d_18">
    <path d="M 80.754545 416.481999 
L 120.209091 402.817463 
L 159.663636 395.154436 
L 199.118182 389.088471 
L 238.572727 383.301812 
L 278.027273 375.939577 
L 317.481818 373.175158 
L 356.936364 371.155557 
L 396.390909 365.404706 
L 435.845455 366.171009 
" clip-path="url(#pee91d50d62)" style="fill: none; stroke: #000000; stroke-opacity: 0.2; stroke-width: 2; stroke-linecap: round"/>
   </g>
   <g id="line2d_19">
    <path d="M 80.754545 430.92 
L 120.209091 413.953917 
L 159.663636 403.089607 
L 199.118182 393.736418 
L 238.572727 384.777123 
L 278.027273 377.844591 
L 317.481818 368.763547 
L 356.936364 361.193623 
L 396.390909 356.080164 
L 435.845455 351.86908 
" clip-path="url(#pee91d50d62)" style="fill: none; stroke: #000000; stroke-opacity: 0.2; stroke-width: 2; stroke-linecap: round"/>
   </g>
   <g id="line2d_20">
    <path d="M 80.754545 411.289762 
L 120.209091 397.789944 
L 159.663636 392.404341 
L 199.118182 386.31689 
L 238.572727 378.245647 
L 278.027273 373.690801 
L 317.481818 365.368898 
L 356.936364 364.738668 
L 396.390909 359.116728 
L 435.845455 354.51175 
" clip-path="url(#pee91d50d62)" style="fill: none; stroke: #000000; stroke-opacity: 0.2; stroke-width: 2; stroke-linecap: round"/>
   </g>
   <g id="line2d_21">
    <path d="M 80.754545 395.233215 
L 120.209091 375.058687 
L 159.663636 361.30821 
L 199.118182 360.398673 
L 238.572727 355.822343 
L 278.027273 352.105417 
L 317.481818 345.974996 
L 356.936364 345.731498 
L 396.390909 344.907901 
L 435.845455 344.678727 
" clip-path="url(#pee91d50d62)" style="fill: none; stroke: #000000; stroke-opacity: 0.2; stroke-width: 2; stroke-linecap: round"/>
   </g>
   <g id="line2d_22">
    <path d="M 80.754545 393.800874 
L 120.209091 370.024007 
L 159.663636 353.022115 
L 199.118182 337.918076 
L 238.572727 328.085052 
L 278.027273 322.985917 
L 317.481818 316.948598 
L 356.936364 314.585235 
L 396.390909 311.348143 
L 435.845455 310.080521 
" clip-path="url(#pee91d50d62)" style="fill: none; stroke: #000000; stroke-opacity: 0.2; stroke-width: 2; stroke-linecap: round"/>
   </g>
   <g id="line2d_23">
    <path d="M 80.754545 383.258841 
L 120.209091 325.607102 
L 159.663636 300.741656 
L 199.118182 278.39713 
L 238.572727 242.624405 
L 278.027273 227.341323 
L 317.481818 198.014133 
L 356.936364 202.246702 
L 396.390909 149.171293 
L 435.845455 178.713334 
" clip-path="url(#pee91d50d62)" style="fill: none; stroke: #000000; stroke-opacity: 0.2; stroke-width: 2; stroke-linecap: round"/>
   </g>
   <g id="line2d_24">
    <path d="M 80.754545 362.024381 
L 120.209091 318.402425 
L 159.663636 325.048488 
L 199.118182 315.057908 
L 238.572727 287.535468 
L 278.027273 279.421255 
L 317.481818 279.349637 
L 356.936364 272.825323 
L 396.390909 270.333049 
L 435.845455 273.842285 
" clip-path="url(#pee91d50d62)" style="fill: none; stroke: #000000; stroke-opacity: 0.2; stroke-width: 2; stroke-linecap: round"/>
   </g>
   <g id="line2d_25">
    <path d="M 80.754545 378.711157 
L 120.209091 356.968216 
L 159.663636 327.039443 
L 199.118182 309.837023 
L 238.572727 303.785381 
L 278.027273 305.33231 
L 317.481818 292.28368 
L 356.936364 289.204146 
L 396.390909 261.681707 
L 435.845455 274.343604 
" clip-path="url(#pee91d50d62)" style="fill: none; stroke: #000000; stroke-opacity: 0.2; stroke-width: 2; stroke-linecap: round"/>
   </g>
   <g id="line2d_26">
    <path d="M 80.754545 394.602985 
L 120.209091 362.432598 
L 159.663636 336.278045 
L 199.118182 334.695308 
L 238.572727 321.367371 
L 278.027273 306.170229 
L 317.481818 284.835505 
L 356.936364 264.503419 
L 396.390909 259.504548 
L 435.845455 253.832476 
" clip-path="url(#pee91d50d62)" style="fill: none; stroke: #000000; stroke-opacity: 0.2; stroke-width: 2; stroke-linecap: round"/>
   </g>
   <g id="line2d_27">
    <path d="M 80.754545 345.960672 
L 120.209091 276.527925 
L 159.663636 268.413711 
L 199.118182 203.399737 
L 238.572727 185.903687 
L 278.027273 175.368817 
L 317.481818 132.147916 
L 356.936364 99.827133 
L 396.390909 116.435131 
L 435.845455 78.12 
" clip-path="url(#pee91d50d62)" style="fill: none; stroke: #000000; stroke-opacity: 0.2; stroke-width: 2; stroke-linecap: round"/>
   </g>
   <g id="line2d_28">
    <path d="M 80.754545 286.060157 
L 120.209091 235.878077 
L 159.663636 236.622895 
L 199.118182 240.962889 
L 238.572727 280.438217 
L 278.027273 277.158155 
L 317.481818 212.967777 
L 356.936364 289.762759 
L 396.390909 278.626305 
L 435.845455 195.235391 
" clip-path="url(#pee91d50d62)" style="fill: none; stroke: #000000; stroke-opacity: 0.2; stroke-width: 2; stroke-linecap: round"/>
   </g>
   <g id="line2d_29">
    <path d="M 80.754545 373.296907 
L 120.209091 328.930134 
L 159.663636 299.008523 
L 199.118182 292.91391 
L 238.572727 276.162678 
L 278.027273 263.128372 
L 317.481818 279.127625 
L 356.936364 251.003602 
L 396.390909 250.165682 
L 435.845455 227.993038 
" clip-path="url(#pee91d50d62)" style="fill: none; stroke: #000000; stroke-opacity: 0.2; stroke-width: 2; stroke-linecap: round"/>
   </g>
   <g id="line2d_30">
    <path d="M 80.754545 370.847603 
L 120.209091 360.040588 
L 159.663636 351.267497 
L 199.118182 329.725083 
L 238.572727 328.53624 
L 278.027273 310.875471 
L 317.481818 310.417122 
L 356.936364 302.961785 
L 396.390909 293.902226 
L 435.845455 296.415985 
" clip-path="url(#pee91d50d62)" style="fill: none; stroke: #000000; stroke-opacity: 0.2; stroke-width: 2; stroke-linecap: round"/>
   </g>
   <g id="line2d_31">
    <path d="M 80.754545 370.861927 
L 120.209091 364.853255 
L 159.663636 342.036057 
L 199.118182 311.068837 
L 238.572727 319.748825 
L 278.027273 306.50683 
L 317.481818 297.604828 
L 356.936364 310.760883 
L 396.390909 287.564115 
L 435.845455 300.154396 
" clip-path="url(#pee91d50d62)" style="fill: none; stroke: #000000; stroke-opacity: 0.2; stroke-width: 2; stroke-linecap: round"/>
   </g>
   <g id="line2d_32">
    <path d="M 80.754545 410.194021 
L 120.209091 396.479352 
L 159.663636 374.543044 
L 199.118182 364.738668 
L 238.572727 355.514389 
L 278.027273 363.872101 
L 317.481818 342.759389 
L 356.936364 343.611632 
L 396.390909 337.81065 
L 435.845455 331.973859 
" clip-path="url(#pee91d50d62)" style="fill: none; stroke: #000000; stroke-opacity: 0.2; stroke-width: 2; stroke-linecap: round"/>
   </g>
   <g id="line2d_33">
    <path d="M 80.754545 352.671192 
L 120.209091 306.313464 
L 159.663636 265.30553 
L 199.118182 241.378268 
L 238.572727 224.677168 
L 278.027273 167.849024 
L 317.481818 137.777018 
L 356.936364 122.630008 
L 396.390909 104.245906 
L 435.845455 128.001288 
" clip-path="url(#pee91d50d62)" style="fill: none; stroke: #000000; stroke-opacity: 0.2; stroke-width: 2; stroke-linecap: round"/>
   </g>
   <g id="line2d_34">
    <path d="M 80.754545 367.911304 
L 120.209091 363.628603 
L 159.663636 319.082787 
L 199.118182 308.762767 
L 238.572727 284.756726 
L 278.027273 317.908267 
L 317.481818 241.421238 
L 356.936364 261.839264 
L 396.390909 231.423496 
L 435.845455 245.388824 
" clip-path="url(#pee91d50d62)" style="fill: none; stroke: #000000; stroke-opacity: 0.2; stroke-width: 2; stroke-linecap: round"/>
   </g>
   <g id="line2d_35">
    <path d="M 80.754545 427.387811 
L 120.209091 406.404586 
L 159.663636 392.255196 
L 199.118182 381.044473 
L 238.572727 371.582171 
L 278.027273 363.306258 
L 317.481818 355.89919 
L 356.936364 349.161414 
L 396.390909 342.958203 
L 435.845455 337.193739 
" clip-path="url(#pee91d50d62)" style="fill: none; stroke-dasharray: 7.4,3.2; stroke-dashoffset: 0; stroke: #000000; stroke-opacity: 0.6; stroke-width: 2"/>
   </g>
   <g id="line2d_36">
    <path d="M 80.754545 406.940885 
L 120.209091 385.208816 
L 159.663636 371.075351 
L 199.118182 360.099355 
L 238.572727 350.967807 
L 278.027273 343.071233 
L 317.481818 336.069564 
L 356.936364 329.751215 
L 396.390909 323.974523 
L 435.845455 318.639463 
" clip-path="url(#pee91d50d62)" style="fill: none; stroke-dasharray: 7.4,3.2; stroke-dashoffset: 0; stroke: #000000; stroke-opacity: 0.6; stroke-width: 2"/>
   </g>
   <g id="line2d_37">
    <path d="M 80.754545 393.561189 
L 120.209091 375.406784 
L 159.663636 359.870214 
L 199.118182 345.742961 
L 238.572727 332.566791 
L 278.027273 320.098333 
L 317.481818 308.187666 
L 356.936364 296.73382 
L 396.390909 285.664548 
L 435.845455 274.925827 
" clip-path="url(#pee91d50d62)" style="fill: none; stroke-dasharray: 7.4,3.2; stroke-dashoffset: 0; stroke: #000000; stroke-opacity: 0.6; stroke-width: 2"/>
   </g>
   <g id="line2d_38">
    <path d="M 80.754545 392.354504 
L 120.209091 366.061061 
L 159.663636 345.649323 
L 199.118182 328.126545 
L 238.572727 312.453509 
L 278.027273 298.104703 
L 317.481818 284.767919 
L 356.936364 272.23891 
L 396.390909 260.375052 
L 435.845455 249.071924 
" clip-path="url(#pee91d50d62)" style="fill: none; stroke-dasharray: 7.4,3.2; stroke-dashoffset: 0; stroke: #000000; stroke-opacity: 0.6; stroke-width: 2"/>
   </g>
   <g id="line2d_39">
    <path d="M 80.754545 406.620666 
L 120.209091 376.816948 
L 159.663636 357.147819 
L 199.118182 341.748821 
L 238.572727 328.862782 
L 278.027273 317.668402 
L 317.481818 307.705099 
L 356.936364 298.685153 
L 396.390909 290.415275 
L 435.845455 282.75859 
" clip-path="url(#pee91d50d62)" style="fill: none; stroke-dasharray: 7.4,3.2; stroke-dashoffset: 0; stroke: #000000; stroke-opacity: 0.6; stroke-width: 2"/>
   </g>
   <g id="line2d_40">
    <path d="M 80.754545 382.820159 
L 120.209091 337.352262 
L 159.663636 302.551322 
L 199.118182 272.92034 
L 238.572727 246.574792 
L 278.027273 222.568372 
L 317.481818 200.34177 
L 356.936364 179.530594 
L 396.390909 159.881278 
L 435.845455 141.208723 
" clip-path="url(#pee91d50d62)" style="fill: none; stroke-dasharray: 7.4,3.2; stroke-dashoffset: 0; stroke: #000000; stroke-opacity: 0.6; stroke-width: 2"/>
   </g>
   <g id="line2d_41">
    <path d="M 80.754545 395.717072 
L 120.209091 371.77433 
L 159.663636 355.392876 
L 199.118182 342.30793 
L 238.572727 331.198935 
L 278.027273 321.437985 
L 317.481818 312.668516 
L 356.936364 304.665544 
L 396.390909 297.276656 
L 435.845455 290.393138 
" clip-path="url(#pee91d50d62)" style="fill: none; stroke-dasharray: 7.4,3.2; stroke-dashoffset: 0; stroke: #000000; stroke-opacity: 0.6; stroke-width: 2"/>
   </g>
   <g id="line2d_42">
    <path d="M 80.754545 416.49965 
L 120.209091 403.137863 
L 159.663636 394.638796 
L 199.118182 388.118287 
L 238.572727 382.740749 
L 278.027273 378.122338 
L 317.481818 374.050499 
L 356.936364 370.393781 
L 396.390909 367.064619 
L 435.845455 364.001456 
" clip-path="url(#pee91d50d62)" style="fill: none; stroke-dasharray: 7.4,3.2; stroke-dashoffset: 0; stroke: #000000; stroke-opacity: 0.6; stroke-width: 2"/>
   </g>
   <g id="line2d_43">
    <path d="M 80.754545 430.791666 
L 120.209091 414.739299 
L 159.663636 402.899541 
L 199.118182 393.031437 
L 238.572727 384.392075 
L 278.027273 376.615135 
L 317.481818 369.486987 
L 356.936364 362.869934 
L 396.390909 356.669012 
L 435.845455 350.81544 
" clip-path="url(#pee91d50d62)" style="fill: none; stroke-dasharray: 7.4,3.2; stroke-dashoffset: 0; stroke: #000000; stroke-opacity: 0.6; stroke-width: 2"/>
   </g>
   <g id="line2d_44">
    <path d="M 80.754545 410.860818 
L 120.209091 399.748516 
L 159.663636 391.497943 
L 199.118182 384.59516 
L 238.572727 378.535246 
L 278.027273 373.068427 
L 317.481818 368.048689 
L 356.936364 363.38174 
L 396.390909 359.002446 
L 435.845455 354.863566 
" clip-path="url(#pee91d50d62)" style="fill: none; stroke-dasharray: 7.4,3.2; stroke-dashoffset: 0; stroke: #000000; stroke-opacity: 0.6; stroke-width: 2"/>
   </g>
   <g id="line2d_45">
    <path d="M 80.754545 393.224369 
L 120.209091 376.19187 
L 159.663636 367.055563 
L 199.118182 360.651696 
L 238.572727 355.70084 
L 278.027273 351.65903 
L 317.481818 348.241475 
L 356.936364 345.279748 
L 396.390909 342.665765 
L 435.845455 340.325947 
" clip-path="url(#pee91d50d62)" style="fill: none; stroke-dasharray: 7.4,3.2; stroke-dashoffset: 0; stroke: #000000; stroke-opacity: 0.6; stroke-width: 2"/>
   </g>
   <g id="line2d_46">
    <path d="M 80.754545 394.503298 
L 120.209091 366.633075 
L 159.663636 351.363296 
L 199.118182 340.542703 
L 238.572727 332.111862 
L 278.027273 325.186931 
L 317.481818 319.30204 
L 356.936364 314.180183 
L 396.390909 309.642799 
L 435.845455 305.567861 
" clip-path="url(#pee91d50d62)" style="fill: none; stroke-dasharray: 7.4,3.2; stroke-dashoffset: 0; stroke: #000000; stroke-opacity: 0.6; stroke-width: 2"/>
   </g>
   <g id="line2d_47">
    <path d="M 80.754545 382.699965 
L 120.209091 331.344066 
L 159.663636 296.708371 
L 199.118182 269.263721 
L 238.572727 246.097876 
L 278.027273 225.835575 
L 317.481818 207.699766 
L 356.936364 191.202109 
L 396.390909 176.012887 
L 435.845455 161.897604 
" clip-path="url(#pee91d50d62)" style="fill: none; stroke-dasharray: 7.4,3.2; stroke-dashoffset: 0; stroke: #000000; stroke-opacity: 0.6; stroke-width: 2"/>
   </g>
   <g id="line2d_48">
    <path d="M 80.754545 360.528527 
L 120.209091 330.480924 
L 159.663636 314.363259 
L 199.118182 303.065981 
L 238.572727 294.332011 
L 278.027273 287.201718 
L 317.481818 281.172694 
L 356.936364 275.947812 
L 396.390909 271.336397 
L 435.845455 267.208646 
" clip-path="url(#pee91d50d62)" style="fill: none; stroke-dasharray: 7.4,3.2; stroke-dashoffset: 0; stroke: #000000; stroke-opacity: 0.6; stroke-width: 2"/>
   </g>
   <g id="line2d_49">
    <path d="M 80.754545 379.729281 
L 120.209091 349.932796 
L 159.663636 331.739477 
L 199.118182 318.087675 
L 238.572727 307.006638 
L 278.027273 297.608081 
L 317.481818 289.406855 
L 356.936364 282.106221 
L 396.390909 275.510315 
L 435.845455 269.482537 
" clip-path="url(#pee91d50d62)" style="fill: none; stroke-dasharray: 7.4,3.2; stroke-dashoffset: 0; stroke: #000000; stroke-opacity: 0.6; stroke-width: 2"/>
   </g>
   <g id="line2d_50">
    <path d="M 80.754545 393.396945 
L 120.209091 365.659402 
L 159.663636 345.008235 
L 199.118182 327.703226 
L 238.572727 312.493844 
L 278.027273 298.760632 
L 317.481818 286.141114 
L 356.936364 274.401018 
L 396.390909 263.378418 
L 435.845455 252.955795 
" clip-path="url(#pee91d50d62)" style="fill: none; stroke-dasharray: 7.4,3.2; stroke-dashoffset: 0; stroke: #000000; stroke-opacity: 0.6; stroke-width: 2"/>
   </g>
   <g id="line2d_51">
    <path d="M 80.754545 344.818315 
L 120.209091 288.129391 
L 159.663636 248.014061 
L 199.118182 215.358205 
L 238.572727 187.251872 
L 278.027273 162.288826 
L 317.481818 139.660994 
L 356.936364 118.853649 
L 396.390909 99.515312 
L 435.845455 81.393559 
" clip-path="url(#pee91d50d62)" style="fill: none; stroke-dasharray: 7.4,3.2; stroke-dashoffset: 0; stroke: #000000; stroke-opacity: 0.6; stroke-width: 2"/>
   </g>
   <g id="line2d_52">
    <path d="M 80.754545 268.028464 
L 120.209091 262.017848 
L 159.663636 258.793727 
L 199.118182 256.53386 
L 238.572727 254.786747 
L 278.027273 253.360429 
L 317.481818 252.154404 
L 356.936364 251.109237 
L 396.390909 250.186786 
L 435.845455 249.361085 
" clip-path="url(#pee91d50d62)" style="fill: none; stroke-dasharray: 7.4,3.2; stroke-dashoffset: 0; stroke: #000000; stroke-opacity: 0.6; stroke-width: 2"/>
   </g>
   <g id="line2d_53">
    <path d="M 80.754545 372.307 
L 120.209091 329.617537 
L 159.663636 306.718722 
L 199.118182 290.668367 
L 238.572727 278.259772 
L 278.027273 268.129568 
L 317.481818 259.563966 
L 356.936364 252.140831 
L 396.390909 245.589266 
L 435.845455 239.724856 
" clip-path="url(#pee91d50d62)" style="fill: none; stroke-dasharray: 7.4,3.2; stroke-dashoffset: 0; stroke: #000000; stroke-opacity: 0.6; stroke-width: 2"/>
   </g>
   <g id="line2d_54">
    <path d="M 80.754545 372.508048 
L 120.209091 357.448288 
L 159.663636 345.697657 
L 199.118182 335.580207 
L 238.572727 326.511289 
L 278.027273 318.194506 
L 317.481818 310.453442 
L 356.936364 303.172512 
L 396.390909 296.270903 
L 435.845455 289.689383 
" clip-path="url(#pee91d50d62)" style="fill: none; stroke-dasharray: 7.4,3.2; stroke-dashoffset: 0; stroke: #000000; stroke-opacity: 0.6; stroke-width: 2"/>
   </g>
   <g id="line2d_55">
    <path d="M 80.754545 374.31797 
L 120.209091 352.581076 
L 159.663636 338.792617 
L 199.118182 328.229862 
L 238.572727 319.52798 
L 278.027273 312.060808 
L 317.481818 305.481928 
L 356.936364 299.577265 
L 396.390909 294.204302 
L 435.845455 289.262903 
" clip-path="url(#pee91d50d62)" style="fill: none; stroke-dasharray: 7.4,3.2; stroke-dashoffset: 0; stroke: #000000; stroke-opacity: 0.6; stroke-width: 2"/>
   </g>
   <g id="line2d_56">
    <path d="M 80.754545 410.999105 
L 120.209091 391.193183 
L 159.663636 378.502176 
L 199.118182 368.72636 
L 238.572727 360.640802 
L 278.027273 353.680868 
L 317.481818 347.533102 
L 356.936364 342.003267 
L 396.390909 336.961757 
L 435.845455 332.317326 
" clip-path="url(#pee91d50d62)" style="fill: none; stroke-dasharray: 7.4,3.2; stroke-dashoffset: 0; stroke: #000000; stroke-opacity: 0.6; stroke-width: 2"/>
   </g>
   <g id="line2d_57">
    <path d="M 80.754545 353.350441 
L 120.209091 304.727687 
L 159.663636 267.489651 
L 199.118182 235.772576 
L 238.572727 207.565113 
L 278.027273 181.856967 
L 317.481818 158.05088 
L 356.936364 135.757667 
L 396.390909 114.70647 
L 435.845455 94.699541 
" clip-path="url(#pee91d50d62)" style="fill: none; stroke-dasharray: 7.4,3.2; stroke-dashoffset: 0; stroke: #000000; stroke-opacity: 0.6; stroke-width: 2"/>
   </g>
   <g id="line2d_58">
    <path d="M 80.754545 371.502031 
L 120.209091 349.321184 
L 159.663636 330.69371 
L 199.118182 313.945579 
L 238.572727 298.452742 
L 278.027273 283.88693 
L 317.481818 270.047356 
L 356.936364 256.799559 
L 396.390909 244.047789 
L 435.845455 231.720743 
" clip-path="url(#pee91d50d62)" style="fill: none; stroke-dasharray: 7.4,3.2; stroke-dashoffset: 0; stroke: #000000; stroke-opacity: 0.6; stroke-width: 2"/>
   </g>
   <g id="patch_3">
    <path d="M 63 448.56 
L 63 60.48 
" style="fill: none; stroke: #262626; stroke-width: 1.25; stroke-linejoin: miter; stroke-linecap: square"/>
   </g>
   <g id="patch_4">
    <path d="M 453.6 448.56 
L 453.6 60.48 
" style="fill: none; stroke: #262626; stroke-width: 1.25; stroke-linejoin: miter; stroke-linecap: square"/>
   </g>
   <g id="patch_5">
    <path d="M 63 448.56 
L 453.6 448.56 
" style="fill: none; stroke: #262626; stroke-width: 1.25; stroke-linejoin: miter; stroke-linecap: square"/>
   </g>
   <g id="patch_6">
    <path d="M 63 60.48 
L 453.6 60.48 
" style="fill: none; stroke: #262626; stroke-width: 1.25; stroke-linejoin: miter; stroke-linecap: square"/>
   </g>
   <g id="text_13">
    <!-- Fit to 2D MSD -->
    <g style="fill: #262626" transform="translate(195.514063 54.48) scale(0.2 -0.2)">
     <defs>
      <path id="ArialMT-46" d="M 525 0 
L 525 4581 
L 3616 4581 
L 3616 4041 
L 1131 4041 
L 1131 2622 
L 3281 2622 
L 3281 2081 
L 1131 2081 
L 1131 0 
L 525 0 
z
" transform="scale(0.015625)"/>
      <path id="ArialMT-6f" d="M 213 1659 
Q 213 2581 725 3025 
Q 1153 3394 1769 3394 
Q 2453 3394 2887 2945 
Q 3322 2497 3322 1706 
Q 3322 1066 3130 698 
Q 2938 331 2570 128 
Q 2203 -75 1769 -75 
Q 1072 -75 642 372 
Q 213 819 213 1659 
z
M 791 1659 
Q 791 1022 1069 705 
Q 1347 388 1769 388 
Q 2188 388 2466 706 
Q 2744 1025 2744 1678 
Q 2744 2294 2464 2611 
Q 2184 2928 1769 2928 
Q 1347 2928 1069 2612 
Q 791 2297 791 1659 
z
" transform="scale(0.015625)"/>
     </defs>
     <use xlink:href="#ArialMT-46"/>
     <use xlink:href="#ArialMT-69" x="61.083984"/>
     <use xlink:href="#ArialMT-74" x="83.300781"/>
     <use xlink:href="#ArialMT-20" x="111.083984"/>
     <use xlink:href="#ArialMT-74" x="138.867188"/>
     <use xlink:href="#ArialMT-6f" x="166.650391"/>
     <use xlink:href="#ArialMT-20" x="222.265625"/>
     <use xlink:href="#ArialMT-32" x="250.048828"/>
     <use xlink:href="#ArialMT-44" x="305.664062"/>
     <use xlink:href="#ArialMT-20" x="377.880859"/>
     <use xlink:href="#ArialMT-4d" x="405.664062"/>
     <use xlink:href="#ArialMT-53" x="488.964844"/>
     <use xlink:href="#ArialMT-44" x="555.664062"/>
    </g>
   </g>
   <g id="legend_1">
    <g id="line2d_59">
     <path d="M 75.6 78.200937 
L 89.6 78.200937 
L 103.6 78.200937 
" style="fill: none; stroke: #000000; stroke-width: 1.5; stroke-linecap: round"/>
    </g>
    <g id="text_14">
     <!-- Data -->
     <g style="fill: #262626" transform="translate(114.8 83.100937) scale(0.14 -0.14)">
      <use xlink:href="#ArialMT-44"/>
      <use xlink:href="#ArialMT-61" x="72.216797"/>
      <use xlink:href="#ArialMT-74" x="127.832031"/>
      <use xlink:href="#ArialMT-61" x="155.615234"/>
     </g>
    </g>
    <g id="line2d_60">
     <path d="M 75.6 98.004375 
L 89.6 98.004375 
L 103.6 98.004375 
" style="fill: none; stroke-dasharray: 5.55,2.4; stroke-dashoffset: 0; stroke: #000000; stroke-width: 1.5"/>
    </g>
    <g id="text_15">
     <!-- Fit -->
     <g style="fill: #262626" transform="translate(114.8 102.904375) scale(0.14 -0.14)">
      <use xlink:href="#ArialMT-46"/>
      <use xlink:href="#ArialMT-69" x="61.083984"/>
      <use xlink:href="#ArialMT-74" x="83.300781"/>
     </g>
    </g>
   </g>
  </g>
 </g>
 <defs>
  <clipPath id="pee91d50d62">
   <rect x="63" y="60.48" width="390.6" height="388.08"/>
  </clipPath>
 </defs>
</svg>
