<?xml version="1.0" encoding="utf-8" standalone="no"?>
<!DOCTYPE svg PUBLIC "-//W3C//DTD SVG 1.1//EN"
  "http://www.w3.org/Graphics/SVG/1.1/DTD/svg11.dtd">
<svg xmlns:xlink="http://www.w3.org/1999/xlink" width="504pt" height="504pt" viewBox="0 0 504 504" xmlns="http://www.w3.org/2000/svg" version="1.1">
 <metadata>
  <rdf:RDF xmlns:dc="http://purl.org/dc/elements/1.1/" xmlns:cc="http://creativecommons.org/ns#" xmlns:rdf="http://www.w3.org/1999/02/22-rdf-syntax-ns#">
   <cc:Work>
    <dc:type rdf:resource="http://purl.org/dc/dcmitype/StillImage"/>
    <dc:date>2025-06-24T14:18:30.808233</dc:date>
    <dc:format>image/svg+xml</dc:format>
    <dc:creator>
     <cc:Agent>
      <dc:title>Matplotlib v3.8.0, https://matplotlib.org/</dc:title>
     </cc:Agent>
    </dc:creator>
   </cc:Work>
  </rdf:RDF>
 </metadata>
 <defs>
  <style type="text/css">*{stroke-linejoin: round; stroke-linecap: butt}</style>
 </defs>
 <g id="figure_1">
  <g id="patch_1">
   <path d="M 0 504 
L 504 504 
L 504 0 
L 0 0 
z
" style="fill: #ffffff"/>
  </g>
  <g id="axes_1">
   <g id="patch_2">
    <path d="M 63 448.56 
L 453.6 448.56 
L 453.6 60.48 
L 63 60.48 
z
" style="fill: #ffffff"/>
   </g>
   <g id="matplotlib.axis_1">
    <g id="xtick_1">
     <g id="line2d_1">
      <defs>
       <path id="m2bd373dfb7" d="M 0 0 
L 0 5 
" style="stroke: #262626; stroke-width: 0.8"/>
      </defs>
      <g>
       <use xlink:href="#m2bd373dfb7" x="103.06674" y="448.56" style="fill: #262626; stroke: #262626; stroke-width: 0.8"/>
      </g>
     </g>
     <g id="text_1">
      <!-- 6 -->
      <g style="fill: #262626" transform="translate(99.174084 467.080938) scale(0.14 -0.14)">
       <defs>
        <path id="ArialMT-36" d="M 3184 3459 
L 2625 3416 
Q 2550 3747 2413 3897 
Q 2184 4138 1850 4138 
Q 1581 4138 1378 3988 
Q 1113 3794 959 3422 
Q 806 3050 800 2363 
Q 1003 2672 1297 2822 
Q 1591 2972 1913 2972 
Q 2475 2972 2870 2558 
Q 3266 2144 3266 1488 
Q 3266 1056 3080 686 
Q 2894 316 2569 119 
Q 2244 -78 1831 -78 
Q 1128 -78 684 439 
Q 241 956 241 2144 
Q 241 3472 731 4075 
Q 1159 4600 1884 4600 
Q 2425 4600 2770 4297 
Q 3116 3994 3184 3459 
z
M 888 1484 
Q 888 1194 1011 928 
Q 1134 663 1356 523 
Q 1578 384 1822 384 
Q 2178 384 2434 671 
Q 2691 959 2691 1453 
Q 2691 1928 2437 2201 
Q 2184 2475 1800 2475 
Q 1419 2475 1153 2201 
Q 888 1928 888 1484 
z
" transform="scale(0.015625)"/>
       </defs>
       <use xlink:href="#ArialMT-36"/>
      </g>
     </g>
    </g>
    <g id="xtick_2">
     <g id="line2d_2">
      <g>
       <use xlink:href="#m2bd373dfb7" x="155.791858" y="448.56" style="fill: #262626; stroke: #262626; stroke-width: 0.8"/>
      </g>
     </g>
     <g id="text_2">
      <!-- 8 -->
      <g style="fill: #262626" transform="translate(151.899202 467.080938) scale(0.14 -0.14)">
       <defs>
        <path id="ArialMT-38" d="M 1131 2484 
Q 781 2613 612 2850 
Q 444 3088 444 3419 
Q 444 3919 803 4259 
Q 1163 4600 1759 4600 
Q 2359 4600 2725 4251 
Q 3091 3903 3091 3403 
Q 3091 3084 2923 2848 
Q 2756 2613 2416 2484 
Q 2838 2347 3058 2040 
Q 3278 1734 3278 1309 
Q 3278 722 2862 322 
Q 2447 -78 1769 -78 
Q 1091 -78 675 323 
Q 259 725 259 1325 
Q 259 1772 486 2073 
Q 713 2375 1131 2484 
z
M 1019 3438 
Q 1019 3113 1228 2906 
Q 1438 2700 1772 2700 
Q 2097 2700 2305 2904 
Q 2513 3109 2513 3406 
Q 2513 3716 2298 3927 
Q 2084 4138 1766 4138 
Q 1444 4138 1231 3931 
Q 1019 3725 1019 3438 
z
M 838 1322 
Q 838 1081 952 856 
Q 1066 631 1291 507 
Q 1516 384 1775 384 
Q 2178 384 2440 643 
Q 2703 903 2703 1303 
Q 2703 1709 2433 1975 
Q 2163 2241 1756 2241 
Q 1359 2241 1098 1978 
Q 838 1716 838 1322 
z
" transform="scale(0.015625)"/>
       </defs>
       <use xlink:href="#ArialMT-38"/>
      </g>
     </g>
    </g>
    <g id="xtick_3">
     <g id="line2d_3">
      <g>
       <use xlink:href="#m2bd373dfb7" x="208.516976" y="448.56" style="fill: #262626; stroke: #262626; stroke-width: 0.8"/>
      </g>
     </g>
     <g id="text_3">
      <!-- 10 -->
      <g style="fill: #262626" transform="translate(200.731664 467.080938) scale(0.14 -0.14)">
       <defs>
        <path id="ArialMT-31" d="M 2384 0 
L 1822 0 
L 1822 3584 
Q 1619 3391 1289 3197 
Q 959 3003 697 2906 
L 697 3450 
Q 1169 3672 1522 3987 
Q 1875 4303 2022 4600 
L 2384 4600 
L 2384 0 
z
" transform="scale(0.015625)"/>
        <path id="ArialMT-30" d="M 266 2259 
Q 266 3072 433 3567 
Q 600 4063 929 4331 
Q 1259 4600 1759 4600 
Q 2128 4600 2406 4451 
Q 2684 4303 2865 4023 
Q 3047 3744 3150 3342 
Q 3253 2941 3253 2259 
Q 3253 1453 3087 958 
Q 2922 463 2592 192 
Q 2263 -78 1759 -78 
Q 1097 -78 719 397 
Q 266 969 266 2259 
z
M 844 2259 
Q 844 1131 1108 757 
Q 1372 384 1759 384 
Q 2147 384 2411 759 
Q 2675 1134 2675 2259 
Q 2675 3391 2411 3762 
Q 2147 4134 1753 4134 
Q 1366 4134 1134 3806 
Q 844 3388 844 2259 
z
" transform="scale(0.015625)"/>
       </defs>
       <use xlink:href="#ArialMT-31"/>
       <use xlink:href="#ArialMT-30" x="55.615234"/>
      </g>
     </g>
    </g>
    <g id="xtick_4">
     <g id="line2d_4">
      <g>
       <use xlink:href="#m2bd373dfb7" x="261.242095" y="448.56" style="fill: #262626; stroke: #262626; stroke-width: 0.8"/>
      </g>
     </g>
     <g id="text_4">
      <!-- 12 -->
      <g style="fill: #262626" transform="translate(253.456782 467.080938) scale(0.14 -0.14)">
       <defs>
        <path id="ArialMT-32" d="M 3222 541 
L 3222 0 
L 194 0 
Q 188 203 259 391 
Q 375 700 629 1000 
Q 884 1300 1366 1694 
Q 2113 2306 2375 2664 
Q 2638 3022 2638 3341 
Q 2638 3675 2398 3904 
Q 2159 4134 1775 4134 
Q 1369 4134 1125 3890 
Q 881 3647 878 3216 
L 300 3275 
Q 359 3922 746 4261 
Q 1134 4600 1788 4600 
Q 2447 4600 2831 4234 
Q 3216 3869 3216 3328 
Q 3216 3053 3103 2787 
Q 2991 2522 2730 2228 
Q 2469 1934 1863 1422 
Q 1356 997 1212 845 
Q 1069 694 975 541 
L 3222 541 
z
" transform="scale(0.015625)"/>
       </defs>
       <use xlink:href="#ArialMT-31"/>
       <use xlink:href="#ArialMT-32" x="55.615234"/>
      </g>
     </g>
    </g>
    <g id="xtick_5">
     <g id="line2d_5">
      <g>
       <use xlink:href="#m2bd373dfb7" x="313.967213" y="448.56" style="fill: #262626; stroke: #262626; stroke-width: 0.8"/>
      </g>
     </g>
     <g id="text_5">
      <!-- 14 -->
      <g style="fill: #262626" transform="translate(306.1819 467.080938) scale(0.14 -0.14)">
       <defs>
        <path id="ArialMT-34" d="M 2069 0 
L 2069 1097 
L 81 1097 
L 81 1613 
L 2172 4581 
L 2631 4581 
L 2631 1613 
L 3250 1613 
L 3250 1097 
L 2631 1097 
L 2631 0 
L 2069 0 
z
M 2069 1613 
L 2069 3678 
L 634 1613 
L 2069 1613 
z
" transform="scale(0.015625)"/>
       </defs>
       <use xlink:href="#ArialMT-31"/>
       <use xlink:href="#ArialMT-34" x="55.615234"/>
      </g>
     </g>
    </g>
    <g id="xtick_6">
     <g id="line2d_6">
      <g>
       <use xlink:href="#m2bd373dfb7" x="366.692331" y="448.56" style="fill: #262626; stroke: #262626; stroke-width: 0.8"/>
      </g>
     </g>
     <g id="text_6">
      <!-- 16 -->
      <g style="fill: #262626" transform="translate(358.907018 467.080938) scale(0.14 -0.14)">
       <use xlink:href="#ArialMT-31"/>
       <use xlink:href="#ArialMT-36" x="55.615234"/>
      </g>
     </g>
    </g>
    <g id="xtick_7">
     <g id="line2d_7">
      <g>
       <use xlink:href="#m2bd373dfb7" x="419.417449" y="448.56" style="fill: #262626; stroke: #262626; stroke-width: 0.8"/>
      </g>
     </g>
     <g id="text_7">
      <!-- 18 -->
      <g style="fill: #262626" transform="translate(411.632137 467.080938) scale(0.14 -0.14)">
       <use xlink:href="#ArialMT-31"/>
       <use xlink:href="#ArialMT-38" x="55.615234"/>
      </g>
     </g>
    </g>
    <g id="text_8">
     <!-- x [\xb5m] -->
     <g style="fill: #262626" transform="translate(225.84875 485.510938) scale(0.16 -0.16)">
      <defs>
       <path id="ArialMT-78" d="M 47 0 
L 1259 1725 
L 138 3319 
L 841 3319 
L 1350 2541 
Q 1494 2319 1581 2169 
Q 1719 2375 1834 2534 
L 2394 3319 
L 3066 3319 
L 1919 1756 
L 3153 0 
L 2463 0 
L 1781 1031 
L 1600 1309 
L 728 0 
L 47 0 
z
" transform="scale(0.015625)"/>
       <path id="ArialMT-20" transform="scale(0.015625)"/>
       <path id="ArialMT-5b" d="M 434 -1272 
L 434 4581 
L 1675 4581 
L 1675 4116 
L 997 4116 
L 997 -806 
L 1675 -806 
L 1675 -1272 
L 434 -1272 
z
" transform="scale(0.015625)"/>
       <path id="ArialMT-5c" d="M 1328 -78 
L 0 4659 
L 453 4659 
L 1778 -78 
L 1328 -78 
z
" transform="scale(0.015625)"/>
       <path id="ArialMT-62" d="M 941 0 
L 419 0 
L 419 4581 
L 981 4581 
L 981 2947 
Q 1338 3394 1891 3394 
Q 2197 3394 2470 3270 
Q 2744 3147 2920 2923 
Q 3097 2700 3197 2384 
Q 3297 2069 3297 1709 
Q 3297 856 2875 390 
Q 2453 -75 1863 -75 
Q 1275 -75 941 416 
L 941 0 
z
M 934 1684 
Q 934 1088 1097 822 
Q 1363 388 1816 388 
Q 2184 388 2453 708 
Q 2722 1028 2722 1663 
Q 2722 2313 2464 2622 
Q 2206 2931 1841 2931 
Q 1472 2931 1203 2611 
Q 934 2291 934 1684 
z
" transform="scale(0.015625)"/>
       <path id="ArialMT-35" d="M 266 1200 
L 856 1250 
Q 922 819 1161 601 
Q 1400 384 1738 384 
Q 2144 384 2425 690 
Q 2706 997 2706 1503 
Q 2706 1984 2436 2262 
Q 2166 2541 1728 2541 
Q 1456 2541 1237 2417 
Q 1019 2294 894 2097 
L 366 2166 
L 809 4519 
L 3088 4519 
L 3088 3981 
L 1259 3981 
L 1013 2750 
Q 1425 3038 1878 3038 
Q 2478 3038 2890 2622 
Q 3303 2206 3303 1553 
Q 3303 931 2941 478 
Q 2500 -78 1738 -78 
Q 1113 -78 717 272 
Q 322 622 266 1200 
z
" transform="scale(0.015625)"/>
       <path id="ArialMT-6d" d="M 422 0 
L 422 3319 
L 925 3319 
L 925 2853 
Q 1081 3097 1340 3245 
Q 1600 3394 1931 3394 
Q 2300 3394 2536 3241 
Q 2772 3088 2869 2813 
Q 3263 3394 3894 3394 
Q 4388 3394 4653 3120 
Q 4919 2847 4919 2278 
L 4919 0 
L 4359 0 
L 4359 2091 
Q 4359 2428 4304 2576 
Q 4250 2725 4106 2815 
Q 3963 2906 3769 2906 
Q 3419 2906 3187 2673 
Q 2956 2441 2956 1928 
L 2956 0 
L 2394 0 
L 2394 2156 
Q 2394 2531 2256 2718 
Q 2119 2906 1806 2906 
Q 1569 2906 1367 2781 
Q 1166 2656 1075 2415 
Q 984 2175 984 1722 
L 984 0 
L 422 0 
z
" transform="scale(0.015625)"/>
       <path id="ArialMT-5d" d="M 1363 -1272 
L 122 -1272 
L 122 -806 
L 800 -806 
L 800 4116 
L 122 4116 
L 122 4581 
L 1363 4581 
L 1363 -1272 
z
" transform="scale(0.015625)"/>
      </defs>
      <use xlink:href="#ArialMT-78"/>
      <use xlink:href="#ArialMT-20" x="50"/>
      <use xlink:href="#ArialMT-5b" x="77.783203"/>
      <use xlink:href="#ArialMT-5c" x="105.566406"/>
      <use xlink:href="#ArialMT-78" x="133.349609"/>
      <use xlink:href="#ArialMT-62" x="183.349609"/>
      <use xlink:href="#ArialMT-35" x="238.964844"/>
      <use xlink:href="#ArialMT-6d" x="294.580078"/>
      <use xlink:href="#ArialMT-5d" x="377.880859"/>
     </g>
    </g>
   </g>
   <g id="matplotlib.axis_2">
    <g id="ytick_1">
     <g id="line2d_8">
      <defs>
       <path id="m98b8bdee2f" d="M 0 0 
L -5 0 
" style="stroke: #262626; stroke-width: 0.8"/>
      </defs>
      <g>
       <use xlink:href="#m98b8bdee2f" x="63" y="80.666633" style="fill: #262626; stroke: #262626; stroke-width: 0.8"/>
      </g>
     </g>
     <g id="text_9">
      <!-- 4 -->
      <g style="fill: #262626" transform="translate(46.714687 85.677102) scale(0.14 -0.14)">
       <use xlink:href="#ArialMT-34"/>
      </g>
     </g>
    </g>
    <g id="ytick_2">
     <g id="line2d_9">
      <g>
       <use xlink:href="#m98b8bdee2f" x="63" y="133.391751" style="fill: #262626; stroke: #262626; stroke-width: 0.8"/>
      </g>
     </g>
     <g id="text_10">
      <!-- 6 -->
      <g style="fill: #262626" transform="translate(46.714687 138.40222) scale(0.14 -0.14)">
       <use xlink:href="#ArialMT-36"/>
      </g>
     </g>
    </g>
    <g id="ytick_3">
     <g id="line2d_10">
      <g>
       <use xlink:href="#m98b8bdee2f" x="63" y="186.116869" style="fill: #262626; stroke: #262626; stroke-width: 0.8"/>
      </g>
     </g>
     <g id="text_11">
      <!-- 8 -->
      <g style="fill: #262626" transform="translate(46.714687 191.127338) scale(0.14 -0.14)">
       <use xlink:href="#ArialMT-38"/>
      </g>
     </g>
    </g>
    <g id="ytick_4">
     <g id="line2d_11">
      <g>
       <use xlink:href="#m98b8bdee2f" x="63" y="238.841988" style="fill: #262626; stroke: #262626; stroke-width: 0.8"/>
      </g>
     </g>
     <g id="text_12">
      <!-- 10 -->
      <g style="fill: #262626" transform="translate(38.929375 243.852456) scale(0.14 -0.14)">
       <use xlink:href="#ArialMT-31"/>
       <use xlink:href="#ArialMT-30" x="55.615234"/>
      </g>
     </g>
    </g>
    <g id="ytick_5">
     <g id="line2d_12">
      <g>
       <use xlink:href="#m98b8bdee2f" x="63" y="291.567106" style="fill: #262626; stroke: #262626; stroke-width: 0.8"/>
      </g>
     </g>
     <g id="text_13">
      <!-- 12 -->
      <g style="fill: #262626" transform="translate(38.929375 296.577574) scale(0.14 -0.14)">
       <use xlink:href="#ArialMT-31"/>
       <use xlink:href="#ArialMT-32" x="55.615234"/>
      </g>
     </g>
    </g>
    <g id="ytick_6">
     <g id="line2d_13">
      <g>
       <use xlink:href="#m98b8bdee2f" x="63" y="344.292224" style="fill: #262626; stroke: #262626; stroke-width: 0.8"/>
      </g>
     </g>
     <g id="text_14">
      <!-- 14 -->
      <g style="fill: #262626" transform="translate(38.929375 349.302693) scale(0.14 -0.14)">
       <use xlink:href="#ArialMT-31"/>
       <use xlink:href="#ArialMT-34" x="55.615234"/>
      </g>
     </g>
    </g>
    <g id="ytick_7">
     <g id="line2d_14">
      <g>
       <use xlink:href="#m98b8bdee2f" x="63" y="397.017342" style="fill: #262626; stroke: #262626; stroke-width: 0.8"/>
      </g>
     </g>
     <g id="text_15">
      <!-- 16 -->
      <g style="fill: #262626" transform="translate(38.929375 402.027811) scale(0.14 -0.14)">
       <use xlink:href="#ArialMT-31"/>
       <use xlink:href="#ArialMT-36" x="55.615234"/>
      </g>
     </g>
    </g>
    <g id="text_16">
     <!-- y [\xb5m] -->
     <g style="fill: #262626" transform="translate(31.561875 286.97125) rotate(-90) scale(0.16 -0.16)">
      <defs>
       <path id="ArialMT-79" d="M 397 -1278 
L 334 -750 
Q 519 -800 656 -800 
Q 844 -800 956 -737 
Q 1069 -675 1141 -563 
Q 1194 -478 1313 -144 
Q 1328 -97 1363 -6 
L 103 3319 
L 709 3319 
L 1400 1397 
Q 1534 1031 1641 628 
Q 1738 1016 1872 1384 
L 2581 3319 
L 3144 3319 
L 1881 -56 
Q 1678 -603 1566 -809 
Q 1416 -1088 1222 -1217 
Q 1028 -1347 759 -1347 
Q 597 -1347 397 -1278 
z
" transform="scale(0.015625)"/>
      </defs>
      <use xlink:href="#ArialMT-79"/>
      <use xlink:href="#ArialMT-20" x="50"/>
      <use xlink:href="#ArialMT-5b" x="77.783203"/>
      <use xlink:href="#ArialMT-5c" x="105.566406"/>
      <use xlink:href="#ArialMT-78" x="133.349609"/>
      <use xlink:href="#ArialMT-62" x="183.349609"/>
      <use xlink:href="#ArialMT-35" x="238.964844"/>
      <use xlink:href="#ArialMT-6d" x="294.580078"/>
      <use xlink:href="#ArialMT-5d" x="377.880859"/>
     </g>
    </g>
   </g>
   <g id="line2d_15">
    <path d="M 433.333402 359.70739 
L 434.082016 360.241463 
L 433.614769 360.070965 
L 433.026909 360.405405 
L 433.696113 360.233124 
L 433.218697 360.774949 
L 433.941433 360.708743 
L 434.39759 360.428046 
L 434.4371 360.555304 
L 433.784143 360.459098 
L 433.300578 361.402417 
L 433.714237 360.41183 
L 433.529851 360.314908 
L 433.998004 359.951072 
L 434.083416 360.592536 
L 434.77498 360.312556 
L 434.564795 360.372808 
L 434.776551 360.038878 
L 434.642136 360.695254 
L 434.543498 360.4688 
L 434.97103 360.539819 
L 434.712345 360.002824 
L 434.617026 360.231867 
L 434.187454 360.383666 
L 434.525406 359.793517 
L 434.909287 359.752506 
L 435.05638 359.531721 
L 435.192013 359.851829 
L 435.120854 360.739044 
L 434.395926 360.748329 
L 434.456342 360.555634 
L 434.560302 361.026965 
L 434.629446 360.994835 
L 434.375869 361.1341 
L 434.383494 361.333128 
L 434.919598 361.023848 
L 434.438729 360.959024 
L 433.983628 361.795924 
L 434.444595 361.487226 
L 434.517919 361.000815 
L 435.118906 361.1855 
L 434.29454 361.037107 
L 433.660882 361.395342 
L 434.106234 361.617487 
L 434.012867 360.939273 
L 433.333699 361.402943 
L 433.739013 361.723931 
L 433.977694 362.399175 
L 433.684622 362.158632 
L 433.861027 361.578132 
L 434.108673 361.678287 
L 434.586937 361.231676 
L 434.837907 361.157183 
L 433.891096 362.068781 
L 433.821562 361.943172 
L 434.561119 361.696461 
L 434.336338 361.393337 
L 434.917256 360.290393 
L 434.8981 360.840933 
L 434.67173 360.818366 
L 434.918423 360.633975 
L 435.047639 360.131459 
L 435.503046 360.224472 
L 434.732691 359.997902 
L 435.484178 359.855934 
L 435.315349 360.338503 
L 435.090625 360.108972 
L 435.584976 360.070242 
L 435.385697 359.666082 
L 435.212649 359.714793 
L 435.246205 360.16879 
L 435.435116 359.342353 
L 435.032344 360.001925 
L 435.845455 360.288868 
L 434.595786 359.639137 
L 434.339678 359.753023 
L 434.693047 360.130728 
L 434.956638 359.968252 
L 435.421382 360.049813 
L 435.183118 359.779628 
L 434.861292 360.149049 
L 434.206383 360.021181 
L 434.238904 359.704474 
L 434.064256 359.683435 
L 433.962773 360.18733 
L 434.378946 359.686985 
L 434.509062 359.939945 
L 434.043009 360.805432 
L 433.926159 361.304229 
L 434.397336 361.427549 
L 433.894331 361.163707 
L 433.774252 361.291362 
L 433.971064 361.549248 
L 433.779296 361.379009 
L 433.347756 362.017824 
L 433.229908 361.306058 
L 432.624451 361.116178 
L 432.748234 359.670932 
L 433.353271 359.672073 
L 433.38165 360.053687 
L 433.053224 360.11933 
L 433.573029 359.867171 
L 433.462186 359.489688 
L 433.569308 359.463151 
L 433.9228 359.208235 
L 433.77469 359.243226 
L 433.344981 359.262215 
L 433.809421 359.326444 
L 433.534534 359.26589 
L 433.109942 359.655383 
L 433.884317 360.524954 
L 433.752284 360.51615 
L 433.601701 361.160213 
L 433.814318 360.324643 
L 433.806996 359.557075 
L 433.518537 359.423009 
L 433.406983 359.853999 
L 433.207059 360.065621 
L 433.777046 359.924835 
L 433.454379 360.149288 
L 433.712338 359.518088 
L 434.423787 360.079381 
L 434.37945 360.225974 
L 434.239348 360.266465 
L 433.258927 360.066497 
L 433.266325 360.243188 
L 433.067463 360.548356 
L 432.995921 360.49881 
L 432.721635 360.386445 
L 433.270645 360.276067 
L 433.669534 359.927829 
L 433.288734 360.328145 
L 433.644119 359.970754 
L 433.466445 359.687581 
L 434.410489 359.032219 
L 434.438128 358.795168 
L 434.128809 359.0267 
L 434.441179 359.316007 
L 433.952216 360.535742 
L 434.213529 360.963061 
L 433.71333 361.01776 
L 433.538151 361.226766 
L 433.576892 361.143919 
L 432.526353 360.980955 
L 432.976163 361.312026 
L 433.638789 361.393905 
L 433.357794 361.059925 
L 432.550706 361.456661 
L 432.448623 361.167047 
L 432.036299 361.17312 
L 432.383999 361.499366 
L 432.743067 361.578804 
L 432.774629 360.946 
L 431.740431 361.619943 
L 431.747098 361.425309 
L 431.864694 361.365279 
L 432.446237 361.367147 
L 433.102382 361.145024 
L 432.703663 360.94159 
L 433.178808 360.986483 
L 432.19316 360.988154 
L 432.859885 360.802272 
L 433.169773 361.463815 
L 432.916554 361.03376 
L 432.662667 360.914367 
L 432.552915 360.630721 
L 432.930513 360.736858 
L 432.78295 361.55934 
L 432.828367 360.779556 
L 433.347024 361.568098 
L 432.805041 361.764269 
L 432.749566 361.500019 
L 432.56178 361.190179 
L 432.515841 361.539361 
L 432.532941 360.464779 
L 432.169449 360.829777 
L 432.546103 360.701214 
L 432.048914 361.203148 
L 431.96819 360.833003 
L 432.137963 360.813226 
L 432.20265 360.483538 
L 432.613919 360.407223 
L 431.78541 361.09048 
L 431.524406 361.112844 
L 432.169686 361.314813 
L 432.067129 360.60543 
L 431.621309 361.452823 
L 431.431353 361.405533 
L 431.387968 361.23127 
L 431.611912 361.269516 
L 431.186748 361.548074 
L 431.023025 360.884377 
L 431.259378 360.752234 
L 431.671889 360.701317 
L 431.760973 360.299734 
L 432.076885 361.119232 
L 431.800669 360.379758 
L 432.162576 359.867618 
L 432.386099 360.657211 
L 432.905884 360.16707 
L 432.697784 360.210931 
L 431.882538 360.643776 
L 431.878865 360.869244 
L 431.999973 360.646996 
L 431.706686 360.872338 
L 431.983186 359.567522 
L 432.290089 360.013556 
L 431.713158 360.452851 
L 432.147626 360.51826 
L 432.011244 359.969545 
L 432.131756 360.899617 
L 432.058025 360.962409 
L 432.288492 361.411588 
L 432.2171 360.05471 
L 432.474114 360.625583 
L 432.307177 361.767886 
L 431.99558 361.309531 
L 432.61785 361.36742 
L 432.343179 361.943083 
L 432.591101 361.976012 
L 432.736784 361.641907 
L 432.345153 361.999167 
L 432.52295 361.15078 
L 432.24483 361.489013 
L 432.120838 360.722351 
L 432.399867 360.808064 
L 432.859876 360.485241 
L 432.826874 360.32399 
L 432.878134 360.909972 
L 432.706256 360.348885 
L 433.214705 360.063485 
L 433.946932 360.751422 
L 433.703793 360.720691 
L 434.393791 360.120922 
L 433.816761 360.530209 
L 433.42221 360.28775 
L 432.787691 360.587587 
L 432.5288 360.285163 
L 432.965679 360.260263 
L 432.849142 360.423112 
L 433.337808 360.562383 
L 432.832921 360.560377 
L 433.009878 360.936497 
L 433.286966 360.901384 
L 432.733033 360.789157 
L 432.588158 361.153853 
L 433.343228 361.125004 
L 433.487208 360.62324 
L 433.193039 360.49587 
L 432.809437 360.519313 
L 433.236683 360.858467 
L 433.071211 361.076999 
L 432.391354 360.982905 
L 432.696752 360.182096 
L 432.670044 360.449835 
L 433.213168 360.271666 
L 433.173618 360.202892 
L 433.37308 359.935694 
L 433.442858 360.244126 
L 432.967183 359.990523 
L 433.209375 360.284945 
L 433.254884 360.021031 
L 432.75738 360.022101 
L 433.130685 360.252653 
L 432.518292 360.152701 
L 432.521856 360.245207 
L 432.220827 360.986329 
L 432.182633 360.405648 
L 432.593045 360.255512 
L 432.032618 360.490827 
L 432.127172 360.604388 
L 432.308563 359.917492 
L 432.458183 360.105221 
L 432.346618 359.850822 
L 432.665128 360.678444 
L 431.918714 360.767149 
L 431.588154 360.611167 
L 432.085845 360.720293 
L 432.209156 361.517248 
L 432.407094 361.494287 
L 432.16771 360.923026 
L 432.496182 361.127785 
L 432.36301 361.154702 
L 432.752937 361.68154 
L 432.555894 360.870315 
L 431.800112 360.787692 
L 432.351475 360.999241 
L 432.355053 360.986924 
L 432.306791 361.476716 
L 431.330336 360.267955 
L 431.589062 359.905552 
L 431.38668 359.667807 
L 431.546304 360.214289 
L 431.393406 359.567038 
L 431.617624 359.822505 
L 431.350837 359.647141 
L 430.987977 359.467205 
L 431.562156 359.410432 
L 431.817399 360.81706 
L 431.311908 360.376947 
L 431.355908 360.221708 
L 431.855316 360.122563 
L 431.403074 360.211197 
L 431.542182 361.400469 
L 431.906023 360.842066 
L 431.597218 361.04367 
L 431.994172 359.939825 
L 432.393874 360.686657 
L 432.337434 359.743786 
L 432.046806 359.543958 
L 432.492983 359.41923 
L 432.853046 360.187956 
L 432.630268 359.900675 
L 432.346717 359.452406 
L 432.114494 359.315205 
L 432.817933 359.416082 
L 432.81998 359.839122 
L 433.10693 359.461211 
L 432.500535 360.078415 
L 431.839092 359.837159 
L 431.227957 359.926118 
L 432.535643 359.299707 
L 432.560626 359.120196 
L 432.418694 359.404574 
L 432.867747 358.5101 
L 433.326902 358.47536 
L 433.060663 359.743366 
L 432.712812 359.255881 
L 433.395638 358.846192 
L 433.483307 359.506354 
L 432.638316 359.520234 
L 432.834964 359.42499 
L 432.911232 359.950761 
L 433.064843 359.861988 
L 433.208218 360.135915 
L 432.707808 360.199042 
L 432.717333 360.715065 
L 432.091373 360.1796 
L 431.844133 360.959487 
L 432.05281 361.094414 
L 432.273886 360.689009 
L 432.933576 360.583663 
L 432.898096 360.644775 
L 432.641081 361.207297 
L 433.156315 361.085539 
L 432.962105 360.841515 
L 433.125161 360.55778 
L 432.702368 359.905009 
L 432.809956 359.671911 
L 433.111546 360.467327 
L 433.789743 359.990388 
L 433.471898 360.288651 
L 433.400057 360.626901 
L 433.67424 360.99383 
L 433.67424 360.99383 
" clip-path="url(#pbf31b73c7c)" style="fill: none; stroke: #1f77b4; stroke-linecap: round"/>
   </g>
   <g id="line2d_16">
    <path d="M 329.044933 248.407881 
L 329.057335 248.48899 
L 329.445365 248.565143 
L 329.71813 248.424485 
L 329.606192 248.018837 
L 329.96132 247.603416 
L 329.703117 247.889441 
L 329.384585 247.638122 
L 329.693522 247.370547 
L 329.491859 247.327539 
L 329.461346 247.614339 
L 329.464298 247.16029 
L 329.191484 247.337047 
L 330.073503 247.300353 
L 329.705507 247.228333 
L 330.127164 247.306949 
L 329.776451 247.215809 
L 329.958629 247.547532 
L 329.656831 247.632347 
L 329.51958 247.469817 
L 329.770826 247.42369 
L 329.538751 247.300973 
L 330.037346 247.615647 
L 330.318882 247.281013 
L 329.810773 247.165144 
L 329.712071 246.969054 
L 329.527682 247.274012 
L 329.473384 247.151902 
L 329.15997 247.339672 
L 329.940291 247.375428 
L 330.029167 247.18946 
L 329.356282 247.500957 
L 329.739024 247.176666 
L 329.342755 247.527932 
L 329.773681 247.639147 
L 329.637546 247.823352 
L 329.572733 247.668068 
L 329.231524 248.065816 
L 329.105454 247.590014 
L 328.858053 247.603047 
L 328.865853 248.162294 
L 329.227374 248.436083 
L 328.843993 248.462136 
L 329.100739 248.160622 
L 329.01951 248.531465 
L 328.835564 248.331807 
L 329.009949 248.299843 
L 328.868236 248.210459 
L 328.598001 248.515449 
L 328.65336 249.132121 
L 328.433427 249.056921 
L 328.354495 249.548903 
L 328.360438 249.426836 
L 328.410661 249.597612 
L 328.60628 249.19806 
L 328.412514 249.298519 
L 328.516567 249.191202 
L 328.872288 249.297365 
L 328.914273 248.960528 
L 328.965534 248.975123 
L 328.777233 248.899186 
L 328.964576 249.031324 
L 328.345811 248.862024 
L 328.358426 248.644968 
L 328.926665 249.155401 
L 329.032102 248.892325 
L 328.97695 248.681933 
L 328.713904 248.680713 
L 329.217439 248.171328 
L 328.848761 248.473163 
L 328.674319 248.868916 
L 329.123234 248.674358 
L 328.974613 248.815879 
L 329.89186 248.030386 
L 329.612713 248.188376 
L 328.930235 247.94783 
L 329.095561 247.915457 
L 329.651863 247.730154 
L 329.730095 248.355682 
L 329.739822 248.101188 
L 329.897511 247.466769 
L 329.770247 248.15087 
L 330.015073 248.033801 
L 330.306459 248.085984 
L 330.133249 248.084384 
L 329.723825 248.144562 
L 329.287744 247.977884 
L 329.648578 247.933152 
L 329.730957 247.638752 
L 329.298773 247.304384 
L 329.840672 247.830452 
L 329.261191 248.067063 
L 329.37002 248.488025 
L 329.557623 248.449339 
L 329.174981 247.996445 
L 329.674521 247.742174 
L 329.277488 247.949459 
L 328.985756 247.788686 
L 329.113519 247.95904 
L 330.044235 247.783393 
L 330.130579 247.649478 
L 329.955357 247.268026 
L 329.665431 247.434878 
L 329.335737 247.490926 
L 328.92734 247.384252 
L 329.040134 247.374125 
L 328.972278 247.7731 
L 329.160651 248.179293 
L 329.341722 247.98236 
L 329.714431 248.038543 
L 329.30664 247.771181 
L 329.291405 247.878111 
L 329.180834 247.998949 
L 329.31845 247.954267 
L 328.926125 247.823061 
L 329.310235 247.52199 
L 329.085853 247.455687 
L 329.75103 247.321017 
L 329.133877 247.27252 
L 328.727728 247.745094 
L 329.432489 247.757906 
L 328.631473 247.597908 
L 328.977913 247.432311 
L 328.62916 247.433401 
L 328.919208 247.149442 
L 329.013597 247.40887 
L 328.566093 247.918611 
L 328.610745 247.932659 
L 328.432139 247.875796 
L 328.58195 247.547137 
L 328.564159 247.771442 
L 328.474675 247.412491 
L 329.312543 247.383673 
L 328.904802 247.285879 
L 329.109617 247.318214 
L 328.888854 247.479701 
L 328.931448 247.477759 
L 329.119697 247.623412 
L 329.168853 247.367218 
L 329.120536 247.747602 
L 329.503541 247.469668 
L 329.691125 247.649935 
L 329.174081 247.730622 
L 329.202637 247.868991 
L 329.164602 247.691514 
L 328.848791 247.731884 
L 329.079479 247.237566 
L 328.962855 247.700978 
L 329.51833 248.041003 
L 329.441211 247.774108 
L 329.521387 247.838039 
L 329.983139 248.079419 
L 329.586613 248.095849 
L 329.663704 248.064099 
L 329.628205 248.304084 
L 329.511935 248.076602 
L 329.370388 248.306254 
L 329.422921 247.773027 
L 328.983642 247.779414 
L 329.256873 247.749008 
L 329.359313 247.944629 
L 328.768892 247.88096 
L 328.819591 248.314364 
L 328.26455 248.55049 
L 328.595389 248.650669 
L 328.460344 248.486198 
L 328.815775 248.541595 
L 328.664208 248.620587 
L 328.167447 248.799434 
L 328.49458 249.220552 
L 328.986472 248.546391 
L 328.540708 248.178659 
L 328.769387 248.728201 
L 328.746255 249.01759 
L 328.524436 248.82316 
L 328.434695 249.161184 
L 328.363809 248.875563 
L 328.513228 248.515526 
L 328.682863 248.987488 
L 328.27563 248.791753 
L 328.309149 249.176218 
L 328.622874 249.177815 
L 328.652094 248.832131 
L 328.412195 249.019472 
L 328.343958 248.644607 
L 328.571624 248.737866 
L 328.278917 248.990794 
L 328.220046 248.866438 
L 328.534909 248.332179 
L 328.225804 248.482435 
L 328.256241 248.612386 
L 327.852803 248.326547 
L 328.318061 248.601274 
L 328.308715 248.962909 
L 328.300814 248.443667 
L 328.182344 248.748152 
L 327.975851 248.691227 
L 328.082039 248.694231 
L 327.987311 248.356176 
L 328.106565 248.182851 
L 328.019708 248.703303 
L 328.205003 248.405526 
L 328.208635 248.589217 
L 328.044158 248.404968 
L 327.782806 248.501786 
L 327.91336 248.398163 
L 328.33561 249.004162 
L 328.293806 248.672279 
L 327.923093 248.442881 
L 327.933236 248.110255 
L 328.119028 248.148825 
L 327.793547 248.073107 
L 327.923826 248.432734 
L 328.189808 248.194647 
L 328.056683 248.386981 
L 327.813903 248.215414 
L 327.928043 247.641808 
L 327.812268 248.409179 
L 328.102592 248.600456 
L 327.788862 248.365287 
L 328.240689 248.138477 
L 328.19045 248.034836 
L 327.812851 248.343861 
L 327.704749 247.851871 
L 327.755858 248.097707 
L 327.59872 248.797081 
L 327.287903 248.240452 
L 327.431827 247.945974 
L 327.358553 247.530257 
L 327.353356 247.958538 
L 327.202314 247.807735 
L 326.971176 248.338729 
L 326.696055 247.833339 
L 327.137008 247.492964 
L 327.440037 247.494488 
L 327.452821 247.905796 
L 327.393518 247.357991 
L 327.329553 247.97826 
L 327.253543 247.746361 
L 327.018268 248.053931 
L 328.024684 247.911737 
L 327.830612 247.793667 
L 327.473966 248.103066 
L 327.293387 248.030317 
L 327.388903 248.339779 
L 327.194602 248.35168 
L 327.31596 248.654371 
L 327.591686 248.737335 
L 327.553109 248.682617 
L 327.401368 248.408306 
L 327.472256 248.279903 
L 327.265029 248.626885 
L 327.417027 248.930078 
L 327.552566 248.641932 
L 327.401003 248.758858 
L 327.435794 248.494397 
L 327.362761 248.884381 
L 327.625259 248.691538 
L 327.768472 248.820788 
L 327.669023 249.01761 
L 328.192442 248.72389 
L 327.909437 249.055443 
L 328.375674 248.39296 
L 327.840799 248.449402 
L 328.302298 248.509944 
L 327.908961 248.55474 
L 328.404827 248.443537 
L 327.908906 248.368028 
L 327.985221 248.302576 
L 327.906557 248.102003 
L 328.175169 248.169549 
L 327.963465 247.744254 
L 327.983968 247.748472 
L 328.183926 247.553078 
L 328.40737 247.722264 
L 327.723017 247.683652 
L 327.800532 247.365746 
L 327.785882 247.780452 
L 328.088119 247.546154 
L 328.666929 247.80333 
L 328.570261 247.485649 
L 328.607274 247.546198 
L 328.471935 247.875401 
L 328.73854 247.76411 
L 328.417338 247.823781 
L 328.443974 247.88146 
L 328.189335 247.538957 
L 328.734541 248.013873 
L 328.532431 247.802367 
L 328.864034 247.654349 
L 328.663809 247.804871 
L 328.448643 248.04601 
L 328.254961 247.81045 
L 328.179594 248.022512 
L 328.559375 248.168856 
L 328.239184 247.795073 
L 328.037764 247.961568 
L 328.255908 247.993878 
L 328.412599 247.867319 
L 328.280437 247.728423 
L 328.144206 247.864744 
L 328.265948 247.89103 
L 328.209206 247.962033 
L 327.757147 248.300404 
L 327.985771 248.181366 
L 327.562741 248.191983 
L 327.394295 247.97547 
L 327.628468 247.703338 
L 327.874963 247.746916 
L 327.204539 248.036532 
L 328.166954 248.122989 
L 328.124336 248.051167 
L 327.847245 247.839797 
L 327.959147 248.049083 
L 327.696574 248.192953 
L 327.692789 248.06934 
L 328.269426 248.129338 
L 328.138143 248.136015 
L 327.991518 247.809008 
L 327.744664 248.124747 
L 327.796848 248.143474 
" clip-path="url(#pbf31b73c7c)" style="fill: none; stroke: #ff7f0e; stroke-linecap: round"/>
   </g>
   <g id="line2d_17">
    <path d="M 236.257148 315.933875 
L 235.928775 315.863194 
L 235.633424 315.056865 
L 235.48067 316.026172 
L 236.362444 315.457084 
L 236.385136 314.99041 
L 235.87413 314.930549 
L 235.916573 315.503295 
L 236.446006 315.612734 
L 236.445774 314.889878 
L 236.267822 314.349228 
M 237.077907 314.231068 
L 236.169401 314.190711 
L 236.531199 314.102051 
M 235.841732 313.850628 
L 235.734531 313.694816 
L 235.506131 313.762183 
L 235.117887 314.406309 
L 235.850243 314.010163 
L 236.063965 314.137777 
L 236.091051 313.851014 
L 235.909341 314.687218 
L 235.500192 314.687629 
L 235.782837 314.981957 
L 235.917104 314.774925 
L 235.66939 314.583035 
M 235.215823 314.916782 
L 235.467998 314.748808 
L 235.060299 314.9224 
L 235.854972 314.905556 
L 235.731844 314.651929 
M 235.456069 314.896767 
L 235.426002 314.630294 
L 235.55269 315.427284 
L 235.213841 314.953184 
L 235.189292 315.16468 
L 235.56628 315.838127 
L 235.2436 315.388668 
L 235.120051 315.510443 
L 235.396639 315.125381 
L 236.050002 315.441793 
L 235.001576 315.419592 
L 235.262127 314.903494 
L 234.810956 315.728419 
L 234.497726 315.194295 
L 234.546727 315.498121 
L 235.062031 315.275114 
L 234.511542 315.34048 
L 234.994907 315.249783 
L 235.425638 314.598927 
L 235.284976 315.175615 
M 235.581205 315.246207 
L 234.791798 315.008184 
L 235.192839 315.260705 
L 235.720549 315.884686 
L 235.102538 315.895894 
L 235.395663 315.979489 
L 235.332533 315.583522 
L 234.662904 315.671889 
M 235.813869 315.719202 
L 236.001617 315.77529 
M 234.651233 315.776016 
L 234.648799 316.414324 
L 234.77269 316.655478 
L 234.451133 316.437648 
L 234.846167 316.561729 
L 234.858395 316.428003 
L 235.452287 316.038457 
L 233.997684 316.669224 
L 235.271199 315.575779 
L 234.975386 315.525086 
L 234.996325 316.311785 
L 234.974967 314.866735 
L 234.811869 314.75889 
L 235.294298 315.612292 
L 234.82937 315.866172 
L 234.332282 316.250767 
L 233.804785 315.541406 
L 234.399031 315.06634 
L 234.615675 316.218354 
L 234.738642 316.045399 
L 234.942602 316.706608 
L 234.200498 316.991884 
L 234.892614 316.731432 
L 234.726603 317.383608 
L 234.065016 317.138239 
L 234.216815 317.046788 
L 234.231454 316.499321 
L 234.135162 317.211227 
L 233.734726 317.12918 
L 233.842693 317.20708 
L 233.579024 316.613396 
L 233.626856 316.637047 
L 234.043069 316.517251 
L 234.030626 316.731055 
L 234.361469 315.953582 
L 233.760917 315.912842 
L 233.779678 316.651035 
L 233.666109 316.224562 
L 234.126434 316.241088 
L 233.991154 315.676658 
L 234.929103 316.228327 
L 234.312493 316.333458 
M 234.086265 315.903967 
L 233.778264 316.123267 
L 234.076731 316.527815 
L 234.10531 316.808234 
M 233.781183 316.523983 
L 233.427618 316.655102 
L 233.750567 316.64229 
L 233.372907 316.263035 
L 232.949107 316.14412 
L 233.783547 316.352038 
L 234.019615 317.34698 
L 233.391596 316.707653 
L 233.488385 316.717375 
L 233.646455 317.156742 
L 233.700313 317.026854 
L 233.145124 316.979243 
L 233.530313 317.288782 
L 233.319907 316.604122 
M 233.505497 317.213329 
L 234.169121 317.828298 
L 234.987338 318.124852 
L 234.158586 317.400421 
L 233.589816 317.169937 
L 233.852268 317.359539 
L 234.101324 316.632618 
L 233.825264 317.216934 
L 233.063999 317.053204 
L 233.842514 316.889183 
L 234.132644 317.432534 
L 233.732411 317.101348 
M 234.172141 317.565485 
L 233.191072 316.952498 
L 234.284003 316.252612 
M 233.884539 316.325428 
L 233.998639 316.310552 
L 234.410371 317.141096 
L 234.332735 316.519455 
L 233.605707 317.078033 
L 233.675183 316.525673 
L 233.542951 316.025256 
L 233.498204 316.383189 
L 233.87467 316.698481 
M 233.479308 316.685956 
L 233.715447 316.326541 
L 234.012997 316.583083 
L 233.535242 316.528369 
L 233.820225 316.492953 
L 233.593505 317.037296 
L 233.787208 317.698837 
L 233.191501 317.284176 
L 233.243985 316.908635 
L 233.423394 316.926168 
L 233.511943 316.708333 
L 233.583152 317.234519 
L 233.260411 316.793143 
L 233.26058 317.054876 
L 233.987822 316.882082 
L 233.695095 317.663651 
L 234.103595 317.595342 
L 233.450924 317.961368 
L 233.557973 317.324096 
L 233.430412 317.663717 
L 233.210033 317.600944 
L 233.361965 318.23236 
L 233.115761 317.752897 
L 233.923552 316.665952 
L 234.133145 316.976744 
L 233.412613 317.303541 
L 233.583265 317.79379 
L 233.580138 317.335415 
L 233.764459 316.435052 
L 233.451658 317.544755 
L 232.822283 317.308299 
L 233.006216 316.868792 
L 232.606646 316.54614 
L 233.009055 317.414806 
L 233.510455 317.052537 
L 232.972792 317.117441 
L 232.327546 317.719952 
L 233.489444 317.234613 
L 233.133773 317.544887 
L 232.787461 317.232866 
L 233.191836 316.406391 
L 232.598403 316.399674 
L 232.572172 316.060286 
L 232.76396 316.274609 
L 232.908292 316.618283 
L 232.829699 315.898905 
L 232.402476 316.034979 
L 232.294475 316.657486 
L 233.069542 315.790614 
L 231.983324 315.90029 
L 231.788216 316.071245 
L 232.16278 316.368853 
L 232.498431 316.336748 
L 232.135304 317.109685 
L 232.820617 316.624114 
L 232.677288 317.901416 
L 232.707413 317.33178 
L 233.065048 316.772161 
L 233.029729 317.228574 
L 233.023385 316.311966 
L 232.976356 316.382036 
L 233.368081 316.708187 
M 233.699748 317.820102 
L 233.697168 317.328339 
L 233.163276 317.994356 
L 232.571594 317.795002 
L 232.796475 318.553646 
L 232.552314 317.442468 
L 232.790919 316.689782 
L 232.681518 316.685956 
L 233.114147 317.062992 
L 232.622971 316.986061 
L 232.564727 317.648604 
L 233.322838 317.362451 
L 233.02809 316.885504 
L 233.111567 317.170473 
L 232.726095 317.93102 
L 232.417099 316.988725 
L 232.749097 317.625486 
L 233.258445 317.878325 
L 233.063535 317.445094 
L 233.230305 317.53011 
L 232.781782 317.04468 
L 233.011663 316.875655 
L 232.539458 317.332433 
L 232.692061 317.291462 
L 232.322915 317.514718 
L 232.883867 317.170741 
M 233.162846 317.178465 
L 232.882695 317.227324 
L 233.28461 317.297631 
L 232.815557 316.528312 
L 232.663115 317.097162 
L 232.723037 316.843197 
L 233.144031 316.874974 
L 233.712984 317.580297 
L 233.148918 317.109692 
L 232.654704 317.235874 
L 232.852705 316.569771 
L 232.827814 316.642883 
L 233.177112 317.065178 
L 233.243963 317.4176 
M 233.374488 316.654607 
L 234.017595 316.964385 
L 233.133224 317.75074 
L 232.268525 317.039011 
L 232.611179 317.341051 
L 231.957954 316.435026 
M 232.540379 316.646809 
L 233.068748 316.968866 
L 233.246417 316.449166 
L 232.676836 316.786709 
L 232.425996 316.179262 
L 232.838046 316.47898 
L 232.845424 315.67454 
L 232.991167 316.333408 
L 232.766266 317.020677 
L 232.521592 316.711638 
L 233.332492 316.260947 
L 233.006382 315.5106 
L 232.548212 315.842223 
L 232.539971 315.826392 
L 233.5279 315.790655 
L 233.428886 315.665978 
M 233.308397 315.935988 
L 232.910455 315.873509 
L 233.670487 315.486735 
L 233.293702 315.092665 
L 233.6415 316.288808 
L 233.472273 315.999741 
L 233.850425 316.113131 
L 233.732627 315.606869 
L 233.976989 315.812361 
L 234.375034 315.780469 
L 233.988764 315.095999 
L 234.108737 315.125549 
L 234.629616 315.819531 
L 233.474821 315.147549 
L 234.67498 315.070406 
L 234.131945 315.505829 
L 234.20354 314.986392 
L 234.023617 314.996684 
L 234.072607 314.973284 
L 234.148543 314.348677 
L 233.867249 314.42024 
L 234.082652 314.826182 
L 234.497606 314.752908 
L 234.338306 314.897333 
L 235.346833 315.025869 
L 234.361253 314.709628 
L 234.819857 314.708502 
L 234.774166 315.003686 
L 234.937641 314.042144 
L 234.769217 314.060607 
L 234.873726 314.245476 
L 234.866594 313.599213 
L 234.205466 313.345357 
L 234.364209 314.302313 
L 234.204226 314.898056 
L 234.089273 314.862426 
L 234.188773 314.786443 
L 234.096625 314.747667 
L 234.668319 315.75308 
L 234.455154 315.433328 
L 234.390888 315.663667 
L 233.670647 315.256051 
L 233.641295 315.626477 
L 233.828213 315.223222 
L 233.737895 315.465515 
L 234.317677 315.990106 
L 234.14313 315.607174 
L 234.24182 314.831824 
L 233.927809 314.836039 
L 234.049503 315.048653 
L 234.403843 314.497031 
L 234.099169 314.442359 
L 234.114842 314.78416 
L 233.878818 315.238827 
L 234.01797 315.3126 
L 233.907833 314.800419 
L 234.096936 315.217996 
L 235.259334 315.389893 
L 234.220428 314.877286 
L 234.232385 314.081951 
L 233.949782 313.661958 
L 234.168951 313.340816 
L 233.802724 313.899145 
M 234.064357 315.269842 
L 234.051371 315.324844 
L 233.745454 314.792146 
L 233.581324 314.172934 
L 233.563682 314.323541 
L 234.075469 313.83622 
L 233.951378 315.217009 
L 233.80089 315.436222 
L 233.468509 315.14853 
L 233.942635 314.775049 
L 234.311287 314.74221 
L 234.49145 314.497106 
L 234.852994 314.370649 
L 234.646854 314.970811 
L 234.111805 315.320812 
L 234.111805 315.320812 
" clip-path="url(#pbf31b73c7c)" style="fill: none; stroke: #2ca02c; stroke-linecap: round"/>
   </g>
   <g id="line2d_18">
    <path d="M 249.032334 196.509128 
L 248.964622 196.730335 
L 249.34332 196.353264 
L 248.726566 196.55956 
L 249.110169 196.464989 
L 249.166113 196.125117 
L 249.284176 196.109626 
L 249.028634 196.710302 
L 248.350084 196.181093 
M 248.69467 196.324176 
L 249.104143 195.964043 
L 249.072578 195.580045 
L 249.395623 195.887278 
L 248.87939 195.3825 
L 249.029806 195.323214 
L 248.904957 195.584006 
L 249.196684 195.716624 
L 249.05258 195.994246 
L 249.176216 195.838517 
L 249.6694 195.255569 
L 248.952274 195.233642 
L 249.056017 195.780705 
L 248.951072 195.837767 
L 249.342742 195.744824 
L 248.758435 196.115074 
L 247.841845 195.765324 
L 248.411684 195.608193 
L 248.769793 195.880883 
L 248.802468 195.139532 
L 248.990647 195.94333 
L 249.010762 195.640145 
L 249.072725 195.076629 
L 249.107488 195.631341 
L 248.61378 195.053874 
L 248.753345 194.498622 
L 248.910261 195.667202 
L 249.482134 195.35706 
L 249.063838 195.51133 
L 249.799483 195.549111 
L 249.343396 195.313842 
L 249.441761 195.703872 
L 249.513208 195.357608 
L 249.839965 195.389087 
L 249.565641 195.408341 
L 249.48485 195.101062 
L 249.252216 195.767335 
L 249.028062 195.587454 
L 249.326269 196.132266 
L 249.130422 196.370834 
L 249.333672 196.133434 
L 249.264417 195.790605 
L 249.563188 195.776606 
L 249.108192 195.814969 
L 248.788767 195.585523 
L 249.196839 195.441402 
L 248.686146 195.989948 
L 249.387682 195.69455 
L 249.217855 195.591073 
L 249.083482 195.813954 
L 249.192696 195.707974 
L 248.83793 195.665067 
L 248.711455 195.956677 
L 248.969286 196.013004 
L 248.6764 195.324238 
L 248.464029 195.515822 
L 248.90959 195.729625 
L 248.844613 195.67259 
L 248.771717 196.148519 
L 248.855378 195.634784 
L 248.682723 195.826519 
L 248.762465 195.856717 
L 248.361322 195.36907 
L 248.031895 195.269591 
L 248.273186 195.910469 
L 247.941348 195.26676 
L 248.720782 195.397427 
L 247.935862 195.656884 
L 248.241033 195.654257 
L 248.453913 195.978017 
L 248.740512 195.40066 
L 248.918987 195.937399 
L 248.87082 196.168402 
L 248.174127 195.52178 
L 248.679433 195.451907 
L 249.396362 195.793681 
L 248.934549 195.878065 
M 248.475317 195.366253 
L 249.052281 195.603789 
L 248.794143 194.989857 
L 247.871526 195.15394 
M 248.399663 195.544723 
L 248.274658 195.349588 
L 248.813773 195.90942 
L 248.855649 195.141789 
L 248.625719 194.800091 
L 248.625914 195.486666 
L 248.27073 195.345913 
L 247.971033 195.714994 
L 248.553471 195.256445 
L 248.356304 195.533587 
L 248.557217 195.575783 
L 248.81339 195.32315 
L 248.831816 196.082147 
L 248.311795 195.560537 
L 247.970117 195.749091 
L 248.865841 195.19411 
M 247.631124 195.428209 
L 248.325966 195.414087 
L 247.395342 196.173435 
M 248.671972 195.878992 
L 248.373594 195.682286 
L 248.462432 195.426643 
L 248.265138 195.885603 
M 247.709272 195.028416 
L 247.869195 195.016474 
L 247.908195 195.227591 
L 248.828909 195.398704 
L 248.725654 195.644629 
L 248.311285 194.599223 
M 248.492425 195.781526 
L 248.862503 195.828529 
L 248.534128 195.423595 
L 248.22879 193.781115 
L 248.524283 194.884088 
L 247.956749 195.117239 
L 248.175383 194.200494 
L 248.133138 195.020815 
L 248.567748 194.146375 
L 248.726435 194.707158 
L 248.493377 194.845747 
L 248.155027 194.826198 
L 249.118937 194.722948 
L 248.600361 194.445274 
L 249.041134 193.993433 
M 248.271872 193.799524 
L 249.299416 194.592174 
L 249.082186 195.101632 
L 249.048641 194.792894 
L 248.888024 195.201514 
L 249.273745 194.848022 
L 248.278996 194.955446 
L 248.710466 195.246173 
L 248.639815 194.914043 
L 248.532647 195.521682 
L 248.957982 195.164641 
L 248.612901 194.804467 
L 248.368306 194.118508 
M 248.323293 194.942406 
L 248.537076 195.710111 
L 248.455873 195.9544 
L 248.499401 195.947772 
M 247.947355 195.382267 
L 248.844304 195.710053 
L 248.265471 195.81803 
L 247.987298 194.525404 
M 248.239841 196.33687 
L 248.639335 196.194753 
L 247.770903 196.517617 
L 248.547456 196.003138 
L 248.464508 195.673875 
L 248.570718 195.717142 
M 248.419756 195.605183 
L 248.073539 194.77124 
L 248.166061 196.027209 
M 248.475269 196.144796 
L 248.336356 196.074946 
L 248.13436 195.068024 
L 248.13791 195.329486 
L 247.827192 195.940287 
L 247.987648 195.98468 
M 247.321804 195.888002 
L 247.738984 195.962672 
L 247.591056 196.043522 
L 247.793393 195.545858 
L 248.108271 195.774948 
L 247.202154 196.229646 
L 247.854281 196.132986 
L 247.68347 196.237459 
L 248.06225 196.52731 
L 248.184827 196.147103 
L 247.615347 195.938897 
M 247.722151 195.90553 
L 248.09122 196.331678 
L 247.935026 195.894118 
M 248.26713 196.62511 
L 248.477664 196.457681 
L 248.155154 197.542033 
L 247.541836 197.493873 
M 247.781123 196.214493 
L 247.53321 196.943771 
L 248.273084 197.171368 
M 247.802282 196.132345 
L 248.105214 196.705019 
L 247.93674 196.688413 
L 248.039152 196.951235 
L 248.076552 196.369195 
L 248.295259 196.453716 
L 247.775544 196.768217 
L 247.578192 197.066759 
L 248.05377 196.167379 
L 247.61316 196.375922 
L 247.49315 197.049502 
L 248.104472 196.058128 
M 247.489675 196.602837 
L 247.820326 196.51214 
M 247.964448 196.646001 
L 247.605679 196.357853 
L 247.720203 196.254621 
M 248.171753 196.299203 
" clip-path="url(#pbf31b73c7c)" style="fill: none; stroke: #d62728; stroke-linecap: round"/>
   </g>
   <g id="line2d_19">
    <path d="M 91.571303 373.20292 
L 91.499852 374.01372 
L 90.912561 373.535065 
L 91.184661 373.643047 
L 90.751364 374.007238 
L 90.834476 374.007492 
L 90.826063 373.678804 
L 91.400738 373.329861 
M 91.237744 372.643131 
L 91.765806 373.807487 
L 90.655142 374.121641 
L 90.751477 373.744203 
L 91.049821 373.397538 
L 92.179997 373.484121 
L 90.646782 375.021247 
L 91.388845 374.135022 
L 91.500089 373.753443 
L 90.989589 373.903093 
L 90.802653 374.155889 
L 90.572659 374.875198 
M 90.374603 374.069463 
L 90.65649 373.842552 
L 90.609327 374.101464 
L 89.831318 375.117285 
L 90.355729 374.175735 
L 89.958023 374.157917 
L 89.673649 373.327081 
L 89.997074 373.201265 
L 90.272185 373.693795 
L 90.226073 373.434104 
L 90.115046 373.073977 
L 89.955385 374.052086 
L 90.163895 373.642079 
M 89.956694 373.643507 
L 89.82863 373.92845 
L 90.488586 373.459732 
L 90.185792 373.097002 
L 89.870323 373.854731 
L 90.136213 374.45577 
L 89.70652 375.077383 
L 89.502677 375.801574 
L 89.352744 374.594721 
L 89.032929 374.435567 
L 89.404505 374.495711 
L 88.873756 374.612716 
L 88.404302 373.978512 
L 88.713154 374.420627 
L 89.220931 374.620035 
L 89.785271 374.474781 
L 89.758439 374.558912 
L 89.120625 374.416775 
L 88.677787 374.582006 
L 89.712484 374.394551 
L 89.70187 374.218821 
L 89.684996 374.671192 
L 90.29605 374.734377 
L 90.248876 374.268298 
L 88.86618 373.228108 
L 88.856323 373.848874 
L 88.599086 373.147627 
M 88.657997 373.168785 
L 88.758398 372.818965 
L 89.2838 373.485086 
L 90.101911 373.582416 
L 90.936804 372.484518 
L 90.84154 372.698522 
L 90.323384 372.060008 
L 90.321277 373.159508 
L 90.055947 373.504351 
L 89.819351 373.308489 
L 89.494624 373.913074 
L 89.668576 373.861795 
L 89.710788 374.002035 
L 89.668654 373.380108 
L 89.910436 373.179646 
L 89.638645 373.405471 
L 89.730453 372.431535 
L 89.48291 373.062181 
L 90.218379 373.615492 
L 89.45776 373.698447 
L 89.33047 373.8761 
L 89.337705 372.8894 
L 89.933693 372.654723 
L 90.274479 372.958176 
L 89.752383 373.247939 
L 89.889814 373.109387 
L 89.579578 373.669152 
L 90.179672 373.548482 
L 89.642014 373.484183 
L 89.82397 372.546729 
L 89.752977 372.284519 
L 90.015971 372.820508 
L 89.947395 373.157097 
L 89.552612 373.35588 
L 89.224688 374.014474 
L 88.981237 373.65617 
L 88.438542 373.754158 
L 89.477994 373.513002 
L 89.123039 373.89427 
L 88.173236 373.725664 
L 89.280774 374.215403 
L 88.76305 374.068907 
L 89.636343 374.518547 
L 89.2179 373.94744 
L 88.942513 374.289286 
L 88.687325 373.904452 
L 89.270771 374.332223 
L 88.71268 374.527509 
L 89.243187 374.282824 
L 89.428968 374.010557 
L 88.533236 374.205975 
L 88.332891 373.7798 
L 86.909134 373.634403 
L 87.179261 374.350005 
L 87.487951 374.251738 
L 87.309033 374.868601 
L 87.581038 374.281485 
M 87.702756 374.11485 
L 87.564029 374.140092 
L 87.124453 373.470655 
L 87.860547 374.123008 
L 87.621562 373.490554 
M 88.207664 373.56506 
L 87.459733 373.721054 
L 87.292931 374.139342 
L 87.008474 374.528404 
L 87.134385 373.798807 
L 87.265815 374.683549 
L 87.842713 374.702132 
L 87.712357 374.540995 
L 87.736158 373.373627 
L 88.267526 373.470178 
L 87.46997 373.49845 
L 88.226763 373.804463 
L 89.246559 373.715615 
L 88.298939 373.252 
L 87.633863 373.148687 
L 88.213803 373.138036 
L 88.065665 373.411422 
L 88.013493 373.947894 
L 88.263519 373.25803 
L 88.595918 373.787249 
L 87.996907 373.41389 
L 87.410779 373.88038 
L 88.072114 374.100132 
L 87.423784 374.386646 
L 86.969717 373.307315 
L 87.067393 373.328737 
L 87.148314 372.985015 
L 86.575569 372.623647 
L 87.388047 374.350952 
L 87.639576 373.617434 
L 87.30565 373.038746 
L 88.067292 372.995974 
M 87.0815 373.553197 
L 88.175968 373.435899 
L 87.926155 373.589107 
L 88.702552 373.668637 
L 88.2421 373.921664 
M 88.684275 373.459344 
" clip-path="url(#pbf31b73c7c)" style="fill: none; stroke: #9467bd; stroke-linecap: round"/>
   </g>
   <g id="line2d_20">
    <path d="M 83.174155 178.427154 
L 83.45083 178.355183 
L 83.583754 178.877531 
L 82.670158 178.787288 
L 81.08459 178.142995 
L 81.876738 177.464972 
L 82.081222 176.594309 
L 82.699218 177.170887 
L 83.40636 177.432784 
L 83.319238 177.379453 
L 82.746127 177.681377 
L 83.038078 178.137564 
L 82.92176 177.991039 
L 83.059485 177.773401 
L 82.670338 177.654113 
L 83.503971 177.098471 
L 82.928006 177.82475 
L 82.568366 178.09817 
L 82.728559 177.686631 
M 82.6352 177.556756 
L 82.498204 177.892754 
L 82.579007 177.787586 
L 82.889584 178.756535 
L 82.60569 178.059978 
L 82.663275 178.29338 
L 82.05232 177.889244 
L 83.314989 177.780759 
L 83.164083 177.656869 
L 82.593632 177.747375 
L 82.56077 177.451958 
L 82.889634 178.055931 
L 83.378062 177.812659 
L 83.278514 177.672492 
L 82.789006 178.005397 
L 82.963462 178.15016 
L 82.022631 178.083128 
L 81.942264 178.357195 
L 82.299827 178.440706 
L 81.938935 178.177907 
L 83.09695 177.915906 
L 81.574596 178.343751 
L 82.438167 178.803345 
L 82.144446 180.152754 
M 83.757084 179.1241 
L 83.645741 177.475133 
L 83.994557 177.27819 
L 84.055827 177.795714 
L 84.579241 177.549003 
L 83.06751 177.052521 
L 83.713576 177.898843 
L 83.5397 177.996169 
L 83.148527 177.672568 
L 84.289114 178.43817 
L 83.971753 177.820156 
L 83.684451 177.985606 
L 83.336637 178.5252 
L 82.792606 177.488377 
L 82.760304 177.985404 
L 83.923415 177.532915 
L 83.333827 176.936053 
L 83.123515 177.516815 
L 82.631158 176.869254 
L 82.746872 177.191395 
L 83.349634 176.928857 
L 83.3492 175.952151 
L 83.804271 176.527336 
L 83.343017 176.568023 
L 83.14596 176.871905 
M 82.66844 176.823901 
L 83.182166 176.862874 
L 83.107754 177.066676 
L 82.85119 176.940787 
L 83.353043 176.858524 
L 83.113406 177.496994 
L 82.333151 178.092557 
L 81.935006 178.125471 
L 82.81259 176.41858 
L 81.784778 177.696265 
L 82.216234 177.324984 
L 82.866778 176.213188 
L 82.617403 176.795498 
L 82.062613 176.881037 
L 82.134685 176.847167 
L 82.024012 177.233959 
M 83.101763 176.653132 
L 83.032614 176.727727 
L 82.696127 176.484815 
L 83.238598 176.94664 
L 83.166303 177.317043 
L 82.978924 176.418962 
L 82.088903 176.380777 
L 81.540449 176.487716 
L 82.125688 176.299793 
L 82.637581 176.548403 
L 82.182516 176.978089 
L 82.605458 176.738337 
L 82.06126 176.65636 
M 80.754545 175.475096 
L 81.429733 177.091814 
L 81.247559 177.250399 
L 81.260421 176.974539 
L 81.224121 177.374141 
L 81.771891 177.061731 
L 81.97834 177.239709 
L 81.772072 177.245696 
L 82.455419 177.259664 
L 82.312304 177.710007 
M 82.062549 177.561482 
L 82.547907 177.438454 
L 83.13439 176.432695 
L 82.964061 177.657681 
L 82.957769 177.606775 
L 82.266427 176.42462 
L 82.793498 177.243595 
M 82.09644 178.194281 
L 82.57909 178.589027 
L 82.506452 178.59326 
L 82.106611 179.102947 
L 81.430355 178.21086 
L 81.987268 178.26181 
L 82.466306 177.3584 
L 81.965376 177.663602 
L 82.549712 178.056234 
L 82.843472 177.911526 
L 82.417292 177.686512 
L 83.333824 177.796787 
L 83.565982 178.08099 
M 82.646204 176.184079 
L 82.044062 177.776997 
L 82.13667 177.201696 
M 82.326983 176.986507 
L 81.862983 176.516848 
L 81.841134 176.886512 
M 81.724464 177.140501 
L 81.379738 176.809059 
L 81.322562 177.319718 
L 81.679063 176.651478 
L 82.612988 176.617859 
M 82.894436 176.413567 
L 83.172855 175.621282 
L 83.222712 176.232761 
L 82.486698 176.204332 
L 83.083285 175.633108 
L 82.258604 175.749845 
M 82.725393 176.965305 
L 81.822627 176.152608 
L 83.340464 176.006419 
L 82.755567 176.249506 
L 82.693153 175.910258 
M 81.816639 175.746968 
L 82.249425 175.560707 
M 81.538941 175.329978 
L 82.173143 175.920665 
M 81.412786 178.210337 
L 83.029747 175.870289 
L 81.713925 179.389181 
M 81.092411 178.347355 
" clip-path="url(#pbf31b73c7c)" style="fill: none; stroke: #8c564b; stroke-linecap: round"/>
   </g>
   <g id="line2d_21">
    <path d="M 234.942652 218.057066 
L 234.856383 217.641116 
L 234.24844 217.960958 
M 234.355937 217.878507 
L 234.864146 217.992755 
L 234.34456 218.301559 
L 234.105545 217.577716 
L 234.644262 217.509668 
L 234.398748 217.639958 
L 234.422722 217.701271 
L 234.910735 217.446808 
L 235.491043 216.723166 
L 235.024714 217.320909 
L 234.870557 217.118304 
L 234.859122 217.184562 
L 234.286083 217.369151 
L 234.346693 217.344883 
L 234.638329 217.395217 
L 234.33625 217.582924 
L 234.752024 218.007309 
L 234.726295 217.807044 
L 234.618487 218.420182 
L 234.547427 217.798922 
L 234.891969 217.964203 
L 234.820573 218.250629 
L 234.25491 217.911371 
L 234.289998 218.310324 
L 234.14739 218.084975 
L 234.379568 218.06488 
L 235.21218 217.7555 
L 235.08674 217.472765 
L 234.734193 217.639962 
L 234.913215 217.181905 
L 234.944386 217.861079 
L 234.257788 217.627218 
L 234.307909 217.820482 
L 233.683463 218.157428 
L 234.305939 218.02849 
L 234.43774 217.798485 
L 234.319142 217.563064 
L 234.471409 217.849833 
L 234.529409 217.357306 
L 234.169894 217.598937 
L 234.115358 217.849298 
L 233.780595 217.223641 
L 233.863361 217.359558 
L 234.185794 216.951036 
L 234.366071 217.237841 
L 234.186354 216.607722 
L 234.702191 217.091089 
L 234.460157 217.22201 
L 234.390739 217.05898 
L 234.464758 217.198194 
L 233.489193 217.562267 
L 234.213747 217.482851 
L 234.57184 217.284035 
L 234.17341 217.477305 
L 233.301361 216.923275 
L 233.84999 217.237919 
L 233.920333 217.086428 
L 233.771754 217.672801 
L 233.077753 217.268793 
L 232.841177 217.760645 
L 233.606358 217.320622 
L 233.619787 217.629191 
L 233.926126 217.457489 
M 233.006499 217.377481 
L 233.815187 217.095938 
L 233.81102 217.273782 
M 233.755218 217.746129 
L 233.705795 217.499663 
M 233.788801 216.723613 
L 234.03009 217.374437 
L 233.938763 217.199966 
L 233.973159 217.76989 
L 234.121602 217.288664 
L 234.557851 217.549612 
L 234.356857 216.781558 
L 234.21669 217.088741 
L 234.207852 216.570313 
L 233.880337 216.929422 
M 233.975086 217.029686 
L 234.438338 216.760077 
L 233.833502 216.995187 
L 234.179188 216.991618 
L 234.114499 217.778473 
L 234.122752 217.564488 
L 234.002076 217.460401 
L 233.760448 216.897742 
L 234.192399 217.71613 
L 234.140114 216.92784 
L 233.571579 217.600915 
L 233.915208 217.321135 
L 234.531696 217.279953 
L 234.446194 216.951845 
L 234.944473 217.358669 
L 235.085348 217.170129 
L 234.769098 217.102622 
L 234.273251 216.674059 
L 234.481439 217.439539 
L 234.278517 217.687515 
L 234.476627 217.374975 
M 234.453381 217.588709 
L 234.603133 217.275473 
L 234.914273 217.661168 
L 234.630619 217.640867 
L 234.451051 217.790652 
L 234.821131 218.078921 
L 234.93023 217.208284 
L 235.128753 217.055142 
L 234.825607 217.567222 
L 234.279002 217.695085 
L 234.4085 218.018779 
L 233.853797 218.506929 
L 233.673681 218.39313 
L 234.109023 218.671722 
L 233.792422 218.705089 
L 234.269718 218.699931 
L 234.059596 217.965033 
L 234.122221 217.650021 
L 233.852027 217.713871 
L 234.185001 217.172862 
L 234.328047 217.555189 
L 234.332675 217.954499 
L 234.158278 218.349869 
L 234.354893 218.131186 
L 234.647625 217.857458 
L 234.003531 218.26409 
L 233.715482 218.105356 
L 233.509274 218.257681 
L 233.845565 218.742342 
L 233.815564 217.790378 
L 233.786902 217.899042 
L 234.632573 217.234876 
M 234.290958 217.697177 
L 234.007468 217.689924 
L 233.781774 217.105101 
L 234.620486 217.474309 
L 233.96426 218.231805 
L 234.111138 217.782746 
L 234.540231 217.016968 
L 234.341414 217.868534 
L 234.445636 218.205974 
M 234.069469 217.510173 
L 234.140498 217.519977 
M 233.888567 217.955543 
L 234.210585 217.933296 
L 233.69497 217.473549 
L 234.072673 217.381183 
L 234.14211 218.272127 
L 234.152477 216.974404 
L 233.517123 217.61641 
M 233.899963 217.924437 
L 233.825587 217.760329 
L 233.968931 217.471751 
L 233.68356 217.473765 
M 233.813536 217.959431 
L 233.927689 218.197519 
M 233.827689 217.597629 
L 233.383235 217.582967 
M 233.585892 218.438859 
L 233.63232 219.191425 
L 233.292585 218.445632 
L 233.50597 218.712326 
" clip-path="url(#pbf31b73c7c)" style="fill: none; stroke: #e377c2; stroke-linecap: round"/>
   </g>
   <g id="line2d_22">
    <path d="M 366.633627 404.507811 
L 366.620538 404.102572 
M 365.136783 404.785878 
L 364.681286 404.724212 
L 365.833449 404.447883 
M 364.514563 403.356982 
L 364.901077 404.197572 
L 365.390117 404.612037 
L 364.851539 404.501192 
L 363.997426 404.068865 
L 364.42521 403.725431 
L 364.142789 403.05156 
L 364.045312 403.258099 
L 364.275484 403.984631 
L 364.361326 403.472945 
L 364.263798 404.147274 
L 364.523435 404.79564 
L 365.407536 404.503704 
L 364.763057 403.990465 
L 364.613936 404.519787 
L 364.65046 404.22626 
L 364.983655 404.810535 
L 364.069998 405.020757 
L 365.527809 404.566445 
L 365.145384 404.966078 
L 364.42131 404.321878 
L 363.734822 404.538796 
L 363.538739 404.208594 
L 364.953698 404.124603 
L 364.918154 404.43735 
L 365.192581 404.435808 
L 365.729041 404.662561 
L 364.851738 404.800807 
L 364.774454 403.802602 
L 365.428829 403.974184 
M 365.04643 404.828125 
L 365.362846 404.724917 
L 365.351227 404.032008 
L 365.055396 404.802321 
L 365.117842 404.972714 
L 364.826988 404.913336 
L 364.416165 405.253549 
L 364.325844 404.494855 
L 365.014677 404.668312 
L 363.713161 404.776414 
L 363.871102 404.755574 
L 363.487897 404.052208 
M 364.164779 404.481335 
L 364.3331 404.227045 
L 363.893946 403.485298 
L 364.632423 404.253794 
L 363.923912 403.932776 
L 363.613588 404.474789 
L 362.12747 403.367646 
M 363.472247 403.602273 
L 363.638232 403.292427 
L 363.63026 403.711789 
L 363.249097 402.746316 
L 363.614366 403.035252 
L 363.323644 403.367674 
L 363.698596 403.053064 
L 362.632741 402.37643 
L 363.315146 402.868759 
L 363.31759 403.488648 
L 363.520169 403.191112 
L 363.632893 404.100706 
L 363.605329 403.649921 
L 362.792239 402.878005 
L 362.725163 403.117377 
L 363.482239 403.671881 
L 363.442335 403.175826 
L 363.406176 403.399956 
L 363.555402 403.191784 
L 362.988259 403.165108 
L 363.39138 402.569967 
L 362.979995 402.618807 
L 362.620263 402.893517 
L 362.051346 403.705531 
L 361.707351 403.425119 
L 362.630603 403.425003 
L 362.636378 403.782896 
L 363.57683 404.391746 
L 363.396186 404.432184 
L 363.676366 404.743185 
L 363.543223 404.856339 
L 364.260731 404.930295 
L 363.968195 404.634623 
L 363.783223 404.812528 
L 363.302759 404.885229 
L 362.958379 404.463739 
L 363.240232 404.467849 
L 363.161782 404.104447 
L 362.927613 404.110101 
L 363.134522 403.579998 
L 362.95463 404.403393 
L 362.972884 404.286527 
L 362.552246 405.519875 
L 362.784196 405.606696 
L 362.023452 404.804126 
L 362.513573 404.85985 
L 362.31973 405.003864 
L 362.222276 404.529856 
L 362.388861 404.17467 
L 362.337195 403.819518 
L 362.518541 404.081866 
L 361.382562 404.453376 
L 361.609299 404.500279 
L 362.000178 404.749957 
L 361.919597 403.623915 
L 362.151651 403.917006 
L 362.058559 403.974185 
L 361.971845 404.20382 
L 361.836454 404.213485 
L 360.976286 404.499254 
L 360.840845 403.277912 
L 361.526283 403.321671 
L 361.083794 402.711031 
L 361.129983 403.689795 
L 361.7821 404.034107 
L 361.777962 403.892474 
L 361.3552 403.77007 
L 361.569917 404.19383 
L 362.751674 404.325854 
L 362.828387 404.590211 
L 362.643193 405.128612 
L 362.484962 405.122396 
L 363.257378 404.490983 
L 362.763883 404.049421 
L 362.631992 403.584679 
L 362.288776 403.764502 
L 362.362311 404.418907 
L 362.957447 404.078116 
L 363.503963 404.017131 
L 362.788408 404.088809 
L 362.656535 404.420872 
L 362.707766 403.481343 
L 362.827978 403.62648 
L 362.583733 405.152882 
L 361.364595 403.887828 
L 360.959009 403.774878 
L 361.248465 404.256148 
L 361.038506 404.520316 
L 361.8962 404.397941 
L 360.951979 404.115032 
L 361.037054 403.788768 
L 361.827608 403.409228 
L 362.377801 403.463352 
L 362.298498 403.674289 
L 362.158188 403.599091 
L 361.826166 403.110321 
L 361.620713 403.183125 
L 362.580182 403.503972 
L 363.565298 404.0117 
L 363.510724 403.982428 
L 362.594431 404.295474 
L 362.696594 403.878791 
L 363.036733 404.040942 
L 362.50498 404.294949 
L 362.804546 403.827853 
L 362.65909 403.123604 
L 363.447981 402.339369 
L 363.539806 402.439413 
L 363.808596 402.316894 
L 363.819299 402.820889 
L 364.134772 403.116552 
L 364.028011 403.359103 
L 363.323235 403.406225 
L 363.532888 402.737077 
L 363.42904 402.508514 
L 363.805463 402.689207 
L 363.378473 402.837428 
L 363.549698 402.954485 
L 363.057563 402.800822 
L 363.203606 402.622646 
L 363.189216 402.735766 
L 363.751137 403.015563 
L 363.181258 402.207547 
L 363.3171 402.244071 
L 363.789666 401.568493 
L 363.717995 401.584026 
L 362.903274 402.233291 
L 363.742464 402.233143 
L 363.92748 402.578184 
L 363.982689 402.939764 
L 363.89772 402.424055 
L 363.82137 402.762176 
L 363.766116 402.417617 
L 363.265957 402.180419 
L 363.647803 401.773201 
L 363.671503 401.896578 
L 363.628411 402.009095 
L 362.865815 401.399304 
L 363.619199 401.933449 
L 363.36221 402.091659 
L 363.127732 402.655567 
L 362.897024 401.953155 
L 362.725757 402.070488 
L 362.832069 401.894735 
L 362.262711 401.851394 
L 361.835981 402.542452 
L 362.770011 401.919313 
L 362.124243 402.101587 
L 362.564608 402.273794 
L 362.408685 402.41233 
L 362.167938 402.205126 
L 362.549955 401.908913 
L 361.993027 401.121256 
L 362.545618 400.788692 
L 362.149043 400.945847 
L 362.638977 401.106085 
L 362.949879 401.884595 
L 363.32655 402.193107 
L 362.9343 401.980644 
L 362.664495 401.455395 
L 363.231161 401.702148 
L 362.813874 401.391068 
L 361.411726 401.213873 
L 361.039551 400.7997 
L 361.561155 400.97315 
L 361.267675 401.02728 
L 361.957938 400.948239 
L 362.08863 401.085687 
L 361.576749 401.368413 
L 362.050186 400.942402 
L 362.158758 401.098493 
L 362.769576 401.526909 
L 362.580607 401.340871 
L 361.768336 401.579956 
L 362.58153 402.375758 
L 362.116767 403.247633 
L 361.471778 402.137353 
L 361.178123 402.308063 
L 361.266977 401.843899 
L 361.674793 401.549571 
L 362.128194 400.986799 
L 361.873599 401.047748 
L 362.923868 401.498813 
L 363.734069 402.071204 
L 363.416877 402.118258 
L 363.514959 402.573741 
L 363.756514 402.628257 
L 363.397088 401.740519 
L 363.079431 401.353259 
L 363.30761 401.230308 
L 363.113212 401.211158 
L 362.3506 401.243334 
L 362.340228 400.333837 
L 362.346971 400.726468 
L 362.059081 400.855292 
L 362.055768 401.228655 
L 362.624838 401.247285 
L 362.25791 401.808716 
L 362.850347 401.883652 
L 363.877395 401.317117 
L 363.830469 401.363259 
L 363.688247 400.633666 
L 364.350467 401.068943 
L 363.936891 401.431741 
L 364.60159 401.004537 
L 363.852834 400.585127 
L 364.351477 401.070022 
L 363.822626 401.245854 
L 363.924288 400.657219 
L 363.69836 400.985392 
L 364.556954 400.794342 
L 364.556954 400.794342 
" clip-path="url(#pbf31b73c7c)" style="fill: none; stroke: #7f7f7f; stroke-linecap: round"/>
   </g>
   <g id="line2d_23">
    <path d="M 89.371779 373.656697 
L 88.212937 373.129347 
L 88.797059 373.821112 
L 88.608236 374.26775 
L 88.677675 374.582526 
L 89.371889 374.024703 
L 88.67043 374.71886 
L 88.554161 374.291379 
L 87.717211 374.351312 
L 87.755423 373.985839 
L 88.626218 373.76366 
L 87.056589 373.904286 
M 87.111967 373.877736 
L 87.027336 373.784696 
M 86.261054 373.95853 
L 87.278453 375.725186 
L 86.984498 375.677208 
L 87.421948 376.092467 
L 86.822808 375.246196 
M 87.160435 374.644107 
L 87.315094 374.713627 
L 86.828126 373.784474 
L 87.481711 374.247245 
M 87.177369 374.907797 
L 87.462988 375.513218 
L 87.847056 374.911927 
L 88.509616 375.045655 
L 87.360705 373.88355 
L 87.371943 373.950581 
L 87.388329 374.626707 
L 87.032526 374.452531 
L 86.531709 375.288324 
L 87.004022 374.125629 
L 86.60098 374.99594 
L 87.737409 375.111614 
L 87.25755 375.38761 
L 87.567924 375.227614 
L 87.42549 376.185221 
L 86.527223 376.217621 
L 86.42677 377.168078 
L 87.699716 377.151004 
L 86.838136 376.894683 
L 86.996074 376.852387 
L 87.082789 376.364167 
L 86.919779 376.369152 
L 87.481978 376.712197 
L 87.398938 376.493337 
L 87.253651 377.248779 
L 88.15031 376.50943 
L 88.544467 376.636021 
L 87.941036 376.49787 
L 87.189309 376.553257 
L 86.846894 376.246926 
L 87.908123 376.281965 
L 88.041711 375.873919 
L 87.629625 376.280431 
L 87.512055 376.021182 
L 87.793907 376.799654 
L 87.381281 376.480441 
L 87.540066 376.526289 
M 87.629417 375.892248 
L 87.682288 376.25504 
L 87.586756 375.947286 
L 88.310159 376.439115 
L 87.888938 376.232814 
L 88.041669 376.083551 
L 88.09274 376.271213 
L 88.081437 376.106548 
L 87.773659 376.392876 
L 87.777668 376.742658 
L 88.988808 376.180985 
L 88.107757 375.97634 
L 87.944442 376.346933 
L 88.062556 377.080391 
M 88.924767 375.826988 
L 88.40836 376.609184 
L 88.251246 376.252249 
L 88.634237 375.962564 
L 89.009015 376.661054 
L 88.838143 376.752051 
L 88.490716 376.580008 
L 88.133748 376.893008 
L 88.981515 376.702894 
L 88.030131 376.370922 
L 87.161702 376.214487 
L 87.329076 376.697801 
L 88.047909 376.199475 
L 88.474108 377.240674 
L 88.812546 377.383221 
L 88.382237 376.424891 
L 87.910225 377.472341 
L 88.401004 377.349696 
L 88.963759 376.75357 
L 87.875274 376.841208 
L 88.98506 376.248825 
L 88.706893 376.465009 
L 88.488495 375.737116 
L 89.097483 376.739355 
L 88.109101 375.797012 
L 88.960774 376.28444 
L 88.616355 377.033191 
L 88.789244 376.800941 
L 89.345276 376.476033 
L 88.74112 376.76505 
L 88.89245 376.618301 
L 89.397304 376.911537 
M 88.807829 376.453526 
L 88.615448 376.852076 
L 88.851898 377.321621 
L 88.853876 376.799415 
L 88.426886 377.321989 
L 88.782778 377.476924 
L 87.873589 377.22311 
L 88.269121 377.213851 
L 88.351556 376.457438 
L 88.27321 376.970445 
L 88.048719 377.663733 
L 87.445844 376.73858 
L 87.738793 376.570739 
L 88.042408 376.683173 
L 87.7307 376.56055 
L 87.462206 376.955585 
L 87.002806 376.358269 
M 87.634683 376.62318 
L 88.292977 376.838262 
L 88.071007 376.878809 
L 88.21973 375.857975 
L 87.897903 375.639458 
L 88.098322 375.778475 
L 87.397572 376.190048 
L 87.251661 377.033275 
L 87.602815 376.411256 
L 87.349812 377.109641 
M 86.801709 375.142626 
L 86.972998 375.791021 
L 87.396466 375.681458 
L 88.567845 375.219492 
L 87.902568 375.600883 
L 88.142984 376.249852 
M 88.01159 375.691661 
L 87.759837 375.067976 
L 87.84932 376.325822 
L 87.757658 376.244851 
L 88.382053 376.065411 
L 89.111896 375.266968 
L 89.02298 375.287592 
L 89.113923 374.917166 
M 88.678178 375.301178 
L 89.286257 375.956217 
L 88.783968 374.574486 
L 88.327891 375.022657 
L 87.751407 375.293094 
L 87.078034 374.768104 
L 87.402736 374.694227 
L 86.614258 374.416375 
L 86.970103 375.122444 
L 86.876914 375.321269 
L 87.17148 374.312669 
M 87.921056 374.204666 
" clip-path="url(#pbf31b73c7c)" style="fill: none; stroke: #bcbd22; stroke-linecap: round"/>
   </g>
   <g id="line2d_24">
    <path d="M 212.478951 107.936211 
L 212.157303 107.611382 
M 210.355257 106.206491 
L 209.657535 106.343791 
L 210.010836 105.870364 
L 210.219384 106.726617 
M 210.058099 106.279555 
L 209.444275 106.318829 
M 209.887912 106.512351 
L 209.995873 107.596919 
L 210.968579 108.472845 
L 211.992296 108.523011 
L 210.193007 107.734457 
L 210.209821 108.272336 
M 209.502136 107.553101 
L 210.042582 107.711067 
L 210.284358 107.616702 
L 210.07869 107.099907 
L 210.25974 107.056218 
M 209.521401 106.981583 
L 209.883529 107.422166 
L 209.805859 106.883662 
L 209.922497 107.198479 
L 209.42585 107.419464 
L 209.464386 107.62903 
L 209.53387 106.251714 
L 210.184828 107.80353 
L 210.020345 107.355916 
L 209.343714 106.823081 
L 209.107346 107.149676 
L 209.264134 107.476184 
L 210.040593 107.830473 
L 210.307312 107.515898 
L 209.777125 108.123657 
L 209.627125 107.489752 
L 209.504464 106.217196 
L 209.16173 106.858857 
L 208.283847 106.903055 
M 209.246717 107.584649 
L 209.851682 107.303628 
L 209.770268 107.388858 
L 209.547042 106.72312 
L 209.351906 106.797105 
L 210.193395 106.997291 
L 209.604767 106.943086 
L 210.017667 107.418969 
L 209.223288 107.140662 
L 209.605001 107.236188 
L 209.456441 107.787183 
L 209.615532 107.0907 
L 209.380759 107.258425 
L 209.291621 106.820143 
L 209.767543 106.582656 
L 208.80005 107.495383 
L 208.735317 107.213025 
L 209.14859 107.815571 
L 209.16279 107.190041 
L 208.870426 106.804878 
L 209.190667 106.334925 
L 209.546174 106.482394 
L 209.61075 105.670064 
L 209.824783 105.270911 
L 209.507242 105.780748 
L 208.93696 105.075635 
L 209.408392 105.229363 
L 209.96591 106.044243 
L 209.615525 105.900598 
L 209.774114 105.669005 
L 209.57609 105.980375 
L 209.738737 105.835668 
L 209.42887 105.568382 
M 209.622909 106.927529 
L 208.668645 107.340857 
L 209.897501 107.078868 
L 209.433362 107.01393 
L 209.23182 107.67577 
L 209.346362 107.532758 
L 210.194744 106.731315 
L 209.923195 106.956508 
M 210.403172 106.814078 
L 210.387959 106.470814 
L 209.724672 106.079304 
L 209.216047 106.097461 
L 210.317718 106.151368 
L 210.037402 106.365835 
L 209.737443 106.987572 
L 210.098158 107.640713 
L 209.539612 105.850586 
L 209.517397 106.06073 
L 208.470485 106.641236 
L 208.778431 106.379513 
L 209.201782 106.945491 
L 208.155036 107.378246 
L 208.68322 108.184289 
L 209.552666 107.206611 
L 210.413376 107.220897 
L 210.433451 107.45061 
L 209.243309 107.535967 
M 209.080799 107.038975 
L 208.793189 106.994421 
L 209.282121 107.625479 
L 209.650571 107.236321 
L 209.249768 106.458953 
L 209.051729 106.444624 
L 209.210193 106.502997 
L 209.186412 106.576071 
L 209.470284 106.630391 
L 208.898855 107.310339 
L 209.44154 107.573407 
L 208.870448 106.519838 
M 209.322999 106.761922 
L 208.897464 106.728677 
L 208.187544 105.736403 
L 209.217943 106.113799 
M 208.691036 106.321757 
L 209.629648 105.421019 
L 210.230194 105.171602 
M 210.862547 103.706104 
L 210.468741 104.317977 
L 210.523846 104.479563 
L 211.169897 103.433304 
M 210.554484 105.204823 
L 210.801824 104.826018 
L 209.643044 106.299303 
L 210.391209 105.481514 
L 210.503119 105.73303 
L 210.048158 105.891583 
L 210.048158 105.891583 
" clip-path="url(#pbf31b73c7c)" style="fill: none; stroke: #17becf; stroke-linecap: round"/>
   </g>
   <g id="patch_3">
    <path d="M 63 448.56 
L 63 60.48 
" style="fill: none; stroke: #262626; stroke-width: 1.25; stroke-linejoin: miter; stroke-linecap: square"/>
   </g>
   <g id="patch_4">
    <path d="M 453.6 448.56 
L 453.6 60.48 
" style="fill: none; stroke: #262626; stroke-width: 1.25; stroke-linejoin: miter; stroke-linecap: square"/>
   </g>
   <g id="patch_5">
    <path d="M 63 448.56 
L 453.6 448.56 
" style="fill: none; stroke: #262626; stroke-width: 1.25; stroke-linejoin: miter; stroke-linecap: square"/>
   </g>
   <g id="patch_6">
    <path d="M 63 60.48 
L 453.6 60.48 
" style="fill: none; stroke: #262626; stroke-width: 1.25; stroke-linejoin: miter; stroke-linecap: square"/>
   </g>
  </g>
 </g>
 <defs>
  <clipPath id="pbf31b73c7c">
   <rect x="63" y="60.48" width="390.6" height="388.08"/>
  </clipPath>
 </defs>
</svg>
