<?xml version="1.0" encoding="utf-8" standalone="no"?>
<!DOCTYPE svg PUBLIC "-//W3C//DTD SVG 1.1//EN"
  "http://www.w3.org/Graphics/SVG/1.1/DTD/svg11.dtd">
<svg xmlns:xlink="http://www.w3.org/1999/xlink" width="504pt" height="504pt" viewBox="0 0 504 504" xmlns="http://www.w3.org/2000/svg" version="1.1">
 <metadata>
  <rdf:RDF xmlns:dc="http://purl.org/dc/elements/1.1/" xmlns:cc="http://creativecommons.org/ns#" xmlns:rdf="http://www.w3.org/1999/02/22-rdf-syntax-ns#">
   <cc:Work>
    <dc:type rdf:resource="http://purl.org/dc/dcmitype/StillImage"/>
    <dc:date>2025-06-03T12:40:17.868000</dc:date>
    <dc:format>image/svg+xml</dc:format>
    <dc:creator>
     <cc:Agent>
      <dc:title>Matplotlib v3.8.0, https://matplotlib.org/</dc:title>
     </cc:Agent>
    </dc:creator>
   </cc:Work>
  </rdf:RDF>
 </metadata>
 <defs>
  <style type="text/css">*{stroke-linejoin: round; stroke-linecap: butt}</style>
 </defs>
 <g id="figure_1">
  <g id="patch_1">
   <path d="M 0 504 
L 504 504 
L 504 0 
L 0 0 
z
" style="fill: #ffffff"/>
  </g>
  <g id="axes_1">
   <g id="patch_2">
    <path d="M 63 448.56 
L 453.6 448.56 
L 453.6 60.48 
L 63 60.48 
z
" style="fill: #ffffff"/>
   </g>
   <g id="matplotlib.axis_1">
    <g id="xtick_1">
     <g id="line2d_1">
      <defs>
       <path id="m56bbe9bb5e" d="M 0 0 
L 0 5 
" style="stroke: #262626; stroke-width: 0.8"/>
      </defs>
      <g>
       <use xlink:href="#m56bbe9bb5e" x="120.209091" y="448.56" style="fill: #262626; stroke: #262626; stroke-width: 0.8"/>
      </g>
     </g>
     <g id="text_1">
      <!-- 0.1 -->
      <g style="fill: #262626" transform="translate(110.479091 467.080938) scale(0.14 -0.14)">
       <defs>
        <path id="ArialMT-30" d="M 266 2259 
Q 266 3072 433 3567 
Q 600 4063 929 4331 
Q 1259 4600 1759 4600 
Q 2128 4600 2406 4451 
Q 2684 4303 2865 4023 
Q 3047 3744 3150 3342 
Q 3253 2941 3253 2259 
Q 3253 1453 3087 958 
Q 2922 463 2592 192 
Q 2263 -78 1759 -78 
Q 1097 -78 719 397 
Q 266 969 266 2259 
z
M 844 2259 
Q 844 1131 1108 757 
Q 1372 384 1759 384 
Q 2147 384 2411 759 
Q 2675 1134 2675 2259 
Q 2675 3391 2411 3762 
Q 2147 4134 1753 4134 
Q 1366 4134 1134 3806 
Q 844 3388 844 2259 
z
" transform="scale(0.015625)"/>
        <path id="ArialMT-2e" d="M 581 0 
L 581 641 
L 1222 641 
L 1222 0 
L 581 0 
z
" transform="scale(0.015625)"/>
        <path id="ArialMT-31" d="M 2384 0 
L 1822 0 
L 1822 3584 
Q 1619 3391 1289 3197 
Q 959 3003 697 2906 
L 697 3450 
Q 1169 3672 1522 3987 
Q 1875 4303 2022 4600 
L 2384 4600 
L 2384 0 
z
" transform="scale(0.015625)"/>
       </defs>
       <use xlink:href="#ArialMT-30"/>
       <use xlink:href="#ArialMT-2e" x="55.615234"/>
       <use xlink:href="#ArialMT-31" x="83.398438"/>
      </g>
     </g>
    </g>
    <g id="xtick_2">
     <g id="line2d_2">
      <g>
       <use xlink:href="#m56bbe9bb5e" x="199.118182" y="448.56" style="fill: #262626; stroke: #262626; stroke-width: 0.8"/>
      </g>
     </g>
     <g id="text_2">
      <!-- 0.2 -->
      <g style="fill: #262626" transform="translate(189.388182 467.080938) scale(0.14 -0.14)">
       <defs>
        <path id="ArialMT-32" d="M 3222 541 
L 3222 0 
L 194 0 
Q 188 203 259 391 
Q 375 700 629 1000 
Q 884 1300 1366 1694 
Q 2113 2306 2375 2664 
Q 2638 3022 2638 3341 
Q 2638 3675 2398 3904 
Q 2159 4134 1775 4134 
Q 1369 4134 1125 3890 
Q 881 3647 878 3216 
L 300 3275 
Q 359 3922 746 4261 
Q 1134 4600 1788 4600 
Q 2447 4600 2831 4234 
Q 3216 3869 3216 3328 
Q 3216 3053 3103 2787 
Q 2991 2522 2730 2228 
Q 2469 1934 1863 1422 
Q 1356 997 1212 845 
Q 1069 694 975 541 
L 3222 541 
z
" transform="scale(0.015625)"/>
       </defs>
       <use xlink:href="#ArialMT-30"/>
       <use xlink:href="#ArialMT-2e" x="55.615234"/>
       <use xlink:href="#ArialMT-32" x="83.398438"/>
      </g>
     </g>
    </g>
    <g id="xtick_3">
     <g id="line2d_3">
      <g>
       <use xlink:href="#m56bbe9bb5e" x="278.027273" y="448.56" style="fill: #262626; stroke: #262626; stroke-width: 0.8"/>
      </g>
     </g>
     <g id="text_3">
      <!-- 0.3 -->
      <g style="fill: #262626" transform="translate(268.297273 467.080938) scale(0.14 -0.14)">
       <defs>
        <path id="ArialMT-33" d="M 269 1209 
L 831 1284 
Q 928 806 1161 595 
Q 1394 384 1728 384 
Q 2125 384 2398 659 
Q 2672 934 2672 1341 
Q 2672 1728 2419 1979 
Q 2166 2231 1775 2231 
Q 1616 2231 1378 2169 
L 1441 2663 
Q 1497 2656 1531 2656 
Q 1891 2656 2178 2843 
Q 2466 3031 2466 3422 
Q 2466 3731 2256 3934 
Q 2047 4138 1716 4138 
Q 1388 4138 1169 3931 
Q 950 3725 888 3313 
L 325 3413 
Q 428 3978 793 4289 
Q 1159 4600 1703 4600 
Q 2078 4600 2393 4439 
Q 2709 4278 2876 4000 
Q 3044 3722 3044 3409 
Q 3044 3113 2884 2869 
Q 2725 2625 2413 2481 
Q 2819 2388 3044 2092 
Q 3269 1797 3269 1353 
Q 3269 753 2831 336 
Q 2394 -81 1725 -81 
Q 1122 -81 723 278 
Q 325 638 269 1209 
z
" transform="scale(0.015625)"/>
       </defs>
       <use xlink:href="#ArialMT-30"/>
       <use xlink:href="#ArialMT-2e" x="55.615234"/>
       <use xlink:href="#ArialMT-33" x="83.398438"/>
      </g>
     </g>
    </g>
    <g id="xtick_4">
     <g id="line2d_4">
      <g>
       <use xlink:href="#m56bbe9bb5e" x="356.936364" y="448.56" style="fill: #262626; stroke: #262626; stroke-width: 0.8"/>
      </g>
     </g>
     <g id="text_4">
      <!-- 0.4 -->
      <g style="fill: #262626" transform="translate(347.206364 467.080938) scale(0.14 -0.14)">
       <defs>
        <path id="ArialMT-34" d="M 2069 0 
L 2069 1097 
L 81 1097 
L 81 1613 
L 2172 4581 
L 2631 4581 
L 2631 1613 
L 3250 1613 
L 3250 1097 
L 2631 1097 
L 2631 0 
L 2069 0 
z
M 2069 1613 
L 2069 3678 
L 634 1613 
L 2069 1613 
z
" transform="scale(0.015625)"/>
       </defs>
       <use xlink:href="#ArialMT-30"/>
       <use xlink:href="#ArialMT-2e" x="55.615234"/>
       <use xlink:href="#ArialMT-34" x="83.398438"/>
      </g>
     </g>
    </g>
    <g id="xtick_5">
     <g id="line2d_5">
      <g>
       <use xlink:href="#m56bbe9bb5e" x="435.845455" y="448.56" style="fill: #262626; stroke: #262626; stroke-width: 0.8"/>
      </g>
     </g>
     <g id="text_5">
      <!-- 0.5 -->
      <g style="fill: #262626" transform="translate(426.115455 467.080938) scale(0.14 -0.14)">
       <defs>
        <path id="ArialMT-35" d="M 266 1200 
L 856 1250 
Q 922 819 1161 601 
Q 1400 384 1738 384 
Q 2144 384 2425 690 
Q 2706 997 2706 1503 
Q 2706 1984 2436 2262 
Q 2166 2541 1728 2541 
Q 1456 2541 1237 2417 
Q 1019 2294 894 2097 
L 366 2166 
L 809 4519 
L 3088 4519 
L 3088 3981 
L 1259 3981 
L 1013 2750 
Q 1425 3038 1878 3038 
Q 2478 3038 2890 2622 
Q 3303 2206 3303 1553 
Q 3303 931 2941 478 
Q 2500 -78 1738 -78 
Q 1113 -78 717 272 
Q 322 622 266 1200 
z
" transform="scale(0.015625)"/>
       </defs>
       <use xlink:href="#ArialMT-30"/>
       <use xlink:href="#ArialMT-2e" x="55.615234"/>
       <use xlink:href="#ArialMT-35" x="83.398438"/>
      </g>
     </g>
    </g>
    <g id="text_6">
     <!-- lag time $t (s)$ -->
     <g style="fill: #262626" transform="translate(214.46 486.023438) scale(0.16 -0.16)">
      <defs>
       <path id="ArialMT-6c" d="M 409 0 
L 409 4581 
L 972 4581 
L 972 0 
L 409 0 
z
" transform="scale(0.015625)"/>
       <path id="ArialMT-61" d="M 2588 409 
Q 2275 144 1986 34 
Q 1697 -75 1366 -75 
Q 819 -75 525 192 
Q 231 459 231 875 
Q 231 1119 342 1320 
Q 453 1522 633 1644 
Q 813 1766 1038 1828 
Q 1203 1872 1538 1913 
Q 2219 1994 2541 2106 
Q 2544 2222 2544 2253 
Q 2544 2597 2384 2738 
Q 2169 2928 1744 2928 
Q 1347 2928 1158 2789 
Q 969 2650 878 2297 
L 328 2372 
Q 403 2725 575 2942 
Q 747 3159 1072 3276 
Q 1397 3394 1825 3394 
Q 2250 3394 2515 3294 
Q 2781 3194 2906 3042 
Q 3031 2891 3081 2659 
Q 3109 2516 3109 2141 
L 3109 1391 
Q 3109 606 3145 398 
Q 3181 191 3288 0 
L 2700 0 
Q 2613 175 2588 409 
z
M 2541 1666 
Q 2234 1541 1622 1453 
Q 1275 1403 1131 1340 
Q 988 1278 909 1158 
Q 831 1038 831 891 
Q 831 666 1001 516 
Q 1172 366 1500 366 
Q 1825 366 2078 508 
Q 2331 650 2450 897 
Q 2541 1088 2541 1459 
L 2541 1666 
z
" transform="scale(0.015625)"/>
       <path id="ArialMT-67" d="M 319 -275 
L 866 -356 
Q 900 -609 1056 -725 
Q 1266 -881 1628 -881 
Q 2019 -881 2231 -725 
Q 2444 -569 2519 -288 
Q 2563 -116 2559 434 
Q 2191 0 1641 0 
Q 956 0 581 494 
Q 206 988 206 1678 
Q 206 2153 378 2554 
Q 550 2956 876 3175 
Q 1203 3394 1644 3394 
Q 2231 3394 2613 2919 
L 2613 3319 
L 3131 3319 
L 3131 450 
Q 3131 -325 2973 -648 
Q 2816 -972 2473 -1159 
Q 2131 -1347 1631 -1347 
Q 1038 -1347 672 -1080 
Q 306 -813 319 -275 
z
M 784 1719 
Q 784 1066 1043 766 
Q 1303 466 1694 466 
Q 2081 466 2343 764 
Q 2606 1063 2606 1700 
Q 2606 2309 2336 2618 
Q 2066 2928 1684 2928 
Q 1309 2928 1046 2623 
Q 784 2319 784 1719 
z
" transform="scale(0.015625)"/>
       <path id="ArialMT-20" transform="scale(0.015625)"/>
       <path id="ArialMT-74" d="M 1650 503 
L 1731 6 
Q 1494 -44 1306 -44 
Q 1000 -44 831 53 
Q 663 150 594 308 
Q 525 466 525 972 
L 525 2881 
L 113 2881 
L 113 3319 
L 525 3319 
L 525 4141 
L 1084 4478 
L 1084 3319 
L 1650 3319 
L 1650 2881 
L 1084 2881 
L 1084 941 
Q 1084 700 1114 631 
Q 1144 563 1211 522 
Q 1278 481 1403 481 
Q 1497 481 1650 503 
z
" transform="scale(0.015625)"/>
       <path id="ArialMT-69" d="M 425 3934 
L 425 4581 
L 988 4581 
L 988 3934 
L 425 3934 
z
M 425 0 
L 425 3319 
L 988 3319 
L 988 0 
L 425 0 
z
" transform="scale(0.015625)"/>
       <path id="ArialMT-6d" d="M 422 0 
L 422 3319 
L 925 3319 
L 925 2853 
Q 1081 3097 1340 3245 
Q 1600 3394 1931 3394 
Q 2300 3394 2536 3241 
Q 2772 3088 2869 2813 
Q 3263 3394 3894 3394 
Q 4388 3394 4653 3120 
Q 4919 2847 4919 2278 
L 4919 0 
L 4359 0 
L 4359 2091 
Q 4359 2428 4304 2576 
Q 4250 2725 4106 2815 
Q 3963 2906 3769 2906 
Q 3419 2906 3187 2673 
Q 2956 2441 2956 1928 
L 2956 0 
L 2394 0 
L 2394 2156 
Q 2394 2531 2256 2718 
Q 2119 2906 1806 2906 
Q 1569 2906 1367 2781 
Q 1166 2656 1075 2415 
Q 984 2175 984 1722 
L 984 0 
L 422 0 
z
" transform="scale(0.015625)"/>
       <path id="ArialMT-65" d="M 2694 1069 
L 3275 997 
Q 3138 488 2766 206 
Q 2394 -75 1816 -75 
Q 1088 -75 661 373 
Q 234 822 234 1631 
Q 234 2469 665 2931 
Q 1097 3394 1784 3394 
Q 2450 3394 2872 2941 
Q 3294 2488 3294 1666 
Q 3294 1616 3291 1516 
L 816 1516 
Q 847 969 1125 678 
Q 1403 388 1819 388 
Q 2128 388 2347 550 
Q 2566 713 2694 1069 
z
M 847 1978 
L 2700 1978 
Q 2663 2397 2488 2606 
Q 2219 2931 1791 2931 
Q 1403 2931 1139 2672 
Q 875 2413 847 1978 
z
" transform="scale(0.015625)"/>
       <path id="DejaVuSans-Oblique-74" d="M 2706 3500 
L 2619 3053 
L 1472 3053 
L 1100 1153 
Q 1081 1047 1072 975 
Q 1063 903 1063 863 
Q 1063 663 1183 572 
Q 1303 481 1569 481 
L 2150 481 
L 2053 0 
L 1503 0 
Q 991 0 739 200 
Q 488 400 488 806 
Q 488 878 497 964 
Q 506 1050 525 1153 
L 897 3053 
L 409 3053 
L 500 3500 
L 978 3500 
L 1172 4494 
L 1747 4494 
L 1556 3500 
L 2706 3500 
z
" transform="scale(0.015625)"/>
       <path id="DejaVuSans-28" d="M 1984 4856 
Q 1566 4138 1362 3434 
Q 1159 2731 1159 2009 
Q 1159 1288 1364 580 
Q 1569 -128 1984 -844 
L 1484 -844 
Q 1016 -109 783 600 
Q 550 1309 550 2009 
Q 550 2706 781 3412 
Q 1013 4119 1484 4856 
L 1984 4856 
z
" transform="scale(0.015625)"/>
       <path id="DejaVuSans-Oblique-73" d="M 3200 3397 
L 3091 2853 
Q 2863 2978 2609 3040 
Q 2356 3103 2088 3103 
Q 1634 3103 1373 2948 
Q 1113 2794 1113 2528 
Q 1113 2219 1719 2053 
Q 1766 2041 1788 2034 
L 1972 1978 
Q 2547 1819 2739 1644 
Q 2931 1469 2931 1166 
Q 2931 609 2489 259 
Q 2047 -91 1331 -91 
Q 1053 -91 747 -37 
Q 441 16 72 128 
L 184 722 
Q 500 559 806 475 
Q 1113 391 1394 391 
Q 1816 391 2080 572 
Q 2344 753 2344 1031 
Q 2344 1331 1650 1516 
L 1591 1531 
L 1394 1581 
Q 956 1697 753 1886 
Q 550 2075 550 2369 
Q 550 2928 970 3256 
Q 1391 3584 2113 3584 
Q 2397 3584 2667 3537 
Q 2938 3491 3200 3397 
z
" transform="scale(0.015625)"/>
       <path id="DejaVuSans-29" d="M 513 4856 
L 1013 4856 
Q 1481 4119 1714 3412 
Q 1947 2706 1947 2009 
Q 1947 1309 1714 600 
Q 1481 -109 1013 -844 
L 513 -844 
Q 928 -128 1133 580 
Q 1338 1288 1338 2009 
Q 1338 2731 1133 3434 
Q 928 4138 513 4856 
z
" transform="scale(0.015625)"/>
      </defs>
      <use xlink:href="#ArialMT-6c" transform="translate(0 0.125)"/>
      <use xlink:href="#ArialMT-61" transform="translate(22.216797 0.125)"/>
      <use xlink:href="#ArialMT-67" transform="translate(77.832031 0.125)"/>
      <use xlink:href="#ArialMT-20" transform="translate(133.447266 0.125)"/>
      <use xlink:href="#ArialMT-74" transform="translate(161.230469 0.125)"/>
      <use xlink:href="#ArialMT-69" transform="translate(189.013672 0.125)"/>
      <use xlink:href="#ArialMT-6d" transform="translate(211.230469 0.125)"/>
      <use xlink:href="#ArialMT-65" transform="translate(294.53125 0.125)"/>
      <use xlink:href="#ArialMT-20" transform="translate(350.146484 0.125)"/>
      <use xlink:href="#DejaVuSans-Oblique-74" transform="translate(377.929688 0.125)"/>
      <use xlink:href="#DejaVuSans-28" transform="translate(417.138672 0.125)"/>
      <use xlink:href="#DejaVuSans-Oblique-73" transform="translate(456.152344 0.125)"/>
      <use xlink:href="#DejaVuSans-29" transform="translate(508.251953 0.125)"/>
     </g>
    </g>
   </g>
   <g id="matplotlib.axis_2">
    <g id="ytick_1">
     <g id="line2d_6">
      <defs>
       <path id="m345f1c48b0" d="M 0 0 
L -5 0 
" style="stroke: #262626; stroke-width: 0.8"/>
      </defs>
      <g>
       <use xlink:href="#m345f1c48b0" x="63" y="431.805175" style="fill: #262626; stroke: #262626; stroke-width: 0.8"/>
      </g>
     </g>
     <g id="text_7">
      <!-- 0.00 -->
      <g style="fill: #262626" transform="translate(27.254687 436.815644) scale(0.14 -0.14)">
       <use xlink:href="#ArialMT-30"/>
       <use xlink:href="#ArialMT-2e" x="55.615234"/>
       <use xlink:href="#ArialMT-30" x="83.398438"/>
       <use xlink:href="#ArialMT-30" x="139.013672"/>
      </g>
     </g>
    </g>
    <g id="ytick_2">
     <g id="line2d_7">
      <g>
       <use xlink:href="#m345f1c48b0" x="63" y="379.021936" style="fill: #262626; stroke: #262626; stroke-width: 0.8"/>
      </g>
     </g>
     <g id="text_8">
      <!-- 0.01 -->
      <g style="fill: #262626" transform="translate(27.254687 384.032405) scale(0.14 -0.14)">
       <use xlink:href="#ArialMT-30"/>
       <use xlink:href="#ArialMT-2e" x="55.615234"/>
       <use xlink:href="#ArialMT-30" x="83.398438"/>
       <use xlink:href="#ArialMT-31" x="139.013672"/>
      </g>
     </g>
    </g>
    <g id="ytick_3">
     <g id="line2d_8">
      <g>
       <use xlink:href="#m345f1c48b0" x="63" y="326.238698" style="fill: #262626; stroke: #262626; stroke-width: 0.8"/>
      </g>
     </g>
     <g id="text_9">
      <!-- 0.02 -->
      <g style="fill: #262626" transform="translate(27.254687 331.249166) scale(0.14 -0.14)">
       <use xlink:href="#ArialMT-30"/>
       <use xlink:href="#ArialMT-2e" x="55.615234"/>
       <use xlink:href="#ArialMT-30" x="83.398438"/>
       <use xlink:href="#ArialMT-32" x="139.013672"/>
      </g>
     </g>
    </g>
    <g id="ytick_4">
     <g id="line2d_9">
      <g>
       <use xlink:href="#m345f1c48b0" x="63" y="273.455459" style="fill: #262626; stroke: #262626; stroke-width: 0.8"/>
      </g>
     </g>
     <g id="text_10">
      <!-- 0.03 -->
      <g style="fill: #262626" transform="translate(27.254687 278.465928) scale(0.14 -0.14)">
       <use xlink:href="#ArialMT-30"/>
       <use xlink:href="#ArialMT-2e" x="55.615234"/>
       <use xlink:href="#ArialMT-30" x="83.398438"/>
       <use xlink:href="#ArialMT-33" x="139.013672"/>
      </g>
     </g>
    </g>
    <g id="ytick_5">
     <g id="line2d_10">
      <g>
       <use xlink:href="#m345f1c48b0" x="63" y="220.67222" style="fill: #262626; stroke: #262626; stroke-width: 0.8"/>
      </g>
     </g>
     <g id="text_11">
      <!-- 0.04 -->
      <g style="fill: #262626" transform="translate(27.254687 225.682689) scale(0.14 -0.14)">
       <use xlink:href="#ArialMT-30"/>
       <use xlink:href="#ArialMT-2e" x="55.615234"/>
       <use xlink:href="#ArialMT-30" x="83.398438"/>
       <use xlink:href="#ArialMT-34" x="139.013672"/>
      </g>
     </g>
    </g>
    <g id="ytick_6">
     <g id="line2d_11">
      <g>
       <use xlink:href="#m345f1c48b0" x="63" y="167.888982" style="fill: #262626; stroke: #262626; stroke-width: 0.8"/>
      </g>
     </g>
     <g id="text_12">
      <!-- 0.05 -->
      <g style="fill: #262626" transform="translate(27.254687 172.899451) scale(0.14 -0.14)">
       <use xlink:href="#ArialMT-30"/>
       <use xlink:href="#ArialMT-2e" x="55.615234"/>
       <use xlink:href="#ArialMT-30" x="83.398438"/>
       <use xlink:href="#ArialMT-35" x="139.013672"/>
      </g>
     </g>
    </g>
    <g id="ytick_7">
     <g id="line2d_12">
      <g>
       <use xlink:href="#m345f1c48b0" x="63" y="115.105743" style="fill: #262626; stroke: #262626; stroke-width: 0.8"/>
      </g>
     </g>
     <g id="text_13">
      <!-- 0.06 -->
      <g style="fill: #262626" transform="translate(27.254687 120.116212) scale(0.14 -0.14)">
       <defs>
        <path id="ArialMT-36" d="M 3184 3459 
L 2625 3416 
Q 2550 3747 2413 3897 
Q 2184 4138 1850 4138 
Q 1581 4138 1378 3988 
Q 1113 3794 959 3422 
Q 806 3050 800 2363 
Q 1003 2672 1297 2822 
Q 1591 2972 1913 2972 
Q 2475 2972 2870 2558 
Q 3266 2144 3266 1488 
Q 3266 1056 3080 686 
Q 2894 316 2569 119 
Q 2244 -78 1831 -78 
Q 1128 -78 684 439 
Q 241 956 241 2144 
Q 241 3472 731 4075 
Q 1159 4600 1884 4600 
Q 2425 4600 2770 4297 
Q 3116 3994 3184 3459 
z
M 888 1484 
Q 888 1194 1011 928 
Q 1134 663 1356 523 
Q 1578 384 1822 384 
Q 2178 384 2434 671 
Q 2691 959 2691 1453 
Q 2691 1928 2437 2201 
Q 2184 2475 1800 2475 
Q 1419 2475 1153 2201 
Q 888 1928 888 1484 
z
" transform="scale(0.015625)"/>
       </defs>
       <use xlink:href="#ArialMT-30"/>
       <use xlink:href="#ArialMT-2e" x="55.615234"/>
       <use xlink:href="#ArialMT-30" x="83.398438"/>
       <use xlink:href="#ArialMT-36" x="139.013672"/>
      </g>
     </g>
    </g>
    <g id="ytick_8">
     <g id="line2d_13">
      <g>
       <use xlink:href="#m345f1c48b0" x="63" y="62.322505" style="fill: #262626; stroke: #262626; stroke-width: 0.8"/>
      </g>
     </g>
     <g id="text_14">
      <!-- 0.07 -->
      <g style="fill: #262626" transform="translate(27.254687 67.332973) scale(0.14 -0.14)">
       <defs>
        <path id="ArialMT-37" d="M 303 3981 
L 303 4522 
L 3269 4522 
L 3269 4084 
Q 2831 3619 2401 2847 
Q 1972 2075 1738 1259 
Q 1569 684 1522 0 
L 944 0 
Q 953 541 1156 1306 
Q 1359 2072 1739 2783 
Q 2119 3494 2547 3981 
L 303 3981 
z
" transform="scale(0.015625)"/>
       </defs>
       <use xlink:href="#ArialMT-30"/>
       <use xlink:href="#ArialMT-2e" x="55.615234"/>
       <use xlink:href="#ArialMT-30" x="83.398438"/>
       <use xlink:href="#ArialMT-37" x="139.013672"/>
      </g>
     </g>
    </g>
    <g id="text_15">
     <!-- MSD (um^2) -->
     <g style="fill: #262626" transform="translate(19.887187 299.1625) rotate(-90) scale(0.16 -0.16)">
      <defs>
       <path id="ArialMT-4d" d="M 475 0 
L 475 4581 
L 1388 4581 
L 2472 1338 
Q 2622 884 2691 659 
Q 2769 909 2934 1394 
L 4031 4581 
L 4847 4581 
L 4847 0 
L 4263 0 
L 4263 3834 
L 2931 0 
L 2384 0 
L 1059 3900 
L 1059 0 
L 475 0 
z
" transform="scale(0.015625)"/>
       <path id="ArialMT-53" d="M 288 1472 
L 859 1522 
Q 900 1178 1048 958 
Q 1197 738 1509 602 
Q 1822 466 2213 466 
Q 2559 466 2825 569 
Q 3091 672 3220 851 
Q 3350 1031 3350 1244 
Q 3350 1459 3225 1620 
Q 3100 1781 2813 1891 
Q 2628 1963 1997 2114 
Q 1366 2266 1113 2400 
Q 784 2572 623 2826 
Q 463 3081 463 3397 
Q 463 3744 659 4045 
Q 856 4347 1234 4503 
Q 1613 4659 2075 4659 
Q 2584 4659 2973 4495 
Q 3363 4331 3572 4012 
Q 3781 3694 3797 3291 
L 3216 3247 
Q 3169 3681 2898 3903 
Q 2628 4125 2100 4125 
Q 1550 4125 1298 3923 
Q 1047 3722 1047 3438 
Q 1047 3191 1225 3031 
Q 1400 2872 2139 2705 
Q 2878 2538 3153 2413 
Q 3553 2228 3743 1945 
Q 3934 1663 3934 1294 
Q 3934 928 3725 604 
Q 3516 281 3123 101 
Q 2731 -78 2241 -78 
Q 1619 -78 1198 103 
Q 778 284 539 648 
Q 300 1013 288 1472 
z
" transform="scale(0.015625)"/>
       <path id="ArialMT-44" d="M 494 0 
L 494 4581 
L 2072 4581 
Q 2606 4581 2888 4516 
Q 3281 4425 3559 4188 
Q 3922 3881 4101 3404 
Q 4281 2928 4281 2316 
Q 4281 1794 4159 1391 
Q 4038 988 3847 723 
Q 3656 459 3429 307 
Q 3203 156 2883 78 
Q 2563 0 2147 0 
L 494 0 
z
M 1100 541 
L 2078 541 
Q 2531 541 2789 625 
Q 3047 709 3200 863 
Q 3416 1078 3536 1442 
Q 3656 1806 3656 2325 
Q 3656 3044 3420 3430 
Q 3184 3816 2847 3947 
Q 2603 4041 2063 4041 
L 1100 4041 
L 1100 541 
z
" transform="scale(0.015625)"/>
       <path id="ArialMT-28" d="M 1497 -1347 
Q 1031 -759 709 28 
Q 388 816 388 1659 
Q 388 2403 628 3084 
Q 909 3875 1497 4659 
L 1900 4659 
Q 1522 4009 1400 3731 
Q 1209 3300 1100 2831 
Q 966 2247 966 1656 
Q 966 153 1900 -1347 
L 1497 -1347 
z
" transform="scale(0.015625)"/>
       <path id="ArialMT-75" d="M 2597 0 
L 2597 488 
Q 2209 -75 1544 -75 
Q 1250 -75 995 37 
Q 741 150 617 320 
Q 494 491 444 738 
Q 409 903 409 1263 
L 409 3319 
L 972 3319 
L 972 1478 
Q 972 1038 1006 884 
Q 1059 663 1231 536 
Q 1403 409 1656 409 
Q 1909 409 2131 539 
Q 2353 669 2445 892 
Q 2538 1116 2538 1541 
L 2538 3319 
L 3100 3319 
L 3100 0 
L 2597 0 
z
" transform="scale(0.015625)"/>
       <path id="ArialMT-5e" d="M 747 2156 
L 169 2156 
L 1272 4659 
L 1725 4659 
L 2834 2156 
L 2269 2156 
L 1497 4022 
L 747 2156 
z
" transform="scale(0.015625)"/>
       <path id="ArialMT-29" d="M 791 -1347 
L 388 -1347 
Q 1322 153 1322 1656 
Q 1322 2244 1188 2822 
Q 1081 3291 891 3722 
Q 769 4003 388 4659 
L 791 4659 
Q 1378 3875 1659 3084 
Q 1900 2403 1900 1659 
Q 1900 816 1576 28 
Q 1253 -759 791 -1347 
z
" transform="scale(0.015625)"/>
      </defs>
      <use xlink:href="#ArialMT-4d"/>
      <use xlink:href="#ArialMT-53" x="83.300781"/>
      <use xlink:href="#ArialMT-44" x="150"/>
      <use xlink:href="#ArialMT-20" x="222.216797"/>
      <use xlink:href="#ArialMT-28" x="250"/>
      <use xlink:href="#ArialMT-75" x="283.300781"/>
      <use xlink:href="#ArialMT-6d" x="338.916016"/>
      <use xlink:href="#ArialMT-5e" x="422.216797"/>
      <use xlink:href="#ArialMT-32" x="469.140625"/>
      <use xlink:href="#ArialMT-29" x="524.755859"/>
     </g>
    </g>
   </g>
   <g id="line2d_14">
    <path d="M 80.754545 429.904978 
L 120.209091 429.00608 
L 159.663636 428.471913 
L 199.118182 427.901327 
L 238.572727 427.52551 
L 278.027273 427.156555 
L 317.481818 426.7876 
L 356.936364 426.442398 
L 396.390909 426.141533 
L 435.845455 425.840141 
" clip-path="url(#p8689ae8657)" style="fill: none; stroke: #000000; stroke-opacity: 0.3; stroke-width: 1.5; stroke-linecap: round"/>
   </g>
   <g id="line2d_15">
    <path d="M 80.754545 399.431631 
L 120.209091 395.069096 
L 159.663636 391.470863 
L 199.118182 388.25742 
L 238.572727 386.549354 
L 278.027273 378.471935 
L 317.481818 384.012591 
L 356.936364 382.10395 
L 396.390909 387.218118 
L 435.845455 386.881888 
" clip-path="url(#p8689ae8657)" style="fill: none; stroke: #000000; stroke-opacity: 0.3; stroke-width: 1.5; stroke-linecap: round"/>
   </g>
   <g id="line2d_16">
    <path d="M 80.754545 430.442312 
L 120.209091 429.8485 
L 159.663636 429.506465 
L 199.118182 429.288998 
L 238.572727 429.02561 
L 278.027273 428.879928 
L 317.481818 428.658238 
L 356.936364 428.460301 
L 396.390909 428.290867 
L 435.845455 428.064427 
" clip-path="url(#p8689ae8657)" style="fill: none; stroke: #000000; stroke-opacity: 0.3; stroke-width: 1.5; stroke-linecap: round"/>
   </g>
   <g id="line2d_17">
    <path d="M 80.754545 413.890544 
L 120.209091 407.607755 
L 159.663636 400.718487 
L 199.118182 399.182494 
L 238.572727 394.992033 
L 278.027273 395.901488 
L 317.481818 392.639484 
L 356.936364 390.280073 
L 396.390909 387.92119 
L 435.845455 388.470136 
" clip-path="url(#p8689ae8657)" style="fill: none; stroke: #000000; stroke-opacity: 0.3; stroke-width: 1.5; stroke-linecap: round"/>
   </g>
   <g id="line2d_18">
    <path d="M 80.754545 421.756302 
L 120.209091 416.276874 
L 159.663636 412.828545 
L 199.118182 410.484969 
L 238.572727 408.530406 
L 278.027273 407.856892 
L 317.481818 406.252809 
L 356.936364 404.325693 
L 396.390909 402.510477 
L 435.845455 402.355823 
" clip-path="url(#p8689ae8657)" style="fill: none; stroke: #000000; stroke-opacity: 0.3; stroke-width: 1.5; stroke-linecap: round"/>
   </g>
   <g id="line2d_19">
    <path d="M 80.754545 429.361839 
L 120.209091 427.915578 
L 159.663636 426.912697 
L 199.118182 426.190622 
L 238.572727 425.518163 
L 278.027273 424.731693 
L 317.481818 424.173246 
L 356.936364 423.913553 
L 396.390909 423.743591 
L 435.845455 423.403139 
" clip-path="url(#p8689ae8657)" style="fill: none; stroke: #000000; stroke-opacity: 0.3; stroke-width: 1.5; stroke-linecap: round"/>
   </g>
   <g id="line2d_20">
    <path d="M 80.754545 429.980458 
L 120.209091 428.70416 
L 159.663636 427.860156 
L 199.118182 427.180308 
L 238.572727 426.50521 
L 278.027273 425.891341 
L 317.481818 425.35348 
L 356.936364 424.807701 
L 396.390909 424.462499 
L 435.845455 423.996423 
" clip-path="url(#p8689ae8657)" style="fill: none; stroke: #000000; stroke-opacity: 0.3; stroke-width: 1.5; stroke-linecap: round"/>
   </g>
   <g id="line2d_21">
    <path d="M 80.754545 419.106056 
L 120.209091 413.139966 
L 159.663636 409.948164 
L 199.118182 408.422728 
L 238.572727 407.131122 
L 278.027273 403.295364 
L 317.481818 400.698957 
L 356.936364 399.050536 
L 396.390909 397.485513 
L 435.845455 395.704079 
" clip-path="url(#p8689ae8657)" style="fill: none; stroke: #000000; stroke-opacity: 0.3; stroke-width: 1.5; stroke-linecap: round"/>
   </g>
   <g id="line2d_22">
    <path d="M 80.754545 429.493797 
L 120.209091 428.142546 
L 159.663636 427.139664 
L 199.118182 426.337359 
L 238.572727 425.599977 
L 278.027273 425.033613 
L 317.481818 424.476222 
L 356.936364 423.941528 
L 396.390909 423.447477 
L 435.845455 423.149252 
" clip-path="url(#p8689ae8657)" style="fill: none; stroke: #000000; stroke-opacity: 0.3; stroke-width: 1.5; stroke-linecap: round"/>
   </g>
   <g id="line2d_23">
    <path d="M 80.754545 427.416776 
L 120.209091 424.944937 
L 159.663636 423.375692 
L 199.118182 422.483127 
L 238.572727 421.796417 
L 278.027273 420.829428 
L 317.481818 420.135857 
L 356.936364 419.337774 
L 396.390909 418.252023 
L 435.845455 417.520975 
" clip-path="url(#p8689ae8657)" style="fill: none; stroke: #000000; stroke-opacity: 0.3; stroke-width: 1.5; stroke-linecap: round"/>
   </g>
   <g id="line2d_24">
    <path d="M 80.754545 429.327002 
L 120.209091 427.867017 
L 159.663636 427.000317 
L 199.118182 426.316774 
L 238.572727 425.862838 
L 278.027273 425.400985 
L 317.481818 424.895321 
L 356.936364 424.499447 
L 396.390909 424.271951 
L 435.845455 423.866048 
" clip-path="url(#p8689ae8657)" style="fill: none; stroke: #000000; stroke-opacity: 0.3; stroke-width: 1.5; stroke-linecap: round"/>
   </g>
   <g id="line2d_25">
    <path d="M 80.754545 430.92 
L 120.209091 430.308242 
L 159.663636 429.893366 
L 199.118182 429.619421 
L 238.572727 429.400371 
L 278.027273 429.201906 
L 317.481818 429.007135 
L 356.936364 428.76486 
L 396.390909 428.604399 
L 435.845455 428.403295 
" clip-path="url(#p8689ae8657)" style="fill: none; stroke: #000000; stroke-opacity: 0.3; stroke-width: 1.5; stroke-linecap: round"/>
   </g>
   <g id="line2d_26">
    <path d="M 80.754545 413.367462 
L 120.209091 407.923399 
L 159.663636 403.128569 
L 199.118182 399.753609 
L 238.572727 399.161381 
L 278.027273 396.597699 
L 317.481818 396.0155 
L 356.936364 393.88728 
L 396.390909 393.542077 
L 435.845455 392.807335 
" clip-path="url(#p8689ae8657)" style="fill: none; stroke: #000000; stroke-opacity: 0.3; stroke-width: 1.5; stroke-linecap: round"/>
   </g>
   <g id="line2d_27">
    <path d="M 80.754545 429.935065 
L 120.209091 428.398017 
L 159.663636 427.317016 
L 199.118182 426.423924 
L 238.572727 425.685486 
L 278.027273 424.980302 
L 317.481818 424.36221 
L 356.936364 423.854436 
L 396.390909 423.483897 
L 435.845455 423.185672 
" clip-path="url(#p8689ae8657)" style="fill: none; stroke: #000000; stroke-opacity: 0.3; stroke-width: 1.5; stroke-linecap: round"/>
   </g>
   <g id="line2d_28">
    <path d="M 80.754545 426.717926 
L 120.209091 424.497336 
L 159.663636 423.669694 
L 199.118182 422.159038 
L 238.572727 420.971415 
L 278.027273 419.801211 
L 317.481818 418.751352 
L 356.936364 417.985467 
L 396.390909 417.544199 
L 435.845455 416.533928 
" clip-path="url(#p8689ae8657)" style="fill: none; stroke: #000000; stroke-opacity: 0.3; stroke-width: 1.5; stroke-linecap: round"/>
   </g>
   <g id="line2d_29">
    <path d="M 80.754545 420.993584 
L 120.209091 416.632105 
L 159.663636 413.001146 
L 199.118182 409.628297 
L 238.572727 407.639425 
L 278.027273 405.851656 
L 317.481818 404.905253 
L 356.936364 403.20141 
L 396.390909 402.322041 
L 435.845455 401.443728 
" clip-path="url(#p8689ae8657)" style="fill: none; stroke: #000000; stroke-opacity: 0.3; stroke-width: 1.5; stroke-linecap: round"/>
   </g>
   <g id="line2d_30">
    <path d="M 80.754545 392.520194 
L 120.209091 368.557659 
L 159.663636 354.562711 
L 199.118182 331.917646 
L 238.572727 315.544286 
L 278.027273 299.899334 
L 317.481818 283.216136 
L 356.936364 276.234497 
L 396.390909 262.82122 
L 435.845455 258.814444 
" clip-path="url(#p8689ae8657)" style="fill: none; stroke: #000000; stroke-opacity: 0.3; stroke-width: 1.5; stroke-linecap: round"/>
   </g>
   <g id="line2d_31">
    <path d="M 80.754545 429.401426 
L 120.209091 427.509147 
L 159.663636 426.116197 
L 199.118182 425.032558 
L 238.572727 424.192248 
L 278.027273 423.371997 
L 317.481818 422.68212 
L 356.936364 422.218155 
L 396.390909 421.948433 
L 435.845455 421.575783 
" clip-path="url(#p8689ae8657)" style="fill: none; stroke: #000000; stroke-opacity: 0.3; stroke-width: 1.5; stroke-linecap: round"/>
   </g>
   <g id="line2d_32">
    <path d="M 80.754545 427.359771 
L 120.209091 425.812694 
L 159.663636 424.819313 
L 199.118182 423.966336 
L 238.572727 423.652804 
L 278.027273 423.523485 
L 317.481818 423.108081 
L 356.936364 422.802466 
L 396.390909 422.616669 
L 435.845455 422.783992 
" clip-path="url(#p8689ae8657)" style="fill: none; stroke: #000000; stroke-opacity: 0.3; stroke-width: 1.5; stroke-linecap: round"/>
   </g>
   <g id="line2d_33">
    <path d="M 80.754545 425.629008 
L 120.209091 423.291239 
L 159.663636 421.92732 
L 199.118182 420.513785 
L 238.572727 419.561047 
L 278.027273 418.513828 
L 317.481818 418.129566 
L 356.936364 416.998949 
L 396.390909 416.324907 
L 435.845455 415.815548 
" clip-path="url(#p8689ae8657)" style="fill: none; stroke: #000000; stroke-opacity: 0.3; stroke-width: 1.5; stroke-linecap: round"/>
   </g>
   <g id="line2d_34">
    <path d="M 80.754545 426.476179 
L 120.209091 424.329485 
L 159.663636 422.729097 
L 199.118182 421.96374 
L 238.572727 420.925494 
L 278.027273 420.594015 
L 317.481818 419.951115 
L 356.936364 419.364693 
L 396.390909 419.147754 
L 435.845455 418.727072 
" clip-path="url(#p8689ae8657)" style="fill: none; stroke: #000000; stroke-opacity: 0.3; stroke-width: 1.5; stroke-linecap: round"/>
   </g>
   <g id="line2d_35">
    <path d="M 80.754545 418.295305 
L 120.209091 412.716117 
L 159.663636 408.480262 
L 199.118182 406.520948 
L 238.572727 406.415381 
L 278.027273 406.724691 
L 317.481818 405.149112 
L 356.936364 403.905538 
L 396.390909 403.504386 
L 435.845455 402.98711 
" clip-path="url(#p8689ae8657)" style="fill: none; stroke: #000000; stroke-opacity: 0.3; stroke-width: 1.5; stroke-linecap: round"/>
   </g>
   <g id="line2d_36">
    <path d="M 80.754545 420.897519 
L 120.209091 416.979947 
L 159.663636 415.190595 
L 199.118182 411.475183 
L 238.572727 408.788516 
L 278.027273 407.780356 
L 317.481818 405.833182 
L 356.936364 404.583803 
L 396.390909 403.704962 
L 435.845455 402.475641 
" clip-path="url(#p8689ae8657)" style="fill: none; stroke: #000000; stroke-opacity: 0.3; stroke-width: 1.5; stroke-linecap: round"/>
   </g>
   <g id="line2d_37">
    <path d="M 80.754545 402.293011 
L 120.209091 398.015457 
L 159.663636 392.699129 
L 199.118182 388.932517 
L 238.572727 384.953189 
L 278.027273 379.025631 
L 317.481818 376.964973 
L 356.936364 375.493905 
L 396.390909 372.78243 
L 435.845455 374.402875 
" clip-path="url(#p8689ae8657)" style="fill: none; stroke: #000000; stroke-opacity: 0.3; stroke-width: 1.5; stroke-linecap: round"/>
   </g>
   <g id="line2d_38">
    <path d="M 80.754545 430.819184 
L 120.209091 430.344663 
L 159.663636 430.036409 
L 199.118182 429.771437 
L 238.572727 429.537607 
L 278.027273 429.346532 
L 317.481818 429.2056 
L 356.936364 428.988133 
L 396.390909 428.811837 
L 435.845455 428.715772 
" clip-path="url(#p8689ae8657)" style="fill: none; stroke: #000000; stroke-opacity: 0.3; stroke-width: 1.5; stroke-linecap: round"/>
   </g>
   <g id="line2d_39">
    <path d="M 80.754545 412.341883 
L 120.209091 413.462999 
L 159.663636 411.789771 
L 199.118182 411.51477 
L 238.572727 410.179354 
L 278.027273 409.313709 
L 317.481818 407.803581 
L 356.936364 408.942643 
L 396.390909 408.027382 
L 435.845455 408.510348 
" clip-path="url(#p8689ae8657)" style="fill: none; stroke: #000000; stroke-opacity: 0.3; stroke-width: 1.5; stroke-linecap: round"/>
   </g>
   <g id="line2d_40">
    <path d="M 80.754545 425.917732 
L 120.209091 423.597909 
L 159.663636 422.095698 
L 199.118182 420.494783 
L 238.572727 419.607496 
L 278.027273 419.177313 
L 317.481818 418.745018 
L 356.936364 418.130093 
L 396.390909 417.810227 
L 435.845455 416.887576 
" clip-path="url(#p8689ae8657)" style="fill: none; stroke: #000000; stroke-opacity: 0.3; stroke-width: 1.5; stroke-linecap: round"/>
   </g>
   <g id="line2d_41">
    <path d="M 80.754545 414.10326 
L 120.209091 402.874682 
L 159.663636 382.554191 
L 199.118182 366.306982 
L 238.572727 355.702301 
L 278.027273 344.390853 
L 317.481818 354.067077 
L 356.936364 344.0314 
L 396.390909 353.10431 
L 435.845455 357.665838 
" clip-path="url(#p8689ae8657)" style="fill: none; stroke: #000000; stroke-opacity: 0.3; stroke-width: 1.5; stroke-linecap: round"/>
   </g>
   <g id="line2d_42">
    <path d="M 80.754545 430.08708 
L 120.209091 428.941684 
L 159.663636 427.922968 
L 199.118182 427.10905 
L 238.572727 426.420757 
L 278.027273 425.79422 
L 317.481818 425.245274 
L 356.936364 424.798728 
L 396.390909 424.340569 
L 435.845455 423.963169 
" clip-path="url(#p8689ae8657)" style="fill: none; stroke: #000000; stroke-opacity: 0.3; stroke-width: 1.5; stroke-linecap: round"/>
   </g>
   <g id="line2d_43">
    <path d="M 80.754545 430.180507 
L 120.209091 429.123259 
L 159.663636 427.711835 
L 199.118182 427.686499 
L 238.572727 426.625028 
L 278.027273 425.581503 
L 317.481818 425.162404 
L 356.936364 424.076125 
L 396.390909 423.864464 
L 435.845455 424.450886 
" clip-path="url(#p8689ae8657)" style="fill: none; stroke: #000000; stroke-opacity: 0.3; stroke-width: 1.5; stroke-linecap: round"/>
   </g>
   <g id="line2d_44">
    <path d="M 80.754545 414.299614 
L 120.209091 403.105872 
L 159.663636 391.514145 
L 199.118182 376.670971 
L 238.572727 366.441051 
L 278.027273 354.116165 
L 317.481818 343.285572 
L 356.936364 333.78934 
L 396.390909 326.98558 
L 435.845455 320.862725 
" clip-path="url(#p8689ae8657)" style="fill: none; stroke: #000000; stroke-opacity: 0.3; stroke-width: 1.5; stroke-linecap: round"/>
   </g>
   <g id="line2d_45">
    <path d="M 80.754545 404.922144 
L 120.209091 397.791656 
L 159.663636 399.186189 
L 199.118182 396.421403 
L 238.572727 394.387665 
L 278.027273 396.410846 
L 317.481818 392.335453 
L 356.936364 391.610739 
L 396.390909 392.671682 
L 435.845455 390.425755 
" clip-path="url(#p8689ae8657)" style="fill: none; stroke: #000000; stroke-opacity: 0.3; stroke-width: 1.5; stroke-linecap: round"/>
   </g>
   <g id="line2d_46">
    <path d="M 80.754545 409.34274 
L 120.209091 408.710397 
L 159.663636 408.495041 
L 199.118182 405.779343 
L 238.572727 406.050121 
L 278.027273 405.22987 
L 317.481818 406.076513 
L 356.936364 405.54393 
L 396.390909 403.216717 
L 435.845455 403.2088 
" clip-path="url(#p8689ae8657)" style="fill: none; stroke: #000000; stroke-opacity: 0.3; stroke-width: 1.5; stroke-linecap: round"/>
   </g>
   <g id="line2d_47">
    <path d="M 80.754545 412.016211 
L 120.209091 404.700454 
L 159.663636 403.879147 
L 199.118182 402.701025 
L 238.572727 400.531634 
L 278.027273 401.270599 
L 317.481818 394.298461 
L 356.936364 394.445199 
L 396.390909 390.623164 
L 435.845455 388.703438 
" clip-path="url(#p8689ae8657)" style="fill: none; stroke: #000000; stroke-opacity: 0.3; stroke-width: 1.5; stroke-linecap: round"/>
   </g>
   <g id="line2d_48">
    <path d="M 80.754545 391.299318 
L 120.209091 371.68665 
L 159.663636 356.880423 
L 199.118182 349.149262 
L 238.572727 328.650892 
L 278.027273 336.85024 
L 317.481818 343.011627 
L 356.936364 348.490528 
L 396.390909 348.135296 
L 435.845455 322.077795 
" clip-path="url(#p8689ae8657)" style="fill: none; stroke: #000000; stroke-opacity: 0.3; stroke-width: 1.5; stroke-linecap: round"/>
   </g>
   <g id="line2d_49">
    <path d="M 80.754545 411.240297 
L 120.209091 387.060296 
L 159.663636 367.639231 
L 199.118182 353.56458 
L 238.572727 339.991898 
L 278.027273 325.876605 
L 317.481818 310.61697 
L 356.936364 303.417864 
L 396.390909 299.64703 
L 435.845455 288.90828 
" clip-path="url(#p8689ae8657)" style="fill: none; stroke: #000000; stroke-opacity: 0.3; stroke-width: 1.5; stroke-linecap: round"/>
   </g>
   <g id="line2d_50">
    <path d="M 80.754545 388.682325 
L 120.209091 368.992065 
L 159.663636 361.252459 
L 199.118182 349.320808 
L 238.572727 344.547092 
L 278.027273 348.303675 
L 317.481818 339.21968 
L 356.936364 342.581444 
L 396.390909 337.987719 
L 435.845455 333.455222 
" clip-path="url(#p8689ae8657)" style="fill: none; stroke: #000000; stroke-opacity: 0.3; stroke-width: 1.5; stroke-linecap: round"/>
   </g>
   <g id="line2d_51">
    <path d="M 80.754545 413.330514 
L 120.209091 398.308404 
L 159.663636 397.172509 
L 199.118182 391.367936 
L 238.572727 386.279104 
L 278.027273 380.664551 
L 317.481818 373.957912 
L 356.936364 372.123167 
L 396.390909 373.564677 
L 435.845455 367.691486 
" clip-path="url(#p8689ae8657)" style="fill: none; stroke: #000000; stroke-opacity: 0.3; stroke-width: 1.5; stroke-linecap: round"/>
   </g>
   <g id="line2d_52">
    <path d="M 80.754545 411.796105 
L 120.209091 410.127099 
L 159.663636 406.687743 
L 199.118182 405.471089 
L 238.572727 407.221909 
L 278.027273 407.149596 
L 317.481818 408.101278 
L 356.936364 405.291098 
L 396.390909 408.11289 
L 435.845455 401.831685 
" clip-path="url(#p8689ae8657)" style="fill: none; stroke: #000000; stroke-opacity: 0.3; stroke-width: 1.5; stroke-linecap: round"/>
   </g>
   <g id="line2d_53">
    <path d="M 80.754545 409.534871 
L 120.209091 393.809688 
L 159.663636 379.432062 
L 199.118182 370.134822 
L 238.572727 359.298951 
L 278.027273 346.836829 
L 317.481818 323.325591 
L 356.936364 297.267561 
L 396.390909 280.295111 
L 435.845455 259.29266 
" clip-path="url(#p8689ae8657)" style="fill: none; stroke: #000000; stroke-opacity: 0.3; stroke-width: 1.5; stroke-linecap: round"/>
   </g>
   <g id="line2d_54">
    <path d="M 80.754545 327.281167 
L 120.209091 245.960142 
L 159.663636 182.537386 
L 199.118182 162.104467 
L 238.572727 196.312228 
L 278.027273 175.871919 
L 317.481818 101.53095 
L 356.936364 106.412872 
L 396.390909 78.12 
L 435.845455 106.221268 
" clip-path="url(#p8689ae8657)" style="fill: none; stroke: #000000; stroke-opacity: 0.3; stroke-width: 1.5; stroke-linecap: round"/>
   </g>
   <g id="line2d_55">
    <path d="M 80.754545 419.934752 
L 120.209091 410.113375 
L 159.663636 405.586157 
L 199.118182 399.58048 
L 238.572727 395.992275 
L 278.027273 392.420961 
L 317.481818 389.090339 
L 356.936364 390.047827 
L 396.390909 392.447881 
L 435.845455 397.377835 
" clip-path="url(#p8689ae8657)" style="fill: none; stroke: #000000; stroke-opacity: 0.3; stroke-width: 1.5; stroke-linecap: round"/>
   </g>
   <g id="line2d_56">
    <path d="M 80.754545 426.522101 
L 120.209091 426.503626 
L 159.663636 424.637211 
L 199.118182 422.873723 
L 238.572727 420.999918 
L 278.027273 419.019491 
L 317.481818 417.598038 
L 356.936364 418.127454 
L 396.390909 417.178939 
L 435.845455 417.238585 
" clip-path="url(#p8689ae8657)" style="fill: none; stroke: #000000; stroke-opacity: 0.3; stroke-width: 1.5; stroke-linecap: round"/>
   </g>
   <g id="line2d_57">
    <path d="M 80.754545 358.173085 
L 120.209091 318.501203 
L 159.663636 278.449809 
L 199.118182 295.016884 
L 238.572727 310.808046 
L 278.027273 344.053041 
L 317.481818 328.874693 
L 356.936364 302.7396 
L 396.390909 299.957395 
L 435.845455 294.56506 
" clip-path="url(#p8689ae8657)" style="fill: none; stroke: #000000; stroke-opacity: 0.3; stroke-width: 1.5; stroke-linecap: round"/>
   </g>
   <g id="line2d_58">
    <path d="M 80.754545 372.719618 
L 120.209091 357.566605 
L 159.663636 337.414493 
L 199.118182 314.142363 
L 238.572727 308.722052 
L 278.027273 312.067982 
L 317.481818 291.778105 
L 356.936364 290.12335 
L 396.390909 279.490695 
L 435.845455 259.705425 
" clip-path="url(#p8689ae8657)" style="fill: none; stroke: #000000; stroke-opacity: 0.3; stroke-width: 1.5; stroke-linecap: round"/>
   </g>
   <g id="line2d_59">
    <path d="M 80.754545 423.362496 
L 120.209091 416.753507 
L 159.663636 414.061034 
L 199.118182 411.080364 
L 238.572727 408.771097 
L 278.027273 406.431744 
L 317.481818 404.605972 
L 356.936364 402.927993 
L 396.390909 400.99032 
L 435.845455 400.519494 
" clip-path="url(#p8689ae8657)" style="fill: none; stroke: #000000; stroke-opacity: 0.3; stroke-width: 1.5; stroke-linecap: round"/>
   </g>
   <g id="line2d_60">
    <path d="M 80.754545 413.723221 
L 120.209091 409.645188 
L 159.663636 408.398448 
L 199.118182 406.551562 
L 238.572727 406.803338 
L 278.027273 406.317732 
L 317.481818 403.708657 
L 356.936364 404.299301 
L 396.390909 401.629525 
L 435.845455 400.565415 
" clip-path="url(#p8689ae8657)" style="fill: none; stroke: #000000; stroke-opacity: 0.3; stroke-width: 1.5; stroke-linecap: round"/>
   </g>
   <g id="line2d_61">
    <path d="M 80.754545 406.92949 
L 120.209091 379.172369 
L 159.663636 353.24577 
L 199.118182 329.682804 
L 238.572727 307.168114 
L 278.027273 275.332959 
L 317.481818 240.695542 
L 356.936364 205.23154 
L 396.390909 171.698348 
L 435.845455 137.305845 
" clip-path="url(#p8689ae8657)" style="fill: none; stroke: #000000; stroke-opacity: 0.3; stroke-width: 1.5; stroke-linecap: round"/>
   </g>
   <g id="line2d_62">
    <path d="M 80.754545 430.26496 
L 120.209091 429.531801 
L 159.663636 428.797586 
L 199.118182 428.149408 
L 238.572727 426.859385 
L 278.027273 426.308856 
L 317.481818 425.29489 
L 356.936364 424.8494 
L 396.390909 424.260867 
L 435.845455 423.535625 
" clip-path="url(#p8689ae8657)" style="fill: none; stroke: #000000; stroke-opacity: 0.3; stroke-width: 1.5; stroke-linecap: round"/>
   </g>
   <g id="line2d_63">
    <path d="M 80.754545 348.643071 
L 120.209091 333.210308 
L 159.663636 307.919219 
L 199.118182 276.213911 
L 238.572727 260.764257 
L 278.027273 262.198906 
L 317.481818 274.242457 
L 356.936364 266.712928 
L 396.390909 245.684614 
L 435.845455 240.357729 
" clip-path="url(#p8689ae8657)" style="fill: none; stroke: #000000; stroke-opacity: 0.3; stroke-width: 1.5; stroke-linecap: round"/>
   </g>
   <g id="line2d_64">
    <path d="M 80.754545 429.291637 
L 120.209091 428.25603 
L 159.663636 427.703917 
L 199.118182 427.582516 
L 238.572727 426.716343 
L 278.027273 426.117253 
L 317.481818 425.807416 
L 356.936364 425.376704 
L 396.390909 425.474881 
L 435.845455 425.256358 
" clip-path="url(#p8689ae8657)" style="fill: none; stroke: #000000; stroke-opacity: 0.3; stroke-width: 1.5; stroke-linecap: round"/>
   </g>
   <g id="line2d_65">
    <path d="M 80.754545 379.245209 
L 120.209091 360.439069 
L 159.663636 333.539147 
L 199.118182 329.344463 
L 238.572727 312.007809 
L 278.027273 293.408051 
L 317.481818 282.571124 
L 356.936364 274.062994 
L 396.390909 269.525219 
L 435.845455 269.576947 
" clip-path="url(#p8689ae8657)" style="fill: none; stroke: #000000; stroke-opacity: 0.3; stroke-width: 1.5; stroke-linecap: round"/>
   </g>
   <g id="line2d_66">
    <path d="M 80.754545 420.613545 
L 120.209091 417.249141 
L 159.663636 414.792081 
L 199.118182 413.486752 
L 238.572727 410.18041 
L 278.027273 408.912556 
L 317.481818 407.122149 
L 356.936364 407.607227 
L 396.390909 406.660296 
L 435.845455 406.191581 
" clip-path="url(#p8689ae8657)" style="fill: none; stroke: #000000; stroke-opacity: 0.3; stroke-width: 1.5; stroke-linecap: round"/>
   </g>
   <g id="line2d_67">
    <path d="M 80.754545 381.181826 
L 120.209091 364.171372 
L 159.663636 359.36757 
L 199.118182 356.376343 
L 238.572727 334.158823 
L 278.027273 327.899786 
L 317.481818 321.132975 
L 356.936364 324.095698 
L 396.390909 328.165814 
L 435.845455 326.370656 
" clip-path="url(#p8689ae8657)" style="fill: none; stroke: #000000; stroke-opacity: 0.3; stroke-width: 1.5; stroke-linecap: round"/>
   </g>
   <g id="line2d_68">
    <path d="M 80.754545 414.255276 
L 120.209091 405.326463 
L 159.663636 401.327605 
L 199.118182 399.92146 
L 238.572727 399.001448 
L 278.027273 397.480235 
L 317.481818 398.205477 
L 356.936364 391.332043 
L 396.390909 394.27207 
L 435.845455 397.194678 
" clip-path="url(#p8689ae8657)" style="fill: none; stroke: #000000; stroke-opacity: 0.3; stroke-width: 1.5; stroke-linecap: round"/>
   </g>
   <g id="line2d_69">
    <path d="M 80.754545 404.707844 
L 120.209091 392.092122 
L 159.663636 379.165507 
L 199.118182 387.143693 
L 238.572727 388.190385 
L 278.027273 367.47138 
L 317.481818 359.889068 
L 356.936364 357.50221 
L 396.390909 365.089273 
L 435.845455 346.741819 
" clip-path="url(#p8689ae8657)" style="fill: none; stroke: #000000; stroke-opacity: 0.3; stroke-width: 1.5; stroke-linecap: round"/>
   </g>
   <g id="line2d_70">
    <path d="M 80.754545 422.06614 
L 120.209091 418.904951 
L 159.663636 417.046981 
L 199.118182 416.226202 
L 238.572727 411.695289 
L 278.027273 409.599266 
L 317.481818 415.296161 
L 356.936364 414.990546 
L 396.390909 412.213092 
L 435.845455 415.580663 
" clip-path="url(#p8689ae8657)" style="fill: none; stroke: #000000; stroke-opacity: 0.3; stroke-width: 1.5; stroke-linecap: round"/>
   </g>
   <g id="line2d_71">
    <path d="M 80.754545 375.673895 
L 120.209091 360.032638 
L 159.663636 358.203171 
L 199.118182 329.550318 
L 238.572727 319.201636 
L 278.027273 329.277429 
L 317.481818 313.146343 
L 356.936364 306.314081 
L 396.390909 289.545901 
L 435.845455 280.736379 
" clip-path="url(#p8689ae8657)" style="fill: none; stroke: #000000; stroke-opacity: 0.3; stroke-width: 1.5; stroke-linecap: round"/>
   </g>
   <g id="line2d_72">
    <path d="M 80.754545 419.07333 
L 120.209091 408.720425 
L 159.663636 408.459676 
L 199.118182 408.78271 
L 238.572727 403.319117 
L 278.027273 400.734849 
L 317.481818 399.419491 
L 356.936364 399.440076 
L 396.390909 397.226347 
L 435.845455 397.638585 
" clip-path="url(#p8689ae8657)" style="fill: none; stroke: #000000; stroke-opacity: 0.3; stroke-width: 1.5; stroke-linecap: round"/>
   </g>
   <g id="line2d_73">
    <path d="M 80.754545 357.840023 
L 120.209091 304.605487 
L 159.663636 315.795534 
L 199.118182 325.276987 
L 238.572727 301.032062 
L 278.027273 261.54756 
L 317.481818 250.359097 
L 356.936364 255.097449 
L 396.390909 239.866317 
L 435.845455 201.251683 
" clip-path="url(#p8689ae8657)" style="fill: none; stroke: #000000; stroke-opacity: 0.3; stroke-width: 1.5; stroke-linecap: round"/>
   </g>
   <g id="line2d_74">
    <path d="M 80.754545 414.920345 
L 120.209091 403.425211 
L 159.663636 391.624462 
L 199.118182 384.1493 
L 238.572727 383.472619 
L 278.027273 390.061551 
L 317.481818 392.634734 
L 356.936364 395.262283 
L 396.390909 392.218274 
L 435.845455 392.845339 
" clip-path="url(#p8689ae8657)" style="fill: none; stroke: #000000; stroke-opacity: 0.3; stroke-width: 1.5; stroke-linecap: round"/>
   </g>
   <g id="line2d_75">
    <path d="M 80.754545 383.83999 
L 120.209091 355.489585 
L 159.663636 340.768868 
L 199.118182 333.249367 
L 238.572727 325.048436 
L 278.027273 324.679481 
L 317.481818 307.519122 
L 356.936364 295.594333 
L 396.390909 312.7283 
L 435.845455 320.215602 
" clip-path="url(#p8689ae8657)" style="fill: none; stroke: #000000; stroke-opacity: 0.3; stroke-width: 1.5; stroke-linecap: round"/>
   </g>
   <g id="line2d_76">
    <path d="M 80.754545 423.78265 
L 120.209091 419.428561 
L 159.663636 417.764306 
L 199.118182 415.560078 
L 238.572727 415.991317 
L 278.027273 415.976009 
L 317.481818 413.112519 
L 356.936364 415.740068 
L 396.390909 414.901871 
L 435.845455 414.094287 
" clip-path="url(#p8689ae8657)" style="fill: none; stroke: #000000; stroke-opacity: 0.3; stroke-width: 1.5; stroke-linecap: round"/>
   </g>
   <g id="line2d_77">
    <path d="M 80.754545 430.141975 
L 120.209091 429.164429 
L 159.663636 428.444466 
L 199.118182 427.735587 
L 238.572727 427.516537 
L 278.027273 427.370327 
L 317.481818 427.342352 
L 356.936364 427.005595 
L 396.390909 427.097438 
L 435.845455 426.852524 
" clip-path="url(#p8689ae8657)" style="fill: none; stroke: #000000; stroke-opacity: 0.3; stroke-width: 1.5; stroke-linecap: round"/>
   </g>
   <g id="line2d_78">
    <path d="M 80.754545 347.307127 
L 120.209091 300.652023 
L 159.663636 264.198335 
L 199.118182 232.437076 
L 238.572727 211.794607 
L 278.027273 162.256482 
L 317.481818 183.906056 
L 356.936364 105.342955 
L 396.390909 129.03524 
L 435.845455 175.542551 
" clip-path="url(#p8689ae8657)" style="fill: none; stroke: #000000; stroke-opacity: 0.3; stroke-width: 1.5; stroke-linecap: round"/>
   </g>
   <g id="patch_3">
    <path d="M 63 448.56 
L 63 60.48 
" style="fill: none; stroke: #262626; stroke-width: 1.25; stroke-linejoin: miter; stroke-linecap: square"/>
   </g>
   <g id="patch_4">
    <path d="M 453.6 448.56 
L 453.6 60.48 
" style="fill: none; stroke: #262626; stroke-width: 1.25; stroke-linejoin: miter; stroke-linecap: square"/>
   </g>
   <g id="patch_5">
    <path d="M 63 448.56 
L 453.6 448.56 
" style="fill: none; stroke: #262626; stroke-width: 1.25; stroke-linejoin: miter; stroke-linecap: square"/>
   </g>
   <g id="patch_6">
    <path d="M 63 60.48 
L 453.6 60.48 
" style="fill: none; stroke: #262626; stroke-width: 1.25; stroke-linejoin: miter; stroke-linecap: square"/>
   </g>
   <g id="text_16">
    <!-- iMSDs -->
    <g style="fill: #262626" transform="translate(228.85625 54.48) scale(0.2 -0.2)">
     <defs>
      <path id="ArialMT-73" d="M 197 991 
L 753 1078 
Q 800 744 1014 566 
Q 1228 388 1613 388 
Q 2000 388 2187 545 
Q 2375 703 2375 916 
Q 2375 1106 2209 1216 
Q 2094 1291 1634 1406 
Q 1016 1563 777 1677 
Q 538 1791 414 1992 
Q 291 2194 291 2438 
Q 291 2659 392 2848 
Q 494 3038 669 3163 
Q 800 3259 1026 3326 
Q 1253 3394 1513 3394 
Q 1903 3394 2198 3281 
Q 2494 3169 2634 2976 
Q 2775 2784 2828 2463 
L 2278 2388 
Q 2241 2644 2061 2787 
Q 1881 2931 1553 2931 
Q 1166 2931 1000 2803 
Q 834 2675 834 2503 
Q 834 2394 903 2306 
Q 972 2216 1119 2156 
Q 1203 2125 1616 2013 
Q 2213 1853 2448 1751 
Q 2684 1650 2818 1456 
Q 2953 1263 2953 975 
Q 2953 694 2789 445 
Q 2625 197 2315 61 
Q 2006 -75 1616 -75 
Q 969 -75 630 194 
Q 291 463 197 991 
z
" transform="scale(0.015625)"/>
     </defs>
     <use xlink:href="#ArialMT-69"/>
     <use xlink:href="#ArialMT-4d" x="22.216797"/>
     <use xlink:href="#ArialMT-53" x="105.517578"/>
     <use xlink:href="#ArialMT-44" x="172.216797"/>
     <use xlink:href="#ArialMT-73" x="244.433594"/>
    </g>
   </g>
  </g>
 </g>
 <defs>
  <clipPath id="p8689ae8657">
   <rect x="63" y="60.48" width="390.6" height="388.08"/>
  </clipPath>
 </defs>
</svg>
