<?xml version="1.0" encoding="utf-8" standalone="no"?>
<!DOCTYPE svg PUBLIC "-//W3C//DTD SVG 1.1//EN"
  "http://www.w3.org/Graphics/SVG/1.1/DTD/svg11.dtd">
<svg xmlns:xlink="http://www.w3.org/1999/xlink" width="504pt" height="504pt" viewBox="0 0 504 504" xmlns="http://www.w3.org/2000/svg" version="1.1">
 <metadata>
  <rdf:RDF xmlns:dc="http://purl.org/dc/elements/1.1/" xmlns:cc="http://creativecommons.org/ns#" xmlns:rdf="http://www.w3.org/1999/02/22-rdf-syntax-ns#">
   <cc:Work>
    <dc:type rdf:resource="http://purl.org/dc/dcmitype/StillImage"/>
    <dc:date>2025-06-24T14:18:33.401448</dc:date>
    <dc:format>image/svg+xml</dc:format>
    <dc:creator>
     <cc:Agent>
      <dc:title>Matplotlib v3.8.0, https://matplotlib.org/</dc:title>
     </cc:Agent>
    </dc:creator>
   </cc:Work>
  </rdf:RDF>
 </metadata>
 <defs>
  <style type="text/css">*{stroke-linejoin: round; stroke-linecap: butt}</style>
 </defs>
 <g id="figure_1">
  <g id="patch_1">
   <path d="M 0 504 
L 504 504 
L 504 0 
L 0 0 
z
" style="fill: #ffffff"/>
  </g>
  <g id="axes_1">
   <g id="patch_2">
    <path d="M 63 448.56 
L 453.6 448.56 
L 453.6 60.48 
L 63 60.48 
z
" style="fill: #ffffff"/>
   </g>
   <g id="matplotlib.axis_1">
    <g id="xtick_1">
     <g id="line2d_1">
      <defs>
       <path id="m05609c1234" d="M 0 0 
L 0 5 
" style="stroke: #262626; stroke-width: 0.8"/>
      </defs>
      <g>
       <use xlink:href="#m05609c1234" x="66.908648" y="448.56" style="fill: #262626; stroke: #262626; stroke-width: 0.8"/>
      </g>
     </g>
     <g id="text_1">
      <!-- 0.0 -->
      <g style="fill: #262626" transform="translate(57.178648 467.080938) scale(0.14 -0.14)">
       <defs>
        <path id="ArialMT-30" d="M 266 2259 
Q 266 3072 433 3567 
Q 600 4063 929 4331 
Q 1259 4600 1759 4600 
Q 2128 4600 2406 4451 
Q 2684 4303 2865 4023 
Q 3047 3744 3150 3342 
Q 3253 2941 3253 2259 
Q 3253 1453 3087 958 
Q 2922 463 2592 192 
Q 2263 -78 1759 -78 
Q 1097 -78 719 397 
Q 266 969 266 2259 
z
M 844 2259 
Q 844 1131 1108 757 
Q 1372 384 1759 384 
Q 2147 384 2411 759 
Q 2675 1134 2675 2259 
Q 2675 3391 2411 3762 
Q 2147 4134 1753 4134 
Q 1366 4134 1134 3806 
Q 844 3388 844 2259 
z
" transform="scale(0.015625)"/>
        <path id="ArialMT-2e" d="M 581 0 
L 581 641 
L 1222 641 
L 1222 0 
L 581 0 
z
" transform="scale(0.015625)"/>
       </defs>
       <use xlink:href="#ArialMT-30"/>
       <use xlink:href="#ArialMT-2e" x="55.615234"/>
       <use xlink:href="#ArialMT-30" x="83.398438"/>
      </g>
     </g>
    </g>
    <g id="xtick_2">
     <g id="line2d_2">
      <g>
       <use xlink:href="#m05609c1234" x="116.502604" y="448.56" style="fill: #262626; stroke: #262626; stroke-width: 0.8"/>
      </g>
     </g>
     <g id="text_2">
      <!-- 2.5 -->
      <g style="fill: #262626" transform="translate(106.772604 467.080938) scale(0.14 -0.14)">
       <defs>
        <path id="ArialMT-32" d="M 3222 541 
L 3222 0 
L 194 0 
Q 188 203 259 391 
Q 375 700 629 1000 
Q 884 1300 1366 1694 
Q 2113 2306 2375 2664 
Q 2638 3022 2638 3341 
Q 2638 3675 2398 3904 
Q 2159 4134 1775 4134 
Q 1369 4134 1125 3890 
Q 881 3647 878 3216 
L 300 3275 
Q 359 3922 746 4261 
Q 1134 4600 1788 4600 
Q 2447 4600 2831 4234 
Q 3216 3869 3216 3328 
Q 3216 3053 3103 2787 
Q 2991 2522 2730 2228 
Q 2469 1934 1863 1422 
Q 1356 997 1212 845 
Q 1069 694 975 541 
L 3222 541 
z
" transform="scale(0.015625)"/>
        <path id="ArialMT-35" d="M 266 1200 
L 856 1250 
Q 922 819 1161 601 
Q 1400 384 1738 384 
Q 2144 384 2425 690 
Q 2706 997 2706 1503 
Q 2706 1984 2436 2262 
Q 2166 2541 1728 2541 
Q 1456 2541 1237 2417 
Q 1019 2294 894 2097 
L 366 2166 
L 809 4519 
L 3088 4519 
L 3088 3981 
L 1259 3981 
L 1013 2750 
Q 1425 3038 1878 3038 
Q 2478 3038 2890 2622 
Q 3303 2206 3303 1553 
Q 3303 931 2941 478 
Q 2500 -78 1738 -78 
Q 1113 -78 717 272 
Q 322 622 266 1200 
z
" transform="scale(0.015625)"/>
       </defs>
       <use xlink:href="#ArialMT-32"/>
       <use xlink:href="#ArialMT-2e" x="55.615234"/>
       <use xlink:href="#ArialMT-35" x="83.398438"/>
      </g>
     </g>
    </g>
    <g id="xtick_3">
     <g id="line2d_3">
      <g>
       <use xlink:href="#m05609c1234" x="166.096561" y="448.56" style="fill: #262626; stroke: #262626; stroke-width: 0.8"/>
      </g>
     </g>
     <g id="text_3">
      <!-- 5.0 -->
      <g style="fill: #262626" transform="translate(156.366561 467.080938) scale(0.14 -0.14)">
       <use xlink:href="#ArialMT-35"/>
       <use xlink:href="#ArialMT-2e" x="55.615234"/>
       <use xlink:href="#ArialMT-30" x="83.398438"/>
      </g>
     </g>
    </g>
    <g id="xtick_4">
     <g id="line2d_4">
      <g>
       <use xlink:href="#m05609c1234" x="215.690517" y="448.56" style="fill: #262626; stroke: #262626; stroke-width: 0.8"/>
      </g>
     </g>
     <g id="text_4">
      <!-- 7.5 -->
      <g style="fill: #262626" transform="translate(205.960517 467.080938) scale(0.14 -0.14)">
       <defs>
        <path id="ArialMT-37" d="M 303 3981 
L 303 4522 
L 3269 4522 
L 3269 4084 
Q 2831 3619 2401 2847 
Q 1972 2075 1738 1259 
Q 1569 684 1522 0 
L 944 0 
Q 953 541 1156 1306 
Q 1359 2072 1739 2783 
Q 2119 3494 2547 3981 
L 303 3981 
z
" transform="scale(0.015625)"/>
       </defs>
       <use xlink:href="#ArialMT-37"/>
       <use xlink:href="#ArialMT-2e" x="55.615234"/>
       <use xlink:href="#ArialMT-35" x="83.398438"/>
      </g>
     </g>
    </g>
    <g id="xtick_5">
     <g id="line2d_5">
      <g>
       <use xlink:href="#m05609c1234" x="265.284474" y="448.56" style="fill: #262626; stroke: #262626; stroke-width: 0.8"/>
      </g>
     </g>
     <g id="text_5">
      <!-- 10.0 -->
      <g style="fill: #262626" transform="translate(251.661818 467.080938) scale(0.14 -0.14)">
       <defs>
        <path id="ArialMT-31" d="M 2384 0 
L 1822 0 
L 1822 3584 
Q 1619 3391 1289 3197 
Q 959 3003 697 2906 
L 697 3450 
Q 1169 3672 1522 3987 
Q 1875 4303 2022 4600 
L 2384 4600 
L 2384 0 
z
" transform="scale(0.015625)"/>
       </defs>
       <use xlink:href="#ArialMT-31"/>
       <use xlink:href="#ArialMT-30" x="55.615234"/>
       <use xlink:href="#ArialMT-2e" x="111.230469"/>
       <use xlink:href="#ArialMT-30" x="139.013672"/>
      </g>
     </g>
    </g>
    <g id="xtick_6">
     <g id="line2d_6">
      <g>
       <use xlink:href="#m05609c1234" x="314.87843" y="448.56" style="fill: #262626; stroke: #262626; stroke-width: 0.8"/>
      </g>
     </g>
     <g id="text_6">
      <!-- 12.5 -->
      <g style="fill: #262626" transform="translate(301.255774 467.080938) scale(0.14 -0.14)">
       <use xlink:href="#ArialMT-31"/>
       <use xlink:href="#ArialMT-32" x="55.615234"/>
       <use xlink:href="#ArialMT-2e" x="111.230469"/>
       <use xlink:href="#ArialMT-35" x="139.013672"/>
      </g>
     </g>
    </g>
    <g id="xtick_7">
     <g id="line2d_7">
      <g>
       <use xlink:href="#m05609c1234" x="364.472387" y="448.56" style="fill: #262626; stroke: #262626; stroke-width: 0.8"/>
      </g>
     </g>
     <g id="text_7">
      <!-- 15.0 -->
      <g style="fill: #262626" transform="translate(350.849731 467.080938) scale(0.14 -0.14)">
       <use xlink:href="#ArialMT-31"/>
       <use xlink:href="#ArialMT-35" x="55.615234"/>
       <use xlink:href="#ArialMT-2e" x="111.230469"/>
       <use xlink:href="#ArialMT-30" x="139.013672"/>
      </g>
     </g>
    </g>
    <g id="xtick_8">
     <g id="line2d_8">
      <g>
       <use xlink:href="#m05609c1234" x="414.066343" y="448.56" style="fill: #262626; stroke: #262626; stroke-width: 0.8"/>
      </g>
     </g>
     <g id="text_8">
      <!-- 17.5 -->
      <g style="fill: #262626" transform="translate(400.443687 467.080938) scale(0.14 -0.14)">
       <use xlink:href="#ArialMT-31"/>
       <use xlink:href="#ArialMT-37" x="55.615234"/>
       <use xlink:href="#ArialMT-2e" x="111.230469"/>
       <use xlink:href="#ArialMT-35" x="139.013672"/>
      </g>
     </g>
    </g>
    <g id="text_9">
     <!-- x [\xb5m] -->
     <g style="fill: #262626" transform="translate(225.84875 485.510938) scale(0.16 -0.16)">
      <defs>
       <path id="ArialMT-78" d="M 47 0 
L 1259 1725 
L 138 3319 
L 841 3319 
L 1350 2541 
Q 1494 2319 1581 2169 
Q 1719 2375 1834 2534 
L 2394 3319 
L 3066 3319 
L 1919 1756 
L 3153 0 
L 2463 0 
L 1781 1031 
L 1600 1309 
L 728 0 
L 47 0 
z
" transform="scale(0.015625)"/>
       <path id="ArialMT-20" transform="scale(0.015625)"/>
       <path id="ArialMT-5b" d="M 434 -1272 
L 434 4581 
L 1675 4581 
L 1675 4116 
L 997 4116 
L 997 -806 
L 1675 -806 
L 1675 -1272 
L 434 -1272 
z
" transform="scale(0.015625)"/>
       <path id="ArialMT-5c" d="M 1328 -78 
L 0 4659 
L 453 4659 
L 1778 -78 
L 1328 -78 
z
" transform="scale(0.015625)"/>
       <path id="ArialMT-62" d="M 941 0 
L 419 0 
L 419 4581 
L 981 4581 
L 981 2947 
Q 1338 3394 1891 3394 
Q 2197 3394 2470 3270 
Q 2744 3147 2920 2923 
Q 3097 2700 3197 2384 
Q 3297 2069 3297 1709 
Q 3297 856 2875 390 
Q 2453 -75 1863 -75 
Q 1275 -75 941 416 
L 941 0 
z
M 934 1684 
Q 934 1088 1097 822 
Q 1363 388 1816 388 
Q 2184 388 2453 708 
Q 2722 1028 2722 1663 
Q 2722 2313 2464 2622 
Q 2206 2931 1841 2931 
Q 1472 2931 1203 2611 
Q 934 2291 934 1684 
z
" transform="scale(0.015625)"/>
       <path id="ArialMT-6d" d="M 422 0 
L 422 3319 
L 925 3319 
L 925 2853 
Q 1081 3097 1340 3245 
Q 1600 3394 1931 3394 
Q 2300 3394 2536 3241 
Q 2772 3088 2869 2813 
Q 3263 3394 3894 3394 
Q 4388 3394 4653 3120 
Q 4919 2847 4919 2278 
L 4919 0 
L 4359 0 
L 4359 2091 
Q 4359 2428 4304 2576 
Q 4250 2725 4106 2815 
Q 3963 2906 3769 2906 
Q 3419 2906 3187 2673 
Q 2956 2441 2956 1928 
L 2956 0 
L 2394 0 
L 2394 2156 
Q 2394 2531 2256 2718 
Q 2119 2906 1806 2906 
Q 1569 2906 1367 2781 
Q 1166 2656 1075 2415 
Q 984 2175 984 1722 
L 984 0 
L 422 0 
z
" transform="scale(0.015625)"/>
       <path id="ArialMT-5d" d="M 1363 -1272 
L 122 -1272 
L 122 -806 
L 800 -806 
L 800 4116 
L 122 4116 
L 122 4581 
L 1363 4581 
L 1363 -1272 
z
" transform="scale(0.015625)"/>
      </defs>
      <use xlink:href="#ArialMT-78"/>
      <use xlink:href="#ArialMT-20" x="50"/>
      <use xlink:href="#ArialMT-5b" x="77.783203"/>
      <use xlink:href="#ArialMT-5c" x="105.566406"/>
      <use xlink:href="#ArialMT-78" x="133.349609"/>
      <use xlink:href="#ArialMT-62" x="183.349609"/>
      <use xlink:href="#ArialMT-35" x="238.964844"/>
      <use xlink:href="#ArialMT-6d" x="294.580078"/>
      <use xlink:href="#ArialMT-5d" x="377.880859"/>
     </g>
    </g>
   </g>
   <g id="matplotlib.axis_2">
    <g id="ytick_1">
     <g id="line2d_9">
      <defs>
       <path id="m04fafede1a" d="M 0 0 
L -5 0 
" style="stroke: #262626; stroke-width: 0.8"/>
      </defs>
      <g>
       <use xlink:href="#m04fafede1a" x="63" y="103.976378" style="fill: #262626; stroke: #262626; stroke-width: 0.8"/>
      </g>
     </g>
     <g id="text_10">
      <!-- 5.0 -->
      <g style="fill: #262626" transform="translate(35.04 108.986847) scale(0.14 -0.14)">
       <use xlink:href="#ArialMT-35"/>
       <use xlink:href="#ArialMT-2e" x="55.615234"/>
       <use xlink:href="#ArialMT-30" x="83.398438"/>
      </g>
     </g>
    </g>
    <g id="ytick_2">
     <g id="line2d_10">
      <g>
       <use xlink:href="#m04fafede1a" x="63" y="153.570335" style="fill: #262626; stroke: #262626; stroke-width: 0.8"/>
      </g>
     </g>
     <g id="text_11">
      <!-- 7.5 -->
      <g style="fill: #262626" transform="translate(35.04 158.580804) scale(0.14 -0.14)">
       <use xlink:href="#ArialMT-37"/>
       <use xlink:href="#ArialMT-2e" x="55.615234"/>
       <use xlink:href="#ArialMT-35" x="83.398438"/>
      </g>
     </g>
    </g>
    <g id="ytick_3">
     <g id="line2d_11">
      <g>
       <use xlink:href="#m04fafede1a" x="63" y="203.164291" style="fill: #262626; stroke: #262626; stroke-width: 0.8"/>
      </g>
     </g>
     <g id="text_12">
      <!-- 10.0 -->
      <g style="fill: #262626" transform="translate(27.254687 208.17476) scale(0.14 -0.14)">
       <use xlink:href="#ArialMT-31"/>
       <use xlink:href="#ArialMT-30" x="55.615234"/>
       <use xlink:href="#ArialMT-2e" x="111.230469"/>
       <use xlink:href="#ArialMT-30" x="139.013672"/>
      </g>
     </g>
    </g>
    <g id="ytick_4">
     <g id="line2d_12">
      <g>
       <use xlink:href="#m04fafede1a" x="63" y="252.758248" style="fill: #262626; stroke: #262626; stroke-width: 0.8"/>
      </g>
     </g>
     <g id="text_13">
      <!-- 12.5 -->
      <g style="fill: #262626" transform="translate(27.254687 257.768716) scale(0.14 -0.14)">
       <use xlink:href="#ArialMT-31"/>
       <use xlink:href="#ArialMT-32" x="55.615234"/>
       <use xlink:href="#ArialMT-2e" x="111.230469"/>
       <use xlink:href="#ArialMT-35" x="139.013672"/>
      </g>
     </g>
    </g>
    <g id="ytick_5">
     <g id="line2d_13">
      <g>
       <use xlink:href="#m04fafede1a" x="63" y="302.352204" style="fill: #262626; stroke: #262626; stroke-width: 0.8"/>
      </g>
     </g>
     <g id="text_14">
      <!-- 15.0 -->
      <g style="fill: #262626" transform="translate(27.254687 307.362673) scale(0.14 -0.14)">
       <use xlink:href="#ArialMT-31"/>
       <use xlink:href="#ArialMT-35" x="55.615234"/>
       <use xlink:href="#ArialMT-2e" x="111.230469"/>
       <use xlink:href="#ArialMT-30" x="139.013672"/>
      </g>
     </g>
    </g>
    <g id="ytick_6">
     <g id="line2d_14">
      <g>
       <use xlink:href="#m04fafede1a" x="63" y="351.946161" style="fill: #262626; stroke: #262626; stroke-width: 0.8"/>
      </g>
     </g>
     <g id="text_15">
      <!-- 17.5 -->
      <g style="fill: #262626" transform="translate(27.254687 356.956629) scale(0.14 -0.14)">
       <use xlink:href="#ArialMT-31"/>
       <use xlink:href="#ArialMT-37" x="55.615234"/>
       <use xlink:href="#ArialMT-2e" x="111.230469"/>
       <use xlink:href="#ArialMT-35" x="139.013672"/>
      </g>
     </g>
    </g>
    <g id="ytick_7">
     <g id="line2d_15">
      <g>
       <use xlink:href="#m04fafede1a" x="63" y="401.540117" style="fill: #262626; stroke: #262626; stroke-width: 0.8"/>
      </g>
     </g>
     <g id="text_16">
      <!-- 20.0 -->
      <g style="fill: #262626" transform="translate(27.254687 406.550586) scale(0.14 -0.14)">
       <use xlink:href="#ArialMT-32"/>
       <use xlink:href="#ArialMT-30" x="55.615234"/>
       <use xlink:href="#ArialMT-2e" x="111.230469"/>
       <use xlink:href="#ArialMT-30" x="139.013672"/>
      </g>
     </g>
    </g>
    <g id="text_17">
     <!-- y [\xb5m] -->
     <g style="fill: #262626" transform="translate(19.887187 286.97125) rotate(-90) scale(0.16 -0.16)">
      <defs>
       <path id="ArialMT-79" d="M 397 -1278 
L 334 -750 
Q 519 -800 656 -800 
Q 844 -800 956 -737 
Q 1069 -675 1141 -563 
Q 1194 -478 1313 -144 
Q 1328 -97 1363 -6 
L 103 3319 
L 709 3319 
L 1400 1397 
Q 1534 1031 1641 628 
Q 1738 1016 1872 1384 
L 2581 3319 
L 3144 3319 
L 1881 -56 
Q 1678 -603 1566 -809 
Q 1416 -1088 1222 -1217 
Q 1028 -1347 759 -1347 
Q 597 -1347 397 -1278 
z
" transform="scale(0.015625)"/>
      </defs>
      <use xlink:href="#ArialMT-79"/>
      <use xlink:href="#ArialMT-20" x="50"/>
      <use xlink:href="#ArialMT-5b" x="77.783203"/>
      <use xlink:href="#ArialMT-5c" x="105.566406"/>
      <use xlink:href="#ArialMT-78" x="133.349609"/>
      <use xlink:href="#ArialMT-62" x="183.349609"/>
      <use xlink:href="#ArialMT-35" x="238.964844"/>
      <use xlink:href="#ArialMT-6d" x="294.580078"/>
      <use xlink:href="#ArialMT-5d" x="377.880859"/>
     </g>
    </g>
   </g>
   <g id="line2d_16">
    <path d="M 369.767278 163.109027 
L 369.98665 162.718525 
L 370.540495 162.598627 
L 370.427005 162.381814 
L 369.808084 162.061038 
L 369.771752 162.454365 
L 369.844382 162.499705 
L 369.825885 162.413103 
L 369.5611 162.679266 
L 369.456076 162.339442 
L 369.579992 162.645421 
L 369.736542 162.655828 
L 369.812872 162.2001 
L 369.824023 162.255613 
L 370.321312 162.232137 
L 369.972915 162.297155 
L 370.005275 162.042875 
L 370.022411 162.493078 
L 370.03806 162.416949 
L 369.677104 162.645371 
L 369.925839 163.02176 
L 370.097551 162.443587 
L 369.689192 162.220091 
L 369.47271 162.558049 
L 369.639615 162.709733 
L 369.424131 162.414557 
L 369.339362 162.596119 
L 369.17939 162.377688 
L 369.741118 162.154109 
L 369.582425 162.051188 
L 369.286608 162.267154 
L 369.076434 161.940076 
L 369.220225 161.87156 
L 369.214272 161.72816 
L 369.499274 161.991986 
L 368.838929 162.233071 
L 368.919753 162.331518 
L 369.327894 162.37846 
L 369.240007 162.641424 
L 369.627836 162.207481 
L 369.410093 162.083705 
L 369.18529 162.271625 
L 369.319073 162.268999 
L 369.436706 162.642562 
L 369.321398 162.63602 
L 369.54178 162.604546 
L 369.506614 162.823155 
L 369.231033 163.161797 
L 369.73454 162.854199 
L 369.781003 163.193109 
L 369.637487 162.619859 
L 369.470136 162.802054 
L 369.423973 163.038128 
L 369.613549 163.043691 
L 369.376735 163.035293 
L 369.384597 163.239254 
L 369.250397 163.00942 
L 368.900129 163.107742 
L 369.05757 163.299676 
L 369.216184 163.06434 
L 368.82501 162.961719 
L 368.954982 162.983914 
L 368.839169 162.753655 
L 369.157401 162.986307 
L 369.206679 163.250956 
L 369.217871 163.199038 
L 369.363447 163.102103 
L 369.448741 163.011446 
L 369.197615 162.797365 
L 369.14921 162.94302 
L 369.551327 162.823692 
L 369.080074 162.519623 
L 369.155916 162.074839 
L 369.201407 162.16167 
L 369.331206 162.16259 
L 368.780923 162.222202 
L 368.477429 162.410283 
L 368.660202 162.54784 
L 368.497548 162.348794 
L 368.667092 162.415434 
L 368.970384 162.099511 
L 369.184843 162.332184 
L 369.206356 162.535742 
L 368.954531 162.317379 
L 368.581165 162.467901 
L 368.852448 162.526197 
L 368.686394 162.057848 
L 369.224477 162.514692 
L 369.337407 162.406619 
L 369.12978 162.299126 
L 369.269481 162.513644 
L 369.255913 162.475241 
L 368.794023 162.547512 
L 368.682747 162.259213 
L 368.906187 162.691823 
L 368.765158 162.735106 
L 369.102265 162.503664 
L 368.879416 162.784412 
L 369.217289 162.830775 
L 369.328659 162.637495 
L 369.576429 162.554293 
L 369.569772 162.58609 
L 369.364538 162.417279 
L 369.376538 162.686641 
L 369.688442 162.302705 
L 369.395504 162.535445 
L 369.060107 162.809713 
L 368.749228 162.606738 
L 368.836717 162.717981 
L 369.084503 162.218082 
L 369.182161 162.926067 
L 369.030433 162.42195 
L 369.476778 162.610737 
L 369.208692 162.228494 
L 369.300002 162.478162 
L 369.500203 162.068559 
L 369.329768 162.500645 
L 370.126559 162.790969 
L 370.444698 162.558814 
L 370.276714 162.551941 
L 369.873221 162.32108 
L 369.954142 162.623359 
L 369.987957 162.1866 
L 369.854928 162.707761 
L 369.731063 163.193728 
L 369.568934 162.814725 
L 369.788447 163.349376 
L 369.614126 163.101707 
L 369.559298 163.156242 
L 369.818333 163.02994 
L 370.115976 163.016946 
L 369.753142 163.252498 
L 370.126063 163.029844 
L 369.426822 162.792001 
L 370.426606 163.041355 
L 369.904097 162.831495 
L 369.9973 163.050949 
M 369.579728 162.43754 
L 369.429303 162.567225 
L 369.635149 162.343435 
L 370.224345 162.492028 
L 369.667008 163.309075 
L 369.5031 162.936286 
L 369.504617 163.346145 
M 369.844322 162.621795 
L 369.761321 162.838074 
L 369.444649 162.660948 
L 369.796994 162.927951 
L 369.624552 163.262275 
L 369.361805 163.308575 
L 369.899803 163.14404 
L 369.499438 163.303425 
L 369.890177 163.062909 
L 369.078009 162.70622 
L 369.107629 162.834266 
L 368.938465 162.889567 
L 369.034356 163.110372 
L 368.979763 162.927493 
L 369.171385 162.75493 
L 369.177978 162.986626 
L 369.607106 163.341339 
L 368.806043 162.674457 
L 369.27934 162.763791 
L 369.182701 163.346285 
L 368.465602 162.851327 
L 369.42969 162.879964 
L 369.118949 162.763939 
L 369.404776 162.809443 
L 369.38828 163.051366 
L 369.274175 162.881748 
M 368.612129 162.585168 
L 368.617323 162.4723 
L 368.775545 162.473335 
L 369.11296 162.676309 
L 368.946035 162.661453 
L 368.682699 162.650661 
L 368.816599 163.023867 
L 369.000616 163.060709 
L 368.697393 162.851686 
L 368.877429 162.896379 
L 369.103787 162.83439 
L 369.059746 162.833449 
L 368.862032 162.612604 
L 369.048631 163.220536 
L 368.994446 163.110623 
L 369.403856 162.829074 
L 369.155177 162.858327 
L 369.55076 163.148653 
L 369.497493 163.299748 
L 369.747802 163.023886 
L 369.601938 162.99666 
L 369.12059 163.74278 
L 369.483384 163.847267 
L 369.637359 164.104703 
L 369.79355 164.192946 
L 369.271571 163.840875 
L 369.920114 163.925548 
L 369.817193 163.508124 
L 369.424504 163.644538 
L 369.565135 163.780589 
L 369.110535 164.093688 
L 369.194431 164.371793 
L 369.387878 164.029932 
L 370.009127 163.460014 
L 369.80759 163.421119 
L 370.118711 163.531169 
L 369.357485 163.570293 
L 369.587979 163.637128 
L 370.28677 163.942107 
L 368.983811 164.152538 
L 369.360607 163.463832 
L 369.006026 164.223665 
L 369.38417 164.161048 
L 369.103756 163.866729 
L 369.530316 163.550595 
L 369.366885 163.471805 
L 369.655044 163.549749 
L 369.528663 163.611398 
L 369.626864 162.905803 
L 368.94987 163.143164 
L 368.655277 163.512726 
L 369.0673 163.623442 
L 369.20181 163.450044 
L 368.95194 163.9106 
L 369.023955 163.640533 
L 369.168228 163.719344 
L 369.350677 164.085513 
L 369.07737 164.089307 
L 369.303681 163.836703 
L 368.883327 163.825885 
L 369.363901 163.943235 
L 368.93557 163.860303 
L 368.820318 163.537586 
L 368.802441 163.706164 
L 368.659386 163.81051 
L 369.164711 164.539492 
L 369.003418 164.039601 
L 368.867087 164.309806 
L 368.614228 164.396277 
L 368.398973 164.116869 
L 368.716914 164.381077 
L 368.339727 164.8028 
M 368.480301 164.058914 
L 368.779737 164.034725 
L 368.40572 164.162128 
L 369.035522 163.852473 
L 369.266567 164.392042 
L 369.045114 164.282464 
L 369.251038 164.130845 
L 369.065677 164.437183 
L 368.418415 164.533781 
L 369.040605 163.5477 
L 369.464738 163.527324 
L 369.33525 163.711748 
L 368.882006 163.914661 
L 368.372835 163.608055 
L 369.022114 163.904567 
L 368.716664 163.505727 
L 367.410492 163.69604 
L 367.914407 164.010717 
L 368.532122 163.834713 
L 368.69834 163.739268 
L 368.57959 164.197853 
L 368.270038 164.673298 
L 367.926106 164.543145 
L 368.124499 164.379194 
L 368.140181 164.574109 
L 368.176383 164.377077 
L 368.699579 164.452155 
L 368.640817 164.691057 
L 368.87313 164.169086 
L 368.814166 164.352348 
L 368.609086 164.027752 
L 368.736944 163.86433 
L 368.958377 164.108985 
L 368.691714 164.054255 
L 368.72089 163.935392 
L 368.545261 164.221252 
L 368.495333 164.195361 
L 368.792296 164.170196 
L 368.539766 164.246928 
L 368.811894 164.365249 
L 368.373753 164.180895 
L 368.61087 164.41959 
L 368.430104 164.175334 
L 368.502014 164.866518 
L 368.24556 164.9209 
L 368.256851 165.131092 
L 368.144946 164.498081 
L 368.047533 164.726229 
L 368.357713 164.952699 
L 368.076693 164.858546 
L 367.968735 165.19593 
L 368.015174 165.049932 
L 367.89331 164.907661 
L 368.082854 164.912687 
L 368.174314 165.122516 
L 368.375573 164.974944 
L 368.985847 164.747469 
L 368.301237 164.346368 
L 368.426435 164.256826 
L 368.763011 164.128751 
L 368.37215 164.156668 
L 368.531127 164.186201 
L 369.048692 164.447174 
L 368.903601 164.245613 
L 368.43616 164.078907 
L 368.687171 164.43055 
L 368.687171 164.43055 
" clip-path="url(#p9e6f5bf74c)" style="fill: none; stroke: #1f77b4; stroke-linecap: round"/>
   </g>
   <g id="line2d_17">
    <path d="M 354.252838 130.504646 
L 354.863763 130.825215 
L 354.584203 130.816852 
L 354.665869 131.474481 
L 354.603933 131.526048 
L 354.835072 131.480315 
L 354.362107 131.338412 
L 354.035933 131.556194 
L 354.152309 130.761141 
L 354.296623 130.813772 
L 354.615006 131.137415 
L 354.813919 130.970545 
L 354.501663 131.269988 
L 354.362583 130.802496 
L 354.934814 130.803439 
L 354.508384 130.62815 
L 354.423475 130.558637 
L 354.391178 131.095665 
L 354.843187 131.428016 
L 354.694462 131.401991 
L 354.801039 130.88812 
L 354.52179 130.852391 
L 354.905707 130.947646 
L 354.436072 130.567837 
L 354.390693 130.999757 
L 354.08261 131.487411 
L 354.433064 131.638368 
L 354.778911 131.39842 
L 354.771285 131.022587 
L 354.776369 131.379234 
L 354.902475 131.051807 
L 355.019454 131.142916 
L 354.802407 131.177332 
L 354.300274 131.57582 
L 354.94212 131.822704 
L 354.729416 131.327468 
L 354.48201 131.312409 
L 354.79966 131.639221 
L 354.620154 131.219154 
L 354.850286 131.173915 
L 354.182354 131.088653 
L 354.439621 130.90238 
L 354.115609 131.321327 
L 354.012078 131.142518 
L 354.23664 130.983302 
L 353.715753 130.877371 
L 354.153059 130.576232 
L 354.030942 131.166252 
L 354.077286 130.684947 
M 353.882778 131.179462 
L 354.625213 131.70231 
L 353.908461 131.436066 
L 354.140708 131.185257 
L 354.366569 131.238276 
L 354.239867 131.340176 
L 353.748466 131.227376 
L 353.682502 131.332887 
L 354.068027 131.323668 
L 353.861082 131.303459 
L 354.142777 131.878667 
L 353.844214 131.053812 
L 354.184338 131.054755 
L 354.354036 131.394279 
L 354.281518 131.688368 
L 354.109457 131.413717 
L 354.112257 131.666412 
L 354.664884 131.609027 
L 354.424796 131.976654 
L 354.078728 132.140646 
L 354.224124 132.391128 
L 354.120372 132.501707 
L 354.425037 131.872026 
L 353.825913 131.870528 
L 354.226685 131.681221 
L 354.487139 132.418046 
L 353.919359 132.57241 
L 354.111877 132.190371 
L 354.276199 132.319877 
L 354.234923 132.545034 
L 354.577775 132.674288 
L 354.291806 132.583358 
L 354.164343 132.839452 
L 354.252684 132.505284 
L 354.425502 132.667721 
L 353.812401 132.165741 
L 354.263008 132.259054 
L 354.651491 132.031911 
L 354.351988 132.365418 
L 354.471494 132.172556 
L 354.219116 131.794483 
L 354.064855 131.824373 
L 354.000818 132.005772 
L 354.088681 131.945125 
L 353.848702 131.932638 
L 353.635082 131.635396 
L 354.0344 131.853023 
L 353.934098 131.904281 
L 353.994522 131.596063 
L 353.821252 131.718075 
L 353.801727 132.025861 
L 354.057721 132.356795 
L 353.763843 131.957752 
L 353.730768 132.030829 
L 353.275256 132.030217 
L 353.946968 132.105563 
L 353.799419 132.520256 
L 353.603111 132.266719 
L 353.703735 132.018879 
L 353.512456 132.295235 
L 353.423474 132.016002 
L 353.44903 132.376385 
L 353.22644 132.069392 
L 353.731077 131.939522 
L 353.590381 131.99772 
L 353.80025 132.155244 
L 353.730102 132.080066 
L 353.351388 132.242468 
L 353.460143 132.125358 
L 353.270686 132.117185 
L 353.314912 132.169928 
L 353.355271 131.79716 
L 353.475017 132.168799 
L 353.902458 131.444795 
L 353.555741 132.117287 
L 354.001652 132.229314 
L 354.013861 131.94887 
L 353.918867 132.000912 
L 353.397968 132.164469 
L 353.630493 132.283627 
L 353.709037 131.865272 
L 352.847601 131.893784 
L 353.238749 132.217148 
L 352.982331 131.880264 
L 353.740598 131.911664 
L 353.587941 131.042075 
L 353.191681 131.280988 
L 353.47579 131.341057 
L 353.467948 131.524167 
L 352.919029 131.556024 
L 352.945426 132.046101 
L 353.204004 131.62222 
L 353.257368 131.696798 
L 352.867546 131.75588 
L 352.44188 132.053022 
L 352.71694 131.675618 
L 352.917254 131.916617 
L 352.907202 131.302893 
L 352.952229 131.686058 
L 352.795177 131.773417 
L 353.287138 132.006156 
L 353.322959 131.903991 
L 353.708769 131.491612 
L 353.586699 131.922491 
L 353.288699 131.571347 
L 353.157759 131.16425 
L 353.322673 131.722397 
L 353.475383 131.637464 
L 353.405749 131.582905 
L 353.144103 131.986622 
L 352.909883 131.645158 
L 352.94895 131.802711 
L 352.741534 131.680235 
L 352.384714 131.206918 
L 352.762548 131.144505 
L 353.180319 131.495156 
L 352.869893 131.429134 
L 353.011169 131.475314 
L 353.12554 131.604028 
L 353.125629 131.209604 
L 353.487629 131.515137 
L 353.348573 131.463917 
L 353.584949 130.709198 
L 353.399966 131.661163 
L 353.474253 131.731162 
L 353.407487 131.859981 
L 353.431207 131.745471 
L 353.308767 131.446144 
L 352.974502 131.789089 
L 353.231841 131.564285 
L 352.908424 131.382732 
L 353.014005 131.462182 
L 353.071665 131.047081 
L 353.313025 131.114037 
L 352.821667 131.61833 
L 352.316898 131.213363 
L 353.104796 131.465897 
L 353.321918 131.230122 
L 352.937402 130.994916 
L 352.719604 131.205101 
L 352.818268 131.165983 
L 353.362433 131.14504 
L 352.941797 131.418112 
L 352.994728 131.237114 
L 353.003467 131.437378 
L 353.213842 131.861207 
L 353.3821 131.689329 
L 353.280578 131.801806 
L 353.772182 132.087146 
L 353.067953 131.436919 
L 353.111686 131.751297 
L 353.33742 131.710056 
L 353.155577 132.493539 
L 353.591402 132.491855 
L 353.57915 132.348166 
L 353.498288 132.467227 
L 353.210905 132.086833 
L 353.531501 132.190965 
L 353.23846 131.998501 
L 353.575897 131.799478 
L 352.973081 132.081454 
L 352.980668 131.74748 
L 352.645318 131.902045 
L 352.768408 132.533109 
L 353.23544 132.595926 
L 352.943959 132.139355 
L 352.526195 132.227023 
L 352.545354 132.174398 
L 352.676734 132.274073 
L 352.950746 132.171807 
L 352.698992 132.168557 
L 353.031346 131.952101 
L 353.011639 131.446625 
L 353.122861 132.291626 
L 353.316781 132.495887 
L 353.392307 132.364161 
L 353.294376 132.05597 
L 353.107459 131.879051 
L 353.272175 131.988388 
L 352.97153 132.278991 
L 353.032158 132.820657 
L 352.733591 132.276819 
L 352.892997 132.06487 
L 352.541503 132.408133 
L 352.752972 131.952377 
L 352.361323 132.820726 
L 351.994362 132.522409 
L 352.360288 132.289392 
L 352.845202 132.326362 
L 352.222836 132.767395 
L 352.450264 132.86274 
L 352.570224 132.271088 
L 351.955156 132.343036 
L 352.243774 132.532626 
L 352.455889 133.481579 
L 352.372073 133.792492 
L 351.965024 133.621665 
L 351.997233 133.71079 
L 352.135951 134.177647 
L 351.735774 133.938337 
L 352.192878 133.395873 
L 352.016757 133.140369 
L 352.281619 133.033752 
L 352.043105 133.690992 
L 351.496295 133.437115 
L 351.386202 133.186817 
L 351.962515 133.804236 
L 352.252595 133.387692 
L 351.796309 133.482079 
L 351.844524 133.741893 
L 351.878904 133.682457 
L 351.944215 133.585445 
L 352.180328 133.505029 
L 351.800777 133.615012 
L 352.045556 133.479973 
L 352.341291 133.266771 
L 352.692653 133.636379 
L 352.005502 133.488758 
L 352.227322 133.934249 
L 352.707492 133.988413 
L 352.199633 133.85341 
L 352.370355 133.653856 
L 352.065323 133.637768 
L 352.01463 133.513675 
L 352.406991 133.366459 
L 352.160097 133.366512 
L 352.029545 133.361724 
L 351.978081 133.197207 
L 352.473945 133.356788 
L 352.191808 133.794028 
L 352.577928 133.280679 
L 352.556064 133.349291 
L 352.56763 133.466422 
L 352.331188 133.647644 
L 352.553275 133.601542 
L 352.968841 133.980684 
L 352.346499 134.314387 
L 352.487047 134.519145 
L 352.371911 134.219749 
L 352.579458 134.200507 
L 352.855396 133.871718 
L 352.489254 134.13416 
L 352.454666 134.073044 
L 353.081266 133.708232 
L 352.1581 133.927414 
L 352.254133 134.238295 
L 352.638588 134.111996 
L 352.41709 134.240274 
L 352.096019 134.460034 
L 352.188607 134.19879 
L 352.153217 133.915179 
L 352.126208 134.048478 
L 352.544813 133.965324 
L 352.07406 134.326315 
L 352.334976 134.468794 
L 352.315267 134.368017 
L 352.286101 134.267167 
L 352.549684 134.14049 
L 352.331786 134.107265 
L 351.80209 134.196209 
L 352.159418 134.727942 
L 352.825024 135.135235 
L 352.947507 134.93455 
L 352.91978 135.056527 
L 353.118423 134.87385 
L 353.199062 134.538231 
L 352.943217 134.352459 
L 352.454484 134.687029 
L 352.503137 134.710627 
L 352.67307 134.83886 
L 352.694564 135.14155 
L 352.539269 134.874126 
L 352.58007 134.316726 
L 352.275473 134.330401 
L 352.473463 134.260127 
L 352.167426 134.613502 
L 352.245179 134.343657 
L 352.135586 133.997222 
L 352.001555 134.067825 
L 352.785655 134.060698 
L 352.785655 134.060698 
" clip-path="url(#p9e6f5bf74c)" style="fill: none; stroke: #ff7f0e; stroke-linecap: round"/>
   </g>
   <g id="line2d_18">
    <path d="M 337.905951 111.215698 
L 338.006524 110.813764 
L 337.381511 110.374009 
L 337.991237 109.90293 
L 337.334727 109.908477 
L 337.498725 110.468959 
L 336.404727 110.698866 
L 336.968738 110.443995 
L 336.785105 110.035006 
L 336.4694 110.076825 
L 336.214968 109.88101 
L 336.675683 109.220382 
L 336.903728 109.156278 
L 337.099716 108.54179 
L 336.616281 108.897606 
L 337.041901 109.195265 
L 336.783102 109.206128 
L 336.786836 108.820477 
L 336.686812 109.101291 
L 336.312276 109.467685 
L 335.986979 108.582561 
L 335.975732 109.068727 
L 336.509075 109.76903 
L 336.295597 109.608873 
L 336.458719 110.173627 
L 336.316167 110.254387 
L 336.891895 110.397867 
L 336.468671 110.241808 
L 336.20493 110.109493 
L 335.873918 110.343831 
L 335.97319 110.292993 
L 336.308214 110.261386 
L 336.29245 110.441772 
L 335.768458 109.900048 
L 335.633656 110.683852 
L 335.760713 111.033299 
L 335.411942 110.842123 
L 335.25871 110.594051 
L 335.541369 109.916057 
L 335.485913 109.91894 
L 335.373504 109.664829 
L 335.388591 109.850942 
L 335.449221 109.470473 
L 335.316677 109.519006 
L 335.512827 109.251057 
L 336.01258 109.387069 
L 335.268349 109.144644 
L 335.579644 109.311176 
L 335.087266 109.578807 
L 335.231203 109.299006 
L 335.464058 109.539064 
L 335.165547 109.939874 
L 334.703398 109.871471 
L 335.00579 109.792587 
L 335.458467 109.45369 
L 335.910795 109.893637 
L 335.865455 110.252302 
L 335.966829 110.491346 
L 336.448305 110.140499 
L 336.151865 109.969821 
L 335.760138 109.598483 
L 335.804932 110.094256 
L 335.652985 109.938155 
L 335.572505 110.039915 
L 335.749297 110.160985 
L 336.003643 109.850525 
L 335.910904 109.564315 
L 335.313924 109.88318 
L 335.390949 109.836281 
L 334.583979 110.05299 
L 335.020213 110.756142 
L 334.731773 110.925631 
L 335.099749 110.057496 
L 335.088711 110.078343 
L 335.880642 110.047975 
L 335.689677 109.910609 
L 335.350649 109.372916 
L 336.005879 110.012759 
L 336.448672 110.081072 
L 336.020516 110.297292 
L 336.203203 109.995986 
L 336.856408 110.314076 
L 336.282181 109.980109 
L 336.104969 110.532808 
L 335.698131 110.006631 
L 335.897994 109.915103 
L 335.942232 109.770553 
L 334.687149 110.02814 
L 334.788253 110.2657 
L 334.526611 110.550982 
L 334.833391 110.381268 
L 334.946958 110.124885 
L 335.066839 110.414375 
L 334.63468 110.014765 
L 333.622974 109.604107 
L 333.958852 109.437579 
L 334.081983 109.564158 
L 334.165324 108.984996 
L 333.954564 109.88589 
M 333.785512 109.646262 
L 333.472269 109.827273 
L 333.774641 109.779466 
L 334.255637 109.899919 
L 334.367232 110.239131 
L 333.980324 110.340952 
L 335.023312 110.564533 
L 334.911337 110.350676 
L 334.849883 109.956675 
L 334.464693 110.141183 
L 334.784594 110.235265 
L 334.646688 110.235277 
L 335.369232 110.083606 
L 335.091593 110.128445 
L 334.861535 110.442965 
L 334.673598 110.126184 
L 334.141621 110.411123 
L 334.70829 110.504148 
L 334.364551 111.109757 
L 334.14593 110.59093 
L 333.831691 110.481939 
L 333.602089 110.279936 
L 334.468886 109.603284 
L 334.395662 110.207404 
L 334.853954 110.184625 
L 334.514565 109.930686 
L 334.412716 110.454327 
L 334.350221 110.15 
L 334.688352 110.18593 
L 334.537455 110.36458 
L 334.733261 110.521034 
L 334.559405 110.663066 
L 334.400785 110.078368 
L 334.778367 110.159891 
L 335.063359 110.43329 
L 334.671833 110.289064 
L 334.966397 110.189045 
L 334.163699 110.660991 
L 334.672919 110.178766 
L 334.517076 109.902819 
L 334.799474 109.37854 
L 334.444165 110.009059 
L 334.580041 110.165978 
L 335.495005 109.524495 
L 335.444178 109.608872 
L 335.042074 108.89976 
L 335.04678 109.211993 
L 334.810124 109.803142 
L 334.221744 109.819692 
L 334.832837 109.226344 
L 334.34897 110.768494 
L 334.427914 110.298462 
L 335.140487 110.077218 
L 335.392401 110.201044 
L 335.252854 110.327336 
L 334.675937 109.878377 
L 334.723117 110.29228 
L 335.003299 110.311815 
L 334.55569 110.337083 
L 334.134099 109.726648 
L 333.895006 109.889956 
L 334.450248 110.083588 
M 333.844045 109.971403 
L 334.798374 109.847975 
L 334.290454 109.939072 
L 335.437877 109.347246 
L 335.962156 109.571783 
L 335.729386 109.797439 
L 335.501217 109.860497 
L 335.52708 109.574684 
L 335.705494 110.23688 
L 335.523277 110.081053 
L 335.750239 110.095173 
L 335.836803 109.823385 
L 336.181763 110.011093 
L 335.898836 109.737078 
L 335.185992 109.710687 
L 335.660935 110.663772 
L 334.401492 110.388799 
L 334.813275 109.944921 
L 334.015356 109.764356 
L 334.179027 109.541308 
L 334.204034 109.86935 
L 334.135699 109.845033 
L 334.018662 109.978857 
L 334.373326 110.060273 
L 334.530472 109.880692 
L 334.242945 110.54089 
L 334.282903 110.478508 
L 333.767194 110.380908 
L 333.702517 110.482052 
L 334.126978 109.857419 
L 333.488088 110.127074 
L 333.937184 109.803015 
L 333.563786 109.536667 
L 333.976621 109.140862 
L 333.465736 109.122065 
M 333.57447 109.970782 
L 333.437414 110.037504 
L 333.152767 109.940396 
L 333.798078 110.083249 
L 334.08517 109.55332 
L 333.547224 109.258038 
L 333.634715 110.054309 
L 333.931034 109.669024 
L 334.119538 110.391955 
L 333.883225 110.042089 
L 334.123394 109.908291 
L 333.62339 109.20291 
L 333.769445 108.904141 
L 334.170109 109.043232 
L 334.921951 109.562537 
L 333.25715 109.839054 
L 334.315541 109.775642 
L 334.19538 110.048792 
L 334.456088 110.347854 
L 334.330317 110.613248 
L 333.850893 110.033072 
L 334.135575 110.200127 
L 333.952072 110.620657 
L 334.088587 110.664747 
L 334.021816 110.430928 
L 333.708222 109.765833 
L 334.114411 110.258083 
L 333.934497 110.115663 
L 333.207319 109.971263 
L 333.77772 110.237857 
L 333.764082 110.387003 
L 333.881708 110.533793 
L 333.720179 110.732687 
L 333.737703 110.643557 
L 333.488492 109.891958 
L 333.764555 110.2129 
L 333.733949 110.839566 
L 334.088051 111.48841 
L 334.19532 111.072498 
L 333.942351 111.192317 
L 334.176369 110.985819 
L 334.844959 110.571161 
L 334.849097 111.163655 
L 334.948938 110.900115 
L 334.50101 110.942645 
L 334.247959 110.815687 
L 333.859293 110.985358 
L 333.824529 111.277208 
L 333.916983 111.204231 
L 333.57712 111.091753 
L 334.097876 110.748016 
L 334.447499 111.104712 
L 334.212427 110.861074 
L 334.385295 111.538286 
L 334.697233 111.270887 
L 334.448625 111.102272 
L 333.713404 111.313313 
L 333.737003 111.910104 
L 333.466404 111.906241 
L 334.211506 112.573002 
L 333.580716 112.429058 
L 333.588487 111.991502 
M 333.599677 111.999222 
L 332.881943 111.469273 
M 334.063703 111.237186 
L 334.469135 111.308115 
L 334.205932 111.537801 
L 333.802421 111.629282 
L 334.078912 111.791595 
M 333.56926 111.16297 
L 333.625069 111.272883 
L 333.732084 110.969986 
L 334.027378 110.979756 
L 334.12698 110.795562 
L 334.554051 110.553416 
L 334.306038 110.629802 
L 334.364637 109.845661 
L 334.646508 109.826036 
L 334.339668 110.085908 
L 334.89847 111.181274 
L 334.680729 111.352011 
L 334.65786 111.252241 
L 334.408161 110.97338 
L 334.695513 111.580852 
L 334.571476 111.294907 
L 334.283257 111.364534 
L 333.892248 111.300226 
L 334.310781 111.286476 
L 334.069115 111.772155 
L 333.077234 111.151995 
L 333.509421 111.214039 
L 333.092311 111.636593 
L 333.112826 111.84029 
L 332.507718 112.63818 
L 332.642742 112.265068 
L 333.71304 112.613202 
L 333.400444 112.223755 
M 333.237501 111.815591 
L 333.578277 111.847498 
L 333.673416 112.009675 
L 334.088955 111.30678 
L 333.75409 110.64618 
M 333.90128 111.240654 
L 333.804877 111.109944 
L 334.011931 111.511856 
L 334.086289 111.187464 
L 333.569099 112.294701 
L 334.192955 112.424488 
L 334.583916 112.332701 
L 333.983576 112.044421 
L 333.994692 111.653607 
L 334.635495 111.385807 
L 335.135819 111.861876 
L 335.061235 111.729384 
L 334.759368 112.269581 
L 335.377456 112.367382 
L 335.897468 112.716493 
L 334.985041 113.024707 
L 334.36988 112.254262 
L 335.038674 112.26752 
L 334.535071 112.870078 
L 334.6899 113.241616 
L 335.2545 113.032308 
L 334.873676 112.818014 
L 333.630361 112.99651 
L 334.038554 112.618019 
L 333.969137 112.333701 
L 334.24393 112.833221 
L 334.269857 112.573357 
L 334.64574 112.518804 
L 334.913339 112.311362 
L 333.95094 112.345255 
L 333.876538 112.141242 
L 334.452205 112.363752 
L 334.30378 112.418259 
L 333.917692 112.861714 
L 333.834379 112.302095 
L 333.834379 112.302095 
" clip-path="url(#p9e6f5bf74c)" style="fill: none; stroke: #2ca02c; stroke-linecap: round"/>
   </g>
   <g id="line2d_19">
    <path d="M 335.072864 230.445019 
L 335.667244 230.361952 
L 335.488733 230.337625 
L 334.607557 230.084511 
L 334.674589 230.152214 
L 334.904886 230.551032 
M 334.999286 230.838956 
L 334.879406 231.12185 
L 335.071989 230.857119 
L 335.271171 230.730881 
L 335.668713 230.72672 
L 335.586453 230.27394 
L 335.310829 230.120609 
L 335.431694 230.59236 
L 335.176885 229.919745 
L 335.390427 230.000917 
L 335.69509 231.205808 
L 335.49381 231.581551 
L 335.357377 231.087444 
L 334.94829 230.70046 
L 334.979348 230.811645 
L 334.917796 230.827084 
L 335.008554 230.316336 
L 334.890034 231.1104 
L 335.612454 231.28287 
L 334.866615 231.153761 
L 335.207026 230.830446 
L 335.786325 231.05242 
L 336.010306 231.5399 
L 335.292558 231.1623 
L 335.299969 231.169271 
L 335.728702 231.107174 
L 335.337781 231.343388 
L 335.516899 231.020555 
L 335.198966 230.943701 
L 335.523863 230.884892 
L 335.516531 231.010255 
L 335.259086 231.222946 
L 334.98757 231.038184 
L 334.852215 231.421575 
L 335.448855 231.495248 
L 335.407722 231.540576 
L 335.11538 232.030976 
L 335.235742 231.816484 
L 335.875281 231.50171 
L 335.762124 231.439361 
L 335.570203 231.072039 
L 335.258145 230.99428 
L 335.187435 231.09319 
L 335.506989 230.974982 
L 335.278009 230.840505 
L 334.727363 231.455556 
L 334.974006 231.007585 
L 334.709585 231.063032 
L 335.382666 230.94731 
L 335.300761 231.2015 
L 335.774133 230.883459 
L 336.398997 231.299482 
L 336.34388 230.730902 
L 336.116798 230.849745 
L 335.486631 231.551896 
L 335.684087 231.282856 
L 335.940329 231.500027 
L 335.826156 231.734555 
L 335.836578 231.242941 
L 335.089812 231.370668 
M 335.482783 231.363417 
L 335.75194 231.596084 
L 335.274777 231.178453 
L 335.488239 230.965923 
L 335.228117 231.437608 
L 334.778571 231.942655 
L 335.47145 232.126475 
L 335.661022 231.410303 
L 335.518167 231.519559 
L 335.331649 231.825624 
L 335.475441 231.431246 
L 335.154293 231.52893 
L 334.855382 231.409883 
L 334.868613 231.998525 
L 335.317259 232.202661 
L 334.983796 231.490861 
L 335.429782 231.927213 
L 335.789739 231.697575 
L 335.502355 231.555141 
L 335.271496 232.053468 
L 334.966161 231.454486 
L 335.471811 231.769471 
M 335.536792 232.071325 
L 335.011893 231.713137 
L 335.149899 231.966912 
L 335.361893 231.934442 
L 335.168228 232.304012 
L 335.273378 232.29867 
L 335.922792 232.422195 
L 335.322234 231.891125 
L 335.677003 231.775033 
L 335.423078 231.636055 
L 335.341569 231.796545 
L 335.459777 232.708121 
L 335.487818 232.476119 
L 335.686276 232.562345 
L 335.524155 232.157339 
L 335.571709 231.830902 
L 335.36838 232.147464 
L 335.292529 232.085792 
L 335.571789 233.232195 
L 335.50807 232.766875 
L 335.247621 232.82492 
L 335.540409 232.787736 
L 335.5426 232.382244 
L 335.807093 232.809427 
L 335.552534 232.88866 
L 335.878751 231.895557 
L 335.390605 232.879926 
L 335.570646 232.255574 
L 335.599668 232.607392 
L 335.57317 231.949817 
L 335.179018 232.048428 
L 335.503724 232.013707 
L 335.054687 231.960297 
L 335.181936 232.473693 
M 336.142001 232.4057 
L 335.7984 232.558596 
L 335.827598 232.180727 
L 335.374733 231.380216 
L 335.71362 231.651181 
L 335.507189 231.164654 
L 335.828299 231.267677 
L 335.464976 231.548687 
L 335.509227 230.981935 
L 335.905412 231.466638 
L 335.279165 231.647552 
L 335.634622 231.551838 
L 335.292573 231.322082 
L 335.637628 231.638915 
L 334.976606 231.897781 
L 335.045955 231.577445 
L 334.618443 232.293118 
L 334.166503 232.172196 
L 334.449101 232.090566 
L 334.939229 232.160714 
L 335.43058 231.950058 
L 335.135121 232.015507 
L 334.927239 231.786178 
L 334.627581 231.804518 
L 334.494785 232.603712 
L 334.977188 232.665727 
L 335.652651 232.970275 
L 335.160956 232.85995 
L 334.618943 232.867378 
L 334.633166 232.991678 
L 335.605158 233.226581 
L 335.33074 232.56532 
L 335.210668 232.907585 
L 335.615812 232.965408 
L 335.427043 233.034519 
L 335.110124 232.562994 
L 335.274188 233.57508 
L 335.401431 233.352436 
L 335.183328 233.594601 
L 334.695726 232.801152 
L 334.748171 233.374883 
L 335.060852 233.749995 
L 335.953212 232.43486 
L 335.524678 232.786439 
L 336.000794 232.892317 
L 335.87203 232.935646 
L 335.968749 233.171004 
L 335.791083 232.935599 
L 335.438825 233.099942 
L 335.151731 233.48944 
L 335.105193 232.929405 
L 335.363559 233.168553 
L 335.155597 233.117551 
L 334.714531 232.961019 
L 335.068639 232.764752 
L 334.907262 232.689646 
L 334.551448 232.707903 
L 334.258492 232.584052 
L 334.842916 232.709265 
L 334.882585 233.226989 
L 334.922538 232.693949 
L 335.017449 233.05956 
L 335.098651 233.018962 
L 335.189456 233.120952 
L 335.019623 232.933039 
L 335.084788 233.759875 
L 334.688739 232.764444 
M 334.993201 232.187512 
L 334.527426 232.514245 
L 335.051387 232.21888 
M 334.630258 231.328749 
L 334.175411 231.684549 
L 334.519134 232.841799 
L 333.96297 232.513366 
L 334.271173 233.41912 
L 334.857554 232.754631 
L 334.618929 232.648246 
L 334.639075 232.688576 
L 334.345699 232.847511 
L 334.061097 233.146022 
L 334.114104 232.891389 
L 333.599186 233.183239 
L 333.623679 233.203616 
L 333.912534 232.467087 
L 334.346819 232.79518 
L 333.325338 233.007183 
L 333.599101 233.301103 
L 333.426562 232.848689 
L 333.123504 233.48912 
L 332.608704 233.19957 
L 333.057775 233.780144 
L 334.075434 234.060618 
L 334.124148 233.628368 
L 333.386545 233.561852 
M 333.033779 233.51124 
L 333.552967 233.493068 
L 333.452124 233.432935 
L 333.486538 233.675076 
L 333.136275 233.288642 
L 332.882814 233.402463 
L 333.164456 233.208441 
L 333.481521 233.821876 
L 333.347572 233.1189 
L 333.277236 233.686786 
L 334.023267 234.099363 
L 333.796661 233.604087 
L 333.268374 233.513859 
L 333.551807 233.778494 
L 333.389353 233.745893 
L 333.348147 233.414733 
L 333.565472 233.205466 
L 333.391404 233.244065 
L 333.458061 233.094166 
L 333.136688 232.814338 
L 333.432178 233.565092 
L 333.684884 233.392621 
L 333.242791 233.832169 
L 333.090386 233.086404 
L 333.53615 232.493541 
L 333.572834 232.70051 
L 333.78214 232.498196 
L 333.38659 232.570711 
L 333.290939 232.366375 
L 333.418031 232.239163 
L 333.532871 232.390185 
L 333.290439 232.438883 
L 333.392551 233.383363 
L 333.401988 233.009792 
L 333.198181 233.126049 
L 333.492074 233.479962 
L 333.458303 232.584382 
L 333.128559 232.495087 
L 333.46134 232.502873 
L 333.058962 232.747692 
L 332.613208 232.214438 
L 332.847418 231.806171 
L 332.741342 232.292836 
L 332.262797 232.541453 
L 332.152931 232.316578 
L 331.099283 232.101348 
L 331.365152 232.754739 
L 331.231558 232.959554 
L 331.384705 233.032345 
L 331.936333 232.988517 
L 331.593906 233.202791 
L 331.987582 233.087629 
L 332.466421 233.486053 
L 331.987186 233.201027 
L 331.896391 233.227127 
L 331.79919 232.958741 
L 332.366027 233.281678 
L 332.578896 232.759726 
L 332.122325 232.735883 
L 332.203221 233.063661 
L 332.139174 232.802755 
L 332.60452 232.975909 
M 332.473107 233.071625 
L 332.501474 233.149186 
L 331.969982 233.010357 
L 332.070653 233.238495 
L 331.857004 233.5292 
L 331.846377 233.772733 
L 331.525165 233.741059 
L 331.756937 233.36377 
L 331.737508 233.116913 
L 331.428586 232.910488 
L 331.201404 233.045295 
L 331.380754 233.26804 
L 331.079708 233.44544 
L 331.247317 233.572298 
L 331.620236 232.964793 
L 331.898329 233.751243 
L 331.347787 232.798578 
L 331.560097 232.479627 
L 332.044654 232.879416 
L 331.529135 233.179438 
L 331.319755 233.036368 
L 331.258174 232.82211 
L 331.15496 233.130991 
L 331.782268 233.25695 
L 331.901114 233.486689 
L 331.182021 233.002089 
L 331.274675 232.82879 
L 331.707665 232.41254 
L 332.352083 233.32468 
L 332.062463 232.817598 
L 332.178513 232.686397 
L 332.243499 232.756014 
L 331.849042 232.714732 
L 332.067486 233.051688 
L 331.700777 232.565661 
L 331.994431 232.920923 
L 331.617717 233.110549 
M 331.731711 233.879501 
L 331.726746 233.338519 
L 331.104346 233.338525 
L 331.413643 232.978572 
L 331.033306 232.988931 
L 331.298739 233.182154 
L 331.378474 232.745549 
M 330.538842 233.473631 
" clip-path="url(#p9e6f5bf74c)" style="fill: none; stroke: #d62728; stroke-linecap: round"/>
   </g>
   <g id="line2d_20">
    <path d="M 332.240178 380.967244 
L 332.116446 381.372355 
L 331.766462 381.601896 
L 332.152414 381.542117 
L 331.824565 381.414734 
L 331.697851 381.044612 
L 332.247343 381.095424 
L 332.100338 381.425245 
L 332.388876 381.398799 
L 332.022644 380.906438 
L 332.260078 381.003141 
L 332.436079 381.293847 
L 332.537321 381.062257 
L 332.118209 380.817839 
L 331.932332 381.225305 
L 332.264292 381.050977 
L 332.321807 381.184597 
L 331.975676 381.179389 
L 332.532167 381.471986 
L 332.214252 381.202807 
L 331.766879 380.750313 
L 332.046023 380.577612 
L 331.913744 380.899946 
L 332.266081 381.0143 
L 332.412006 380.829561 
L 332.221813 380.703575 
L 332.884813 380.414272 
L 331.974393 380.831107 
L 332.575863 381.013126 
L 332.340014 381.186067 
L 332.382538 380.977924 
L 332.587628 381.117175 
L 332.516327 381.016358 
L 332.069247 381.035031 
L 332.144856 381.235742 
L 332.346513 381.18725 
L 331.91734 381.146865 
L 332.604094 381.799835 
L 331.982306 381.808636 
L 331.740465 381.585542 
L 331.483102 381.780485 
L 331.536902 381.908987 
L 331.869342 382.079346 
L 331.513812 381.727578 
L 331.562169 381.977898 
L 331.891499 381.437447 
L 331.808112 381.083182 
L 331.949314 380.916575 
L 331.765214 381.02491 
L 331.7494 380.910057 
L 331.681163 380.926127 
L 331.530421 381.100116 
L 331.204662 380.653881 
L 330.917248 380.979456 
L 330.527272 381.17267 
L 330.515204 381.121154 
L 330.760497 381.198804 
L 331.150541 381.623104 
L 330.748962 381.689134 
L 330.675979 381.122863 
L 330.772016 380.938247 
L 330.623928 380.600514 
L 331.064646 380.767074 
L 331.413736 380.512173 
L 331.235743 380.285616 
L 331.239199 380.528285 
L 331.301284 380.657353 
L 331.42226 380.518416 
L 331.122468 380.522291 
L 331.351163 380.527808 
L 331.355041 380.343299 
L 331.286992 380.430522 
L 331.060394 380.663759 
L 331.284702 380.60528 
L 331.024446 380.829673 
L 330.823663 380.696344 
L 330.667371 380.187143 
L 331.058095 380.794854 
L 331.442544 380.735449 
L 332.442245 381.541376 
L 332.307313 381.753108 
L 331.894831 381.615923 
L 331.686921 381.738076 
L 331.076943 381.346478 
L 331.186011 381.528774 
L 331.279877 381.896954 
L 330.884542 381.600627 
L 330.732141 381.226737 
L 330.40857 381.221684 
L 330.354299 381.662618 
L 331.007907 381.648754 
L 330.971798 381.676266 
L 330.930139 381.898296 
L 329.940069 381.806865 
L 330.19735 381.436292 
L 330.058437 381.759019 
L 330.193234 382.022538 
L 330.253674 381.893097 
L 329.96666 382.111287 
L 330.175359 382.212763 
L 329.908423 381.67343 
L 330.1296 381.726613 
L 329.730606 381.960139 
L 329.471438 382.305854 
L 329.657143 382.390264 
L 329.864195 382.795219 
L 330.110699 382.914844 
L 330.184125 382.713391 
L 329.764654 382.896691 
L 330.506003 382.921299 
L 330.381243 383.003583 
L 330.342738 383.140496 
L 330.837284 383.537485 
L 330.584663 383.261396 
L 330.910357 383.210196 
L 330.970131 383.442875 
L 330.846836 383.77133 
L 331.158647 384.132908 
L 331.380237 384.007652 
L 330.308403 383.648531 
L 330.577337 383.689953 
L 330.549837 383.996187 
L 330.548617 383.867644 
L 330.150332 383.977473 
L 330.716097 383.797105 
L 330.494185 384.051371 
L 329.860383 383.715295 
L 330.205503 383.378865 
L 330.429635 384.070275 
L 330.570051 383.774848 
L 330.456731 383.966948 
L 330.577141 384.148679 
L 330.523939 384.678185 
L 330.559196 384.425206 
L 330.660561 384.706452 
L 330.188048 384.893545 
L 330.26205 384.241248 
L 330.755668 384.375233 
L 330.234767 383.839598 
L 330.234614 383.906455 
L 329.941892 384.073608 
L 329.813512 383.889021 
L 329.666579 384.171683 
L 329.823586 383.700822 
L 329.733129 383.25945 
L 330.168855 382.878897 
L 330.529837 383.372829 
L 330.311043 383.49211 
L 330.698622 383.603655 
L 330.73555 383.257548 
L 331.219131 382.972209 
L 330.51107 383.095539 
L 330.381361 383.406356 
L 330.615874 383.50434 
L 330.570407 383.439733 
L 330.348426 383.258541 
L 330.493095 383.807004 
L 330.211607 383.77457 
L 330.281833 383.902137 
L 330.239408 383.558691 
L 330.381658 383.355987 
L 330.823277 382.94166 
L 330.284115 382.900702 
L 330.677489 383.059002 
L 331.453339 383.739585 
L 331.057956 383.416065 
L 330.941 383.601505 
L 331.042174 383.623267 
L 330.76315 383.657892 
L 330.706054 383.321952 
L 330.475055 383.544939 
L 330.671239 383.393465 
L 330.855383 383.566306 
L 330.948821 383.418647 
L 331.0658 383.597059 
L 331.153723 384.06822 
L 331.000902 383.587611 
L 330.559639 383.493245 
L 331.010653 382.95876 
L 330.577942 382.993718 
L 330.160534 382.710759 
L 330.390031 382.928327 
L 330.055741 382.913306 
L 330.337166 382.990114 
L 331.094846 383.345122 
L 330.912453 382.943845 
L 330.606992 382.828998 
L 331.206453 382.724929 
L 330.885454 382.407281 
L 330.471418 382.596056 
L 330.561744 382.68097 
L 331.10097 383.140703 
L 330.987684 383.053523 
L 331.259696 382.755545 
L 330.976741 383.522031 
L 331.388931 383.209095 
L 331.228307 382.97515 
L 330.756299 383.503871 
L 330.847412 383.270879 
L 331.152589 383.241028 
L 330.773088 383.873823 
L 330.465275 383.751804 
L 330.285238 383.805623 
L 329.684842 383.521451 
L 329.954153 383.334931 
L 329.880125 383.199349 
L 329.583689 383.733298 
L 330.099489 383.751797 
L 330.497343 383.328526 
L 330.561841 383.906685 
L 331.036865 383.5919 
L 331.29104 383.676653 
L 331.672514 383.178721 
L 331.566363 383.1111 
L 331.110162 383.744847 
L 330.417403 383.806165 
L 330.944301 383.708002 
L 330.272229 383.389876 
L 330.033031 383.413994 
L 329.882279 383.988848 
L 329.675463 384.084025 
L 330.118112 383.843438 
L 329.950523 383.503354 
L 330.08941 383.81867 
L 330.387697 384.112086 
L 330.493101 383.78773 
L 330.414832 383.995474 
L 330.749294 384.006064 
L 330.214172 384.186233 
L 330.333738 384.189142 
L 330.432866 383.501526 
L 331.067128 383.606954 
L 330.703624 383.912419 
L 330.953392 383.986457 
L 330.83778 383.664004 
L 330.248031 383.388638 
L 330.328951 383.9926 
L 329.87898 384.136365 
L 330.531596 383.215928 
L 330.223224 383.689781 
L 329.97053 383.814473 
L 330.172222 383.782916 
L 330.311899 383.904256 
L 329.812024 384.301128 
L 330.062137 384.257766 
L 330.014953 384.261486 
L 330.399383 383.656328 
L 330.347302 383.954389 
L 330.760964 383.873376 
L 330.793382 383.698662 
L 330.148344 384.551056 
L 330.12654 383.797049 
L 330.483302 384.151515 
L 330.935839 384.189948 
L 331.039258 384.026054 
L 330.796532 384.349556 
L 330.797489 384.213867 
L 330.991771 383.631193 
L 330.501809 383.854308 
L 331.09387 384.345497 
L 330.621565 383.751145 
L 330.544165 384.548509 
L 330.401922 384.599415 
L 330.830085 384.970739 
L 330.684022 385.223373 
L 330.287717 385.400617 
L 330.104193 385.159442 
L 330.142575 385.303496 
L 330.825462 384.670553 
L 330.160112 384.567941 
L 330.200749 385.213706 
L 329.983137 385.064684 
L 330.036031 384.792114 
L 330.234507 384.937077 
L 330.046187 385.365542 
L 330.696439 385.028003 
L 330.417445 385.202974 
L 330.273809 384.74022 
L 329.851465 385.027671 
L 330.103701 384.62216 
L 329.925996 384.2538 
L 329.93615 384.623663 
L 329.82841 384.903652 
L 329.875427 385.137629 
L 329.244122 384.743999 
L 329.327675 384.622145 
L 328.974734 385.26735 
L 329.092016 385.071894 
L 329.297761 385.307645 
L 329.300607 385.512171 
L 329.182692 385.465561 
L 329.391164 385.769388 
L 329.54543 384.981359 
L 329.418044 384.380014 
L 329.580314 384.054615 
L 329.269319 384.584418 
L 329.171045 384.356337 
L 328.827638 384.089944 
L 328.434679 384.6427 
L 328.558272 384.777365 
L 328.404479 384.298106 
L 328.148833 384.170375 
L 328.142232 383.846832 
L 328.367189 384.142483 
L 328.882319 384.102893 
L 328.907505 383.661233 
L 329.078788 383.795022 
L 329.230681 383.814852 
L 328.718416 383.128752 
L 328.880805 382.997472 
L 328.474452 383.506247 
L 328.646804 383.467921 
L 328.776986 383.549059 
L 328.677201 383.525071 
L 329.563842 383.392673 
L 329.769378 383.687079 
L 329.455112 383.189779 
L 329.10954 383.22269 
L 328.668558 383.523083 
L 328.486126 383.46896 
L 328.503564 383.576912 
L 328.377979 383.577906 
L 328.430644 383.517722 
L 329.070947 383.69826 
L 328.946167 383.499769 
L 328.601413 383.43903 
L 328.355891 383.610691 
L 328.561842 383.528653 
L 328.734412 383.550896 
L 328.734412 383.550896 
" clip-path="url(#p9e6f5bf74c)" style="fill: none; stroke: #9467bd; stroke-linecap: round"/>
   </g>
   <g id="line2d_21">
    <path d="M 334.594258 264.196375 
L 334.87468 264.164047 
L 333.923563 264.556325 
L 334.197137 264.218828 
L 333.622606 264.238165 
L 333.74188 264.407437 
L 334.171891 264.398917 
L 334.180097 264.178352 
L 334.091388 264.22236 
L 334.530686 263.910549 
L 334.811111 263.37061 
L 334.552571 263.461556 
L 334.465522 264.008585 
L 334.195245 264.11433 
L 334.704417 263.655666 
L 334.679518 263.628581 
L 334.754319 264.101197 
L 334.651168 263.817677 
L 334.804394 263.62952 
L 334.63574 263.473664 
L 335.019262 263.564014 
L 334.574647 263.452215 
L 334.551999 263.320623 
L 334.790285 263.375602 
L 334.336997 263.623859 
L 334.431537 263.578137 
L 334.131677 264.150726 
L 334.480839 264.111807 
L 334.728089 264.235178 
L 334.054766 264.12786 
L 334.200289 264.161452 
L 333.628552 264.383069 
L 334.091512 264.493911 
L 334.29875 264.379194 
L 333.701222 263.968994 
L 333.783043 264.333451 
L 333.964123 264.226264 
M 334.292985 263.942759 
L 333.709601 264.121693 
L 333.964616 264.189025 
L 333.558231 264.709913 
L 333.387549 264.726177 
L 333.278914 264.877524 
L 333.689009 264.841262 
L 333.523295 264.799792 
L 333.443083 265.164895 
L 333.49759 265.065487 
L 333.241113 264.925105 
L 333.172138 264.666297 
L 333.655534 264.629916 
L 333.469826 264.873624 
L 333.735983 264.811211 
L 333.41863 265.052317 
L 333.111509 265.068688 
L 333.222564 265.088555 
L 333.231962 264.794096 
L 333.525181 264.386449 
L 333.341746 264.53691 
L 332.951212 264.680832 
L 333.216733 264.693935 
L 333.163587 264.555385 
L 333.428924 264.589173 
L 333.763646 264.336104 
L 333.776352 264.503649 
L 333.796854 264.451376 
L 333.34227 264.643846 
L 333.3226 264.960164 
L 333.281837 264.796915 
L 333.471152 264.948907 
L 333.417458 264.812784 
L 333.451335 265.197876 
L 333.165266 265.027922 
L 333.291657 264.923178 
L 333.266556 265.11266 
L 333.091756 265.155874 
L 333.245532 265.377157 
L 333.38553 265.118828 
L 333.434524 264.542146 
L 333.623146 264.509954 
L 332.729095 264.886391 
L 332.816197 264.506807 
L 332.927125 264.578899 
L 332.78693 264.292785 
L 333.201585 264.309657 
L 333.0376 264.312318 
L 333.190102 264.100493 
L 333.2247 264.26135 
M 332.946479 264.511115 
L 333.396252 264.376754 
L 333.349327 264.424865 
L 333.24827 264.495436 
L 333.689176 264.194255 
L 333.819305 264.193501 
L 333.809575 264.00138 
L 333.974501 264.010668 
L 333.549378 264.27808 
L 333.164479 264.188864 
L 333.294239 264.335574 
L 333.355129 264.244598 
L 333.357469 264.031368 
L 333.293763 264.235817 
L 333.668277 264.113246 
L 333.56694 263.928501 
L 333.45126 264.295649 
L 333.784255 264.229451 
L 333.552064 264.014367 
L 333.230512 264.407409 
L 333.604892 264.221658 
L 333.523349 264.320263 
L 333.418281 264.08632 
L 333.816056 264.157067 
L 333.293692 264.563908 
L 333.262117 264.131597 
L 332.886283 264.826895 
L 333.34826 264.772893 
L 333.430231 264.425679 
L 332.833934 264.657164 
L 333.719749 264.273726 
L 333.436701 264.444746 
L 333.569361 264.585704 
L 333.325427 264.220595 
L 333.404862 264.262881 
L 333.120744 264.362291 
L 333.424189 264.514755 
L 333.38366 264.447198 
M 333.082013 264.339707 
L 333.120864 264.288925 
L 333.418991 264.335203 
L 333.646231 263.98576 
L 333.517859 264.110624 
L 333.196145 264.390371 
L 332.848997 264.499144 
L 332.857597 264.305525 
L 333.016293 264.50146 
L 332.753148 264.682119 
L 333.371838 264.628235 
L 333.000681 264.673039 
L 333.26912 264.468321 
L 332.960481 264.446453 
L 332.888965 264.626139 
L 333.38124 264.677625 
L 333.074965 264.735286 
L 333.319706 264.552814 
L 333.247095 264.487424 
L 333.309358 264.778136 
L 332.839456 265.229308 
L 333.672847 264.956021 
L 333.577313 264.760695 
L 333.726731 264.864107 
L 333.737373 264.725861 
L 333.046038 264.805234 
L 332.837492 265.278082 
L 332.480857 265.185641 
L 332.827583 264.903672 
L 333.371492 264.859665 
L 333.095666 265.288972 
L 333.447361 265.074203 
M 333.21912 264.711451 
L 333.340367 265.118571 
L 333.273149 265.300082 
L 333.271078 264.901945 
L 332.914048 265.132188 
L 332.96795 264.795063 
L 333.477863 264.667071 
L 332.632417 264.900324 
L 332.475438 265.25983 
M 332.23142 264.758073 
L 332.53229 264.814163 
L 332.989745 265.099526 
L 332.856828 264.852837 
L 332.627945 264.917393 
L 333.186038 264.33956 
M 332.843647 264.03698 
L 332.811613 264.025287 
L 332.605141 264.08385 
L 332.628346 264.756206 
L 333.033958 264.588592 
L 332.881746 264.443412 
M 333.272531 264.327309 
L 332.777614 264.168218 
L 332.891601 264.300477 
M 332.223293 264.753292 
L 332.762248 264.532432 
M 332.672364 264.826692 
L 332.362486 264.89587 
L 332.742173 264.865046 
L 332.410548 264.741945 
L 332.518857 264.804534 
L 332.657775 264.654481 
L 332.392199 264.991192 
L 332.429107 264.635455 
L 332.375636 265.037814 
L 332.688551 264.954267 
L 332.3411 264.945941 
L 332.366254 265.022019 
L 332.117945 264.919385 
L 332.441126 264.75742 
L 332.065369 264.892325 
L 332.045408 264.774473 
L 332.233237 264.977007 
L 332.51758 264.675448 
L 332.322228 264.804329 
M 332.646185 264.644374 
L 332.556557 264.620188 
L 332.379764 264.705797 
L 332.646904 264.853783 
L 332.740223 264.876727 
L 332.704238 264.712809 
L 332.835405 264.183992 
L 332.340881 264.642601 
L 332.937437 264.584858 
L 332.617695 264.859507 
L 332.343795 264.37846 
L 332.649549 264.26012 
L 332.215371 264.474695 
L 332.193614 264.223596 
L 332.18117 264.471145 
L 331.867295 264.839712 
M 332.018393 264.777831 
L 331.625973 264.515301 
L 332.382279 264.510905 
L 331.716267 264.456601 
M 331.920625 264.161032 
L 331.29614 264.319355 
M 331.796867 264.475142 
L 331.55288 264.581897 
L 331.600001 264.457945 
M 331.827404 263.946454 
L 331.359486 264.135868 
M 331.528566 263.859455 
L 331.601908 264.175377 
L 331.334129 264.000777 
L 331.670448 264.120723 
L 332.162306 263.987042 
L 331.680015 264.20261 
L 331.894412 264.167985 
L 331.940096 263.843747 
M 331.964077 263.936707 
L 331.224904 263.921438 
L 331.48623 264.179173 
L 331.250435 264.04739 
L 331.425783 264.584533 
L 331.8958 264.369384 
L 331.433436 264.732326 
L 331.0153 264.376735 
L 331.228133 263.794156 
L 331.244841 263.968057 
L 331.46533 263.786162 
L 331.751067 263.853693 
L 331.514109 263.778362 
L 331.304351 264.384719 
L 331.436134 264.645209 
L 331.493621 264.480421 
L 331.679478 264.115769 
L 331.568297 264.244998 
L 331.808902 264.292666 
L 331.628005 264.757597 
L 331.594332 264.639561 
L 332.006479 264.413761 
L 331.660232 265.189307 
L 331.829198 264.626801 
L 331.510286 264.46789 
L 331.076206 264.629791 
L 331.312106 264.774263 
L 331.229321 264.770185 
L 331.168451 264.842977 
L 331.120764 264.556029 
L 330.281395 264.628659 
L 330.995124 264.521286 
L 331.074486 264.421414 
L 330.868296 264.437916 
L 330.73107 264.877385 
L 331.125992 264.254066 
L 330.925896 264.738292 
L 330.813725 264.50723 
L 330.946074 264.652939 
L 331.391008 264.85482 
L 331.557574 264.307685 
L 331.691086 264.447897 
L 331.635427 264.265901 
L 332.013354 264.42648 
L 331.676991 264.411968 
L 331.671163 264.702845 
L 331.607641 264.698563 
L 331.230679 265.054015 
L 331.612864 264.683343 
L 331.292107 264.65104 
L 330.874989 264.804192 
L 331.664113 264.620958 
L 331.421291 264.495111 
L 331.179637 264.709231 
L 331.179637 264.709231 
" clip-path="url(#p9e6f5bf74c)" style="fill: none; stroke: #8c564b; stroke-linecap: round"/>
   </g>
   <g id="line2d_22">
    <path d="M 213.94469 79.36745 
L 214.277949 78.899401 
L 213.947376 78.730809 
L 215.151285 79.397919 
L 214.791978 80.049776 
L 214.973117 80.179338 
L 214.547002 79.993853 
L 214.904071 80.497289 
L 214.193328 80.969759 
L 213.92664 80.695494 
L 213.267222 80.498026 
L 213.434632 80.690921 
L 213.251065 80.04614 
M 213.992528 79.118865 
L 214.441858 79.387174 
L 214.07541 79.529249 
L 214.637748 80.422002 
M 213.509079 79.66019 
L 213.971475 79.3888 
L 214.201019 78.676538 
L 213.690704 79.408115 
L 213.849955 79.381927 
L 212.811791 78.876202 
L 212.219668 79.558948 
L 212.85754 80.053156 
L 212.807701 79.970276 
L 212.514937 79.521425 
L 213.376486 79.65297 
L 214.060255 80.020022 
L 214.199212 80.531067 
M 214.91065 79.767295 
L 214.285793 79.145034 
L 214.708337 78.817529 
L 214.235219 79.532788 
L 213.41896 79.379722 
L 214.175791 79.64871 
L 215.047293 79.479159 
L 214.551724 79.539243 
L 214.541996 79.294129 
L 214.332917 79.318898 
L 214.455392 79.542451 
L 214.295144 79.972669 
L 213.711401 79.379129 
L 214.233925 80.327765 
L 215.209924 80.33406 
L 214.018471 80.446883 
L 213.819761 80.23374 
L 214.552098 79.726911 
L 214.17201 80.077897 
L 214.124208 79.669423 
L 214.215934 79.473453 
L 214.271482 79.722101 
L 214.054358 79.210522 
L 214.998363 79.092593 
L 214.42283 79.586104 
L 215.28898 79.404791 
L 214.999483 79.174131 
L 214.603847 79.291341 
L 215.207234 79.159368 
L 215.238066 80.107775 
L 215.042037 80.053819 
L 215.632693 79.550338 
L 215.754196 79.788685 
L 215.654295 79.796882 
L 214.163702 78.847811 
L 214.267823 78.336964 
L 214.423962 78.89068 
L 214.671314 78.12 
L 213.947483 78.504939 
M 212.64653 78.405883 
L 213.760047 78.462413 
L 213.334867 78.673988 
L 212.388052 79.370256 
L 213.822136 79.420701 
L 213.267854 79.427357 
L 213.65947 79.071396 
L 214.745291 79.781268 
L 215.540696 79.137376 
L 214.783309 79.756667 
L 214.716185 80.466392 
L 214.17508 79.269746 
L 213.408789 79.596969 
L 213.759495 79.567945 
L 213.112117 79.572631 
L 213.117759 79.79757 
L 212.901864 79.510627 
L 212.950643 79.325737 
L 212.430616 78.767918 
L 212.535533 79.054184 
L 213.004233 79.777434 
L 213.553706 79.733948 
L 214.231958 80.686448 
L 214.083935 80.663136 
L 214.334906 81.348223 
L 213.531857 80.466802 
L 213.567857 80.288665 
L 213.986797 79.767266 
L 214.935566 79.727654 
L 214.749711 79.336529 
L 214.862699 79.266424 
L 214.612527 80.294099 
L 213.388098 80.078444 
M 212.825028 79.967783 
L 214.37973 80.554422 
L 213.29754 81.222669 
L 213.099465 81.94254 
L 213.499927 81.909357 
L 213.607737 80.883035 
L 213.793131 81.439059 
L 214.955264 81.456226 
L 214.752503 81.479831 
L 215.105231 81.867321 
L 214.1865 81.982817 
L 214.363403 83.159318 
L 213.255691 82.775654 
L 213.678261 82.352291 
L 214.615773 82.012453 
L 214.055589 82.470323 
L 213.732615 82.192088 
L 213.7613 82.263876 
L 214.884762 81.987961 
L 215.216045 82.791392 
L 213.588216 83.21733 
L 214.218729 83.640291 
L 214.352974 83.310153 
L 215.108059 83.734271 
L 215.428312 84.305653 
L 214.589558 85.109686 
L 214.834871 84.795285 
M 215.878083 84.198857 
L 215.657892 84.490397 
L 214.923735 86.159992 
L 215.505293 86.572078 
L 214.104721 86.383395 
L 214.58064 86.31364 
L 213.739673 85.765876 
L 214.195076 85.793163 
L 213.566789 86.079511 
L 213.614332 85.812162 
L 213.285684 86.085856 
L 212.675666 85.791328 
L 212.607273 86.208913 
L 212.750043 86.292481 
L 213.460855 85.934806 
L 213.388786 86.080629 
L 212.930371 85.281976 
L 213.95047 86.346064 
L 213.463828 86.157386 
L 213.878812 85.462418 
L 214.803762 85.379017 
L 214.657682 85.743994 
L 214.987288 85.824221 
L 213.804298 86.107493 
L 214.232622 86.370356 
L 213.621219 86.050818 
L 214.146911 86.197507 
L 214.027817 86.701334 
L 214.750818 86.334701 
L 215.70525 86.731693 
L 215.350369 86.14536 
L 215.018082 85.178394 
L 214.347856 84.54858 
L 214.011626 85.370189 
L 214.842012 86.172633 
L 215.25052 85.289838 
L 215.129662 84.608414 
L 214.419279 85.079696 
L 214.142074 85.602426 
L 213.343611 85.668515 
L 213.522559 86.349517 
L 213.361218 86.578471 
L 213.736406 86.667314 
L 213.731555 86.835707 
L 213.962909 86.791938 
L 214.165628 86.933134 
L 214.066652 86.50757 
L 214.314577 86.508288 
L 214.428656 86.035689 
L 214.701115 86.322335 
L 214.751557 86.1388 
M 215.575124 86.869063 
L 215.580169 86.189868 
L 215.096892 86.46416 
L 214.327345 86.214571 
L 214.152908 86.701652 
L 214.454649 86.426584 
L 214.503883 85.985235 
L 214.075959 85.943566 
L 214.177024 86.42969 
L 214.29294 86.391781 
L 214.581984 85.431536 
L 214.049926 84.804317 
L 213.098343 84.587177 
L 213.978486 85.340702 
L 214.242164 85.300339 
L 214.324132 85.660031 
L 214.726664 85.352371 
L 214.707144 85.397729 
L 214.515944 85.034735 
L 213.808724 85.186064 
L 214.388125 85.456743 
L 213.029612 84.830164 
L 212.664554 85.016633 
L 213.227551 85.86682 
L 213.510536 85.97154 
L 212.871997 86.19288 
L 212.862641 86.47781 
L 214.022683 86.322805 
L 213.788057 86.998196 
L 214.133791 87.550758 
L 215.141436 87.382841 
L 214.152608 87.344958 
L 215.037258 87.879521 
L 215.181124 86.688898 
L 214.784556 86.136241 
L 214.133795 86.226767 
L 214.664397 86.510896 
L 215.454092 85.909903 
L 215.267361 86.110749 
L 215.047147 86.054624 
L 215.587096 85.543745 
L 215.20786 86.002632 
L 215.904812 84.609775 
L 215.884024 85.365671 
L 215.362173 85.237088 
L 215.237535 86.542126 
M 216.033291 87.089725 
L 215.439384 87.20329 
M 215.309948 86.569729 
L 215.725106 86.207307 
M 214.62147 86.565774 
L 213.941541 87.240131 
L 214.617001 86.289115 
L 215.059102 87.594095 
L 214.947822 86.79732 
L 215.290891 87.157483 
L 215.226041 87.945106 
L 216.001611 88.620653 
L 215.435605 88.706911 
M 215.617354 88.268015 
L 216.265711 88.334722 
L 216.273527 87.572883 
L 215.276198 87.707256 
L 215.297775 88.040325 
L 215.700249 88.406175 
L 215.864363 88.112 
L 216.23185 87.806577 
L 216.815247 88.161221 
L 215.943109 88.910091 
L 215.576449 87.624045 
L 215.197818 87.612425 
L 215.610027 87.841455 
L 214.60511 87.794052 
L 214.364434 88.785744 
L 214.018844 88.681099 
L 214.479616 88.753381 
L 214.043615 88.908127 
L 214.361622 87.856012 
L 214.009628 88.478816 
L 213.883025 88.448233 
L 213.78426 89.009232 
L 214.204126 89.443518 
L 213.84823 89.181203 
L 214.514206 89.377908 
L 214.032029 89.1516 
L 214.378202 89.084037 
L 214.08001 89.464212 
L 215.222284 89.08496 
L 214.844679 87.968341 
L 214.319641 88.699888 
L 214.540636 88.52398 
L 214.178623 88.468075 
L 214.19925 88.808788 
L 214.952636 88.8394 
L 213.574306 88.67488 
L 214.042742 89.284098 
L 213.883061 88.905103 
L 213.888308 88.510076 
M 214.123899 87.456232 
L 214.457756 88.291724 
L 214.986688 88.868304 
L 214.943809 89.250521 
L 214.693115 88.829166 
L 215.367338 88.708435 
M 216.203379 88.251129 
L 215.129174 88.197746 
L 214.871407 88.490734 
L 215.13725 89.322809 
L 214.652391 89.235868 
L 214.733887 89.379694 
L 215.399069 88.720031 
M 214.314043 88.300698 
L 214.342014 88.060867 
L 214.38012 88.90408 
L 213.878403 87.958323 
L 213.867343 88.230355 
L 214.766962 88.304595 
L 214.766962 88.304595 
" clip-path="url(#p9e6f5bf74c)" style="fill: none; stroke: #e377c2; stroke-linecap: round"/>
   </g>
   <g id="line2d_23">
    <path d="M 193.614953 179.876805 
L 193.777175 179.760199 
L 193.525845 179.711565 
L 193.106152 180.090337 
L 193.701898 179.823489 
M 193.705944 179.374793 
L 193.241678 179.273046 
L 193.833344 179.400438 
L 193.961363 179.95227 
L 194.345486 180.366433 
L 194.118139 180.041483 
L 194.279252 179.667037 
L 194.180759 179.513488 
M 194.386268 179.26858 
L 193.646514 180.077577 
L 193.698811 179.980501 
L 193.675388 179.743901 
L 193.369256 180.19041 
L 193.177505 180.101619 
L 193.68078 179.657501 
L 193.022915 180.211788 
L 193.867891 179.930808 
L 193.972277 180.057419 
L 193.84712 179.97922 
L 193.589572 180.069762 
L 193.634696 179.334074 
L 193.935032 180.270187 
L 193.572193 180.044833 
L 193.432188 180.41697 
L 193.623873 180.047299 
M 193.470613 180.052335 
L 193.440525 180.352176 
L 193.362639 180.24218 
L 192.821997 179.802658 
L 193.499787 179.851431 
L 193.32791 179.37547 
L 193.318807 179.684889 
M 193.078473 179.624859 
L 193.111465 179.803459 
L 193.41679 179.115031 
L 193.472274 179.765268 
L 193.705751 179.850853 
L 193.780705 180.025201 
L 192.983148 180.356007 
L 193.532969 179.74566 
L 193.649699 179.801177 
L 192.979915 179.78617 
M 193.508291 179.440007 
L 193.690957 179.267767 
L 194.125085 179.475452 
L 194.24755 179.705467 
M 193.93984 179.263678 
L 193.646189 179.77892 
L 193.48193 180.455557 
L 193.693894 179.863233 
L 193.805268 180.016825 
L 193.480708 179.966965 
L 193.344686 180.285064 
L 193.100503 180.194387 
L 193.460965 180.351575 
M 193.861689 179.693332 
L 193.234091 180.142686 
L 193.871553 180.128724 
L 193.355098 180.071193 
L 193.797925 180.006381 
L 193.160402 179.836673 
L 193.611586 180.095744 
L 193.569871 179.953947 
L 193.573464 179.925704 
L 193.457829 179.764921 
L 193.35473 179.299757 
L 193.640752 179.690112 
L 193.100447 179.489522 
M 193.008077 179.547997 
L 192.660095 179.423648 
M 192.90224 179.661396 
L 192.74771 179.56751 
L 192.995267 179.441608 
M 193.098742 180.013506 
L 193.018476 179.841231 
L 192.836955 179.986716 
L 192.868332 179.772898 
L 193.275721 179.976767 
M 193.072776 179.801191 
L 192.72682 180.415165 
L 192.30135 180.04162 
M 192.822747 179.981606 
L 192.437417 179.902798 
L 192.541136 180.263176 
L 192.693357 180.22044 
L 192.655891 180.226386 
L 192.748554 180.318672 
L 192.196027 180.215915 
M 192.807986 180.144768 
L 192.362255 179.585373 
L 192.601949 180.132829 
L 192.490603 180.135513 
M 192.965178 180.028067 
L 192.768806 179.890319 
L 192.837969 179.661129 
L 192.412085 180.482664 
L 192.804579 180.222705 
L 192.258838 179.542638 
L 192.347446 179.58647 
L 192.181971 179.232071 
L 192.704357 179.607866 
L 192.247053 179.467955 
L 192.599666 179.813391 
L 192.686861 179.547237 
M 192.835035 180.096309 
L 193.042634 179.805757 
L 192.626172 180.500213 
L 193.046352 180.389961 
L 193.409624 180.57895 
L 192.403375 179.986802 
L 192.936324 180.190723 
M 192.732508 180.58163 
L 192.694109 179.82249 
L 192.277515 180.516096 
L 192.787305 180.07706 
L 192.129158 180.049344 
M 191.831875 178.695821 
L 192.268934 178.981603 
L 192.073463 179.610855 
L 192.522893 179.658318 
M 192.743913 179.84924 
L 192.683942 179.522579 
L 192.683942 179.522579 
" clip-path="url(#p9e6f5bf74c)" style="fill: none; stroke: #7f7f7f; stroke-linecap: round"/>
   </g>
   <g id="line2d_24">
    <path d="M 149.388976 243.989456 
L 148.548692 244.599544 
L 148.259768 244.159435 
L 148.284284 244.436041 
L 148.498738 244.640905 
L 148.680897 244.585603 
L 148.135345 244.883897 
L 148.204773 244.524442 
L 148.51856 244.896941 
L 148.691004 244.798054 
L 148.343497 244.308571 
L 148.886826 243.557017 
L 147.801855 243.650612 
L 147.523078 243.524524 
L 148.276473 244.109549 
L 148.642279 244.603609 
L 148.306053 244.34669 
L 149.053116 244.448644 
L 148.834692 244.699892 
L 148.352472 244.879246 
L 148.373434 244.731117 
L 148.047757 245.324825 
L 147.842957 244.831811 
L 147.823039 244.218873 
L 147.243989 244.270264 
L 147.878888 243.912309 
L 147.674081 244.097474 
L 148.30236 244.015203 
L 147.245419 243.059614 
L 147.309821 243.060915 
L 148.471972 243.251966 
L 148.142227 243.016104 
L 148.060418 243.451768 
L 147.421344 243.649177 
L 147.902794 243.720671 
L 147.875302 243.920786 
L 147.765109 243.740563 
L 147.78469 242.968193 
L 148.059965 243.131213 
L 147.847152 242.884108 
L 147.374275 243.092727 
L 147.528916 243.192115 
L 147.499127 242.806941 
L 147.248355 242.937557 
L 147.72449 242.790133 
L 146.800262 243.805112 
L 147.247226 243.875681 
L 147.850346 243.811278 
L 148.146976 243.465951 
L 148.378943 243.451877 
L 148.273326 242.723555 
L 147.90713 242.339662 
L 148.407217 242.606627 
L 148.342883 242.442327 
L 148.196139 242.88843 
L 148.293468 242.973355 
L 148.083857 242.223483 
L 147.854671 243.10897 
L 148.043219 243.121542 
L 148.683767 243.344195 
L 148.745563 243.707114 
L 148.596684 244.112546 
L 148.170667 243.983862 
L 147.920403 242.824014 
L 148.034432 242.861574 
L 148.396027 243.292152 
L 148.248497 243.948922 
L 147.978605 243.210984 
L 147.676787 243.178441 
L 148.2319 243.24149 
L 147.417102 243.483258 
L 148.060655 243.229228 
L 148.008679 243.098607 
L 148.15529 243.068684 
L 148.00589 243.224395 
L 148.198243 243.129348 
L 148.315761 243.554022 
L 148.658754 243.474474 
L 148.28698 243.915798 
L 148.333959 243.230754 
L 147.584647 243.675599 
L 147.627222 243.49712 
L 147.906013 243.87421 
L 147.720941 243.531142 
L 147.416441 243.63624 
L 148.46213 243.752128 
L 148.382446 243.540102 
L 148.158008 243.629487 
L 148.52208 244.165755 
L 147.971094 244.261508 
L 148.287519 244.441406 
L 147.696761 244.243678 
L 147.640847 243.795353 
L 147.584679 244.147601 
L 147.305808 244.427896 
L 146.404057 244.129913 
L 146.876374 243.964789 
L 147.0895 243.666515 
L 147.63686 243.736282 
L 147.341061 243.966091 
L 147.621568 243.537416 
L 147.033037 242.968644 
L 147.073305 243.090636 
L 147.596281 242.550696 
L 147.513813 242.70333 
L 147.865709 243.806004 
L 148.035785 244.437178 
L 147.798155 243.904169 
L 147.702653 244.029591 
L 147.794282 243.727704 
L 148.408047 243.861819 
L 148.508042 244.194505 
L 148.415294 244.160691 
L 148.522739 244.864619 
L 148.407725 244.547723 
L 147.530261 244.493614 
L 148.304945 244.45241 
L 148.444043 244.939364 
L 148.633097 244.888817 
L 148.586916 245.183222 
L 149.709713 245.163512 
L 148.603196 243.696165 
L 148.099215 243.946923 
L 148.517949 243.348203 
L 148.653576 243.467203 
L 149.264994 243.261489 
L 149.083586 243.150153 
L 148.744697 243.40783 
L 148.387544 243.431136 
L 148.108425 242.850031 
L 148.67865 243.011898 
L 148.736894 242.880927 
L 148.457303 243.000678 
L 148.501862 242.444083 
L 148.757447 242.57684 
L 148.959026 243.139715 
L 148.469471 243.095484 
L 148.350273 243.779675 
L 147.954778 244.301376 
L 148.092383 243.751287 
L 148.66975 243.679278 
L 148.190062 243.361183 
L 148.61214 243.964462 
L 148.683461 243.515511 
L 148.809997 243.93136 
L 148.321396 243.798859 
L 148.473035 244.102407 
L 147.96106 244.681501 
L 147.968775 244.048958 
L 148.152332 244.519694 
L 148.542691 245.017258 
L 148.594337 244.32142 
L 147.864677 244.003017 
L 148.243238 243.899623 
L 148.502088 244.035596 
L 149.529097 243.937551 
L 149.323724 244.615524 
L 149.687324 244.170139 
L 150.000716 244.292467 
L 150.137584 244.000179 
L 150.405457 244.580189 
L 149.925357 244.522462 
L 149.877669 244.8425 
L 149.744569 244.676428 
L 149.611722 243.922969 
L 149.638775 244.678868 
L 148.715558 244.561785 
L 150.028874 244.817344 
L 150.101455 245.353349 
L 149.897513 244.634766 
L 149.319631 244.126431 
L 148.820848 244.094356 
L 148.639591 243.564928 
L 148.683856 243.634529 
L 148.877844 243.790377 
L 148.743765 243.668133 
L 148.728789 243.231702 
L 148.598609 243.128395 
L 149.105607 242.623934 
L 149.543337 242.763068 
L 149.279965 243.330003 
L 149.12131 242.98736 
L 149.042299 243.662067 
L 149.03413 242.984402 
L 148.696979 243.230704 
L 148.404157 243.674671 
L 148.615732 243.556879 
L 148.242752 243.558518 
L 148.219024 243.206424 
L 148.584348 243.187078 
L 148.792567 243.489041 
L 148.344833 243.473753 
L 148.735715 243.563712 
L 148.715423 243.169734 
L 149.09971 243.153294 
L 149.789447 242.919931 
L 149.452753 242.659561 
L 149.612172 242.730731 
L 148.46122 242.831546 
L 147.956268 242.336253 
L 148.642188 242.186162 
L 148.296089 241.662806 
L 147.666777 241.914192 
L 148.192302 242.155679 
L 148.371457 242.728132 
L 148.680566 243.138293 
L 148.594407 242.843447 
L 148.79761 243.64059 
L 148.199719 243.439861 
L 148.440189 243.096982 
L 148.126008 243.021914 
L 149.007575 242.519806 
L 148.838421 243.132914 
L 148.948979 242.638584 
L 148.66249 242.761864 
L 148.729423 242.994353 
L 148.575986 243.409644 
L 148.630155 243.629691 
M 147.585468 243.681584 
L 148.094035 243.922811 
L 147.728895 243.707201 
L 147.645377 243.88656 
L 148.962425 243.528825 
L 148.431537 244.413609 
L 148.191547 244.139726 
L 148.662366 244.003575 
L 148.618807 244.323337 
L 148.363574 244.310868 
L 148.87902 244.676672 
L 148.85421 244.584439 
L 149.694571 244.605125 
L 149.486639 244.639222 
L 149.204093 244.117908 
L 148.812467 244.326078 
L 148.901191 244.450769 
L 148.631174 244.302589 
L 148.188307 244.011173 
L 148.077537 244.490601 
L 148.062756 245.052688 
L 148.036081 244.758016 
L 148.962731 244.910883 
L 148.868187 245.035251 
L 149.173907 245.124901 
L 149.430814 245.618061 
L 149.24636 245.189324 
L 148.939531 245.232229 
L 148.982047 245.398833 
L 149.700162 245.849828 
L 149.701172 246.206303 
L 149.405682 245.994792 
L 148.992721 245.358522 
L 149.233667 245.139137 
L 148.597499 245.839957 
L 148.72737 245.957973 
L 148.56319 245.847127 
L 147.963124 245.563736 
L 148.176508 245.166654 
L 147.698749 245.01619 
L 147.797171 245.720033 
L 148.260478 245.465322 
L 148.192415 245.824909 
L 147.952877 245.872657 
L 147.959931 245.489386 
L 147.571533 245.567767 
L 148.09927 244.995275 
L 147.814864 244.615121 
L 147.364239 244.428813 
L 147.563438 244.364937 
L 147.088908 243.796539 
L 149.001645 244.227658 
L 148.130791 244.865223 
L 147.957086 244.659076 
L 148.0023 244.131215 
L 147.966417 244.254756 
L 147.843247 244.019027 
L 147.71393 244.269015 
L 146.696481 244.606821 
L 147.185109 244.513053 
L 146.773828 244.73538 
L 146.744188 245.168341 
L 147.694074 244.949563 
L 147.170602 244.68644 
L 148.06753 244.229457 
L 147.531869 244.462121 
L 147.907035 245.086303 
L 148.02757 244.848578 
L 147.551175 245.543878 
L 147.686128 245.315875 
L 148.087694 245.572244 
L 147.682114 245.593415 
L 147.386303 245.312106 
L 147.038484 245.770228 
L 146.520364 245.644153 
L 146.632221 245.518702 
L 146.867184 245.512971 
L 146.714608 245.110388 
L 146.759392 244.914889 
L 146.877951 245.343206 
L 147.245036 244.559815 
L 147.039773 244.969316 
L 146.765129 244.815624 
L 147.622411 244.504314 
L 147.573598 245.166649 
L 146.575803 245.602541 
L 147.29956 245.653524 
L 146.767543 245.733388 
L 147.230587 245.884227 
L 147.14235 245.66728 
L 146.600973 245.256042 
L 146.483562 245.540256 
L 146.252433 245.508711 
L 146.059505 245.132518 
L 146.783969 245.72226 
L 146.643862 245.543446 
L 146.59386 245.095298 
L 147.445409 245.058929 
L 147.034104 245.257458 
L 147.43052 245.212243 
L 147.251752 245.087558 
L 147.392578 245.039689 
L 147.110814 244.438736 
L 146.696909 244.858725 
L 146.878919 244.948181 
L 147.125032 244.874551 
L 146.943666 244.527585 
L 147.325597 244.932661 
L 147.238343 244.639704 
L 147.009142 244.724386 
L 147.143976 244.231416 
L 147.486462 244.205968 
L 147.62551 244.80917 
L 147.64124 244.755155 
L 148.053259 244.780238 
L 147.736273 245.381126 
L 147.843667 245.090369 
L 147.485272 244.739206 
L 148.366867 244.61529 
L 148.596644 244.080171 
L 148.827424 243.880615 
L 148.479136 244.42856 
L 148.514237 244.026707 
L 148.343889 244.06248 
L 148.355638 243.515505 
L 148.66258 243.352457 
L 148.772395 242.70143 
L 148.521585 243.506821 
L 148.425639 243.344788 
L 147.881214 243.767898 
L 148.121712 243.144868 
L 148.46885 243.588567 
L 148.885111 243.682806 
L 148.718222 243.637602 
L 148.129081 243.140378 
L 147.944753 243.192304 
L 148.032866 242.96968 
L 147.510208 242.76905 
L 147.63059 243.03658 
L 147.085303 243.149516 
L 147.085303 243.149516 
" clip-path="url(#p9e6f5bf74c)" style="fill: none; stroke: #bcbd22; stroke-linecap: round"/>
   </g>
   <g id="line2d_25">
    <path d="M 320.42019 310.9731 
L 320.107757 312.465042 
M 320.802915 312.041547 
L 320.855591 311.90015 
L 320.563458 312.086431 
L 320.929852 311.804179 
M 321.149612 312.154683 
L 321.23203 311.917639 
L 321.374227 311.96094 
L 321.67264 311.77994 
L 321.122437 311.652965 
L 321.13351 311.908822 
L 322.119182 312.795146 
L 322.435238 312.296091 
L 322.352071 311.599618 
L 321.217039 312.052463 
L 321.543095 311.674501 
L 320.86347 311.801981 
L 321.045721 311.232426 
M 321.129968 311.403528 
L 321.452884 312.156061 
L 322.09037 311.458415 
L 321.770383 311.290585 
L 321.226888 311.481267 
L 321.445443 311.721827 
L 321.128704 311.797045 
L 321.334914 312.165964 
L 321.028913 312.147115 
L 320.884879 312.447375 
L 321.340536 312.016636 
L 321.919608 311.63461 
L 321.08639 312.263915 
L 320.785879 312.111946 
L 321.462522 311.934164 
L 321.130663 312.016587 
L 321.043039 312.345178 
L 321.380539 312.58491 
L 321.79997 312.378888 
L 321.555898 311.589506 
L 321.192947 312.151738 
L 321.067578 311.883477 
L 320.97952 312.440081 
L 320.480826 312.207264 
L 321.314749 312.334946 
L 320.666723 312.108319 
L 320.733872 311.954457 
L 321.724038 311.563805 
L 320.96873 312.255386 
L 321.243793 311.873097 
L 321.326814 312.118373 
L 320.946786 311.872545 
L 321.20025 311.976601 
L 321.109139 312.131444 
L 320.466244 312.112408 
L 320.814051 312.37332 
L 320.602082 312.706968 
L 320.517874 312.388279 
L 320.805136 312.513352 
L 320.374178 312.412742 
L 320.482901 312.637915 
L 320.894634 312.316078 
L 320.260175 312.623651 
L 320.676289 312.34219 
L 320.802103 311.991844 
L 321.512807 312.065989 
L 320.998207 312.351164 
L 320.026878 312.324169 
L 320.391494 312.582316 
L 320.425047 312.369232 
L 320.761598 312.808736 
L 321.099839 312.662642 
L 321.163973 312.43226 
L 321.343715 312.59204 
L 321.046827 312.958937 
L 321.125327 312.479987 
L 321.358671 312.645042 
L 321.154577 312.779575 
L 321.365381 312.238626 
L 321.187636 311.875603 
L 320.945669 312.224558 
L 320.799214 312.056423 
L 321.083163 312.19408 
L 320.996517 312.468795 
L 320.527455 312.355766 
L 321.088489 312.50597 
L 320.979012 312.523918 
L 321.039929 312.632397 
L 321.614703 312.462738 
L 321.414716 312.201977 
L 322.454498 313.175809 
L 322.380669 313.212952 
L 322.253354 312.767476 
L 322.291253 312.812774 
L 321.851385 312.938329 
L 321.418924 311.619083 
L 320.668953 311.936935 
L 321.20104 311.312348 
L 321.289082 311.653769 
L 321.601147 312.105659 
L 321.244395 311.754842 
L 321.734428 311.825348 
L 321.358153 311.985017 
L 321.377284 311.773475 
L 320.904939 312.001028 
L 320.537168 311.935343 
L 320.199949 311.568287 
L 320.182089 311.153117 
L 320.130008 311.355331 
L 319.877503 311.502342 
L 319.89226 311.71249 
L 320.037411 311.782725 
L 319.495209 311.813769 
L 319.728543 311.284539 
L 319.208227 311.102935 
L 319.040438 311.548061 
L 319.16248 312.463822 
L 318.572662 312.431147 
L 319.120418 312.364715 
L 318.472245 312.079903 
L 318.860416 311.896819 
L 318.789168 312.409688 
L 318.315205 312.626339 
L 318.337772 311.768742 
L 318.32774 312.350177 
L 318.912935 311.442137 
L 319.257943 311.852893 
L 319.154963 311.661456 
L 318.912155 311.789533 
L 318.721832 312.312582 
M 319.592916 312.268214 
L 319.097962 312.27675 
L 319.261325 311.840954 
L 319.67567 311.911669 
L 320.168741 311.33094 
L 320.011516 310.871886 
L 319.552608 311.361744 
L 319.126857 311.124743 
M 319.538158 311.835743 
L 319.225749 311.840279 
L 319.436285 312.078145 
L 319.296295 311.327565 
M 319.699766 311.798936 
L 319.126444 312.012542 
L 319.511087 312.223442 
L 319.92405 312.164247 
L 319.497287 312.525237 
L 318.744145 312.298837 
M 319.969712 311.966492 
L 319.650943 312.176044 
L 319.765237 312.740677 
L 319.573293 312.883415 
L 320.226015 312.004841 
L 320.103939 312.082616 
L 319.906288 312.209929 
L 320.351563 312.143644 
M 319.679349 311.925001 
L 319.393235 312.678759 
L 319.039455 312.203188 
L 319.298325 312.721633 
L 319.990256 312.071669 
M 319.550931 312.596598 
L 319.5965 312.473646 
L 319.682499 312.97336 
L 319.192795 312.780938 
L 319.538597 313.066826 
L 319.746077 313.037421 
L 319.052758 312.722411 
L 319.483665 312.598145 
L 319.362428 312.546996 
L 319.26883 312.983733 
M 320.109256 312.35827 
L 319.912261 312.3144 
L 319.784009 312.054338 
L 319.926616 311.609893 
L 319.77927 312.273102 
L 319.231954 312.182764 
L 319.832607 312.585779 
M 320.091203 313.273172 
L 320.659986 313.347875 
L 320.439831 313.115482 
L 320.788857 313.262294 
L 320.423842 313.317886 
L 320.23555 313.505917 
L 320.360169 313.182612 
L 319.823793 313.647536 
L 320.101927 312.895466 
L 319.799199 312.17632 
L 319.827595 312.240765 
M 319.732041 312.563208 
L 319.568907 312.740636 
L 319.135747 312.744968 
L 319.430772 312.241859 
L 319.369025 312.604279 
L 319.727252 312.12052 
L 319.23168 311.886387 
L 319.276851 312.101847 
L 318.970288 312.153151 
L 319.172602 312.299574 
L 319.074162 312.905736 
L 319.27598 312.864381 
L 319.214014 312.138967 
L 319.448774 312.069121 
L 319.237785 311.941909 
L 319.241 311.814044 
L 320.030463 311.504033 
L 319.207153 311.746618 
M 319.056798 311.676733 
L 319.321441 310.873474 
L 319.32048 311.773726 
L 318.645375 312.069136 
L 318.336987 312.405529 
L 318.735171 312.352035 
L 319.32542 311.855073 
L 319.191003 312.184605 
L 319.306395 311.575058 
L 319.46389 311.668055 
L 319.492249 312.48665 
L 319.084161 312.02334 
L 319.350958 312.228834 
L 319.314207 311.770348 
L 318.803575 312.248664 
L 319.235629 312.617013 
L 319.115228 312.523487 
L 319.056037 311.889813 
L 319.461622 311.753433 
L 319.218795 312.040801 
L 318.55119 311.975222 
L 318.833357 311.63115 
L 318.32029 311.68607 
L 318.168316 312.32463 
L 318.441215 312.423567 
L 318.435664 312.427444 
L 318.556747 312.777771 
L 318.876138 312.744715 
L 318.793639 312.052436 
L 318.962206 312.302945 
L 319.268942 311.941094 
L 319.154304 311.738711 
L 319.556769 311.951271 
L 319.537549 312.248612 
L 319.711712 312.202177 
L 319.711712 312.202177 
" clip-path="url(#p9e6f5bf74c)" style="fill: none; stroke: #17becf; stroke-linecap: round"/>
   </g>
   <g id="line2d_26">
    <path d="M 280.385869 428.467208 
L 279.672237 428.881858 
M 279.825107 428.430366 
L 280.037162 429.015577 
M 281.100693 429.58846 
L 279.972763 428.558455 
L 279.402806 429.512806 
L 279.288905 429.090428 
L 279.197173 429.89164 
L 279.35823 429.216898 
M 279.339686 429.126751 
L 279.699769 429.999934 
M 279.381174 427.758453 
L 279.217436 428.112657 
M 279.343226 428.695706 
L 278.794808 429.440882 
L 278.666772 429.898281 
M 278.622936 429.748137 
L 278.863981 429.686967 
L 278.167087 429.708907 
L 278.451842 430.252856 
L 277.964844 429.716133 
L 277.483343 430.405743 
L 277.644978 429.526158 
L 277.834582 429.532235 
L 278.761927 429.825365 
L 277.832038 429.369855 
M 279.442095 429.762874 
L 279.04747 429.528769 
L 278.457192 429.440613 
M 278.747107 429.924978 
L 279.26093 429.8839 
L 279.246526 430.501835 
L 279.831967 429.943465 
M 280.029767 429.761293 
L 279.631425 429.452794 
L 279.930633 429.504256 
L 279.97903 429.886906 
L 279.644756 428.639124 
M 279.6727 430.260261 
L 279.870802 429.704503 
L 279.572947 429.933604 
L 279.583036 430.168724 
L 279.964071 429.594775 
M 279.828442 429.261654 
L 279.99244 430.11646 
L 279.536779 430.248004 
L 279.988897 430.92 
L 280.218946 430.32101 
L 279.842328 430.055195 
L 280.145843 429.522006 
L 279.867506 430.232817 
L 280.48332 430.220454 
L 280.588614 429.989128 
L 279.831653 429.562108 
L 280.627006 429.888438 
L 280.678808 429.241288 
L 281.168743 429.558232 
L 280.57531 429.19937 
L 280.622338 429.460383 
L 280.999349 429.445661 
L 280.717432 429.833121 
L 280.796222 429.338045 
L 281.422759 429.579302 
L 281.244034 429.264542 
L 280.650602 429.28629 
L 280.856879 429.648978 
L 281.139218 429.654312 
L 280.824748 429.850358 
L 280.662779 429.334957 
L 280.451214 429.316952 
L 280.422369 429.547848 
L 280.675234 429.357653 
L 279.870388 429.807582 
L 280.142921 429.317371 
L 280.085404 429.319924 
L 280.395555 429.185424 
L 280.435589 428.856233 
L 280.732351 428.745623 
L 280.745246 428.304999 
L 280.411139 428.292534 
L 281.137561 428.363885 
L 281.24608 428.83002 
L 280.644783 429.310943 
L 280.017501 429.129425 
L 280.993469 428.85172 
L 280.976096 429.045081 
L 280.865914 428.683463 
L 280.206916 428.870847 
L 280.578779 428.583642 
L 280.394467 428.738419 
L 280.567929 429.43653 
L 280.179639 429.348325 
L 280.573962 429.287842 
L 280.09203 429.311648 
L 279.904535 428.508333 
L 280.334509 429.301505 
L 279.878164 429.387543 
L 279.729546 429.793704 
L 280.014503 429.6426 
L 280.180012 429.684967 
L 280.113911 429.877516 
L 280.195533 430.060775 
L 280.003102 429.387069 
M 279.51824 429.366165 
L 279.075025 428.806139 
L 278.817624 429.292224 
L 279.819718 429.423981 
L 279.508591 428.700681 
L 279.583906 429.286767 
L 279.604371 429.174006 
L 280.133407 429.321322 
L 279.562087 429.342091 
L 280.175424 428.026105 
L 280.557371 428.845511 
L 280.014812 428.269138 
L 280.378024 428.611383 
L 280.500705 428.540403 
L 280.159277 428.615567 
L 279.945053 429.309355 
L 280.33684 428.782742 
L 280.655444 428.724185 
L 280.836588 428.145378 
L 280.357738 428.262195 
L 280.677025 428.218255 
L 281.056831 428.535219 
L 280.401317 428.423732 
M 280.940859 428.848862 
L 281.364499 428.96931 
L 280.788245 428.663382 
M 279.886163 428.83809 
L 279.9571 428.498988 
L 280.460716 428.769468 
L 280.546352 429.161868 
L 280.622246 429.126011 
L 280.394767 429.420413 
L 280.528698 429.148535 
L 280.331604 428.997624 
L 279.269611 429.665372 
L 278.975375 429.704457 
L 278.997279 429.738131 
L 279.380153 429.430593 
L 278.795505 429.633257 
L 279.128358 430.155126 
L 279.877992 429.400942 
L 280.429305 429.667903 
L 279.486894 429.094288 
L 279.584338 429.32359 
L 280.962198 428.908061 
M 280.87991 429.37916 
L 280.452482 429.351827 
L 280.318799 429.71327 
L 280.421575 429.58736 
L 280.671832 429.850921 
L 280.19705 429.880204 
L 280.582434 430.595332 
M 279.948277 429.70502 
L 280.081825 429.587716 
M 279.403842 429.581676 
L 278.791114 429.560121 
L 278.253052 428.960302 
L 278.353787 428.54262 
L 278.616172 429.121647 
L 279.437146 428.500617 
L 278.933352 429.251084 
M 278.866328 429.749312 
L 279.282149 430.347639 
L 279.174292 430.243485 
L 278.955966 430.106456 
L 279.307013 430.041059 
L 278.468633 430.168034 
L 278.572965 429.819998 
L 279.095787 429.078682 
L 279.014841 429.493243 
L 278.408729 429.539263 
L 278.50634 429.403828 
L 278.486262 429.528344 
M 278.488749 429.233618 
L 278.348349 429.164968 
M 278.804892 429.322886 
" clip-path="url(#p9e6f5bf74c)" style="fill: none; stroke: #1f77b4; stroke-linecap: round"/>
   </g>
   <g id="patch_3">
    <path d="M 63 448.56 
L 63 60.48 
" style="fill: none; stroke: #262626; stroke-width: 1.25; stroke-linejoin: miter; stroke-linecap: square"/>
   </g>
   <g id="patch_4">
    <path d="M 453.6 448.56 
L 453.6 60.48 
" style="fill: none; stroke: #262626; stroke-width: 1.25; stroke-linejoin: miter; stroke-linecap: square"/>
   </g>
   <g id="patch_5">
    <path d="M 63 448.56 
L 453.6 448.56 
" style="fill: none; stroke: #262626; stroke-width: 1.25; stroke-linejoin: miter; stroke-linecap: square"/>
   </g>
   <g id="patch_6">
    <path d="M 63 60.48 
L 453.6 60.48 
" style="fill: none; stroke: #262626; stroke-width: 1.25; stroke-linejoin: miter; stroke-linecap: square"/>
   </g>
  </g>
 </g>
 <defs>
  <clipPath id="p9e6f5bf74c">
   <rect x="63" y="60.48" width="390.6" height="388.08"/>
  </clipPath>
 </defs>
</svg>
