<?xml version="1.0" encoding="utf-8" standalone="no"?>
<!DOCTYPE svg PUBLIC "-//W3C//DTD SVG 1.1//EN"
  "http://www.w3.org/Graphics/SVG/1.1/DTD/svg11.dtd">
<svg xmlns:xlink="http://www.w3.org/1999/xlink" width="504pt" height="504pt" viewBox="0 0 504 504" xmlns="http://www.w3.org/2000/svg" version="1.1">
 <metadata>
  <rdf:RDF xmlns:dc="http://purl.org/dc/elements/1.1/" xmlns:cc="http://creativecommons.org/ns#" xmlns:rdf="http://www.w3.org/1999/02/22-rdf-syntax-ns#">
   <cc:Work>
    <dc:type rdf:resource="http://purl.org/dc/dcmitype/StillImage"/>
    <dc:date>2025-06-03T12:40:23.049803</dc:date>
    <dc:format>image/svg+xml</dc:format>
    <dc:creator>
     <cc:Agent>
      <dc:title>Matplotlib v3.8.0, https://matplotlib.org/</dc:title>
     </cc:Agent>
    </dc:creator>
   </cc:Work>
  </rdf:RDF>
 </metadata>
 <defs>
  <style type="text/css">*{stroke-linejoin: round; stroke-linecap: butt}</style>
 </defs>
 <g id="figure_1">
  <g id="patch_1">
   <path d="M 0 504 
L 504 504 
L 504 0 
L 0 0 
z
" style="fill: #ffffff"/>
  </g>
  <g id="axes_1">
   <g id="patch_2">
    <path d="M 63 448.56 
L 453.6 448.56 
L 453.6 60.48 
L 63 60.48 
z
" style="fill: #ffffff"/>
   </g>
   <g id="matplotlib.axis_1">
    <g id="xtick_1">
     <g id="line2d_1">
      <defs>
       <path id="m68a512ad4f" d="M 0 0 
L 0 5 
" style="stroke: #262626; stroke-width: 0.8"/>
      </defs>
      <g>
       <use xlink:href="#m68a512ad4f" x="120.209091" y="448.56" style="fill: #262626; stroke: #262626; stroke-width: 0.8"/>
      </g>
     </g>
     <g id="text_1">
      <!-- 0.1 -->
      <g style="fill: #262626" transform="translate(110.479091 467.080938) scale(0.14 -0.14)">
       <defs>
        <path id="ArialMT-30" d="M 266 2259 
Q 266 3072 433 3567 
Q 600 4063 929 4331 
Q 1259 4600 1759 4600 
Q 2128 4600 2406 4451 
Q 2684 4303 2865 4023 
Q 3047 3744 3150 3342 
Q 3253 2941 3253 2259 
Q 3253 1453 3087 958 
Q 2922 463 2592 192 
Q 2263 -78 1759 -78 
Q 1097 -78 719 397 
Q 266 969 266 2259 
z
M 844 2259 
Q 844 1131 1108 757 
Q 1372 384 1759 384 
Q 2147 384 2411 759 
Q 2675 1134 2675 2259 
Q 2675 3391 2411 3762 
Q 2147 4134 1753 4134 
Q 1366 4134 1134 3806 
Q 844 3388 844 2259 
z
" transform="scale(0.015625)"/>
        <path id="ArialMT-2e" d="M 581 0 
L 581 641 
L 1222 641 
L 1222 0 
L 581 0 
z
" transform="scale(0.015625)"/>
        <path id="ArialMT-31" d="M 2384 0 
L 1822 0 
L 1822 3584 
Q 1619 3391 1289 3197 
Q 959 3003 697 2906 
L 697 3450 
Q 1169 3672 1522 3987 
Q 1875 4303 2022 4600 
L 2384 4600 
L 2384 0 
z
" transform="scale(0.015625)"/>
       </defs>
       <use xlink:href="#ArialMT-30"/>
       <use xlink:href="#ArialMT-2e" x="55.615234"/>
       <use xlink:href="#ArialMT-31" x="83.398438"/>
      </g>
     </g>
    </g>
    <g id="xtick_2">
     <g id="line2d_2">
      <g>
       <use xlink:href="#m68a512ad4f" x="199.118182" y="448.56" style="fill: #262626; stroke: #262626; stroke-width: 0.8"/>
      </g>
     </g>
     <g id="text_2">
      <!-- 0.2 -->
      <g style="fill: #262626" transform="translate(189.388182 467.080938) scale(0.14 -0.14)">
       <defs>
        <path id="ArialMT-32" d="M 3222 541 
L 3222 0 
L 194 0 
Q 188 203 259 391 
Q 375 700 629 1000 
Q 884 1300 1366 1694 
Q 2113 2306 2375 2664 
Q 2638 3022 2638 3341 
Q 2638 3675 2398 3904 
Q 2159 4134 1775 4134 
Q 1369 4134 1125 3890 
Q 881 3647 878 3216 
L 300 3275 
Q 359 3922 746 4261 
Q 1134 4600 1788 4600 
Q 2447 4600 2831 4234 
Q 3216 3869 3216 3328 
Q 3216 3053 3103 2787 
Q 2991 2522 2730 2228 
Q 2469 1934 1863 1422 
Q 1356 997 1212 845 
Q 1069 694 975 541 
L 3222 541 
z
" transform="scale(0.015625)"/>
       </defs>
       <use xlink:href="#ArialMT-30"/>
       <use xlink:href="#ArialMT-2e" x="55.615234"/>
       <use xlink:href="#ArialMT-32" x="83.398438"/>
      </g>
     </g>
    </g>
    <g id="xtick_3">
     <g id="line2d_3">
      <g>
       <use xlink:href="#m68a512ad4f" x="278.027273" y="448.56" style="fill: #262626; stroke: #262626; stroke-width: 0.8"/>
      </g>
     </g>
     <g id="text_3">
      <!-- 0.3 -->
      <g style="fill: #262626" transform="translate(268.297273 467.080938) scale(0.14 -0.14)">
       <defs>
        <path id="ArialMT-33" d="M 269 1209 
L 831 1284 
Q 928 806 1161 595 
Q 1394 384 1728 384 
Q 2125 384 2398 659 
Q 2672 934 2672 1341 
Q 2672 1728 2419 1979 
Q 2166 2231 1775 2231 
Q 1616 2231 1378 2169 
L 1441 2663 
Q 1497 2656 1531 2656 
Q 1891 2656 2178 2843 
Q 2466 3031 2466 3422 
Q 2466 3731 2256 3934 
Q 2047 4138 1716 4138 
Q 1388 4138 1169 3931 
Q 950 3725 888 3313 
L 325 3413 
Q 428 3978 793 4289 
Q 1159 4600 1703 4600 
Q 2078 4600 2393 4439 
Q 2709 4278 2876 4000 
Q 3044 3722 3044 3409 
Q 3044 3113 2884 2869 
Q 2725 2625 2413 2481 
Q 2819 2388 3044 2092 
Q 3269 1797 3269 1353 
Q 3269 753 2831 336 
Q 2394 -81 1725 -81 
Q 1122 -81 723 278 
Q 325 638 269 1209 
z
" transform="scale(0.015625)"/>
       </defs>
       <use xlink:href="#ArialMT-30"/>
       <use xlink:href="#ArialMT-2e" x="55.615234"/>
       <use xlink:href="#ArialMT-33" x="83.398438"/>
      </g>
     </g>
    </g>
    <g id="xtick_4">
     <g id="line2d_4">
      <g>
       <use xlink:href="#m68a512ad4f" x="356.936364" y="448.56" style="fill: #262626; stroke: #262626; stroke-width: 0.8"/>
      </g>
     </g>
     <g id="text_4">
      <!-- 0.4 -->
      <g style="fill: #262626" transform="translate(347.206364 467.080938) scale(0.14 -0.14)">
       <defs>
        <path id="ArialMT-34" d="M 2069 0 
L 2069 1097 
L 81 1097 
L 81 1613 
L 2172 4581 
L 2631 4581 
L 2631 1613 
L 3250 1613 
L 3250 1097 
L 2631 1097 
L 2631 0 
L 2069 0 
z
M 2069 1613 
L 2069 3678 
L 634 1613 
L 2069 1613 
z
" transform="scale(0.015625)"/>
       </defs>
       <use xlink:href="#ArialMT-30"/>
       <use xlink:href="#ArialMT-2e" x="55.615234"/>
       <use xlink:href="#ArialMT-34" x="83.398438"/>
      </g>
     </g>
    </g>
    <g id="xtick_5">
     <g id="line2d_5">
      <g>
       <use xlink:href="#m68a512ad4f" x="435.845455" y="448.56" style="fill: #262626; stroke: #262626; stroke-width: 0.8"/>
      </g>
     </g>
     <g id="text_5">
      <!-- 0.5 -->
      <g style="fill: #262626" transform="translate(426.115455 467.080938) scale(0.14 -0.14)">
       <defs>
        <path id="ArialMT-35" d="M 266 1200 
L 856 1250 
Q 922 819 1161 601 
Q 1400 384 1738 384 
Q 2144 384 2425 690 
Q 2706 997 2706 1503 
Q 2706 1984 2436 2262 
Q 2166 2541 1728 2541 
Q 1456 2541 1237 2417 
Q 1019 2294 894 2097 
L 366 2166 
L 809 4519 
L 3088 4519 
L 3088 3981 
L 1259 3981 
L 1013 2750 
Q 1425 3038 1878 3038 
Q 2478 3038 2890 2622 
Q 3303 2206 3303 1553 
Q 3303 931 2941 478 
Q 2500 -78 1738 -78 
Q 1113 -78 717 272 
Q 322 622 266 1200 
z
" transform="scale(0.015625)"/>
       </defs>
       <use xlink:href="#ArialMT-30"/>
       <use xlink:href="#ArialMT-2e" x="55.615234"/>
       <use xlink:href="#ArialMT-35" x="83.398438"/>
      </g>
     </g>
    </g>
    <g id="text_6">
     <!-- lag time $t (s)$ -->
     <g style="fill: #262626" transform="translate(214.46 486.023438) scale(0.16 -0.16)">
      <defs>
       <path id="ArialMT-6c" d="M 409 0 
L 409 4581 
L 972 4581 
L 972 0 
L 409 0 
z
" transform="scale(0.015625)"/>
       <path id="ArialMT-61" d="M 2588 409 
Q 2275 144 1986 34 
Q 1697 -75 1366 -75 
Q 819 -75 525 192 
Q 231 459 231 875 
Q 231 1119 342 1320 
Q 453 1522 633 1644 
Q 813 1766 1038 1828 
Q 1203 1872 1538 1913 
Q 2219 1994 2541 2106 
Q 2544 2222 2544 2253 
Q 2544 2597 2384 2738 
Q 2169 2928 1744 2928 
Q 1347 2928 1158 2789 
Q 969 2650 878 2297 
L 328 2372 
Q 403 2725 575 2942 
Q 747 3159 1072 3276 
Q 1397 3394 1825 3394 
Q 2250 3394 2515 3294 
Q 2781 3194 2906 3042 
Q 3031 2891 3081 2659 
Q 3109 2516 3109 2141 
L 3109 1391 
Q 3109 606 3145 398 
Q 3181 191 3288 0 
L 2700 0 
Q 2613 175 2588 409 
z
M 2541 1666 
Q 2234 1541 1622 1453 
Q 1275 1403 1131 1340 
Q 988 1278 909 1158 
Q 831 1038 831 891 
Q 831 666 1001 516 
Q 1172 366 1500 366 
Q 1825 366 2078 508 
Q 2331 650 2450 897 
Q 2541 1088 2541 1459 
L 2541 1666 
z
" transform="scale(0.015625)"/>
       <path id="ArialMT-67" d="M 319 -275 
L 866 -356 
Q 900 -609 1056 -725 
Q 1266 -881 1628 -881 
Q 2019 -881 2231 -725 
Q 2444 -569 2519 -288 
Q 2563 -116 2559 434 
Q 2191 0 1641 0 
Q 956 0 581 494 
Q 206 988 206 1678 
Q 206 2153 378 2554 
Q 550 2956 876 3175 
Q 1203 3394 1644 3394 
Q 2231 3394 2613 2919 
L 2613 3319 
L 3131 3319 
L 3131 450 
Q 3131 -325 2973 -648 
Q 2816 -972 2473 -1159 
Q 2131 -1347 1631 -1347 
Q 1038 -1347 672 -1080 
Q 306 -813 319 -275 
z
M 784 1719 
Q 784 1066 1043 766 
Q 1303 466 1694 466 
Q 2081 466 2343 764 
Q 2606 1063 2606 1700 
Q 2606 2309 2336 2618 
Q 2066 2928 1684 2928 
Q 1309 2928 1046 2623 
Q 784 2319 784 1719 
z
" transform="scale(0.015625)"/>
       <path id="ArialMT-20" transform="scale(0.015625)"/>
       <path id="ArialMT-74" d="M 1650 503 
L 1731 6 
Q 1494 -44 1306 -44 
Q 1000 -44 831 53 
Q 663 150 594 308 
Q 525 466 525 972 
L 525 2881 
L 113 2881 
L 113 3319 
L 525 3319 
L 525 4141 
L 1084 4478 
L 1084 3319 
L 1650 3319 
L 1650 2881 
L 1084 2881 
L 1084 941 
Q 1084 700 1114 631 
Q 1144 563 1211 522 
Q 1278 481 1403 481 
Q 1497 481 1650 503 
z
" transform="scale(0.015625)"/>
       <path id="ArialMT-69" d="M 425 3934 
L 425 4581 
L 988 4581 
L 988 3934 
L 425 3934 
z
M 425 0 
L 425 3319 
L 988 3319 
L 988 0 
L 425 0 
z
" transform="scale(0.015625)"/>
       <path id="ArialMT-6d" d="M 422 0 
L 422 3319 
L 925 3319 
L 925 2853 
Q 1081 3097 1340 3245 
Q 1600 3394 1931 3394 
Q 2300 3394 2536 3241 
Q 2772 3088 2869 2813 
Q 3263 3394 3894 3394 
Q 4388 3394 4653 3120 
Q 4919 2847 4919 2278 
L 4919 0 
L 4359 0 
L 4359 2091 
Q 4359 2428 4304 2576 
Q 4250 2725 4106 2815 
Q 3963 2906 3769 2906 
Q 3419 2906 3187 2673 
Q 2956 2441 2956 1928 
L 2956 0 
L 2394 0 
L 2394 2156 
Q 2394 2531 2256 2718 
Q 2119 2906 1806 2906 
Q 1569 2906 1367 2781 
Q 1166 2656 1075 2415 
Q 984 2175 984 1722 
L 984 0 
L 422 0 
z
" transform="scale(0.015625)"/>
       <path id="ArialMT-65" d="M 2694 1069 
L 3275 997 
Q 3138 488 2766 206 
Q 2394 -75 1816 -75 
Q 1088 -75 661 373 
Q 234 822 234 1631 
Q 234 2469 665 2931 
Q 1097 3394 1784 3394 
Q 2450 3394 2872 2941 
Q 3294 2488 3294 1666 
Q 3294 1616 3291 1516 
L 816 1516 
Q 847 969 1125 678 
Q 1403 388 1819 388 
Q 2128 388 2347 550 
Q 2566 713 2694 1069 
z
M 847 1978 
L 2700 1978 
Q 2663 2397 2488 2606 
Q 2219 2931 1791 2931 
Q 1403 2931 1139 2672 
Q 875 2413 847 1978 
z
" transform="scale(0.015625)"/>
       <path id="DejaVuSans-Oblique-74" d="M 2706 3500 
L 2619 3053 
L 1472 3053 
L 1100 1153 
Q 1081 1047 1072 975 
Q 1063 903 1063 863 
Q 1063 663 1183 572 
Q 1303 481 1569 481 
L 2150 481 
L 2053 0 
L 1503 0 
Q 991 0 739 200 
Q 488 400 488 806 
Q 488 878 497 964 
Q 506 1050 525 1153 
L 897 3053 
L 409 3053 
L 500 3500 
L 978 3500 
L 1172 4494 
L 1747 4494 
L 1556 3500 
L 2706 3500 
z
" transform="scale(0.015625)"/>
       <path id="DejaVuSans-28" d="M 1984 4856 
Q 1566 4138 1362 3434 
Q 1159 2731 1159 2009 
Q 1159 1288 1364 580 
Q 1569 -128 1984 -844 
L 1484 -844 
Q 1016 -109 783 600 
Q 550 1309 550 2009 
Q 550 2706 781 3412 
Q 1013 4119 1484 4856 
L 1984 4856 
z
" transform="scale(0.015625)"/>
       <path id="DejaVuSans-Oblique-73" d="M 3200 3397 
L 3091 2853 
Q 2863 2978 2609 3040 
Q 2356 3103 2088 3103 
Q 1634 3103 1373 2948 
Q 1113 2794 1113 2528 
Q 1113 2219 1719 2053 
Q 1766 2041 1788 2034 
L 1972 1978 
Q 2547 1819 2739 1644 
Q 2931 1469 2931 1166 
Q 2931 609 2489 259 
Q 2047 -91 1331 -91 
Q 1053 -91 747 -37 
Q 441 16 72 128 
L 184 722 
Q 500 559 806 475 
Q 1113 391 1394 391 
Q 1816 391 2080 572 
Q 2344 753 2344 1031 
Q 2344 1331 1650 1516 
L 1591 1531 
L 1394 1581 
Q 956 1697 753 1886 
Q 550 2075 550 2369 
Q 550 2928 970 3256 
Q 1391 3584 2113 3584 
Q 2397 3584 2667 3537 
Q 2938 3491 3200 3397 
z
" transform="scale(0.015625)"/>
       <path id="DejaVuSans-29" d="M 513 4856 
L 1013 4856 
Q 1481 4119 1714 3412 
Q 1947 2706 1947 2009 
Q 1947 1309 1714 600 
Q 1481 -109 1013 -844 
L 513 -844 
Q 928 -128 1133 580 
Q 1338 1288 1338 2009 
Q 1338 2731 1133 3434 
Q 928 4138 513 4856 
z
" transform="scale(0.015625)"/>
      </defs>
      <use xlink:href="#ArialMT-6c" transform="translate(0 0.125)"/>
      <use xlink:href="#ArialMT-61" transform="translate(22.216797 0.125)"/>
      <use xlink:href="#ArialMT-67" transform="translate(77.832031 0.125)"/>
      <use xlink:href="#ArialMT-20" transform="translate(133.447266 0.125)"/>
      <use xlink:href="#ArialMT-74" transform="translate(161.230469 0.125)"/>
      <use xlink:href="#ArialMT-69" transform="translate(189.013672 0.125)"/>
      <use xlink:href="#ArialMT-6d" transform="translate(211.230469 0.125)"/>
      <use xlink:href="#ArialMT-65" transform="translate(294.53125 0.125)"/>
      <use xlink:href="#ArialMT-20" transform="translate(350.146484 0.125)"/>
      <use xlink:href="#DejaVuSans-Oblique-74" transform="translate(377.929688 0.125)"/>
      <use xlink:href="#DejaVuSans-28" transform="translate(417.138672 0.125)"/>
      <use xlink:href="#DejaVuSans-Oblique-73" transform="translate(456.152344 0.125)"/>
      <use xlink:href="#DejaVuSans-29" transform="translate(508.251953 0.125)"/>
     </g>
    </g>
   </g>
   <g id="matplotlib.axis_2">
    <g id="ytick_1">
     <g id="line2d_6">
      <defs>
       <path id="m599f3e4260" d="M 0 0 
L -5 0 
" style="stroke: #262626; stroke-width: 0.8"/>
      </defs>
      <g>
       <use xlink:href="#m599f3e4260" x="63" y="431.575107" style="fill: #262626; stroke: #262626; stroke-width: 0.8"/>
      </g>
     </g>
     <g id="text_7">
      <!-- 0.000 -->
      <g style="fill: #262626" transform="translate(19.469375 436.585576) scale(0.14 -0.14)">
       <use xlink:href="#ArialMT-30"/>
       <use xlink:href="#ArialMT-2e" x="55.615234"/>
       <use xlink:href="#ArialMT-30" x="83.398438"/>
       <use xlink:href="#ArialMT-30" x="139.013672"/>
       <use xlink:href="#ArialMT-30" x="194.628906"/>
      </g>
     </g>
    </g>
    <g id="ytick_2">
     <g id="line2d_7">
      <g>
       <use xlink:href="#m599f3e4260" x="63" y="386.949303" style="fill: #262626; stroke: #262626; stroke-width: 0.8"/>
      </g>
     </g>
     <g id="text_8">
      <!-- 0.005 -->
      <g style="fill: #262626" transform="translate(19.469375 391.959772) scale(0.14 -0.14)">
       <use xlink:href="#ArialMT-30"/>
       <use xlink:href="#ArialMT-2e" x="55.615234"/>
       <use xlink:href="#ArialMT-30" x="83.398438"/>
       <use xlink:href="#ArialMT-30" x="139.013672"/>
       <use xlink:href="#ArialMT-35" x="194.628906"/>
      </g>
     </g>
    </g>
    <g id="ytick_3">
     <g id="line2d_8">
      <g>
       <use xlink:href="#m599f3e4260" x="63" y="342.3235" style="fill: #262626; stroke: #262626; stroke-width: 0.8"/>
      </g>
     </g>
     <g id="text_9">
      <!-- 0.010 -->
      <g style="fill: #262626" transform="translate(19.469375 347.333968) scale(0.14 -0.14)">
       <use xlink:href="#ArialMT-30"/>
       <use xlink:href="#ArialMT-2e" x="55.615234"/>
       <use xlink:href="#ArialMT-30" x="83.398438"/>
       <use xlink:href="#ArialMT-31" x="139.013672"/>
       <use xlink:href="#ArialMT-30" x="194.628906"/>
      </g>
     </g>
    </g>
    <g id="ytick_4">
     <g id="line2d_9">
      <g>
       <use xlink:href="#m599f3e4260" x="63" y="297.697696" style="fill: #262626; stroke: #262626; stroke-width: 0.8"/>
      </g>
     </g>
     <g id="text_10">
      <!-- 0.015 -->
      <g style="fill: #262626" transform="translate(19.469375 302.708165) scale(0.14 -0.14)">
       <use xlink:href="#ArialMT-30"/>
       <use xlink:href="#ArialMT-2e" x="55.615234"/>
       <use xlink:href="#ArialMT-30" x="83.398438"/>
       <use xlink:href="#ArialMT-31" x="139.013672"/>
       <use xlink:href="#ArialMT-35" x="194.628906"/>
      </g>
     </g>
    </g>
    <g id="ytick_5">
     <g id="line2d_10">
      <g>
       <use xlink:href="#m599f3e4260" x="63" y="253.071893" style="fill: #262626; stroke: #262626; stroke-width: 0.8"/>
      </g>
     </g>
     <g id="text_11">
      <!-- 0.020 -->
      <g style="fill: #262626" transform="translate(19.469375 258.082361) scale(0.14 -0.14)">
       <use xlink:href="#ArialMT-30"/>
       <use xlink:href="#ArialMT-2e" x="55.615234"/>
       <use xlink:href="#ArialMT-30" x="83.398438"/>
       <use xlink:href="#ArialMT-32" x="139.013672"/>
       <use xlink:href="#ArialMT-30" x="194.628906"/>
      </g>
     </g>
    </g>
    <g id="ytick_6">
     <g id="line2d_11">
      <g>
       <use xlink:href="#m599f3e4260" x="63" y="208.446089" style="fill: #262626; stroke: #262626; stroke-width: 0.8"/>
      </g>
     </g>
     <g id="text_12">
      <!-- 0.025 -->
      <g style="fill: #262626" transform="translate(19.469375 213.456558) scale(0.14 -0.14)">
       <use xlink:href="#ArialMT-30"/>
       <use xlink:href="#ArialMT-2e" x="55.615234"/>
       <use xlink:href="#ArialMT-30" x="83.398438"/>
       <use xlink:href="#ArialMT-32" x="139.013672"/>
       <use xlink:href="#ArialMT-35" x="194.628906"/>
      </g>
     </g>
    </g>
    <g id="ytick_7">
     <g id="line2d_12">
      <g>
       <use xlink:href="#m599f3e4260" x="63" y="163.820286" style="fill: #262626; stroke: #262626; stroke-width: 0.8"/>
      </g>
     </g>
     <g id="text_13">
      <!-- 0.030 -->
      <g style="fill: #262626" transform="translate(19.469375 168.830754) scale(0.14 -0.14)">
       <use xlink:href="#ArialMT-30"/>
       <use xlink:href="#ArialMT-2e" x="55.615234"/>
       <use xlink:href="#ArialMT-30" x="83.398438"/>
       <use xlink:href="#ArialMT-33" x="139.013672"/>
       <use xlink:href="#ArialMT-30" x="194.628906"/>
      </g>
     </g>
    </g>
    <g id="ytick_8">
     <g id="line2d_13">
      <g>
       <use xlink:href="#m599f3e4260" x="63" y="119.194482" style="fill: #262626; stroke: #262626; stroke-width: 0.8"/>
      </g>
     </g>
     <g id="text_14">
      <!-- 0.035 -->
      <g style="fill: #262626" transform="translate(19.469375 124.204951) scale(0.14 -0.14)">
       <use xlink:href="#ArialMT-30"/>
       <use xlink:href="#ArialMT-2e" x="55.615234"/>
       <use xlink:href="#ArialMT-30" x="83.398438"/>
       <use xlink:href="#ArialMT-33" x="139.013672"/>
       <use xlink:href="#ArialMT-35" x="194.628906"/>
      </g>
     </g>
    </g>
    <g id="ytick_9">
     <g id="line2d_14">
      <g>
       <use xlink:href="#m599f3e4260" x="63" y="74.568679" style="fill: #262626; stroke: #262626; stroke-width: 0.8"/>
      </g>
     </g>
     <g id="text_15">
      <!-- 0.040 -->
      <g style="fill: #262626" transform="translate(19.469375 79.579147) scale(0.14 -0.14)">
       <use xlink:href="#ArialMT-30"/>
       <use xlink:href="#ArialMT-2e" x="55.615234"/>
       <use xlink:href="#ArialMT-30" x="83.398438"/>
       <use xlink:href="#ArialMT-34" x="139.013672"/>
       <use xlink:href="#ArialMT-30" x="194.628906"/>
      </g>
     </g>
    </g>
    <g id="text_16">
     <!-- MSD (um^2) -->
     <g style="fill: #262626" transform="translate(12.101875 299.1625) rotate(-90) scale(0.16 -0.16)">
      <defs>
       <path id="ArialMT-4d" d="M 475 0 
L 475 4581 
L 1388 4581 
L 2472 1338 
Q 2622 884 2691 659 
Q 2769 909 2934 1394 
L 4031 4581 
L 4847 4581 
L 4847 0 
L 4263 0 
L 4263 3834 
L 2931 0 
L 2384 0 
L 1059 3900 
L 1059 0 
L 475 0 
z
" transform="scale(0.015625)"/>
       <path id="ArialMT-53" d="M 288 1472 
L 859 1522 
Q 900 1178 1048 958 
Q 1197 738 1509 602 
Q 1822 466 2213 466 
Q 2559 466 2825 569 
Q 3091 672 3220 851 
Q 3350 1031 3350 1244 
Q 3350 1459 3225 1620 
Q 3100 1781 2813 1891 
Q 2628 1963 1997 2114 
Q 1366 2266 1113 2400 
Q 784 2572 623 2826 
Q 463 3081 463 3397 
Q 463 3744 659 4045 
Q 856 4347 1234 4503 
Q 1613 4659 2075 4659 
Q 2584 4659 2973 4495 
Q 3363 4331 3572 4012 
Q 3781 3694 3797 3291 
L 3216 3247 
Q 3169 3681 2898 3903 
Q 2628 4125 2100 4125 
Q 1550 4125 1298 3923 
Q 1047 3722 1047 3438 
Q 1047 3191 1225 3031 
Q 1400 2872 2139 2705 
Q 2878 2538 3153 2413 
Q 3553 2228 3743 1945 
Q 3934 1663 3934 1294 
Q 3934 928 3725 604 
Q 3516 281 3123 101 
Q 2731 -78 2241 -78 
Q 1619 -78 1198 103 
Q 778 284 539 648 
Q 300 1013 288 1472 
z
" transform="scale(0.015625)"/>
       <path id="ArialMT-44" d="M 494 0 
L 494 4581 
L 2072 4581 
Q 2606 4581 2888 4516 
Q 3281 4425 3559 4188 
Q 3922 3881 4101 3404 
Q 4281 2928 4281 2316 
Q 4281 1794 4159 1391 
Q 4038 988 3847 723 
Q 3656 459 3429 307 
Q 3203 156 2883 78 
Q 2563 0 2147 0 
L 494 0 
z
M 1100 541 
L 2078 541 
Q 2531 541 2789 625 
Q 3047 709 3200 863 
Q 3416 1078 3536 1442 
Q 3656 1806 3656 2325 
Q 3656 3044 3420 3430 
Q 3184 3816 2847 3947 
Q 2603 4041 2063 4041 
L 1100 4041 
L 1100 541 
z
" transform="scale(0.015625)"/>
       <path id="ArialMT-28" d="M 1497 -1347 
Q 1031 -759 709 28 
Q 388 816 388 1659 
Q 388 2403 628 3084 
Q 909 3875 1497 4659 
L 1900 4659 
Q 1522 4009 1400 3731 
Q 1209 3300 1100 2831 
Q 966 2247 966 1656 
Q 966 153 1900 -1347 
L 1497 -1347 
z
" transform="scale(0.015625)"/>
       <path id="ArialMT-75" d="M 2597 0 
L 2597 488 
Q 2209 -75 1544 -75 
Q 1250 -75 995 37 
Q 741 150 617 320 
Q 494 491 444 738 
Q 409 903 409 1263 
L 409 3319 
L 972 3319 
L 972 1478 
Q 972 1038 1006 884 
Q 1059 663 1231 536 
Q 1403 409 1656 409 
Q 1909 409 2131 539 
Q 2353 669 2445 892 
Q 2538 1116 2538 1541 
L 2538 3319 
L 3100 3319 
L 3100 0 
L 2597 0 
z
" transform="scale(0.015625)"/>
       <path id="ArialMT-5e" d="M 747 2156 
L 169 2156 
L 1272 4659 
L 1725 4659 
L 2834 2156 
L 2269 2156 
L 1497 4022 
L 747 2156 
z
" transform="scale(0.015625)"/>
       <path id="ArialMT-29" d="M 791 -1347 
L 388 -1347 
Q 1322 153 1322 1656 
Q 1322 2244 1188 2822 
Q 1081 3291 891 3722 
Q 769 4003 388 4659 
L 791 4659 
Q 1378 3875 1659 3084 
Q 1900 2403 1900 1659 
Q 1900 816 1576 28 
Q 1253 -759 791 -1347 
z
" transform="scale(0.015625)"/>
      </defs>
      <use xlink:href="#ArialMT-4d"/>
      <use xlink:href="#ArialMT-53" x="83.300781"/>
      <use xlink:href="#ArialMT-44" x="150"/>
      <use xlink:href="#ArialMT-20" x="222.216797"/>
      <use xlink:href="#ArialMT-28" x="250"/>
      <use xlink:href="#ArialMT-75" x="283.300781"/>
      <use xlink:href="#ArialMT-6d" x="338.916016"/>
      <use xlink:href="#ArialMT-5e" x="422.216797"/>
      <use xlink:href="#ArialMT-32" x="469.140625"/>
      <use xlink:href="#ArialMT-29" x="524.755859"/>
     </g>
    </g>
   </g>
   <g id="line2d_15">
    <path d="M 80.754545 429.352742 
L 120.209091 427.957739 
L 159.663636 426.932238 
L 199.118182 426.023657 
L 238.572727 425.451554 
L 278.027273 424.874096 
L 317.481818 424.190429 
L 356.936364 423.651349 
L 396.390909 423.159573 
L 435.845455 422.705282 
" clip-path="url(#p46442ebe57)" style="fill: none; stroke: #000000; stroke-opacity: 0.3; stroke-width: 1.5; stroke-linecap: round"/>
   </g>
   <g id="line2d_16">
    <path d="M 80.754545 429.78829 
L 120.209091 428.257625 
L 159.663636 427.04291 
L 199.118182 426.065605 
L 238.572727 425.240028 
L 278.027273 424.415343 
L 317.481818 423.687942 
L 356.936364 423.061396 
L 396.390909 422.437527 
L 435.845455 421.793131 
" clip-path="url(#p46442ebe57)" style="fill: none; stroke: #000000; stroke-opacity: 0.3; stroke-width: 1.5; stroke-linecap: round"/>
   </g>
   <g id="line2d_17">
    <path d="M 80.754545 385.985386 
L 120.209091 389.732168 
L 159.663636 367.30681 
L 199.118182 368.000295 
L 238.572727 347.59827 
L 278.027273 362.07131 
L 317.481818 342.379728 
L 356.936364 366.554419 
L 396.390909 344.560145 
L 435.845455 349.751018 
" clip-path="url(#p46442ebe57)" style="fill: none; stroke: #000000; stroke-opacity: 0.3; stroke-width: 1.5; stroke-linecap: round"/>
   </g>
   <g id="line2d_18">
    <path d="M 80.754545 422.551769 
L 120.209091 419.924202 
L 159.663636 418.125782 
L 199.118182 417.463535 
L 238.572727 416.229185 
L 278.027273 414.744039 
L 317.481818 414.025563 
L 356.936364 413.523077 
L 396.390909 413.325831 
L 435.845455 412.561837 
" clip-path="url(#p46442ebe57)" style="fill: none; stroke: #000000; stroke-opacity: 0.3; stroke-width: 1.5; stroke-linecap: round"/>
   </g>
   <g id="line2d_19">
    <path d="M 80.754545 428.191578 
L 120.209091 425.067772 
L 159.663636 422.71153 
L 199.118182 420.548963 
L 238.572727 418.613988 
L 278.027273 416.811106 
L 317.481818 415.196544 
L 356.936364 413.501656 
L 396.390909 412.097729 
L 435.845455 411.119531 
" clip-path="url(#p46442ebe57)" style="fill: none; stroke: #000000; stroke-opacity: 0.3; stroke-width: 1.5; stroke-linecap: round"/>
   </g>
   <g id="line2d_20">
    <path d="M 80.754545 423.488911 
L 120.209091 417.384994 
L 159.663636 412.690359 
L 199.118182 408.830227 
L 238.572727 405.577006 
L 278.027273 402.818239 
L 317.481818 400.553926 
L 356.936364 398.68232 
L 396.390909 397.390849 
L 435.845455 395.984243 
" clip-path="url(#p46442ebe57)" style="fill: none; stroke: #000000; stroke-opacity: 0.3; stroke-width: 1.5; stroke-linecap: round"/>
   </g>
   <g id="line2d_21">
    <path d="M 80.754545 429.732061 
L 120.209091 428.292433 
L 159.663636 427.178573 
L 199.118182 426.311047 
L 238.572727 425.548838 
L 278.027273 424.819653 
L 317.481818 424.223452 
L 356.936364 423.607616 
L 396.390909 422.999812 
L 435.845455 422.4527 
" clip-path="url(#p46442ebe57)" style="fill: none; stroke: #000000; stroke-opacity: 0.3; stroke-width: 1.5; stroke-linecap: round"/>
   </g>
   <g id="line2d_22">
    <path d="M 80.754545 429.611571 
L 120.209091 427.801549 
L 159.663636 426.577017 
L 199.118182 425.693426 
L 238.572727 424.94282 
L 278.027273 424.213634 
L 317.481818 423.462136 
L 356.936364 422.735628 
L 396.390909 422.191193 
L 435.845455 421.60124 
" clip-path="url(#p46442ebe57)" style="fill: none; stroke: #000000; stroke-opacity: 0.3; stroke-width: 1.5; stroke-linecap: round"/>
   </g>
   <g id="line2d_23">
    <path d="M 80.754545 429.906994 
L 120.209091 428.610168 
L 159.663636 427.73104 
L 199.118182 427.009887 
L 238.572727 426.325327 
L 278.027273 425.763042 
L 317.481818 425.256093 
L 356.936364 424.792877 
L 396.390909 424.307348 
L 435.845455 423.915534 
" clip-path="url(#p46442ebe57)" style="fill: none; stroke: #000000; stroke-opacity: 0.3; stroke-width: 1.5; stroke-linecap: round"/>
   </g>
   <g id="line2d_24">
    <path d="M 80.754545 416.720069 
L 120.209091 408.625841 
L 159.663636 403.934777 
L 199.118182 399.583761 
L 238.572727 398.100399 
L 278.027273 396.750022 
L 317.481818 394.921257 
L 356.936364 394.161726 
L 396.390909 392.533776 
L 435.845455 391.723372 
" clip-path="url(#p46442ebe57)" style="fill: none; stroke: #000000; stroke-opacity: 0.3; stroke-width: 1.5; stroke-linecap: round"/>
   </g>
   <g id="line2d_25">
    <path d="M 80.754545 429.325966 
L 120.209091 427.210703 
L 159.663636 425.596142 
L 199.118182 424.443903 
L 238.572727 423.429113 
L 278.027273 422.413429 
L 317.481818 421.560184 
L 356.936364 420.790835 
L 396.390909 420.233905 
L 435.845455 419.735881 
" clip-path="url(#p46442ebe57)" style="fill: none; stroke: #000000; stroke-opacity: 0.3; stroke-width: 1.5; stroke-linecap: round"/>
   </g>
   <g id="line2d_26">
    <path d="M 80.754545 427.563247 
L 120.209091 423.962837 
L 159.663636 421.270116 
L 199.118182 419.086129 
L 238.572727 417.091356 
L 278.027273 415.300076 
L 317.481818 413.769411 
L 356.936364 412.469015 
L 396.390909 411.224848 
L 435.845455 410.0976 
" clip-path="url(#p46442ebe57)" style="fill: none; stroke: #000000; stroke-opacity: 0.3; stroke-width: 1.5; stroke-linecap: round"/>
   </g>
   <g id="line2d_27">
    <path d="M 80.754545 422.836482 
L 120.209091 418.364084 
L 159.663636 417.01103 
L 199.118182 415.726699 
L 238.572727 414.496812 
L 278.027273 412.528814 
L 317.481818 410.458177 
L 356.936364 409.217579 
L 396.390909 407.387029 
L 435.845455 406.511471 
" clip-path="url(#p46442ebe57)" style="fill: none; stroke: #000000; stroke-opacity: 0.3; stroke-width: 1.5; stroke-linecap: round"/>
   </g>
   <g id="line2d_28">
    <path d="M 80.754545 422.004657 
L 120.209091 415.290259 
L 159.663636 410.548321 
L 199.118182 406.169637 
L 238.572727 402.699534 
L 278.027273 399.545383 
L 317.481818 396.711644 
L 356.936364 393.911821 
L 396.390909 391.174474 
L 435.845455 388.340736 
" clip-path="url(#p46442ebe57)" style="fill: none; stroke: #000000; stroke-opacity: 0.3; stroke-width: 1.5; stroke-linecap: round"/>
   </g>
   <g id="line2d_29">
    <path d="M 80.754545 429.584796 
L 120.209091 427.665886 
L 159.663636 426.266421 
L 199.118182 425.023146 
L 238.572727 423.895899 
L 278.027273 422.851655 
L 317.481818 421.817229 
L 356.936364 420.91311 
L 396.390909 420.081285 
L 435.845455 419.28159 
" clip-path="url(#p46442ebe57)" style="fill: none; stroke: #000000; stroke-opacity: 0.3; stroke-width: 1.5; stroke-linecap: round"/>
   </g>
   <g id="line2d_30">
    <path d="M 80.754545 421.804733 
L 120.209091 416.281844 
L 159.663636 413.109842 
L 199.118182 410.119913 
L 238.572727 407.143372 
L 278.027273 404.612196 
L 317.481818 402.303257 
L 356.936364 400.714579 
L 396.390909 399.107157 
L 435.845455 397.234658 
" clip-path="url(#p46442ebe57)" style="fill: none; stroke: #000000; stroke-opacity: 0.3; stroke-width: 1.5; stroke-linecap: round"/>
   </g>
   <g id="line2d_31">
    <path d="M 80.754545 427.218736 
L 120.209091 424.186859 
L 159.663636 421.935041 
L 199.118182 420.181247 
L 238.572727 418.725553 
L 278.027273 417.245761 
L 317.481818 416.162247 
L 356.936364 415.314357 
L 396.390909 414.263865 
L 435.845455 413.230331 
" clip-path="url(#p46442ebe57)" style="fill: none; stroke: #000000; stroke-opacity: 0.3; stroke-width: 1.5; stroke-linecap: round"/>
   </g>
   <g id="line2d_32">
    <path d="M 80.754545 429.607109 
L 120.209091 428.243344 
L 159.663636 427.369571 
L 199.118182 426.687689 
L 238.572727 426.087918 
L 278.027273 425.470297 
L 317.481818 424.911582 
L 356.936364 424.361792 
L 396.390909 423.879833 
L 435.845455 423.420187 
" clip-path="url(#p46442ebe57)" style="fill: none; stroke: #000000; stroke-opacity: 0.3; stroke-width: 1.5; stroke-linecap: round"/>
   </g>
   <g id="line2d_33">
    <path d="M 80.754545 423.377347 
L 120.209091 422.962327 
L 159.663636 423.185456 
L 199.118182 422.060885 
L 238.572727 422.56962 
L 278.027273 419.342282 
L 317.481818 418.68896 
L 356.936364 418.943327 
L 396.390909 417.286817 
L 435.845455 417.425157 
" clip-path="url(#p46442ebe57)" style="fill: none; stroke: #000000; stroke-opacity: 0.3; stroke-width: 1.5; stroke-linecap: round"/>
   </g>
   <g id="line2d_34">
    <path d="M 80.754545 423.557635 
L 120.209091 420.993436 
L 159.663636 418.613988 
L 199.118182 416.77005 
L 238.572727 416.08549 
L 278.027273 415.478579 
L 317.481818 414.582493 
L 356.936364 413.890793 
L 396.390909 413.670342 
L 435.845455 413.073249 
" clip-path="url(#p46442ebe57)" style="fill: none; stroke: #000000; stroke-opacity: 0.3; stroke-width: 1.5; stroke-linecap: round"/>
   </g>
   <g id="line2d_35">
    <path d="M 80.754545 429.059104 
L 120.209091 426.966154 
L 159.663636 425.450662 
L 199.118182 424.319844 
L 238.572727 423.347001 
L 278.027273 422.534812 
L 317.481818 421.840434 
L 356.936364 421.191575 
L 396.390909 420.552533 
L 435.845455 420.137513 
" clip-path="url(#p46442ebe57)" style="fill: none; stroke: #000000; stroke-opacity: 0.3; stroke-width: 1.5; stroke-linecap: round"/>
   </g>
   <g id="line2d_36">
    <path d="M 80.754545 430.92 
L 120.209091 430.499625 
L 159.663636 430.144404 
L 199.118182 429.952513 
L 238.572727 429.765977 
L 278.027273 429.633884 
L 317.481818 429.501792 
L 356.936364 429.382195 
L 396.390909 429.229575 
L 435.845455 429.10016 
" clip-path="url(#p46442ebe57)" style="fill: none; stroke: #000000; stroke-opacity: 0.3; stroke-width: 1.5; stroke-linecap: round"/>
   </g>
   <g id="line2d_37">
    <path d="M 80.754545 430.138156 
L 120.209091 429.171561 
L 159.663636 428.541445 
L 199.118182 427.872058 
L 238.572727 427.615013 
L 278.027273 427.009887 
L 317.481818 426.220903 
L 356.936364 425.604174 
L 396.390909 425.369443 
L 435.845455 425.029394 
" clip-path="url(#p46442ebe57)" style="fill: none; stroke: #000000; stroke-opacity: 0.3; stroke-width: 1.5; stroke-linecap: round"/>
   </g>
   <g id="line2d_38">
    <path d="M 80.754545 367.222913 
L 120.209091 358.389682 
L 159.663636 343.186563 
L 199.118182 333.167177 
L 238.572727 324.752536 
L 278.027273 320.901329 
L 317.481818 316.388768 
L 356.936364 306.022194 
L 396.390909 308.556939 
L 435.845455 304.465646 
" clip-path="url(#p46442ebe57)" style="fill: none; stroke: #000000; stroke-opacity: 0.3; stroke-width: 1.5; stroke-linecap: round"/>
   </g>
   <g id="line2d_39">
    <path d="M 80.754545 423.57727 
L 120.209091 419.909922 
L 159.663636 417.61794 
L 199.118182 415.703494 
L 238.572727 413.840812 
L 278.027273 412.229821 
L 317.481818 410.957986 
L 356.936364 409.678118 
L 396.390909 408.184938 
L 435.845455 407.005032 
" clip-path="url(#p46442ebe57)" style="fill: none; stroke: #000000; stroke-opacity: 0.3; stroke-width: 1.5; stroke-linecap: round"/>
   </g>
   <g id="line2d_40">
    <path d="M 80.754545 429.25278 
L 120.209091 427.952384 
L 159.663636 427.023275 
L 199.118182 426.419041 
L 238.572727 425.734482 
L 278.027273 425.274836 
L 317.481818 424.896409 
L 356.936364 424.367147 
L 396.390909 424.074402 
L 435.845455 423.739708 
" clip-path="url(#p46442ebe57)" style="fill: none; stroke: #000000; stroke-opacity: 0.3; stroke-width: 1.5; stroke-linecap: round"/>
   </g>
   <g id="line2d_41">
    <path d="M 80.754545 400.273676 
L 120.209091 380.860559 
L 159.663636 371.621232 
L 199.118182 368.331418 
L 238.572727 361.163621 
L 278.027273 350.388275 
L 317.481818 349.118225 
L 356.936364 344.803802 
L 396.390909 344.848428 
L 435.845455 341.823691 
" clip-path="url(#p46442ebe57)" style="fill: none; stroke: #000000; stroke-opacity: 0.3; stroke-width: 1.5; stroke-linecap: round"/>
   </g>
   <g id="line2d_42">
    <path d="M 80.754545 421.336162 
L 120.209091 413.550745 
L 159.663636 408.069804 
L 199.118182 403.510831 
L 238.572727 399.691755 
L 278.027273 395.845011 
L 317.481818 393.16657 
L 356.936364 390.354252 
L 396.390909 387.412519 
L 435.845455 385.936298 
" clip-path="url(#p46442ebe57)" style="fill: none; stroke: #000000; stroke-opacity: 0.3; stroke-width: 1.5; stroke-linecap: round"/>
   </g>
   <g id="line2d_43">
    <path d="M 80.754545 415.602639 
L 120.209091 404.868348 
L 159.663636 400.787765 
L 199.118182 398.347626 
L 238.572727 394.644577 
L 278.027273 386.140684 
L 317.481818 379.52714 
L 356.936364 377.361896 
L 396.390909 372.553912 
L 435.845455 374.522802 
" clip-path="url(#p46442ebe57)" style="fill: none; stroke: #000000; stroke-opacity: 0.3; stroke-width: 1.5; stroke-linecap: round"/>
   </g>
   <g id="line2d_44">
    <path d="M 80.754545 423.283632 
L 120.209091 417.640253 
L 159.663636 419.546668 
L 199.118182 419.389585 
L 238.572727 420.309769 
L 278.027273 420.695336 
L 317.481818 416.828956 
L 356.936364 416.003379 
L 396.390909 418.616666 
L 435.845455 416.014089 
" clip-path="url(#p46442ebe57)" style="fill: none; stroke: #000000; stroke-opacity: 0.3; stroke-width: 1.5; stroke-linecap: round"/>
   </g>
   <g id="line2d_45">
    <path d="M 80.754545 429.583903 
L 120.209091 427.612335 
L 159.663636 425.954041 
L 199.118182 424.196676 
L 238.572727 424.481389 
L 278.027273 424.567963 
L 317.481818 424.589384 
L 356.936364 423.265782 
L 396.390909 422.15817 
L 435.845455 421.855607 
" clip-path="url(#p46442ebe57)" style="fill: none; stroke: #000000; stroke-opacity: 0.3; stroke-width: 1.5; stroke-linecap: round"/>
   </g>
   <g id="line2d_46">
    <path d="M 80.754545 393.697617 
L 120.209091 379.174596 
L 159.663636 365.015721 
L 199.118182 354.585778 
L 238.572727 356.77869 
L 278.027273 357.911293 
L 317.481818 350.103562 
L 356.936364 363.691227 
L 396.390909 356.719784 
L 435.845455 355.22482 
" clip-path="url(#p46442ebe57)" style="fill: none; stroke: #000000; stroke-opacity: 0.3; stroke-width: 1.5; stroke-linecap: round"/>
   </g>
   <g id="line2d_47">
    <path d="M 80.754545 430.376458 
L 120.209091 428.705668 
L 159.663636 427.00721 
L 199.118182 426.224473 
L 238.572727 426.400299 
L 278.027273 426.699292 
L 317.481818 426.809963 
L 356.936364 426.46813 
L 396.390909 426.237861 
L 435.845455 425.912092 
" clip-path="url(#p46442ebe57)" style="fill: none; stroke: #000000; stroke-opacity: 0.3; stroke-width: 1.5; stroke-linecap: round"/>
   </g>
   <g id="line2d_48">
    <path d="M 80.754545 424.490314 
L 120.209091 422.851655 
L 159.663636 422.102834 
L 199.118182 421.073763 
L 238.572727 420.666775 
L 278.027273 420.299951 
L 317.481818 419.842091 
L 356.936364 419.782292 
L 396.390909 419.65734 
L 435.845455 419.432426 
" clip-path="url(#p46442ebe57)" style="fill: none; stroke: #000000; stroke-opacity: 0.3; stroke-width: 1.5; stroke-linecap: round"/>
   </g>
   <g id="line2d_49">
    <path d="M 80.754545 419.207512 
L 120.209091 415.035891 
L 159.663636 412.668939 
L 199.118182 409.462129 
L 238.572727 406.298159 
L 278.027273 404.373002 
L 317.481818 405.348522 
L 356.936364 405.643945 
L 396.390909 404.920114 
L 435.845455 406.430252 
" clip-path="url(#p46442ebe57)" style="fill: none; stroke: #000000; stroke-opacity: 0.3; stroke-width: 1.5; stroke-linecap: round"/>
   </g>
   <g id="line2d_50">
    <path d="M 80.754545 416.479982 
L 120.209091 407.988585 
L 159.663636 398.813519 
L 199.118182 394.781132 
L 238.572727 391.883132 
L 278.027273 390.813005 
L 317.481818 385.101795 
L 356.936364 385.374905 
L 396.390909 385.445414 
L 435.845455 392.293689 
" clip-path="url(#p46442ebe57)" style="fill: none; stroke: #000000; stroke-opacity: 0.3; stroke-width: 1.5; stroke-linecap: round"/>
   </g>
   <g id="line2d_51">
    <path d="M 80.754545 429.561591 
L 120.209091 428.503959 
L 159.663636 428.466473 
L 199.118182 428.148738 
L 238.572727 427.943459 
L 278.027273 427.938104 
L 317.481818 427.983622 
L 356.936364 427.726577 
L 396.390909 428.102327 
L 435.845455 427.837249 
" clip-path="url(#p46442ebe57)" style="fill: none; stroke: #000000; stroke-opacity: 0.3; stroke-width: 1.5; stroke-linecap: round"/>
   </g>
   <g id="line2d_52">
    <path d="M 80.754545 424.468894 
L 120.209091 420.241938 
L 159.663636 416.75934 
L 199.118182 413.602511 
L 238.572727 411.415846 
L 278.027273 409.677225 
L 317.481818 407.800264 
L 356.936364 406.004521 
L 396.390909 404.457791 
L 435.845455 403.327866 
" clip-path="url(#p46442ebe57)" style="fill: none; stroke: #000000; stroke-opacity: 0.3; stroke-width: 1.5; stroke-linecap: round"/>
   </g>
   <g id="line2d_53">
    <path d="M 80.754545 369.613071 
L 120.209091 350.51769 
L 159.663636 344.223666 
L 199.118182 332.527243 
L 238.572727 338.175978 
L 278.027273 318.518311 
L 317.481818 300.215484 
L 356.936364 305.972213 
L 396.390909 282.327677 
L 435.845455 294.581923 
" clip-path="url(#p46442ebe57)" style="fill: none; stroke: #000000; stroke-opacity: 0.3; stroke-width: 1.5; stroke-linecap: round"/>
   </g>
   <g id="line2d_54">
    <path d="M 80.754545 414.82258 
L 120.209091 407.809189 
L 159.663636 402.774506 
L 199.118182 398.239632 
L 238.572727 395.936048 
L 278.027273 395.568331 
L 317.481818 402.161347 
L 356.936364 402.1908 
L 396.390909 402.807529 
L 435.845455 396.821424 
" clip-path="url(#p46442ebe57)" style="fill: none; stroke: #000000; stroke-opacity: 0.3; stroke-width: 1.5; stroke-linecap: round"/>
   </g>
   <g id="line2d_55">
    <path d="M 80.754545 428.600351 
L 120.209091 426.707324 
L 159.663636 425.21236 
L 199.118182 424.500132 
L 238.572727 423.306838 
L 278.027273 423.456781 
L 317.481818 423.384487 
L 356.936364 422.671366 
L 396.390909 422.133179 
L 435.845455 422.589255 
" clip-path="url(#p46442ebe57)" style="fill: none; stroke: #000000; stroke-opacity: 0.3; stroke-width: 1.5; stroke-linecap: round"/>
   </g>
   <g id="line2d_56">
    <path d="M 80.754545 428.283508 
L 120.209091 427.673027 
L 159.663636 426.515433 
L 199.118182 426.316402 
L 238.572727 425.862111 
L 278.027273 425.395326 
L 317.481818 424.700948 
L 356.936364 424.409095 
L 396.390909 424.816083 
L 435.845455 424.468894 
" clip-path="url(#p46442ebe57)" style="fill: none; stroke: #000000; stroke-opacity: 0.3; stroke-width: 1.5; stroke-linecap: round"/>
   </g>
   <g id="line2d_57">
    <path d="M 80.754545 393.002347 
L 120.209091 379.28259 
L 159.663636 377.502913 
L 199.118182 378.737263 
L 238.572727 373.906966 
L 278.027273 367.054228 
L 317.481818 364.876488 
L 356.936364 361.247518 
L 396.390909 357.07679 
L 435.845455 351.47893 
" clip-path="url(#p46442ebe57)" style="fill: none; stroke: #000000; stroke-opacity: 0.3; stroke-width: 1.5; stroke-linecap: round"/>
   </g>
   <g id="line2d_58">
    <path d="M 80.754545 422.113544 
L 120.209091 420.578416 
L 159.663636 420.746209 
L 199.118182 417.432297 
L 238.572727 414.748501 
L 278.027273 411.515808 
L 317.481818 409.38805 
L 356.936364 406.722997 
L 396.390909 400.91361 
L 435.845455 406.608755 
" clip-path="url(#p46442ebe57)" style="fill: none; stroke: #000000; stroke-opacity: 0.3; stroke-width: 1.5; stroke-linecap: round"/>
   </g>
   <g id="line2d_59">
    <path d="M 80.754545 415.20547 
L 120.209091 397.539006 
L 159.663636 385.079482 
L 199.118182 378.962177 
L 238.572727 371.924688 
L 278.027273 369.911171 
L 317.481818 363.715325 
L 356.936364 359.156353 
L 396.390909 352.296474 
L 435.845455 344.302208 
" clip-path="url(#p46442ebe57)" style="fill: none; stroke: #000000; stroke-opacity: 0.3; stroke-width: 1.5; stroke-linecap: round"/>
   </g>
   <g id="line2d_60">
    <path d="M 80.754545 370.489522 
L 120.209091 334.96292 
L 159.663636 294.367719 
L 199.118182 270.841888 
L 238.572727 269.413862 
L 278.027273 254.789986 
L 317.481818 262.572726 
L 356.936364 222.527315 
L 396.390909 235.744586 
L 435.845455 208.78703 
" clip-path="url(#p46442ebe57)" style="fill: none; stroke: #000000; stroke-opacity: 0.3; stroke-width: 1.5; stroke-linecap: round"/>
   </g>
   <g id="line2d_61">
    <path d="M 80.754545 419.597541 
L 120.209091 414.68067 
L 159.663636 411.08383 
L 199.118182 410.092245 
L 238.572727 408.770429 
L 278.027273 405.269088 
L 317.481818 405.797458 
L 356.936364 406.23122 
L 396.390909 407.059475 
L 435.845455 404.048126 
" clip-path="url(#p46442ebe57)" style="fill: none; stroke: #000000; stroke-opacity: 0.3; stroke-width: 1.5; stroke-linecap: round"/>
   </g>
   <g id="line2d_62">
    <path d="M 80.754545 428.893096 
L 120.209091 426.647526 
L 159.663636 425.083837 
L 199.118182 424.587598 
L 238.572727 423.283632 
L 278.027273 422.005549 
L 317.481818 420.132158 
L 356.936364 419.546668 
L 396.390909 418.713058 
L 435.845455 417.667029 
" clip-path="url(#p46442ebe57)" style="fill: none; stroke: #000000; stroke-opacity: 0.3; stroke-width: 1.5; stroke-linecap: round"/>
   </g>
   <g id="line2d_63">
    <path d="M 80.754545 387.172432 
L 120.209091 366.215262 
L 159.663636 358.121034 
L 199.118182 355.737124 
L 238.572727 344.811835 
L 278.027273 340.52508 
L 317.481818 335.053956 
L 356.936364 337.214738 
L 396.390909 331.499957 
L 435.845455 331.634727 
" clip-path="url(#p46442ebe57)" style="fill: none; stroke: #000000; stroke-opacity: 0.3; stroke-width: 1.5; stroke-linecap: round"/>
   </g>
   <g id="line2d_64">
    <path d="M 80.754545 407.048765 
L 120.209091 387.911436 
L 159.663636 379.57355 
L 199.118182 372.273662 
L 238.572727 366.283094 
L 278.027273 360.9396 
L 317.481818 373.725785 
L 356.936364 364.383819 
L 396.390909 363.229796 
L 435.845455 362.145389 
" clip-path="url(#p46442ebe57)" style="fill: none; stroke: #000000; stroke-opacity: 0.3; stroke-width: 1.5; stroke-linecap: round"/>
   </g>
   <g id="line2d_65">
    <path d="M 80.754545 382.323392 
L 120.209091 378.942542 
L 159.663636 342.952724 
L 199.118182 346.496012 
L 238.572727 336.137471 
L 278.027273 338.567792 
L 317.481818 338.695422 
L 356.936364 297.334442 
L 396.390909 315.551588 
L 435.845455 343.397197 
" clip-path="url(#p46442ebe57)" style="fill: none; stroke: #000000; stroke-opacity: 0.3; stroke-width: 1.5; stroke-linecap: round"/>
   </g>
   <g id="line2d_66">
    <path d="M 80.754545 422.369696 
L 120.209091 416.992287 
L 159.663636 415.017149 
L 199.118182 410.841958 
L 238.572727 407.46914 
L 278.027273 404.592561 
L 317.481818 398.815304 
L 356.936364 395.826268 
L 396.390909 391.566289 
L 435.845455 388.262194 
" clip-path="url(#p46442ebe57)" style="fill: none; stroke: #000000; stroke-opacity: 0.3; stroke-width: 1.5; stroke-linecap: round"/>
   </g>
   <g id="line2d_67">
    <path d="M 80.754545 409.947657 
L 120.209091 393.4254 
L 159.663636 385.50075 
L 199.118182 381.714697 
L 238.572727 377.453825 
L 278.027273 375.674148 
L 317.481818 375.360875 
L 356.936364 378.661399 
L 396.390909 378.858645 
L 435.845455 375.310894 
" clip-path="url(#p46442ebe57)" style="fill: none; stroke: #000000; stroke-opacity: 0.3; stroke-width: 1.5; stroke-linecap: round"/>
   </g>
   <g id="line2d_68">
    <path d="M 80.754545 416.422861 
L 120.209091 404.519375 
L 159.663636 397.394419 
L 199.118182 395.287188 
L 238.572727 387.681166 
L 278.027273 384.164653 
L 317.481818 381.392498 
L 356.936364 377.099496 
L 396.390909 376.545243 
L 435.845455 376.308727 
" clip-path="url(#p46442ebe57)" style="fill: none; stroke: #000000; stroke-opacity: 0.3; stroke-width: 1.5; stroke-linecap: round"/>
   </g>
   <g id="line2d_69">
    <path d="M 80.754545 428.110359 
L 120.209091 425.998666 
L 159.663636 423.556742 
L 199.118182 420.953273 
L 238.572727 416.989609 
L 278.027273 413.976475 
L 317.481818 411.174867 
L 356.936364 406.767623 
L 396.390909 402.540667 
L 435.845455 399.24282 
" clip-path="url(#p46442ebe57)" style="fill: none; stroke: #000000; stroke-opacity: 0.3; stroke-width: 1.5; stroke-linecap: round"/>
   </g>
   <g id="line2d_70">
    <path d="M 80.754545 401.74365 
L 120.209091 387.268824 
L 159.663636 378.922014 
L 199.118182 374.902121 
L 238.572727 370.696586 
L 278.027273 368.020822 
L 317.481818 363.32708 
L 356.936364 358.446803 
L 396.390909 357.331157 
L 435.845455 354.138627 
" clip-path="url(#p46442ebe57)" style="fill: none; stroke: #000000; stroke-opacity: 0.3; stroke-width: 1.5; stroke-linecap: round"/>
   </g>
   <g id="line2d_71">
    <path d="M 80.754545 421.581604 
L 120.209091 412.753728 
L 159.663636 407.137124 
L 199.118182 402.33985 
L 238.572727 397.768383 
L 278.027273 392.57751 
L 317.481818 388.912839 
L 356.936364 385.589109 
L 396.390909 384.062014 
L 435.845455 381.720944 
" clip-path="url(#p46442ebe57)" style="fill: none; stroke: #000000; stroke-opacity: 0.3; stroke-width: 1.5; stroke-linecap: round"/>
   </g>
   <g id="line2d_72">
    <path d="M 80.754545 397.813009 
L 120.209091 367.183642 
L 159.663636 353.424615 
L 199.118182 327.824576 
L 238.572727 293.626038 
L 278.027273 282.831056 
L 317.481818 237.580491 
L 356.936364 228.674966 
L 396.390909 186.483946 
L 435.845455 170.431152 
" clip-path="url(#p46442ebe57)" style="fill: none; stroke: #000000; stroke-opacity: 0.3; stroke-width: 1.5; stroke-linecap: round"/>
   </g>
   <g id="line2d_73">
    <path d="M 80.754545 428.222816 
L 120.209091 425.564011 
L 159.663636 423.704008 
L 199.118182 421.677996 
L 238.572727 419.445813 
L 278.027273 417.674169 
L 317.481818 416.401441 
L 356.936364 415.569616 
L 396.390909 414.429873 
L 435.845455 414.307598 
" clip-path="url(#p46442ebe57)" style="fill: none; stroke: #000000; stroke-opacity: 0.3; stroke-width: 1.5; stroke-linecap: round"/>
   </g>
   <g id="line2d_74">
    <path d="M 80.754545 391.32531 
L 120.209091 376.347997 
L 159.663636 374.085469 
L 199.118182 364.186573 
L 238.572727 361.77678 
L 278.027273 365.014828 
L 317.481818 359.053713 
L 356.936364 363.251217 
L 396.390909 363.18517 
L 435.845455 353.554922 
" clip-path="url(#p46442ebe57)" style="fill: none; stroke: #000000; stroke-opacity: 0.3; stroke-width: 1.5; stroke-linecap: round"/>
   </g>
   <g id="line2d_75">
    <path d="M 80.754545 416.421076 
L 120.209091 406.503438 
L 159.663636 399.932735 
L 199.118182 393.398624 
L 238.572727 385.645337 
L 278.027273 383.123979 
L 317.481818 376.472057 
L 356.936364 372.167452 
L 396.390909 375.762507 
L 435.845455 378.571255 
" clip-path="url(#p46442ebe57)" style="fill: none; stroke: #000000; stroke-opacity: 0.3; stroke-width: 1.5; stroke-linecap: round"/>
   </g>
   <g id="line2d_76">
    <path d="M 80.754545 365.581576 
L 120.209091 362.549699 
L 159.663636 342.034325 
L 199.118182 345.417853 
L 238.572727 342.597502 
L 278.027273 352.403576 
L 317.481818 348.72641 
L 356.936364 330.297738 
L 396.390909 357.719402 
L 435.845455 348.640728 
" clip-path="url(#p46442ebe57)" style="fill: none; stroke: #000000; stroke-opacity: 0.3; stroke-width: 1.5; stroke-linecap: round"/>
   </g>
   <g id="line2d_77">
    <path d="M 80.754545 421.187112 
L 120.209091 411.902268 
L 159.663636 404.275718 
L 199.118182 398.236061 
L 238.572727 393.038048 
L 278.027273 386.35221 
L 317.481818 380.784695 
L 356.936364 376.270348 
L 396.390909 373.069786 
L 435.845455 370.553783 
" clip-path="url(#p46442ebe57)" style="fill: none; stroke: #000000; stroke-opacity: 0.3; stroke-width: 1.5; stroke-linecap: round"/>
   </g>
   <g id="line2d_78">
    <path d="M 80.754545 420.10092 
L 120.209091 413.998788 
L 159.663636 410.794655 
L 199.118182 409.205977 
L 238.572727 406.971116 
L 278.027273 406.316902 
L 317.481818 406.826529 
L 356.936364 404.781774 
L 396.390909 405.435096 
L 435.845455 403.739316 
" clip-path="url(#p46442ebe57)" style="fill: none; stroke: #000000; stroke-opacity: 0.3; stroke-width: 1.5; stroke-linecap: round"/>
   </g>
   <g id="line2d_79">
    <path d="M 80.754545 412.071846 
L 120.209091 396.960656 
L 159.663636 384.616266 
L 199.118182 371.328487 
L 238.572727 366.527643 
L 278.027273 363.892043 
L 317.481818 358.834155 
L 356.936364 346.265743 
L 396.390909 341.513095 
L 435.845455 328.788494 
" clip-path="url(#p46442ebe57)" style="fill: none; stroke: #000000; stroke-opacity: 0.3; stroke-width: 1.5; stroke-linecap: round"/>
   </g>
   <g id="line2d_80">
    <path d="M 80.754545 300.040551 
L 120.209091 214.46968 
L 159.663636 183.364603 
L 199.118182 137.070686 
L 238.572727 107.038413 
L 278.027273 121.603383 
L 317.481818 152.150638 
L 356.936364 78.12 
L 396.390909 101.445908 
L 435.845455 92.906314 
" clip-path="url(#p46442ebe57)" style="fill: none; stroke: #000000; stroke-opacity: 0.3; stroke-width: 1.5; stroke-linecap: round"/>
   </g>
   <g id="line2d_81">
    <path d="M 80.754545 375.258235 
L 120.209091 345.175981 
L 159.663636 325.364802 
L 199.118182 311.913692 
L 238.572727 295.68418 
L 278.027273 271.084652 
L 317.481818 166.233649 
L 356.936364 147.789804 
L 396.390909 163.25443 
L 435.845455 150.080001 
" clip-path="url(#p46442ebe57)" style="fill: none; stroke: #000000; stroke-opacity: 0.3; stroke-width: 1.5; stroke-linecap: round"/>
   </g>
   <g id="line2d_82">
    <path d="M 80.754545 425.888887 
L 120.209091 422.638343 
L 159.663636 422.330425 
L 199.118182 423.653134 
L 238.572727 422.367911 
L 278.027273 421.4986 
L 317.481818 418.559545 
L 356.936364 419.755516 
L 396.390909 420.147331 
L 435.845455 419.476159 
" clip-path="url(#p46442ebe57)" style="fill: none; stroke: #000000; stroke-opacity: 0.3; stroke-width: 1.5; stroke-linecap: round"/>
   </g>
   <g id="line2d_83">
    <path d="M 80.754545 418.195398 
L 120.209091 409.172953 
L 159.663636 400.171929 
L 199.118182 392.550734 
L 238.572727 386.587834 
L 278.027273 382.185052 
L 317.481818 383.064181 
L 356.936364 381.392498 
L 396.390909 377.666244 
L 435.845455 376.145396 
" clip-path="url(#p46442ebe57)" style="fill: none; stroke: #000000; stroke-opacity: 0.3; stroke-width: 1.5; stroke-linecap: round"/>
   </g>
   <g id="line2d_84">
    <path d="M 80.754545 426.404761 
L 120.209091 424.725938 
L 159.663636 423.331828 
L 199.118182 422.70082 
L 238.572727 421.067515 
L 278.027273 421.896663 
L 317.481818 421.171047 
L 356.936364 421.371863 
L 396.390909 419.611821 
L 435.845455 419.565411 
" clip-path="url(#p46442ebe57)" style="fill: none; stroke: #000000; stroke-opacity: 0.3; stroke-width: 1.5; stroke-linecap: round"/>
   </g>
   <g id="line2d_85">
    <path d="M 80.754545 427.802441 
L 120.209091 424.443011 
L 159.663636 421.711019 
L 199.118182 419.427963 
L 238.572727 417.966022 
L 278.027273 416.851269 
L 317.481818 415.915912 
L 356.936364 414.868098 
L 396.390909 413.195523 
L 435.845455 412.430637 
" clip-path="url(#p46442ebe57)" style="fill: none; stroke: #000000; stroke-opacity: 0.3; stroke-width: 1.5; stroke-linecap: round"/>
   </g>
   <g id="line2d_86">
    <path d="M 80.754545 353.347858 
L 120.209091 339.158638 
L 159.663636 319.766049 
L 199.118182 283.681624 
L 238.572727 331.034064 
L 278.027273 327.995939 
L 317.481818 336.596224 
L 356.936364 288.469973 
L 396.390909 310.507979 
L 435.845455 268.112573 
" clip-path="url(#p46442ebe57)" style="fill: none; stroke: #000000; stroke-opacity: 0.3; stroke-width: 1.5; stroke-linecap: round"/>
   </g>
   <g id="line2d_87">
    <path d="M 80.754545 380.428581 
L 120.209091 382.271627 
L 159.663636 337.428942 
L 199.118182 344.916259 
L 238.572727 327.394383 
L 278.027273 316.106733 
L 317.481818 339.091699 
L 356.936364 348.695172 
L 396.390909 354.843715 
L 435.845455 357.772953 
" clip-path="url(#p46442ebe57)" style="fill: none; stroke: #000000; stroke-opacity: 0.3; stroke-width: 1.5; stroke-linecap: round"/>
   </g>
   <g id="patch_3">
    <path d="M 63 448.56 
L 63 60.48 
" style="fill: none; stroke: #262626; stroke-width: 1.25; stroke-linejoin: miter; stroke-linecap: square"/>
   </g>
   <g id="patch_4">
    <path d="M 453.6 448.56 
L 453.6 60.48 
" style="fill: none; stroke: #262626; stroke-width: 1.25; stroke-linejoin: miter; stroke-linecap: square"/>
   </g>
   <g id="patch_5">
    <path d="M 63 448.56 
L 453.6 448.56 
" style="fill: none; stroke: #262626; stroke-width: 1.25; stroke-linejoin: miter; stroke-linecap: square"/>
   </g>
   <g id="patch_6">
    <path d="M 63 60.48 
L 453.6 60.48 
" style="fill: none; stroke: #262626; stroke-width: 1.25; stroke-linejoin: miter; stroke-linecap: square"/>
   </g>
   <g id="text_17">
    <!-- iMSDs -->
    <g style="fill: #262626" transform="translate(228.85625 54.48) scale(0.2 -0.2)">
     <defs>
      <path id="ArialMT-73" d="M 197 991 
L 753 1078 
Q 800 744 1014 566 
Q 1228 388 1613 388 
Q 2000 388 2187 545 
Q 2375 703 2375 916 
Q 2375 1106 2209 1216 
Q 2094 1291 1634 1406 
Q 1016 1563 777 1677 
Q 538 1791 414 1992 
Q 291 2194 291 2438 
Q 291 2659 392 2848 
Q 494 3038 669 3163 
Q 800 3259 1026 3326 
Q 1253 3394 1513 3394 
Q 1903 3394 2198 3281 
Q 2494 3169 2634 2976 
Q 2775 2784 2828 2463 
L 2278 2388 
Q 2241 2644 2061 2787 
Q 1881 2931 1553 2931 
Q 1166 2931 1000 2803 
Q 834 2675 834 2503 
Q 834 2394 903 2306 
Q 972 2216 1119 2156 
Q 1203 2125 1616 2013 
Q 2213 1853 2448 1751 
Q 2684 1650 2818 1456 
Q 2953 1263 2953 975 
Q 2953 694 2789 445 
Q 2625 197 2315 61 
Q 2006 -75 1616 -75 
Q 969 -75 630 194 
Q 291 463 197 991 
z
" transform="scale(0.015625)"/>
     </defs>
     <use xlink:href="#ArialMT-69"/>
     <use xlink:href="#ArialMT-4d" x="22.216797"/>
     <use xlink:href="#ArialMT-53" x="105.517578"/>
     <use xlink:href="#ArialMT-44" x="172.216797"/>
     <use xlink:href="#ArialMT-73" x="244.433594"/>
    </g>
   </g>
  </g>
 </g>
 <defs>
  <clipPath id="p46442ebe57">
   <rect x="63" y="60.48" width="390.6" height="388.08"/>
  </clipPath>
 </defs>
</svg>
