<?xml version="1.0" encoding="utf-8" standalone="no"?>
<!DOCTYPE svg PUBLIC "-//W3C//DTD SVG 1.1//EN"
  "http://www.w3.org/Graphics/SVG/1.1/DTD/svg11.dtd">
<svg xmlns:xlink="http://www.w3.org/1999/xlink" width="504pt" height="504pt" viewBox="0 0 504 504" xmlns="http://www.w3.org/2000/svg" version="1.1">
 <metadata>
  <rdf:RDF xmlns:dc="http://purl.org/dc/elements/1.1/" xmlns:cc="http://creativecommons.org/ns#" xmlns:rdf="http://www.w3.org/1999/02/22-rdf-syntax-ns#">
   <cc:Work>
    <dc:type rdf:resource="http://purl.org/dc/dcmitype/StillImage"/>
    <dc:date>2025-06-03T12:40:14.498676</dc:date>
    <dc:format>image/svg+xml</dc:format>
    <dc:creator>
     <cc:Agent>
      <dc:title>Matplotlib v3.8.0, https://matplotlib.org/</dc:title>
     </cc:Agent>
    </dc:creator>
   </cc:Work>
  </rdf:RDF>
 </metadata>
 <defs>
  <style type="text/css">*{stroke-linejoin: round; stroke-linecap: butt}</style>
 </defs>
 <g id="figure_1">
  <g id="patch_1">
   <path d="M 0 504 
L 504 504 
L 504 0 
L 0 0 
z
" style="fill: #ffffff"/>
  </g>
  <g id="axes_1">
   <g id="patch_2">
    <path d="M 63 448.56 
L 453.6 448.56 
L 453.6 60.48 
L 63 60.48 
z
" style="fill: #ffffff"/>
   </g>
   <g id="matplotlib.axis_1">
    <g id="xtick_1">
     <g id="line2d_1">
      <defs>
       <path id="m58bdea0020" d="M 0 0 
L 0 5 
" style="stroke: #262626; stroke-width: 0.8"/>
      </defs>
      <g>
       <use xlink:href="#m58bdea0020" x="120.209091" y="448.56" style="fill: #262626; stroke: #262626; stroke-width: 0.8"/>
      </g>
     </g>
     <g id="text_1">
      <!-- 0.1 -->
      <g style="fill: #262626" transform="translate(110.479091 467.080938) scale(0.14 -0.14)">
       <defs>
        <path id="ArialMT-30" d="M 266 2259 
Q 266 3072 433 3567 
Q 600 4063 929 4331 
Q 1259 4600 1759 4600 
Q 2128 4600 2406 4451 
Q 2684 4303 2865 4023 
Q 3047 3744 3150 3342 
Q 3253 2941 3253 2259 
Q 3253 1453 3087 958 
Q 2922 463 2592 192 
Q 2263 -78 1759 -78 
Q 1097 -78 719 397 
Q 266 969 266 2259 
z
M 844 2259 
Q 844 1131 1108 757 
Q 1372 384 1759 384 
Q 2147 384 2411 759 
Q 2675 1134 2675 2259 
Q 2675 3391 2411 3762 
Q 2147 4134 1753 4134 
Q 1366 4134 1134 3806 
Q 844 3388 844 2259 
z
" transform="scale(0.015625)"/>
        <path id="ArialMT-2e" d="M 581 0 
L 581 641 
L 1222 641 
L 1222 0 
L 581 0 
z
" transform="scale(0.015625)"/>
        <path id="ArialMT-31" d="M 2384 0 
L 1822 0 
L 1822 3584 
Q 1619 3391 1289 3197 
Q 959 3003 697 2906 
L 697 3450 
Q 1169 3672 1522 3987 
Q 1875 4303 2022 4600 
L 2384 4600 
L 2384 0 
z
" transform="scale(0.015625)"/>
       </defs>
       <use xlink:href="#ArialMT-30"/>
       <use xlink:href="#ArialMT-2e" x="55.615234"/>
       <use xlink:href="#ArialMT-31" x="83.398438"/>
      </g>
     </g>
    </g>
    <g id="xtick_2">
     <g id="line2d_2">
      <g>
       <use xlink:href="#m58bdea0020" x="199.118182" y="448.56" style="fill: #262626; stroke: #262626; stroke-width: 0.8"/>
      </g>
     </g>
     <g id="text_2">
      <!-- 0.2 -->
      <g style="fill: #262626" transform="translate(189.388182 467.080938) scale(0.14 -0.14)">
       <defs>
        <path id="ArialMT-32" d="M 3222 541 
L 3222 0 
L 194 0 
Q 188 203 259 391 
Q 375 700 629 1000 
Q 884 1300 1366 1694 
Q 2113 2306 2375 2664 
Q 2638 3022 2638 3341 
Q 2638 3675 2398 3904 
Q 2159 4134 1775 4134 
Q 1369 4134 1125 3890 
Q 881 3647 878 3216 
L 300 3275 
Q 359 3922 746 4261 
Q 1134 4600 1788 4600 
Q 2447 4600 2831 4234 
Q 3216 3869 3216 3328 
Q 3216 3053 3103 2787 
Q 2991 2522 2730 2228 
Q 2469 1934 1863 1422 
Q 1356 997 1212 845 
Q 1069 694 975 541 
L 3222 541 
z
" transform="scale(0.015625)"/>
       </defs>
       <use xlink:href="#ArialMT-30"/>
       <use xlink:href="#ArialMT-2e" x="55.615234"/>
       <use xlink:href="#ArialMT-32" x="83.398438"/>
      </g>
     </g>
    </g>
    <g id="xtick_3">
     <g id="line2d_3">
      <g>
       <use xlink:href="#m58bdea0020" x="278.027273" y="448.56" style="fill: #262626; stroke: #262626; stroke-width: 0.8"/>
      </g>
     </g>
     <g id="text_3">
      <!-- 0.3 -->
      <g style="fill: #262626" transform="translate(268.297273 467.080938) scale(0.14 -0.14)">
       <defs>
        <path id="ArialMT-33" d="M 269 1209 
L 831 1284 
Q 928 806 1161 595 
Q 1394 384 1728 384 
Q 2125 384 2398 659 
Q 2672 934 2672 1341 
Q 2672 1728 2419 1979 
Q 2166 2231 1775 2231 
Q 1616 2231 1378 2169 
L 1441 2663 
Q 1497 2656 1531 2656 
Q 1891 2656 2178 2843 
Q 2466 3031 2466 3422 
Q 2466 3731 2256 3934 
Q 2047 4138 1716 4138 
Q 1388 4138 1169 3931 
Q 950 3725 888 3313 
L 325 3413 
Q 428 3978 793 4289 
Q 1159 4600 1703 4600 
Q 2078 4600 2393 4439 
Q 2709 4278 2876 4000 
Q 3044 3722 3044 3409 
Q 3044 3113 2884 2869 
Q 2725 2625 2413 2481 
Q 2819 2388 3044 2092 
Q 3269 1797 3269 1353 
Q 3269 753 2831 336 
Q 2394 -81 1725 -81 
Q 1122 -81 723 278 
Q 325 638 269 1209 
z
" transform="scale(0.015625)"/>
       </defs>
       <use xlink:href="#ArialMT-30"/>
       <use xlink:href="#ArialMT-2e" x="55.615234"/>
       <use xlink:href="#ArialMT-33" x="83.398438"/>
      </g>
     </g>
    </g>
    <g id="xtick_4">
     <g id="line2d_4">
      <g>
       <use xlink:href="#m58bdea0020" x="356.936364" y="448.56" style="fill: #262626; stroke: #262626; stroke-width: 0.8"/>
      </g>
     </g>
     <g id="text_4">
      <!-- 0.4 -->
      <g style="fill: #262626" transform="translate(347.206364 467.080938) scale(0.14 -0.14)">
       <defs>
        <path id="ArialMT-34" d="M 2069 0 
L 2069 1097 
L 81 1097 
L 81 1613 
L 2172 4581 
L 2631 4581 
L 2631 1613 
L 3250 1613 
L 3250 1097 
L 2631 1097 
L 2631 0 
L 2069 0 
z
M 2069 1613 
L 2069 3678 
L 634 1613 
L 2069 1613 
z
" transform="scale(0.015625)"/>
       </defs>
       <use xlink:href="#ArialMT-30"/>
       <use xlink:href="#ArialMT-2e" x="55.615234"/>
       <use xlink:href="#ArialMT-34" x="83.398438"/>
      </g>
     </g>
    </g>
    <g id="xtick_5">
     <g id="line2d_5">
      <g>
       <use xlink:href="#m58bdea0020" x="435.845455" y="448.56" style="fill: #262626; stroke: #262626; stroke-width: 0.8"/>
      </g>
     </g>
     <g id="text_5">
      <!-- 0.5 -->
      <g style="fill: #262626" transform="translate(426.115455 467.080938) scale(0.14 -0.14)">
       <defs>
        <path id="ArialMT-35" d="M 266 1200 
L 856 1250 
Q 922 819 1161 601 
Q 1400 384 1738 384 
Q 2144 384 2425 690 
Q 2706 997 2706 1503 
Q 2706 1984 2436 2262 
Q 2166 2541 1728 2541 
Q 1456 2541 1237 2417 
Q 1019 2294 894 2097 
L 366 2166 
L 809 4519 
L 3088 4519 
L 3088 3981 
L 1259 3981 
L 1013 2750 
Q 1425 3038 1878 3038 
Q 2478 3038 2890 2622 
Q 3303 2206 3303 1553 
Q 3303 931 2941 478 
Q 2500 -78 1738 -78 
Q 1113 -78 717 272 
Q 322 622 266 1200 
z
" transform="scale(0.015625)"/>
       </defs>
       <use xlink:href="#ArialMT-30"/>
       <use xlink:href="#ArialMT-2e" x="55.615234"/>
       <use xlink:href="#ArialMT-35" x="83.398438"/>
      </g>
     </g>
    </g>
    <g id="text_6">
     <!-- lag time $t (s)$ -->
     <g style="fill: #262626" transform="translate(214.46 486.023438) scale(0.16 -0.16)">
      <defs>
       <path id="ArialMT-6c" d="M 409 0 
L 409 4581 
L 972 4581 
L 972 0 
L 409 0 
z
" transform="scale(0.015625)"/>
       <path id="ArialMT-61" d="M 2588 409 
Q 2275 144 1986 34 
Q 1697 -75 1366 -75 
Q 819 -75 525 192 
Q 231 459 231 875 
Q 231 1119 342 1320 
Q 453 1522 633 1644 
Q 813 1766 1038 1828 
Q 1203 1872 1538 1913 
Q 2219 1994 2541 2106 
Q 2544 2222 2544 2253 
Q 2544 2597 2384 2738 
Q 2169 2928 1744 2928 
Q 1347 2928 1158 2789 
Q 969 2650 878 2297 
L 328 2372 
Q 403 2725 575 2942 
Q 747 3159 1072 3276 
Q 1397 3394 1825 3394 
Q 2250 3394 2515 3294 
Q 2781 3194 2906 3042 
Q 3031 2891 3081 2659 
Q 3109 2516 3109 2141 
L 3109 1391 
Q 3109 606 3145 398 
Q 3181 191 3288 0 
L 2700 0 
Q 2613 175 2588 409 
z
M 2541 1666 
Q 2234 1541 1622 1453 
Q 1275 1403 1131 1340 
Q 988 1278 909 1158 
Q 831 1038 831 891 
Q 831 666 1001 516 
Q 1172 366 1500 366 
Q 1825 366 2078 508 
Q 2331 650 2450 897 
Q 2541 1088 2541 1459 
L 2541 1666 
z
" transform="scale(0.015625)"/>
       <path id="ArialMT-67" d="M 319 -275 
L 866 -356 
Q 900 -609 1056 -725 
Q 1266 -881 1628 -881 
Q 2019 -881 2231 -725 
Q 2444 -569 2519 -288 
Q 2563 -116 2559 434 
Q 2191 0 1641 0 
Q 956 0 581 494 
Q 206 988 206 1678 
Q 206 2153 378 2554 
Q 550 2956 876 3175 
Q 1203 3394 1644 3394 
Q 2231 3394 2613 2919 
L 2613 3319 
L 3131 3319 
L 3131 450 
Q 3131 -325 2973 -648 
Q 2816 -972 2473 -1159 
Q 2131 -1347 1631 -1347 
Q 1038 -1347 672 -1080 
Q 306 -813 319 -275 
z
M 784 1719 
Q 784 1066 1043 766 
Q 1303 466 1694 466 
Q 2081 466 2343 764 
Q 2606 1063 2606 1700 
Q 2606 2309 2336 2618 
Q 2066 2928 1684 2928 
Q 1309 2928 1046 2623 
Q 784 2319 784 1719 
z
" transform="scale(0.015625)"/>
       <path id="ArialMT-20" transform="scale(0.015625)"/>
       <path id="ArialMT-74" d="M 1650 503 
L 1731 6 
Q 1494 -44 1306 -44 
Q 1000 -44 831 53 
Q 663 150 594 308 
Q 525 466 525 972 
L 525 2881 
L 113 2881 
L 113 3319 
L 525 3319 
L 525 4141 
L 1084 4478 
L 1084 3319 
L 1650 3319 
L 1650 2881 
L 1084 2881 
L 1084 941 
Q 1084 700 1114 631 
Q 1144 563 1211 522 
Q 1278 481 1403 481 
Q 1497 481 1650 503 
z
" transform="scale(0.015625)"/>
       <path id="ArialMT-69" d="M 425 3934 
L 425 4581 
L 988 4581 
L 988 3934 
L 425 3934 
z
M 425 0 
L 425 3319 
L 988 3319 
L 988 0 
L 425 0 
z
" transform="scale(0.015625)"/>
       <path id="ArialMT-6d" d="M 422 0 
L 422 3319 
L 925 3319 
L 925 2853 
Q 1081 3097 1340 3245 
Q 1600 3394 1931 3394 
Q 2300 3394 2536 3241 
Q 2772 3088 2869 2813 
Q 3263 3394 3894 3394 
Q 4388 3394 4653 3120 
Q 4919 2847 4919 2278 
L 4919 0 
L 4359 0 
L 4359 2091 
Q 4359 2428 4304 2576 
Q 4250 2725 4106 2815 
Q 3963 2906 3769 2906 
Q 3419 2906 3187 2673 
Q 2956 2441 2956 1928 
L 2956 0 
L 2394 0 
L 2394 2156 
Q 2394 2531 2256 2718 
Q 2119 2906 1806 2906 
Q 1569 2906 1367 2781 
Q 1166 2656 1075 2415 
Q 984 2175 984 1722 
L 984 0 
L 422 0 
z
" transform="scale(0.015625)"/>
       <path id="ArialMT-65" d="M 2694 1069 
L 3275 997 
Q 3138 488 2766 206 
Q 2394 -75 1816 -75 
Q 1088 -75 661 373 
Q 234 822 234 1631 
Q 234 2469 665 2931 
Q 1097 3394 1784 3394 
Q 2450 3394 2872 2941 
Q 3294 2488 3294 1666 
Q 3294 1616 3291 1516 
L 816 1516 
Q 847 969 1125 678 
Q 1403 388 1819 388 
Q 2128 388 2347 550 
Q 2566 713 2694 1069 
z
M 847 1978 
L 2700 1978 
Q 2663 2397 2488 2606 
Q 2219 2931 1791 2931 
Q 1403 2931 1139 2672 
Q 875 2413 847 1978 
z
" transform="scale(0.015625)"/>
       <path id="DejaVuSans-Oblique-74" d="M 2706 3500 
L 2619 3053 
L 1472 3053 
L 1100 1153 
Q 1081 1047 1072 975 
Q 1063 903 1063 863 
Q 1063 663 1183 572 
Q 1303 481 1569 481 
L 2150 481 
L 2053 0 
L 1503 0 
Q 991 0 739 200 
Q 488 400 488 806 
Q 488 878 497 964 
Q 506 1050 525 1153 
L 897 3053 
L 409 3053 
L 500 3500 
L 978 3500 
L 1172 4494 
L 1747 4494 
L 1556 3500 
L 2706 3500 
z
" transform="scale(0.015625)"/>
       <path id="DejaVuSans-28" d="M 1984 4856 
Q 1566 4138 1362 3434 
Q 1159 2731 1159 2009 
Q 1159 1288 1364 580 
Q 1569 -128 1984 -844 
L 1484 -844 
Q 1016 -109 783 600 
Q 550 1309 550 2009 
Q 550 2706 781 3412 
Q 1013 4119 1484 4856 
L 1984 4856 
z
" transform="scale(0.015625)"/>
       <path id="DejaVuSans-Oblique-73" d="M 3200 3397 
L 3091 2853 
Q 2863 2978 2609 3040 
Q 2356 3103 2088 3103 
Q 1634 3103 1373 2948 
Q 1113 2794 1113 2528 
Q 1113 2219 1719 2053 
Q 1766 2041 1788 2034 
L 1972 1978 
Q 2547 1819 2739 1644 
Q 2931 1469 2931 1166 
Q 2931 609 2489 259 
Q 2047 -91 1331 -91 
Q 1053 -91 747 -37 
Q 441 16 72 128 
L 184 722 
Q 500 559 806 475 
Q 1113 391 1394 391 
Q 1816 391 2080 572 
Q 2344 753 2344 1031 
Q 2344 1331 1650 1516 
L 1591 1531 
L 1394 1581 
Q 956 1697 753 1886 
Q 550 2075 550 2369 
Q 550 2928 970 3256 
Q 1391 3584 2113 3584 
Q 2397 3584 2667 3537 
Q 2938 3491 3200 3397 
z
" transform="scale(0.015625)"/>
       <path id="DejaVuSans-29" d="M 513 4856 
L 1013 4856 
Q 1481 4119 1714 3412 
Q 1947 2706 1947 2009 
Q 1947 1309 1714 600 
Q 1481 -109 1013 -844 
L 513 -844 
Q 928 -128 1133 580 
Q 1338 1288 1338 2009 
Q 1338 2731 1133 3434 
Q 928 4138 513 4856 
z
" transform="scale(0.015625)"/>
      </defs>
      <use xlink:href="#ArialMT-6c" transform="translate(0 0.125)"/>
      <use xlink:href="#ArialMT-61" transform="translate(22.216797 0.125)"/>
      <use xlink:href="#ArialMT-67" transform="translate(77.832031 0.125)"/>
      <use xlink:href="#ArialMT-20" transform="translate(133.447266 0.125)"/>
      <use xlink:href="#ArialMT-74" transform="translate(161.230469 0.125)"/>
      <use xlink:href="#ArialMT-69" transform="translate(189.013672 0.125)"/>
      <use xlink:href="#ArialMT-6d" transform="translate(211.230469 0.125)"/>
      <use xlink:href="#ArialMT-65" transform="translate(294.53125 0.125)"/>
      <use xlink:href="#ArialMT-20" transform="translate(350.146484 0.125)"/>
      <use xlink:href="#DejaVuSans-Oblique-74" transform="translate(377.929688 0.125)"/>
      <use xlink:href="#DejaVuSans-28" transform="translate(417.138672 0.125)"/>
      <use xlink:href="#DejaVuSans-Oblique-73" transform="translate(456.152344 0.125)"/>
      <use xlink:href="#DejaVuSans-29" transform="translate(508.251953 0.125)"/>
     </g>
    </g>
   </g>
   <g id="matplotlib.axis_2">
    <g id="ytick_1">
     <g id="line2d_6">
      <defs>
       <path id="m34c8addc88" d="M 0 0 
L -5 0 
" style="stroke: #262626; stroke-width: 0.8"/>
      </defs>
      <g>
       <use xlink:href="#m34c8addc88" x="63" y="431.424847" style="fill: #262626; stroke: #262626; stroke-width: 0.8"/>
      </g>
     </g>
     <g id="text_7">
      <!-- 0.00 -->
      <g style="fill: #262626" transform="translate(27.254687 436.435316) scale(0.14 -0.14)">
       <use xlink:href="#ArialMT-30"/>
       <use xlink:href="#ArialMT-2e" x="55.615234"/>
       <use xlink:href="#ArialMT-30" x="83.398438"/>
       <use xlink:href="#ArialMT-30" x="139.013672"/>
      </g>
     </g>
    </g>
    <g id="ytick_2">
     <g id="line2d_7">
      <g>
       <use xlink:href="#m34c8addc88" x="63" y="375.205771" style="fill: #262626; stroke: #262626; stroke-width: 0.8"/>
      </g>
     </g>
     <g id="text_8">
      <!-- 0.02 -->
      <g style="fill: #262626" transform="translate(27.254687 380.21624) scale(0.14 -0.14)">
       <use xlink:href="#ArialMT-30"/>
       <use xlink:href="#ArialMT-2e" x="55.615234"/>
       <use xlink:href="#ArialMT-30" x="83.398438"/>
       <use xlink:href="#ArialMT-32" x="139.013672"/>
      </g>
     </g>
    </g>
    <g id="ytick_3">
     <g id="line2d_8">
      <g>
       <use xlink:href="#m34c8addc88" x="63" y="318.986695" style="fill: #262626; stroke: #262626; stroke-width: 0.8"/>
      </g>
     </g>
     <g id="text_9">
      <!-- 0.04 -->
      <g style="fill: #262626" transform="translate(27.254687 323.997164) scale(0.14 -0.14)">
       <use xlink:href="#ArialMT-30"/>
       <use xlink:href="#ArialMT-2e" x="55.615234"/>
       <use xlink:href="#ArialMT-30" x="83.398438"/>
       <use xlink:href="#ArialMT-34" x="139.013672"/>
      </g>
     </g>
    </g>
    <g id="ytick_4">
     <g id="line2d_9">
      <g>
       <use xlink:href="#m34c8addc88" x="63" y="262.76762" style="fill: #262626; stroke: #262626; stroke-width: 0.8"/>
      </g>
     </g>
     <g id="text_10">
      <!-- 0.06 -->
      <g style="fill: #262626" transform="translate(27.254687 267.778088) scale(0.14 -0.14)">
       <defs>
        <path id="ArialMT-36" d="M 3184 3459 
L 2625 3416 
Q 2550 3747 2413 3897 
Q 2184 4138 1850 4138 
Q 1581 4138 1378 3988 
Q 1113 3794 959 3422 
Q 806 3050 800 2363 
Q 1003 2672 1297 2822 
Q 1591 2972 1913 2972 
Q 2475 2972 2870 2558 
Q 3266 2144 3266 1488 
Q 3266 1056 3080 686 
Q 2894 316 2569 119 
Q 2244 -78 1831 -78 
Q 1128 -78 684 439 
Q 241 956 241 2144 
Q 241 3472 731 4075 
Q 1159 4600 1884 4600 
Q 2425 4600 2770 4297 
Q 3116 3994 3184 3459 
z
M 888 1484 
Q 888 1194 1011 928 
Q 1134 663 1356 523 
Q 1578 384 1822 384 
Q 2178 384 2434 671 
Q 2691 959 2691 1453 
Q 2691 1928 2437 2201 
Q 2184 2475 1800 2475 
Q 1419 2475 1153 2201 
Q 888 1928 888 1484 
z
" transform="scale(0.015625)"/>
       </defs>
       <use xlink:href="#ArialMT-30"/>
       <use xlink:href="#ArialMT-2e" x="55.615234"/>
       <use xlink:href="#ArialMT-30" x="83.398438"/>
       <use xlink:href="#ArialMT-36" x="139.013672"/>
      </g>
     </g>
    </g>
    <g id="ytick_5">
     <g id="line2d_10">
      <g>
       <use xlink:href="#m34c8addc88" x="63" y="206.548544" style="fill: #262626; stroke: #262626; stroke-width: 0.8"/>
      </g>
     </g>
     <g id="text_11">
      <!-- 0.08 -->
      <g style="fill: #262626" transform="translate(27.254687 211.559012) scale(0.14 -0.14)">
       <defs>
        <path id="ArialMT-38" d="M 1131 2484 
Q 781 2613 612 2850 
Q 444 3088 444 3419 
Q 444 3919 803 4259 
Q 1163 4600 1759 4600 
Q 2359 4600 2725 4251 
Q 3091 3903 3091 3403 
Q 3091 3084 2923 2848 
Q 2756 2613 2416 2484 
Q 2838 2347 3058 2040 
Q 3278 1734 3278 1309 
Q 3278 722 2862 322 
Q 2447 -78 1769 -78 
Q 1091 -78 675 323 
Q 259 725 259 1325 
Q 259 1772 486 2073 
Q 713 2375 1131 2484 
z
M 1019 3438 
Q 1019 3113 1228 2906 
Q 1438 2700 1772 2700 
Q 2097 2700 2305 2904 
Q 2513 3109 2513 3406 
Q 2513 3716 2298 3927 
Q 2084 4138 1766 4138 
Q 1444 4138 1231 3931 
Q 1019 3725 1019 3438 
z
M 838 1322 
Q 838 1081 952 856 
Q 1066 631 1291 507 
Q 1516 384 1775 384 
Q 2178 384 2440 643 
Q 2703 903 2703 1303 
Q 2703 1709 2433 1975 
Q 2163 2241 1756 2241 
Q 1359 2241 1098 1978 
Q 838 1716 838 1322 
z
" transform="scale(0.015625)"/>
       </defs>
       <use xlink:href="#ArialMT-30"/>
       <use xlink:href="#ArialMT-2e" x="55.615234"/>
       <use xlink:href="#ArialMT-30" x="83.398438"/>
       <use xlink:href="#ArialMT-38" x="139.013672"/>
      </g>
     </g>
    </g>
    <g id="ytick_6">
     <g id="line2d_11">
      <g>
       <use xlink:href="#m34c8addc88" x="63" y="150.329468" style="fill: #262626; stroke: #262626; stroke-width: 0.8"/>
      </g>
     </g>
     <g id="text_12">
      <!-- 0.10 -->
      <g style="fill: #262626" transform="translate(27.254687 155.339936) scale(0.14 -0.14)">
       <use xlink:href="#ArialMT-30"/>
       <use xlink:href="#ArialMT-2e" x="55.615234"/>
       <use xlink:href="#ArialMT-31" x="83.398438"/>
       <use xlink:href="#ArialMT-30" x="139.013672"/>
      </g>
     </g>
    </g>
    <g id="ytick_7">
     <g id="line2d_12">
      <g>
       <use xlink:href="#m34c8addc88" x="63" y="94.110392" style="fill: #262626; stroke: #262626; stroke-width: 0.8"/>
      </g>
     </g>
     <g id="text_13">
      <!-- 0.12 -->
      <g style="fill: #262626" transform="translate(27.254687 99.120861) scale(0.14 -0.14)">
       <use xlink:href="#ArialMT-30"/>
       <use xlink:href="#ArialMT-2e" x="55.615234"/>
       <use xlink:href="#ArialMT-31" x="83.398438"/>
       <use xlink:href="#ArialMT-32" x="139.013672"/>
      </g>
     </g>
    </g>
    <g id="text_14">
     <!-- MSD (um^2) -->
     <g style="fill: #262626" transform="translate(19.887187 299.1625) rotate(-90) scale(0.16 -0.16)">
      <defs>
       <path id="ArialMT-4d" d="M 475 0 
L 475 4581 
L 1388 4581 
L 2472 1338 
Q 2622 884 2691 659 
Q 2769 909 2934 1394 
L 4031 4581 
L 4847 4581 
L 4847 0 
L 4263 0 
L 4263 3834 
L 2931 0 
L 2384 0 
L 1059 3900 
L 1059 0 
L 475 0 
z
" transform="scale(0.015625)"/>
       <path id="ArialMT-53" d="M 288 1472 
L 859 1522 
Q 900 1178 1048 958 
Q 1197 738 1509 602 
Q 1822 466 2213 466 
Q 2559 466 2825 569 
Q 3091 672 3220 851 
Q 3350 1031 3350 1244 
Q 3350 1459 3225 1620 
Q 3100 1781 2813 1891 
Q 2628 1963 1997 2114 
Q 1366 2266 1113 2400 
Q 784 2572 623 2826 
Q 463 3081 463 3397 
Q 463 3744 659 4045 
Q 856 4347 1234 4503 
Q 1613 4659 2075 4659 
Q 2584 4659 2973 4495 
Q 3363 4331 3572 4012 
Q 3781 3694 3797 3291 
L 3216 3247 
Q 3169 3681 2898 3903 
Q 2628 4125 2100 4125 
Q 1550 4125 1298 3923 
Q 1047 3722 1047 3438 
Q 1047 3191 1225 3031 
Q 1400 2872 2139 2705 
Q 2878 2538 3153 2413 
Q 3553 2228 3743 1945 
Q 3934 1663 3934 1294 
Q 3934 928 3725 604 
Q 3516 281 3123 101 
Q 2731 -78 2241 -78 
Q 1619 -78 1198 103 
Q 778 284 539 648 
Q 300 1013 288 1472 
z
" transform="scale(0.015625)"/>
       <path id="ArialMT-44" d="M 494 0 
L 494 4581 
L 2072 4581 
Q 2606 4581 2888 4516 
Q 3281 4425 3559 4188 
Q 3922 3881 4101 3404 
Q 4281 2928 4281 2316 
Q 4281 1794 4159 1391 
Q 4038 988 3847 723 
Q 3656 459 3429 307 
Q 3203 156 2883 78 
Q 2563 0 2147 0 
L 494 0 
z
M 1100 541 
L 2078 541 
Q 2531 541 2789 625 
Q 3047 709 3200 863 
Q 3416 1078 3536 1442 
Q 3656 1806 3656 2325 
Q 3656 3044 3420 3430 
Q 3184 3816 2847 3947 
Q 2603 4041 2063 4041 
L 1100 4041 
L 1100 541 
z
" transform="scale(0.015625)"/>
       <path id="ArialMT-28" d="M 1497 -1347 
Q 1031 -759 709 28 
Q 388 816 388 1659 
Q 388 2403 628 3084 
Q 909 3875 1497 4659 
L 1900 4659 
Q 1522 4009 1400 3731 
Q 1209 3300 1100 2831 
Q 966 2247 966 1656 
Q 966 153 1900 -1347 
L 1497 -1347 
z
" transform="scale(0.015625)"/>
       <path id="ArialMT-75" d="M 2597 0 
L 2597 488 
Q 2209 -75 1544 -75 
Q 1250 -75 995 37 
Q 741 150 617 320 
Q 494 491 444 738 
Q 409 903 409 1263 
L 409 3319 
L 972 3319 
L 972 1478 
Q 972 1038 1006 884 
Q 1059 663 1231 536 
Q 1403 409 1656 409 
Q 1909 409 2131 539 
Q 2353 669 2445 892 
Q 2538 1116 2538 1541 
L 2538 3319 
L 3100 3319 
L 3100 0 
L 2597 0 
z
" transform="scale(0.015625)"/>
       <path id="ArialMT-5e" d="M 747 2156 
L 169 2156 
L 1272 4659 
L 1725 4659 
L 2834 2156 
L 2269 2156 
L 1497 4022 
L 747 2156 
z
" transform="scale(0.015625)"/>
       <path id="ArialMT-29" d="M 791 -1347 
L 388 -1347 
Q 1322 153 1322 1656 
Q 1322 2244 1188 2822 
Q 1081 3291 891 3722 
Q 769 4003 388 4659 
L 791 4659 
Q 1378 3875 1659 3084 
Q 1900 2403 1900 1659 
Q 1900 816 1576 28 
Q 1253 -759 791 -1347 
z
" transform="scale(0.015625)"/>
      </defs>
      <use xlink:href="#ArialMT-4d"/>
      <use xlink:href="#ArialMT-53" x="83.300781"/>
      <use xlink:href="#ArialMT-44" x="150"/>
      <use xlink:href="#ArialMT-20" x="222.216797"/>
      <use xlink:href="#ArialMT-28" x="250"/>
      <use xlink:href="#ArialMT-75" x="283.300781"/>
      <use xlink:href="#ArialMT-6d" x="338.916016"/>
      <use xlink:href="#ArialMT-5e" x="422.216797"/>
      <use xlink:href="#ArialMT-32" x="469.140625"/>
      <use xlink:href="#ArialMT-29" x="524.755859"/>
     </g>
    </g>
   </g>
   <g id="line2d_13">
    <path d="M 80.754545 430.251836 
L 120.209091 429.70623 
L 159.663636 429.374819 
L 199.118182 429.119584 
L 238.572727 428.896113 
L 278.027273 428.68473 
L 317.481818 428.471659 
L 356.936364 428.290634 
L 396.390909 428.168638 
L 435.845455 428.014598 
" clip-path="url(#p8cb8bb9190)" style="fill: none; stroke: #000000; stroke-opacity: 0.3; stroke-width: 1.5; stroke-linecap: round"/>
   </g>
   <g id="line2d_14">
    <path d="M 80.754545 430.774393 
L 120.209091 430.426397 
L 159.663636 430.207142 
L 199.118182 430.066876 
L 238.572727 429.946005 
L 278.027273 429.850994 
L 317.481818 429.762168 
L 356.936364 429.661255 
L 396.390909 429.541789 
L 435.845455 429.436941 
" clip-path="url(#p8cb8bb9190)" style="fill: none; stroke: #000000; stroke-opacity: 0.3; stroke-width: 1.5; stroke-linecap: round"/>
   </g>
   <g id="line2d_15">
    <path d="M 80.754545 428.939683 
L 120.209091 427.834135 
L 159.663636 427.145732 
L 199.118182 426.591412 
L 238.572727 426.105398 
L 278.027273 425.729574 
L 317.481818 425.461409 
L 356.936364 425.103856 
L 396.390909 424.787623 
L 435.845455 424.38397 
" clip-path="url(#p8cb8bb9190)" style="fill: none; stroke: #000000; stroke-opacity: 0.3; stroke-width: 1.5; stroke-linecap: round"/>
   </g>
   <g id="line2d_16">
    <path d="M 80.754545 430.500887 
L 120.209091 430.084585 
L 159.663636 429.793089 
L 199.118182 429.61375 
L 238.572727 429.386906 
L 278.027273 429.143758 
L 317.481818 428.932093 
L 356.936364 428.721834 
L 396.390909 428.543339 
L 435.845455 428.378336 
" clip-path="url(#p8cb8bb9190)" style="fill: none; stroke: #000000; stroke-opacity: 0.3; stroke-width: 1.5; stroke-linecap: round"/>
   </g>
   <g id="line2d_17">
    <path d="M 80.754545 429.522675 
L 120.209091 428.517197 
L 159.663636 427.87658 
L 199.118182 427.233715 
L 238.572727 426.73449 
L 278.027273 426.33927 
L 317.481818 425.906664 
L 356.936364 425.532526 
L 396.390909 425.192401 
L 435.845455 424.948972 
" clip-path="url(#p8cb8bb9190)" style="fill: none; stroke: #000000; stroke-opacity: 0.3; stroke-width: 1.5; stroke-linecap: round"/>
   </g>
   <g id="line2d_18">
    <path d="M 80.754545 430.299341 
L 120.209091 429.806019 
L 159.663636 429.412204 
L 199.118182 429.138136 
L 238.572727 428.973414 
L 278.027273 428.715088 
L 317.481818 428.563015 
L 356.936364 428.417689 
L 396.390909 428.279952 
L 435.845455 428.182412 
" clip-path="url(#p8cb8bb9190)" style="fill: none; stroke: #000000; stroke-opacity: 0.3; stroke-width: 1.5; stroke-linecap: round"/>
   </g>
   <g id="line2d_19">
    <path d="M 80.754545 429.564277 
L 120.209091 429.01333 
L 159.663636 428.554301 
L 199.118182 428.182693 
L 238.572727 427.919588 
L 278.027273 427.715513 
L 317.481818 427.467024 
L 356.936364 427.169907 
L 396.390909 427.044819 
L 435.845455 426.722403 
" clip-path="url(#p8cb8bb9190)" style="fill: none; stroke: #000000; stroke-opacity: 0.3; stroke-width: 1.5; stroke-linecap: round"/>
   </g>
   <g id="line2d_20">
    <path d="M 80.754545 426.791833 
L 120.209091 424.795213 
L 159.663636 423.392266 
L 199.118182 423.640473 
L 238.572727 422.371327 
L 278.027273 422.270976 
L 317.481818 421.852706 
L 356.936364 421.268028 
L 396.390909 419.974146 
L 435.845455 419.308231 
" clip-path="url(#p8cb8bb9190)" style="fill: none; stroke: #000000; stroke-opacity: 0.3; stroke-width: 1.5; stroke-linecap: round"/>
   </g>
   <g id="line2d_21">
    <path d="M 80.754545 430.262518 
L 120.209091 429.464488 
L 159.663636 428.891616 
L 199.118182 428.334485 
L 238.572727 427.824578 
L 278.027273 427.468711 
L 317.481818 427.08361 
L 356.936364 426.701602 
L 396.390909 426.405046 
L 435.845455 426.113831 
" clip-path="url(#p8cb8bb9190)" style="fill: none; stroke: #000000; stroke-opacity: 0.3; stroke-width: 1.5; stroke-linecap: round"/>
   </g>
   <g id="line2d_22">
    <path d="M 80.754545 430.92 
L 120.209091 430.558792 
L 159.663636 430.313677 
L 199.118182 430.116629 
L 238.572727 429.923517 
L 278.027273 429.720847 
L 317.481818 429.547973 
L 356.936364 429.37763 
L 396.390909 429.223308 
L 435.845455 429.086977 
" clip-path="url(#p8cb8bb9190)" style="fill: none; stroke: #000000; stroke-opacity: 0.3; stroke-width: 1.5; stroke-linecap: round"/>
   </g>
   <g id="line2d_23">
    <path d="M 80.754545 430.153734 
L 120.209091 429.670812 
L 159.663636 429.407145 
L 199.118182 429.144883 
L 238.572727 428.936029 
L 278.027273 428.766528 
L 317.481818 428.524786 
L 356.936364 428.408694 
L 396.390909 428.226825 
L 435.845455 428.021626 
" clip-path="url(#p8cb8bb9190)" style="fill: none; stroke: #000000; stroke-opacity: 0.3; stroke-width: 1.5; stroke-linecap: round"/>
   </g>
   <g id="line2d_24">
    <path d="M 80.754545 413.498833 
L 120.209091 391.872479 
L 159.663636 370.533404 
L 199.118182 349.465586 
L 238.572727 330.031214 
L 278.027273 304.188991 
L 317.481818 288.264657 
L 356.936364 267.594589 
L 396.390909 257.415845 
L 435.845455 233.078326 
" clip-path="url(#p8cb8bb9190)" style="fill: none; stroke: #000000; stroke-opacity: 0.3; stroke-width: 1.5; stroke-linecap: round"/>
   </g>
   <g id="line2d_25">
    <path d="M 80.754545 428.973696 
L 120.209091 427.939265 
L 159.663636 427.136737 
L 199.118182 426.542221 
L 238.572727 426.150655 
L 278.027273 425.742223 
L 317.481818 425.621633 
L 356.936364 425.216013 
L 396.390909 424.947285 
L 435.845455 424.782282 
" clip-path="url(#p8cb8bb9190)" style="fill: none; stroke: #000000; stroke-opacity: 0.3; stroke-width: 1.5; stroke-linecap: round"/>
   </g>
   <g id="line2d_26">
    <path d="M 80.754545 427.416146 
L 120.209091 426.270682 
L 159.663636 425.00744 
L 199.118182 422.884326 
L 238.572727 423.488963 
L 278.027273 423.711028 
L 317.481818 422.1026 
L 356.936364 421.26606 
L 396.390909 421.072948 
L 435.845455 420.29347 
" clip-path="url(#p8cb8bb9190)" style="fill: none; stroke: #000000; stroke-opacity: 0.3; stroke-width: 1.5; stroke-linecap: round"/>
   </g>
   <g id="line2d_27">
    <path d="M 80.754545 422.915247 
L 120.209091 423.609271 
L 159.663636 422.94673 
L 199.118182 418.052859 
L 238.572727 420.776673 
L 278.027273 418.041896 
L 317.481818 415.930589 
L 356.936364 417.058625 
L 396.390909 416.002268 
L 435.845455 416.022507 
" clip-path="url(#p8cb8bb9190)" style="fill: none; stroke: #000000; stroke-opacity: 0.3; stroke-width: 1.5; stroke-linecap: round"/>
   </g>
   <g id="line2d_28">
    <path d="M 80.754545 423.089526 
L 120.209091 419.886444 
L 159.663636 416.596504 
L 199.118182 415.185405 
L 238.572727 414.202133 
L 278.027273 412.763487 
L 317.481818 410.138619 
L 356.936364 408.226608 
L 396.390909 407.401031 
L 435.845455 407.566877 
" clip-path="url(#p8cb8bb9190)" style="fill: none; stroke: #000000; stroke-opacity: 0.3; stroke-width: 1.5; stroke-linecap: round"/>
   </g>
   <g id="line2d_29">
    <path d="M 80.754545 428.277985 
L 120.209091 426.761194 
L 159.663636 426.286986 
L 199.118182 425.752624 
L 238.572727 424.99198 
L 278.027273 425.324796 
L 317.481818 425.090082 
L 356.936364 425.043982 
L 396.390909 424.14279 
L 435.845455 424.150099 
" clip-path="url(#p8cb8bb9190)" style="fill: none; stroke: #000000; stroke-opacity: 0.3; stroke-width: 1.5; stroke-linecap: round"/>
   </g>
   <g id="line2d_30">
    <path d="M 80.754545 423.583411 
L 120.209091 420.798599 
L 159.663636 417.914841 
L 199.118182 413.649219 
L 238.572727 410.547893 
L 278.027273 409.149163 
L 317.481818 409.400462 
L 356.936364 412.175998 
L 396.390909 408.905453 
L 435.845455 407.257672 
" clip-path="url(#p8cb8bb9190)" style="fill: none; stroke: #000000; stroke-opacity: 0.3; stroke-width: 1.5; stroke-linecap: round"/>
   </g>
   <g id="line2d_31">
    <path d="M 80.754545 407.467088 
L 120.209091 375.521723 
L 159.663636 346.95681 
L 199.118182 321.944662 
L 238.572727 293.095562 
L 278.027273 262.087369 
L 317.481818 225.570268 
L 356.936364 192.588504 
L 396.390909 162.479534 
L 435.845455 132.774499 
" clip-path="url(#p8cb8bb9190)" style="fill: none; stroke: #000000; stroke-opacity: 0.3; stroke-width: 1.5; stroke-linecap: round"/>
   </g>
   <g id="line2d_32">
    <path d="M 80.754545 421.494029 
L 120.209091 416.74942 
L 159.663636 414.430945 
L 199.118182 409.755767 
L 238.572727 408.046707 
L 278.027273 404.176867 
L 317.481818 402.49423 
L 356.936364 401.204564 
L 396.390909 402.328102 
L 435.845455 404.376163 
" clip-path="url(#p8cb8bb9190)" style="fill: none; stroke: #000000; stroke-opacity: 0.3; stroke-width: 1.5; stroke-linecap: round"/>
   </g>
   <g id="line2d_33">
    <path d="M 80.754545 428.20743 
L 120.209091 426.722403 
L 159.663636 425.890079 
L 199.118182 424.597322 
L 238.572727 423.540122 
L 278.027273 423.686573 
L 317.481818 423.270833 
L 356.936364 422.954038 
L 396.390909 424.544476 
L 435.845455 423.859446 
" clip-path="url(#p8cb8bb9190)" style="fill: none; stroke: #000000; stroke-opacity: 0.3; stroke-width: 1.5; stroke-linecap: round"/>
   </g>
   <g id="line2d_34">
    <path d="M 80.754545 424.025574 
L 120.209091 420.118348 
L 159.663636 419.005772 
L 199.118182 417.799873 
L 238.572727 413.452452 
L 278.027273 412.871147 
L 317.481818 415.04823 
L 356.936364 414.242892 
L 396.390909 411.7403 
L 435.845455 412.402561 
" clip-path="url(#p8cb8bb9190)" style="fill: none; stroke: #000000; stroke-opacity: 0.3; stroke-width: 1.5; stroke-linecap: round"/>
   </g>
   <g id="line2d_35">
    <path d="M 80.754545 410.892235 
L 120.209091 383.379182 
L 159.663636 350.559047 
L 199.118182 320.488026 
L 238.572727 295.962735 
L 278.027273 268.065143 
L 317.481818 238.824758 
L 356.936364 206.597173 
L 396.390909 172.233825 
L 435.845455 141.668638 
" clip-path="url(#p8cb8bb9190)" style="fill: none; stroke: #000000; stroke-opacity: 0.3; stroke-width: 1.5; stroke-linecap: round"/>
   </g>
   <g id="line2d_36">
    <path d="M 80.754545 428.916633 
L 120.209091 427.689933 
L 159.663636 427.158382 
L 199.118182 425.5567 
L 238.572727 425.705681 
L 278.027273 425.544051 
L 317.481818 425.010251 
L 356.936364 424.771039 
L 396.390909 424.963027 
L 435.845455 424.913554 
" clip-path="url(#p8cb8bb9190)" style="fill: none; stroke: #000000; stroke-opacity: 0.3; stroke-width: 1.5; stroke-linecap: round"/>
   </g>
   <g id="line2d_37">
    <path d="M 80.754545 424.692894 
L 120.209091 417.628124 
L 159.663636 414.204101 
L 199.118182 417.456094 
L 238.572727 412.368548 
L 278.027273 407.681845 
L 317.481818 405.686911 
L 356.936364 406.044183 
L 396.390909 410.884927 
L 435.845455 409.162937 
" clip-path="url(#p8cb8bb9190)" style="fill: none; stroke: #000000; stroke-opacity: 0.3; stroke-width: 1.5; stroke-linecap: round"/>
   </g>
   <g id="line2d_38">
    <path d="M 80.754545 428.010944 
L 120.209091 427.019239 
L 159.663636 426.941657 
L 199.118182 426.024724 
L 238.572727 425.864781 
L 278.027273 425.389448 
L 317.481818 425.717768 
L 356.936364 423.621077 
L 396.390909 422.35418 
L 435.845455 422.666759 
" clip-path="url(#p8cb8bb9190)" style="fill: none; stroke: #000000; stroke-opacity: 0.3; stroke-width: 1.5; stroke-linecap: round"/>
   </g>
   <g id="line2d_39">
    <path d="M 80.754545 429.312134 
L 120.209091 428.925628 
L 159.663636 428.211646 
L 199.118182 427.587333 
L 238.572727 426.331961 
L 278.027273 426.825003 
L 317.481818 426.353324 
L 356.936364 426.084035 
L 396.390909 426.083754 
L 435.845455 425.497108 
" clip-path="url(#p8cb8bb9190)" style="fill: none; stroke: #000000; stroke-opacity: 0.3; stroke-width: 1.5; stroke-linecap: round"/>
   </g>
   <g id="line2d_40">
    <path d="M 80.754545 427.442288 
L 120.209091 426.221491 
L 159.663636 425.241873 
L 199.118182 424.737026 
L 238.572727 423.521007 
L 278.027273 422.239494 
L 317.481818 421.174423 
L 356.936364 419.976114 
L 396.390909 421.526074 
L 435.845455 420.578782 
" clip-path="url(#p8cb8bb9190)" style="fill: none; stroke: #000000; stroke-opacity: 0.3; stroke-width: 1.5; stroke-linecap: round"/>
   </g>
   <g id="line2d_41">
    <path d="M 80.754545 429.450433 
L 120.209091 428.344323 
L 159.663636 427.639055 
L 199.118182 426.756134 
L 238.572727 426.096965 
L 278.027273 425.732385 
L 317.481818 425.000412 
L 356.936364 424.237238 
L 396.390909 423.391141 
L 435.845455 422.597328 
" clip-path="url(#p8cb8bb9190)" style="fill: none; stroke: #000000; stroke-opacity: 0.3; stroke-width: 1.5; stroke-linecap: round"/>
   </g>
   <g id="line2d_42">
    <path d="M 80.754545 426.697385 
L 120.209091 424.223184 
L 159.663636 422.529303 
L 199.118182 422.164722 
L 238.572727 422.536611 
L 278.027273 421.835278 
L 317.481818 420.915253 
L 356.936364 419.505279 
L 396.390909 417.915684 
L 435.845455 418.261994 
" clip-path="url(#p8cb8bb9190)" style="fill: none; stroke: #000000; stroke-opacity: 0.3; stroke-width: 1.5; stroke-linecap: round"/>
   </g>
   <g id="line2d_43">
    <path d="M 80.754545 418.26874 
L 120.209091 406.503493 
L 159.663636 398.239289 
L 199.118182 395.023839 
L 238.572727 390.224135 
L 278.027273 375.58778 
L 317.481818 377.294591 
L 356.936364 371.591728 
L 396.390909 373.8478 
L 435.845455 363.165332 
" clip-path="url(#p8cb8bb9190)" style="fill: none; stroke: #000000; stroke-opacity: 0.3; stroke-width: 1.5; stroke-linecap: round"/>
   </g>
   <g id="line2d_44">
    <path d="M 80.754545 401.232674 
L 120.209091 360.612705 
L 159.663636 331.554751 
L 199.118182 305.366781 
L 238.572727 281.152382 
L 278.027273 257.979722 
L 317.481818 222.59909 
L 356.936364 175.675276 
L 396.390909 127.53713 
L 435.845455 78.12 
" clip-path="url(#p8cb8bb9190)" style="fill: none; stroke: #000000; stroke-opacity: 0.3; stroke-width: 1.5; stroke-linecap: round"/>
   </g>
   <g id="line2d_45">
    <path d="M 80.754545 426.410668 
L 120.209091 424.360077 
L 159.663636 423.177509 
L 199.118182 421.198878 
L 238.572727 421.326496 
L 278.027273 421.900774 
L 317.481818 421.238232 
L 356.936364 420.867748 
L 396.390909 419.743648 
L 435.845455 419.058899 
" clip-path="url(#p8cb8bb9190)" style="fill: none; stroke: #000000; stroke-opacity: 0.3; stroke-width: 1.5; stroke-linecap: round"/>
   </g>
   <g id="line2d_46">
    <path d="M 80.754545 427.716637 
L 120.209091 425.963445 
L 159.663636 425.278135 
L 199.118182 424.640891 
L 238.572727 424.091631 
L 278.027273 423.699503 
L 317.481818 422.665353 
L 356.936364 420.686723 
L 396.390909 420.883489 
L 435.845455 420.549548 
" clip-path="url(#p8cb8bb9190)" style="fill: none; stroke: #000000; stroke-opacity: 0.3; stroke-width: 1.5; stroke-linecap: round"/>
   </g>
   <g id="line2d_47">
    <path d="M 80.754545 427.057749 
L 120.209091 424.878979 
L 159.663636 423.379898 
L 199.118182 422.963314 
L 238.572727 423.683762 
L 278.027273 423.609552 
L 317.481818 424.462677 
L 356.936364 423.956424 
L 396.390909 423.416721 
L 435.845455 422.39522 
" clip-path="url(#p8cb8bb9190)" style="fill: none; stroke: #000000; stroke-opacity: 0.3; stroke-width: 1.5; stroke-linecap: round"/>
   </g>
   <g id="line2d_48">
    <path d="M 80.754545 420.225445 
L 120.209091 415.270858 
L 159.663636 408.443613 
L 199.118182 405.509259 
L 238.572727 401.710536 
L 278.027273 403.345387 
L 317.481818 405.065971 
L 356.936364 407.985709 
L 396.390909 404.4574 
L 435.845455 402.690153 
" clip-path="url(#p8cb8bb9190)" style="fill: none; stroke: #000000; stroke-opacity: 0.3; stroke-width: 1.5; stroke-linecap: round"/>
   </g>
   <g id="line2d_49">
    <path d="M 80.754545 429.859146 
L 120.209091 429.479667 
L 159.663636 429.163716 
L 199.118182 429.522675 
L 238.572727 429.30061 
L 278.027273 428.631603 
L 317.481818 428.782832 
L 356.936364 428.685011 
L 396.390909 428.201527 
L 435.845455 427.835259 
" clip-path="url(#p8cb8bb9190)" style="fill: none; stroke: #000000; stroke-opacity: 0.3; stroke-width: 1.5; stroke-linecap: round"/>
   </g>
   <g id="line2d_50">
    <path d="M 80.754545 409.07664 
L 120.209091 414.465239 
L 159.663636 406.597379 
L 199.118182 393.949211 
L 238.572727 392.965377 
L 278.027273 396.11477 
L 317.481818 402.1839 
L 356.936364 381.036814 
L 396.390909 386.100185 
L 435.845455 385.737291 
" clip-path="url(#p8cb8bb9190)" style="fill: none; stroke: #000000; stroke-opacity: 0.3; stroke-width: 1.5; stroke-linecap: round"/>
   </g>
   <g id="line2d_51">
    <path d="M 80.754545 419.807456 
L 120.209091 407.121622 
L 159.663636 398.621579 
L 199.118182 397.196987 
L 238.572727 392.774514 
L 278.027273 390.201929 
L 317.481818 394.605288 
L 356.936364 398.81694 
L 396.390909 409.022951 
L 435.845455 392.261234 
" clip-path="url(#p8cb8bb9190)" style="fill: none; stroke: #000000; stroke-opacity: 0.3; stroke-width: 1.5; stroke-linecap: round"/>
   </g>
   <g id="line2d_52">
    <path d="M 80.754545 426.105117 
L 120.209091 424.088539 
L 159.663636 423.17779 
L 199.118182 420.473371 
L 238.572727 420.533807 
L 278.027273 421.123545 
L 317.481818 420.172037 
L 356.936364 421.048492 
L 396.390909 420.07534 
L 435.845455 417.638524 
" clip-path="url(#p8cb8bb9190)" style="fill: none; stroke: #000000; stroke-opacity: 0.3; stroke-width: 1.5; stroke-linecap: round"/>
   </g>
   <g id="line2d_53">
    <path d="M 80.754545 427.890354 
L 120.209091 425.607297 
L 159.663636 424.299361 
L 199.118182 423.097959 
L 238.572727 422.72101 
L 278.027273 422.067463 
L 317.481818 421.312722 
L 356.936364 419.565433 
L 396.390909 418.852013 
L 435.845455 420.186092 
" clip-path="url(#p8cb8bb9190)" style="fill: none; stroke: #000000; stroke-opacity: 0.3; stroke-width: 1.5; stroke-linecap: round"/>
   </g>
   <g id="line2d_54">
    <path d="M 80.754545 428.580443 
L 120.209091 427.842287 
L 159.663636 427.139548 
L 199.118182 426.793801 
L 238.572727 426.210247 
L 278.027273 425.760775 
L 317.481818 425.570474 
L 356.936364 425.166259 
L 396.390909 424.645951 
L 435.845455 424.215875 
" clip-path="url(#p8cb8bb9190)" style="fill: none; stroke: #000000; stroke-opacity: 0.3; stroke-width: 1.5; stroke-linecap: round"/>
   </g>
   <g id="line2d_55">
    <path d="M 80.754545 426.958523 
L 120.209091 424.956562 
L 159.663636 423.874344 
L 199.118182 422.748557 
L 238.572727 421.905271 
L 278.027273 420.651024 
L 317.481818 419.352644 
L 356.936364 418.505985 
L 396.390909 417.685748 
L 435.845455 416.783151 
" clip-path="url(#p8cb8bb9190)" style="fill: none; stroke: #000000; stroke-opacity: 0.3; stroke-width: 1.5; stroke-linecap: round"/>
   </g>
   <g id="line2d_56">
    <path d="M 80.754545 429.752611 
L 120.209091 429.47011 
L 159.663636 428.895832 
L 199.118182 428.948397 
L 238.572727 428.938559 
L 278.027273 428.457604 
L 317.481818 428.192813 
L 356.936364 427.954163 
L 396.390909 427.945449 
L 435.845455 427.700052 
" clip-path="url(#p8cb8bb9190)" style="fill: none; stroke: #000000; stroke-opacity: 0.3; stroke-width: 1.5; stroke-linecap: round"/>
   </g>
   <g id="line2d_57">
    <path d="M 80.754545 415.446824 
L 120.209091 395.744286 
L 159.663636 375.076749 
L 199.118182 357.360431 
L 238.572727 341.045655 
L 278.027273 334.22066 
L 317.481818 326.866361 
L 356.936364 325.616049 
L 396.390909 330.511606 
L 435.845455 331.531701 
" clip-path="url(#p8cb8bb9190)" style="fill: none; stroke: #000000; stroke-opacity: 0.3; stroke-width: 1.5; stroke-linecap: round"/>
   </g>
   <g id="line2d_58">
    <path d="M 80.754545 412.074522 
L 120.209091 411.904741 
L 159.663636 398.780398 
L 199.118182 395.525032 
L 238.572727 389.696519 
L 278.027273 388.615426 
L 317.481818 384.131674 
L 356.936364 381.657191 
L 396.390909 391.147534 
L 435.845455 394.433258 
" clip-path="url(#p8cb8bb9190)" style="fill: none; stroke: #000000; stroke-opacity: 0.3; stroke-width: 1.5; stroke-linecap: round"/>
   </g>
   <g id="line2d_59">
    <path d="M 80.754545 427.106098 
L 120.209091 424.42501 
L 159.663636 423.1702 
L 199.118182 421.26606 
L 238.572727 419.474358 
L 278.027273 418.852575 
L 317.481818 418.45848 
L 356.936364 418.650468 
L 396.390909 418.413785 
L 435.845455 419.533107 
" clip-path="url(#p8cb8bb9190)" style="fill: none; stroke: #000000; stroke-opacity: 0.3; stroke-width: 1.5; stroke-linecap: round"/>
   </g>
   <g id="line2d_60">
    <path d="M 80.754545 418.228544 
L 120.209091 414.692645 
L 159.663636 415.026867 
L 199.118182 407.73441 
L 238.572727 407.677347 
L 278.027273 406.982761 
L 317.481818 398.425093 
L 356.936364 397.851096 
L 396.390909 396.890031 
L 435.845455 391.248447 
" clip-path="url(#p8cb8bb9190)" style="fill: none; stroke: #000000; stroke-opacity: 0.3; stroke-width: 1.5; stroke-linecap: round"/>
   </g>
   <g id="line2d_61">
    <path d="M 80.754545 425.921 
L 120.209091 422.799717 
L 159.663636 419.606754 
L 199.118182 419.445406 
L 238.572727 418.958548 
L 278.027273 418.16867 
L 317.481818 416.688703 
L 356.936364 416.728338 
L 396.390909 415.989619 
L 435.845455 416.245697 
" clip-path="url(#p8cb8bb9190)" style="fill: none; stroke: #000000; stroke-opacity: 0.3; stroke-width: 1.5; stroke-linecap: round"/>
   </g>
   <g id="line2d_62">
    <path d="M 80.754545 427.805744 
L 120.209091 427.314671 
L 159.663636 427.118466 
L 199.118182 426.245384 
L 238.572727 426.366817 
L 278.027273 424.925641 
L 317.481818 425.42065 
L 356.936364 425.448478 
L 396.390909 424.703295 
L 435.845455 424.321848 
" clip-path="url(#p8cb8bb9190)" style="fill: none; stroke: #000000; stroke-opacity: 0.3; stroke-width: 1.5; stroke-linecap: round"/>
   </g>
   <g id="line2d_63">
    <path d="M 80.754545 421.411387 
L 120.209091 407.471867 
L 159.663636 402.683126 
L 199.118182 393.048301 
L 238.572727 387.941922 
L 278.027273 388.118731 
L 317.481818 388.468695 
L 356.936364 377.853128 
L 396.390909 382.864215 
L 435.845455 390.662925 
" clip-path="url(#p8cb8bb9190)" style="fill: none; stroke: #000000; stroke-opacity: 0.3; stroke-width: 1.5; stroke-linecap: round"/>
   </g>
   <g id="line2d_64">
    <path d="M 80.754545 426.917764 
L 120.209091 424.801959 
L 159.663636 424.051153 
L 199.118182 422.211384 
L 238.572727 421.957836 
L 278.027273 421.470979 
L 317.481818 420.769646 
L 356.936364 421.190727 
L 396.390909 420.605767 
L 435.845455 420.043858 
" clip-path="url(#p8cb8bb9190)" style="fill: none; stroke: #000000; stroke-opacity: 0.3; stroke-width: 1.5; stroke-linecap: round"/>
   </g>
   <g id="line2d_65">
    <path d="M 80.754545 418.922287 
L 120.209091 409.869048 
L 159.663636 408.32977 
L 199.118182 402.239838 
L 238.572727 393.795171 
L 278.027273 394.434944 
L 317.481818 392.550481 
L 356.936364 392.241838 
L 396.390909 388.678111 
L 435.845455 384.986204 
" clip-path="url(#p8cb8bb9190)" style="fill: none; stroke: #000000; stroke-opacity: 0.3; stroke-width: 1.5; stroke-linecap: round"/>
   </g>
   <g id="patch_3">
    <path d="M 63 448.56 
L 63 60.48 
" style="fill: none; stroke: #262626; stroke-width: 1.25; stroke-linejoin: miter; stroke-linecap: square"/>
   </g>
   <g id="patch_4">
    <path d="M 453.6 448.56 
L 453.6 60.48 
" style="fill: none; stroke: #262626; stroke-width: 1.25; stroke-linejoin: miter; stroke-linecap: square"/>
   </g>
   <g id="patch_5">
    <path d="M 63 448.56 
L 453.6 448.56 
" style="fill: none; stroke: #262626; stroke-width: 1.25; stroke-linejoin: miter; stroke-linecap: square"/>
   </g>
   <g id="patch_6">
    <path d="M 63 60.48 
L 453.6 60.48 
" style="fill: none; stroke: #262626; stroke-width: 1.25; stroke-linejoin: miter; stroke-linecap: square"/>
   </g>
   <g id="text_15">
    <!-- iMSDs -->
    <g style="fill: #262626" transform="translate(228.85625 54.48) scale(0.2 -0.2)">
     <defs>
      <path id="ArialMT-73" d="M 197 991 
L 753 1078 
Q 800 744 1014 566 
Q 1228 388 1613 388 
Q 2000 388 2187 545 
Q 2375 703 2375 916 
Q 2375 1106 2209 1216 
Q 2094 1291 1634 1406 
Q 1016 1563 777 1677 
Q 538 1791 414 1992 
Q 291 2194 291 2438 
Q 291 2659 392 2848 
Q 494 3038 669 3163 
Q 800 3259 1026 3326 
Q 1253 3394 1513 3394 
Q 1903 3394 2198 3281 
Q 2494 3169 2634 2976 
Q 2775 2784 2828 2463 
L 2278 2388 
Q 2241 2644 2061 2787 
Q 1881 2931 1553 2931 
Q 1166 2931 1000 2803 
Q 834 2675 834 2503 
Q 834 2394 903 2306 
Q 972 2216 1119 2156 
Q 1203 2125 1616 2013 
Q 2213 1853 2448 1751 
Q 2684 1650 2818 1456 
Q 2953 1263 2953 975 
Q 2953 694 2789 445 
Q 2625 197 2315 61 
Q 2006 -75 1616 -75 
Q 969 -75 630 194 
Q 291 463 197 991 
z
" transform="scale(0.015625)"/>
     </defs>
     <use xlink:href="#ArialMT-69"/>
     <use xlink:href="#ArialMT-4d" x="22.216797"/>
     <use xlink:href="#ArialMT-53" x="105.517578"/>
     <use xlink:href="#ArialMT-44" x="172.216797"/>
     <use xlink:href="#ArialMT-73" x="244.433594"/>
    </g>
   </g>
  </g>
 </g>
 <defs>
  <clipPath id="p8cb8bb9190">
   <rect x="63" y="60.48" width="390.6" height="388.08"/>
  </clipPath>
 </defs>
</svg>
