<?xml version="1.0" encoding="utf-8" standalone="no"?>
<!DOCTYPE svg PUBLIC "-//W3C//DTD SVG 1.1//EN"
  "http://www.w3.org/Graphics/SVG/1.1/DTD/svg11.dtd">
<svg xmlns:xlink="http://www.w3.org/1999/xlink" width="504pt" height="504pt" viewBox="0 0 504 504" xmlns="http://www.w3.org/2000/svg" version="1.1">
 <metadata>
  <rdf:RDF xmlns:dc="http://purl.org/dc/elements/1.1/" xmlns:cc="http://creativecommons.org/ns#" xmlns:rdf="http://www.w3.org/1999/02/22-rdf-syntax-ns#">
   <cc:Work>
    <dc:type rdf:resource="http://purl.org/dc/dcmitype/StillImage"/>
    <dc:date>2025-06-24T14:18:29.666396</dc:date>
    <dc:format>image/svg+xml</dc:format>
    <dc:creator>
     <cc:Agent>
      <dc:title>Matplotlib v3.8.0, https://matplotlib.org/</dc:title>
     </cc:Agent>
    </dc:creator>
   </cc:Work>
  </rdf:RDF>
 </metadata>
 <defs>
  <style type="text/css">*{stroke-linejoin: round; stroke-linecap: butt}</style>
 </defs>
 <g id="figure_1">
  <g id="patch_1">
   <path d="M 0 504 
L 504 504 
L 504 0 
L 0 0 
z
" style="fill: #ffffff"/>
  </g>
  <g id="axes_1">
   <g id="patch_2">
    <path d="M 63 448.56 
L 453.6 448.56 
L 453.6 60.48 
L 63 60.48 
z
" style="fill: #ffffff"/>
   </g>
   <g id="matplotlib.axis_1">
    <g id="xtick_1">
     <g id="line2d_1">
      <defs>
       <path id="mb9a58addea" d="M 0 0 
L 0 5 
" style="stroke: #262626; stroke-width: 0.8"/>
      </defs>
      <g>
       <use xlink:href="#mb9a58addea" x="139.81856" y="448.56" style="fill: #262626; stroke: #262626; stroke-width: 0.8"/>
      </g>
     </g>
     <g id="text_1">
      <!-- 10 -->
      <g style="fill: #262626" transform="translate(132.033247 467.080938) scale(0.14 -0.14)">
       <defs>
        <path id="ArialMT-31" d="M 2384 0 
L 1822 0 
L 1822 3584 
Q 1619 3391 1289 3197 
Q 959 3003 697 2906 
L 697 3450 
Q 1169 3672 1522 3987 
Q 1875 4303 2022 4600 
L 2384 4600 
L 2384 0 
z
" transform="scale(0.015625)"/>
        <path id="ArialMT-30" d="M 266 2259 
Q 266 3072 433 3567 
Q 600 4063 929 4331 
Q 1259 4600 1759 4600 
Q 2128 4600 2406 4451 
Q 2684 4303 2865 4023 
Q 3047 3744 3150 3342 
Q 3253 2941 3253 2259 
Q 3253 1453 3087 958 
Q 2922 463 2592 192 
Q 2263 -78 1759 -78 
Q 1097 -78 719 397 
Q 266 969 266 2259 
z
M 844 2259 
Q 844 1131 1108 757 
Q 1372 384 1759 384 
Q 2147 384 2411 759 
Q 2675 1134 2675 2259 
Q 2675 3391 2411 3762 
Q 2147 4134 1753 4134 
Q 1366 4134 1134 3806 
Q 844 3388 844 2259 
z
" transform="scale(0.015625)"/>
       </defs>
       <use xlink:href="#ArialMT-31"/>
       <use xlink:href="#ArialMT-30" x="55.615234"/>
      </g>
     </g>
    </g>
    <g id="xtick_2">
     <g id="line2d_2">
      <g>
       <use xlink:href="#mb9a58addea" x="223.495818" y="448.56" style="fill: #262626; stroke: #262626; stroke-width: 0.8"/>
      </g>
     </g>
     <g id="text_2">
      <!-- 15 -->
      <g style="fill: #262626" transform="translate(215.710505 467.080938) scale(0.14 -0.14)">
       <defs>
        <path id="ArialMT-35" d="M 266 1200 
L 856 1250 
Q 922 819 1161 601 
Q 1400 384 1738 384 
Q 2144 384 2425 690 
Q 2706 997 2706 1503 
Q 2706 1984 2436 2262 
Q 2166 2541 1728 2541 
Q 1456 2541 1237 2417 
Q 1019 2294 894 2097 
L 366 2166 
L 809 4519 
L 3088 4519 
L 3088 3981 
L 1259 3981 
L 1013 2750 
Q 1425 3038 1878 3038 
Q 2478 3038 2890 2622 
Q 3303 2206 3303 1553 
Q 3303 931 2941 478 
Q 2500 -78 1738 -78 
Q 1113 -78 717 272 
Q 322 622 266 1200 
z
" transform="scale(0.015625)"/>
       </defs>
       <use xlink:href="#ArialMT-31"/>
       <use xlink:href="#ArialMT-35" x="55.615234"/>
      </g>
     </g>
    </g>
    <g id="xtick_3">
     <g id="line2d_3">
      <g>
       <use xlink:href="#mb9a58addea" x="307.173075" y="448.56" style="fill: #262626; stroke: #262626; stroke-width: 0.8"/>
      </g>
     </g>
     <g id="text_3">
      <!-- 20 -->
      <g style="fill: #262626" transform="translate(299.387763 467.080938) scale(0.14 -0.14)">
       <defs>
        <path id="ArialMT-32" d="M 3222 541 
L 3222 0 
L 194 0 
Q 188 203 259 391 
Q 375 700 629 1000 
Q 884 1300 1366 1694 
Q 2113 2306 2375 2664 
Q 2638 3022 2638 3341 
Q 2638 3675 2398 3904 
Q 2159 4134 1775 4134 
Q 1369 4134 1125 3890 
Q 881 3647 878 3216 
L 300 3275 
Q 359 3922 746 4261 
Q 1134 4600 1788 4600 
Q 2447 4600 2831 4234 
Q 3216 3869 3216 3328 
Q 3216 3053 3103 2787 
Q 2991 2522 2730 2228 
Q 2469 1934 1863 1422 
Q 1356 997 1212 845 
Q 1069 694 975 541 
L 3222 541 
z
" transform="scale(0.015625)"/>
       </defs>
       <use xlink:href="#ArialMT-32"/>
       <use xlink:href="#ArialMT-30" x="55.615234"/>
      </g>
     </g>
    </g>
    <g id="xtick_4">
     <g id="line2d_4">
      <g>
       <use xlink:href="#mb9a58addea" x="390.850333" y="448.56" style="fill: #262626; stroke: #262626; stroke-width: 0.8"/>
      </g>
     </g>
     <g id="text_4">
      <!-- 25 -->
      <g style="fill: #262626" transform="translate(383.065021 467.080938) scale(0.14 -0.14)">
       <use xlink:href="#ArialMT-32"/>
       <use xlink:href="#ArialMT-35" x="55.615234"/>
      </g>
     </g>
    </g>
    <g id="text_5">
     <!-- x [\xb5m] -->
     <g style="fill: #262626" transform="translate(225.84875 485.510938) scale(0.16 -0.16)">
      <defs>
       <path id="ArialMT-78" d="M 47 0 
L 1259 1725 
L 138 3319 
L 841 3319 
L 1350 2541 
Q 1494 2319 1581 2169 
Q 1719 2375 1834 2534 
L 2394 3319 
L 3066 3319 
L 1919 1756 
L 3153 0 
L 2463 0 
L 1781 1031 
L 1600 1309 
L 728 0 
L 47 0 
z
" transform="scale(0.015625)"/>
       <path id="ArialMT-20" transform="scale(0.015625)"/>
       <path id="ArialMT-5b" d="M 434 -1272 
L 434 4581 
L 1675 4581 
L 1675 4116 
L 997 4116 
L 997 -806 
L 1675 -806 
L 1675 -1272 
L 434 -1272 
z
" transform="scale(0.015625)"/>
       <path id="ArialMT-5c" d="M 1328 -78 
L 0 4659 
L 453 4659 
L 1778 -78 
L 1328 -78 
z
" transform="scale(0.015625)"/>
       <path id="ArialMT-62" d="M 941 0 
L 419 0 
L 419 4581 
L 981 4581 
L 981 2947 
Q 1338 3394 1891 3394 
Q 2197 3394 2470 3270 
Q 2744 3147 2920 2923 
Q 3097 2700 3197 2384 
Q 3297 2069 3297 1709 
Q 3297 856 2875 390 
Q 2453 -75 1863 -75 
Q 1275 -75 941 416 
L 941 0 
z
M 934 1684 
Q 934 1088 1097 822 
Q 1363 388 1816 388 
Q 2184 388 2453 708 
Q 2722 1028 2722 1663 
Q 2722 2313 2464 2622 
Q 2206 2931 1841 2931 
Q 1472 2931 1203 2611 
Q 934 2291 934 1684 
z
" transform="scale(0.015625)"/>
       <path id="ArialMT-6d" d="M 422 0 
L 422 3319 
L 925 3319 
L 925 2853 
Q 1081 3097 1340 3245 
Q 1600 3394 1931 3394 
Q 2300 3394 2536 3241 
Q 2772 3088 2869 2813 
Q 3263 3394 3894 3394 
Q 4388 3394 4653 3120 
Q 4919 2847 4919 2278 
L 4919 0 
L 4359 0 
L 4359 2091 
Q 4359 2428 4304 2576 
Q 4250 2725 4106 2815 
Q 3963 2906 3769 2906 
Q 3419 2906 3187 2673 
Q 2956 2441 2956 1928 
L 2956 0 
L 2394 0 
L 2394 2156 
Q 2394 2531 2256 2718 
Q 2119 2906 1806 2906 
Q 1569 2906 1367 2781 
Q 1166 2656 1075 2415 
Q 984 2175 984 1722 
L 984 0 
L 422 0 
z
" transform="scale(0.015625)"/>
       <path id="ArialMT-5d" d="M 1363 -1272 
L 122 -1272 
L 122 -806 
L 800 -806 
L 800 4116 
L 122 4116 
L 122 4581 
L 1363 4581 
L 1363 -1272 
z
" transform="scale(0.015625)"/>
      </defs>
      <use xlink:href="#ArialMT-78"/>
      <use xlink:href="#ArialMT-20" x="50"/>
      <use xlink:href="#ArialMT-5b" x="77.783203"/>
      <use xlink:href="#ArialMT-5c" x="105.566406"/>
      <use xlink:href="#ArialMT-78" x="133.349609"/>
      <use xlink:href="#ArialMT-62" x="183.349609"/>
      <use xlink:href="#ArialMT-35" x="238.964844"/>
      <use xlink:href="#ArialMT-6d" x="294.580078"/>
      <use xlink:href="#ArialMT-5d" x="377.880859"/>
     </g>
    </g>
   </g>
   <g id="matplotlib.axis_2">
    <g id="ytick_1">
     <g id="line2d_5">
      <defs>
       <path id="m87200b81ae" d="M 0 0 
L -5 0 
" style="stroke: #262626; stroke-width: 0.8"/>
      </defs>
      <g>
       <use xlink:href="#m87200b81ae" x="63" y="141.999154" style="fill: #262626; stroke: #262626; stroke-width: 0.8"/>
      </g>
     </g>
     <g id="text_6">
      <!-- 5 -->
      <g style="fill: #262626" transform="translate(46.714687 147.009622) scale(0.14 -0.14)">
       <use xlink:href="#ArialMT-35"/>
      </g>
     </g>
    </g>
    <g id="ytick_2">
     <g id="line2d_6">
      <g>
       <use xlink:href="#m87200b81ae" x="63" y="225.676411" style="fill: #262626; stroke: #262626; stroke-width: 0.8"/>
      </g>
     </g>
     <g id="text_7">
      <!-- 10 -->
      <g style="fill: #262626" transform="translate(38.929375 230.68688) scale(0.14 -0.14)">
       <use xlink:href="#ArialMT-31"/>
       <use xlink:href="#ArialMT-30" x="55.615234"/>
      </g>
     </g>
    </g>
    <g id="ytick_3">
     <g id="line2d_7">
      <g>
       <use xlink:href="#m87200b81ae" x="63" y="309.353669" style="fill: #262626; stroke: #262626; stroke-width: 0.8"/>
      </g>
     </g>
     <g id="text_8">
      <!-- 15 -->
      <g style="fill: #262626" transform="translate(38.929375 314.364138) scale(0.14 -0.14)">
       <use xlink:href="#ArialMT-31"/>
       <use xlink:href="#ArialMT-35" x="55.615234"/>
      </g>
     </g>
    </g>
    <g id="ytick_4">
     <g id="line2d_8">
      <g>
       <use xlink:href="#m87200b81ae" x="63" y="393.030927" style="fill: #262626; stroke: #262626; stroke-width: 0.8"/>
      </g>
     </g>
     <g id="text_9">
      <!-- 20 -->
      <g style="fill: #262626" transform="translate(38.929375 398.041396) scale(0.14 -0.14)">
       <use xlink:href="#ArialMT-32"/>
       <use xlink:href="#ArialMT-30" x="55.615234"/>
      </g>
     </g>
    </g>
    <g id="text_10">
     <!-- y [\xb5m] -->
     <g style="fill: #262626" transform="translate(31.561875 286.97125) rotate(-90) scale(0.16 -0.16)">
      <defs>
       <path id="ArialMT-79" d="M 397 -1278 
L 334 -750 
Q 519 -800 656 -800 
Q 844 -800 956 -737 
Q 1069 -675 1141 -563 
Q 1194 -478 1313 -144 
Q 1328 -97 1363 -6 
L 103 3319 
L 709 3319 
L 1400 1397 
Q 1534 1031 1641 628 
Q 1738 1016 1872 1384 
L 2581 3319 
L 3144 3319 
L 1881 -56 
Q 1678 -603 1566 -809 
Q 1416 -1088 1222 -1217 
Q 1028 -1347 759 -1347 
Q 597 -1347 397 -1278 
z
" transform="scale(0.015625)"/>
      </defs>
      <use xlink:href="#ArialMT-79"/>
      <use xlink:href="#ArialMT-20" x="50"/>
      <use xlink:href="#ArialMT-5b" x="77.783203"/>
      <use xlink:href="#ArialMT-5c" x="105.566406"/>
      <use xlink:href="#ArialMT-78" x="133.349609"/>
      <use xlink:href="#ArialMT-62" x="183.349609"/>
      <use xlink:href="#ArialMT-35" x="238.964844"/>
      <use xlink:href="#ArialMT-6d" x="294.580078"/>
      <use xlink:href="#ArialMT-5d" x="377.880859"/>
     </g>
    </g>
   </g>
   <g id="line2d_9">
    <path d="M 373.305873 300.304126 
L 373.486925 300.477915 
L 373.387411 300.224228 
L 373.452876 299.938029 
L 373.34392 300.451224 
L 373.540635 300.278503 
L 373.168365 300.123406 
L 373.690115 300.846298 
L 373.362608 300.628171 
L 373.167049 300.731014 
L 373.341734 300.755873 
L 373.504615 300.953176 
L 373.76035 300.567975 
L 373.73656 300.788541 
L 373.464983 301.228832 
L 373.11348 301.06072 
L 373.396448 301.00032 
L 373.254646 300.720557 
L 373.035868 301.056759 
L 372.95295 300.705422 
L 373.104708 300.271755 
L 372.90899 300.476839 
L 372.427395 300.518209 
L 372.839483 300.32934 
L 373.301842 300.567453 
L 373.080468 300.056415 
L 373.15491 300.425341 
L 373.084086 300.522173 
L 372.492809 300.576711 
L 372.670646 300.151607 
L 372.552853 300.706466 
L 372.711541 300.978698 
L 373.112094 300.974501 
L 372.836452 301.097837 
L 373.287427 300.641507 
L 372.649913 300.262118 
L 372.307184 300.000086 
L 372.615044 300.209477 
L 372.688896 300.651143 
L 373.190653 300.611923 
L 373.181688 300.800268 
L 373.30664 300.998008 
L 373.236029 301.19132 
L 373.167208 301.136289 
L 372.796032 300.746267 
L 372.851542 300.490908 
L 373.327742 300.526387 
L 373.241088 300.680813 
L 373.567487 300.802969 
L 373.499504 300.826128 
L 373.49016 300.484415 
L 373.35006 300.359458 
L 373.342405 300.53052 
L 373.206049 300.549919 
L 373.272059 300.693507 
L 373.477223 300.590399 
L 373.203767 300.743256 
L 373.105524 300.56769 
L 373.277936 300.525969 
L 372.897606 300.597817 
L 372.858013 300.294014 
L 373.171323 300.087775 
L 373.355737 300.11174 
L 373.381255 299.846625 
L 373.549621 299.826812 
L 373.073278 300.474052 
L 373.512969 300.690402 
L 373.773432 300.45707 
L 373.626413 300.718913 
L 373.698012 300.169274 
L 373.821269 300.451176 
L 372.92974 300.219049 
L 373.29505 300.713031 
L 373.166381 300.97228 
L 373.457084 301.057727 
L 373.444876 300.671172 
L 373.296693 300.743112 
L 373.494852 300.790183 
L 373.385697 300.85461 
L 373.371839 301.044237 
L 373.413122 300.783773 
L 373.643234 300.772913 
L 373.466862 300.92069 
M 373.666528 301.127558 
L 373.179312 301.293962 
L 373.448795 301.158874 
L 373.496292 300.984706 
L 373.347145 301.146502 
L 373.323109 300.801139 
L 373.390332 301.035103 
L 373.77088 299.939159 
L 373.722827 300.921304 
L 373.055098 300.438203 
L 373.139192 300.867086 
L 373.344725 300.875719 
L 373.465483 300.576317 
L 373.351017 300.775372 
L 373.627013 300.994676 
L 373.326996 300.951084 
L 373.163918 301.058061 
M 373.267821 300.276102 
L 373.875168 300.271075 
L 373.449083 300.201187 
L 373.312817 299.885087 
L 373.445782 299.99179 
L 373.517979 299.89693 
L 373.238518 300.348523 
L 373.141056 300.138883 
L 372.817456 299.983067 
M 372.689519 300.462647 
L 373.372743 300.361001 
L 372.614229 300.745742 
M 373.419428 300.918442 
L 374.144674 300.532522 
L 373.757853 300.80736 
L 374.19316 300.974209 
M 373.539105 300.317521 
L 373.715463 300.313665 
L 373.472946 300.319232 
L 373.59802 300.438105 
L 373.791516 300.094913 
L 372.852257 300.153217 
L 373.388735 300.184763 
L 373.323831 299.847174 
L 373.366436 300.050172 
L 373.678494 300.460576 
L 373.251763 299.999345 
L 373.036178 299.363961 
L 373.26548 300.24319 
L 373.410243 300.042494 
L 373.740249 300.653436 
L 373.499983 300.27685 
L 373.032894 300.017655 
L 372.97436 299.734434 
L 373.439168 300.032505 
M 373.322793 299.86717 
L 373.466437 300.559932 
M 373.240584 300.544957 
L 372.819612 300.432732 
L 373.097697 300.47861 
L 372.880542 300.188697 
L 372.926627 300.016216 
L 373.382042 300.469963 
L 373.217431 300.078048 
L 372.879791 299.783056 
L 372.949525 300.201644 
L 373.38183 300.107438 
L 373.357972 299.991659 
L 373.0159 300.528446 
L 372.588912 300.662257 
L 372.756455 300.57745 
L 373.414609 300.579535 
L 373.599963 300.879286 
L 372.931006 300.569603 
L 373.034005 300.391229 
L 372.738268 300.501356 
L 373.078842 300.581281 
L 372.715993 300.62494 
L 373.070959 300.479278 
L 372.792326 300.78015 
L 373.035945 300.344091 
L 372.692088 300.486021 
L 373.051031 300.325549 
L 373.081148 300.600964 
L 373.149905 300.047191 
L 372.87788 300.1219 
L 372.817087 299.967199 
L 373.102267 300.105267 
L 373.033223 299.69528 
L 373.340127 299.987252 
L 373.279256 300.330587 
L 373.09432 299.980358 
L 373.297899 299.365296 
L 373.182938 299.814642 
L 373.640378 299.69311 
M 373.520888 299.870558 
L 372.830773 299.749887 
L 373.046477 299.329912 
L 373.0577 299.799591 
L 373.254383 299.936182 
L 373.147278 299.637666 
M 373.155571 299.286632 
L 372.941077 299.638274 
L 373.07379 299.830251 
L 373.042392 299.778962 
L 372.586406 299.701063 
L 372.863384 300.135395 
L 372.625839 300.186649 
L 373.097824 299.983887 
L 372.986778 300.830155 
M 372.593275 300.634257 
L 372.716027 300.31197 
L 373.017529 299.962416 
L 373.109436 300.223023 
L 372.686759 300.190848 
M 373.664178 300.190432 
L 373.016065 300.678728 
M 372.638331 299.939159 
L 372.229947 300.148812 
L 372.430225 299.870677 
L 372.130184 300.140679 
M 372.376522 299.722392 
L 372.544909 300.064426 
L 372.480895 300.025755 
M 371.945809 300.364056 
L 372.290033 299.84519 
L 372.290033 299.84519 
" clip-path="url(#pfbda8c998b)" style="fill: none; stroke: #1f77b4; stroke-linecap: round"/>
   </g>
   <g id="line2d_10">
    <path d="M 348.19014 152.403266 
L 348.357118 152.633844 
L 349.08069 152.372823 
L 348.572153 151.997436 
L 349.181888 151.982535 
L 348.742222 151.820168 
L 348.971115 152.421754 
L 348.78782 152.824185 
L 348.816075 152.464079 
L 349.016011 152.907629 
L 350.066773 152.663172 
L 349.755558 152.55131 
L 349.637845 152.853826 
L 350.205629 152.573455 
L 350.060296 153.124225 
L 350.084908 153.08414 
L 349.770063 152.575596 
L 349.822116 152.867779 
L 349.542088 152.602505 
L 349.829518 152.413051 
L 348.994173 152.475358 
L 349.406893 152.277573 
L 350.458547 152.689855 
L 349.910182 152.470871 
L 350.19894 152.448516 
L 349.6218 151.901808 
L 349.49779 152.272115 
L 349.697903 151.996472 
M 350.501851 152.192219 
L 350.321849 152.230665 
L 350.214749 151.587499 
L 350.373295 152.109506 
L 349.704871 151.811598 
L 349.679657 151.114482 
L 349.644098 151.483416 
M 349.147956 151.2514 
L 348.903356 151.616558 
L 349.500763 152.175218 
L 349.904287 151.819211 
L 348.579334 151.518864 
M 349.451045 151.282143 
L 348.954312 151.312854 
L 349.672678 151.755046 
L 348.968959 151.32196 
M 349.831497 151.626634 
L 349.362371 151.337742 
L 349.247605 151.903674 
M 349.447449 152.140744 
L 349.357647 152.20233 
L 348.498817 152.17744 
L 349.06563 152.229069 
L 348.759776 151.913645 
L 347.902733 151.755492 
L 348.172649 152.138766 
L 348.153619 151.971643 
L 348.207279 152.567106 
L 348.085887 152.692926 
L 348.524245 151.975999 
L 348.681887 152.239328 
L 347.066484 151.923399 
L 347.529858 151.78496 
L 347.822306 152.151811 
L 348.318123 152.117167 
L 348.21376 152.290491 
L 348.5932 151.629569 
L 348.463098 151.749279 
L 348.007723 151.414857 
L 348.629513 151.223396 
L 347.886891 151.638315 
L 348.488912 151.759233 
L 348.88517 151.503332 
L 348.262494 151.175689 
L 348.53879 150.577659 
L 348.684456 150.804353 
L 348.020512 150.336641 
L 348.046963 151.368822 
L 348.226664 151.417202 
L 348.19067 150.946401 
L 348.162901 151.436339 
L 348.095581 151.385684 
L 347.742565 151.71795 
L 347.682085 152.154107 
L 348.402944 152.216319 
L 348.461807 152.424344 
L 348.980317 152.189169 
L 348.670022 152.474215 
L 348.531631 151.542801 
L 348.8838 152.052933 
L 348.579768 152.233359 
L 348.272838 152.025352 
M 348.98509 152.599784 
L 348.079861 153.120883 
L 348.580862 152.812384 
L 348.28418 152.692979 
L 348.957512 152.290591 
L 349.509112 152.446457 
L 349.397955 152.929051 
L 349.269981 152.601152 
L 349.626077 152.914026 
L 348.935521 153.380359 
L 348.741755 153.360205 
L 349.428114 152.984681 
L 349.419169 153.027717 
L 349.21616 152.875817 
L 349.791075 152.892968 
L 349.456212 153.321669 
L 349.63484 153.294908 
L 349.292394 152.7722 
L 349.420796 152.177871 
L 348.778979 152.502074 
L 348.786118 153.124621 
L 348.896626 152.967485 
L 349.612506 152.735625 
L 349.207991 153.210978 
L 349.349127 153.466738 
L 349.709861 153.764391 
L 349.714541 153.945107 
L 350.135287 153.662872 
L 350.119891 153.816601 
L 349.785673 153.307096 
L 349.263041 153.523844 
L 349.371874 153.663028 
L 349.217336 153.414285 
L 349.235435 153.477802 
L 348.794008 153.664036 
L 349.119507 153.095421 
L 349.281495 153.983148 
L 349.161129 153.537313 
L 349.528775 153.536904 
L 348.885882 153.446895 
L 349.383507 153.389686 
L 349.17749 153.637461 
L 348.960047 153.140896 
L 349.438819 153.447183 
L 349.311226 153.674969 
L 349.74783 153.76603 
L 349.48372 153.63882 
L 349.603259 153.440712 
L 349.324324 153.390396 
L 349.415859 153.522891 
L 349.702301 153.153892 
L 349.410894 152.722355 
L 350.098111 152.726035 
M 349.819298 153.296834 
L 349.91196 153.21349 
L 349.169013 153.212714 
L 348.959985 152.423694 
L 349.244661 152.467478 
L 348.890985 152.329109 
L 348.706664 152.725332 
L 349.15382 152.972185 
L 348.741606 152.664896 
L 348.956259 152.625285 
L 348.982466 152.878723 
L 349.52582 152.116262 
L 349.16239 152.14494 
L 348.932241 152.369745 
L 348.801232 152.268794 
L 348.707328 152.006476 
L 348.392948 152.95839 
L 348.250056 153.085012 
L 348.861875 152.856414 
L 348.464658 152.914431 
L 349.223475 152.190072 
L 348.935896 152.064207 
L 348.636573 152.243855 
L 348.262509 151.917083 
L 347.847742 152.286116 
L 348.097387 151.923748 
L 348.005331 151.565113 
L 348.025706 152.200066 
L 348.672859 152.503138 
L 348.729651 152.107029 
L 348.532588 152.013228 
L 348.539957 152.584311 
L 348.532467 152.304078 
L 347.868589 151.775653 
L 348.259764 151.787424 
L 348.405288 151.45217 
L 348.85802 151.465156 
L 348.085096 151.73663 
L 348.350852 152.230792 
L 347.601763 152.106043 
L 347.880475 151.626996 
L 347.839344 151.625374 
L 348.372217 152.08282 
L 348.360396 151.988666 
L 347.970702 152.09015 
L 348.971099 151.676107 
L 348.668977 151.729737 
L 348.854423 152.450404 
L 348.664253 152.505984 
L 348.76011 152.567586 
L 348.513915 152.855159 
L 348.740905 152.749068 
L 348.606464 152.976959 
L 348.174747 152.922658 
L 348.285134 152.812493 
L 347.99145 152.878645 
L 348.036376 152.197781 
L 348.001955 152.346928 
L 348.395025 152.025814 
L 348.878245 152.372088 
L 347.9673 152.252023 
L 348.248403 152.086144 
L 348.623224 152.741612 
L 348.353083 152.797904 
L 348.857576 152.709463 
L 348.328061 152.364906 
L 348.450942 152.678637 
L 348.259687 152.520597 
L 348.043003 152.567661 
L 348.061834 152.700396 
L 347.736246 152.666548 
L 348.240727 152.978218 
L 348.233279 153.354104 
L 348.493539 153.158437 
L 348.161417 152.98193 
L 347.898773 153.108199 
L 348.092983 153.103701 
L 347.680592 153.373319 
L 347.55072 152.771189 
L 348.195492 152.408775 
L 348.429469 152.952851 
L 348.007875 153.456798 
L 347.804466 153.218617 
L 347.737 153.341574 
L 347.65474 153.008615 
L 346.982423 152.748915 
L 347.230558 152.369274 
L 347.330918 152.583062 
L 348.08755 152.756206 
L 347.650939 153.019275 
L 347.973679 153.272554 
L 348.180304 153.60738 
L 348.310982 151.931708 
M 348.240021 152.779019 
L 348.106555 152.742361 
L 348.092221 152.539394 
L 348.341218 152.493853 
M 347.445088 152.345549 
L 347.985212 152.212558 
L 347.733874 151.987138 
L 347.77859 151.853182 
L 347.628441 151.710751 
L 347.756846 151.709768 
L 347.471205 152.009975 
L 347.385465 151.913668 
L 347.357222 152.061541 
L 347.757859 151.735055 
L 346.804365 151.026726 
L 347.214147 151.386789 
M 348.281881 151.519814 
L 348.680566 151.916015 
L 349.108474 152.688113 
L 348.929354 152.095323 
L 349.35979 150.955801 
M 348.790018 152.17055 
L 349.604746 152.018832 
L 349.171856 151.632266 
L 349.570754 151.908829 
M 349.594795 152.465483 
L 349.231103 151.861168 
L 348.927364 152.169524 
L 348.928651 152.820789 
L 349.419915 153.103118 
L 349.042781 152.669459 
L 348.747057 152.74635 
L 349.005506 152.259126 
L 348.781435 152.63336 
L 348.502451 152.355867 
L 349.631716 152.411419 
L 349.845925 152.306173 
L 349.171229 152.350483 
M 349.120797 151.955429 
L 348.818074 151.929878 
M 348.936865 151.541286 
L 349.103157 151.252581 
L 348.712652 151.508688 
L 348.320214 151.301387 
L 347.948583 150.958157 
L 348.451743 150.847857 
L 348.25291 150.762077 
L 348.273758 151.036839 
L 348.516763 151.622309 
L 348.447879 151.982914 
L 348.539188 151.919219 
L 348.957933 151.927798 
L 348.492177 152.183793 
L 348.758718 152.115444 
L 348.224203 152.007496 
L 347.966067 151.732168 
L 348.594162 152.239756 
L 348.3039 151.707655 
L 347.938523 151.582806 
L 347.803782 151.266887 
L 348.454376 152.148469 
L 348.056684 152.093448 
L 347.248643 151.800566 
L 347.862211 151.705614 
L 347.663506 152.330425 
L 347.262084 152.14429 
L 347.182721 151.401782 
L 347.504518 151.442795 
L 347.97463 151.785052 
L 347.530719 151.958147 
L 347.604621 151.535559 
L 346.884985 151.64659 
L 347.227702 151.297117 
L 347.553018 151.226114 
L 348.277983 151.421167 
L 347.825406 151.758319 
L 347.88665 152.194825 
L 348.416207 151.877257 
L 348.323373 151.562943 
L 348.819772 152.160297 
L 348.685163 152.400359 
L 349.245609 152.193881 
M 348.570846 151.613472 
L 348.498609 151.418636 
L 347.82327 151.754461 
L 347.561653 152.084292 
L 347.687956 151.392352 
L 347.687956 151.392352 
" clip-path="url(#pfbda8c998b)" style="fill: none; stroke: #ff7f0e; stroke-linecap: round"/>
   </g>
   <g id="line2d_11">
    <path d="M 332.265491 175.754014 
L 331.417903 175.683797 
L 330.639373 175.49699 
L 330.652929 175.27639 
L 330.885745 174.773773 
L 331.01476 175.691078 
L 330.707528 175.978779 
L 330.269889 176.853241 
L 330.400274 176.377721 
L 330.181543 176.676341 
L 331.382016 176.710169 
L 331.694062 176.868867 
L 331.379941 176.523309 
L 331.29492 176.09335 
L 330.965034 175.77283 
L 331.589285 175.827364 
L 331.286398 175.571143 
L 330.40964 175.233401 
L 330.688153 175.73358 
L 330.346547 176.216014 
L 330.407358 176.18872 
L 329.91679 176.34074 
L 329.960862 176.332425 
L 330.041745 177.085833 
L 329.692061 177.290793 
L 329.779645 177.270198 
L 329.964243 176.969672 
L 330.097045 176.502933 
L 329.94728 176.436176 
L 330.541757 176.220686 
L 329.689217 175.972737 
L 329.651125 176.286531 
L 329.148706 176.265385 
L 330.202255 176.789296 
L 329.995949 176.683853 
L 329.854023 176.190926 
L 329.67824 176.194738 
L 330.002844 176.157165 
L 330.313371 175.338107 
L 330.311719 175.743876 
L 329.862176 175.660485 
L 329.856995 176.041822 
L 330.289591 176.192994 
L 330.127254 176.197321 
L 330.465828 176.380542 
L 330.282444 176.281046 
L 330.419481 175.921387 
L 330.244438 175.648888 
L 330.492381 176.383011 
L 330.210851 175.824015 
L 329.555811 176.034052 
L 329.580424 176.78626 
L 328.974158 176.934209 
L 329.060757 176.790684 
L 329.7491 177.136943 
L 329.474725 176.986269 
L 329.760572 176.28693 
L 329.574693 176.072626 
L 329.803613 176.309997 
L 330.059061 177.125206 
L 330.63264 177.597261 
L 330.678938 177.473529 
L 331.009433 176.91898 
L 330.756422 177.144229 
L 330.785923 176.59799 
L 330.810921 176.881369 
L 330.377154 176.934619 
L 330.676642 177.147732 
L 330.543978 176.652652 
L 330.824345 175.985641 
L 330.594994 176.04312 
L 330.978902 176.315181 
L 330.983629 175.710364 
L 330.43665 176.370009 
L 330.053367 175.719195 
L 329.204179 176.111272 
L 329.286385 176.479911 
L 330.022345 176.080567 
L 330.328177 176.551245 
L 329.992252 175.960065 
L 329.787066 176.748602 
L 330.126307 176.189862 
L 330.483213 176.335447 
L 329.679663 176.3167 
L 329.963204 176.045046 
L 330.036964 175.596545 
L 329.41664 175.601426 
L 329.940356 175.754231 
L 329.196774 176.964353 
L 329.977321 177.038472 
L 330.328311 176.276229 
L 330.299787 176.693324 
L 330.153773 176.532619 
L 329.576752 176.34621 
L 329.444842 176.535996 
L 329.861522 176.048868 
L 329.653236 176.195359 
L 329.429372 175.899179 
L 329.834315 175.588778 
L 329.6885 175.839854 
L 329.683269 175.374601 
L 329.994457 175.656303 
L 329.702421 175.603178 
L 329.571585 175.989711 
L 330.10736 176.155245 
L 329.297724 175.638181 
L 329.338345 175.646104 
L 328.853063 176.453521 
L 329.20872 176.233068 
L 329.759967 176.507506 
L 329.738165 175.533395 
L 329.537928 175.073673 
L 329.291159 175.576906 
L 329.53728 175.906612 
L 329.560028 176.923188 
L 329.417647 177.085812 
L 330.076792 176.050279 
L 330.439977 176.058693 
L 330.327336 175.856945 
L 329.662052 175.713481 
L 329.397686 176.498523 
L 329.29578 176.425664 
L 329.420907 175.835985 
L 329.487431 176.06733 
L 329.56189 175.594362 
L 329.417484 175.909914 
L 329.800909 176.012176 
L 329.780171 176.086788 
L 329.674101 175.645062 
L 329.342231 176.026296 
L 328.699101 175.783424 
L 328.96774 176.269537 
L 328.73451 176.245358 
L 328.813009 175.994894 
L 328.665479 175.736661 
L 329.066125 175.779868 
L 329.095286 175.342451 
L 328.714624 175.214009 
L 328.810997 175.908647 
L 328.796619 175.230853 
L 328.409849 174.872598 
L 328.725628 175.474348 
L 328.751737 175.293829 
L 329.195142 175.40662 
L 329.907721 176.635113 
L 329.282723 176.487219 
L 329.437778 176.304907 
L 329.641298 176.67122 
L 329.978384 176.171807 
L 330.312887 176.18845 
L 330.933663 175.930854 
L 331.037697 176.551188 
L 331.36946 175.810298 
L 331.460391 176.532547 
L 330.808373 175.853362 
L 330.997175 175.622064 
L 330.893706 175.917212 
L 330.387971 176.173448 
L 330.868558 175.982677 
L 331.227923 176.503437 
L 331.125887 176.189834 
L 330.622829 176.115913 
L 330.400498 176.308414 
L 330.720904 176.111853 
L 330.759264 175.435359 
L 330.908428 175.553497 
L 330.415199 175.986181 
L 330.309512 175.439277 
L 330.887521 175.633543 
L 330.53926 176.14833 
L 330.370691 175.617754 
L 330.323486 176.055205 
L 329.374207 175.962829 
L 329.965662 176.019582 
L 330.0479 174.698662 
L 329.829611 174.959643 
L 329.799008 175.308975 
L 330.110173 175.424095 
L 330.970801 175.209145 
L 330.298742 175.198715 
L 330.525276 175.203928 
L 330.573301 174.458355 
L 329.801668 174.944675 
L 330.169288 174.648443 
L 330.7397 175.567775 
L 330.681644 176.018402 
L 330.652197 175.973615 
L 330.346671 175.808173 
L 330.623803 175.838391 
L 330.901184 175.594676 
L 330.58191 175.888918 
L 330.323267 175.694732 
L 330.435993 176.209638 
L 329.896851 176.630266 
L 329.86927 176.889598 
M 330.063095 176.308514 
L 330.165696 175.97645 
L 329.430709 175.318187 
L 329.245518 174.851255 
L 329.557996 174.726816 
L 329.407246 174.317087 
L 329.768088 174.324109 
L 329.956293 173.780654 
L 329.703514 174.081531 
L 329.473511 173.574883 
L 328.801133 173.330555 
L 329.049707 173.913191 
L 328.819376 174.553326 
L 328.1325 174.550815 
L 328.177793 174.913866 
L 328.527568 174.214844 
L 328.980863 174.677071 
L 329.549193 174.63953 
L 329.443958 174.499006 
L 330.071177 175.306493 
L 330.02944 175.723977 
L 329.954931 175.626811 
L 329.50847 175.844128 
L 329.783691 175.749178 
L 329.956259 175.897736 
L 330.277614 175.26129 
L 330.598319 175.171332 
L 330.456932 174.993306 
L 330.668993 175.419739 
L 330.309074 175.391164 
L 330.46255 175.954983 
L 330.19036 175.778898 
L 329.547431 176.310967 
L 329.540653 175.963988 
L 329.67907 176.087837 
L 329.800769 175.925986 
L 329.679597 176.055498 
L 329.389398 176.275187 
L 329.879344 176.378478 
L 330.156329 176.222098 
L 329.967294 175.92258 
L 329.622733 176.959714 
L 329.041805 176.699783 
L 328.832519 177.197183 
L 329.197325 176.617185 
L 328.606341 175.899804 
L 329.517333 176.177703 
L 329.584351 176.845581 
L 329.469179 177.527053 
L 329.146838 177.07337 
L 329.315844 176.702522 
L 329.223749 176.41368 
L 329.491005 175.855057 
L 329.390099 175.784972 
L 329.904527 175.841281 
L 329.718127 175.951423 
L 329.823673 176.766245 
L 329.752708 176.477833 
L 330.011383 176.760839 
L 329.463172 176.866668 
L 329.334535 177.280048 
L 329.28726 177.23622 
L 330.375642 177.050685 
L 330.600616 177.39593 
L 329.809319 177.18631 
L 329.771774 177.543298 
L 329.908114 177.506498 
L 330.848712 177.85093 
L 330.845386 177.640076 
L 330.660216 178.179761 
L 330.487107 178.116373 
L 330.965513 177.923224 
L 330.864454 178.497831 
L 330.387867 177.935607 
L 329.749855 177.976566 
L 329.464087 177.824473 
L 329.879099 177.973581 
L 330.855721 177.972508 
L 331.540434 176.967469 
L 331.217066 177.270504 
L 332.248079 176.848977 
L 331.892425 177.062951 
L 331.762544 176.490397 
L 332.101703 176.269492 
L 331.984139 175.736968 
L 331.699057 176.702441 
L 331.457566 176.549935 
L 331.298644 177.913483 
L 331.479438 177.473222 
L 331.55717 176.605356 
L 332.450465 177.091895 
L 332.544996 177.716361 
L 332.024966 178.244731 
L 331.417066 177.729051 
L 332.170795 177.921854 
L 332.210938 177.67922 
L 331.736003 178.122645 
L 331.440319 178.111221 
L 331.439647 177.618971 
L 331.118846 178.388742 
L 331.2984 177.948327 
L 331.664342 177.543012 
L 331.852122 177.540776 
L 331.751675 177.975503 
L 331.636203 177.796507 
L 331.903509 178.09243 
L 331.434763 178.081494 
L 331.678699 178.382629 
L 331.898423 178.338134 
L 331.205684 177.92215 
L 330.926427 178.163376 
L 331.195174 177.482823 
L 331.742284 177.33338 
L 331.816923 177.979768 
L 331.630043 178.735438 
L 332.163747 178.843349 
L 332.114453 178.716853 
L 332.388396 178.224961 
L 332.132155 177.18893 
L 332.485076 178.235573 
L 332.899773 178.22284 
L 331.573929 177.931625 
L 331.749192 178.105611 
L 331.802626 177.552464 
L 331.80824 178.3872 
L 332.527103 178.833339 
L 332.607986 178.522704 
L 333.057257 178.982365 
L 332.233089 178.541552 
L 331.530143 178.35574 
L 331.60963 178.380451 
L 331.296472 178.735865 
L 330.893244 178.76058 
L 330.154247 179.276863 
L 329.340944 179.185367 
L 330.040784 178.572331 
L 329.229137 179.15922 
L 329.332127 179.537821 
L 329.740709 179.63262 
L 329.991379 179.55532 
L 330.91293 179.915842 
M 330.485662 179.102626 
L 331.165092 178.437067 
L 331.507401 178.707576 
L 331.215301 178.960122 
L 332.226105 178.500672 
L 332.950207 177.998831 
L 332.525437 178.043504 
M 333.18698 178.286446 
L 333.060876 178.453142 
L 332.551959 178.572979 
M 333.146407 177.734031 
L 332.507023 178.127685 
M 332.636493 178.51381 
" clip-path="url(#pfbda8c998b)" style="fill: none; stroke: #2ca02c; stroke-linecap: round"/>
   </g>
   <g id="line2d_12">
    <path d="M 257.157419 96.019792 
L 256.926162 96.234496 
L 257.174846 96.105546 
L 257.46433 96.138477 
L 257.191451 96.129589 
L 257.139649 96.407693 
L 257.129117 96.147652 
L 256.935106 96.658504 
L 257.069641 96.522967 
L 257.489526 96.506932 
L 256.976272 96.312515 
L 257.417695 96.348871 
L 257.26584 96.299727 
L 257.606317 96.629411 
L 257.691403 96.248627 
L 257.639191 96.46429 
L 257.266874 96.402167 
L 256.94689 95.967969 
M 257.002447 96.035487 
L 257.245859 95.550065 
L 256.704542 95.1409 
L 257.362768 95.584368 
L 257.248691 95.559939 
L 257.161719 96.154113 
L 257.439612 95.664911 
L 257.209356 95.591971 
L 257.692599 95.531481 
L 257.087665 95.403615 
L 256.875369 95.579009 
L 257.046092 96.0638 
L 257.261529 96.044399 
L 257.241809 96.263828 
L 257.162285 95.770851 
L 257.370143 95.867891 
L 257.277517 95.749478 
L 257.242145 96.152711 
L 257.747179 95.658057 
L 257.592478 95.632361 
L 257.446345 95.35076 
L 257.144508 95.877525 
L 256.827186 95.384968 
L 257.154354 96.156639 
L 257.728788 96.355369 
L 257.449925 96.380951 
L 258.015714 96.427813 
L 257.344436 95.836651 
L 257.484063 95.894306 
L 257.162509 96.086322 
L 256.921443 95.886394 
L 257.203804 95.932206 
L 257.342396 96.295946 
L 257.560553 96.224458 
L 257.18994 96.070988 
L 257.86264 96.254134 
L 257.444375 96.138656 
L 257.293689 96.329225 
L 257.568772 96.420336 
L 257.587732 96.261027 
L 257.347338 96.367415 
L 256.86337 96.119803 
L 256.735471 95.46943 
L 256.929514 95.485692 
L 257.136862 95.159287 
L 257.496251 95.43116 
L 256.957189 94.97632 
L 257.25953 94.618549 
L 257.668821 94.88781 
L 257.105535 95.158241 
L 257.093207 95.067848 
L 257.339131 94.868406 
L 256.90065 94.664008 
L 256.868504 94.829974 
L 257.049853 94.916682 
L 256.899579 94.749367 
L 256.620792 94.990893 
L 256.602711 94.716104 
M 256.673837 95.218599 
L 256.445321 95.579446 
L 256.482587 95.939557 
L 256.535808 95.537324 
L 256.705984 95.669995 
L 256.733625 95.965215 
L 256.339286 95.604365 
M 257.127907 95.583202 
L 256.984886 95.334031 
L 256.382706 95.699781 
L 256.651202 95.802764 
L 256.91458 95.643294 
L 256.775042 95.744713 
L 256.844173 95.298834 
L 256.635954 95.272767 
L 256.536527 95.650931 
L 256.76255 95.859566 
L 256.76143 96.319066 
L 257.250089 96.298187 
L 257.197825 96.229451 
L 257.440129 96.025223 
L 257.091523 96.384641 
L 257.971526 96.219439 
L 257.336334 96.021547 
L 256.949514 95.774355 
L 257.133861 95.488489 
L 257.096035 95.587887 
L 257.583083 95.690826 
L 257.493326 96.011721 
L 258.017063 95.382092 
L 257.66471 95.919465 
L 257.960035 95.672648 
L 257.925446 95.421008 
L 257.938641 96.468076 
L 257.751521 96.131116 
L 256.859641 95.895703 
L 256.955589 95.857985 
L 257.345194 95.260319 
L 257.518989 95.726469 
L 256.922123 95.644693 
M 257.029651 96.077619 
L 257.380814 95.350787 
L 257.1465 95.627254 
L 256.842646 95.683796 
L 257.141536 95.996977 
L 256.899438 95.93733 
L 256.872072 96.142311 
L 257.271309 95.94911 
M 256.766913 95.259429 
L 256.329287 95.130889 
L 256.308118 95.370165 
L 256.179371 94.943552 
L 256.202756 95.120239 
L 256.91987 95.059318 
M 255.567577 96.172531 
L 255.848386 94.943321 
L 256.34524 95.09959 
M 256.569869 95.198091 
L 257.012133 96.018073 
M 256.814982 95.66009 
L 256.783919 95.750085 
L 256.908469 94.877652 
M 255.689493 95.281736 
L 255.717245 95.095732 
L 255.16572 94.823169 
L 255.4661 94.85966 
L 255.696995 94.508382 
L 256.400947 94.837415 
L 256.084416 94.944683 
M 255.8546 94.235148 
L 256.248892 95.083386 
L 256.460553 94.633436 
L 256.721883 94.925249 
L 256.462827 95.244688 
L 256.258693 95.153766 
L 256.323463 95.360057 
M 256.757687 95.671721 
L 255.99546 95.044261 
L 256.70867 94.698142 
M 256.714308 94.474427 
L 256.830799 94.653624 
M 256.633231 94.940338 
L 256.492768 95.143982 
L 256.111624 94.773678 
L 255.805717 94.746199 
M 256.718883 93.772912 
L 256.919094 94.138063 
L 257.285289 94.21172 
M 256.762044 93.840082 
L 256.9557 94.145414 
L 255.719202 94.302213 
M 255.643474 94.777636 
L 255.840076 94.822152 
M 256.301255 94.845504 
L 256.120792 95.19721 
L 256.049643 95.756424 
L 255.840622 95.348445 
M 256.139695 96.192086 
L 256.33579 96.016389 
M 255.901014 95.195065 
L 256.2631 95.3061 
L 255.78021 95.702917 
L 256.224907 96.099526 
L 255.742337 95.803219 
M 255.858385 95.689871 
L 256.130036 95.726384 
L 255.959649 95.605598 
L 256.276397 95.412256 
L 255.537131 95.31194 
L 256.027387 95.513415 
L 256.373298 95.04127 
L 256.07244 95.43097 
L 256.074514 94.774467 
M 256.538578 95.467808 
L 256.42742 94.905445 
L 256.098535 94.894366 
L 255.660676 94.71633 
L 255.930371 95.010667 
L 255.853386 95.690427 
L 255.697976 95.405692 
L 255.317597 95.187462 
M 254.974488 96.270411 
L 255.021187 95.596054 
L 256.385333 95.917314 
M 255.57518 95.643642 
L 255.628272 95.556068 
M 256.028613 95.984099 
L 255.88674 95.360569 
L 255.584351 95.523323 
M 256.233993 95.066203 
L 255.968408 95.121253 
M 255.774455 94.848431 
L 255.700829 95.017888 
L 255.707211 94.614371 
L 256.073372 94.530297 
L 256.356354 94.615461 
L 255.888174 94.384103 
L 256.769106 94.597433 
L 256.257647 94.872951 
L 255.870062 94.797376 
L 255.642577 94.575751 
L 255.719397 95.080351 
L 255.465815 95.003091 
L 256.308785 95.037063 
L 255.867214 94.851406 
L 255.733148 94.935898 
L 255.729173 94.856313 
M 255.5887 94.707703 
L 256.097676 95.141543 
L 256.421029 94.85495 
L 256.466469 94.406536 
L 256.141655 94.487148 
L 255.807363 94.950513 
L 256.209904 95.362987 
L 256.016875 95.726656 
L 256.171067 95.54744 
L 255.427244 95.170423 
L 255.690143 96.062598 
L 255.379431 95.85635 
L 254.757714 95.012376 
L 254.924281 95.847258 
M 254.673606 95.741163 
L 254.635119 95.09055 
L 254.483382 95.47215 
L 253.834046 95.649458 
L 254.265836 95.115047 
L 254.740188 95.623192 
L 254.452274 95.946861 
M 254.014388 95.486367 
L 253.812495 94.994729 
M 254.875888 94.813439 
L 253.702933 95.022956 
L 254.50413 94.614171 
L 253.758731 94.584515 
L 253.85762 94.388812 
L 254.060017 94.679197 
M 254.585897 95.277592 
L 254.694398 95.004808 
L 254.489282 95.228359 
M 254.378326 94.918692 
L 254.256132 94.768349 
L 254.663598 94.821565 
L 254.831002 94.970013 
L 254.862891 95.659265 
M 254.90998 94.904561 
L 255.217459 94.770314 
L 254.78748 94.999869 
L 255.019277 95.655634 
L 255.019277 95.655634 
" clip-path="url(#pfbda8c998b)" style="fill: none; stroke: #d62728; stroke-linecap: round"/>
   </g>
   <g id="line2d_13">
    <path d="M 184.636268 292.83887 
L 184.24827 292.848183 
M 184.258164 293.083542 
L 184.264857 293.05583 
L 184.480011 293.047161 
L 184.449753 293.098632 
L 184.419628 292.884726 
L 184.249844 293.183216 
M 184.439533 293.407694 
L 184.534968 293.199976 
L 184.346486 292.897941 
L 184.360452 293.42206 
L 184.456331 293.324547 
L 184.176584 293.703421 
L 184.063586 293.428232 
L 184.32026 293.478299 
L 184.201717 293.816186 
L 183.907715 293.83445 
L 184.075147 293.871018 
L 183.69318 293.69397 
L 183.990882 293.453265 
L 183.889223 293.710659 
L 184.093493 293.357634 
M 184.075659 293.283233 
L 184.051498 293.44172 
L 183.983921 293.197207 
L 183.879438 293.209338 
L 184.313831 293.91304 
L 184.115729 293.412372 
L 184.061787 293.047335 
L 183.906379 293.038958 
L 183.697973 293.717483 
L 183.870714 293.180168 
L 184.095868 293.193507 
L 183.807821 292.963464 
L 183.965819 292.813768 
M 183.984152 292.724508 
L 184.084597 292.968917 
M 184.031815 293.227604 
L 184.038012 293.252184 
L 184.177062 293.087453 
L 184.061369 293.076074 
L 183.846081 293.251464 
M 183.862385 293.42174 
L 183.903959 292.8196 
M 184.346962 292.813506 
L 184.522514 293.296984 
M 184.27828 292.680851 
L 184.424068 292.76765 
M 184.205171 293.325733 
L 184.1477 293.011896 
L 184.204291 293.372492 
L 183.793158 293.223872 
L 183.993293 293.380358 
L 183.972647 293.637774 
L 183.784712 293.285753 
L 183.90186 293.082323 
L 183.836128 292.834094 
L 183.839741 293.174057 
L 183.947321 292.853916 
L 184.090902 292.808913 
L 184.108383 293.10355 
L 183.90432 293.30224 
L 184.010163 292.925533 
L 184.133789 293.157823 
L 184.027705 293.704642 
L 184.318057 293.259564 
L 184.119617 293.660663 
L 184.183515 293.061319 
L 184.263997 293.163866 
L 184.010024 293.455253 
L 184.12338 292.706857 
L 184.333533 293.053973 
M 183.435485 293.864911 
L 183.82736 293.401267 
L 183.6168 293.397447 
L 183.752846 293.318528 
L 183.846106 292.892854 
L 183.689075 293.653317 
L 183.878368 292.964614 
M 183.684663 293.137471 
L 183.754454 293.249509 
M 183.884776 293.066635 
L 184.034671 293.843534 
M 183.808958 293.749392 
L 184.08401 292.800664 
L 184.3171 292.542666 
L 183.955545 293.182531 
L 183.943333 293.698981 
M 184.089885 293.161823 
L 183.64401 293.649439 
L 184.013355 294.017808 
L 183.605749 293.942767 
M 183.523954 294.035967 
L 183.555313 293.448596 
L 183.737172 293.37273 
L 183.508038 293.800946 
L 183.597975 294.153288 
L 183.241128 294.251528 
L 183.325129 293.393397 
L 182.720506 293.327693 
L 183.254564 293.25782 
M 183.575699 292.898924 
L 183.905059 293.297154 
L 184.095661 292.866705 
M 183.103132 293.93494 
L 183.00608 294.142678 
L 183.522534 293.276525 
L 183.494705 293.338603 
L 183.456762 293.722182 
M 183.352629 293.856318 
L 183.467883 293.618419 
L 183.21247 293.678447 
L 183.453637 293.273409 
L 183.765472 293.86185 
L 183.591822 293.971344 
L 183.635808 293.676062 
L 183.241744 293.713939 
L 183.460562 293.406707 
L 183.334822 293.325773 
L 183.367663 293.324351 
L 183.504226 293.157626 
L 183.276668 293.362288 
L 183.558896 293.909877 
L 183.388191 293.725492 
M 183.388782 293.77124 
L 183.240559 293.72205 
L 183.427889 293.296854 
L 183.199982 293.72554 
L 183.333396 293.376638 
L 183.014288 293.40996 
L 183.3244 293.138834 
L 182.930353 293.153555 
L 183.162592 292.954849 
L 182.643607 292.943199 
M 183.084469 293.149249 
L 182.936757 293.142887 
M 183.087564 293.029649 
L 182.958302 293.448424 
L 182.911163 293.37217 
L 182.687211 293.469855 
L 182.922692 293.320382 
L 182.54826 293.307283 
L 182.484324 293.832216 
L 182.586276 293.671434 
L 182.435119 293.031213 
L 182.469974 293.060796 
M 182.828748 292.879783 
L 183.036078 292.956589 
L 182.523561 293.478498 
L 182.600185 292.933536 
L 183.343894 292.901178 
L 183.37893 292.662664 
L 183.210074 292.922305 
L 183.142104 292.808997 
L 183.183086 293.196014 
L 183.058386 293.747103 
L 183.126613 293.230938 
L 182.848292 293.353135 
L 182.918779 293.069685 
M 182.216168 292.8657 
L 182.797232 292.959416 
L 182.924376 292.900149 
M 182.534089 292.630242 
L 182.278024 292.882888 
L 182.278024 292.882888 
" clip-path="url(#pfbda8c998b)" style="fill: none; stroke: #9467bd; stroke-linecap: round"/>
   </g>
   <g id="line2d_14">
    <path d="M 197.51678 79.49779 
L 197.019211 79.89989 
L 197.573368 79.619755 
L 197.755969 80.034479 
L 197.578673 79.910046 
L 197.608361 79.679306 
L 197.570888 79.923583 
L 197.275666 79.934495 
L 197.124703 79.73617 
L 197.216295 79.581434 
L 197.780668 79.320019 
L 197.532276 79.407712 
L 197.423002 79.042843 
L 197.556523 79.176483 
L 198.152209 79.330522 
L 197.908211 79.773201 
L 197.211713 79.677958 
L 197.240453 79.398588 
L 197.018448 79.527241 
L 197.616054 79.729708 
L 197.126389 79.675658 
L 197.027852 79.959854 
L 197.261727 79.589728 
L 197.176059 79.69212 
L 197.050309 79.477368 
L 197.258893 79.640323 
L 196.791139 79.5224 
L 197.308939 79.569411 
L 197.896802 79.666696 
L 198.083949 79.210467 
L 197.683568 79.033548 
M 196.975769 79.95669 
L 197.740505 79.46367 
M 198.04014 79.140859 
L 197.708768 79.695143 
L 198.193623 79.510245 
L 197.999951 79.584056 
L 197.417486 79.590237 
L 197.09347 79.441382 
L 197.420316 79.83511 
L 197.648678 79.508882 
L 197.501946 79.521545 
L 197.172869 79.125818 
L 197.362664 79.731729 
L 196.759946 79.715167 
L 197.269401 79.965499 
L 196.928884 79.868309 
L 197.233748 80.118492 
L 197.07298 79.611191 
L 198.018735 79.327448 
L 197.659474 79.772761 
L 197.543524 79.239146 
L 197.435586 79.419204 
L 197.815972 79.373618 
L 197.313619 79.310261 
L 197.57753 79.389686 
L 197.386385 79.457787 
L 197.187624 79.252928 
L 196.977363 78.844847 
L 197.335835 78.748762 
L 197.792596 78.79306 
L 197.71513 79.0773 
L 197.263995 79.22265 
L 196.996627 78.54979 
L 197.629986 78.902872 
M 197.455536 79.207693 
L 197.197142 79.305874 
L 197.504105 79.960032 
L 197.093898 79.544481 
L 197.386879 80.046919 
L 197.794192 79.514917 
L 197.744462 79.661624 
L 198.1756 79.79301 
L 198.628329 79.301801 
L 198.210039 79.59439 
L 197.924514 79.535242 
L 197.620833 78.77194 
L 197.731754 78.842036 
M 197.46374 79.751311 
L 197.498957 79.575174 
L 197.045333 79.419467 
M 197.164513 79.429594 
L 197.352751 79.072627 
L 196.928618 78.726111 
L 197.013926 78.733746 
L 197.133613 79.169196 
L 197.475524 78.94416 
L 196.664035 79.367374 
L 196.605675 79.348594 
L 196.766809 79.062488 
L 196.693871 79.450606 
M 196.899356 79.121706 
" clip-path="url(#pfbda8c998b)" style="fill: none; stroke: #8c564b; stroke-linecap: round"/>
   </g>
   <g id="line2d_15">
    <path d="M 145.66033 420.531838 
L 146.3734 420.327915 
L 146.118079 420.130605 
L 145.988779 420.346144 
L 146.054949 420.738877 
L 145.82885 420.199911 
L 145.51679 420.059106 
L 145.851336 419.932284 
L 145.441272 419.495736 
L 145.7366 420.162833 
L 145.504946 420.193665 
L 145.42624 419.868729 
L 145.510363 419.705395 
L 145.535522 419.756138 
L 145.808859 420.314144 
L 145.977143 420.271886 
L 146.20077 419.800358 
L 146.353217 419.806362 
L 145.964565 419.864147 
L 146.341418 420.08049 
L 146.43201 420.289468 
L 146.552683 420.564204 
L 146.759204 420.259022 
L 146.519373 420.581575 
L 146.128919 420.828091 
L 146.023039 420.424722 
L 146.1544 420.499815 
L 146.363935 420.361712 
L 146.178486 420.272276 
L 146.077133 420.700498 
L 146.149741 421.034671 
L 146.100776 420.48646 
L 146.187567 420.775064 
L 145.618081 420.698327 
L 146.276616 420.758405 
L 146.24552 420.88434 
L 146.098578 420.903306 
L 145.855944 421.241555 
L 145.919247 420.596737 
L 145.831858 420.688433 
L 146.000586 421.404061 
L 145.877037 420.945295 
L 146.221457 420.850891 
L 146.282852 420.482451 
L 146.158943 420.984351 
L 146.280497 420.996119 
L 146.524617 420.605636 
L 146.629828 420.730423 
L 145.969964 421.25979 
L 145.436223 421.314303 
L 145.529526 421.370425 
L 145.871684 421.497885 
L 145.711222 421.548267 
L 145.814412 421.666118 
L 145.543044 421.558595 
L 145.432454 421.915222 
L 145.589657 421.388339 
L 146.071109 421.377823 
L 146.0189 421.337832 
L 146.336005 421.075714 
L 146.653235 421.335369 
L 146.374093 421.152693 
L 146.0266 421.471586 
L 146.175405 421.349087 
L 145.798047 421.160105 
L 145.979155 421.73225 
L 146.579175 421.483202 
L 146.396011 421.154774 
L 146.144873 421.187743 
L 145.438636 421.131 
L 146.322722 421.350865 
L 146.567742 421.179264 
L 146.284393 421.204376 
L 146.267747 421.549704 
L 146.064567 421.479373 
L 145.669084 421.567974 
L 146.045385 421.204216 
L 145.882638 421.504375 
L 145.711021 420.825669 
L 146.293774 420.338964 
L 145.785235 420.677879 
L 146.158532 421.17364 
L 146.303408 420.883836 
L 145.87317 420.730084 
L 146.065819 421.359621 
L 146.438553 421.144163 
L 146.697423 421.351835 
L 146.777566 421.578181 
L 146.838742 420.787398 
L 147.071985 421.173999 
L 146.925979 420.578097 
L 147.077092 420.588996 
L 147.259718 420.966222 
L 146.911704 420.784202 
L 146.765216 421.127876 
L 146.19355 421.858381 
L 145.900798 421.875104 
L 146.304782 422.074273 
L 146.2301 422.121349 
L 145.69926 422.492909 
L 145.872447 422.240441 
L 145.909727 421.888022 
L 146.183021 422.017098 
L 145.687539 422.621568 
L 145.919195 422.32833 
L 146.110259 422.673957 
L 145.884654 422.245125 
L 145.452235 421.952183 
L 145.856533 421.169695 
L 145.889239 421.772356 
L 145.01255 421.938706 
L 145.138774 421.71975 
L 144.983695 421.537877 
L 145.289182 421.192295 
L 145.199283 421.138322 
L 144.940945 420.817563 
L 145.059655 420.903234 
L 145.458 420.895005 
L 145.48337 420.577163 
L 145.727649 420.722887 
L 145.842332 420.965182 
L 145.343081 420.489072 
L 145.157447 420.993559 
L 145.030963 420.623887 
L 144.959822 420.725477 
L 145.57481 421.026286 
L 145.461759 420.590334 
L 145.575329 421.279314 
L 145.095342 421.055731 
L 145.307641 421.196241 
L 145.448845 421.070326 
L 146.051912 421.153738 
L 145.553865 421.072348 
L 145.637318 420.789072 
L 145.28906 421.247555 
L 145.36762 420.999466 
L 145.363048 420.766367 
L 145.31281 420.431422 
L 145.433981 420.463967 
L 145.257423 420.771464 
L 145.933476 420.786381 
L 145.659869 420.755948 
L 145.232459 420.456681 
L 145.102108 420.050455 
L 145.270589 420.1304 
L 145.022061 420.10757 
L 144.66166 420.111742 
L 144.492689 420.358818 
L 144.909197 420.255047 
L 144.796182 420.200099 
L 144.432094 420.551489 
L 144.29904 420.306735 
L 144.445212 420.920974 
L 145.626734 419.913828 
L 145.238388 419.995796 
L 145.318306 419.890391 
L 145.412923 420.294829 
L 145.796442 419.736379 
L 145.171364 420.282193 
L 145.129601 420.038854 
L 144.635303 420.201801 
L 144.954243 420.517857 
L 144.681138 420.1522 
L 144.426626 420.562851 
L 144.469121 420.396148 
L 144.928418 420.382194 
L 145.099681 420.566158 
L 144.901939 420.303341 
L 144.697259 420.406805 
L 144.888631 420.152285 
L 144.87756 419.785384 
L 145.098905 419.3636 
L 144.719131 419.381214 
L 144.948905 419.817 
L 145.074592 419.58218 
L 145.28923 419.633562 
L 144.621394 419.369327 
L 144.592677 419.716385 
L 144.72164 419.539269 
L 144.368446 419.909172 
L 144.221817 419.507702 
L 144.15321 419.636963 
L 144.04997 419.678468 
L 143.899955 420.255554 
L 144.085177 419.696142 
L 143.693793 419.901887 
L 143.922223 419.498803 
M 143.892717 420.104103 
L 143.677989 419.84331 
L 143.428704 420.209168 
L 143.621514 420.039426 
L 143.88353 419.760917 
L 144.094213 420.197927 
L 143.957197 420.125229 
L 144.217699 420.040058 
L 144.249103 419.653406 
L 144.133795 419.633266 
L 144.201918 419.800735 
L 144.03363 420.065185 
L 143.958934 419.937168 
M 144.218508 420.086015 
L 143.706896 420.098812 
L 143.943372 419.543934 
L 144.012365 419.903723 
L 143.559289 420.097286 
L 144.275036 419.897281 
L 144.113401 419.637871 
L 144.231582 419.609579 
L 144.295358 419.463451 
L 144.436872 419.456945 
L 144.543283 419.616248 
L 144.134934 419.281226 
L 144.41475 419.871494 
L 143.9464 419.836013 
L 144.354092 420.004379 
L 143.839939 419.802714 
L 143.724642 419.955049 
L 143.514014 419.869759 
L 143.711403 419.372214 
L 143.669394 419.36103 
M 143.444346 418.9666 
L 143.613893 419.291819 
L 143.552348 419.80196 
L 143.737321 419.674512 
L 143.989696 419.341375 
L 143.336322 419.151771 
L 142.9445 419.607482 
L 142.923248 419.058634 
L 142.935613 419.064248 
L 143.133328 419.245748 
L 143.77373 419.4603 
L 143.54728 419.497922 
L 143.76697 419.338917 
L 143.818526 419.060318 
L 143.756554 419.507718 
L 143.07212 420.178958 
L 143.282625 420.234191 
L 143.648617 420.145812 
L 143.583288 419.565989 
L 143.379535 419.52384 
L 143.469582 419.853083 
L 143.180681 419.923757 
L 143.538166 419.96726 
L 143.499646 420.021025 
L 143.586772 420.117345 
L 143.474899 420.064713 
L 143.225517 420.179289 
L 143.946361 420.054451 
L 143.65979 420.197786 
L 144.201105 419.376553 
L 143.969097 419.337953 
L 143.972479 419.682695 
L 144.275995 419.621041 
L 144.368099 420.283317 
L 143.946975 420.432082 
L 143.958364 420.070381 
L 143.087681 420.08381 
L 143.457445 420.303045 
L 143.485863 420.156958 
L 143.169483 420.640504 
L 143.235515 420.866648 
L 143.573823 420.868072 
L 143.271602 421.181583 
L 143.629019 420.747374 
L 143.289885 420.260185 
L 143.47443 420.665409 
L 143.817893 420.811943 
L 144.269153 420.879493 
L 144.125781 420.989875 
L 143.937245 420.895556 
L 143.981181 420.881543 
L 143.477449 420.900312 
M 143.482731 421.032217 
L 143.644016 421.195515 
L 144.052987 420.57282 
L 144.229918 420.517138 
M 144.03354 420.320172 
L 144.411894 419.974334 
L 144.142393 420.403578 
L 144.521875 419.83644 
L 144.68072 420.04615 
L 144.519856 420.42832 
L 143.910816 420.756814 
L 144.319351 420.647048 
L 144.036937 420.901414 
L 144.265142 421.306859 
L 143.415711 420.995594 
L 143.257481 420.442477 
L 142.936463 421.060118 
L 142.970009 420.915071 
L 143.167734 421.069624 
L 142.664036 421.081955 
L 142.957852 420.867881 
L 143.044113 421.227386 
L 142.58546 421.669736 
L 142.806929 421.754471 
L 143.058279 421.384954 
L 142.806932 420.933739 
L 142.546533 421.015937 
L 142.86206 420.734809 
L 142.54299 420.879777 
L 142.45525 421.4254 
L 142.40684 421.241363 
L 142.789746 421.424624 
L 142.476997 421.120678 
L 142.667628 421.591397 
L 142.754634 420.835563 
L 143.17815 420.668623 
L 143.140515 420.559902 
L 143.561518 420.490655 
L 143.916916 420.028811 
L 143.535906 420.525909 
L 143.622213 419.947055 
L 143.403535 420.106758 
L 143.159515 420.801769 
L 143.403875 420.469611 
L 143.110445 420.914616 
L 143.547092 421.405502 
L 142.781003 421.277263 
L 143.462733 421.370954 
L 143.501586 421.660386 
L 143.718483 421.640488 
L 143.401622 421.462003 
L 143.97643 421.101181 
L 143.457397 420.823073 
L 143.07379 421.237377 
M 143.440666 421.665007 
L 143.23725 421.908029 
L 143.450307 421.941008 
L 144.275743 421.521742 
L 144.009781 421.492645 
L 143.986111 422.007157 
L 143.832412 422.089579 
L 143.824341 422.257349 
L 143.65438 422.42692 
M 144.489732 422.197555 
L 144.514369 421.774994 
L 144.266715 421.582137 
L 144.373666 421.70762 
L 144.042603 422.267552 
L 144.34663 421.941965 
" clip-path="url(#pfbda8c998b)" style="fill: none; stroke: #e377c2; stroke-linecap: round"/>
   </g>
   <g id="line2d_16">
    <path d="M 158.346277 429.580337 
L 158.264355 429.470847 
L 158.438082 429.879941 
L 158.649862 429.195586 
L 158.472679 429.864315 
L 158.107639 429.64372 
M 158.22622 430.261521 
L 158.423358 429.866725 
M 158.001904 429.548924 
L 157.528566 430.079344 
L 157.688664 430.042517 
L 158.470556 429.902103 
L 157.839266 430.028371 
L 158.125411 429.706515 
L 158.708809 429.799675 
M 158.896892 430.021099 
L 158.357305 430.784629 
L 158.662833 430.445262 
M 158.964136 430.077069 
L 158.591185 430.145943 
L 158.349992 429.991676 
L 158.486515 430.161994 
M 158.461876 429.934352 
L 158.485714 430.24495 
L 158.619695 429.736265 
L 158.911581 429.647415 
L 158.753038 429.273006 
L 158.428219 429.489734 
L 158.600788 429.929997 
L 158.105467 429.518434 
M 157.386936 429.831755 
L 157.896894 429.74857 
M 157.466451 429.521752 
L 158.241451 428.91832 
L 158.108853 429.03017 
L 157.734979 429.58359 
L 157.853873 430.071566 
L 157.450374 430.017429 
M 157.664322 429.836606 
L 157.925353 429.707828 
L 157.902793 429.511456 
L 158.29068 429.928137 
L 158.212486 430.069443 
L 158.272428 429.832552 
M 158.362106 430.27945 
L 157.975725 430.353309 
L 158.174612 430.92 
M 158.650119 429.64523 
L 158.165187 429.191241 
L 158.714556 429.904316 
M 158.683864 429.792178 
L 158.911438 429.748589 
L 158.444688 430.216712 
L 158.145533 430.001127 
L 158.501715 429.441 
L 159.364351 429.444442 
L 158.955667 429.248145 
L 158.867545 429.822072 
L 158.607402 429.48193 
L 159.165783 429.540321 
L 159.014145 429.400458 
L 158.879619 429.943795 
L 158.519089 430.018871 
L 158.459183 429.566334 
L 158.863677 429.98937 
L 158.214582 430.548383 
L 158.667425 430.315258 
M 158.497186 430.022596 
L 158.520133 429.644495 
L 158.536437 429.95701 
L 158.294708 429.482947 
L 158.368926 429.770343 
L 158.471256 430.080915 
L 158.505029 429.723777 
L 158.365307 429.60496 
M 157.738822 429.492003 
L 158.137631 429.216851 
L 157.619076 429.54793 
L 157.797344 429.204172 
M 157.757108 429.655046 
L 157.609513 429.758968 
L 157.211815 429.797597 
L 157.254808 429.525016 
M 157.942412 428.987312 
L 157.807908 429.586978 
L 157.836123 429.165065 
L 157.398438 428.566399 
L 157.260195 428.826196 
L 156.902102 428.482453 
L 157.374524 428.798848 
L 157.333658 428.44631 
M 157.138912 429.358112 
L 157.439203 428.752851 
M 157.36837 429.175087 
L 157.314581 428.620072 
L 156.601272 428.394473 
M 157.228381 428.474304 
L 156.917981 428.479205 
L 157.119622 428.628904 
M 156.306096 429.160962 
L 156.962989 429.517519 
L 156.741345 428.996988 
L 156.93891 428.498911 
L 156.380026 428.610642 
L 156.533715 428.280438 
L 156.802048 428.637646 
L 156.044194 429.108015 
L 156.39146 428.495565 
L 156.842525 428.910656 
L 156.842525 428.910656 
" clip-path="url(#pfbda8c998b)" style="fill: none; stroke: #7f7f7f; stroke-linecap: round"/>
   </g>
   <g id="line2d_17">
    <path d="M 261.244998 183.390199 
L 260.619825 182.873983 
L 259.89777 183.113375 
L 260.900949 184.378222 
L 260.67513 183.813408 
M 261.058684 183.107408 
L 260.78948 182.940175 
L 261.157255 183.018757 
M 261.428625 183.724538 
L 261.479137 183.664387 
M 260.620467 183.02352 
L 260.684524 182.943998 
L 260.118213 182.294027 
L 260.113475 182.498421 
M 260.764929 182.306923 
L 261.250909 182.790453 
L 261.616896 182.690761 
L 261.059999 182.741622 
L 260.235496 182.586085 
L 260.243785 183.031817 
M 259.702345 184.10234 
L 260.027783 183.560155 
L 260.398161 183.800869 
L 259.852299 183.196678 
L 260.072513 183.479442 
L 259.8452 184.119496 
L 259.956484 183.600529 
L 259.997007 182.846392 
M 260.484709 183.840177 
L 260.524406 184.022319 
L 260.318668 183.503462 
M 260.53145 183.792544 
L 260.753894 183.326457 
L 261.358142 183.861632 
L 261.772699 183.858719 
L 260.937538 183.855441 
L 261.294432 183.950021 
L 261.082958 183.403735 
L 260.794831 183.470519 
L 260.750808 184.181703 
L 261.034254 183.811468 
L 261.397793 183.661426 
L 260.737363 183.325395 
L 260.994372 183.479692 
L 261.365173 183.17983 
L 260.83781 183.207528 
L 260.714593 182.99238 
L 261.590867 183.907586 
L 261.836475 183.804867 
M 261.282011 183.355983 
L 261.413683 183.606736 
M 261.061677 183.811123 
L 261.720329 183.296695 
L 261.353673 182.92679 
L 261.626394 182.879571 
L 261.670198 182.672444 
L 261.509318 182.406107 
L 261.0726 182.313512 
L 261.640694 182.109796 
M 261.805515 182.476685 
L 261.596392 182.651723 
M 261.334435 183.0412 
L 261.602498 182.825473 
L 261.987992 182.66563 
M 261.387625 182.545868 
L 261.927449 182.180082 
L 261.396198 182.140088 
L 261.74482 181.492637 
L 262.013612 181.481566 
L 262.095179 182.52789 
M 261.897806 182.688482 
L 261.358025 183.278397 
M 261.193771 182.181217 
L 260.875999 182.546731 
L 260.5101 182.477604 
L 261.23659 182.812427 
L 260.802971 182.993326 
L 260.395893 183.387175 
L 260.563775 183.318572 
L 261.067543 183.298726 
L 260.547949 183.695214 
L 261.213833 183.668479 
L 261.351334 183.336498 
L 261.326864 183.352844 
L 262.059064 183.527015 
M 260.921621 182.758578 
L 261.372157 183.089471 
L 261.319096 182.528632 
L 260.730653 182.588737 
L 261.065817 182.703541 
L 260.04052 182.532586 
L 260.376153 182.250441 
L 260.495604 182.911372 
M 260.035347 183.225553 
" clip-path="url(#pfbda8c998b)" style="fill: none; stroke: #bcbd22; stroke-linecap: round"/>
   </g>
   <g id="line2d_18">
    <path d="M 217.159153 335.486396 
L 217.7051 335.570229 
L 217.434379 334.812874 
M 217.554386 334.478298 
L 217.865412 334.367557 
L 218.288822 334.37337 
L 218.41467 334.913239 
L 217.988659 335.178624 
L 216.684228 334.753993 
L 217.676052 334.846442 
L 217.39809 334.551741 
L 217.730428 334.974928 
L 218.110918 335.086953 
M 217.088976 334.957854 
L 217.136774 335.347054 
L 216.99733 334.6549 
L 217.606254 334.746447 
L 217.960776 334.557435 
L 218.247042 335.684071 
L 218.690056 336.271965 
L 218.375331 335.79535 
L 217.445081 335.504483 
L 217.519468 335.721468 
L 217.125221 335.435291 
L 217.211778 335.13473 
L 217.726144 334.450368 
L 218.117574 334.608297 
L 217.559961 335.624577 
L 217.793071 335.866721 
L 217.650526 335.318238 
L 217.431663 335.336914 
L 217.022785 335.528293 
L 216.871497 335.455084 
L 217.594274 336.257074 
L 217.705857 336.68376 
L 217.961554 336.367541 
M 217.948721 336.236198 
L 217.615373 337.039155 
L 218.2365 336.874644 
L 218.03158 336.818129 
L 218.216481 336.643677 
L 218.241052 336.709142 
L 217.852614 336.585937 
L 217.96043 336.344057 
L 218.229302 336.616256 
L 218.751758 336.082148 
L 218.196066 335.954417 
L 218.74492 336.247551 
L 218.403799 336.889548 
L 218.732339 336.984984 
L 218.972428 336.547728 
L 218.168107 336.24714 
L 217.897607 336.27632 
L 218.492875 335.966416 
L 218.824686 335.601783 
L 219.308164 335.794164 
L 218.737725 335.825781 
L 218.396597 335.464902 
L 218.198421 336.001952 
L 218.126279 335.460693 
L 218.297036 335.616725 
L 218.508425 335.262188 
L 218.746074 335.684488 
L 218.722764 335.564115 
L 218.746367 335.040622 
L 219.211617 335.076469 
L 218.44387 334.956261 
L 218.848694 335.624596 
L 218.671229 335.588059 
L 218.665246 334.692042 
L 218.717548 334.807339 
L 218.952711 335.081104 
L 218.825527 334.920847 
L 218.962884 335.296619 
L 219.302193 335.656219 
L 219.41039 335.997032 
L 218.957286 335.866674 
L 218.474808 336.205107 
L 219.055226 336.527922 
L 218.873113 336.268159 
L 219.517822 336.573511 
L 219.002134 336.511603 
L 218.334236 336.62033 
L 218.18088 336.482517 
L 218.446899 336.810505 
L 218.741777 336.114292 
L 218.656537 336.230843 
L 219.183901 336.270654 
L 219.057773 336.665904 
L 218.732255 336.359683 
L 218.546825 336.829274 
L 219.000124 336.439399 
L 219.180764 336.45434 
L 219.343917 336.132208 
L 218.825395 336.5596 
L 219.162074 336.815388 
L 218.921312 336.382604 
L 218.801822 335.856626 
L 219.599806 335.767561 
L 219.560786 336.200103 
L 218.953841 336.386575 
L 218.897797 336.722411 
L 218.479956 336.661463 
L 219.326268 336.774883 
L 218.882866 336.604512 
L 219.223238 336.849611 
L 219.348778 337.777779 
L 218.770541 337.776548 
L 218.592348 337.93918 
L 218.837724 337.340079 
M 219.599463 337.440403 
L 219.536643 337.664962 
L 219.210351 338.06153 
L 219.041842 338.016246 
L 218.88255 337.814393 
L 218.455764 337.618537 
L 218.472952 337.589203 
L 217.835015 337.724707 
L 217.925339 338.133541 
L 218.301242 338.106514 
L 218.38346 338.625646 
L 218.662003 338.445862 
L 218.216442 338.81634 
L 218.440539 339.060417 
L 218.275773 338.313612 
L 217.580134 338.190241 
L 217.619 338.359991 
L 218.155791 338.543684 
L 218.35942 338.476473 
L 218.460806 338.221975 
L 218.463236 338.249576 
L 218.428569 338.823079 
L 218.472736 338.201178 
L 219.153035 337.799548 
L 218.762771 338.361498 
L 219.403958 338.087446 
L 219.194791 338.36316 
L 219.534603 338.982857 
L 219.060462 338.575321 
L 219.018652 338.266373 
L 218.841207 338.704605 
L 217.540579 338.595495 
L 217.965541 338.164941 
L 217.856455 338.031155 
L 218.003554 338.275954 
L 218.362531 338.400359 
L 217.913228 338.058192 
L 218.142546 338.147455 
L 217.748282 337.642073 
L 217.652842 337.976216 
L 217.962647 338.03008 
L 218.307034 337.673829 
L 218.211909 337.066747 
L 218.490485 337.71464 
L 218.134661 338.031315 
L 217.962575 337.73666 
L 217.607817 337.712129 
L 218.318473 337.532011 
L 217.819859 337.315711 
L 217.82218 337.543861 
L 218.013342 337.08612 
L 217.694973 337.511283 
L 216.692333 337.918475 
L 216.824826 338.007063 
L 216.513883 337.884275 
L 216.267838 337.894243 
L 215.916279 337.550807 
L 216.01998 337.595151 
L 216.177368 337.560928 
L 216.227014 337.718545 
L 216.680965 337.950412 
L 216.327016 338.127499 
L 216.553279 338.104952 
L 216.309177 337.776348 
L 217.262819 337.936426 
L 216.799335 337.968949 
L 217.489534 338.387473 
L 217.490699 338.627647 
L 217.56924 338.546443 
L 217.748087 339.085518 
L 217.043317 338.965981 
M 216.8885 338.595436 
L 216.799929 338.195027 
L 217.164604 337.676813 
L 217.567265 337.922726 
L 217.651803 337.346465 
L 217.407038 337.803484 
L 217.55082 337.635994 
L 217.56646 337.943921 
L 217.798483 337.951298 
L 217.378264 337.559321 
L 217.419408 337.549594 
L 217.037034 337.396442 
L 217.558254 337.336569 
L 217.183763 337.130397 
L 217.351321 337.056089 
L 217.177585 336.612985 
L 217.266163 336.927304 
L 217.495989 336.980459 
L 217.477248 336.507889 
L 217.721413 337.0067 
L 217.05717 336.732673 
L 217.122209 336.53584 
L 217.507272 336.711526 
L 216.972476 336.704465 
L 217.232105 336.84036 
L 217.278105 336.307561 
L 217.213479 336.308957 
L 217.581524 336.459336 
L 217.410874 336.540826 
L 217.559113 336.921134 
L 216.949243 337.162331 
L 216.84996 337.618284 
L 216.669161 337.469343 
L 216.692308 337.774987 
L 217.048347 337.655485 
L 216.747309 337.58542 
L 216.954739 337.400453 
L 216.135615 338.150335 
L 215.989994 338.01216 
L 216.741221 337.730955 
L 216.747684 337.951152 
L 217.220123 337.960439 
L 216.490283 337.521256 
L 216.874534 337.629108 
L 218.108298 337.08454 
L 217.386191 337.53214 
L 216.973363 336.999151 
L 217.669049 336.933763 
L 217.325562 336.771452 
L 217.720739 336.968385 
L 216.632535 337.356304 
L 216.665615 337.651719 
L 217.591405 337.936683 
L 217.798414 337.544988 
L 218.209655 337.49612 
L 217.922856 337.520577 
L 218.365082 336.71876 
L 217.430069 336.836507 
L 217.553465 337.242847 
L 217.310022 337.142562 
L 217.597304 337.10268 
L 217.159024 337.615889 
L 217.026102 337.501583 
L 216.680844 337.585742 
L 216.714073 337.476873 
L 217.154083 336.809162 
L 217.061545 336.925261 
L 216.869163 336.68983 
L 216.938629 336.80676 
L 216.579851 336.980929 
L 216.335038 337.233168 
L 216.161323 337.136023 
L 215.768636 337.423907 
L 216.130283 337.173384 
L 215.92817 337.562602 
L 216.292458 337.638886 
L 215.755778 337.649928 
L 215.928812 337.858811 
L 215.726345 338.246355 
L 215.684711 338.196451 
L 216.173853 337.756549 
L 215.784325 337.984697 
L 215.960083 337.956422 
L 215.895628 337.796721 
L 216.112009 338.265897 
L 216.029518 338.287912 
L 216.290172 338.222202 
L 215.528174 338.231949 
L 216.529982 338.077901 
L 216.33424 337.703493 
L 216.115317 338.029443 
L 216.453493 338.45327 
L 216.216453 338.264716 
L 216.680798 338.149822 
L 216.277021 337.382553 
L 216.366526 337.874774 
L 215.658742 338.001133 
L 215.693227 338.153968 
L 216.13602 338.040307 
L 216.448033 337.797536 
L 215.969959 337.843532 
L 215.976047 338.509671 
L 215.706901 337.895286 
L 215.661962 338.082582 
L 215.871932 338.21716 
L 215.353184 337.954317 
L 215.500704 338.22609 
L 215.470719 338.00394 
L 215.613253 337.783692 
L 215.782287 338.074894 
L 215.595629 338.18245 
L 215.757282 338.315466 
L 215.905254 338.004075 
L 215.889502 337.566234 
L 215.509052 337.195369 
M 215.834757 338.396259 
L 215.666432 338.761581 
L 215.138499 338.571932 
L 216.082107 338.558391 
L 216.06485 338.976213 
L 215.301561 338.521544 
L 215.301561 338.521544 
" clip-path="url(#pfbda8c998b)" style="fill: none; stroke: #17becf; stroke-linecap: round"/>
   </g>
   <g id="line2d_19">
    <path d="M 273.357576 334.783663 
L 273.479296 334.839528 
M 273.987061 334.452749 
L 273.48076 333.300251 
L 273.315935 333.860846 
M 273.258664 333.606762 
L 273.071722 333.445077 
L 273.030459 333.862386 
L 273.140535 333.478552 
L 273.521513 333.830305 
L 272.989942 333.645631 
L 273.708085 334.004679 
L 273.396938 333.649353 
L 273.45044 334.326308 
L 272.828229 334.673869 
L 273.119675 335.050716 
L 273.387948 335.20306 
L 273.205767 335.018779 
L 272.704245 334.90706 
L 273.000294 335.128699 
L 273.373717 335.713429 
L 273.609617 335.477652 
L 274.054852 335.507189 
M 274.118432 335.264429 
L 274.160742 334.701256 
L 274.363064 334.691572 
L 274.486979 335.364055 
L 275.327073 336.145999 
L 275.489209 335.478017 
L 274.954796 335.466584 
L 275.303844 335.687443 
L 274.898106 335.647786 
L 275.175975 335.678995 
L 275.601128 336.218016 
L 274.970034 335.891823 
L 274.339039 335.830892 
L 274.566211 335.027307 
L 273.956639 334.940349 
L 274.119775 335.655478 
L 274.343344 335.444378 
L 274.935737 336.25328 
L 274.43102 337.129833 
M 274.053258 336.465384 
L 273.841212 336.471584 
L 274.134618 335.897347 
L 274.369352 335.952438 
L 274.95261 335.886707 
L 274.206055 335.547518 
L 274.748453 336.032507 
L 274.480862 335.995286 
L 274.343763 336.482613 
L 274.268504 336.454244 
L 274.160379 335.887826 
L 275.089388 336.197324 
L 275.420936 336.045158 
L 275.195338 335.999575 
L 275.573968 336.312574 
L 275.832221 335.94004 
L 275.372955 336.21424 
L 274.603087 335.748775 
L 275.408532 335.513528 
L 275.607363 335.765486 
L 275.223236 335.193883 
L 274.785522 335.809594 
L 274.816462 336.238196 
L 275.831293 336.117807 
L 275.55218 336.489292 
L 276.080399 336.742702 
L 275.447445 336.51296 
L 275.677009 336.485927 
L 275.784281 337.1368 
L 275.750273 336.873969 
L 275.642695 337.169963 
L 275.476618 337.153701 
L 275.4116 337.563922 
L 275.646883 337.7888 
L 275.230708 337.45254 
L 275.080096 337.022523 
L 275.187929 337.355858 
L 275.61189 336.544901 
L 275.458202 336.857482 
L 274.897105 336.801583 
L 275.140359 336.312716 
L 275.587332 335.993032 
L 275.246263 336.609282 
L 275.305794 335.799299 
L 274.821785 335.847088 
L 274.915351 335.687818 
L 275.050592 335.941759 
L 274.788951 335.538745 
L 275.269061 335.480779 
L 275.541643 335.238543 
L 274.881829 336.402447 
L 274.747012 336.06758 
L 275.358683 335.678506 
L 275.341654 335.155978 
L 275.710605 334.882293 
L 276.327473 335.223898 
L 276.107797 335.533493 
L 276.015688 335.978767 
L 275.610764 335.837559 
L 275.33802 335.954496 
L 274.997436 335.863533 
L 275.05627 336.145691 
M 275.434653 335.82752 
L 275.303392 336.1557 
L 275.56308 336.35532 
L 275.238726 336.164172 
L 275.491113 336.471543 
L 275.447486 336.152323 
L 275.211838 335.824734 
L 274.495125 335.285476 
L 274.5339 336.058589 
L 274.250022 336.33334 
L 274.833895 336.780219 
L 274.259444 336.306821 
M 274.291089 335.472583 
L 273.991265 335.804064 
L 273.860763 336.244603 
L 274.157778 336.60031 
L 273.993987 336.676223 
L 274.097064 336.850201 
L 273.789575 337.17915 
L 274.061614 336.609082 
L 274.471069 337.431051 
L 274.689266 337.212601 
L 274.388521 337.281718 
L 274.980266 337.457835 
M 274.701066 337.455973 
L 274.680178 337.228596 
L 274.43139 337.229253 
L 274.855373 337.589634 
L 274.072287 337.190177 
L 274.378774 337.683487 
L 274.714362 337.982355 
L 274.254582 337.597099 
L 274.556302 337.828619 
L 274.01054 338.092172 
L 274.483038 337.368868 
M 273.72278 337.787934 
L 274.402141 338.042944 
L 274.56238 338.412346 
L 274.543179 338.165466 
L 274.144469 339.179572 
L 273.870131 339.302033 
L 274.190299 338.833998 
L 274.562121 338.562458 
L 274.758835 338.2563 
L 274.692577 338.300421 
L 274.105917 338.390214 
L 273.757029 339.028802 
L 273.560913 338.896468 
L 273.927707 338.844314 
L 273.851971 339.066542 
L 273.884423 338.833204 
L 273.485787 338.716643 
L 273.411605 339.050869 
L 273.399586 338.769945 
L 273.229976 338.469328 
L 273.561689 338.078998 
L 273.122899 338.363744 
L 273.126015 338.624368 
L 273.305783 339.262018 
L 273.676097 338.922888 
L 274.269001 339.342374 
L 274.667809 338.920899 
L 274.887278 339.117701 
L 274.474236 338.954657 
L 274.414805 338.48513 
L 274.533717 338.90792 
L 274.033203 339.45673 
L 274.130071 339.23487 
L 273.779663 339.559632 
L 273.89823 339.016936 
L 273.618261 338.871929 
L 273.749701 338.659383 
L 273.594953 338.400283 
L 272.864404 338.346655 
L 272.861117 338.674189 
L 273.251107 338.689472 
L 272.796008 339.017643 
L 273.407333 338.554642 
L 273.804248 338.75625 
L 273.240733 338.870117 
L 273.134664 339.061155 
L 272.98677 339.042654 
L 273.149375 339.156061 
L 273.23298 339.854384 
L 272.894569 339.570184 
L 272.791919 339.684893 
L 273.481165 338.254096 
L 273.944946 339.590192 
L 273.187202 339.155821 
L 273.350286 338.978898 
L 272.981109 338.250254 
L 273.159893 338.250889 
L 272.402453 337.832264 
L 272.995987 337.762063 
L 272.34225 338.493618 
L 272.653879 338.413648 
L 272.475315 338.668314 
L 272.808581 339.24528 
L 272.861149 338.592972 
L 272.183012 337.598526 
L 272.486453 338.12876 
L 272.801445 339.592791 
L 272.640121 339.047065 
L 272.519613 338.509228 
L 272.404878 338.521967 
M 272.75657 338.344073 
L 272.875007 337.852881 
L 272.782344 338.10818 
L 273.440271 338.457506 
L 273.098822 338.818695 
L 273.144035 338.058785 
L 273.033599 338.010155 
L 273.141453 338.622168 
L 273.01446 338.567978 
L 272.868702 338.165226 
L 273.212864 338.357357 
L 273.396632 338.153792 
L 273.120874 338.121906 
L 273.543214 338.090572 
L 273.539946 338.08808 
L 273.833362 338.37904 
L 275.185778 338.05751 
L 274.260881 338.887654 
L 273.94458 337.989063 
L 273.904393 338.061001 
L 273.533903 338.590746 
L 273.417421 338.26564 
L 273.25554 338.341896 
L 273.141345 338.613022 
L 273.250369 338.531131 
" clip-path="url(#pfbda8c998b)" style="fill: none; stroke: #1f77b4; stroke-linecap: round"/>
   </g>
   <g id="line2d_20">
    <path d="M 196.594139 80.075765 
L 196.772248 79.788773 
L 196.498294 80.430527 
L 196.338557 80.078357 
L 195.99822 80.082494 
L 196.334428 80.075351 
M 196.259031 79.623275 
L 196.559631 79.745823 
M 196.739835 79.956695 
L 196.49613 79.947748 
M 197.31312 80.290831 
L 197.041599 80.016033 
L 197.009071 80.249295 
M 196.307269 80.038355 
L 196.997287 80.292948 
L 196.923813 79.927586 
L 196.733897 80.19499 
L 197.313584 80.321711 
L 196.950118 80.122293 
L 196.744681 79.850059 
L 197.377334 79.501418 
L 197.34135 79.806697 
M 197.050526 79.543755 
L 197.13082 79.311065 
L 197.445375 79.287281 
L 196.825185 79.220048 
L 197.300308 79.367973 
L 197.551784 79.489237 
L 197.551991 79.410958 
L 197.312732 79.061565 
L 197.771494 79.46398 
L 197.372635 79.390276 
L 197.091872 78.930844 
L 197.656379 79.145476 
L 197.702469 78.876503 
L 198.212187 79.046774 
L 197.801578 79.025136 
L 197.432967 79.059379 
L 198.069011 79.276479 
L 197.871496 79.096939 
L 198.207433 78.961735 
L 197.148437 79.156226 
L 197.484107 79.018656 
L 196.789859 78.715099 
L 196.796311 79.292951 
L 196.811547 78.768207 
L 196.465991 79.185059 
L 196.615288 79.194025 
L 196.538579 78.61209 
L 197.130156 78.676015 
M 196.949308 79.388758 
L 196.960654 79.406167 
L 196.868698 79.143023 
L 197.076743 78.965961 
L 197.476225 79.144056 
L 196.598579 79.370373 
L 196.003852 79.090285 
L 196.252415 79.237505 
M 196.842 79.538773 
L 196.374055 78.991428 
L 196.555057 79.253966 
L 196.199816 79.729854 
L 196.712276 79.069496 
L 196.563346 79.304573 
L 196.816448 79.480853 
L 196.618747 78.658264 
L 196.474708 78.989064 
L 195.768059 79.169029 
L 195.822522 79.191874 
L 195.639122 78.992873 
L 196.883858 78.775462 
L 196.21331 78.911914 
L 196.150626 78.732551 
L 196.786111 78.929057 
L 196.655746 79.07992 
M 196.137912 78.577299 
L 196.126364 78.909678 
L 196.731697 78.834855 
M 196.92848 79.424196 
L 196.623118 79.284002 
L 196.268354 79.258675 
L 196.57724 79.596445 
L 195.998887 79.86164 
L 195.291267 79.544206 
L 195.319685 79.287395 
L 195.755952 79.378272 
L 196.436642 79.390525 
L 196.093034 79.731573 
L 196.364679 79.730981 
L 196.493138 79.07918 
L 196.232081 79.537802 
L 195.877089 79.266836 
L 195.638504 79.329253 
L 195.796508 78.937483 
L 195.740722 78.598428 
L 196.021065 79.045777 
L 196.327954 79.071688 
L 196.327484 78.988835 
L 196.434385 79.66936 
L 195.808234 79.293276 
L 195.631226 79.333448 
L 195.957695 79.678184 
L 195.722654 79.222844 
L 195.731774 79.571707 
L 195.685737 78.675412 
M 195.674731 79.049108 
L 195.254966 79.201973 
L 195.824432 79.259666 
L 195.67495 79.036583 
L 195.929667 79.348385 
L 195.770271 78.922379 
L 195.830129 79.022672 
L 195.896256 78.76718 
L 195.791379 78.568193 
L 195.963446 78.702686 
L 195.716005 78.88688 
L 195.974025 78.584355 
L 195.645466 78.464821 
L 195.612969 78.625778 
L 195.931234 78.961287 
L 195.063505 78.365838 
L 195.214668 78.12 
L 195.207117 78.508959 
M 196.394025 78.992606 
L 196.495695 78.792036 
L 195.990416 78.332832 
L 195.842708 78.959328 
L 195.179735 78.549707 
L 195.415437 78.679402 
M 195.325204 78.446134 
L 195.078316 78.468693 
L 195.703059 78.37569 
L 195.112466 78.979204 
L 195.659338 79.055052 
M 194.845499 79.174631 
L 195.320082 79.448312 
L 195.962874 79.398658 
L 196.008714 79.091764 
L 195.766314 79.167226 
L 195.765407 79.100478 
L 195.388353 79.046621 
L 195.469039 79.387225 
L 195.749412 79.675045 
L 196.012718 79.327313 
L 195.863338 79.068575 
L 196.603323 79.42936 
L 196.459474 79.038094 
M 196.370631 79.167953 
L 196.35543 79.586589 
L 196.359591 78.981343 
L 195.802771 79.248051 
L 195.522879 78.827485 
L 195.423628 79.109262 
L 195.615476 79.293171 
L 195.538211 79.435179 
L 195.251563 80.370652 
L 195.441653 79.293706 
L 196.167472 80.27737 
M 195.121199 80.511374 
L 194.149451 80.952539 
L 193.938743 80.370861 
L 194.107633 80.158801 
L 193.78611 79.872526 
M 195.039796 79.844303 
L 194.667386 79.219153 
L 194.266925 78.807895 
M 194.98355 79.856748 
L 194.601573 79.344567 
L 194.601573 79.344567 
" clip-path="url(#pfbda8c998b)" style="fill: none; stroke: #ff7f0e; stroke-linecap: round"/>
   </g>
   <g id="line2d_21">
    <path d="M 259.608305 182.914125 
L 259.778711 182.704828 
L 259.907798 182.744406 
L 260.270785 182.400814 
L 261.377424 182.43762 
L 261.480164 182.180783 
L 260.904468 182.48505 
L 261.556107 182.392959 
L 261.32357 182.858737 
L 260.91726 183.309858 
L 261.286459 182.151889 
M 260.765328 182.448835 
L 261.118762 182.842316 
L 260.855261 182.369898 
L 260.346333 182.978943 
L 260.114321 182.876441 
L 260.222542 183.020858 
L 260.35592 182.719159 
L 260.077121 182.701916 
L 260.008868 182.861989 
L 260.708907 182.76513 
L 260.724887 182.557994 
L 260.586507 182.586827 
L 260.592824 182.830162 
L 260.547328 182.377789 
L 260.342749 181.534775 
L 259.925008 181.985739 
L 260.176378 182.129822 
L 261.023431 182.340192 
L 260.561625 182.067545 
L 260.622518 182.036543 
M 260.324949 182.471626 
L 260.501379 182.198764 
L 260.304213 182.15572 
L 259.927607 183.057474 
L 260.202566 182.755802 
L 261.160565 182.387136 
L 260.729649 181.990131 
L 261.015248 181.944179 
L 261.272465 182.221345 
L 261.407103 182.084261 
L 261.569053 182.578363 
L 261.971427 181.839014 
L 261.69064 181.727078 
L 261.483879 181.490992 
L 261.812042 181.026069 
L 261.577887 181.321238 
L 261.859207 181.26135 
L 262.251456 180.443271 
L 262.051909 181.242706 
L 262.341183 180.757404 
L 262.931588 180.716994 
L 262.880782 180.8687 
L 262.796212 181.501265 
L 261.747388 181.888972 
L 261.356254 181.835278 
L 261.404749 182.036558 
L 261.496314 181.743013 
L 261.701549 181.694379 
L 261.156474 181.181631 
L 261.204535 180.605549 
L 261.926506 181.135283 
L 261.951872 181.935073 
L 260.948839 181.700413 
L 260.599173 182.130624 
L 260.598636 181.322513 
L 260.875352 181.017592 
L 261.109383 181.141586 
L 261.409021 180.722685 
L 261.223695 181.068926 
L 261.176577 181.328074 
L 261.436096 181.73075 
L 261.589035 181.656499 
L 261.14132 182.361949 
L 260.646764 182.273376 
L 260.711521 181.445851 
L 261.396263 181.34534 
L 261.350768 181.517329 
L 261.428885 181.974919 
L 261.863171 182.041245 
L 261.983893 181.920771 
L 261.551176 181.595079 
L 261.387504 181.256374 
L 261.685282 182.108235 
L 261.21342 181.889429 
L 261.400312 181.581247 
L 261.568754 181.730604 
L 261.538554 181.464046 
L 261.366828 182.787228 
L 261.735362 182.676821 
L 261.952043 182.954285 
L 261.803488 182.918686 
L 262.26068 182.406587 
L 261.920683 182.353206 
L 261.146325 182.647475 
L 261.011027 183.175644 
L 261.378931 182.792026 
L 261.772663 182.557234 
L 261.053997 182.652606 
L 260.498042 182.564344 
L 260.909919 182.880438 
M 261.409362 182.44226 
L 261.392843 182.870797 
L 261.146492 181.738096 
L 260.475105 182.052398 
L 259.592966 181.744769 
L 259.738918 182.18111 
L 260.677222 182.80315 
L 260.431976 182.753429 
L 260.844913 183.258114 
L 260.2947 183.264841 
L 260.456892 183.196902 
L 260.496931 182.754758 
L 260.171441 182.764355 
L 259.766157 182.349512 
L 260.493659 182.791268 
M 260.296515 182.285497 
L 260.688934 182.481236 
L 260.013349 182.572837 
L 260.264869 182.48679 
L 260.040816 182.368448 
L 259.946012 182.573598 
L 260.254045 182.287263 
L 260.394787 182.383387 
M 260.076025 182.721287 
L 260.030869 182.867283 
L 260.484203 182.617173 
L 260.58736 182.799732 
L 260.259734 182.668681 
L 260.025535 182.442622 
L 260.346873 182.684158 
L 260.648474 182.508392 
L 260.347728 182.984819 
L 260.505061 183.54781 
L 260.042982 183.403487 
L 260.39529 183.1366 
L 260.647164 183.487387 
L 260.346565 183.34045 
L 260.708028 183.378387 
L 260.557655 183.681158 
L 260.369164 183.406681 
L 260.428564 183.183892 
L 260.300799 183.006392 
L 260.498176 183.481503 
L 261.125837 183.460783 
L 260.973338 183.520817 
L 261.212476 183.577038 
L 261.226137 183.409731 
L 261.617088 183.340031 
L 261.849537 183.057335 
L 261.537881 182.773927 
L 261.639904 183.160278 
L 260.772531 183.176384 
L 260.554831 183.458787 
L 260.852789 183.088877 
L 260.852848 183.541883 
L 261.012219 184.243642 
L 260.758974 184.399758 
L 260.954219 184.294804 
L 260.857754 184.657799 
L 260.88069 184.635288 
L 261.51614 184.872587 
L 261.460445 183.943021 
L 261.589699 183.76583 
L 261.232889 184.06252 
L 261.421002 183.316123 
L 260.664615 183.008765 
L 260.465702 182.675884 
M 260.254318 184.206158 
L 260.312383 183.666366 
L 259.294477 183.535726 
L 259.294477 183.535726 
" clip-path="url(#pfbda8c998b)" style="fill: none; stroke: #2ca02c; stroke-linecap: round"/>
   </g>
   <g id="patch_3">
    <path d="M 63 448.56 
L 63 60.48 
" style="fill: none; stroke: #262626; stroke-width: 1.25; stroke-linejoin: miter; stroke-linecap: square"/>
   </g>
   <g id="patch_4">
    <path d="M 453.6 448.56 
L 453.6 60.48 
" style="fill: none; stroke: #262626; stroke-width: 1.25; stroke-linejoin: miter; stroke-linecap: square"/>
   </g>
   <g id="patch_5">
    <path d="M 63 448.56 
L 453.6 448.56 
" style="fill: none; stroke: #262626; stroke-width: 1.25; stroke-linejoin: miter; stroke-linecap: square"/>
   </g>
   <g id="patch_6">
    <path d="M 63 60.48 
L 453.6 60.48 
" style="fill: none; stroke: #262626; stroke-width: 1.25; stroke-linejoin: miter; stroke-linecap: square"/>
   </g>
  </g>
 </g>
 <defs>
  <clipPath id="pfbda8c998b">
   <rect x="63" y="60.48" width="390.6" height="388.08"/>
  </clipPath>
 </defs>
</svg>
