<?xml version="1.0" encoding="utf-8" standalone="no"?>
<!DOCTYPE svg PUBLIC "-//W3C//DTD SVG 1.1//EN"
  "http://www.w3.org/Graphics/SVG/1.1/DTD/svg11.dtd">
<svg xmlns:xlink="http://www.w3.org/1999/xlink" width="504pt" height="504pt" viewBox="0 0 504 504" xmlns="http://www.w3.org/2000/svg" version="1.1">
 <metadata>
  <rdf:RDF xmlns:dc="http://purl.org/dc/elements/1.1/" xmlns:cc="http://creativecommons.org/ns#" xmlns:rdf="http://www.w3.org/1999/02/22-rdf-syntax-ns#">
   <cc:Work>
    <dc:type rdf:resource="http://purl.org/dc/dcmitype/StillImage"/>
    <dc:date>2025-06-24T14:05:53.726760</dc:date>
    <dc:format>image/svg+xml</dc:format>
    <dc:creator>
     <cc:Agent>
      <dc:title>Matplotlib v3.8.0, https://matplotlib.org/</dc:title>
     </cc:Agent>
    </dc:creator>
   </cc:Work>
  </rdf:RDF>
 </metadata>
 <defs>
  <style type="text/css">*{stroke-linejoin: round; stroke-linecap: butt}</style>
 </defs>
 <g id="figure_1">
  <g id="patch_1">
   <path d="M 0 504 
L 504 504 
L 504 0 
L 0 0 
z
" style="fill: #ffffff"/>
  </g>
  <g id="axes_1">
   <g id="patch_2">
    <path d="M 63 448.56 
L 453.6 448.56 
L 453.6 60.48 
L 63 60.48 
z
" style="fill: #ffffff"/>
   </g>
   <g id="matplotlib.axis_1">
    <g id="xtick_1">
     <g id="line2d_1">
      <defs>
       <path id="m3edb7be509" d="M 0 0 
L 0 5 
" style="stroke: #262626; stroke-width: 0.8"/>
      </defs>
      <g>
       <use xlink:href="#m3edb7be509" x="120.209091" y="448.56" style="fill: #262626; stroke: #262626; stroke-width: 0.8"/>
      </g>
     </g>
     <g id="text_1">
      <!-- 0.1 -->
      <g style="fill: #262626" transform="translate(110.479091 467.080938) scale(0.14 -0.14)">
       <defs>
        <path id="ArialMT-30" d="M 266 2259 
Q 266 3072 433 3567 
Q 600 4063 929 4331 
Q 1259 4600 1759 4600 
Q 2128 4600 2406 4451 
Q 2684 4303 2865 4023 
Q 3047 3744 3150 3342 
Q 3253 2941 3253 2259 
Q 3253 1453 3087 958 
Q 2922 463 2592 192 
Q 2263 -78 1759 -78 
Q 1097 -78 719 397 
Q 266 969 266 2259 
z
M 844 2259 
Q 844 1131 1108 757 
Q 1372 384 1759 384 
Q 2147 384 2411 759 
Q 2675 1134 2675 2259 
Q 2675 3391 2411 3762 
Q 2147 4134 1753 4134 
Q 1366 4134 1134 3806 
Q 844 3388 844 2259 
z
" transform="scale(0.015625)"/>
        <path id="ArialMT-2e" d="M 581 0 
L 581 641 
L 1222 641 
L 1222 0 
L 581 0 
z
" transform="scale(0.015625)"/>
        <path id="ArialMT-31" d="M 2384 0 
L 1822 0 
L 1822 3584 
Q 1619 3391 1289 3197 
Q 959 3003 697 2906 
L 697 3450 
Q 1169 3672 1522 3987 
Q 1875 4303 2022 4600 
L 2384 4600 
L 2384 0 
z
" transform="scale(0.015625)"/>
       </defs>
       <use xlink:href="#ArialMT-30"/>
       <use xlink:href="#ArialMT-2e" x="55.615234"/>
       <use xlink:href="#ArialMT-31" x="83.398438"/>
      </g>
     </g>
    </g>
    <g id="xtick_2">
     <g id="line2d_2">
      <g>
       <use xlink:href="#m3edb7be509" x="199.118182" y="448.56" style="fill: #262626; stroke: #262626; stroke-width: 0.8"/>
      </g>
     </g>
     <g id="text_2">
      <!-- 0.2 -->
      <g style="fill: #262626" transform="translate(189.388182 467.080938) scale(0.14 -0.14)">
       <defs>
        <path id="ArialMT-32" d="M 3222 541 
L 3222 0 
L 194 0 
Q 188 203 259 391 
Q 375 700 629 1000 
Q 884 1300 1366 1694 
Q 2113 2306 2375 2664 
Q 2638 3022 2638 3341 
Q 2638 3675 2398 3904 
Q 2159 4134 1775 4134 
Q 1369 4134 1125 3890 
Q 881 3647 878 3216 
L 300 3275 
Q 359 3922 746 4261 
Q 1134 4600 1788 4600 
Q 2447 4600 2831 4234 
Q 3216 3869 3216 3328 
Q 3216 3053 3103 2787 
Q 2991 2522 2730 2228 
Q 2469 1934 1863 1422 
Q 1356 997 1212 845 
Q 1069 694 975 541 
L 3222 541 
z
" transform="scale(0.015625)"/>
       </defs>
       <use xlink:href="#ArialMT-30"/>
       <use xlink:href="#ArialMT-2e" x="55.615234"/>
       <use xlink:href="#ArialMT-32" x="83.398438"/>
      </g>
     </g>
    </g>
    <g id="xtick_3">
     <g id="line2d_3">
      <g>
       <use xlink:href="#m3edb7be509" x="278.027273" y="448.56" style="fill: #262626; stroke: #262626; stroke-width: 0.8"/>
      </g>
     </g>
     <g id="text_3">
      <!-- 0.3 -->
      <g style="fill: #262626" transform="translate(268.297273 467.080938) scale(0.14 -0.14)">
       <defs>
        <path id="ArialMT-33" d="M 269 1209 
L 831 1284 
Q 928 806 1161 595 
Q 1394 384 1728 384 
Q 2125 384 2398 659 
Q 2672 934 2672 1341 
Q 2672 1728 2419 1979 
Q 2166 2231 1775 2231 
Q 1616 2231 1378 2169 
L 1441 2663 
Q 1497 2656 1531 2656 
Q 1891 2656 2178 2843 
Q 2466 3031 2466 3422 
Q 2466 3731 2256 3934 
Q 2047 4138 1716 4138 
Q 1388 4138 1169 3931 
Q 950 3725 888 3313 
L 325 3413 
Q 428 3978 793 4289 
Q 1159 4600 1703 4600 
Q 2078 4600 2393 4439 
Q 2709 4278 2876 4000 
Q 3044 3722 3044 3409 
Q 3044 3113 2884 2869 
Q 2725 2625 2413 2481 
Q 2819 2388 3044 2092 
Q 3269 1797 3269 1353 
Q 3269 753 2831 336 
Q 2394 -81 1725 -81 
Q 1122 -81 723 278 
Q 325 638 269 1209 
z
" transform="scale(0.015625)"/>
       </defs>
       <use xlink:href="#ArialMT-30"/>
       <use xlink:href="#ArialMT-2e" x="55.615234"/>
       <use xlink:href="#ArialMT-33" x="83.398438"/>
      </g>
     </g>
    </g>
    <g id="xtick_4">
     <g id="line2d_4">
      <g>
       <use xlink:href="#m3edb7be509" x="356.936364" y="448.56" style="fill: #262626; stroke: #262626; stroke-width: 0.8"/>
      </g>
     </g>
     <g id="text_4">
      <!-- 0.4 -->
      <g style="fill: #262626" transform="translate(347.206364 467.080938) scale(0.14 -0.14)">
       <defs>
        <path id="ArialMT-34" d="M 2069 0 
L 2069 1097 
L 81 1097 
L 81 1613 
L 2172 4581 
L 2631 4581 
L 2631 1613 
L 3250 1613 
L 3250 1097 
L 2631 1097 
L 2631 0 
L 2069 0 
z
M 2069 1613 
L 2069 3678 
L 634 1613 
L 2069 1613 
z
" transform="scale(0.015625)"/>
       </defs>
       <use xlink:href="#ArialMT-30"/>
       <use xlink:href="#ArialMT-2e" x="55.615234"/>
       <use xlink:href="#ArialMT-34" x="83.398438"/>
      </g>
     </g>
    </g>
    <g id="xtick_5">
     <g id="line2d_5">
      <g>
       <use xlink:href="#m3edb7be509" x="435.845455" y="448.56" style="fill: #262626; stroke: #262626; stroke-width: 0.8"/>
      </g>
     </g>
     <g id="text_5">
      <!-- 0.5 -->
      <g style="fill: #262626" transform="translate(426.115455 467.080938) scale(0.14 -0.14)">
       <defs>
        <path id="ArialMT-35" d="M 266 1200 
L 856 1250 
Q 922 819 1161 601 
Q 1400 384 1738 384 
Q 2144 384 2425 690 
Q 2706 997 2706 1503 
Q 2706 1984 2436 2262 
Q 2166 2541 1728 2541 
Q 1456 2541 1237 2417 
Q 1019 2294 894 2097 
L 366 2166 
L 809 4519 
L 3088 4519 
L 3088 3981 
L 1259 3981 
L 1013 2750 
Q 1425 3038 1878 3038 
Q 2478 3038 2890 2622 
Q 3303 2206 3303 1553 
Q 3303 931 2941 478 
Q 2500 -78 1738 -78 
Q 1113 -78 717 272 
Q 322 622 266 1200 
z
" transform="scale(0.015625)"/>
       </defs>
       <use xlink:href="#ArialMT-30"/>
       <use xlink:href="#ArialMT-2e" x="55.615234"/>
       <use xlink:href="#ArialMT-35" x="83.398438"/>
      </g>
     </g>
    </g>
    <g id="text_6">
     <!-- lag time [s] -->
     <g style="fill: #262626" transform="translate(219.6225 485.315938) scale(0.16 -0.16)">
      <defs>
       <path id="ArialMT-6c" d="M 409 0 
L 409 4581 
L 972 4581 
L 972 0 
L 409 0 
z
" transform="scale(0.015625)"/>
       <path id="ArialMT-61" d="M 2588 409 
Q 2275 144 1986 34 
Q 1697 -75 1366 -75 
Q 819 -75 525 192 
Q 231 459 231 875 
Q 231 1119 342 1320 
Q 453 1522 633 1644 
Q 813 1766 1038 1828 
Q 1203 1872 1538 1913 
Q 2219 1994 2541 2106 
Q 2544 2222 2544 2253 
Q 2544 2597 2384 2738 
Q 2169 2928 1744 2928 
Q 1347 2928 1158 2789 
Q 969 2650 878 2297 
L 328 2372 
Q 403 2725 575 2942 
Q 747 3159 1072 3276 
Q 1397 3394 1825 3394 
Q 2250 3394 2515 3294 
Q 2781 3194 2906 3042 
Q 3031 2891 3081 2659 
Q 3109 2516 3109 2141 
L 3109 1391 
Q 3109 606 3145 398 
Q 3181 191 3288 0 
L 2700 0 
Q 2613 175 2588 409 
z
M 2541 1666 
Q 2234 1541 1622 1453 
Q 1275 1403 1131 1340 
Q 988 1278 909 1158 
Q 831 1038 831 891 
Q 831 666 1001 516 
Q 1172 366 1500 366 
Q 1825 366 2078 508 
Q 2331 650 2450 897 
Q 2541 1088 2541 1459 
L 2541 1666 
z
" transform="scale(0.015625)"/>
       <path id="ArialMT-67" d="M 319 -275 
L 866 -356 
Q 900 -609 1056 -725 
Q 1266 -881 1628 -881 
Q 2019 -881 2231 -725 
Q 2444 -569 2519 -288 
Q 2563 -116 2559 434 
Q 2191 0 1641 0 
Q 956 0 581 494 
Q 206 988 206 1678 
Q 206 2153 378 2554 
Q 550 2956 876 3175 
Q 1203 3394 1644 3394 
Q 2231 3394 2613 2919 
L 2613 3319 
L 3131 3319 
L 3131 450 
Q 3131 -325 2973 -648 
Q 2816 -972 2473 -1159 
Q 2131 -1347 1631 -1347 
Q 1038 -1347 672 -1080 
Q 306 -813 319 -275 
z
M 784 1719 
Q 784 1066 1043 766 
Q 1303 466 1694 466 
Q 2081 466 2343 764 
Q 2606 1063 2606 1700 
Q 2606 2309 2336 2618 
Q 2066 2928 1684 2928 
Q 1309 2928 1046 2623 
Q 784 2319 784 1719 
z
" transform="scale(0.015625)"/>
       <path id="ArialMT-20" transform="scale(0.015625)"/>
       <path id="ArialMT-74" d="M 1650 503 
L 1731 6 
Q 1494 -44 1306 -44 
Q 1000 -44 831 53 
Q 663 150 594 308 
Q 525 466 525 972 
L 525 2881 
L 113 2881 
L 113 3319 
L 525 3319 
L 525 4141 
L 1084 4478 
L 1084 3319 
L 1650 3319 
L 1650 2881 
L 1084 2881 
L 1084 941 
Q 1084 700 1114 631 
Q 1144 563 1211 522 
Q 1278 481 1403 481 
Q 1497 481 1650 503 
z
" transform="scale(0.015625)"/>
       <path id="ArialMT-69" d="M 425 3934 
L 425 4581 
L 988 4581 
L 988 3934 
L 425 3934 
z
M 425 0 
L 425 3319 
L 988 3319 
L 988 0 
L 425 0 
z
" transform="scale(0.015625)"/>
       <path id="ArialMT-6d" d="M 422 0 
L 422 3319 
L 925 3319 
L 925 2853 
Q 1081 3097 1340 3245 
Q 1600 3394 1931 3394 
Q 2300 3394 2536 3241 
Q 2772 3088 2869 2813 
Q 3263 3394 3894 3394 
Q 4388 3394 4653 3120 
Q 4919 2847 4919 2278 
L 4919 0 
L 4359 0 
L 4359 2091 
Q 4359 2428 4304 2576 
Q 4250 2725 4106 2815 
Q 3963 2906 3769 2906 
Q 3419 2906 3187 2673 
Q 2956 2441 2956 1928 
L 2956 0 
L 2394 0 
L 2394 2156 
Q 2394 2531 2256 2718 
Q 2119 2906 1806 2906 
Q 1569 2906 1367 2781 
Q 1166 2656 1075 2415 
Q 984 2175 984 1722 
L 984 0 
L 422 0 
z
" transform="scale(0.015625)"/>
       <path id="ArialMT-65" d="M 2694 1069 
L 3275 997 
Q 3138 488 2766 206 
Q 2394 -75 1816 -75 
Q 1088 -75 661 373 
Q 234 822 234 1631 
Q 234 2469 665 2931 
Q 1097 3394 1784 3394 
Q 2450 3394 2872 2941 
Q 3294 2488 3294 1666 
Q 3294 1616 3291 1516 
L 816 1516 
Q 847 969 1125 678 
Q 1403 388 1819 388 
Q 2128 388 2347 550 
Q 2566 713 2694 1069 
z
M 847 1978 
L 2700 1978 
Q 2663 2397 2488 2606 
Q 2219 2931 1791 2931 
Q 1403 2931 1139 2672 
Q 875 2413 847 1978 
z
" transform="scale(0.015625)"/>
       <path id="ArialMT-5b" d="M 434 -1272 
L 434 4581 
L 1675 4581 
L 1675 4116 
L 997 4116 
L 997 -806 
L 1675 -806 
L 1675 -1272 
L 434 -1272 
z
" transform="scale(0.015625)"/>
       <path id="ArialMT-73" d="M 197 991 
L 753 1078 
Q 800 744 1014 566 
Q 1228 388 1613 388 
Q 2000 388 2187 545 
Q 2375 703 2375 916 
Q 2375 1106 2209 1216 
Q 2094 1291 1634 1406 
Q 1016 1563 777 1677 
Q 538 1791 414 1992 
Q 291 2194 291 2438 
Q 291 2659 392 2848 
Q 494 3038 669 3163 
Q 800 3259 1026 3326 
Q 1253 3394 1513 3394 
Q 1903 3394 2198 3281 
Q 2494 3169 2634 2976 
Q 2775 2784 2828 2463 
L 2278 2388 
Q 2241 2644 2061 2787 
Q 1881 2931 1553 2931 
Q 1166 2931 1000 2803 
Q 834 2675 834 2503 
Q 834 2394 903 2306 
Q 972 2216 1119 2156 
Q 1203 2125 1616 2013 
Q 2213 1853 2448 1751 
Q 2684 1650 2818 1456 
Q 2953 1263 2953 975 
Q 2953 694 2789 445 
Q 2625 197 2315 61 
Q 2006 -75 1616 -75 
Q 969 -75 630 194 
Q 291 463 197 991 
z
" transform="scale(0.015625)"/>
       <path id="ArialMT-5d" d="M 1363 -1272 
L 122 -1272 
L 122 -806 
L 800 -806 
L 800 4116 
L 122 4116 
L 122 4581 
L 1363 4581 
L 1363 -1272 
z
" transform="scale(0.015625)"/>
      </defs>
      <use xlink:href="#ArialMT-6c"/>
      <use xlink:href="#ArialMT-61" x="22.216797"/>
      <use xlink:href="#ArialMT-67" x="77.832031"/>
      <use xlink:href="#ArialMT-20" x="133.447266"/>
      <use xlink:href="#ArialMT-74" x="161.230469"/>
      <use xlink:href="#ArialMT-69" x="189.013672"/>
      <use xlink:href="#ArialMT-6d" x="211.230469"/>
      <use xlink:href="#ArialMT-65" x="294.53125"/>
      <use xlink:href="#ArialMT-20" x="350.146484"/>
      <use xlink:href="#ArialMT-5b" x="377.929688"/>
      <use xlink:href="#ArialMT-73" x="405.712891"/>
      <use xlink:href="#ArialMT-5d" x="455.712891"/>
     </g>
    </g>
   </g>
   <g id="matplotlib.axis_2">
    <g id="ytick_1">
     <g id="line2d_6">
      <defs>
       <path id="me69f9280f8" d="M 0 0 
L -5 0 
" style="stroke: #262626; stroke-width: 0.8"/>
      </defs>
      <g>
       <use xlink:href="#me69f9280f8" x="63" y="431.33325" style="fill: #262626; stroke: #262626; stroke-width: 0.8"/>
      </g>
     </g>
     <g id="text_7">
      <!-- 0.00 -->
      <g style="fill: #262626" transform="translate(27.254687 436.343719) scale(0.14 -0.14)">
       <use xlink:href="#ArialMT-30"/>
       <use xlink:href="#ArialMT-2e" x="55.615234"/>
       <use xlink:href="#ArialMT-30" x="83.398438"/>
       <use xlink:href="#ArialMT-30" x="139.013672"/>
      </g>
     </g>
    </g>
    <g id="ytick_2">
     <g id="line2d_7">
      <g>
       <use xlink:href="#me69f9280f8" x="63" y="385.314318" style="fill: #262626; stroke: #262626; stroke-width: 0.8"/>
      </g>
     </g>
     <g id="text_8">
      <!-- 0.02 -->
      <g style="fill: #262626" transform="translate(27.254687 390.324787) scale(0.14 -0.14)">
       <use xlink:href="#ArialMT-30"/>
       <use xlink:href="#ArialMT-2e" x="55.615234"/>
       <use xlink:href="#ArialMT-30" x="83.398438"/>
       <use xlink:href="#ArialMT-32" x="139.013672"/>
      </g>
     </g>
    </g>
    <g id="ytick_3">
     <g id="line2d_8">
      <g>
       <use xlink:href="#me69f9280f8" x="63" y="339.295386" style="fill: #262626; stroke: #262626; stroke-width: 0.8"/>
      </g>
     </g>
     <g id="text_9">
      <!-- 0.04 -->
      <g style="fill: #262626" transform="translate(27.254687 344.305855) scale(0.14 -0.14)">
       <use xlink:href="#ArialMT-30"/>
       <use xlink:href="#ArialMT-2e" x="55.615234"/>
       <use xlink:href="#ArialMT-30" x="83.398438"/>
       <use xlink:href="#ArialMT-34" x="139.013672"/>
      </g>
     </g>
    </g>
    <g id="ytick_4">
     <g id="line2d_9">
      <g>
       <use xlink:href="#me69f9280f8" x="63" y="293.276454" style="fill: #262626; stroke: #262626; stroke-width: 0.8"/>
      </g>
     </g>
     <g id="text_10">
      <!-- 0.06 -->
      <g style="fill: #262626" transform="translate(27.254687 298.286923) scale(0.14 -0.14)">
       <defs>
        <path id="ArialMT-36" d="M 3184 3459 
L 2625 3416 
Q 2550 3747 2413 3897 
Q 2184 4138 1850 4138 
Q 1581 4138 1378 3988 
Q 1113 3794 959 3422 
Q 806 3050 800 2363 
Q 1003 2672 1297 2822 
Q 1591 2972 1913 2972 
Q 2475 2972 2870 2558 
Q 3266 2144 3266 1488 
Q 3266 1056 3080 686 
Q 2894 316 2569 119 
Q 2244 -78 1831 -78 
Q 1128 -78 684 439 
Q 241 956 241 2144 
Q 241 3472 731 4075 
Q 1159 4600 1884 4600 
Q 2425 4600 2770 4297 
Q 3116 3994 3184 3459 
z
M 888 1484 
Q 888 1194 1011 928 
Q 1134 663 1356 523 
Q 1578 384 1822 384 
Q 2178 384 2434 671 
Q 2691 959 2691 1453 
Q 2691 1928 2437 2201 
Q 2184 2475 1800 2475 
Q 1419 2475 1153 2201 
Q 888 1928 888 1484 
z
" transform="scale(0.015625)"/>
       </defs>
       <use xlink:href="#ArialMT-30"/>
       <use xlink:href="#ArialMT-2e" x="55.615234"/>
       <use xlink:href="#ArialMT-30" x="83.398438"/>
       <use xlink:href="#ArialMT-36" x="139.013672"/>
      </g>
     </g>
    </g>
    <g id="ytick_5">
     <g id="line2d_10">
      <g>
       <use xlink:href="#me69f9280f8" x="63" y="247.257522" style="fill: #262626; stroke: #262626; stroke-width: 0.8"/>
      </g>
     </g>
     <g id="text_11">
      <!-- 0.08 -->
      <g style="fill: #262626" transform="translate(27.254687 252.267991) scale(0.14 -0.14)">
       <defs>
        <path id="ArialMT-38" d="M 1131 2484 
Q 781 2613 612 2850 
Q 444 3088 444 3419 
Q 444 3919 803 4259 
Q 1163 4600 1759 4600 
Q 2359 4600 2725 4251 
Q 3091 3903 3091 3403 
Q 3091 3084 2923 2848 
Q 2756 2613 2416 2484 
Q 2838 2347 3058 2040 
Q 3278 1734 3278 1309 
Q 3278 722 2862 322 
Q 2447 -78 1769 -78 
Q 1091 -78 675 323 
Q 259 725 259 1325 
Q 259 1772 486 2073 
Q 713 2375 1131 2484 
z
M 1019 3438 
Q 1019 3113 1228 2906 
Q 1438 2700 1772 2700 
Q 2097 2700 2305 2904 
Q 2513 3109 2513 3406 
Q 2513 3716 2298 3927 
Q 2084 4138 1766 4138 
Q 1444 4138 1231 3931 
Q 1019 3725 1019 3438 
z
M 838 1322 
Q 838 1081 952 856 
Q 1066 631 1291 507 
Q 1516 384 1775 384 
Q 2178 384 2440 643 
Q 2703 903 2703 1303 
Q 2703 1709 2433 1975 
Q 2163 2241 1756 2241 
Q 1359 2241 1098 1978 
Q 838 1716 838 1322 
z
" transform="scale(0.015625)"/>
       </defs>
       <use xlink:href="#ArialMT-30"/>
       <use xlink:href="#ArialMT-2e" x="55.615234"/>
       <use xlink:href="#ArialMT-30" x="83.398438"/>
       <use xlink:href="#ArialMT-38" x="139.013672"/>
      </g>
     </g>
    </g>
    <g id="ytick_6">
     <g id="line2d_11">
      <g>
       <use xlink:href="#me69f9280f8" x="63" y="201.23859" style="fill: #262626; stroke: #262626; stroke-width: 0.8"/>
      </g>
     </g>
     <g id="text_12">
      <!-- 0.10 -->
      <g style="fill: #262626" transform="translate(27.254687 206.249059) scale(0.14 -0.14)">
       <use xlink:href="#ArialMT-30"/>
       <use xlink:href="#ArialMT-2e" x="55.615234"/>
       <use xlink:href="#ArialMT-31" x="83.398438"/>
       <use xlink:href="#ArialMT-30" x="139.013672"/>
      </g>
     </g>
    </g>
    <g id="ytick_7">
     <g id="line2d_12">
      <g>
       <use xlink:href="#me69f9280f8" x="63" y="155.219658" style="fill: #262626; stroke: #262626; stroke-width: 0.8"/>
      </g>
     </g>
     <g id="text_13">
      <!-- 0.12 -->
      <g style="fill: #262626" transform="translate(27.254687 160.230127) scale(0.14 -0.14)">
       <use xlink:href="#ArialMT-30"/>
       <use xlink:href="#ArialMT-2e" x="55.615234"/>
       <use xlink:href="#ArialMT-31" x="83.398438"/>
       <use xlink:href="#ArialMT-32" x="139.013672"/>
      </g>
     </g>
    </g>
    <g id="ytick_8">
     <g id="line2d_13">
      <g>
       <use xlink:href="#me69f9280f8" x="63" y="109.200726" style="fill: #262626; stroke: #262626; stroke-width: 0.8"/>
      </g>
     </g>
     <g id="text_14">
      <!-- 0.14 -->
      <g style="fill: #262626" transform="translate(27.254687 114.211195) scale(0.14 -0.14)">
       <use xlink:href="#ArialMT-30"/>
       <use xlink:href="#ArialMT-2e" x="55.615234"/>
       <use xlink:href="#ArialMT-31" x="83.398438"/>
       <use xlink:href="#ArialMT-34" x="139.013672"/>
      </g>
     </g>
    </g>
    <g id="ytick_9">
     <g id="line2d_14">
      <g>
       <use xlink:href="#me69f9280f8" x="63" y="63.181795" style="fill: #262626; stroke: #262626; stroke-width: 0.8"/>
      </g>
     </g>
     <g id="text_15">
      <!-- 0.16 -->
      <g style="fill: #262626" transform="translate(27.254687 68.192263) scale(0.14 -0.14)">
       <use xlink:href="#ArialMT-30"/>
       <use xlink:href="#ArialMT-2e" x="55.615234"/>
       <use xlink:href="#ArialMT-31" x="83.398438"/>
       <use xlink:href="#ArialMT-36" x="139.013672"/>
      </g>
     </g>
    </g>
    <g id="text_16">
     <!-- MSD (um^2) -->
     <g style="fill: #262626" transform="translate(19.887187 299.1625) rotate(-90) scale(0.16 -0.16)">
      <defs>
       <path id="ArialMT-4d" d="M 475 0 
L 475 4581 
L 1388 4581 
L 2472 1338 
Q 2622 884 2691 659 
Q 2769 909 2934 1394 
L 4031 4581 
L 4847 4581 
L 4847 0 
L 4263 0 
L 4263 3834 
L 2931 0 
L 2384 0 
L 1059 3900 
L 1059 0 
L 475 0 
z
" transform="scale(0.015625)"/>
       <path id="ArialMT-53" d="M 288 1472 
L 859 1522 
Q 900 1178 1048 958 
Q 1197 738 1509 602 
Q 1822 466 2213 466 
Q 2559 466 2825 569 
Q 3091 672 3220 851 
Q 3350 1031 3350 1244 
Q 3350 1459 3225 1620 
Q 3100 1781 2813 1891 
Q 2628 1963 1997 2114 
Q 1366 2266 1113 2400 
Q 784 2572 623 2826 
Q 463 3081 463 3397 
Q 463 3744 659 4045 
Q 856 4347 1234 4503 
Q 1613 4659 2075 4659 
Q 2584 4659 2973 4495 
Q 3363 4331 3572 4012 
Q 3781 3694 3797 3291 
L 3216 3247 
Q 3169 3681 2898 3903 
Q 2628 4125 2100 4125 
Q 1550 4125 1298 3923 
Q 1047 3722 1047 3438 
Q 1047 3191 1225 3031 
Q 1400 2872 2139 2705 
Q 2878 2538 3153 2413 
Q 3553 2228 3743 1945 
Q 3934 1663 3934 1294 
Q 3934 928 3725 604 
Q 3516 281 3123 101 
Q 2731 -78 2241 -78 
Q 1619 -78 1198 103 
Q 778 284 539 648 
Q 300 1013 288 1472 
z
" transform="scale(0.015625)"/>
       <path id="ArialMT-44" d="M 494 0 
L 494 4581 
L 2072 4581 
Q 2606 4581 2888 4516 
Q 3281 4425 3559 4188 
Q 3922 3881 4101 3404 
Q 4281 2928 4281 2316 
Q 4281 1794 4159 1391 
Q 4038 988 3847 723 
Q 3656 459 3429 307 
Q 3203 156 2883 78 
Q 2563 0 2147 0 
L 494 0 
z
M 1100 541 
L 2078 541 
Q 2531 541 2789 625 
Q 3047 709 3200 863 
Q 3416 1078 3536 1442 
Q 3656 1806 3656 2325 
Q 3656 3044 3420 3430 
Q 3184 3816 2847 3947 
Q 2603 4041 2063 4041 
L 1100 4041 
L 1100 541 
z
" transform="scale(0.015625)"/>
       <path id="ArialMT-28" d="M 1497 -1347 
Q 1031 -759 709 28 
Q 388 816 388 1659 
Q 388 2403 628 3084 
Q 909 3875 1497 4659 
L 1900 4659 
Q 1522 4009 1400 3731 
Q 1209 3300 1100 2831 
Q 966 2247 966 1656 
Q 966 153 1900 -1347 
L 1497 -1347 
z
" transform="scale(0.015625)"/>
       <path id="ArialMT-75" d="M 2597 0 
L 2597 488 
Q 2209 -75 1544 -75 
Q 1250 -75 995 37 
Q 741 150 617 320 
Q 494 491 444 738 
Q 409 903 409 1263 
L 409 3319 
L 972 3319 
L 972 1478 
Q 972 1038 1006 884 
Q 1059 663 1231 536 
Q 1403 409 1656 409 
Q 1909 409 2131 539 
Q 2353 669 2445 892 
Q 2538 1116 2538 1541 
L 2538 3319 
L 3100 3319 
L 3100 0 
L 2597 0 
z
" transform="scale(0.015625)"/>
       <path id="ArialMT-5e" d="M 747 2156 
L 169 2156 
L 1272 4659 
L 1725 4659 
L 2834 2156 
L 2269 2156 
L 1497 4022 
L 747 2156 
z
" transform="scale(0.015625)"/>
       <path id="ArialMT-29" d="M 791 -1347 
L 388 -1347 
Q 1322 153 1322 1656 
Q 1322 2244 1188 2822 
Q 1081 3291 891 3722 
Q 769 4003 388 4659 
L 791 4659 
Q 1378 3875 1659 3084 
Q 1900 2403 1900 1659 
Q 1900 816 1576 28 
Q 1253 -759 791 -1347 
z
" transform="scale(0.015625)"/>
      </defs>
      <use xlink:href="#ArialMT-4d"/>
      <use xlink:href="#ArialMT-53" x="83.300781"/>
      <use xlink:href="#ArialMT-44" x="150"/>
      <use xlink:href="#ArialMT-20" x="222.216797"/>
      <use xlink:href="#ArialMT-28" x="250"/>
      <use xlink:href="#ArialMT-75" x="283.300781"/>
      <use xlink:href="#ArialMT-6d" x="338.916016"/>
      <use xlink:href="#ArialMT-5e" x="422.216797"/>
      <use xlink:href="#ArialMT-32" x="469.140625"/>
      <use xlink:href="#ArialMT-29" x="524.755859"/>
     </g>
    </g>
   </g>
   <g id="line2d_15">
    <path d="M 80.754545 430.373065 
L 120.209091 429.926451 
L 159.663636 429.65517 
L 199.118182 429.446244 
L 238.572727 429.263318 
L 278.027273 429.090287 
L 317.481818 428.915876 
L 356.936364 428.767695 
L 396.390909 428.667833 
L 435.845455 428.541742 
" clip-path="url(#p370f0e47e4)" style="fill: none; stroke: #000000; stroke-opacity: 0.2; stroke-width: 2; stroke-linecap: round"/>
   </g>
   <g id="line2d_16">
    <path d="M 80.754545 424.40487 
L 120.209091 424.935698 
L 159.663636 424.464924 
L 199.118182 420.387417 
L 238.572727 422.617034 
L 278.027273 420.513969 
L 317.481818 418.806206 
L 356.936364 419.770533 
L 396.390909 418.8635 
L 435.845455 418.683796 
" clip-path="url(#p370f0e47e4)" style="fill: none; stroke: #000000; stroke-opacity: 0.2; stroke-width: 2; stroke-linecap: round"/>
   </g>
   <g id="line2d_17">
    <path d="M 80.754545 430.800811 
L 120.209091 430.515954 
L 159.663636 430.33648 
L 199.118182 430.221663 
L 238.572727 430.122722 
L 278.027273 430.04495 
L 317.481818 429.97224 
L 356.936364 429.889636 
L 396.390909 429.791846 
L 435.845455 429.706021 
" clip-path="url(#p370f0e47e4)" style="fill: none; stroke: #000000; stroke-opacity: 0.2; stroke-width: 2; stroke-linecap: round"/>
   </g>
   <g id="line2d_18">
    <path d="M 80.754545 429.298983 
L 120.209091 428.394021 
L 159.663636 427.830519 
L 199.118182 427.376772 
L 238.572727 426.978939 
L 278.027273 426.671302 
L 317.481818 426.451792 
L 356.936364 426.159111 
L 396.390909 425.900255 
L 435.845455 425.569839 
" clip-path="url(#p370f0e47e4)" style="fill: none; stroke: #000000; stroke-opacity: 0.2; stroke-width: 2; stroke-linecap: round"/>
   </g>
   <g id="line2d_19">
    <path d="M 80.754545 430.576929 
L 120.209091 430.236159 
L 159.663636 429.997551 
L 199.118182 429.85075 
L 238.572727 429.665064 
L 278.027273 429.466032 
L 317.481818 429.292771 
L 356.936364 429.12066 
L 396.390909 428.97455 
L 435.845455 428.839484 
" clip-path="url(#p370f0e47e4)" style="fill: none; stroke: #000000; stroke-opacity: 0.2; stroke-width: 2; stroke-linecap: round"/>
   </g>
   <g id="line2d_20">
    <path d="M 80.754545 429.776199 
L 120.209091 428.953151 
L 159.663636 428.428765 
L 199.118182 427.902539 
L 238.572727 427.493891 
L 278.027273 427.170377 
L 317.481818 426.816262 
L 356.936364 426.510006 
L 396.390909 426.231591 
L 435.845455 426.032329 
" clip-path="url(#p370f0e47e4)" style="fill: none; stroke: #000000; stroke-opacity: 0.2; stroke-width: 2; stroke-linecap: round"/>
   </g>
   <g id="line2d_21">
    <path d="M 80.754545 430.411951 
L 120.209091 430.008135 
L 159.663636 429.685772 
L 199.118182 429.46143 
L 238.572727 429.326594 
L 278.027273 429.115137 
L 317.481818 428.990656 
L 356.936364 428.871697 
L 396.390909 428.758951 
L 435.845455 428.679108 
" clip-path="url(#p370f0e47e4)" style="fill: none; stroke: #000000; stroke-opacity: 0.2; stroke-width: 2; stroke-linecap: round"/>
   </g>
   <g id="line2d_22">
    <path d="M 80.754545 429.810253 
L 120.209091 429.359268 
L 159.663636 428.983523 
L 199.118182 428.679338 
L 238.572727 428.46397 
L 278.027273 428.296921 
L 317.481818 428.093517 
L 356.936364 427.850307 
L 396.390909 427.747915 
L 435.845455 427.483996 
" clip-path="url(#p370f0e47e4)" style="fill: none; stroke: #000000; stroke-opacity: 0.2; stroke-width: 2; stroke-linecap: round"/>
   </g>
   <g id="line2d_23">
    <path d="M 80.754545 427.011612 
L 120.209091 425.200307 
L 159.663636 423.405799 
L 199.118182 423.446065 
L 238.572727 423.605291 
L 278.027273 424.426269 
L 317.481818 423.509571 
L 356.936364 422.687903 
L 396.390909 421.140977 
L 435.845455 421.765914 
" clip-path="url(#p370f0e47e4)" style="fill: none; stroke: #000000; stroke-opacity: 0.2; stroke-width: 2; stroke-linecap: round"/>
   </g>
   <g id="line2d_24">
    <path d="M 80.754545 430.381809 
L 120.209091 429.72857 
L 159.663636 429.259637 
L 199.118182 428.803589 
L 238.572727 428.386198 
L 278.027273 428.094898 
L 317.481818 427.779668 
L 356.936364 427.466969 
L 396.390909 427.22422 
L 435.845455 426.985842 
" clip-path="url(#p370f0e47e4)" style="fill: none; stroke: #000000; stroke-opacity: 0.2; stroke-width: 2; stroke-linecap: round"/>
   </g>
   <g id="line2d_25">
    <path d="M 80.754545 430.92 
L 120.209091 430.624328 
L 159.663636 430.423686 
L 199.118182 430.262389 
L 238.572727 430.104314 
L 278.027273 429.938416 
L 317.481818 429.796908 
L 356.936364 429.657471 
L 396.390909 429.531149 
L 435.845455 429.419553 
" clip-path="url(#p370f0e47e4)" style="fill: none; stroke: #000000; stroke-opacity: 0.2; stroke-width: 2; stroke-linecap: round"/>
   </g>
   <g id="line2d_26">
    <path d="M 80.754545 430.292762 
L 120.209091 429.897459 
L 159.663636 429.681631 
L 199.118182 429.466952 
L 238.572727 429.295992 
L 278.027273 429.157245 
L 317.481818 428.959363 
L 356.936364 428.864334 
L 396.390909 428.715463 
L 435.845455 428.547494 
" clip-path="url(#p370f0e47e4)" style="fill: none; stroke: #000000; stroke-opacity: 0.2; stroke-width: 2; stroke-linecap: round"/>
   </g>
   <g id="line2d_27">
    <path d="M 80.754545 416.659653 
L 120.209091 398.957091 
L 159.663636 381.489685 
L 199.118182 364.24432 
L 238.572727 348.336035 
L 278.027273 327.182513 
L 317.481818 314.14742 
L 356.936364 297.22764 
L 396.390909 288.895682 
L 435.845455 268.973856 
" clip-path="url(#p370f0e47e4)" style="fill: none; stroke: #000000; stroke-opacity: 0.2; stroke-width: 2; stroke-linecap: round"/>
   </g>
   <g id="line2d_28">
    <path d="M 80.754545 429.326825 
L 120.209091 428.480076 
L 159.663636 427.823156 
L 199.118182 427.336506 
L 238.572727 427.015984 
L 278.027273 426.681656 
L 317.481818 426.582946 
L 356.936364 426.250919 
L 396.390909 426.030949 
L 435.845455 425.895883 
" clip-path="url(#p370f0e47e4)" style="fill: none; stroke: #000000; stroke-opacity: 0.2; stroke-width: 2; stroke-linecap: round"/>
   </g>
   <g id="line2d_29">
    <path d="M 80.754545 428.251132 
L 120.209091 427.218467 
L 159.663636 426.341576 
L 199.118182 425.102287 
L 238.572727 424.784526 
L 278.027273 424.758985 
L 317.481818 423.872661 
L 356.936364 423.181456 
L 396.390909 423.644867 
L 435.845455 423.083896 
" clip-path="url(#p370f0e47e4)" style="fill: none; stroke: #000000; stroke-opacity: 0.2; stroke-width: 2; stroke-linecap: round"/>
   </g>
   <g id="line2d_30">
    <path d="M 80.754545 424.215502 
L 120.209091 421.798127 
L 159.663636 418.383523 
L 199.118182 417.242483 
L 238.572727 416.584873 
L 278.027273 415.173012 
L 317.481818 413.368379 
L 356.936364 412.239995 
L 396.390909 411.651643 
L 435.845455 411.516117 
" clip-path="url(#p370f0e47e4)" style="fill: none; stroke: #000000; stroke-opacity: 0.2; stroke-width: 2; stroke-linecap: round"/>
   </g>
   <g id="line2d_31">
    <path d="M 80.754545 428.140457 
L 120.209091 426.832598 
L 159.663636 426.775995 
L 199.118182 426.580185 
L 238.572727 425.728834 
L 278.027273 425.883228 
L 317.481818 425.91291 
L 356.936364 425.478491 
L 396.390909 425.30454 
L 435.845455 425.301549 
" clip-path="url(#p370f0e47e4)" style="fill: none; stroke: #000000; stroke-opacity: 0.2; stroke-width: 2; stroke-linecap: round"/>
   </g>
   <g id="line2d_32">
    <path d="M 80.754545 424.914529 
L 120.209091 422.634982 
L 159.663636 420.27444 
L 199.118182 416.782754 
L 238.572727 414.24412 
L 278.027273 413.099169 
L 317.481818 413.304873 
L 356.936364 415.576828 
L 396.390909 412.899677 
L 435.845455 411.550862 
" clip-path="url(#p370f0e47e4)" style="fill: none; stroke: #000000; stroke-opacity: 0.2; stroke-width: 2; stroke-linecap: round"/>
   </g>
   <g id="line2d_33">
    <path d="M 80.754545 411.722282 
L 120.209091 385.572944 
L 159.663636 362.190725 
L 199.118182 341.716672 
L 238.572727 318.101827 
L 278.027273 292.719625 
L 317.481818 262.828028 
L 356.936364 235.830331 
L 396.390909 211.184202 
L 435.845455 186.868719 
" clip-path="url(#p370f0e47e4)" style="fill: none; stroke: #000000; stroke-opacity: 0.2; stroke-width: 2; stroke-linecap: round"/>
   </g>
   <g id="line2d_34">
    <path d="M 80.754545 429.38803 
L 120.209091 427.908291 
L 159.663636 426.674063 
L 199.118182 426.415667 
L 238.572727 426.126898 
L 278.027273 425.258981 
L 317.481818 425.676373 
L 356.936364 425.230679 
L 396.390909 424.505421 
L 435.845455 423.924202 
" clip-path="url(#p370f0e47e4)" style="fill: none; stroke: #000000; stroke-opacity: 0.2; stroke-width: 2; stroke-linecap: round"/>
   </g>
   <g id="line2d_35">
    <path d="M 80.754545 427.020126 
L 120.209091 423.343213 
L 159.663636 422.722878 
L 199.118182 420.887413 
L 238.572727 417.071753 
L 278.027273 415.790356 
L 317.481818 414.982263 
L 356.936364 412.748274 
L 396.390909 412.986422 
L 435.845455 413.823046 
" clip-path="url(#p370f0e47e4)" style="fill: none; stroke: #000000; stroke-opacity: 0.2; stroke-width: 2; stroke-linecap: round"/>
   </g>
   <g id="line2d_36">
    <path d="M 80.754545 424.654983 
L 120.209091 421.271441 
L 159.663636 417.849703 
L 199.118182 413.595713 
L 238.572727 412.196737 
L 278.027273 411.184551 
L 317.481818 408.986227 
L 356.936364 408.62981 
L 396.390909 408.419734 
L 435.845455 409.467585 
" clip-path="url(#p370f0e47e4)" style="fill: none; stroke: #000000; stroke-opacity: 0.2; stroke-width: 2; stroke-linecap: round"/>
   </g>
   <g id="line2d_37">
    <path d="M 80.754545 425.276468 
L 120.209091 422.078153 
L 159.663636 421.19804 
L 199.118182 420.180332 
L 238.572727 416.621688 
L 278.027273 416.278617 
L 317.481818 418.06231 
L 356.936364 417.388823 
L 396.390909 415.535871 
L 435.845455 416.083036 
" clip-path="url(#p370f0e47e4)" style="fill: none; stroke: #000000; stroke-opacity: 0.2; stroke-width: 2; stroke-linecap: round"/>
   </g>
   <g id="line2d_38">
    <path d="M 80.754545 429.625718 
L 120.209091 428.764933 
L 159.663636 428.175431 
L 199.118182 427.348931 
L 238.572727 426.871254 
L 278.027273 426.646912 
L 317.481818 426.030488 
L 356.936364 425.469288 
L 396.390909 424.803164 
L 435.845455 424.069392 
" clip-path="url(#p370f0e47e4)" style="fill: none; stroke: #000000; stroke-opacity: 0.2; stroke-width: 2; stroke-linecap: round"/>
   </g>
   <g id="line2d_39">
    <path d="M 80.754545 414.525986 
L 120.209091 392.00478 
L 159.663636 365.139388 
L 199.118182 340.524322 
L 238.572727 320.448793 
L 278.027273 297.612818 
L 317.481818 273.677681 
L 356.936364 247.297329 
L 396.390909 219.168717 
L 435.845455 194.149144 
" clip-path="url(#p370f0e47e4)" style="fill: none; stroke: #000000; stroke-opacity: 0.2; stroke-width: 2; stroke-linecap: round"/>
   </g>
   <g id="line2d_40">
    <path d="M 80.754545 428.140917 
L 120.209091 427.700285 
L 159.663636 427.570742 
L 199.118182 426.389896 
L 238.572727 427.240096 
L 278.027273 425.833758 
L 317.481818 426.701445 
L 356.936364 424.877944 
L 396.390909 424.601371 
L 435.845455 424.351258 
" clip-path="url(#p370f0e47e4)" style="fill: none; stroke: #000000; stroke-opacity: 0.2; stroke-width: 2; stroke-linecap: round"/>
   </g>
   <g id="line2d_41">
    <path d="M 80.754545 425.822713 
L 120.209091 420.039744 
L 159.663636 417.236961 
L 199.118182 419.898926 
L 238.572727 415.734443 
L 278.027273 411.898074 
L 317.481818 410.265093 
L 356.936364 410.557543 
L 396.390909 414.520003 
L 435.845455 413.110443 
" clip-path="url(#p370f0e47e4)" style="fill: none; stroke: #000000; stroke-opacity: 0.2; stroke-width: 2; stroke-linecap: round"/>
   </g>
   <g id="line2d_42">
    <path d="M 80.754545 429.550016 
L 120.209091 429.246982 
L 159.663636 428.643904 
L 199.118182 428.077871 
L 238.572727 427.164395 
L 278.027273 427.622974 
L 317.481818 427.181882 
L 356.936364 427.008621 
L 396.390909 426.974797 
L 435.845455 426.415897 
" clip-path="url(#p370f0e47e4)" style="fill: none; stroke: #000000; stroke-opacity: 0.2; stroke-width: 2; stroke-linecap: round"/>
   </g>
   <g id="line2d_43">
    <path d="M 80.754545 420.406055 
L 120.209091 411.338024 
L 159.663636 406.064945 
L 199.118182 402.314632 
L 238.572727 397.474361 
L 278.027273 389.095003 
L 317.481818 389.951416 
L 356.936364 386.258857 
L 396.390909 387.212139 
L 435.845455 377.88134 
" clip-path="url(#p370f0e47e4)" style="fill: none; stroke: #000000; stroke-opacity: 0.2; stroke-width: 2; stroke-linecap: round"/>
   </g>
   <g id="line2d_44">
    <path d="M 80.754545 427.500103 
L 120.209091 425.584565 
L 159.663636 424.16281 
L 199.118182 423.793968 
L 238.572727 424.085038 
L 278.027273 423.353107 
L 317.481818 422.48634 
L 356.936364 421.304344 
L 396.390909 420.218067 
L 435.845455 420.364407 
" clip-path="url(#p370f0e47e4)" style="fill: none; stroke: #000000; stroke-opacity: 0.2; stroke-width: 2; stroke-linecap: round"/>
   </g>
   <g id="line2d_45">
    <path d="M 80.754545 427.622283 
L 120.209091 425.929477 
L 159.663636 425.577202 
L 199.118182 424.28476 
L 238.572727 424.014629 
L 278.027273 424.115181 
L 317.481818 423.544546 
L 356.936364 423.027063 
L 396.390909 422.692965 
L 435.845455 421.819526 
" clip-path="url(#p370f0e47e4)" style="fill: none; stroke: #000000; stroke-opacity: 0.2; stroke-width: 2; stroke-linecap: round"/>
   </g>
   <g id="line2d_46">
    <path d="M 80.754545 427.567291 
L 120.209091 425.59768 
L 159.663636 424.664877 
L 199.118182 423.257388 
L 238.572727 422.70493 
L 278.027273 422.505668 
L 317.481818 422.014186 
L 356.936364 421.738763 
L 396.390909 421.402595 
L 435.845455 421.274202 
" clip-path="url(#p370f0e47e4)" style="fill: none; stroke: #000000; stroke-opacity: 0.2; stroke-width: 2; stroke-linecap: round"/>
   </g>
   <g id="line2d_47">
    <path d="M 80.754545 407.621075 
L 120.209091 374.834657 
L 159.663636 346.470888 
L 199.118182 318.069384 
L 238.572727 289.37796 
L 278.027273 262.170647 
L 317.481818 224.121044 
L 356.936364 178.312189 
L 396.390909 128.132915 
L 435.845455 78.12 
" clip-path="url(#p370f0e47e4)" style="fill: none; stroke: #000000; stroke-opacity: 0.2; stroke-width: 2; stroke-linecap: round"/>
   </g>
   <g id="line2d_48">
    <path d="M 80.754545 428.797607 
L 120.209091 428.00378 
L 159.663636 427.329603 
L 199.118182 427.037383 
L 238.572727 426.731817 
L 278.027273 426.415897 
L 317.481818 426.387365 
L 356.936364 426.046595 
L 396.390909 425.636797 
L 435.845455 425.222166 
" clip-path="url(#p370f0e47e4)" style="fill: none; stroke: #000000; stroke-opacity: 0.2; stroke-width: 2; stroke-linecap: round"/>
   </g>
   <g id="line2d_49">
    <path d="M 80.754545 422.165819 
L 120.209091 418.11017 
L 159.663636 412.521631 
L 199.118182 410.119673 
L 238.572727 407.010174 
L 278.027273 408.348404 
L 317.481818 409.756814 
L 356.936364 412.146807 
L 396.390909 409.258659 
L 435.845455 407.812054 
" clip-path="url(#p370f0e47e4)" style="fill: none; stroke: #000000; stroke-opacity: 0.2; stroke-width: 2; stroke-linecap: round"/>
   </g>
   <g id="line2d_50">
    <path d="M 80.754545 427.556936 
L 120.209091 427.053719 
L 159.663636 426.087552 
L 199.118182 425.949955 
L 238.572727 425.195705 
L 278.027273 424.172014 
L 317.481818 423.794198 
L 356.936364 423.410861 
L 396.390909 424.669479 
L 435.845455 424.218723 
" clip-path="url(#p370f0e47e4)" style="fill: none; stroke: #000000; stroke-opacity: 0.2; stroke-width: 2; stroke-linecap: round"/>
   </g>
   <g id="line2d_51">
    <path d="M 80.754545 430.051623 
L 120.209091 429.740995 
L 159.663636 429.482369 
L 199.118182 429.776199 
L 238.572727 429.594425 
L 278.027273 429.046799 
L 317.481818 429.17059 
L 356.936364 429.090517 
L 396.390909 428.694755 
L 435.845455 428.394941 
" clip-path="url(#p370f0e47e4)" style="fill: none; stroke: #000000; stroke-opacity: 0.2; stroke-width: 2; stroke-linecap: round"/>
   </g>
   <g id="line2d_52">
    <path d="M 80.754545 418.197146 
L 120.209091 413.658299 
L 159.663636 404.554834 
L 199.118182 402.515965 
L 238.572727 398.239655 
L 278.027273 397.171096 
L 317.481818 396.956187 
L 356.936364 397.653604 
L 396.390909 404.555754 
L 435.845455 401.084086 
" clip-path="url(#p370f0e47e4)" style="fill: none; stroke: #000000; stroke-opacity: 0.2; stroke-width: 2; stroke-linecap: round"/>
   </g>
   <g id="line2d_53">
    <path d="M 80.754545 427.677276 
L 120.209091 426.038542 
L 159.663636 425.152677 
L 199.118182 424.231148 
L 238.572727 423.540864 
L 278.027273 422.514182 
L 317.481818 421.451375 
L 356.936364 420.75833 
L 396.390909 420.086913 
L 435.845455 419.348079 
" clip-path="url(#p370f0e47e4)" style="fill: none; stroke: #000000; stroke-opacity: 0.2; stroke-width: 2; stroke-linecap: round"/>
   </g>
   <g id="line2d_54">
    <path d="M 80.754545 429.985816 
L 120.209091 429.746287 
L 159.663636 429.276434 
L 199.118182 429.338789 
L 238.572727 429.347993 
L 278.027273 428.933133 
L 317.481818 428.734331 
L 356.936364 428.394481 
L 396.390909 428.315328 
L 435.845455 428.163696 
" clip-path="url(#p370f0e47e4)" style="fill: none; stroke: #000000; stroke-opacity: 0.2; stroke-width: 2; stroke-linecap: round"/>
   </g>
   <g id="line2d_55">
    <path d="M 80.754545 418.254209 
L 120.209091 402.126414 
L 159.663636 385.208705 
L 199.118182 370.706759 
L 238.572727 357.352065 
L 278.027273 351.765366 
L 317.481818 345.7454 
L 356.936364 344.721939 
L 396.390909 348.729267 
L 435.845455 349.564281 
" clip-path="url(#p370f0e47e4)" style="fill: none; stroke: #000000; stroke-opacity: 0.2; stroke-width: 2; stroke-linecap: round"/>
   </g>
   <g id="line2d_56">
    <path d="M 80.754545 426.61654 
L 120.209091 424.123234 
L 159.663636 421.766374 
L 199.118182 421.457127 
L 238.572727 420.974619 
L 278.027273 420.481986 
L 317.481818 418.929767 
L 356.936364 418.93598 
L 396.390909 418.318176 
L 435.845455 418.883288 
" clip-path="url(#p370f0e47e4)" style="fill: none; stroke: #000000; stroke-opacity: 0.2; stroke-width: 2; stroke-linecap: round"/>
   </g>
   <g id="line2d_57">
    <path d="M 80.754545 421.189757 
L 120.209091 415.150002 
L 159.663636 414.062345 
L 199.118182 407.969438 
L 238.572727 405.450822 
L 278.027273 405.368448 
L 317.481818 401.569585 
L 356.936364 400.198681 
L 396.390909 399.864814 
L 435.845455 397.884619 
" clip-path="url(#p370f0e47e4)" style="fill: none; stroke: #000000; stroke-opacity: 0.2; stroke-width: 2; stroke-linecap: round"/>
   </g>
   <g id="line2d_58">
    <path d="M 80.754545 428.606168 
L 120.209091 428.111695 
L 159.663636 427.92969 
L 199.118182 427.013223 
L 238.572727 427.069366 
L 278.027273 425.881157 
L 317.481818 426.342727 
L 356.936364 426.158421 
L 396.390909 425.409693 
L 435.845455 425.807297 
" clip-path="url(#p370f0e47e4)" style="fill: none; stroke: #000000; stroke-opacity: 0.2; stroke-width: 2; stroke-linecap: round"/>
   </g>
   <g id="line2d_59">
    <path d="M 80.754545 428.761942 
L 120.209091 426.498501 
L 159.663636 424.776703 
L 199.118182 424.338602 
L 238.572727 424.546838 
L 278.027273 423.033736 
L 317.481818 424.108508 
L 356.936364 422.600467 
L 396.390909 423.836996 
L 435.845455 422.090578 
" clip-path="url(#p370f0e47e4)" style="fill: none; stroke: #000000; stroke-opacity: 0.2; stroke-width: 2; stroke-linecap: round"/>
   </g>
   <g id="line2d_60">
    <path d="M 80.754545 427.584318 
L 120.209091 424.880475 
L 159.663636 424.766579 
L 199.118182 424.149925 
L 238.572727 425.059029 
L 278.027273 423.523377 
L 317.481818 422.823429 
L 356.936364 422.429047 
L 396.390909 423.060197 
L 435.845455 424.310991 
" clip-path="url(#p370f0e47e4)" style="fill: none; stroke: #000000; stroke-opacity: 0.2; stroke-width: 2; stroke-linecap: round"/>
   </g>
   <g id="line2d_61">
    <path d="M 80.754545 430.369435 
L 120.209091 429.944511 
L 159.663636 429.658548 
L 199.118182 429.432229 
L 238.572727 429.241359 
L 278.027273 429.074525 
L 317.481818 428.925284 
L 356.936364 428.789589 
L 396.390909 428.664707 
L 435.845455 428.548699 
" clip-path="url(#p370f0e47e4)" style="fill: none; stroke-dasharray: 7.4,3.2; stroke-dashoffset: 0; stroke: #000000; stroke-opacity: 0.6; stroke-width: 2"/>
   </g>
   <g id="line2d_62">
    <path d="M 80.754545 424.964692 
L 120.209091 424.143083 
L 159.663636 423.338927 
L 199.118182 422.545428 
L 238.572727 421.759678 
L 278.027273 420.980022 
L 317.481818 420.205385 
L 356.936364 419.435014 
L 396.390909 418.66835 
L 435.845455 417.904963 
" clip-path="url(#p370f0e47e4)" style="fill: none; stroke-dasharray: 7.4,3.2; stroke-dashoffset: 0; stroke: #000000; stroke-opacity: 0.6; stroke-width: 2"/>
   </g>
   <g id="line2d_63">
    <path d="M 80.754545 430.798445 
L 120.209091 430.523196 
L 159.663636 430.351534 
L 199.118182 430.22124 
L 238.572727 430.114609 
L 278.027273 430.023584 
L 317.481818 429.943731 
L 356.936364 429.872323 
L 396.390909 429.807553 
L 435.845455 429.748154 
" clip-path="url(#p370f0e47e4)" style="fill: none; stroke-dasharray: 7.4,3.2; stroke-dashoffset: 0; stroke: #000000; stroke-opacity: 0.6; stroke-width: 2"/>
   </g>
   <g id="line2d_64">
    <path d="M 80.754545 429.295384 
L 120.209091 428.408504 
L 159.663636 427.828545 
L 199.118182 427.376786 
L 238.572727 427.000124 
L 278.027273 426.673845 
L 317.481818 426.384134 
L 356.936364 426.122382 
L 396.390909 425.882818 
L 435.845455 425.661363 
" clip-path="url(#p370f0e47e4)" style="fill: none; stroke-dasharray: 7.4,3.2; stroke-dashoffset: 0; stroke: #000000; stroke-opacity: 0.6; stroke-width: 2"/>
   </g>
   <g id="line2d_65">
    <path d="M 80.754545 430.568977 
L 120.209091 430.263719 
L 159.663636 430.022758 
L 199.118182 429.813878 
L 238.572727 429.625722 
L 278.027273 429.452501 
L 317.481818 429.290752 
L 356.936364 429.1382 
L 396.390909 428.993249 
L 435.845455 428.854728 
" clip-path="url(#p370f0e47e4)" style="fill: none; stroke-dasharray: 7.4,3.2; stroke-dashoffset: 0; stroke: #000000; stroke-opacity: 0.6; stroke-width: 2"/>
   </g>
   <g id="line2d_66">
    <path d="M 80.754545 429.776191 
L 120.209091 428.964603 
L 159.663636 428.388768 
L 199.118182 427.919307 
L 238.572727 427.514813 
L 278.027273 427.155249 
L 317.481818 426.829091 
L 356.936364 426.528994 
L 396.390909 426.249938 
L 435.845455 425.988315 
" clip-path="url(#p370f0e47e4)" style="fill: none; stroke-dasharray: 7.4,3.2; stroke-dashoffset: 0; stroke: #000000; stroke-opacity: 0.6; stroke-width: 2"/>
   </g>
   <g id="line2d_67">
    <path d="M 80.754545 430.415845 
L 120.209091 429.983272 
L 159.663636 429.701281 
L 199.118182 429.482002 
L 238.572727 429.2994 
L 278.027273 429.141378 
L 317.481818 429.001178 
L 356.936364 428.874596 
L 396.390909 428.758813 
L 435.845455 428.651839 
" clip-path="url(#p370f0e47e4)" style="fill: none; stroke-dasharray: 7.4,3.2; stroke-dashoffset: 0; stroke: #000000; stroke-opacity: 0.6; stroke-width: 2"/>
   </g>
   <g id="line2d_68">
    <path d="M 80.754545 429.812296 
L 120.209091 429.339836 
L 159.663636 428.998611 
L 199.118182 428.717604 
L 238.572727 428.473713 
L 278.027273 428.255666 
L 317.481818 428.056937 
L 356.936364 427.873345 
L 396.390909 427.702022 
L 435.845455 427.540899 
" clip-path="url(#p370f0e47e4)" style="fill: none; stroke-dasharray: 7.4,3.2; stroke-dashoffset: 0; stroke: #000000; stroke-opacity: 0.6; stroke-width: 2"/>
   </g>
   <g id="line2d_69">
    <path d="M 80.754545 426.846305 
L 120.209091 425.29493 
L 159.663636 424.462766 
L 199.118182 423.879482 
L 238.572727 423.428542 
L 278.027273 423.060401 
L 317.481818 422.749119 
L 356.936364 422.479356 
L 396.390909 422.241266 
L 435.845455 422.028148 
" clip-path="url(#p370f0e47e4)" style="fill: none; stroke-dasharray: 7.4,3.2; stroke-dashoffset: 0; stroke: #000000; stroke-opacity: 0.6; stroke-width: 2"/>
   </g>
   <g id="line2d_70">
    <path d="M 80.754545 430.383351 
L 120.209091 429.727657 
L 159.663636 429.229952 
L 199.118182 428.808221 
L 238.572727 428.434558 
L 278.027273 428.095008 
L 317.481818 427.781347 
L 356.936364 427.488231 
L 396.390909 427.211949 
L 435.845455 426.949795 
" clip-path="url(#p370f0e47e4)" style="fill: none; stroke-dasharray: 7.4,3.2; stroke-dashoffset: 0; stroke: #000000; stroke-opacity: 0.6; stroke-width: 2"/>
   </g>
   <g id="line2d_71">
    <path d="M 80.754545 430.917257 
L 120.209091 430.640638 
L 159.663636 430.427349 
L 199.118182 430.244969 
L 238.572727 430.082307 
L 278.027273 429.933724 
L 317.481818 429.795879 
L 356.936364 429.666588 
L 396.390909 429.544332 
L 435.845455 429.427998 
" clip-path="url(#p370f0e47e4)" style="fill: none; stroke-dasharray: 7.4,3.2; stroke-dashoffset: 0; stroke: #000000; stroke-opacity: 0.6; stroke-width: 2"/>
   </g>
   <g id="line2d_72">
    <path d="M 80.754545 430.285138 
L 120.209091 429.929131 
L 159.663636 429.673918 
L 199.118182 429.46463 
L 238.572727 429.283541 
L 278.027273 429.12203 
L 317.481818 428.975122 
L 356.936364 428.839633 
L 396.390909 428.713387 
L 435.845455 428.594812 
" clip-path="url(#p370f0e47e4)" style="fill: none; stroke-dasharray: 7.4,3.2; stroke-dashoffset: 0; stroke: #000000; stroke-opacity: 0.6; stroke-width: 2"/>
   </g>
   <g id="line2d_73">
    <path d="M 80.754545 416.721522 
L 120.209091 398.547427 
L 159.663636 381.160427 
L 199.118182 364.243829 
L 238.572727 347.664926 
L 278.027273 331.349055 
L 317.481818 315.248212 
L 356.936364 299.328933 
L 396.390909 283.566571 
L 435.845455 267.94223 
" clip-path="url(#p370f0e47e4)" style="fill: none; stroke-dasharray: 7.4,3.2; stroke-dashoffset: 0; stroke: #000000; stroke-opacity: 0.6; stroke-width: 2"/>
   </g>
   <g id="line2d_74">
    <path d="M 80.754545 429.338544 
L 120.209091 428.408537 
L 159.663636 427.835318 
L 199.118182 427.403 
L 238.572727 427.050811 
L 278.027273 426.751242 
L 317.481818 426.48922 
L 356.936364 426.255501 
L 396.390909 426.043973 
L 435.845455 425.850363 
" clip-path="url(#p370f0e47e4)" style="fill: none; stroke-dasharray: 7.4,3.2; stroke-dashoffset: 0; stroke: #000000; stroke-opacity: 0.6; stroke-width: 2"/>
   </g>
   <g id="line2d_75">
    <path d="M 80.754545 428.296239 
L 120.209091 427.03256 
L 159.663636 426.186037 
L 199.118182 425.517782 
L 238.572727 424.955236 
L 278.027273 424.464244 
L 317.481818 424.025553 
L 356.936364 423.627084 
L 396.390909 423.260698 
L 435.845455 422.920611 
" clip-path="url(#p370f0e47e4)" style="fill: none; stroke-dasharray: 7.4,3.2; stroke-dashoffset: 0; stroke: #000000; stroke-opacity: 0.6; stroke-width: 2"/>
   </g>
   <g id="line2d_76">
    <path d="M 80.754545 424.29138 
L 120.209091 421.229299 
L 159.663636 419.144222 
L 199.118182 417.483171 
L 238.572727 416.075665 
L 278.027273 414.840827 
L 317.481818 413.732806 
L 356.936364 412.722709 
L 396.390909 411.790986 
L 435.845455 410.923705 
" clip-path="url(#p370f0e47e4)" style="fill: none; stroke-dasharray: 7.4,3.2; stroke-dashoffset: 0; stroke: #000000; stroke-opacity: 0.6; stroke-width: 2"/>
   </g>
   <g id="line2d_77">
    <path d="M 80.754545 428.056197 
L 120.209091 427.154265 
L 159.663636 426.670465 
L 199.118182 426.331357 
L 238.572727 426.069192 
L 278.027273 425.855163 
L 317.481818 425.674192 
L 356.936364 425.517357 
L 396.390909 425.378938 
L 435.845455 425.255036 
" clip-path="url(#p370f0e47e4)" style="fill: none; stroke-dasharray: 7.4,3.2; stroke-dashoffset: 0; stroke: #000000; stroke-opacity: 0.6; stroke-width: 2"/>
   </g>
   <g id="line2d_78">
    <path d="M 80.754545 425.126471 
L 120.209091 421.650009 
L 159.663636 419.424763 
L 199.118182 417.711662 
L 238.572727 416.29535 
L 278.027273 415.076608 
L 317.481818 414.000374 
L 356.936364 413.032539 
L 396.390909 412.150349 
L 435.845455 411.337786 
" clip-path="url(#p370f0e47e4)" style="fill: none; stroke-dasharray: 7.4,3.2; stroke-dashoffset: 0; stroke: #000000; stroke-opacity: 0.6; stroke-width: 2"/>
   </g>
   <g id="line2d_79">
    <path d="M 80.754545 411.486707 
L 120.209091 387.512243 
L 159.663636 363.198549 
L 199.118182 338.670752 
L 238.572727 313.984092 
L 278.027273 289.170616 
L 317.481818 264.25141 
L 356.936364 239.241448 
L 396.390909 214.15193 
L 435.845455 188.991562 
" clip-path="url(#p370f0e47e4)" style="fill: none; stroke-dasharray: 7.4,3.2; stroke-dashoffset: 0; stroke: #000000; stroke-opacity: 0.6; stroke-width: 2"/>
   </g>
   <g id="line2d_80">
    <path d="M 80.754545 429.314144 
L 120.209091 427.921147 
L 159.663636 427.085878 
L 199.118182 426.465181 
L 238.572727 425.964867 
L 278.027273 425.542833 
L 317.481818 425.176223 
L 356.936364 424.851125 
L 396.390909 424.558391 
L 435.845455 424.291666 
" clip-path="url(#p370f0e47e4)" style="fill: none; stroke-dasharray: 7.4,3.2; stroke-dashoffset: 0; stroke: #000000; stroke-opacity: 0.6; stroke-width: 2"/>
   </g>
   <g id="line2d_81">
    <path d="M 80.754545 426.999429 
L 120.209091 423.931952 
L 159.663636 421.683646 
L 199.118182 419.816475 
L 238.572727 418.186047 
L 278.027273 416.721384 
L 317.481818 415.381187 
L 356.936364 414.138882 
L 396.390909 412.976172 
L 435.845455 411.879821 
" clip-path="url(#p370f0e47e4)" style="fill: none; stroke-dasharray: 7.4,3.2; stroke-dashoffset: 0; stroke: #000000; stroke-opacity: 0.6; stroke-width: 2"/>
   </g>
   <g id="line2d_82">
    <path d="M 80.754545 424.831948 
L 120.209091 420.186656 
L 159.663636 417.271545 
L 199.118182 415.051459 
L 238.572727 413.230178 
L 278.027273 411.672479 
L 317.481818 410.303826 
L 356.936364 409.078291 
L 396.390909 407.965374 
L 435.845455 406.943688 
" clip-path="url(#p370f0e47e4)" style="fill: none; stroke-dasharray: 7.4,3.2; stroke-dashoffset: 0; stroke: #000000; stroke-opacity: 0.6; stroke-width: 2"/>
   </g>
   <g id="line2d_83">
    <path d="M 80.754545 425.297277 
L 120.209091 422.202397 
L 159.663636 420.538541 
L 199.118182 419.370948 
L 238.572727 418.467531 
L 278.027273 417.729517 
L 317.481818 417.105156 
L 356.936364 416.563825 
L 396.390909 416.085865 
L 435.845455 415.657885 
" clip-path="url(#p370f0e47e4)" style="fill: none; stroke-dasharray: 7.4,3.2; stroke-dashoffset: 0; stroke: #000000; stroke-opacity: 0.6; stroke-width: 2"/>
   </g>
   <g id="line2d_84">
    <path d="M 80.754545 429.609859 
L 120.209091 428.815172 
L 159.663636 428.133179 
L 199.118182 427.512014 
L 238.572727 426.931962 
L 278.027273 426.382537 
L 317.481818 425.857273 
L 356.936364 425.351811 
L 396.390909 424.863029 
L 435.845455 424.388593 
" clip-path="url(#p370f0e47e4)" style="fill: none; stroke-dasharray: 7.4,3.2; stroke-dashoffset: 0; stroke: #000000; stroke-opacity: 0.6; stroke-width: 2"/>
   </g>
   <g id="line2d_85">
    <path d="M 80.754545 414.572946 
L 120.209091 390.965992 
L 159.663636 367.111988 
L 199.118182 343.102589 
L 238.572727 318.978125 
L 278.027273 294.761953 
L 317.481818 270.469414 
L 356.936364 246.111391 
L 396.390909 221.696018 
L 435.845455 197.229609 
" clip-path="url(#p370f0e47e4)" style="fill: none; stroke-dasharray: 7.4,3.2; stroke-dashoffset: 0; stroke: #000000; stroke-opacity: 0.6; stroke-width: 2"/>
   </g>
   <g id="line2d_86">
    <path d="M 80.754545 428.060812 
L 120.209091 427.782235 
L 159.663636 427.451351 
L 199.118182 427.082218 
L 238.572727 426.681977 
L 278.027273 426.255139 
L 317.481818 425.804871 
L 356.936364 425.333541 
L 396.390909 424.842998 
L 435.845455 424.334736 
" clip-path="url(#p370f0e47e4)" style="fill: none; stroke-dasharray: 7.4,3.2; stroke-dashoffset: 0; stroke: #000000; stroke-opacity: 0.6; stroke-width: 2"/>
   </g>
   <g id="line2d_87">
    <path d="M 80.754545 425.267512 
L 120.209091 421.180223 
L 159.663636 418.768406 
L 199.118182 416.991442 
L 238.572727 415.567867 
L 278.027273 414.372789 
L 317.481818 413.338766 
L 356.936364 412.42492 
L 396.390909 411.604473 
L 435.845455 410.858872 
" clip-path="url(#p370f0e47e4)" style="fill: none; stroke-dasharray: 7.4,3.2; stroke-dashoffset: 0; stroke: #000000; stroke-opacity: 0.6; stroke-width: 2"/>
   </g>
   <g id="line2d_88">
    <path d="M 80.754545 429.61886 
L 120.209091 429.01451 
L 159.663636 428.554713 
L 199.118182 428.164582 
L 238.572727 427.818582 
L 278.027273 427.503928 
L 317.481818 427.213081 
L 356.936364 426.941138 
L 396.390909 426.684691 
L 435.845455 426.441257 
" clip-path="url(#p370f0e47e4)" style="fill: none; stroke-dasharray: 7.4,3.2; stroke-dashoffset: 0; stroke: #000000; stroke-opacity: 0.6; stroke-width: 2"/>
   </g>
   <g id="line2d_89">
    <path d="M 80.754545 420.356231 
L 120.209091 411.873375 
L 159.663636 405.844838 
L 199.118182 400.925419 
L 238.572727 396.683951 
L 278.027273 392.911638 
L 317.481818 389.488319 
L 356.936364 386.337361 
L 396.390909 383.40638 
L 435.845455 380.657725 
" clip-path="url(#p370f0e47e4)" style="fill: none; stroke-dasharray: 7.4,3.2; stroke-dashoffset: 0; stroke: #000000; stroke-opacity: 0.6; stroke-width: 2"/>
   </g>
   <g id="line2d_90">
    <path d="M 80.754545 427.405266 
L 120.209091 425.817137 
L 159.663636 424.754608 
L 199.118182 423.916423 
L 238.572727 423.211182 
L 278.027273 422.59589 
L 317.481818 422.046318 
L 356.936364 421.547275 
L 396.390909 421.088524 
L 435.845455 420.662794 
" clip-path="url(#p370f0e47e4)" style="fill: none; stroke-dasharray: 7.4,3.2; stroke-dashoffset: 0; stroke: #000000; stroke-opacity: 0.6; stroke-width: 2"/>
   </g>
   <g id="line2d_91">
    <path d="M 80.754545 427.58292 
L 120.209091 426.157541 
L 159.663636 425.291906 
L 199.118182 424.644238 
L 238.572727 424.119624 
L 278.027273 423.67539 
L 317.481818 423.288272 
L 356.936364 422.944059 
L 396.390909 422.633384 
L 435.845455 422.34972 
" clip-path="url(#p370f0e47e4)" style="fill: none; stroke-dasharray: 7.4,3.2; stroke-dashoffset: 0; stroke: #000000; stroke-opacity: 0.6; stroke-width: 2"/>
   </g>
   <g id="line2d_92">
    <path d="M 80.754545 427.588705 
L 120.209091 425.509135 
L 159.663636 424.386314 
L 199.118182 423.596644 
L 238.572727 422.984679 
L 278.027273 422.48414 
L 317.481818 422.060252 
L 356.936364 421.692417 
L 396.390909 421.367396 
L 435.845455 421.076169 
" clip-path="url(#p370f0e47e4)" style="fill: none; stroke-dasharray: 7.4,3.2; stroke-dashoffset: 0; stroke: #000000; stroke-opacity: 0.6; stroke-width: 2"/>
   </g>
   <g id="line2d_93">
    <path d="M 80.754545 407.001445 
L 120.209091 379.041147 
L 159.663636 348.603485 
L 199.118182 316.495421 
L 238.572727 283.096367 
L 278.027273 248.634975 
L 317.481818 213.266015 
L 356.936364 177.101946 
L 396.390909 140.228543 
L 435.845455 102.713588 
" clip-path="url(#p370f0e47e4)" style="fill: none; stroke-dasharray: 7.4,3.2; stroke-dashoffset: 0; stroke: #000000; stroke-opacity: 0.6; stroke-width: 2"/>
   </g>
   <g id="line2d_94">
    <path d="M 80.754545 428.786848 
L 120.209091 427.987927 
L 159.663636 427.462339 
L 199.118182 427.051573 
L 238.572727 426.708273 
L 278.027273 426.410335 
L 317.481818 426.145379 
L 356.936364 425.905677 
L 396.390909 425.686041 
L 435.845455 425.482799 
" clip-path="url(#p370f0e47e4)" style="fill: none; stroke-dasharray: 7.4,3.2; stroke-dashoffset: 0; stroke: #000000; stroke-opacity: 0.6; stroke-width: 2"/>
   </g>
   <g id="line2d_95">
    <path d="M 80.754545 421.837531 
L 120.209091 416.958588 
L 159.663636 414.341501 
L 199.118182 412.50712 
L 238.572727 411.088952 
L 278.027273 409.931179 
L 317.481818 408.952224 
L 356.936364 408.10384 
L 396.390909 407.355067 
L 435.845455 406.684828 
" clip-path="url(#p370f0e47e4)" style="fill: none; stroke-dasharray: 7.4,3.2; stroke-dashoffset: 0; stroke: #000000; stroke-opacity: 0.6; stroke-width: 2"/>
   </g>
   <g id="line2d_96">
    <path d="M 80.754545 427.674027 
L 120.209091 426.743671 
L 159.663636 426.111503 
L 199.118182 425.608491 
L 238.572727 425.182624 
L 278.027273 424.809251 
L 317.481818 424.47441 
L 356.936364 424.169305 
L 396.390909 423.88799 
L 435.845455 423.626228 
" clip-path="url(#p370f0e47e4)" style="fill: none; stroke-dasharray: 7.4,3.2; stroke-dashoffset: 0; stroke: #000000; stroke-opacity: 0.6; stroke-width: 2"/>
   </g>
   <g id="line2d_97">
    <path d="M 80.754545 429.949015 
L 120.209091 429.849388 
L 159.663636 429.727989 
L 199.118182 429.590286 
L 238.572727 429.43912 
L 278.027273 429.276313 
L 317.481818 429.103155 
L 356.936364 428.920621 
L 396.390909 428.729478 
L 435.845455 428.530348 
" clip-path="url(#p370f0e47e4)" style="fill: none; stroke-dasharray: 7.4,3.2; stroke-dashoffset: 0; stroke: #000000; stroke-opacity: 0.6; stroke-width: 2"/>
   </g>
   <g id="line2d_98">
    <path d="M 80.754545 418.007436 
L 120.209091 411.018342 
L 159.663636 407.269361 
L 199.118182 404.641607 
L 238.572727 402.610079 
L 278.027273 400.951568 
L 317.481818 399.549212 
L 356.936364 398.333901 
L 396.390909 397.261283 
L 435.845455 396.301165 
" clip-path="url(#p370f0e47e4)" style="fill: none; stroke-dasharray: 7.4,3.2; stroke-dashoffset: 0; stroke: #000000; stroke-opacity: 0.6; stroke-width: 2"/>
   </g>
   <g id="line2d_99">
    <path d="M 80.754545 427.622373 
L 120.209091 426.261036 
L 159.663636 425.144641 
L 199.118182 424.154929 
L 238.572727 423.248752 
L 278.027273 422.403682 
L 317.481818 421.606123 
L 356.936364 420.847036 
L 396.390909 420.120019 
L 435.845455 419.420334 
" clip-path="url(#p370f0e47e4)" style="fill: none; stroke-dasharray: 7.4,3.2; stroke-dashoffset: 0; stroke: #000000; stroke-opacity: 0.6; stroke-width: 2"/>
   </g>
   <g id="line2d_100">
    <path d="M 80.754545 429.960317 
L 120.209091 429.729098 
L 159.663636 429.51314 
L 199.118182 429.306099 
L 238.572727 429.105375 
L 278.027273 428.909521 
L 317.481818 428.717617 
L 356.936364 428.529027 
L 396.390909 428.343284 
L 435.845455 428.160032 
" clip-path="url(#p370f0e47e4)" style="fill: none; stroke-dasharray: 7.4,3.2; stroke-dashoffset: 0; stroke: #000000; stroke-opacity: 0.6; stroke-width: 2"/>
   </g>
   <g id="line2d_101">
    <path d="M 80.754545 416.305557 
L 120.209091 400.613666 
L 159.663636 388.387773 
L 199.118182 377.870118 
L 238.572727 368.448324 
L 278.027273 359.812165 
L 317.481818 351.777092 
L 356.936364 344.222244 
L 396.390909 337.063151 
L 435.845455 330.237918 
" clip-path="url(#p370f0e47e4)" style="fill: none; stroke-dasharray: 7.4,3.2; stroke-dashoffset: 0; stroke: #000000; stroke-opacity: 0.6; stroke-width: 2"/>
   </g>
   <g id="line2d_102">
    <path d="M 80.754545 426.598506 
L 120.209091 423.908506 
L 159.663636 422.465579 
L 199.118182 421.454194 
L 238.572727 420.672289 
L 278.027273 420.033953 
L 317.481818 419.494207 
L 356.936364 419.026451 
L 396.390909 418.613616 
L 435.845455 418.244081 
" clip-path="url(#p370f0e47e4)" style="fill: none; stroke-dasharray: 7.4,3.2; stroke-dashoffset: 0; stroke: #000000; stroke-opacity: 0.6; stroke-width: 2"/>
   </g>
   <g id="line2d_103">
    <path d="M 80.754545 421.179634 
L 120.209091 415.755265 
L 159.663636 412.062635 
L 199.118182 409.121398 
L 238.572727 406.62939 
L 278.027273 404.443282 
L 317.481818 402.481826 
L 356.936364 400.693829 
L 396.390909 399.044652 
L 435.845455 397.509611 
" clip-path="url(#p370f0e47e4)" style="fill: none; stroke-dasharray: 7.4,3.2; stroke-dashoffset: 0; stroke: #000000; stroke-opacity: 0.6; stroke-width: 2"/>
   </g>
   <g id="line2d_104">
    <path d="M 80.754545 428.655735 
L 120.209091 428.079625 
L 159.663636 427.626663 
L 199.118182 427.234918 
L 238.572727 426.882635 
L 278.027273 426.558744 
L 317.481818 426.256638 
L 356.936364 425.971976 
L 396.390909 425.70172 
L 435.845455 425.443639 
" clip-path="url(#p370f0e47e4)" style="fill: none; stroke-dasharray: 7.4,3.2; stroke-dashoffset: 0; stroke: #000000; stroke-opacity: 0.6; stroke-width: 2"/>
   </g>
   <g id="line2d_105">
    <path d="M 80.754545 428.468898 
L 120.209091 426.645816 
L 159.663636 425.604917 
L 199.118182 424.851259 
L 238.572727 424.254959 
L 278.027273 423.759237 
L 317.481818 423.333765 
L 356.936364 422.960316 
L 396.390909 422.627036 
L 435.845455 422.325762 
" clip-path="url(#p370f0e47e4)" style="fill: none; stroke-dasharray: 7.4,3.2; stroke-dashoffset: 0; stroke: #000000; stroke-opacity: 0.6; stroke-width: 2"/>
   </g>
   <g id="line2d_106">
    <path d="M 80.754545 427.224238 
L 120.209091 425.797352 
L 159.663636 425.031964 
L 199.118182 424.495485 
L 238.572727 424.08073 
L 278.027273 423.74213 
L 317.481818 423.455827 
L 356.936364 423.20771 
L 396.390909 422.988726 
L 435.845455 422.792709 
" clip-path="url(#p370f0e47e4)" style="fill: none; stroke-dasharray: 7.4,3.2; stroke-dashoffset: 0; stroke: #000000; stroke-opacity: 0.6; stroke-width: 2"/>
   </g>
   <g id="patch_3">
    <path d="M 63 448.56 
L 63 60.48 
" style="fill: none; stroke: #262626; stroke-width: 1.25; stroke-linejoin: miter; stroke-linecap: square"/>
   </g>
   <g id="patch_4">
    <path d="M 453.6 448.56 
L 453.6 60.48 
" style="fill: none; stroke: #262626; stroke-width: 1.25; stroke-linejoin: miter; stroke-linecap: square"/>
   </g>
   <g id="patch_5">
    <path d="M 63 448.56 
L 453.6 448.56 
" style="fill: none; stroke: #262626; stroke-width: 1.25; stroke-linejoin: miter; stroke-linecap: square"/>
   </g>
   <g id="patch_6">
    <path d="M 63 60.48 
L 453.6 60.48 
" style="fill: none; stroke: #262626; stroke-width: 1.25; stroke-linejoin: miter; stroke-linecap: square"/>
   </g>
   <g id="text_17">
    <!-- Fit to 2D MSD -->
    <g style="fill: #262626" transform="translate(195.514063 54.48) scale(0.2 -0.2)">
     <defs>
      <path id="ArialMT-46" d="M 525 0 
L 525 4581 
L 3616 4581 
L 3616 4041 
L 1131 4041 
L 1131 2622 
L 3281 2622 
L 3281 2081 
L 1131 2081 
L 1131 0 
L 525 0 
z
" transform="scale(0.015625)"/>
      <path id="ArialMT-6f" d="M 213 1659 
Q 213 2581 725 3025 
Q 1153 3394 1769 3394 
Q 2453 3394 2887 2945 
Q 3322 2497 3322 1706 
Q 3322 1066 3130 698 
Q 2938 331 2570 128 
Q 2203 -75 1769 -75 
Q 1072 -75 642 372 
Q 213 819 213 1659 
z
M 791 1659 
Q 791 1022 1069 705 
Q 1347 388 1769 388 
Q 2188 388 2466 706 
Q 2744 1025 2744 1678 
Q 2744 2294 2464 2611 
Q 2184 2928 1769 2928 
Q 1347 2928 1069 2612 
Q 791 2297 791 1659 
z
" transform="scale(0.015625)"/>
     </defs>
     <use xlink:href="#ArialMT-46"/>
     <use xlink:href="#ArialMT-69" x="61.083984"/>
     <use xlink:href="#ArialMT-74" x="83.300781"/>
     <use xlink:href="#ArialMT-20" x="111.083984"/>
     <use xlink:href="#ArialMT-74" x="138.867188"/>
     <use xlink:href="#ArialMT-6f" x="166.650391"/>
     <use xlink:href="#ArialMT-20" x="222.265625"/>
     <use xlink:href="#ArialMT-32" x="250.048828"/>
     <use xlink:href="#ArialMT-44" x="305.664062"/>
     <use xlink:href="#ArialMT-20" x="377.880859"/>
     <use xlink:href="#ArialMT-4d" x="405.664062"/>
     <use xlink:href="#ArialMT-53" x="488.964844"/>
     <use xlink:href="#ArialMT-44" x="555.664062"/>
    </g>
   </g>
   <g id="legend_1">
    <g id="line2d_107">
     <path d="M 75.6 78.200937 
L 89.6 78.200937 
L 103.6 78.200937 
" style="fill: none; stroke: #000000; stroke-width: 1.5; stroke-linecap: round"/>
    </g>
    <g id="text_18">
     <!-- Data -->
     <g style="fill: #262626" transform="translate(114.8 83.100937) scale(0.14 -0.14)">
      <use xlink:href="#ArialMT-44"/>
      <use xlink:href="#ArialMT-61" x="72.216797"/>
      <use xlink:href="#ArialMT-74" x="127.832031"/>
      <use xlink:href="#ArialMT-61" x="155.615234"/>
     </g>
    </g>
    <g id="line2d_108">
     <path d="M 75.6 98.004375 
L 89.6 98.004375 
L 103.6 98.004375 
" style="fill: none; stroke-dasharray: 5.55,2.4; stroke-dashoffset: 0; stroke: #000000; stroke-width: 1.5"/>
    </g>
    <g id="text_19">
     <!-- Fit -->
     <g style="fill: #262626" transform="translate(114.8 102.904375) scale(0.14 -0.14)">
      <use xlink:href="#ArialMT-46"/>
      <use xlink:href="#ArialMT-69" x="61.083984"/>
      <use xlink:href="#ArialMT-74" x="83.300781"/>
     </g>
    </g>
   </g>
  </g>
 </g>
 <defs>
  <clipPath id="p370f0e47e4">
   <rect x="63" y="60.48" width="390.6" height="388.08"/>
  </clipPath>
 </defs>
</svg>
