<?xml version="1.0" encoding="utf-8" standalone="no"?>
<!DOCTYPE svg PUBLIC "-//W3C//DTD SVG 1.1//EN"
  "http://www.w3.org/Graphics/SVG/1.1/DTD/svg11.dtd">
<svg xmlns:xlink="http://www.w3.org/1999/xlink" width="504pt" height="252pt" viewBox="0 0 504 252" xmlns="http://www.w3.org/2000/svg" version="1.1">
 <metadata>
  <rdf:RDF xmlns:dc="http://purl.org/dc/elements/1.1/" xmlns:cc="http://creativecommons.org/ns#" xmlns:rdf="http://www.w3.org/1999/02/22-rdf-syntax-ns#">
   <cc:Work>
    <dc:type rdf:resource="http://purl.org/dc/dcmitype/StillImage"/>
    <dc:date>2025-06-24T14:21:07.390934</dc:date>
    <dc:format>image/svg+xml</dc:format>
    <dc:creator>
     <cc:Agent>
      <dc:title>Matplotlib v3.8.0, https://matplotlib.org/</dc:title>
     </cc:Agent>
    </dc:creator>
   </cc:Work>
  </rdf:RDF>
 </metadata>
 <defs>
  <style type="text/css">*{stroke-linejoin: round; stroke-linecap: butt}</style>
 </defs>
 <g id="figure_1">
  <g id="patch_1">
   <path d="M 0 252 
L 504 252 
L 504 0 
L 0 0 
z
" style="fill: #ffffff"/>
  </g>
  <g id="axes_1">
   <g id="patch_2">
    <path d="M 86.925125 219.74 
L 261.402562 219.74 
L 261.402562 10.8 
L 86.925125 10.8 
z
" style="fill: #ffffff"/>
   </g>
   <g id="matplotlib.axis_1">
    <g id="xtick_1">
     <g id="line2d_1">
      <defs>
       <path id="m98370fb7b5" d="M 0 0 
L 0 5 
" style="stroke: #262626; stroke-width: 0.8"/>
      </defs>
      <g>
       <use xlink:href="#m98370fb7b5" x="130.103885" y="219.74" style="fill: #262626; stroke: #262626; stroke-width: 0.8"/>
      </g>
     </g>
     <g id="text_1">
      <!-- TEST -->
      <g style="fill: #262626" transform="translate(112.21451 238.260937) scale(0.14 -0.14)">
       <defs>
        <path id="ArialMT-54" d="M 1659 0 
L 1659 4041 
L 150 4041 
L 150 4581 
L 3781 4581 
L 3781 4041 
L 2266 4041 
L 2266 0 
L 1659 0 
z
" transform="scale(0.015625)"/>
        <path id="ArialMT-45" d="M 506 0 
L 506 4581 
L 3819 4581 
L 3819 4041 
L 1113 4041 
L 1113 2638 
L 3647 2638 
L 3647 2100 
L 1113 2100 
L 1113 541 
L 3925 541 
L 3925 0 
L 506 0 
z
" transform="scale(0.015625)"/>
        <path id="ArialMT-53" d="M 288 1472 
L 859 1522 
Q 900 1178 1048 958 
Q 1197 738 1509 602 
Q 1822 466 2213 466 
Q 2559 466 2825 569 
Q 3091 672 3220 851 
Q 3350 1031 3350 1244 
Q 3350 1459 3225 1620 
Q 3100 1781 2813 1891 
Q 2628 1963 1997 2114 
Q 1366 2266 1113 2400 
Q 784 2572 623 2826 
Q 463 3081 463 3397 
Q 463 3744 659 4045 
Q 856 4347 1234 4503 
Q 1613 4659 2075 4659 
Q 2584 4659 2973 4495 
Q 3363 4331 3572 4012 
Q 3781 3694 3797 3291 
L 3216 3247 
Q 3169 3681 2898 3903 
Q 2628 4125 2100 4125 
Q 1550 4125 1298 3923 
Q 1047 3722 1047 3438 
Q 1047 3191 1225 3031 
Q 1400 2872 2139 2705 
Q 2878 2538 3153 2413 
Q 3553 2228 3743 1945 
Q 3934 1663 3934 1294 
Q 3934 928 3725 604 
Q 3516 281 3123 101 
Q 2731 -78 2241 -78 
Q 1619 -78 1198 103 
Q 778 284 539 648 
Q 300 1013 288 1472 
z
" transform="scale(0.015625)"/>
       </defs>
       <use xlink:href="#ArialMT-54"/>
       <use xlink:href="#ArialMT-45" x="61.083984"/>
       <use xlink:href="#ArialMT-53" x="127.783203"/>
       <use xlink:href="#ArialMT-54" x="194.482422"/>
      </g>
     </g>
    </g>
    <g id="xtick_2">
     <g id="line2d_2">
      <g>
       <use xlink:href="#m98370fb7b5" x="218.223803" y="219.74" style="fill: #262626; stroke: #262626; stroke-width: 0.8"/>
      </g>
     </g>
     <g id="text_2">
      <!-- TESTcopy -->
      <g style="fill: #262626" transform="translate(186.327865 238.431562) scale(0.14 -0.14)">
       <defs>
        <path id="ArialMT-63" d="M 2588 1216 
L 3141 1144 
Q 3050 572 2676 248 
Q 2303 -75 1759 -75 
Q 1078 -75 664 370 
Q 250 816 250 1647 
Q 250 2184 428 2587 
Q 606 2991 970 3192 
Q 1334 3394 1763 3394 
Q 2303 3394 2647 3120 
Q 2991 2847 3088 2344 
L 2541 2259 
Q 2463 2594 2264 2762 
Q 2066 2931 1784 2931 
Q 1359 2931 1093 2626 
Q 828 2322 828 1663 
Q 828 994 1084 691 
Q 1341 388 1753 388 
Q 2084 388 2306 591 
Q 2528 794 2588 1216 
z
" transform="scale(0.015625)"/>
        <path id="ArialMT-6f" d="M 213 1659 
Q 213 2581 725 3025 
Q 1153 3394 1769 3394 
Q 2453 3394 2887 2945 
Q 3322 2497 3322 1706 
Q 3322 1066 3130 698 
Q 2938 331 2570 128 
Q 2203 -75 1769 -75 
Q 1072 -75 642 372 
Q 213 819 213 1659 
z
M 791 1659 
Q 791 1022 1069 705 
Q 1347 388 1769 388 
Q 2188 388 2466 706 
Q 2744 1025 2744 1678 
Q 2744 2294 2464 2611 
Q 2184 2928 1769 2928 
Q 1347 2928 1069 2612 
Q 791 2297 791 1659 
z
" transform="scale(0.015625)"/>
        <path id="ArialMT-70" d="M 422 -1272 
L 422 3319 
L 934 3319 
L 934 2888 
Q 1116 3141 1344 3267 
Q 1572 3394 1897 3394 
Q 2322 3394 2647 3175 
Q 2972 2956 3137 2557 
Q 3303 2159 3303 1684 
Q 3303 1175 3120 767 
Q 2938 359 2589 142 
Q 2241 -75 1856 -75 
Q 1575 -75 1351 44 
Q 1128 163 984 344 
L 984 -1272 
L 422 -1272 
z
M 931 1641 
Q 931 1000 1190 694 
Q 1450 388 1819 388 
Q 2194 388 2461 705 
Q 2728 1022 2728 1688 
Q 2728 2322 2467 2637 
Q 2206 2953 1844 2953 
Q 1484 2953 1207 2617 
Q 931 2281 931 1641 
z
" transform="scale(0.015625)"/>
        <path id="ArialMT-79" d="M 397 -1278 
L 334 -750 
Q 519 -800 656 -800 
Q 844 -800 956 -737 
Q 1069 -675 1141 -563 
Q 1194 -478 1313 -144 
Q 1328 -97 1363 -6 
L 103 3319 
L 709 3319 
L 1400 1397 
Q 1534 1031 1641 628 
Q 1738 1016 1872 1384 
L 2581 3319 
L 3144 3319 
L 1881 -56 
Q 1678 -603 1566 -809 
Q 1416 -1088 1222 -1217 
Q 1028 -1347 759 -1347 
Q 597 -1347 397 -1278 
z
" transform="scale(0.015625)"/>
       </defs>
       <use xlink:href="#ArialMT-54"/>
       <use xlink:href="#ArialMT-45" x="61.083984"/>
       <use xlink:href="#ArialMT-53" x="127.783203"/>
       <use xlink:href="#ArialMT-54" x="194.482422"/>
       <use xlink:href="#ArialMT-63" x="244.441406"/>
       <use xlink:href="#ArialMT-6f" x="294.441406"/>
       <use xlink:href="#ArialMT-70" x="350.056641"/>
       <use xlink:href="#ArialMT-79" x="405.671875"/>
      </g>
     </g>
    </g>
   </g>
   <g id="matplotlib.axis_2">
    <g id="ytick_1">
     <g id="line2d_3">
      <defs>
       <path id="m93de804855" d="M 0 0 
L -5 0 
" style="stroke: #262626; stroke-width: 0.8"/>
      </defs>
      <g>
       <use xlink:href="#m93de804855" x="86.925125" y="200.745455" style="fill: #262626; stroke: #262626; stroke-width: 0.8"/>
      </g>
     </g>
     <g id="text_3">
      <!-- $10^{-4}$ -->
      <g style="fill: #262626" transform="translate(50.705125 207.894205) scale(0.14 -0.14)">
       <defs>
        <path id="ArialMT-31" d="M 2384 0 
L 1822 0 
L 1822 3584 
Q 1619 3391 1289 3197 
Q 959 3003 697 2906 
L 697 3450 
Q 1169 3672 1522 3987 
Q 1875 4303 2022 4600 
L 2384 4600 
L 2384 0 
z
" transform="scale(0.015625)"/>
        <path id="ArialMT-30" d="M 266 2259 
Q 266 3072 433 3567 
Q 600 4063 929 4331 
Q 1259 4600 1759 4600 
Q 2128 4600 2406 4451 
Q 2684 4303 2865 4023 
Q 3047 3744 3150 3342 
Q 3253 2941 3253 2259 
Q 3253 1453 3087 958 
Q 2922 463 2592 192 
Q 2263 -78 1759 -78 
Q 1097 -78 719 397 
Q 266 969 266 2259 
z
M 844 2259 
Q 844 1131 1108 757 
Q 1372 384 1759 384 
Q 2147 384 2411 759 
Q 2675 1134 2675 2259 
Q 2675 3391 2411 3762 
Q 2147 4134 1753 4134 
Q 1366 4134 1134 3806 
Q 844 3388 844 2259 
z
" transform="scale(0.015625)"/>
        <path id="ArialMT-2212" d="M 3381 1997 
L 356 1997 
L 356 2522 
L 3381 2522 
L 3381 1997 
z
" transform="scale(0.015625)"/>
        <path id="ArialMT-34" d="M 2069 0 
L 2069 1097 
L 81 1097 
L 81 1613 
L 2172 4581 
L 2631 4581 
L 2631 1613 
L 3250 1613 
L 3250 1097 
L 2631 1097 
L 2631 0 
L 2069 0 
z
M 2069 1613 
L 2069 3678 
L 634 1613 
L 2069 1613 
z
" transform="scale(0.015625)"/>
       </defs>
       <use xlink:href="#ArialMT-31" transform="translate(0 0.201563)"/>
       <use xlink:href="#ArialMT-30" transform="translate(55.615234 0.201563)"/>
       <use xlink:href="#ArialMT-2212" transform="translate(112.972813 69.895313) scale(0.7)"/>
       <use xlink:href="#ArialMT-34" transform="translate(153.851719 69.895313) scale(0.7)"/>
      </g>
     </g>
    </g>
    <g id="ytick_2">
     <g id="line2d_4">
      <g>
       <use xlink:href="#m93de804855" x="86.925125" y="137.430303" style="fill: #262626; stroke: #262626; stroke-width: 0.8"/>
      </g>
     </g>
     <g id="text_4">
      <!-- $10^{-3}$ -->
      <g style="fill: #262626" transform="translate(50.705125 144.649053) scale(0.14 -0.14)">
       <defs>
        <path id="ArialMT-33" d="M 269 1209 
L 831 1284 
Q 928 806 1161 595 
Q 1394 384 1728 384 
Q 2125 384 2398 659 
Q 2672 934 2672 1341 
Q 2672 1728 2419 1979 
Q 2166 2231 1775 2231 
Q 1616 2231 1378 2169 
L 1441 2663 
Q 1497 2656 1531 2656 
Q 1891 2656 2178 2843 
Q 2466 3031 2466 3422 
Q 2466 3731 2256 3934 
Q 2047 4138 1716 4138 
Q 1388 4138 1169 3931 
Q 950 3725 888 3313 
L 325 3413 
Q 428 3978 793 4289 
Q 1159 4600 1703 4600 
Q 2078 4600 2393 4439 
Q 2709 4278 2876 4000 
Q 3044 3722 3044 3409 
Q 3044 3113 2884 2869 
Q 2725 2625 2413 2481 
Q 2819 2388 3044 2092 
Q 3269 1797 3269 1353 
Q 3269 753 2831 336 
Q 2394 -81 1725 -81 
Q 1122 -81 723 278 
Q 325 638 269 1209 
z
" transform="scale(0.015625)"/>
       </defs>
       <use xlink:href="#ArialMT-31" transform="translate(0 0.99375)"/>
       <use xlink:href="#ArialMT-30" transform="translate(55.615234 0.99375)"/>
       <use xlink:href="#ArialMT-2212" transform="translate(112.972813 70.6875) scale(0.7)"/>
       <use xlink:href="#ArialMT-33" transform="translate(153.851719 70.6875) scale(0.7)"/>
      </g>
     </g>
    </g>
    <g id="ytick_3">
     <g id="line2d_5">
      <g>
       <use xlink:href="#m93de804855" x="86.925125" y="74.115152" style="fill: #262626; stroke: #262626; stroke-width: 0.8"/>
      </g>
     </g>
     <g id="text_5">
      <!-- $10^{-2}$ -->
      <g style="fill: #262626" transform="translate(50.705125 81.333902) scale(0.14 -0.14)">
       <defs>
        <path id="ArialMT-32" d="M 3222 541 
L 3222 0 
L 194 0 
Q 188 203 259 391 
Q 375 700 629 1000 
Q 884 1300 1366 1694 
Q 2113 2306 2375 2664 
Q 2638 3022 2638 3341 
Q 2638 3675 2398 3904 
Q 2159 4134 1775 4134 
Q 1369 4134 1125 3890 
Q 881 3647 878 3216 
L 300 3275 
Q 359 3922 746 4261 
Q 1134 4600 1788 4600 
Q 2447 4600 2831 4234 
Q 3216 3869 3216 3328 
Q 3216 3053 3103 2787 
Q 2991 2522 2730 2228 
Q 2469 1934 1863 1422 
Q 1356 997 1212 845 
Q 1069 694 975 541 
L 3222 541 
z
" transform="scale(0.015625)"/>
       </defs>
       <use xlink:href="#ArialMT-31" transform="translate(0 0.99375)"/>
       <use xlink:href="#ArialMT-30" transform="translate(55.615234 0.99375)"/>
       <use xlink:href="#ArialMT-2212" transform="translate(112.972813 70.6875) scale(0.7)"/>
       <use xlink:href="#ArialMT-32" transform="translate(153.851719 70.6875) scale(0.7)"/>
      </g>
     </g>
    </g>
    <g id="ytick_4">
     <g id="line2d_6"/>
    </g>
    <g id="ytick_5">
     <g id="line2d_7"/>
    </g>
    <g id="ytick_6">
     <g id="line2d_8"/>
    </g>
    <g id="ytick_7">
     <g id="line2d_9"/>
    </g>
    <g id="ytick_8">
     <g id="line2d_10"/>
    </g>
    <g id="ytick_9">
     <g id="line2d_11"/>
    </g>
    <g id="ytick_10">
     <g id="line2d_12"/>
    </g>
    <g id="ytick_11">
     <g id="line2d_13"/>
    </g>
    <g id="ytick_12">
     <g id="line2d_14"/>
    </g>
    <g id="ytick_13">
     <g id="line2d_15"/>
    </g>
    <g id="ytick_14">
     <g id="line2d_16"/>
    </g>
    <g id="ytick_15">
     <g id="line2d_17"/>
    </g>
    <g id="ytick_16">
     <g id="line2d_18"/>
    </g>
    <g id="ytick_17">
     <g id="line2d_19"/>
    </g>
    <g id="ytick_18">
     <g id="line2d_20"/>
    </g>
    <g id="ytick_19">
     <g id="line2d_21"/>
    </g>
    <g id="ytick_20">
     <g id="line2d_22"/>
    </g>
    <g id="ytick_21">
     <g id="line2d_23"/>
    </g>
    <g id="ytick_22">
     <g id="line2d_24"/>
    </g>
    <g id="ytick_23">
     <g id="line2d_25"/>
    </g>
    <g id="ytick_24">
     <g id="line2d_26"/>
    </g>
    <g id="ytick_25">
     <g id="line2d_27"/>
    </g>
    <g id="ytick_26">
     <g id="line2d_28"/>
    </g>
    <g id="ytick_27">
     <g id="line2d_29"/>
    </g>
    <g id="ytick_28">
     <g id="line2d_30"/>
    </g>
    <g id="text_6">
     <!-- D* $\left(\frac{\mu m^{2}}{s^{\alpha}}\right)$ -->
     <g style="fill: #262626" transform="translate(37.105125 147.83) rotate(-90) scale(0.16 -0.16)">
      <defs>
       <path id="ArialMT-44" d="M 494 0 
L 494 4581 
L 2072 4581 
Q 2606 4581 2888 4516 
Q 3281 4425 3559 4188 
Q 3922 3881 4101 3404 
Q 4281 2928 4281 2316 
Q 4281 1794 4159 1391 
Q 4038 988 3847 723 
Q 3656 459 3429 307 
Q 3203 156 2883 78 
Q 2563 0 2147 0 
L 494 0 
z
M 1100 541 
L 2078 541 
Q 2531 541 2789 625 
Q 3047 709 3200 863 
Q 3416 1078 3536 1442 
Q 3656 1806 3656 2325 
Q 3656 3044 3420 3430 
Q 3184 3816 2847 3947 
Q 2603 4041 2063 4041 
L 1100 4041 
L 1100 541 
z
" transform="scale(0.015625)"/>
       <path id="ArialMT-2a" d="M 200 3741 
L 344 4184 
Q 841 4009 1066 3881 
Q 1006 4447 1003 4659 
L 1456 4659 
Q 1447 4350 1384 3884 
Q 1706 4047 2122 4184 
L 2266 3741 
Q 1869 3609 1488 3566 
Q 1678 3400 2025 2975 
L 1650 2709 
Q 1469 2956 1222 3381 
Q 991 2941 816 2709 
L 447 2975 
Q 809 3422 966 3566 
Q 563 3644 200 3741 
z
" transform="scale(0.015625)"/>
       <path id="ArialMT-20" transform="scale(0.015625)"/>
       <path id="STIXSizeThreeSym-Regular-28" d="M 4269 -2214 
L 4269 -2522 
Q 2835 -1178 2000 838 
Q 1165 2854 1165 5350 
Q 1165 7878 2019 9990 
Q 2874 12102 4269 13222 
L 4269 12941 
Q 3814 12467 3408 11785 
Q 3002 11104 2646 10173 
Q 2291 9242 2080 7990 
Q 1869 6739 1869 5350 
Q 1869 4218 2013 3190 
Q 2157 2163 2381 1398 
Q 2605 634 2934 -73 
Q 3264 -781 3577 -1264 
Q 3891 -1747 4269 -2214 
z
" transform="scale(0.015625)"/>
       <path id="ArialMT-3bc" d="M 3181 3319 
L 3181 0 
L 2678 0 
L 2678 394 
Q 2516 144 2356 50 
Q 2138 -78 1847 -78 
Q 1588 -78 1388 25 
Q 1238 103 1056 334 
L 1056 -1272 
L 500 -1272 
L 500 3319 
L 1056 3319 
L 1056 1913 
Q 1056 1147 1137 920 
Q 1219 694 1401 562 
Q 1584 431 1822 431 
Q 2072 431 2269 568 
Q 2466 706 2547 923 
Q 2628 1141 2628 1903 
L 2628 3319 
L 3181 3319 
z
" transform="scale(0.015625)"/>
       <path id="ArialMT-6d" d="M 422 0 
L 422 3319 
L 925 3319 
L 925 2853 
Q 1081 3097 1340 3245 
Q 1600 3394 1931 3394 
Q 2300 3394 2536 3241 
Q 2772 3088 2869 2813 
Q 3263 3394 3894 3394 
Q 4388 3394 4653 3120 
Q 4919 2847 4919 2278 
L 4919 0 
L 4359 0 
L 4359 2091 
Q 4359 2428 4304 2576 
Q 4250 2725 4106 2815 
Q 3963 2906 3769 2906 
Q 3419 2906 3187 2673 
Q 2956 2441 2956 1928 
L 2956 0 
L 2394 0 
L 2394 2156 
Q 2394 2531 2256 2718 
Q 2119 2906 1806 2906 
Q 1569 2906 1367 2781 
Q 1166 2656 1075 2415 
Q 984 2175 984 1722 
L 984 0 
L 422 0 
z
" transform="scale(0.015625)"/>
       <path id="ArialMT-73" d="M 197 991 
L 753 1078 
Q 800 744 1014 566 
Q 1228 388 1613 388 
Q 2000 388 2187 545 
Q 2375 703 2375 916 
Q 2375 1106 2209 1216 
Q 2094 1291 1634 1406 
Q 1016 1563 777 1677 
Q 538 1791 414 1992 
Q 291 2194 291 2438 
Q 291 2659 392 2848 
Q 494 3038 669 3163 
Q 800 3259 1026 3326 
Q 1253 3394 1513 3394 
Q 1903 3394 2198 3281 
Q 2494 3169 2634 2976 
Q 2775 2784 2828 2463 
L 2278 2388 
Q 2241 2644 2061 2787 
Q 1881 2931 1553 2931 
Q 1166 2931 1000 2803 
Q 834 2675 834 2503 
Q 834 2394 903 2306 
Q 972 2216 1119 2156 
Q 1203 2125 1616 2013 
Q 2213 1853 2448 1751 
Q 2684 1650 2818 1456 
Q 2953 1263 2953 975 
Q 2953 694 2789 445 
Q 2625 197 2315 61 
Q 2006 -75 1616 -75 
Q 969 -75 630 194 
Q 291 463 197 991 
z
" transform="scale(0.015625)"/>
       <path id="ArialMT-3b1" d="M 2884 3319 
L 3459 3319 
Q 3241 2631 3056 1659 
Q 3275 453 3459 0 
L 2900 0 
Q 2766 313 2697 606 
Q 2438 -75 1613 -75 
Q 988 -75 606 394 
Q 225 863 225 1666 
Q 225 2491 608 2942 
Q 991 3394 1622 3394 
Q 2013 3394 2259 3236 
Q 2506 3078 2719 2756 
Q 2741 2866 2884 3319 
z
M 1716 2928 
Q 1313 2928 1078 2603 
Q 844 2278 844 1666 
Q 844 1069 1066 728 
Q 1288 388 1684 388 
Q 2072 388 2331 723 
Q 2591 1059 2591 1691 
Q 2591 2303 2348 2615 
Q 2106 2928 1716 2928 
z
" transform="scale(0.015625)"/>
       <path id="STIXSizeThreeSym-Regular-29" d="M 531 12915 
L 531 13222 
Q 1965 11872 2800 9869 
Q 3635 7866 3635 5350 
Q 3635 2835 2777 716 
Q 1920 -1402 531 -2522 
L 531 -2240 
Q 986 -1766 1392 -1084 
Q 1798 -403 2153 528 
Q 2509 1459 2720 2710 
Q 2931 3962 2931 5350 
Q 2931 9990 531 12915 
z
" transform="scale(0.015625)"/>
      </defs>
      <use xlink:href="#ArialMT-44" transform="translate(0 0.2475)"/>
      <use xlink:href="#ArialMT-2a" transform="translate(72.216797 0.2475)"/>
      <use xlink:href="#ArialMT-20" transform="translate(111.132812 0.2475)"/>
      <use xlink:href="#STIXSizeThreeSym-Regular-28" transform="translate(138.916016 -25.96875) scale(0.83235)"/>
      <use xlink:href="#ArialMT-3bc" transform="translate(201.341782 61.988125) scale(0.7)"/>
      <use xlink:href="#ArialMT-6d" transform="translate(241.673813 61.988125) scale(0.7)"/>
      <use xlink:href="#ArialMT-32" transform="translate(301.204 110.77375) scale(0.49)"/>
      <use xlink:href="#ArialMT-73" transform="translate(232.341782 -57.945312) scale(0.7)"/>
      <use xlink:href="#ArialMT-3b1" transform="translate(268.561422 -9.159687) scale(0.49)"/>
      <use xlink:href="#STIXSizeThreeSym-Regular-29" transform="translate(344.440153 -25.96875) scale(0.83235)"/>
      <path d="M 201.341782 23.075625 
L 201.341782 29.325625 
L 331.940153 29.325625 
L 331.940153 23.075625 
L 201.341782 23.075625 
z
"/>
     </g>
    </g>
   </g>
   <g id="PolyCollection_1">
    <defs>
     <path id="m7062769403" d="M 130.615013 -58.69356 
L 129.592756 -58.69356 
L 129.428579 -59.739456 
L 129.226075 -60.785351 
L 128.981098 -61.831247 
L 128.690472 -62.877142 
L 128.352412 -63.923038 
L 127.966895 -64.968933 
L 127.535956 -66.014829 
L 127.063842 -67.060724 
L 126.556988 -68.106619 
L 126.023795 -69.152515 
L 125.474204 -70.19841 
L 124.919079 -71.244306 
L 124.369464 -72.290201 
L 123.835768 -73.336097 
L 123.326979 -74.381992 
L 122.849971 -75.427887 
L 122.409008 -76.473783 
L 122.005488 -77.519678 
L 121.637956 -78.565574 
L 121.302394 -79.611469 
L 120.992721 -80.657365 
L 120.701456 -81.70326 
L 120.420434 -82.749156 
L 120.141469 -83.795051 
L 119.85688 -84.840946 
L 119.559794 -85.886842 
L 119.244174 -86.932737 
L 118.904588 -87.978633 
L 118.535739 -89.024528 
L 118.131855 -90.070424 
L 117.686048 -91.116319 
L 117.189782 -92.162215 
L 116.632589 -93.20811 
L 116.002144 -94.254005 
L 115.284788 -95.299901 
L 114.466513 -96.345796 
L 113.534374 -97.391692 
L 112.478218 -98.437587 
L 111.292558 -99.483483 
L 109.978387 -100.529378 
L 108.544705 -101.575274 
L 107.009536 -102.621169 
L 105.400263 -103.667064 
L 103.753147 -104.71296 
L 102.112005 -105.758855 
L 100.526097 -106.804751 
L 99.047344 -107.850646 
L 97.727117 -108.896542 
L 96.612844 -109.942437 
L 95.744759 -110.988333 
L 95.153083 -112.034228 
L 94.855917 -113.080123 
L 94.858054 -114.126019 
L 95.150834 -115.171914 
L 95.713074 -116.21781 
L 96.512977 -117.263705 
L 97.510845 -118.309601 
L 98.662309 -119.355496 
L 99.92178 -120.401392 
L 101.245745 -121.447287 
L 102.595618 -122.493182 
L 103.939871 -123.539078 
L 105.255286 -124.584973 
L 106.527267 -125.630869 
L 107.749268 -126.676764 
L 108.921498 -127.72266 
L 110.049123 -128.768555 
L 111.14024 -129.814451 
L 112.20389 -130.860346 
L 113.248343 -131.906241 
L 114.27981 -132.952137 
L 115.301695 -133.998032 
L 116.314363 -135.043928 
L 117.315385 -136.089823 
L 118.300122 -137.135719 
L 119.262516 -138.181614 
L 120.195934 -139.22751 
L 121.093949 -140.273405 
L 121.950948 -141.3193 
L 122.762539 -142.365196 
L 123.525725 -143.411091 
L 124.238886 -144.456987 
L 124.901614 -145.502882 
L 125.514448 -146.548778 
L 126.078584 -147.594673 
L 126.595606 -148.640568 
L 127.067264 -149.686464 
L 127.495335 -150.732359 
L 127.881553 -151.778255 
L 128.227608 -152.82415 
L 128.535196 -153.870046 
L 128.806085 -154.915941 
L 129.042189 -155.961837 
L 129.24562 -157.007732 
L 129.418715 -158.053627 
L 129.564028 -159.099523 
L 129.684287 -160.145418 
L 129.782331 -161.191314 
L 129.861027 -162.237209 
L 130.346743 -162.237209 
L 130.346743 -162.237209 
L 130.425438 -161.191314 
L 130.523482 -160.145418 
L 130.643741 -159.099523 
L 130.789054 -158.053627 
L 130.96215 -157.007732 
L 131.16558 -155.961837 
L 131.401684 -154.915941 
L 131.672573 -153.870046 
L 131.980161 -152.82415 
L 132.326216 -151.778255 
L 132.712434 -150.732359 
L 133.140505 -149.686464 
L 133.612163 -148.640568 
L 134.129185 -147.594673 
L 134.693322 -146.548778 
L 135.306155 -145.502882 
L 135.968883 -144.456987 
L 136.682045 -143.411091 
L 137.44523 -142.365196 
L 138.256821 -141.3193 
L 139.113821 -140.273405 
L 140.011835 -139.22751 
L 140.945254 -138.181614 
L 141.907647 -137.135719 
L 142.892384 -136.089823 
L 143.893406 -135.043928 
L 144.906075 -133.998032 
L 145.927959 -132.952137 
L 146.959427 -131.906241 
L 148.003879 -130.860346 
L 149.06753 -129.814451 
L 150.158646 -128.768555 
L 151.286271 -127.72266 
L 152.458501 -126.676764 
L 153.680502 -125.630869 
L 154.952483 -124.584973 
L 156.267898 -123.539078 
L 157.612151 -122.493182 
L 158.962024 -121.447287 
L 160.285989 -120.401392 
L 161.54546 -119.355496 
L 162.696925 -118.309601 
L 163.694792 -117.263705 
L 164.494696 -116.21781 
L 165.056936 -115.171914 
L 165.349715 -114.126019 
L 165.351852 -113.080123 
L 165.054686 -112.034228 
L 164.46301 -110.988333 
L 163.594925 -109.942437 
L 162.480652 -108.896542 
L 161.160425 -107.850646 
L 159.681673 -106.804751 
L 158.095764 -105.758855 
L 156.454622 -104.71296 
L 154.807506 -103.667064 
L 153.198233 -102.621169 
L 151.663064 -101.575274 
L 150.229382 -100.529378 
L 148.915211 -99.483483 
L 147.729551 -98.437587 
L 146.673395 -97.391692 
L 145.741257 -96.345796 
L 144.922981 -95.299901 
L 144.205625 -94.254005 
L 143.57518 -93.20811 
L 143.017987 -92.162215 
L 142.521721 -91.116319 
L 142.075914 -90.070424 
L 141.67203 -89.024528 
L 141.303181 -87.978633 
L 140.963595 -86.932737 
L 140.647976 -85.886842 
L 140.350889 -84.840946 
L 140.066301 -83.795051 
L 139.787335 -82.749156 
L 139.506313 -81.70326 
L 139.215049 -80.657365 
L 138.905376 -79.611469 
L 138.569813 -78.565574 
L 138.202282 -77.519678 
L 137.798761 -76.473783 
L 137.357798 -75.427887 
L 136.88079 -74.381992 
L 136.372001 -73.336097 
L 135.838306 -72.290201 
L 135.28869 -71.244306 
L 134.733565 -70.19841 
L 134.183974 -69.152515 
L 133.650782 -68.106619 
L 133.143928 -67.060724 
L 132.671813 -66.014829 
L 132.240874 -64.968933 
L 131.855357 -63.923038 
L 131.517297 -62.877142 
L 131.226672 -61.831247 
L 130.981694 -60.785351 
L 130.779191 -59.739456 
L 130.615013 -58.69356 
z
" style="stroke: #4c4c4c; stroke-width: 1.5"/>
    </defs>
    <g clip-path="url(#p7e50025b4e)">
     <use xlink:href="#m7062769403" x="0" y="252" style="fill: #5875a4; stroke: #4c4c4c; stroke-width: 1.5"/>
    </g>
   </g>
   <g id="PolyCollection_2">
    <defs>
     <path id="mc521ea2f15" d="M 218.734931 -58.69356 
L 217.712674 -58.69356 
L 217.548497 -59.739456 
L 217.345993 -60.785351 
L 217.101016 -61.831247 
L 216.81039 -62.877142 
L 216.47233 -63.923038 
L 216.086813 -64.968933 
L 215.655874 -66.014829 
L 215.18376 -67.060724 
L 214.676905 -68.106619 
L 214.143713 -69.152515 
L 213.594122 -70.19841 
L 213.038997 -71.244306 
L 212.489382 -72.290201 
L 211.955686 -73.336097 
L 211.446897 -74.381992 
L 210.969889 -75.427887 
L 210.528926 -76.473783 
L 210.125405 -77.519678 
L 209.757874 -78.565574 
L 209.422311 -79.611469 
L 209.112639 -80.657365 
L 208.821374 -81.70326 
L 208.540352 -82.749156 
L 208.261387 -83.795051 
L 207.976798 -84.840946 
L 207.679712 -85.886842 
L 207.364092 -86.932737 
L 207.024506 -87.978633 
L 206.655657 -89.024528 
L 206.251773 -90.070424 
L 205.805966 -91.116319 
L 205.3097 -92.162215 
L 204.752507 -93.20811 
L 204.122062 -94.254005 
L 203.404706 -95.299901 
L 202.586431 -96.345796 
L 201.654292 -97.391692 
L 200.598136 -98.437587 
L 199.412476 -99.483483 
L 198.098305 -100.529378 
L 196.664623 -101.575274 
L 195.129454 -102.621169 
L 193.520181 -103.667064 
L 191.873065 -104.71296 
L 190.231923 -105.758855 
L 188.646015 -106.804751 
L 187.167262 -107.850646 
L 185.847035 -108.896542 
L 184.732762 -109.942437 
L 183.864677 -110.988333 
L 183.273001 -112.034228 
L 182.975835 -113.080123 
L 182.977972 -114.126019 
L 183.270752 -115.171914 
L 183.832992 -116.21781 
L 184.632895 -117.263705 
L 185.630763 -118.309601 
L 186.782227 -119.355496 
L 188.041698 -120.401392 
L 189.365663 -121.447287 
L 190.715536 -122.493182 
L 192.059789 -123.539078 
L 193.375204 -124.584973 
L 194.647185 -125.630869 
L 195.869186 -126.676764 
L 197.041416 -127.72266 
L 198.169041 -128.768555 
L 199.260158 -129.814451 
L 200.323808 -130.860346 
L 201.368261 -131.906241 
L 202.399728 -132.952137 
L 203.421613 -133.998032 
L 204.434281 -135.043928 
L 205.435303 -136.089823 
L 206.42004 -137.135719 
L 207.382434 -138.181614 
L 208.315852 -139.22751 
L 209.213867 -140.273405 
L 210.070866 -141.3193 
L 210.882457 -142.365196 
L 211.645643 -143.411091 
L 212.358804 -144.456987 
L 213.021532 -145.502882 
L 213.634366 -146.548778 
L 214.198502 -147.594673 
L 214.715524 -148.640568 
L 215.187182 -149.686464 
L 215.615253 -150.732359 
L 216.001471 -151.778255 
L 216.347526 -152.82415 
L 216.655114 -153.870046 
L 216.926003 -154.915941 
L 217.162107 -155.961837 
L 217.365538 -157.007732 
L 217.538633 -158.053627 
L 217.683946 -159.099523 
L 217.804205 -160.145418 
L 217.902249 -161.191314 
L 217.980945 -162.237209 
L 218.466661 -162.237209 
L 218.466661 -162.237209 
L 218.545356 -161.191314 
L 218.6434 -160.145418 
L 218.763659 -159.099523 
L 218.908972 -158.053627 
L 219.082068 -157.007732 
L 219.285498 -155.961837 
L 219.521602 -154.915941 
L 219.792491 -153.870046 
L 220.100079 -152.82415 
L 220.446134 -151.778255 
L 220.832352 -150.732359 
L 221.260423 -149.686464 
L 221.732081 -148.640568 
L 222.249103 -147.594673 
L 222.81324 -146.548778 
L 223.426073 -145.502882 
L 224.088801 -144.456987 
L 224.801963 -143.411091 
L 225.565148 -142.365196 
L 226.376739 -141.3193 
L 227.233739 -140.273405 
L 228.131753 -139.22751 
L 229.065172 -138.181614 
L 230.027565 -137.135719 
L 231.012302 -136.089823 
L 232.013324 -135.043928 
L 233.025993 -133.998032 
L 234.047877 -132.952137 
L 235.079345 -131.906241 
L 236.123797 -130.860346 
L 237.187448 -129.814451 
L 238.278564 -128.768555 
L 239.406189 -127.72266 
L 240.578419 -126.676764 
L 241.80042 -125.630869 
L 243.072401 -124.584973 
L 244.387816 -123.539078 
L 245.732069 -122.493182 
L 247.081942 -121.447287 
L 248.405907 -120.401392 
L 249.665378 -119.355496 
L 250.816843 -118.309601 
L 251.81471 -117.263705 
L 252.614614 -116.21781 
L 253.176854 -115.171914 
L 253.469633 -114.126019 
L 253.47177 -113.080123 
L 253.174604 -112.034228 
L 252.582928 -110.988333 
L 251.714843 -109.942437 
L 250.60057 -108.896542 
L 249.280343 -107.850646 
L 247.801591 -106.804751 
L 246.215682 -105.758855 
L 244.57454 -104.71296 
L 242.927424 -103.667064 
L 241.318151 -102.621169 
L 239.782982 -101.575274 
L 238.3493 -100.529378 
L 237.035129 -99.483483 
L 235.849469 -98.437587 
L 234.793313 -97.391692 
L 233.861175 -96.345796 
L 233.042899 -95.299901 
L 232.325543 -94.254005 
L 231.695098 -93.20811 
L 231.137905 -92.162215 
L 230.641639 -91.116319 
L 230.195832 -90.070424 
L 229.791948 -89.024528 
L 229.423099 -87.978633 
L 229.083513 -86.932737 
L 228.767894 -85.886842 
L 228.470807 -84.840946 
L 228.186219 -83.795051 
L 227.907253 -82.749156 
L 227.626231 -81.70326 
L 227.334967 -80.657365 
L 227.025294 -79.611469 
L 226.689731 -78.565574 
L 226.3222 -77.519678 
L 225.918679 -76.473783 
L 225.477716 -75.427887 
L 225.000708 -74.381992 
L 224.491919 -73.336097 
L 223.958223 -72.290201 
L 223.408608 -71.244306 
L 222.853483 -70.19841 
L 222.303892 -69.152515 
L 221.7707 -68.106619 
L 221.263846 -67.060724 
L 220.791731 -66.014829 
L 220.360792 -64.968933 
L 219.975275 -63.923038 
L 219.637215 -62.877142 
L 219.34659 -61.831247 
L 219.101612 -60.785351 
L 218.899109 -59.739456 
L 218.734931 -58.69356 
z
" style="stroke: #4c4c4c; stroke-width: 1.5"/>
    </defs>
    <g clip-path="url(#p7e50025b4e)">
     <use xlink:href="#mc521ea2f15" x="0" y="252" style="fill: #5875a4; stroke: #4c4c4c; stroke-width: 1.5"/>
    </g>
   </g>
   <g id="line2d_31">
    <path d="M 130.103885 171.416467 
L 130.103885 113.097909 
" clip-path="url(#p7e50025b4e)" style="fill: none; stroke: #4c4c4c; stroke-width: 1.5; stroke-linecap: round"/>
   </g>
   <g id="line2d_32">
    <path d="M 130.103885 147.23843 
L 130.103885 130.764249 
" clip-path="url(#p7e50025b4e)" style="fill: none; stroke: #4c4c4c; stroke-width: 4.5; stroke-linecap: round"/>
   </g>
   <g id="line2d_33">
    <path d="M 218.223803 171.416467 
L 218.223803 113.097909 
" clip-path="url(#p7e50025b4e)" style="fill: none; stroke: #4c4c4c; stroke-width: 1.5; stroke-linecap: round"/>
   </g>
   <g id="line2d_34">
    <path d="M 218.223803 147.23843 
L 218.223803 130.764249 
" clip-path="url(#p7e50025b4e)" style="fill: none; stroke: #4c4c4c; stroke-width: 4.5; stroke-linecap: round"/>
   </g>
   <g id="line2d_35">
    <path d="M 130.103885 29.794545 
L 130.103885 23.46303 
L 218.223803 23.46303 
L 218.223803 29.794545 
" clip-path="url(#p7e50025b4e)" style="fill: none; stroke: #000000; stroke-width: 1.5; stroke-linecap: round"/>
   </g>
   <g id="patch_3">
    <path d="M 86.925125 219.74 
L 86.925125 10.8 
" style="fill: none; stroke: #262626; stroke-width: 1.25; stroke-linejoin: miter; stroke-linecap: square"/>
   </g>
   <g id="patch_4">
    <path d="M 261.402562 219.74 
L 261.402562 10.8 
" style="fill: none; stroke: #262626; stroke-width: 1.25; stroke-linejoin: miter; stroke-linecap: square"/>
   </g>
   <g id="patch_5">
    <path d="M 86.925125 219.74 
L 261.402562 219.74 
" style="fill: none; stroke: #262626; stroke-width: 1.25; stroke-linejoin: miter; stroke-linecap: square"/>
   </g>
   <g id="patch_6">
    <path d="M 86.925125 10.8 
L 261.402562 10.8 
" style="fill: none; stroke: #262626; stroke-width: 1.25; stroke-linejoin: miter; stroke-linecap: square"/>
   </g>
   <g id="PathCollection_1">
    <defs>
     <path id="md641a6105a" d="M 0 1 
C 0.265203 1 0.51958 0.894634 0.707107 0.707107 
C 0.894634 0.51958 1 0.265203 1 0 
C 1 -0.265203 0.894634 -0.51958 0.707107 -0.707107 
C 0.51958 -0.894634 0.265203 -1 0 -1 
C -0.265203 -1 -0.51958 -0.894634 -0.707107 -0.707107 
C -0.894634 -0.51958 -1 -0.265203 -1 0 
C -1 0.265203 -0.894634 0.51958 -0.707107 0.707107 
C -0.51958 0.894634 -0.265203 1 0 1 
z
"/>
    </defs>
    <g clip-path="url(#p7e50025b4e)">
     <use xlink:href="#md641a6105a" x="122.076922" y="140.747432" style="fill-opacity: 0.25"/>
     <use xlink:href="#md641a6105a" x="117.397175" y="130.179941" style="fill-opacity: 0.25"/>
     <use xlink:href="#md641a6105a" x="126.752636" y="113.616031" style="fill-opacity: 0.25"/>
     <use xlink:href="#md641a6105a" x="122.22135" y="139.760124" style="fill-opacity: 0.25"/>
     <use xlink:href="#md641a6105a" x="139.080882" y="121.058226" style="fill-opacity: 0.25"/>
     <use xlink:href="#md641a6105a" x="124.423656" y="138.25687" style="fill-opacity: 0.25"/>
     <use xlink:href="#md641a6105a" x="117.499991" y="123.389527" style="fill-opacity: 0.25"/>
     <use xlink:href="#md641a6105a" x="120.53381" y="105.453083" style="fill-opacity: 0.25"/>
     <use xlink:href="#md641a6105a" x="140.100316" y="124.715256" style="fill-opacity: 0.25"/>
     <use xlink:href="#md641a6105a" x="121.827242" y="123.330896" style="fill-opacity: 0.25"/>
     <use xlink:href="#md641a6105a" x="122.078409" y="135.847352" style="fill-opacity: 0.25"/>
     <use xlink:href="#md641a6105a" x="136.57429" y="119.918116" style="fill-opacity: 0.25"/>
     <use xlink:href="#md641a6105a" x="133.679858" y="147.267471" style="fill-opacity: 0.25"/>
     <use xlink:href="#md641a6105a" x="126.264735" y="174.13589" style="fill-opacity: 0.25"/>
     <use xlink:href="#md641a6105a" x="128.188314" y="144.459053" style="fill-opacity: 0.25"/>
     <use xlink:href="#md641a6105a" x="117.684619" y="141.189827" style="fill-opacity: 0.25"/>
     <use xlink:href="#md641a6105a" x="124.003667" y="133.194768" style="fill-opacity: 0.25"/>
     <use xlink:href="#md641a6105a" x="120.748285" y="141.42546" style="fill-opacity: 0.25"/>
     <use xlink:href="#md641a6105a" x="124.432071" y="134.992378" style="fill-opacity: 0.25"/>
     <use xlink:href="#md641a6105a" x="119.924167" y="143.68391" style="fill-opacity: 0.25"/>
     <use xlink:href="#md641a6105a" x="118.991115" y="156.035103" style="fill-opacity: 0.25"/>
     <use xlink:href="#md641a6105a" x="122.015553" y="157.500988" style="fill-opacity: 0.25"/>
     <use xlink:href="#md641a6105a" x="136.474171" y="121.002757" style="fill-opacity: 0.25"/>
     <use xlink:href="#md641a6105a" x="122.38603" y="144.783289" style="fill-opacity: 0.25"/>
     <use xlink:href="#md641a6105a" x="141.730245" y="163.842697" style="fill-opacity: 0.25"/>
     <use xlink:href="#md641a6105a" x="126.821621" y="157.191658" style="fill-opacity: 0.25"/>
     <use xlink:href="#md641a6105a" x="141.02342" y="136.556951" style="fill-opacity: 0.25"/>
     <use xlink:href="#md641a6105a" x="120.955984" y="160.648506" style="fill-opacity: 0.25"/>
     <use xlink:href="#md641a6105a" x="125.347078" y="131.348557" style="fill-opacity: 0.25"/>
     <use xlink:href="#md641a6105a" x="120.577069" y="135.219568" style="fill-opacity: 0.25"/>
     <use xlink:href="#md641a6105a" x="123.187018" y="138.496116" style="fill-opacity: 0.25"/>
     <use xlink:href="#md641a6105a" x="117.025191" y="143.077236" style="fill-opacity: 0.25"/>
     <use xlink:href="#md641a6105a" x="128.054907" y="145.522327" style="fill-opacity: 0.25"/>
     <use xlink:href="#md641a6105a" x="123.244285" y="113.097909" style="fill-opacity: 0.25"/>
     <use xlink:href="#md641a6105a" x="124.122412" y="166.749118" style="fill-opacity: 0.25"/>
     <use xlink:href="#md641a6105a" x="140.048155" y="129.545322" style="fill-opacity: 0.25"/>
     <use xlink:href="#md641a6105a" x="138.609575" y="136.868326" style="fill-opacity: 0.25"/>
     <use xlink:href="#md641a6105a" x="126.532715" y="139.165016" style="fill-opacity: 0.25"/>
     <use xlink:href="#md641a6105a" x="129.923044" y="177.278026" style="fill-opacity: 0.25"/>
     <use xlink:href="#md641a6105a" x="127.34708" y="136.928279" style="fill-opacity: 0.25"/>
     <use xlink:href="#md641a6105a" x="129.595954" y="139.086427" style="fill-opacity: 0.25"/>
     <use xlink:href="#md641a6105a" x="118.809636" y="177.616147" style="fill-opacity: 0.25"/>
     <use xlink:href="#md641a6105a" x="143.162228" y="154.003283" style="fill-opacity: 0.25"/>
     <use xlink:href="#md641a6105a" x="136.476714" y="171.416467" style="fill-opacity: 0.25"/>
     <use xlink:href="#md641a6105a" x="141.3495" y="135.920642" style="fill-opacity: 0.25"/>
     <use xlink:href="#md641a6105a" x="142.818775" y="121.715256" style="fill-opacity: 0.25"/>
     <use xlink:href="#md641a6105a" x="126.878326" y="147.209388" style="fill-opacity: 0.25"/>
    </g>
   </g>
   <g id="PathCollection_2">
    <g clip-path="url(#p7e50025b4e)">
     <use xlink:href="#md641a6105a" x="228.284043" y="140.747432" style="fill-opacity: 0.25"/>
     <use xlink:href="#md641a6105a" x="227.830357" y="130.179941" style="fill-opacity: 0.25"/>
     <use xlink:href="#md641a6105a" x="218.111216" y="113.616031" style="fill-opacity: 0.25"/>
     <use xlink:href="#md641a6105a" x="221.946296" y="139.760124" style="fill-opacity: 0.25"/>
     <use xlink:href="#md641a6105a" x="218.937012" y="121.058226" style="fill-opacity: 0.25"/>
     <use xlink:href="#md641a6105a" x="213.299885" y="138.25687" style="fill-opacity: 0.25"/>
     <use xlink:href="#md641a6105a" x="221.365406" y="123.389527" style="fill-opacity: 0.25"/>
     <use xlink:href="#md641a6105a" x="215.501969" y="105.453083" style="fill-opacity: 0.25"/>
     <use xlink:href="#md641a6105a" x="230.82723" y="124.715256" style="fill-opacity: 0.25"/>
     <use xlink:href="#md641a6105a" x="224.651623" y="123.330896" style="fill-opacity: 0.25"/>
     <use xlink:href="#md641a6105a" x="208.78931" y="135.847352" style="fill-opacity: 0.25"/>
     <use xlink:href="#md641a6105a" x="222.120304" y="119.918116" style="fill-opacity: 0.25"/>
     <use xlink:href="#md641a6105a" x="224.341093" y="147.267471" style="fill-opacity: 0.25"/>
     <use xlink:href="#md641a6105a" x="221.161469" y="174.13589" style="fill-opacity: 0.25"/>
     <use xlink:href="#md641a6105a" x="213.633779" y="144.459053" style="fill-opacity: 0.25"/>
     <use xlink:href="#md641a6105a" x="230.312122" y="141.189827" style="fill-opacity: 0.25"/>
     <use xlink:href="#md641a6105a" x="205.733551" y="133.194768" style="fill-opacity: 0.25"/>
     <use xlink:href="#md641a6105a" x="226.45164" y="141.42546" style="fill-opacity: 0.25"/>
     <use xlink:href="#md641a6105a" x="231.243243" y="134.992378" style="fill-opacity: 0.25"/>
     <use xlink:href="#md641a6105a" x="217.718612" y="143.68391" style="fill-opacity: 0.25"/>
     <use xlink:href="#md641a6105a" x="208.350047" y="156.035103" style="fill-opacity: 0.25"/>
     <use xlink:href="#md641a6105a" x="210.877906" y="157.500988" style="fill-opacity: 0.25"/>
     <use xlink:href="#md641a6105a" x="207.552139" y="121.002757" style="fill-opacity: 0.25"/>
     <use xlink:href="#md641a6105a" x="229.049329" y="144.783289" style="fill-opacity: 0.25"/>
     <use xlink:href="#md641a6105a" x="205.438689" y="163.842697" style="fill-opacity: 0.25"/>
     <use xlink:href="#md641a6105a" x="205.899909" y="157.191658" style="fill-opacity: 0.25"/>
     <use xlink:href="#md641a6105a" x="211.469853" y="136.556951" style="fill-opacity: 0.25"/>
     <use xlink:href="#md641a6105a" x="216.637901" y="160.648506" style="fill-opacity: 0.25"/>
     <use xlink:href="#md641a6105a" x="220.416008" y="131.348557" style="fill-opacity: 0.25"/>
     <use xlink:href="#md641a6105a" x="217.846676" y="135.219568" style="fill-opacity: 0.25"/>
     <use xlink:href="#md641a6105a" x="221.367939" y="138.496116" style="fill-opacity: 0.25"/>
     <use xlink:href="#md641a6105a" x="219.208373" y="143.077236" style="fill-opacity: 0.25"/>
     <use xlink:href="#md641a6105a" x="206.746311" y="145.522327" style="fill-opacity: 0.25"/>
     <use xlink:href="#md641a6105a" x="215.074884" y="113.097909" style="fill-opacity: 0.25"/>
     <use xlink:href="#md641a6105a" x="207.939195" y="166.749118" style="fill-opacity: 0.25"/>
     <use xlink:href="#md641a6105a" x="225.727" y="129.545322" style="fill-opacity: 0.25"/>
     <use xlink:href="#md641a6105a" x="209.943323" y="136.868326" style="fill-opacity: 0.25"/>
     <use xlink:href="#md641a6105a" x="214.485418" y="139.165016" style="fill-opacity: 0.25"/>
     <use xlink:href="#md641a6105a" x="207.21681" y="177.278026" style="fill-opacity: 0.25"/>
     <use xlink:href="#md641a6105a" x="213.43972" y="136.928279" style="fill-opacity: 0.25"/>
     <use xlink:href="#md641a6105a" x="224.432845" y="139.086427" style="fill-opacity: 0.25"/>
     <use xlink:href="#md641a6105a" x="211.380552" y="177.616147" style="fill-opacity: 0.25"/>
     <use xlink:href="#md641a6105a" x="230.34974" y="154.003283" style="fill-opacity: 0.25"/>
     <use xlink:href="#md641a6105a" x="227.445868" y="171.416467" style="fill-opacity: 0.25"/>
     <use xlink:href="#md641a6105a" x="227.558699" y="135.920642" style="fill-opacity: 0.25"/>
     <use xlink:href="#md641a6105a" x="206.009965" y="121.715256" style="fill-opacity: 0.25"/>
     <use xlink:href="#md641a6105a" x="223.856857" y="147.209388" style="fill-opacity: 0.25"/>
    </g>
   </g>
   <g id="PathCollection_3">
    <defs>
     <path id="mabe9122ddc" d="M 0 1.5 
C 0.397805 1.5 0.77937 1.341951 1.06066 1.06066 
C 1.341951 0.77937 1.5 0.397805 1.5 0 
C 1.5 -0.397805 1.341951 -0.77937 1.06066 -1.06066 
C 0.77937 -1.341951 0.397805 -1.5 0 -1.5 
C -0.397805 -1.5 -0.77937 -1.341951 -1.06066 -1.06066 
C -1.341951 -0.77937 -1.5 -0.397805 -1.5 0 
C -1.5 0.397805 -1.341951 0.77937 -1.06066 1.06066 
C -0.77937 1.341951 -0.397805 1.5 0 1.5 
z
" style="stroke: #4c4c4c"/>
    </defs>
    <g clip-path="url(#p7e50025b4e)">
     <use xlink:href="#mabe9122ddc" x="130.103885" y="139.086427" style="fill: #ffffff; stroke: #4c4c4c"/>
    </g>
   </g>
   <g id="PathCollection_4">
    <g clip-path="url(#p7e50025b4e)">
     <use xlink:href="#mabe9122ddc" x="218.223803" y="139.086427" style="fill: #ffffff; stroke: #4c4c4c"/>
    </g>
   </g>
   <g id="text_7">
    <!-- p = 1.00000000 -->
    <g transform="translate(139.271656 21.47553) scale(0.1 -0.1)">
     <defs>
      <path id="ArialMT-3d" d="M 3381 2694 
L 356 2694 
L 356 3219 
L 3381 3219 
L 3381 2694 
z
M 3381 1303 
L 356 1303 
L 356 1828 
L 3381 1828 
L 3381 1303 
z
" transform="scale(0.015625)"/>
      <path id="ArialMT-2e" d="M 581 0 
L 581 641 
L 1222 641 
L 1222 0 
L 581 0 
z
" transform="scale(0.015625)"/>
     </defs>
     <use xlink:href="#ArialMT-70"/>
     <use xlink:href="#ArialMT-20" x="55.615234"/>
     <use xlink:href="#ArialMT-3d" x="83.398438"/>
     <use xlink:href="#ArialMT-20" x="141.796875"/>
     <use xlink:href="#ArialMT-31" x="169.580078"/>
     <use xlink:href="#ArialMT-2e" x="225.195312"/>
     <use xlink:href="#ArialMT-30" x="252.978516"/>
     <use xlink:href="#ArialMT-30" x="308.59375"/>
     <use xlink:href="#ArialMT-30" x="364.208984"/>
     <use xlink:href="#ArialMT-30" x="419.824219"/>
     <use xlink:href="#ArialMT-30" x="475.439453"/>
     <use xlink:href="#ArialMT-30" x="531.054688"/>
     <use xlink:href="#ArialMT-30" x="586.669922"/>
     <use xlink:href="#ArialMT-30" x="642.285156"/>
    </g>
   </g>
  </g>
  <g id="axes_2">
   <g id="patch_7">
    <path d="M 318.722562 219.74 
L 493.2 219.74 
L 493.2 10.8 
L 318.722562 10.8 
z
" style="fill: #ffffff"/>
   </g>
   <g id="matplotlib.axis_3">
    <g id="xtick_3">
     <g id="line2d_36">
      <g>
       <use xlink:href="#m98370fb7b5" x="361.901322" y="219.74" style="fill: #262626; stroke: #262626; stroke-width: 0.8"/>
      </g>
     </g>
     <g id="text_8">
      <!-- TEST -->
      <g style="fill: #262626" transform="translate(344.011947 238.260937) scale(0.14 -0.14)">
       <use xlink:href="#ArialMT-54"/>
       <use xlink:href="#ArialMT-45" x="61.083984"/>
       <use xlink:href="#ArialMT-53" x="127.783203"/>
       <use xlink:href="#ArialMT-54" x="194.482422"/>
      </g>
     </g>
    </g>
    <g id="xtick_4">
     <g id="line2d_37">
      <g>
       <use xlink:href="#m98370fb7b5" x="450.02124" y="219.74" style="fill: #262626; stroke: #262626; stroke-width: 0.8"/>
      </g>
     </g>
     <g id="text_9">
      <!-- TESTcopy -->
      <g style="fill: #262626" transform="translate(418.125303 238.431562) scale(0.14 -0.14)">
       <use xlink:href="#ArialMT-54"/>
       <use xlink:href="#ArialMT-45" x="61.083984"/>
       <use xlink:href="#ArialMT-53" x="127.783203"/>
       <use xlink:href="#ArialMT-54" x="194.482422"/>
       <use xlink:href="#ArialMT-63" x="244.441406"/>
       <use xlink:href="#ArialMT-6f" x="294.441406"/>
       <use xlink:href="#ArialMT-70" x="350.056641"/>
       <use xlink:href="#ArialMT-79" x="405.671875"/>
      </g>
     </g>
    </g>
   </g>
   <g id="matplotlib.axis_4">
    <g id="ytick_29">
     <g id="line2d_38">
      <g>
       <use xlink:href="#m93de804855" x="318.722562" y="195.040705" style="fill: #262626; stroke: #262626; stroke-width: 0.8"/>
      </g>
     </g>
     <g id="text_10">
      <!-- 0.00 -->
      <g style="fill: #262626" transform="translate(282.97725 200.051174) scale(0.14 -0.14)">
       <use xlink:href="#ArialMT-30"/>
       <use xlink:href="#ArialMT-2e" x="55.615234"/>
       <use xlink:href="#ArialMT-30" x="83.398438"/>
       <use xlink:href="#ArialMT-30" x="139.013672"/>
      </g>
     </g>
    </g>
    <g id="ytick_30">
     <g id="line2d_39">
      <g>
       <use xlink:href="#m93de804855" x="318.722562" y="160.843632" style="fill: #262626; stroke: #262626; stroke-width: 0.8"/>
      </g>
     </g>
     <g id="text_11">
      <!-- 0.25 -->
      <g style="fill: #262626" transform="translate(282.97725 165.8541) scale(0.14 -0.14)">
       <defs>
        <path id="ArialMT-35" d="M 266 1200 
L 856 1250 
Q 922 819 1161 601 
Q 1400 384 1738 384 
Q 2144 384 2425 690 
Q 2706 997 2706 1503 
Q 2706 1984 2436 2262 
Q 2166 2541 1728 2541 
Q 1456 2541 1237 2417 
Q 1019 2294 894 2097 
L 366 2166 
L 809 4519 
L 3088 4519 
L 3088 3981 
L 1259 3981 
L 1013 2750 
Q 1425 3038 1878 3038 
Q 2478 3038 2890 2622 
Q 3303 2206 3303 1553 
Q 3303 931 2941 478 
Q 2500 -78 1738 -78 
Q 1113 -78 717 272 
Q 322 622 266 1200 
z
" transform="scale(0.015625)"/>
       </defs>
       <use xlink:href="#ArialMT-30"/>
       <use xlink:href="#ArialMT-2e" x="55.615234"/>
       <use xlink:href="#ArialMT-32" x="83.398438"/>
       <use xlink:href="#ArialMT-35" x="139.013672"/>
      </g>
     </g>
    </g>
    <g id="ytick_31">
     <g id="line2d_40">
      <g>
       <use xlink:href="#m93de804855" x="318.722562" y="126.646558" style="fill: #262626; stroke: #262626; stroke-width: 0.8"/>
      </g>
     </g>
     <g id="text_12">
      <!-- 0.50 -->
      <g style="fill: #262626" transform="translate(282.97725 131.657027) scale(0.14 -0.14)">
       <use xlink:href="#ArialMT-30"/>
       <use xlink:href="#ArialMT-2e" x="55.615234"/>
       <use xlink:href="#ArialMT-35" x="83.398438"/>
       <use xlink:href="#ArialMT-30" x="139.013672"/>
      </g>
     </g>
    </g>
    <g id="ytick_32">
     <g id="line2d_41">
      <g>
       <use xlink:href="#m93de804855" x="318.722562" y="92.449485" style="fill: #262626; stroke: #262626; stroke-width: 0.8"/>
      </g>
     </g>
     <g id="text_13">
      <!-- 0.75 -->
      <g style="fill: #262626" transform="translate(282.97725 97.459954) scale(0.14 -0.14)">
       <defs>
        <path id="ArialMT-37" d="M 303 3981 
L 303 4522 
L 3269 4522 
L 3269 4084 
Q 2831 3619 2401 2847 
Q 1972 2075 1738 1259 
Q 1569 684 1522 0 
L 944 0 
Q 953 541 1156 1306 
Q 1359 2072 1739 2783 
Q 2119 3494 2547 3981 
L 303 3981 
z
" transform="scale(0.015625)"/>
       </defs>
       <use xlink:href="#ArialMT-30"/>
       <use xlink:href="#ArialMT-2e" x="55.615234"/>
       <use xlink:href="#ArialMT-37" x="83.398438"/>
       <use xlink:href="#ArialMT-35" x="139.013672"/>
      </g>
     </g>
    </g>
    <g id="ytick_33">
     <g id="line2d_42">
      <g>
       <use xlink:href="#m93de804855" x="318.722562" y="58.252412" style="fill: #262626; stroke: #262626; stroke-width: 0.8"/>
      </g>
     </g>
     <g id="text_14">
      <!-- 1.00 -->
      <g style="fill: #262626" transform="translate(282.97725 63.262881) scale(0.14 -0.14)">
       <use xlink:href="#ArialMT-31"/>
       <use xlink:href="#ArialMT-2e" x="55.615234"/>
       <use xlink:href="#ArialMT-30" x="83.398438"/>
       <use xlink:href="#ArialMT-30" x="139.013672"/>
      </g>
     </g>
    </g>
    <g id="ytick_34">
     <g id="line2d_43">
      <g>
       <use xlink:href="#m93de804855" x="318.722562" y="24.055339" style="fill: #262626; stroke: #262626; stroke-width: 0.8"/>
      </g>
     </g>
     <g id="text_15">
      <!-- 1.25 -->
      <g style="fill: #262626" transform="translate(282.97725 29.065808) scale(0.14 -0.14)">
       <use xlink:href="#ArialMT-31"/>
       <use xlink:href="#ArialMT-2e" x="55.615234"/>
       <use xlink:href="#ArialMT-32" x="83.398438"/>
       <use xlink:href="#ArialMT-35" x="139.013672"/>
      </g>
     </g>
    </g>
    <g id="text_16">
     <!-- $\alpha$ -->
     <g style="fill: #262626" transform="translate(275.79725 119.91) rotate(-90) scale(0.16 -0.16)">
      <use xlink:href="#ArialMT-3b1" transform="translate(0 0.96875)"/>
     </g>
    </g>
   </g>
   <g id="PolyCollection_3">
    <defs>
     <path id="m010ae1dda3" d="M 362.803416 -41.757273 
L 360.999229 -41.757273 
L 360.681723 -43.271328 
L 360.28034 -44.785383 
L 359.783024 -46.299439 
L 359.179224 -47.813494 
L 358.461015 -49.327549 
L 357.624242 -50.841605 
L 356.669566 -52.35566 
L 355.603256 -53.869715 
L 354.437596 -55.383771 
L 353.190754 -56.897826 
L 351.886073 -58.411881 
L 350.550723 -59.925937 
L 349.213829 -61.439992 
L 347.904184 -62.954047 
L 346.647799 -64.468103 
L 345.465547 -65.982158 
L 344.371197 -67.496213 
L 343.370101 -69.010269 
L 342.458744 -70.524324 
L 341.625246 -72.038379 
L 340.850822 -73.552435 
L 340.112035 -75.06649 
L 339.383614 -76.580545 
L 338.641483 -78.094601 
L 337.865639 -79.608656 
L 337.042525 -81.122711 
L 336.1666 -82.636767 
L 335.24092 -84.150822 
L 334.276697 -85.664877 
L 333.291911 -87.178932 
L 332.309203 -88.692988 
L 331.353367 -90.207043 
L 330.448793 -91.721098 
L 329.617201 -93.235154 
L 328.875953 -94.749209 
L 328.237114 -96.263264 
L 327.707306 -97.77732 
L 327.288284 -99.291375 
L 326.978055 -100.80543 
L 326.772278 -102.319486 
L 326.665697 -103.833541 
L 326.653355 -105.347596 
L 326.731424 -106.861652 
L 326.897562 -108.375707 
L 327.150807 -109.889762 
L 327.491111 -111.403818 
L 327.918657 -112.917873 
L 328.433144 -114.431928 
L 329.033201 -115.945984 
L 329.716066 -117.460039 
L 330.477578 -118.974094 
L 331.312488 -120.48815 
L 332.215009 -122.002205 
L 333.179471 -123.51626 
L 334.200954 -125.030316 
L 335.275727 -126.544371 
L 336.401409 -128.058426 
L 337.576767 -129.572482 
L 338.801182 -131.086537 
L 340.073835 -132.600592 
L 341.392755 -134.114648 
L 342.753862 -135.628703 
L 344.150186 -137.142758 
L 345.571383 -138.656814 
L 347.00365 -140.170869 
L 348.430067 -141.684924 
L 349.831348 -143.19898 
L 351.186921 -144.713035 
L 352.47621 -146.22709 
L 353.679988 -147.741145 
L 354.781657 -149.255201 
L 355.768331 -150.769256 
L 356.631629 -152.283311 
L 357.36812 -153.797367 
L 357.979394 -155.311422 
L 358.471788 -156.825477 
L 358.85579 -158.339533 
L 359.145202 -159.853588 
L 359.356122 -161.367643 
L 359.505844 -162.881699 
L 359.611746 -164.395754 
L 359.690263 -165.909809 
L 359.755993 -167.423865 
L 359.821022 -168.93792 
L 359.894477 -170.451975 
L 359.982354 -171.966031 
L 360.087589 -173.480086 
L 360.210366 -174.994141 
L 360.348594 -176.508197 
L 360.498507 -178.022252 
L 360.655315 -179.536307 
L 360.813828 -181.050363 
L 360.969013 -182.564418 
L 361.116434 -184.078473 
L 361.252549 -185.592529 
L 361.374868 -187.106584 
L 361.481975 -188.620639 
L 361.573449 -190.134695 
L 361.649706 -191.64875 
L 362.152938 -191.64875 
L 362.152938 -191.64875 
L 362.229196 -190.134695 
L 362.32067 -188.620639 
L 362.427777 -187.106584 
L 362.550095 -185.592529 
L 362.68621 -184.078473 
L 362.833631 -182.564418 
L 362.988816 -181.050363 
L 363.147329 -179.536307 
L 363.304137 -178.022252 
L 363.454051 -176.508197 
L 363.592278 -174.994141 
L 363.715055 -173.480086 
L 363.820291 -171.966031 
L 363.908167 -170.451975 
L 363.981623 -168.93792 
L 364.046651 -167.423865 
L 364.112382 -165.909809 
L 364.190898 -164.395754 
L 364.296801 -162.881699 
L 364.446522 -161.367643 
L 364.657442 -159.853588 
L 364.946854 -158.339533 
L 365.330857 -156.825477 
L 365.823251 -155.311422 
L 366.434525 -153.797367 
L 367.171015 -152.283311 
L 368.034313 -150.769256 
L 369.020987 -149.255201 
L 370.122656 -147.741145 
L 371.326434 -146.22709 
L 372.615723 -144.713035 
L 373.971296 -143.19898 
L 375.372578 -141.684924 
L 376.798994 -140.170869 
L 378.231261 -138.656814 
L 379.652458 -137.142758 
L 381.048783 -135.628703 
L 382.40989 -134.114648 
L 383.728809 -132.600592 
L 385.001463 -131.086537 
L 386.225877 -129.572482 
L 387.401235 -128.058426 
L 388.526917 -126.544371 
L 389.601691 -125.030316 
L 390.623173 -123.51626 
L 391.587636 -122.002205 
L 392.490156 -120.48815 
L 393.325067 -118.974094 
L 394.086579 -117.460039 
L 394.769443 -115.945984 
L 395.3695 -114.431928 
L 395.883987 -112.917873 
L 396.311533 -111.403818 
L 396.651837 -109.889762 
L 396.905082 -108.375707 
L 397.07122 -106.861652 
L 397.149289 -105.347596 
L 397.136947 -103.833541 
L 397.030366 -102.319486 
L 396.824589 -100.80543 
L 396.51436 -99.291375 
L 396.095339 -97.77732 
L 395.56553 -96.263264 
L 394.926691 -94.749209 
L 394.185444 -93.235154 
L 393.353852 -91.721098 
L 392.449277 -90.207043 
L 391.493442 -88.692988 
L 390.510733 -87.178932 
L 389.525947 -85.664877 
L 388.561725 -84.150822 
L 387.636045 -82.636767 
L 386.760119 -81.122711 
L 385.937005 -79.608656 
L 385.161161 -78.094601 
L 384.41903 -76.580545 
L 383.69061 -75.06649 
L 382.951823 -73.552435 
L 382.177398 -72.038379 
L 381.343901 -70.524324 
L 380.432543 -69.010269 
L 379.431447 -67.496213 
L 378.337097 -65.982158 
L 377.154846 -64.468103 
L 375.898461 -62.954047 
L 374.588816 -61.439992 
L 373.251921 -59.925937 
L 371.916572 -58.411881 
L 370.61189 -56.897826 
L 369.365049 -55.383771 
L 368.199388 -53.869715 
L 367.133079 -52.35566 
L 366.178402 -50.841605 
L 365.341629 -49.327549 
L 364.62342 -47.813494 
L 364.01962 -46.299439 
L 363.522304 -44.785383 
L 363.120922 -43.271328 
L 362.803416 -41.757273 
z
" style="stroke: #5b5b5b; stroke-width: 1.5"/>
    </defs>
    <g clip-path="url(#pc8477cd913)">
     <use xlink:href="#m010ae1dda3" x="0" y="252" style="fill: #cc8963; stroke: #5b5b5b; stroke-width: 1.5"/>
    </g>
   </g>
   <g id="PolyCollection_4">
    <defs>
     <path id="m4170bababa" d="M 450.923334 -41.757273 
L 449.119147 -41.757273 
L 448.801641 -43.271328 
L 448.400258 -44.785383 
L 447.902942 -46.299439 
L 447.299142 -47.813494 
L 446.580933 -49.327549 
L 445.74416 -50.841605 
L 444.789484 -52.35566 
L 443.723174 -53.869715 
L 442.557514 -55.383771 
L 441.310672 -56.897826 
L 440.005991 -58.411881 
L 438.670641 -59.925937 
L 437.333747 -61.439992 
L 436.024102 -62.954047 
L 434.767717 -64.468103 
L 433.585465 -65.982158 
L 432.491115 -67.496213 
L 431.490019 -69.010269 
L 430.578662 -70.524324 
L 429.745164 -72.038379 
L 428.97074 -73.552435 
L 428.231953 -75.06649 
L 427.503532 -76.580545 
L 426.761401 -78.094601 
L 425.985557 -79.608656 
L 425.162443 -81.122711 
L 424.286518 -82.636767 
L 423.360838 -84.150822 
L 422.396615 -85.664877 
L 421.411829 -87.178932 
L 420.429121 -88.692988 
L 419.473285 -90.207043 
L 418.568711 -91.721098 
L 417.737119 -93.235154 
L 416.995871 -94.749209 
L 416.357032 -96.263264 
L 415.827224 -97.77732 
L 415.408202 -99.291375 
L 415.097973 -100.80543 
L 414.892196 -102.319486 
L 414.785615 -103.833541 
L 414.773273 -105.347596 
L 414.851342 -106.861652 
L 415.01748 -108.375707 
L 415.270725 -109.889762 
L 415.611029 -111.403818 
L 416.038575 -112.917873 
L 416.553062 -114.431928 
L 417.153119 -115.945984 
L 417.835984 -117.460039 
L 418.597496 -118.974094 
L 419.432406 -120.48815 
L 420.334927 -122.002205 
L 421.299389 -123.51626 
L 422.320872 -125.030316 
L 423.395645 -126.544371 
L 424.521327 -128.058426 
L 425.696685 -129.572482 
L 426.9211 -131.086537 
L 428.193753 -132.600592 
L 429.512673 -134.114648 
L 430.87378 -135.628703 
L 432.270104 -137.142758 
L 433.691301 -138.656814 
L 435.123568 -140.170869 
L 436.549985 -141.684924 
L 437.951266 -143.19898 
L 439.306839 -144.713035 
L 440.596128 -146.22709 
L 441.799906 -147.741145 
L 442.901575 -149.255201 
L 443.888249 -150.769256 
L 444.751547 -152.283311 
L 445.488038 -153.797367 
L 446.099312 -155.311422 
L 446.591706 -156.825477 
L 446.975708 -158.339533 
L 447.26512 -159.853588 
L 447.47604 -161.367643 
L 447.625762 -162.881699 
L 447.731664 -164.395754 
L 447.810181 -165.909809 
L 447.875911 -167.423865 
L 447.94094 -168.93792 
L 448.014395 -170.451975 
L 448.102272 -171.966031 
L 448.207507 -173.480086 
L 448.330284 -174.994141 
L 448.468512 -176.508197 
L 448.618425 -178.022252 
L 448.775233 -179.536307 
L 448.933746 -181.050363 
L 449.088931 -182.564418 
L 449.236352 -184.078473 
L 449.372467 -185.592529 
L 449.494786 -187.106584 
L 449.601893 -188.620639 
L 449.693367 -190.134695 
L 449.769624 -191.64875 
L 450.272856 -191.64875 
L 450.272856 -191.64875 
L 450.349114 -190.134695 
L 450.440588 -188.620639 
L 450.547695 -187.106584 
L 450.670013 -185.592529 
L 450.806128 -184.078473 
L 450.953549 -182.564418 
L 451.108734 -181.050363 
L 451.267247 -179.536307 
L 451.424055 -178.022252 
L 451.573969 -176.508197 
L 451.712196 -174.994141 
L 451.834973 -173.480086 
L 451.940208 -171.966031 
L 452.028085 -170.451975 
L 452.101541 -168.93792 
L 452.166569 -167.423865 
L 452.232299 -165.909809 
L 452.310816 -164.395754 
L 452.416719 -162.881699 
L 452.56644 -161.367643 
L 452.77736 -159.853588 
L 453.066772 -158.339533 
L 453.450775 -156.825477 
L 453.943169 -155.311422 
L 454.554443 -153.797367 
L 455.290933 -152.283311 
L 456.154231 -150.769256 
L 457.140905 -149.255201 
L 458.242574 -147.741145 
L 459.446352 -146.22709 
L 460.735641 -144.713035 
L 462.091214 -143.19898 
L 463.492496 -141.684924 
L 464.918912 -140.170869 
L 466.351179 -138.656814 
L 467.772376 -137.142758 
L 469.1687 -135.628703 
L 470.529808 -134.114648 
L 471.848727 -132.600592 
L 473.121381 -131.086537 
L 474.345795 -129.572482 
L 475.521153 -128.058426 
L 476.646835 -126.544371 
L 477.721609 -125.030316 
L 478.743091 -123.51626 
L 479.707554 -122.002205 
L 480.610074 -120.48815 
L 481.444985 -118.974094 
L 482.206496 -117.460039 
L 482.889361 -115.945984 
L 483.489418 -114.431928 
L 484.003905 -112.917873 
L 484.431451 -111.403818 
L 484.771755 -109.889762 
L 485.025 -108.375707 
L 485.191138 -106.861652 
L 485.269207 -105.347596 
L 485.256865 -103.833541 
L 485.150284 -102.319486 
L 484.944507 -100.80543 
L 484.634278 -99.291375 
L 484.215257 -97.77732 
L 483.685448 -96.263264 
L 483.046609 -94.749209 
L 482.305362 -93.235154 
L 481.47377 -91.721098 
L 480.569195 -90.207043 
L 479.613359 -88.692988 
L 478.630651 -87.178932 
L 477.645865 -85.664877 
L 476.681643 -84.150822 
L 475.755963 -82.636767 
L 474.880037 -81.122711 
L 474.056923 -79.608656 
L 473.281079 -78.094601 
L 472.538948 -76.580545 
L 471.810528 -75.06649 
L 471.071741 -73.552435 
L 470.297316 -72.038379 
L 469.463819 -70.524324 
L 468.552461 -69.010269 
L 467.551365 -67.496213 
L 466.457015 -65.982158 
L 465.274764 -64.468103 
L 464.018379 -62.954047 
L 462.708734 -61.439992 
L 461.371839 -59.925937 
L 460.03649 -58.411881 
L 458.731808 -56.897826 
L 457.484967 -55.383771 
L 456.319306 -53.869715 
L 455.252997 -52.35566 
L 454.29832 -50.841605 
L 453.461547 -49.327549 
L 452.743338 -47.813494 
L 452.139538 -46.299439 
L 451.642222 -44.785383 
L 451.24084 -43.271328 
L 450.923334 -41.757273 
z
" style="stroke: #5b5b5b; stroke-width: 1.5"/>
    </defs>
    <g clip-path="url(#pc8477cd913)">
     <use xlink:href="#m4170bababa" x="0" y="252" style="fill: #cc8963; stroke: #5b5b5b; stroke-width: 1.5"/>
    </g>
   </g>
   <g id="line2d_44">
    <path d="M 361.901322 188.128401 
L 361.901322 109.18664 
" clip-path="url(#pc8477cd913)" style="fill: none; stroke: #5b5b5b; stroke-width: 1.5; stroke-linecap: round"/>
   </g>
   <g id="line2d_45">
    <path d="M 361.901322 162.108314 
L 361.901322 132.12623 
" clip-path="url(#pc8477cd913)" style="fill: none; stroke: #5b5b5b; stroke-width: 4.5; stroke-linecap: round"/>
   </g>
   <g id="line2d_46">
    <path d="M 450.02124 188.128401 
L 450.02124 109.18664 
" clip-path="url(#pc8477cd913)" style="fill: none; stroke: #5b5b5b; stroke-width: 1.5; stroke-linecap: round"/>
   </g>
   <g id="line2d_47">
    <path d="M 450.02124 162.108314 
L 450.02124 132.12623 
" clip-path="url(#pc8477cd913)" style="fill: none; stroke: #5b5b5b; stroke-width: 4.5; stroke-linecap: round"/>
   </g>
   <g id="line2d_48">
    <path d="M 361.901322 33.976102 
L 361.901322 20.297273 
L 450.02124 20.297273 
L 450.02124 33.976102 
" clip-path="url(#pc8477cd913)" style="fill: none; stroke: #000000; stroke-width: 1.5; stroke-linecap: round"/>
   </g>
   <g id="patch_8">
    <path d="M 318.722562 219.74 
L 318.722562 10.8 
" style="fill: none; stroke: #262626; stroke-width: 1.25; stroke-linejoin: miter; stroke-linecap: square"/>
   </g>
   <g id="patch_9">
    <path d="M 493.2 219.74 
L 493.2 10.8 
" style="fill: none; stroke: #262626; stroke-width: 1.25; stroke-linejoin: miter; stroke-linecap: square"/>
   </g>
   <g id="patch_10">
    <path d="M 318.722562 219.74 
L 493.2 219.74 
" style="fill: none; stroke: #262626; stroke-width: 1.25; stroke-linejoin: miter; stroke-linecap: square"/>
   </g>
   <g id="patch_11">
    <path d="M 318.722562 10.8 
L 493.2 10.8 
" style="fill: none; stroke: #262626; stroke-width: 1.25; stroke-linejoin: miter; stroke-linecap: square"/>
   </g>
   <g id="PathCollection_5">
    <g clip-path="url(#pc8477cd913)">
     <use xlink:href="#md641a6105a" x="362.417498" y="178.966374" style="fill-opacity: 0.25"/>
     <use xlink:href="#md641a6105a" x="357.852177" y="159.669655" style="fill-opacity: 0.25"/>
     <use xlink:href="#md641a6105a" x="366.080128" y="131.07791" style="fill-opacity: 0.25"/>
     <use xlink:href="#md641a6105a" x="360.110673" y="140.915501" style="fill-opacity: 0.25"/>
     <use xlink:href="#md641a6105a" x="373.38393" y="183.552867" style="fill-opacity: 0.25"/>
     <use xlink:href="#md641a6105a" x="370.729993" y="116.137792" style="fill-opacity: 0.25"/>
     <use xlink:href="#md641a6105a" x="368.844683" y="181.73088" style="fill-opacity: 0.25"/>
     <use xlink:href="#md641a6105a" x="369.555477" y="183.626929" style="fill-opacity: 0.25"/>
     <use xlink:href="#md641a6105a" x="372.74541" y="159.600769" style="fill-opacity: 0.25"/>
     <use xlink:href="#md641a6105a" x="353.822782" y="148.098705" style="fill-opacity: 0.25"/>
     <use xlink:href="#md641a6105a" x="373.740079" y="153.119053" style="fill-opacity: 0.25"/>
     <use xlink:href="#md641a6105a" x="355.026523" y="153.449751" style="fill-opacity: 0.25"/>
     <use xlink:href="#md641a6105a" x="352.87095" y="116.648839" style="fill-opacity: 0.25"/>
     <use xlink:href="#md641a6105a" x="374.101112" y="162.142312" style="fill-opacity: 0.25"/>
     <use xlink:href="#md641a6105a" x="365.314795" y="175.99089" style="fill-opacity: 0.25"/>
     <use xlink:href="#md641a6105a" x="374.086325" y="156.205039" style="fill-opacity: 0.25"/>
     <use xlink:href="#md641a6105a" x="368.23802" y="158.939755" style="fill-opacity: 0.25"/>
     <use xlink:href="#md641a6105a" x="359.633528" y="163.70294" style="fill-opacity: 0.25"/>
     <use xlink:href="#md641a6105a" x="366.484342" y="141.368027" style="fill-opacity: 0.25"/>
     <use xlink:href="#md641a6105a" x="371.115127" y="146.053304" style="fill-opacity: 0.25"/>
     <use xlink:href="#md641a6105a" x="362.677676" y="133.018799" style="fill-opacity: 0.25"/>
     <use xlink:href="#md641a6105a" x="363.261025" y="137.024296" style="fill-opacity: 0.25"/>
     <use xlink:href="#md641a6105a" x="366.435519" y="138.169713" style="fill-opacity: 0.25"/>
     <use xlink:href="#md641a6105a" x="356.360281" y="121.760368" style="fill-opacity: 0.25"/>
     <use xlink:href="#md641a6105a" x="355.41869" y="158.202884" style="fill-opacity: 0.25"/>
     <use xlink:href="#md641a6105a" x="353.042264" y="160.41524" style="fill-opacity: 0.25"/>
     <use xlink:href="#md641a6105a" x="356.933963" y="124.705261" style="fill-opacity: 0.25"/>
     <use xlink:href="#md641a6105a" x="366.801756" y="151.970996" style="fill-opacity: 0.25"/>
     <use xlink:href="#md641a6105a" x="367.980553" y="187.350077" style="fill-opacity: 0.25"/>
     <use xlink:href="#md641a6105a" x="368.963647" y="133.914054" style="fill-opacity: 0.25"/>
     <use xlink:href="#md641a6105a" x="371.01584" y="171.433621" style="fill-opacity: 0.25"/>
     <use xlink:href="#md641a6105a" x="373.580067" y="133.411137" style="fill-opacity: 0.25"/>
     <use xlink:href="#md641a6105a" x="351.318904" y="183.6794" style="fill-opacity: 0.25"/>
     <use xlink:href="#md641a6105a" x="350.825532" y="129.014413" style="fill-opacity: 0.25"/>
     <use xlink:href="#md641a6105a" x="357.602992" y="82.465576" style="fill-opacity: 0.25"/>
     <use xlink:href="#md641a6105a" x="363.447662" y="141.923479" style="fill-opacity: 0.25"/>
     <use xlink:href="#md641a6105a" x="350.096205" y="162.074317" style="fill-opacity: 0.25"/>
     <use xlink:href="#md641a6105a" x="370.023898" y="119.238458" style="fill-opacity: 0.25"/>
     <use xlink:href="#md641a6105a" x="361.467781" y="148.727571" style="fill-opacity: 0.25"/>
     <use xlink:href="#md641a6105a" x="362.707588" y="142.697639" style="fill-opacity: 0.25"/>
     <use xlink:href="#md641a6105a" x="353.788591" y="109.18664" style="fill-opacity: 0.25"/>
     <use xlink:href="#md641a6105a" x="360.751614" y="120.067639" style="fill-opacity: 0.25"/>
     <use xlink:href="#md641a6105a" x="366.893177" y="112.865923" style="fill-opacity: 0.25"/>
     <use xlink:href="#md641a6105a" x="363.123289" y="171.939735" style="fill-opacity: 0.25"/>
     <use xlink:href="#md641a6105a" x="360.204185" y="143.548436" style="fill-opacity: 0.25"/>
     <use xlink:href="#md641a6105a" x="374.02554" y="188.128401" style="fill-opacity: 0.25"/>
     <use xlink:href="#md641a6105a" x="370.000691" y="131.233662" style="fill-opacity: 0.25"/>
    </g>
   </g>
   <g id="PathCollection_6">
    <g clip-path="url(#pc8477cd913)">
     <use xlink:href="#md641a6105a" x="455.562432" y="178.966374" style="fill-opacity: 0.25"/>
     <use xlink:href="#md641a6105a" x="452.701953" y="159.669655" style="fill-opacity: 0.25"/>
     <use xlink:href="#md641a6105a" x="454.934935" y="131.07791" style="fill-opacity: 0.25"/>
     <use xlink:href="#md641a6105a" x="459.883847" y="140.915501" style="fill-opacity: 0.25"/>
     <use xlink:href="#md641a6105a" x="438.643705" y="183.552867" style="fill-opacity: 0.25"/>
     <use xlink:href="#md641a6105a" x="455.887537" y="116.137792" style="fill-opacity: 0.25"/>
     <use xlink:href="#md641a6105a" x="458.023104" y="181.73088" style="fill-opacity: 0.25"/>
     <use xlink:href="#md641a6105a" x="437.856447" y="183.626929" style="fill-opacity: 0.25"/>
     <use xlink:href="#md641a6105a" x="460.399034" y="159.600769" style="fill-opacity: 0.25"/>
     <use xlink:href="#md641a6105a" x="438.705548" y="148.098705" style="fill-opacity: 0.25"/>
     <use xlink:href="#md641a6105a" x="458.153031" y="153.119053" style="fill-opacity: 0.25"/>
     <use xlink:href="#md641a6105a" x="441.111022" y="153.449751" style="fill-opacity: 0.25"/>
     <use xlink:href="#md641a6105a" x="455.90559" y="116.648839" style="fill-opacity: 0.25"/>
     <use xlink:href="#md641a6105a" x="438.922455" y="162.142312" style="fill-opacity: 0.25"/>
     <use xlink:href="#md641a6105a" x="442.575979" y="175.99089" style="fill-opacity: 0.25"/>
     <use xlink:href="#md641a6105a" x="437.691353" y="156.205039" style="fill-opacity: 0.25"/>
     <use xlink:href="#md641a6105a" x="438.915009" y="158.939755" style="fill-opacity: 0.25"/>
     <use xlink:href="#md641a6105a" x="460.120451" y="163.70294" style="fill-opacity: 0.25"/>
     <use xlink:href="#md641a6105a" x="447.873978" y="141.368027" style="fill-opacity: 0.25"/>
     <use xlink:href="#md641a6105a" x="456.416065" y="146.053304" style="fill-opacity: 0.25"/>
     <use xlink:href="#md641a6105a" x="452.281696" y="133.018799" style="fill-opacity: 0.25"/>
     <use xlink:href="#md641a6105a" x="437.039794" y="137.024296" style="fill-opacity: 0.25"/>
     <use xlink:href="#md641a6105a" x="449.027971" y="138.169713" style="fill-opacity: 0.25"/>
     <use xlink:href="#md641a6105a" x="451.030546" y="121.760368" style="fill-opacity: 0.25"/>
     <use xlink:href="#md641a6105a" x="458.080749" y="158.202884" style="fill-opacity: 0.25"/>
     <use xlink:href="#md641a6105a" x="441.438578" y="160.41524" style="fill-opacity: 0.25"/>
     <use xlink:href="#md641a6105a" x="448.005768" y="124.705261" style="fill-opacity: 0.25"/>
     <use xlink:href="#md641a6105a" x="459.912932" y="151.970996" style="fill-opacity: 0.25"/>
     <use xlink:href="#md641a6105a" x="453.951677" y="187.350077" style="fill-opacity: 0.25"/>
     <use xlink:href="#md641a6105a" x="454.684346" y="133.914054" style="fill-opacity: 0.25"/>
     <use xlink:href="#md641a6105a" x="443.001509" y="171.433621" style="fill-opacity: 0.25"/>
     <use xlink:href="#md641a6105a" x="445.69946" y="133.411137" style="fill-opacity: 0.25"/>
     <use xlink:href="#md641a6105a" x="443.912695" y="183.6794" style="fill-opacity: 0.25"/>
     <use xlink:href="#md641a6105a" x="442.319692" y="129.014413" style="fill-opacity: 0.25"/>
     <use xlink:href="#md641a6105a" x="438.680769" y="82.465576" style="fill-opacity: 0.25"/>
     <use xlink:href="#md641a6105a" x="443.185394" y="141.923479" style="fill-opacity: 0.25"/>
     <use xlink:href="#md641a6105a" x="443.808726" y="162.074317" style="fill-opacity: 0.25"/>
     <use xlink:href="#md641a6105a" x="461.757475" y="119.238458" style="fill-opacity: 0.25"/>
     <use xlink:href="#md641a6105a" x="437.128349" y="148.727571" style="fill-opacity: 0.25"/>
     <use xlink:href="#md641a6105a" x="439.446499" y="142.697639" style="fill-opacity: 0.25"/>
     <use xlink:href="#md641a6105a" x="446.276541" y="109.18664" style="fill-opacity: 0.25"/>
     <use xlink:href="#md641a6105a" x="452.040641" y="120.067639" style="fill-opacity: 0.25"/>
     <use xlink:href="#md641a6105a" x="444.321199" y="112.865923" style="fill-opacity: 0.25"/>
     <use xlink:href="#md641a6105a" x="458.319714" y="171.939735" style="fill-opacity: 0.25"/>
     <use xlink:href="#md641a6105a" x="461.038012" y="143.548436" style="fill-opacity: 0.25"/>
     <use xlink:href="#md641a6105a" x="459.028439" y="188.128401" style="fill-opacity: 0.25"/>
     <use xlink:href="#md641a6105a" x="438.433422" y="131.233662" style="fill-opacity: 0.25"/>
    </g>
   </g>
   <g id="PathCollection_7">
    <defs>
     <path id="m106cf329fa" d="M 0 1.5 
C 0.397805 1.5 0.77937 1.341951 1.06066 1.06066 
C 1.341951 0.77937 1.5 0.397805 1.5 0 
C 1.5 -0.397805 1.341951 -0.77937 1.06066 -1.06066 
C 0.77937 -1.341951 0.397805 -1.5 0 -1.5 
C -0.397805 -1.5 -0.77937 -1.341951 -1.06066 -1.06066 
C -1.341951 -0.77937 -1.5 -0.397805 -1.5 0 
C -1.5 0.397805 -1.341951 0.77937 -1.06066 1.06066 
C -0.77937 1.341951 -0.397805 1.5 0 1.5 
z
" style="stroke: #5b5b5b"/>
    </defs>
    <g clip-path="url(#pc8477cd913)">
     <use xlink:href="#m106cf329fa" x="361.901322" y="148.098705" style="fill: #ffffff; stroke: #5b5b5b"/>
    </g>
   </g>
   <g id="PathCollection_8">
    <g clip-path="url(#pc8477cd913)">
     <use xlink:href="#m106cf329fa" x="450.02124" y="148.098705" style="fill: #ffffff; stroke: #5b5b5b"/>
    </g>
   </g>
   <g id="text_17">
    <!-- p = 1.00000000 -->
    <g transform="translate(371.069094 18.309773) scale(0.1 -0.1)">
     <use xlink:href="#ArialMT-70"/>
     <use xlink:href="#ArialMT-20" x="55.615234"/>
     <use xlink:href="#ArialMT-3d" x="83.398438"/>
     <use xlink:href="#ArialMT-20" x="141.796875"/>
     <use xlink:href="#ArialMT-31" x="169.580078"/>
     <use xlink:href="#ArialMT-2e" x="225.195312"/>
     <use xlink:href="#ArialMT-30" x="252.978516"/>
     <use xlink:href="#ArialMT-30" x="308.59375"/>
     <use xlink:href="#ArialMT-30" x="364.208984"/>
     <use xlink:href="#ArialMT-30" x="419.824219"/>
     <use xlink:href="#ArialMT-30" x="475.439453"/>
     <use xlink:href="#ArialMT-30" x="531.054688"/>
     <use xlink:href="#ArialMT-30" x="586.669922"/>
     <use xlink:href="#ArialMT-30" x="642.285156"/>
    </g>
   </g>
  </g>
 </g>
 <defs>
  <clipPath id="p7e50025b4e">
   <rect x="86.925125" y="10.8" width="174.477438" height="208.94"/>
  </clipPath>
  <clipPath id="pc8477cd913">
   <rect x="318.722562" y="10.8" width="174.477438" height="208.94"/>
  </clipPath>
 </defs>
</svg>
